<?xml version="1.0" encoding="UTF-8" standalone="no"?>
<svg
   xmlns:dc="http://purl.org/dc/elements/1.1/"
   xmlns:cc="http://creativecommons.org/ns#"
   xmlns:rdf="http://www.w3.org/1999/02/22-rdf-syntax-ns#"
   xmlns:svg="http://www.w3.org/2000/svg"
   xmlns="http://www.w3.org/2000/svg"
   version="1.1"
   id="svg2"
   viewBox="0 0 1317.37 363.02524"
   height="102.45379mm"
   width="371.79108mm">
  <defs
     id="defs4">
    <marker
       style="overflow:visible"
       id="Arrow1Lend"
       refX="0"
       refY="0"
       orient="auto">
      <path
         transform="matrix(-0.8,0,0,-0.8,-10,0)"
         style="fill:#000000;fill-opacity:1;fill-rule:evenodd;stroke:#000000;stroke-width:1pt;stroke-opacity:1"
         d="M 0,0 5,-5 -12.5,0 5,5 0,0 Z"
         id="path5845" />
    </marker>
    <marker
       style="overflow:visible"
       id="TriangleOutM"
       refX="0"
       refY="0"
       orient="auto">
      <path
         transform="scale(0.4,0.4)"
         style="fill:#000000;fill-opacity:1;fill-rule:evenodd;stroke:#000000;stroke-width:1pt;stroke-opacity:1"
         d="m 5.77,0 -8.65,5 0,-10 8.65,5 z"
         id="path5987" />
    </marker>
    <marker
       style="overflow:visible"
       id="TriangleInM"
       refX="0"
       refY="0"
       orient="auto">
      <path
         transform="scale(-0.4,-0.4)"
         style="fill:#000000;fill-opacity:1;fill-rule:evenodd;stroke:#000000;stroke-width:1pt;stroke-opacity:1"
         d="m 5.77,0 -8.65,5 0,-10 8.65,5 z"
         id="path5978" />
    </marker>
    <marker
       style="overflow:visible"
       id="Arrow2Mstart"
       refX="0"
       refY="0"
       orient="auto">
      <path
         transform="scale(0.6,0.6)"
         d="M 8.7185878,4.0337352 -2.2072895,0.01601326 8.7185884,-4.0017078 c -1.7454984,2.3720609 -1.7354408,5.6174519 -6e-7,8.035443 z"
         style="fill:#000000;fill-opacity:1;fill-rule:evenodd;stroke:#000000;stroke-width:0.625;stroke-linejoin:round;stroke-opacity:1"
         id="path5866" />
    </marker>
    <marker
       style="overflow:visible"
       id="Arrow1Lstart"
       refX="0"
       refY="0"
       orient="auto">
      <path
         transform="matrix(0.8,0,0,0.8,10,0)"
         style="fill:#000000;fill-opacity:1;fill-rule:evenodd;stroke:#000000;stroke-width:1pt;stroke-opacity:1"
         d="M 0,0 5,-5 -12.5,0 5,5 0,0 Z"
         id="path5842" />
    </marker>
    <marker
       style="overflow:visible"
       id="TriangleInM-6"
       refX="0"
       refY="0"
       orient="auto">
      <path
         transform="scale(-0.4,-0.4)"
         style="fill:#000000;fill-opacity:1;fill-rule:evenodd;stroke:#000000;stroke-width:1pt;stroke-opacity:1"
         d="m 5.77,0 -8.65,5 0,-10 8.65,5 z"
         id="path5978-6" />
    </marker>
    <marker
       style="overflow:visible"
       id="TriangleOutM-4"
       refX="0"
       refY="0"
       orient="auto">
      <path
         transform="scale(0.4,0.4)"
         style="fill:#000000;fill-opacity:1;fill-rule:evenodd;stroke:#000000;stroke-width:1pt;stroke-opacity:1"
         d="m 5.77,0 -8.65,5 0,-10 8.65,5 z"
         id="path5987-0" />
    </marker>
    <marker
       style="overflow:visible"
       id="TriangleInM-6-4"
       refX="0"
       refY="0"
       orient="auto">
      <path
         transform="scale(-0.4,-0.4)"
         style="fill:#000000;fill-opacity:1;fill-rule:evenodd;stroke:#000000;stroke-width:1pt;stroke-opacity:1"
         d="m 5.77,0 -8.65,5 0,-10 8.65,5 z"
         id="path5978-6-6" />
    </marker>
    <marker
       style="overflow:visible"
       id="TriangleOutM-4-2"
       refX="0"
       refY="0"
       orient="auto">
      <path
         transform="scale(0.4,0.4)"
         style="fill:#000000;fill-opacity:1;fill-rule:evenodd;stroke:#000000;stroke-width:1pt;stroke-opacity:1"
         d="m 5.77,0 -8.65,5 0,-10 8.65,5 z"
         id="path5987-0-6" />
    </marker>
    <marker
       style="overflow:visible"
       id="TriangleInM-6-4-5"
       refX="0"
       refY="0"
       orient="auto">
      <path
         transform="scale(-0.4,-0.4)"
         style="fill:#000000;fill-opacity:1;fill-rule:evenodd;stroke:#000000;stroke-width:1pt;stroke-opacity:1"
         d="m 5.77,0 -8.65,5 0,-10 8.65,5 z"
         id="path5978-6-6-6" />
    </marker>
    <marker
       style="overflow:visible"
       id="TriangleOutM-4-2-9"
       refX="0"
       refY="0"
       orient="auto">
      <path
         transform="scale(0.4,0.4)"
         style="fill:#000000;fill-opacity:1;fill-rule:evenodd;stroke:#000000;stroke-width:1pt;stroke-opacity:1"
         d="m 5.77,0 -8.65,5 0,-10 8.65,5 z"
         id="path5987-0-6-8" />
    </marker>
  </defs>
  <metadata
     id="metadata7">
    <rdf:RDF>
      <cc:Work
         rdf:about="">
        <dc:format>image/svg+xml</dc:format>
        <dc:type
           rdf:resource="http://purl.org/dc/dcmitype/StillImage" />
        <dc:title></dc:title>
      </cc:Work>
    </rdf:RDF>
  </metadata>
  <path
     d="m 304.52176,81.789798 c 2.1181,-1.6815 4.4179,-3.1167 6.6306,-4.6698 2.8016,-1.7927 5.5731,-3.6297 8.3643,-5.4385 3.249,-2.0329 6.4747,-4.1032 9.7345,-6.1206 2.2489,-1.3801 4.5065,-2.7422 6.6886,-4.2261 1.9927,-1.4632 4.0045,-2.8816 6.1004,-4.1946 1.6526,-1.2823 3.3069,-2.5663 4.8658,-3.9624 1.8694,-1.5047 3.7852,-2.944 5.8062,-4.2383 2.0552,-1.1591 4.0203,-2.4635 6.0666,-3.6391 2.2929,-1.0998 4.5446,-2.2797 6.8579,-3.337 2.599,-1.1615 5.3469,-1.8891 8.1151,-2.5115 3.4694,-0.5867 6.931,-1.1789 10.3833,-1.8651 3.2722,-0.6241 6.5526,-1.2028 9.8326,-1.7842 2.1197,-0.3985 4.2479,-0.7407 6.3835,-1.0415 2.3034,-0.3172 4.6374,0.064 6.9374,0.2713 2.3987,0.2112 4.8007,0.3844 7.2039,0.5338 2.0496,0.2452 4.0142,0.8954 6.01,1.3876 2.0428,0.5297 4.0571,1.2297 6.0214,2.004 2.1233,0.7314 3.9842,1.9149 5.8733,3.0897 1.42,0.8583 2.8617,1.6798 4.3023,2.5029 1.1653,0.585 2.2491,1.2933 3.3726,1.9511 1.4038,1.0329 2.8863,1.9528 4.3578,2.8849 1.4351,0.988 2.8468,2.0122 4.2152,3.091 1.223,0.9044 2.2898,2.0232 3.5656,2.8533 1.2108,0.9998 2.4194,2.0008 3.6142,3.0173 1.5661,1.1263 3.0491,2.3702 4.6589,3.4338 1.711,1.0065 3.1978,2.3402 4.6895,3.6385 1.4841,1.2051 2.7533,2.5965 3.9209,4.1027 1.4312,1.4054 2.5503,3.0522 3.4808,4.8186 1.0799,1.9144 2.5031,3.596 3.7246,5.4156 1.7948,2.4576 2.9389,5.2824 4.178,8.038 1.3831,3.1189 2.5548,6.3258 3.5894,9.5755 1.0498,2.679602 2.1771,5.327602 3.1283,8.044902 1.0227,2.93 1.4679,6.0026 2.1396,9.0186 0.834,3.3227 1.5785,6.6657 2.207,10.0331 0.5434,3.1914 1.5134,6.2946 2.461,9.3849 1.4801,4.3338 3.1213,8.6093 4.6633,12.9204 1.9739,5.0767 4.2942,10.015 6.7889,14.8548 2.2944,4.5581 5.1797,8.7785 8.0239,13.0037 2.9023,4.3331 6.1973,8.3779 9.6196,12.3062 3.1682,3.5976 6.7279,6.8234 10.2459,10.0714 2.5175,2.2562 5.1949,4.2645 8.202,5.8096 3.3768,1.6104 7.0307,2.4544 10.6605,3.2698 3.5542,0.7691 7.1186,1.4269 10.7544,1.5835 3.8839,0.3083 7.5246,-0.9579 11.0936,-2.3206 5.2765,-2.1625 10.4598,-4.5397 15.7368,-6.7007 4.897,-2.0086 9.8021,-3.9945 14.7254,-5.9383 4.8601,-2.1328 9.6672,-4.3733 14.5504,-6.4536 5.739,-2.5194 11.6093,-4.6467 17.6217,-6.4069 6.0157,-1.6147 12.0343,-3.2134 17.9329,-5.2194 4.3735,-1.4417 8.5474,-3.3916 12.7169,-5.3263 3.7697,-2.0148 7.6302,-3.8517 11.4863,-5.6931 3.9123,-1.6223 8.0617,-2.5357 12.182,-3.4512 3.2502,-0.819 6.51,-1.3427 9.8617,-1.1747 3.4621,0.2575 6.8809,0.9608 10.1997,1.9649 3.0521,0.8932 6.0009,2.0509 8.9067,3.3328 3.236,1.4059 6.1655,3.3021 8.9082,5.5048 3.22,2.8081 6.2348,5.8585 8.9925,9.1221 2.5149,2.8182 4.8028,5.8277 7.169,8.7695 2.4795,3.2073 4.6664,6.619 6.7251,10.1068 2.3968,4.4734 4.846,8.9162 7.2763,13.3716 2.0066,3.6248 3.7195,7.3979 5.6487,11.0634 1.5412,3.059 3.2834,6.0097 4.8042,9.0791 1.5761,2.8782 3.1912,5.7475 5.0409,8.4605 1.5813,2.6001 3.3633,5.0208 5.3562,7.3151 2.5705,2.5175 5.6536,4.309 8.8745,5.8488 3.2784,1.674 6.7191,2.3661 10.3627,2.0471 3.4862,-0.5512 6.7127,-1.9712 9.9162,-3.3837 2.4403,-1.1867 4.9581,-2.1725 7.5377,-3.0072 2.5358,-0.9523 5.0956,-1.2194 7.7356,-0.6404 2.5037,0.847 4.3112,2.609 5.9073,4.6363 1.6073,1.6543 3.0013,3.4392 4.0918,5.4716 1.6819,2.8184 2.5508,5.9848 3.6657,9.0412 1.3478,3.5099 2.3801,7.1207 3.2875,10.765 0.8872,3.178 1.2533,6.472 2.0599,9.6648 0.8061,2.4245 1.2702,4.9705 2.2344,7.3393 0.6934,1.5391 1.5196,3.0131 2.3399,4.4866 0.5517,1.1754 1.0966,2.2895 1.8641,3.3396 0.6117,0.8013 1.2262,1.6014 1.8842,2.3656 0.7009,0.7996 1.4136,1.5887 2.1255,2.3788 0.3888,0.5569 0.8245,0.8555 1.4049,1.1565 1.0409,0.7739 1.9556,1.6902 2.8236,2.653 0.6688,0.7545 1.3235,1.5214 1.9786,2.2879 0.3732,0.4367 0.7459,0.874 1.1187,1.311 0.2094,0.2457 0.4186,0.4912 0.628,0.7367 0.1177,0.1378 0.2352,0.2758 0.3527,0.4137 0.066,0.077 0.1322,0.1548 0.1981,0.2322 0.014,0.017 0.031,0.035 0.044,0.052 0,0 -2.1722,1.852 -2.1722,1.852 l 0,0 c -0.014,-0.017 -0.031,-0.035 -0.044,-0.052 -0.066,-0.077 -0.132,-0.1548 -0.198,-0.2322 -0.1176,-0.1379 -0.2352,-0.2757 -0.3529,-0.4137 -0.2092,-0.2455 -0.4186,-0.491 -0.628,-0.7365 -0.3719,-0.4362 -0.7439,-0.8725 -1.1163,-1.3085 -0.639,-0.7477 -1.2777,-1.4958 -1.9296,-2.2321 -0.6452,-0.7169 -1.3286,-1.3776 -2.0268,-2.0345 -0.8575,-0.4521 -1.6124,-0.9938 -2.2015,-1.7748 -0.7272,-0.807 -1.4555,-1.6131 -2.1711,-2.4305 -0.7049,-0.8237 -1.371,-1.6798 -2.0255,-2.5441 -0.8299,-1.1428 -1.4614,-2.3545 -2.0506,-3.6315 -0.8798,-1.5803 -1.765,-3.1618 -2.4973,-4.8176 -0.9819,-2.5015 -1.5418,-5.1445 -2.3523,-7.7047 -0.7921,-3.1982 -1.1915,-6.4837 -2.0604,-9.6676 -0.8827,-3.5474 -1.8865,-7.0622 -3.1999,-10.4779 -1.0657,-2.934 -1.8933,-5.9745 -3.5047,-8.6793 -0.9929,-1.8959 -2.3495,-3.4985 -3.8171,-5.0489 -1.1844,-1.518 -2.4786,-2.8972 -4.3148,-3.6189 -2.1073,-0.5487 -4.1787,-0.1517 -6.2035,0.5781 -2.4873,0.8034 -4.9125,1.7575 -7.2643,2.903 -3.4945,1.5401 -7.024,3.0659 -10.8364,3.6168 -4.1523,0.3161 -8.0901,-0.4066 -11.8283,-2.3182 -3.5677,-1.7156 -6.9808,-3.7217 -9.7956,-6.5513 -2.0652,-2.3797 -3.9208,-4.8882 -5.562,-7.5825 -1.9144,-2.8269 -3.6103,-5.7992 -5.2382,-8.7986 -1.5067,-3.0498 -3.2444,-5.9765 -4.7717,-9.0158 -1.9223,-3.6531 -3.6318,-7.4119 -5.6287,-11.0258 -2.4148,-4.4272 -4.8501,-8.8412 -7.2288,-13.288 -1.9877,-3.3703 -4.0991,-6.6669 -6.4908,-9.7682 -2.3523,-2.9245 -4.6263,-5.9166 -7.1267,-8.7181 -2.6347,-3.1288 -5.5282,-6.0422 -8.6017,-8.7399 -2.5409,-2.0554 -5.2647,-3.8077 -8.2693,-5.1159 -2.8018,-1.2365 -5.6433,-2.3547 -8.5871,-3.2142 -3.0944,-0.9521 -6.2938,-1.5896 -9.5234,-1.8448 -3.0897,-0.1869 -6.0892,0.3805 -9.0864,1.1109 -3.9099,0.8686 -7.8485,1.7285 -11.5711,3.2407 -3.8659,1.8455 -7.7342,3.6899 -11.5148,5.7065 -4.2616,1.9774 -8.5295,3.966 -12.9996,5.4396 -5.9378,2.0178 -11.9939,3.6342 -18.05,5.2564 -5.9055,1.7266 -11.6686,3.8186 -17.3045,6.2932 -4.9066,2.0903 -9.7351,4.3452 -14.6208,6.4827 -4.9124,1.9393 -9.8063,3.9206 -14.6923,5.9247 -5.2991,2.1693 -10.5023,4.5605 -15.8026,6.727 -3.9351,1.4942 -7.959,2.8378 -12.2347,2.5046 -3.8041,-0.1704 -7.5369,-0.8381 -11.2548,-1.6502 -3.8672,-0.8695 -7.7549,-1.7852 -11.3444,-3.5187 -3.2284,-1.6748 -6.1271,-3.8114 -8.8287,-6.2485 -3.5941,-3.3183 -7.2281,-6.6164 -10.4623,-10.2943 -3.4975,-4.0189 -6.868,-8.1545 -9.8347,-12.5865 -2.9062,-4.3175 -5.8495,-8.6327 -8.1935,-13.2904 -2.5507,-4.9526 -4.9257,-10.0045 -6.9392,-15.2011 -1.5558,-4.3525 -3.2158,-8.6676 -4.7046,-13.0446 -0.9792,-3.1932 -1.9747,-6.4011 -2.5381,-9.6985 -0.6214,-3.3359 -1.3626,-6.6463 -2.1875,-9.9379 -0.6432,-2.9078 -1.075,-5.8682 -2.0479,-8.6955 -0.9568,-2.7441 -2.112,-5.41 -3.1537,-8.121602 -0.9991,-3.1465 -2.1357,-6.2501 -3.4726,-9.2701 -1.1732,-2.6108 -2.2442,-5.2946 -3.9473,-7.6216 -1.2712,-1.9096 -2.7815,-3.659 -3.8827,-5.6822 -0.8388,-1.6287 -1.9064,-3.0947 -3.2069,-4.391 -1.0526,-1.3613 -2.1915,-2.6146 -3.5381,-3.6974 -1.3987,-1.2176 -2.7876,-2.4768 -4.3961,-3.4149 -1.7003,-1.1376 -3.289,-2.4329 -4.937,-3.6443 -1.099,-0.9539 -2.2461,-1.8539 -3.3439,-2.8119 -1.3202,-0.9014 -2.4867,-2.0007 -3.7458,-2.9844 -1.2893,-1.0197 -2.6242,-1.9818 -3.9738,-2.9199 -1.4467,-0.9165 -2.91,-1.8154 -4.2838,-2.8396 -1.1074,-0.6603 -2.1789,-1.3531 -3.3353,-1.9294 -1.472,-0.8411 -2.9454,-1.6806 -4.3958,-2.5588 -1.743,-1.0882 -3.4483,-2.1923 -5.4157,-2.8588 -1.8416,-0.7352 -3.7382,-1.3848 -5.6547,-1.8865 -1.8293,-0.454 -3.6314,-1.0388 -5.5018,-1.3097 -2.4292,-0.1511 -4.8573,-0.3259 -7.2819,-0.5395 -2.0822,-0.187 -4.1993,-0.5503 -6.2841,-0.2879 -2.1021,0.296 -4.1969,0.6331 -6.2834,1.0257 -3.2605,0.578 -6.5215,1.1532 -9.7743,1.7732 -3.4293,0.6816 -6.8675,1.2751 -10.3149,1.8507 -2.5758,0.5764 -5.134,1.2463 -7.5537,2.3225 -2.2337,1.0201 -4.4046,2.1639 -6.6228,3.2161 -2.0072,1.1518 -3.9341,2.4322 -5.9496,3.5682 -1.8938,1.2102 -3.6838,2.5612 -5.4415,3.9613 -1.6805,1.5016 -3.4577,2.8942 -5.2538,4.2541 -2.0662,1.2935 -4.0451,2.6955 -6.0106,4.136 -2.2163,1.5063 -4.5069,2.8925 -6.7913,4.2927 -3.2431,2.0069 -6.4526,4.0659 -9.6844,6.0889 -2.7616,1.7895 -5.503,3.6085 -8.2768,5.3794 -2.1638,1.5186 -4.4126,2.9229 -6.4873,4.5624 0,0 -1.7831,-2.229 -1.7831,-2.229 z"
     id="path9103"
     style="color:#000000;clip-rule:nonzero;display:inline;overflow:visible;visibility:visible;opacity:0.77999998;isolation:auto;mix-blend-mode:normal;color-interpolation:sRGB;color-interpolation-filters:linearRGB;solid-color:#000000;solid-opacity:1;fill:#000000;fill-opacity:1;fill-rule:nonzero;stroke:none;stroke-width:0.20888156;stroke-linecap:round;stroke-linejoin:miter;stroke-miterlimit:20;stroke-dasharray:none;stroke-dashoffset:0;stroke-opacity:1;color-rendering:auto;image-rendering:auto;shape-rendering:auto;text-rendering:auto;enable-background:accumulate" />
  <circle
     r="10.563706"
     cy="78.377991"
     cx="308.41705"
     id="path5512-4-7-9-9"
     style="color:#000000;clip-rule:nonzero;display:inline;overflow:visible;visibility:visible;opacity:1;isolation:auto;mix-blend-mode:normal;color-interpolation:sRGB;color-interpolation-filters:linearRGB;solid-color:#000000;solid-opacity:1;fill:#000000;fill-opacity:1;fill-rule:nonzero;stroke:none;stroke-width:1;stroke-linecap:butt;stroke-linejoin:miter;stroke-miterlimit:4;stroke-dasharray:none;stroke-dashoffset:0;stroke-opacity:1;color-rendering:auto;image-rendering:auto;shape-rendering:auto;text-rendering:auto;enable-background:accumulate" />
  <circle
     r="10.563706"
     cy="317.82184"
     cx="862.13135"
     id="path5512-4-7-9-1"
     style="color:#000000;clip-rule:nonzero;display:inline;overflow:visible;visibility:visible;opacity:1;isolation:auto;mix-blend-mode:normal;color-interpolation:sRGB;color-interpolation-filters:linearRGB;solid-color:#000000;solid-opacity:1;fill:#000000;fill-opacity:1;fill-rule:nonzero;stroke:none;stroke-width:1;stroke-linecap:butt;stroke-linejoin:miter;stroke-miterlimit:4;stroke-dasharray:none;stroke-dashoffset:0;stroke-opacity:1;color-rendering:auto;image-rendering:auto;shape-rendering:auto;text-rendering:auto;enable-background:accumulate" />
  <g
     transform="translate(-1015.4423,-4431.2597)"
     style="font-style:normal;font-weight:normal;font-size:40px;line-height:125%;font-family:sans-serif;letter-spacing:0px;word-spacing:0px;fill:#4d4d4d;fill-opacity:1;stroke:none;stroke-width:1px;stroke-linecap:butt;stroke-linejoin:miter;stroke-opacity:1"
     id="flowRoot4242-6-5-4-6-4">
    <path
       d="m 1449.5645,4691.4364 q 0,-0.8789 0.5859,-1.5039 0.6055,-0.625 1.4453,-0.625 l 16.4063,0 q 0.8398,0 1.4453,0.625 0.6054,0.625 0.6054,1.5039 0,0.918 -0.6054,1.543 -0.6055,0.6054 -1.4453,0.6054 l -6.4063,0 0,20.8399 q 0,0.8789 -0.6055,1.5039 -0.5859,0.625 -1.4257,0.625 -0.8399,0 -1.4454,-0.6055 -0.5859,-0.625 -0.5859,-1.5234 l 0,-20.8399 -5.9375,0 q -0.8398,0 -1.4453,-0.6054 -0.5859,-0.625 -0.5859,-1.543 z"
       style="font-style:normal;font-variant:normal;font-weight:bold;font-stretch:normal;font-family:'Comic Neue';-inkscape-font-specification:'Comic Neue Bold';fill:#4d4d4d"
       id="path4036" />
    <path
       d="m 1472.6309,4714.3856 0,-23.2812 q 0,-0.918 0.625,-1.5235 0.625,-0.625 1.5039,-0.625 0.8789,0 1.4843,0.625 0.625,0.6055 0.625,1.5235 l 0,8.0469 q 0.2344,-0.2735 0.4688,-0.5079 0.2539,-0.2539 0.4883,-0.4882 2.4023,-2.3243 4.8828,-2.3243 0.4883,0 1.0547,0.1172 0.5859,0.1172 1.1914,0.4688 0.6054,0.332 1.1523,0.9375 0.5664,0.6054 0.9961,1.5625 1.2891,2.6367 1.4063,7.7148 0.039,0.8399 0.039,2.168 0,1.3086 0,2.5586 0,1.4258 -0.039,2.9883 0,0.8789 -0.6055,1.5039 -0.5859,0.625 -1.4648,0.625 -0.879,0 -1.4844,-0.625 -0.6055,-0.625 -0.6055,-1.5039 0.039,-1.4453 0.039,-2.793 0,-1.1523 0,-2.4805 0,-1.3281 -0.039,-2.3633 -0.039,-1.7968 -0.2148,-3.0273 -0.1758,-1.25 -0.4297,-2.0312 -0.2344,-0.7813 -0.4883,-1.1329 -0.2539,-0.3711 -0.5078,-0.3711 -1.5235,0 -3.3203,2.129 -0.8399,0.957 -1.3867,1.875 -0.5274,0.9179 -0.6836,1.25 -0.4493,0.9179 -0.4493,2.7539 l 0,6.2304 q 0,0.918 -0.625,1.543 -0.6054,0.625 -1.4843,0.625 -0.8789,0 -1.5039,-0.6055 -0.625,-0.625 -0.625,-1.5625 z"
       style="font-style:normal;font-variant:normal;font-weight:bold;font-stretch:normal;font-family:'Comic Neue';-inkscape-font-specification:'Comic Neue Bold';fill:#4d4d4d"
       id="path4038" />
    <path
       d="m 1492.5723,4706.5927 q 0,-1.9532 0.7031,-3.711 0.7031,-1.7773 1.9141,-3.1054 1.2304,-1.3477 2.871,-2.168 1.6407,-0.8203 3.5157,-0.9375 0.3515,-0.039 0.7031,-0.039 1.9141,0 3.4961,0.918 1.875,1.0742 3.0078,2.8906 0.1953,0.3125 0.332,0.6445 0.1368,0.3125 0.3125,0.586 0.1953,0.3711 0.1953,0.8203 0,0.2539 -0.059,0.5664 -0.1758,0.8203 -1.0157,1.25 -0.7226,0.3906 -2.0312,1.1328 -1.2891,0.7227 -2.8125,1.5625 -1.5235,0.8399 -3.086,1.7188 -1.5625,0.8789 -2.7929,1.5429 0.6445,0.8008 1.4648,1.3672 1.2891,0.8789 2.9297,0.8789 2.2852,0 3.9648,-1.7578 l 0.8008,-0.8398 q 0.5664,-0.5664 1.3867,-0.5664 0.8399,0 1.4454,0.6054 0.6054,0.6055 0.6054,1.4063 0,0.7226 -0.4883,1.3086 l -0.8007,0.8398 q -1.3672,1.4844 -3.1641,2.2852 -1.7578,0.7617 -3.75,0.7617 -1.9922,0 -3.7695,-0.7813 -1.7578,-0.7812 -3.0664,-2.1093 -1.2891,-1.3477 -2.0508,-3.1641 -0.7617,-1.8164 -0.7617,-3.9062 z m 4.0429,-0.2735 q 0.8399,-0.4883 1.9532,-1.0937 1.1328,-0.625 2.2461,-1.25 1.1328,-0.625 2.1484,-1.1914 1.0156,-0.586 1.7383,-0.9961 -1.0352,-1.0352 -2.4024,-1.1133 -1.3672,0.039 -2.3828,0.5469 -1.0156,0.4882 -1.7383,1.289 -1.4453,1.6407 -1.5625,3.8086 z"
       style="font-style:normal;font-variant:normal;font-weight:bold;font-stretch:normal;font-family:'Comic Neue';-inkscape-font-specification:'Comic Neue Bold';fill:#4d4d4d"
       id="path4040" />
    <path
       d="m 1515.0527,4714.4247 0,-15 0,-1.1914 q 0,-0.8789 0.625,-1.5039 0.625,-0.625 1.5039,-0.625 0.8789,0 1.4844,0.625 0.625,0.625 0.625,1.5039 l 0,1.25 q 0.1563,-0.1953 0.293,-0.3516 0.1562,-0.1758 0.3515,-0.3711 1.1133,-1.1133 2.4805,-1.7187 1.3672,-0.6055 2.9688,-0.6055 2.207,0 3.6328,1.1914 1.3672,1.1133 1.9531,3.4375 0.4492,1.6797 0.5273,4.0625 0.078,2.3828 0.078,5.9766 l 0,2.207 q 0,0.5664 0.039,1.1133 0,0.8789 -0.625,1.5039 -0.6054,0.625 -1.4648,0.625 -0.8789,0 -1.5039,-0.6055 -0.6055,-0.625 -0.6055,-1.5234 -0.039,-0.6055 -0.039,-1.1914 l 0,-2.0703 q 0,-2.9297 -0.059,-5.3125 -0.059,-2.3828 -0.3907,-3.7696 -0.2734,-1.0351 -0.6054,-1.25 -0.3125,-0.2343 -0.9375,-0.2343 -0.3907,0 -0.8789,0.098 -0.4883,0.098 -1.0352,0.4883 -0.5273,0.3711 -1.1523,1.0938 -0.625,0.7226 -1.2696,1.914 -0.8008,1.5235 -1.289,3.418 -0.4688,1.875 -0.4688,3.6328 l -0.039,3.1836 q 0,0.8789 -0.625,1.5039 -0.6055,0.625 -1.4844,0.625 -0.8789,0 -1.4844,-0.6055 -0.6055,-0.625 -0.6055,-1.5234 z"
       style="font-style:normal;font-variant:normal;font-weight:bold;font-stretch:normal;font-family:'Comic Neue';-inkscape-font-specification:'Comic Neue Bold';fill:#4d4d4d"
       id="path4042" />
  </g>
  <path
     d="m 420.95676,253.0235 c -1.7936,-1.0356 -3.5794,-2.0824 -5.3147,-3.2137 -2.5646,-1.5699 -4.9624,-3.3864 -7.4128,-5.1241 -3.465,-2.4042 -6.8844,-4.8736 -10.2893,-7.3619 -4.0227,-2.8712 -7.9345,-5.8962 -11.776,-9.0046 -4.3241,-3.5234 -8.5208,-7.1933 -12.6349,-10.9584 -4.2364,-3.7374 -8.2142,-7.7529 -12.1565,-11.7949 -3.8439,-3.957 -7.5834,-8.0132 -11.3054,-12.0843 -3.2861,-3.602 -6.5367,-7.2358 -9.7736,-10.8821 -2.6972,-2.9952 -5.181,-6.1736 -7.6892,-9.3265 -1.9318,-2.3068 -3.6512,-4.7735 -5.3837,-7.2297 -1.3361,-2.1111 -2.7081,-4.2036 -3.9641,-6.3637 -1.0438,-1.7831 -1.9516,-3.6412 -2.7081,-5.5632 -0.644,-1.4991 -1.0972,-3.0543 -1.5238,-4.6243 -0.3104,-1.4206 -0.5595,-2.8584 -0.6998,-4.3059 -0.1,-1.2548 -0.2887,-2.4944 -0.5351,-3.7275 -0.171,-0.8313 -0.3527,-1.6599 -0.5343,-2.4889 -0.1036,-0.4729 -0.2076,-0.9456 -0.3115,-1.4185 -0.058,-0.2657 -0.1168,-0.5314 -0.1752,-0.7972 0.2163,0.243 0.5336,0.4246 0.6493,0.7291 0.054,0.1426 -0.1527,0.2641 -0.219,0.4011 -0.4784,0.9969 -0.772,2.093 -1.1249,3.1374 -0.7409,2.4921 -1.7044,4.9061 -2.6364,7.3306 -0.9165,2.1524 -1.6902,4.3599 -2.6573,6.4906 -0.7859,1.7019 -1.7096,3.3355 -2.6227,4.9714 -0.4503,0.758 -0.9812,1.4625 -1.4581,2.2035 -0.2397,0.3102 0.01,0.3299 0.3486,0.5737 1.1375,0.6564 2.3821,1.0705 3.6611,1.3412 2.4947,0.3689 5.0108,0.6064 7.5188,0.8755 3.7419,0.3529 7.4729,0.7899 11.1993,1.278 2.7893,0.37 5.5773,0.7506 8.3652,1.131 1.4999,0.1748 2.993,0.5099 4.5096,0.4479 0.4311,0 0.5807,-0.1226 0.6221,-0.2613 -0.2333,-0.2796 -0.4848,-0.6152 -0.7251,-0.9116 -0.6879,-0.8375 -1.3912,-1.6624 -2.0868,-2.4935 -1.3359,-1.6196 -2.9079,-3.0272 -4.4978,-4.391 -2.0555,-1.7 -4.0708,-3.4471 -6.0572,-5.227 -1.8468,-1.6603 -3.6165,-3.4025 -5.3636,-5.1664 -1.5176,-1.5914 -3.1073,-3.1194 -4.5328,-4.7955 -0.8922,-1.1003 -1.7223,-2.2488 -2.5526,-3.3958 -0.2552,-0.3611 -0.5188,-0.7166 -0.7444,-1.0974 0,0 1.0749,-0.628 1.0749,-0.628 l 0,0 c 0.1995,0.3489 0.4524,0.6637 0.678,0.9953 0.8117,1.121 1.6223,2.2442 2.4933,3.3202 1.4015,1.6546 2.9763,3.1536 4.4681,4.7252 1.7296,1.7463 3.4816,3.4714 5.3101,5.1152 1.9796,1.7742 3.9885,3.5151 6.037,5.2096 1.6407,1.409 3.262,2.8631 4.6411,4.5359 0.7005,0.8357 1.3998,1.6727 2.0997,2.509 0.4905,0.6047 1.0776,1.2035 0.9535,2.0439 -0.2811,0.8356 -0.931,1.1076 -1.7734,1.1572 -1.5887,0.049 -3.1518,-0.2551 -4.7219,-0.4585 -2.7858,-0.3801 -5.5714,-0.7604 -8.3586,-1.1301 -3.7167,-0.4868 -7.4381,-0.9227 -11.1702,-1.2747 -2.5513,-0.2737 -5.1111,-0.513 -7.6475,-0.896 -1.4622,-0.3179 -2.8968,-0.7894 -4.1755,-1.5845 -0.6942,-0.5821 -1.2463,-1.3552 -0.62,-2.2213 0.4629,-0.7191 0.978,-1.4027 1.4177,-2.1371 0.8963,-1.6058 1.8038,-3.2092 2.5763,-4.8795 0.9583,-2.1076 1.7194,-4.2936 2.6286,-6.4224 0.9259,-2.4086 1.8835,-4.8064 2.6189,-7.2826 0.1809,-0.535 1.1396,-3.7975 1.6178,-3.9947 0.4557,-0.1878 0.9809,-0.095 1.4715,-0.1416 0.058,0.2657 0.1168,0.5315 0.1753,0.7972 0.1041,0.4732 0.208,0.9464 0.3117,1.4196 0.1833,0.8363 0.3667,1.6726 0.5389,2.5112 0.2546,1.2748 0.4502,2.5565 0.5537,3.8534 0.1288,1.3778 0.3742,2.7448 0.6619,4.0976 0.4145,1.5266 0.8529,3.0388 1.4813,4.4958 0.7295,1.8648 1.6161,3.6633 2.6256,5.3927 1.2361,2.1293 2.5917,4.1892 3.9051,6.2715 1.7187,2.4366 3.4235,4.8843 5.3404,7.1722 2.4948,3.1351 4.9641,6.2963 7.6464,9.2751 3.2327,3.6415 6.4794,7.271 9.7612,10.8683 3.7131,4.0614 7.4434,8.1077 11.2777,12.0553 3.9259,4.0251 7.887,8.0242 12.1059,11.7456 4.0956,3.748 8.2732,7.4015 12.5777,10.9091 3.8253,3.0957 7.7216,6.1074 11.7272,8.9672 3.3999,2.485 6.8149,4.9504 10.2746,7.3514 2.4378,1.7276 4.8222,3.5358 7.3735,5.0966 1.7132,1.1175 3.4772,2.1502 5.2477,3.173 0,0 -0.6131,1.0835 -0.6131,1.0835 z"
     id="path5632-5-7"
     style="color:#000000;clip-rule:nonzero;display:inline;overflow:visible;visibility:visible;opacity:0.77999998;isolation:auto;mix-blend-mode:normal;color-interpolation:sRGB;color-interpolation-filters:linearRGB;solid-color:#000000;solid-opacity:1;fill:#000000;fill-opacity:1;fill-rule:nonzero;stroke:#000000;stroke-width:1;stroke-linecap:butt;stroke-linejoin:miter;stroke-miterlimit:4;stroke-dasharray:none;stroke-dashoffset:0;stroke-opacity:1;color-rendering:auto;image-rendering:auto;shape-rendering:auto;text-rendering:auto;enable-background:accumulate" />
  <g
     transform="translate(-1015.4423,-4431.2597)"
     style="font-style:normal;font-weight:normal;font-size:40px;line-height:125%;font-family:sans-serif;text-align:center;letter-spacing:0px;word-spacing:0px;text-anchor:middle;fill:#4d4d4d;fill-opacity:1;stroke:none;stroke-width:1px;stroke-linecap:butt;stroke-linejoin:miter;stroke-opacity:1"
     id="flowRoot4242-6-5-4-9-6-5">
    <path
       d="m 1968.4551,4570.5964 0,-0.078 q 0,-1.0352 0.7031,-1.7578 0.7031,-0.7227 1.6992,-0.7227 0.8399,0 1.4844,0.5273 l 0.1953,0.1954 q 0.1563,0.1953 0.3516,0.4882 0.039,0.039 0.5273,0.8399 0.4883,0.8008 1.2305,2.0703 0.7617,1.25 1.7187,2.8516 0.9766,1.6015 1.9727,3.2812 2.3633,3.9258 5.3125,8.8281 l 0,-16.9922 q 0,-0.8789 0.6055,-1.4843 0.6054,-0.6055 1.4062,-0.6055 0.8399,0 1.4063,0.6055 0.5859,0.6054 0.5859,1.4843 l 0,22.5586 q 0,1.0743 -0.7422,1.8555 -0.7422,0.7813 -1.7773,0.7813 -0.6836,0 -1.2696,-0.3321 -0.5664,-0.3515 -0.8789,-0.9961 l -10.4883,-17.5976 0,16.8164 q 0,0.8789 -0.5859,1.5039 -0.5664,0.6055 -1.4062,0.6055 -0.8399,0 -1.4258,-0.6055 -0.586,-0.625 -0.586,-1.5039 l -0.039,-22.6172 z"
       style="font-style:normal;font-variant:normal;font-weight:bold;font-stretch:normal;line-height:100%;font-family:'Comic Neue';-inkscape-font-specification:'Comic Neue Bold';text-align:center;text-anchor:middle;fill:#4d4d4d"
       id="path4029" />
    <path
       d="m 1992.2637,4585.1276 q 0.1172,-1.9531 0.8789,-3.7304 0.7617,-1.7969 2.0898,-3.1836 1.3281,-1.4453 2.9297,-2.2071 1.6211,-0.7617 3.3594,-0.7617 1.5234,0 2.9101,0.5664 1.4063,0.5469 2.5196,1.6797 1.5234,1.4844 2.2461,3.5352 0.5859,1.6406 0.5859,3.4765 0,0.4493 -0.039,0.8985 -0.1562,1.9922 -0.9179,3.789 -0.7617,1.7774 -2.0313,3.1641 -1.3281,1.4453 -2.9492,2.207 -1.6211,0.7618 -3.3789,0.7618 -1.5234,0 -2.9297,-0.5665 -1.3867,-0.5859 -2.5,-1.7187 -1.4844,-1.4453 -2.207,-3.4961 -0.586,-1.6797 -0.586,-3.5742 0,-0.4102 0.02,-0.8399 z m 4.2578,0.2735 q -0.02,0.2344 0,0.4687 0,1.211 0.332,2.3047 0.4102,1.2891 1.211,2.1094 0.996,1.0351 2.4023,1.0351 0.8398,0 1.6992,-0.4296 0.8594,-0.4493 1.582,-1.3282 0.7618,-0.8789 1.1915,-2.0312 0.4492,-1.1719 0.5273,-2.4024 0.02,-0.1953 0.02,-0.3906 -0.02,-1.1719 -0.4101,-2.3047 -0.4688,-1.3281 -1.3282,-2.2265 -1.0742,-0.9961 -2.4023,-0.9961 -1.7578,0 -3.1445,1.7578 -0.7227,0.8789 -1.1719,2.0508 -0.4297,1.1523 -0.5078,2.3828 z"
       style="font-style:normal;font-variant:normal;font-weight:bold;font-stretch:normal;line-height:100%;font-family:'Comic Neue';-inkscape-font-specification:'Comic Neue Bold';text-align:center;text-anchor:middle;fill:#4d4d4d"
       id="path4031" />
    <path
       d="m 2012.2832,4577.8034 q -0.059,-0.2539 -0.059,-0.4883 0,-0.6054 0.3516,-1.0937 0.5078,-0.7031 1.3476,-0.8984 0.2539,-0.059 0.4883,-0.059 0.5859,0.02 1.0938,0.3711 0.7031,0.5078 0.8984,1.3281 l 1.875,9.4726 3.125,-9.3554 q 0.1953,-0.7618 0.7812,-1.25 0.6055,-0.5078 1.4063,-0.5078 0.8398,0 1.4844,0.5664 0.6445,0.5468 0.7617,1.3476 l 2.1094,9.2774 2.8906,-9.7071 q 0.2344,-0.8203 0.9961,-1.25 0.4883,-0.2734 1.0156,-0.2734 0.293,0 0.5859,0.078 0.8204,0.2344 1.25,0.9961 0.2735,0.4883 0.2735,1.0156 0,0.293 -0.078,0.586 l -4.961,15.7617 q -0.3125,0.8984 -1.2109,1.3281 -0.5078,0.2344 -1.0156,0.2539 -0.3907,0 -0.7813,-0.1367 -1.2891,-0.5273 -1.4844,-1.7969 l -2.1484,-9.0039 -3.3203,9.3946 q -0.3125,0.9375 -1.211,1.3281 -0.5078,0.2344 -0.996,0.2148 -0.3907,0 -0.8008,-0.1367 -1.3282,-0.5273 -1.5235,-1.875 l -3.1445,-15.4883 z"
       style="font-style:normal;font-variant:normal;font-weight:bold;font-stretch:normal;line-height:100%;font-family:'Comic Neue';-inkscape-font-specification:'Comic Neue Bold';text-align:center;text-anchor:middle;fill:#4d4d4d"
       id="path4033" />
  </g>
  <path
     d="m 980.96866,177.2761 c 0.048,2.0391 -0.3195,4.0457 -0.7004,6.0389 -0.5871,2.7806 -1.2911,5.5335 -1.9335,8.3013 -0.7117,2.9494 -1.4846,5.8781 -2.3274,8.7924 -1.0215,3.317 -2.2421,6.5681 -3.3721,9.8489 -1.167,3.4374 -2.2469,6.9025 -3.3426,10.3629 -1.1243,3.5042 -2.2853,6.9962 -3.478,10.4775 -1.2344,3.6742 -2.6729,7.2692 -4.1553,10.8484 -1.3381,3.1418 -2.8294,6.211 -4.4448,9.2185 -1.6036,2.8865 -3.386,5.6664 -5.2634,8.3809 -2.068,2.8616 -4.1442,5.7175 -6.2507,8.5509 -1.8302,2.3963 -3.6339,4.8134 -5.5318,7.1567 -1.8484,2.1245 -3.7877,4.172 -5.7986,6.1432 -2.1896,2.1284 -4.6363,3.943 -7.1224,5.7028 -2.4377,1.6845 -4.9989,3.1746 -7.6108,4.5693 -2.3869,1.1226 -4.7925,2.2123 -7.2515,3.1692 -1.9482,0.7619 -3.9389,1.4037 -5.9313,2.0375 -1.2309,0.3895 -2.4635,0.7743 -3.6959,1.1592 -0.9129,0.2064 -1.7837,0.4884 -2.6261,0.8953 -0.521,0.2608 -1.0326,0.5394 -1.5443,0.8177 -0.2856,0.1555 -0.5709,0.3115 -0.8561,0.4674 -0.1601,0.088 -0.3202,0.1751 -0.4804,0.2626 -0.09,0.049 -0.1797,0.098 -0.2695,0.1475 -0.05,0.028 -0.101,0.055 -0.1516,0.083 1.317,1.2942 1.5041,0.8326 2.8226,-0.1403 0.8801,-0.6933 1.6284,-1.526 2.4032,-2.3289 1.2206,-1.1823 2.355,-2.4493 3.4403,-3.756 1.29,-1.5445 2.4626,-3.1777 3.5775,-4.8515 0.8741,-1.481 1.7454,-2.9546 2.7277,-4.3669 0.8253,-1.155 1.434,-2.4276 1.9465,-3.7456 0.4536,-1.0457 0.9769,-2.0592 1.4961,-3.0735 0.3137,-0.6115 0.6294,-1.2222 0.945,-1.8328 0.059,-0.1275 0.1401,-0.2469 0.2353,-0.3505 0.6615,0.2411 1.2384,0.6503 1.8096,1.0572 1.2065,0.9374 2.3499,1.9521 3.5284,2.9246 1.677,1.4801 3.4865,2.798 5.2031,4.2291 1.3486,1.1345 2.7126,2.2425 3.8619,3.5844 0.9032,1.1417 1.7805,2.3039 2.6672,3.4585 0.586,0.7629 1.1722,1.5256 1.7583,2.2882 0.332,0.4319 0.6639,0.8638 0.9958,1.2957 0.1865,0.2426 0.3729,0.4852 0.5595,0.7278 -0.079,-0.173 -0.086,-0.4002 -0.2342,-0.5192 -0.042,-0.034 -1.3905,0.8209 -1.5179,0.8857 -1.0061,0.4187 -2.0707,0.6663 -3.1042,1.0079 -1.3052,0.449 -2.6643,0.6966 -4.0005,1.0277 -1.5503,0.3726 -3.0748,0.8284 -4.6056,1.2713 -1.6619,0.4633 -3.3559,0.7924 -5.0581,1.0651 -1.9382,0.2954 -3.892,0.4664 -5.8459,0.6181 -2.0554,0.1505 -4.1142,0.2483 -6.1724,0.3498 -1.608,0.078 -3.2167,0.1376 -4.8256,0.1968 -1.0221,0.037 -2.0441,0.074 -3.0663,0.1106 -0.5779,0.021 -1.1558,0.042 -1.7336,0.062 -0.522,-0.012 -0.9294,0.025 -1.3538,0.3568 0,0 0.9071,0.8527 0.9071,0.8527 l 0,0 c -0.4693,0.2303 0.276,-0.049 0.4913,0.035 0.5778,-0.021 1.1558,-0.041 1.7336,-0.062 1.0225,-0.037 2.0451,-0.073 3.0676,-0.1108 1.6138,-0.059 3.2278,-0.1189 4.841,-0.1973 2.0701,-0.1022 4.1405,-0.2005 6.2076,-0.3522 1.9875,-0.1543 3.9749,-0.3289 5.9466,-0.63 1.7523,-0.2812 3.4963,-0.6206 5.207,-1.0985 1.5155,-0.4388 3.0245,-0.8907 4.5595,-1.2589 1.3664,-0.3403 2.757,-0.5919 4.0914,-1.0539 1.0936,-0.362 2.2239,-0.6168 3.2808,-1.0819 1.0764,-0.5546 1.9796,-0.8957 2.1716,-2.2331 -0.1865,-0.2427 -0.373,-0.4854 -0.5593,-0.728 -0.3321,-0.4319 -0.6639,-0.8636 -0.9959,-1.2956 -0.5861,-0.7626 -1.1722,-1.525 -1.758,-2.2878 -0.9007,-1.1729 -1.7911,-2.3539 -2.7107,-3.512 -1.1994,-1.3897 -2.6019,-2.5559 -4.0089,-3.7292 -1.7193,-1.4311 -3.5282,-2.7525 -5.2077,-4.2328 -1.2011,-0.9913 -2.3654,-2.0274 -3.5988,-2.9786 -0.7745,-0.5507 -1.5637,-1.1103 -2.5179,-1.2879 -0.6967,0.072 -1.091,0.3709 -1.3548,1.0238 -0.3164,0.6121 -0.6329,1.2242 -0.9475,1.8374 -0.5385,1.0522 -1.0816,2.1037 -1.5483,3.1903 -0.4746,1.2271 -1.0397,2.4107 -1.8081,3.4851 -0.9866,1.4193 -1.867,2.8974 -2.7418,4.3876 -1.0903,1.6377 -2.2371,3.2355 -3.4993,4.7465 -1.0644,1.2839 -2.1802,2.526 -3.3785,3.6869 -0.7277,0.7557 -1.4303,1.5391 -2.2529,2.1964 -1.1816,0.9018 -1.7284,0.3579 -1.4792,2.2292 0.051,-0.028 0.101,-0.054 0.1514,-0.083 0.09,-0.049 0.1798,-0.098 0.2697,-0.1475 0.16,-0.088 0.3201,-0.1749 0.48,-0.2624 0.2845,-0.1555 0.5691,-0.3111 0.8538,-0.4661 0.4946,-0.269 0.9889,-0.5382 1.492,-0.7909 0.7871,-0.3821 1.6015,-0.6316 2.4549,-0.8276 1.2344,-0.3855 2.469,-0.7708 3.7022,-1.1611 2.0174,-0.6418 4.033,-1.2922 6.0056,-2.0637 2.5046,-0.9756 4.9563,-2.0839 7.3863,-3.2313 2.6575,-1.4194 5.2634,-2.9365 7.7436,-4.6512 2.5401,-1.7982 5.038,-3.6551 7.2747,-5.83 2.0441,-2.0052 4.0172,-4.0861 5.8945,-6.2486 1.9083,-2.3569 3.723,-4.7872 5.5632,-7.1974 2.1151,-2.8449 4.1997,-5.7123 6.2756,-8.5857 1.9037,-2.7531 3.7109,-5.5722 5.3363,-8.5 1.6346,-3.0444 3.1444,-6.1507 4.4981,-9.3311 1.4924,-3.6032 2.9399,-7.2226 4.1829,-10.9212 1.1957,-3.4907 2.3601,-6.9918 3.4873,-10.5053 1.0925,-3.4505 2.169,-6.9057 3.3326,-10.3332 1.1366,-3.3006 2.3652,-6.5709 3.391,-9.9085 0.8489,-2.9357 1.6272,-5.8858 2.3441,-8.8568 0.6461,-2.7837 1.3545,-5.5523 1.9437,-8.3492 0.3953,-2.0702 0.7703,-4.1548 0.7226,-6.2725 0,0 -1.245,0 -1.245,0 z"
     id="path5652-9-4"
     style="color:#000000;clip-rule:nonzero;display:inline;overflow:visible;visibility:visible;opacity:0.77999998;isolation:auto;mix-blend-mode:normal;color-interpolation:sRGB;color-interpolation-filters:linearRGB;solid-color:#000000;solid-opacity:1;fill:#000000;fill-opacity:1;fill-rule:nonzero;stroke:#000000;stroke-width:1;stroke-linecap:butt;stroke-linejoin:miter;stroke-miterlimit:4;stroke-dasharray:none;stroke-dashoffset:0;stroke-opacity:1;color-rendering:auto;image-rendering:auto;shape-rendering:auto;text-rendering:auto;enable-background:accumulate" />
  <rect
     ry="2.8317683"
     rx="35.072105"
     y="0"
     x="0"
     height="363.02524"
     width="1317.37"
     id="rect3369"
     style="color:#000000;clip-rule:nonzero;display:inline;overflow:visible;visibility:visible;opacity:0.77999998;isolation:auto;mix-blend-mode:normal;color-interpolation:sRGB;color-interpolation-filters:linearRGB;solid-color:#000000;solid-opacity:1;fill:none;fill-opacity:1;fill-rule:nonzero;stroke:none;stroke-width:2;stroke-linecap:round;stroke-linejoin:miter;stroke-miterlimit:4;stroke-dasharray:none;stroke-dashoffset:0;stroke-opacity:1;color-rendering:auto;image-rendering:auto;shape-rendering:auto;text-rendering:auto;enable-background:accumulate" />
</svg>
