<?xml version="1.0" encoding="UTF-8" standalone="no"?>
<svg
   xmlns:dc="http://purl.org/dc/elements/1.1/"
   xmlns:cc="http://creativecommons.org/ns#"
   xmlns:rdf="http://www.w3.org/1999/02/22-rdf-syntax-ns#"
   xmlns:svg="http://www.w3.org/2000/svg"
   xmlns="http://www.w3.org/2000/svg"
   version="1.1"
   id="svg2"
   viewBox="0 0 1317.3699 363.02523"
   height="102.45379mm"
   width="371.79108mm">
  <defs
     id="defs4">
    <marker
       style="overflow:visible"
       id="Arrow1Lend"
       refX="0"
       refY="0"
       orient="auto">
      <path
         transform="matrix(-0.8,0,0,-0.8,-10,0)"
         style="fill:#000000;fill-opacity:1;fill-rule:evenodd;stroke:#000000;stroke-width:1pt;stroke-opacity:1"
         d="M 0,0 5,-5 -12.5,0 5,5 0,0 Z"
         id="path5845" />
    </marker>
    <marker
       style="overflow:visible"
       id="TriangleOutM"
       refX="0"
       refY="0"
       orient="auto">
      <path
         transform="scale(0.4,0.4)"
         style="fill:#000000;fill-opacity:1;fill-rule:evenodd;stroke:#000000;stroke-width:1pt;stroke-opacity:1"
         d="m 5.77,0 -8.65,5 0,-10 8.65,5 z"
         id="path5987" />
    </marker>
    <marker
       style="overflow:visible"
       id="TriangleInM"
       refX="0"
       refY="0"
       orient="auto">
      <path
         transform="scale(-0.4,-0.4)"
         style="fill:#000000;fill-opacity:1;fill-rule:evenodd;stroke:#000000;stroke-width:1pt;stroke-opacity:1"
         d="m 5.77,0 -8.65,5 0,-10 8.65,5 z"
         id="path5978" />
    </marker>
    <marker
       style="overflow:visible"
       id="Arrow2Mstart"
       refX="0"
       refY="0"
       orient="auto">
      <path
         transform="scale(0.6,0.6)"
         d="M 8.7185878,4.0337352 -2.2072895,0.01601326 8.7185884,-4.0017078 c -1.7454984,2.3720609 -1.7354408,5.6174519 -6e-7,8.035443 z"
         style="fill:#000000;fill-opacity:1;fill-rule:evenodd;stroke:#000000;stroke-width:0.625;stroke-linejoin:round;stroke-opacity:1"
         id="path5866" />
    </marker>
    <marker
       style="overflow:visible"
       id="Arrow1Lstart"
       refX="0"
       refY="0"
       orient="auto">
      <path
         transform="matrix(0.8,0,0,0.8,10,0)"
         style="fill:#000000;fill-opacity:1;fill-rule:evenodd;stroke:#000000;stroke-width:1pt;stroke-opacity:1"
         d="M 0,0 5,-5 -12.5,0 5,5 0,0 Z"
         id="path5842" />
    </marker>
    <marker
       style="overflow:visible"
       id="TriangleInM-6"
       refX="0"
       refY="0"
       orient="auto">
      <path
         transform="scale(-0.4,-0.4)"
         style="fill:#000000;fill-opacity:1;fill-rule:evenodd;stroke:#000000;stroke-width:1pt;stroke-opacity:1"
         d="m 5.77,0 -8.65,5 0,-10 8.65,5 z"
         id="path5978-6" />
    </marker>
    <marker
       style="overflow:visible"
       id="TriangleOutM-4"
       refX="0"
       refY="0"
       orient="auto">
      <path
         transform="scale(0.4,0.4)"
         style="fill:#000000;fill-opacity:1;fill-rule:evenodd;stroke:#000000;stroke-width:1pt;stroke-opacity:1"
         d="m 5.77,0 -8.65,5 0,-10 8.65,5 z"
         id="path5987-0" />
    </marker>
    <marker
       style="overflow:visible"
       id="TriangleInM-6-4"
       refX="0"
       refY="0"
       orient="auto">
      <path
         transform="scale(-0.4,-0.4)"
         style="fill:#000000;fill-opacity:1;fill-rule:evenodd;stroke:#000000;stroke-width:1pt;stroke-opacity:1"
         d="m 5.77,0 -8.65,5 0,-10 8.65,5 z"
         id="path5978-6-6" />
    </marker>
    <marker
       style="overflow:visible"
       id="TriangleOutM-4-2"
       refX="0"
       refY="0"
       orient="auto">
      <path
         transform="scale(0.4,0.4)"
         style="fill:#000000;fill-opacity:1;fill-rule:evenodd;stroke:#000000;stroke-width:1pt;stroke-opacity:1"
         d="m 5.77,0 -8.65,5 0,-10 8.65,5 z"
         id="path5987-0-6" />
    </marker>
    <marker
       style="overflow:visible"
       id="TriangleInM-6-4-5"
       refX="0"
       refY="0"
       orient="auto">
      <path
         transform="scale(-0.4,-0.4)"
         style="fill:#000000;fill-opacity:1;fill-rule:evenodd;stroke:#000000;stroke-width:1pt;stroke-opacity:1"
         d="m 5.77,0 -8.65,5 0,-10 8.65,5 z"
         id="path5978-6-6-6" />
    </marker>
    <marker
       style="overflow:visible"
       id="TriangleOutM-4-2-9"
       refX="0"
       refY="0"
       orient="auto">
      <path
         transform="scale(0.4,0.4)"
         style="fill:#000000;fill-opacity:1;fill-rule:evenodd;stroke:#000000;stroke-width:1pt;stroke-opacity:1"
         d="m 5.77,0 -8.65,5 0,-10 8.65,5 z"
         id="path5987-0-6-8" />
    </marker>
  </defs>
  <metadata
     id="metadata7">
    <rdf:RDF>
      <cc:Work
         rdf:about="">
        <dc:format>image/svg+xml</dc:format>
        <dc:type
           rdf:resource="http://purl.org/dc/dcmitype/StillImage" />
        <dc:title></dc:title>
      </cc:Work>
    </rdf:RDF>
  </metadata>
  <rect
     style="color:#000000;clip-rule:nonzero;display:inline;overflow:visible;visibility:visible;opacity:0.77999998;isolation:auto;mix-blend-mode:normal;color-interpolation:sRGB;color-interpolation-filters:linearRGB;solid-color:#000000;solid-opacity:1;fill:none;fill-opacity:1;fill-rule:nonzero;stroke:none;stroke-width:1;stroke-linecap:butt;stroke-linejoin:miter;stroke-miterlimit:4;stroke-dasharray:none;stroke-dashoffset:0;stroke-opacity:1;color-rendering:auto;image-rendering:auto;shape-rendering:auto;text-rendering:auto;enable-background:accumulate"
     id="rect5510-8"
     width="1095.1042"
     height="225.35907"
     x="111.13289"
     y="54.547737"
     rx="4.4103498"
     ry="2.7853885" />
  <path
     style="color:#000000;clip-rule:nonzero;display:inline;overflow:visible;visibility:visible;opacity:0.77999998;isolation:auto;mix-blend-mode:normal;color-interpolation:sRGB;color-interpolation-filters:linearRGB;solid-color:#000000;solid-opacity:1;fill:#000000;fill-opacity:1;fill-rule:nonzero;stroke:#000000;stroke-width:1;stroke-linecap:butt;stroke-linejoin:miter;stroke-miterlimit:4;stroke-dasharray:none;stroke-dashoffset:0;stroke-opacity:1;color-rendering:auto;image-rendering:auto;shape-rendering:auto;text-rendering:auto;enable-background:accumulate"
     id="path5548"
     d="m 359.80977,75.50646 c 1.856,-0.1044 3.7182,-0.054 5.5765,-0.04 2.0963,0.017 4.1926,0.03 6.2889,0.042 2.1179,0.037 4.2386,-0.047 6.3524,0.1002 2.3647,0.2575 4.7306,0.4949 7.1019,0.6819 2.9139,0.1861 5.8248,0.3353 8.7298,0.634 3.5384,0.3017 7.0486,0.8375 10.5638,1.3301 3.5111,0.5456 6.9664,1.3694 10.3433,2.4689 3.6917,1.185 7.3005,2.5883 10.8846,4.061 3.6031,1.405 7.0017,3.2313 10.4208,5.0205 3.2199,1.6955 6.3469,3.5479 9.4314,5.4754 3.1049,1.9681 6.127,4.0709 9.0038,6.3598 2.7672,2.2458 5.4137,4.6311 8.1276,6.9398 2.7658,2.3463 5.3938,4.8588 7.9095,7.4705 2.264,2.6008 4.4843,5.2439 6.6352,7.9391 2.287,2.8306 4.5017,5.7161 6.5085,8.7527 1.9223,3.0342 3.8819,6.0461 5.7628,9.1067 1.7104,2.8017 3.3859,5.6248 5.0114,8.4767 1.7148,2.8239 3.1062,5.8237 4.6679,8.7307 1.5193,2.8751 2.98,5.7826 4.3141,8.7486 1.318,2.7616 2.4491,5.6051 3.6704,8.4093 1.0093,2.4874 2.0174,4.9725 3.0567,7.4477 0.8953,2.3733 1.9707,4.6719 3.0889,6.9468 1.3231,2.3916 2.7242,4.74 4.0065,7.1537 1.1399,2.4208 2.3717,4.785 3.7089,7.1028 1.5674,2.7588 3.0798,5.5482 4.564,8.3525 1.4534,2.9452 2.9934,5.8446 4.5993,8.7088 1.3173,2.3668 2.6621,4.7181 4.032,7.0549 1.4413,2.4345 2.9566,4.8234 4.4378,7.2334 1.4814,2.2348 3.0489,4.4151 4.6579,6.5594 1.3596,1.9515 2.8009,3.8402 4.3533,5.6418 1.4439,1.5532 3.0186,2.9714 4.4777,4.5092 1.3968,1.3294 2.8031,2.6551 4.287,3.8873 1.8286,1.6849 3.7441,3.2702 5.6261,4.8946 2.2122,1.9246 4.3856,3.8929 6.56,5.8599 1.6641,1.5186 3.4126,2.9395 5.1642,4.3554 1.853,1.3779 3.8066,2.6144 5.7284,3.8936 1.6328,1.1006 3.2344,2.2427 4.9326,3.241 1.2877,0.7842 2.6722,1.3805 4.007,2.0763 1.4761,0.7669 3.0877,1.1965 4.6441,1.7594 1.8914,0.7153 3.8573,1.1977 5.8246,1.6495 1.8078,0.4405 3.6553,0.6835 5.4699,1.0869 1.9396,0.4914 3.9018,0.8742 5.8695,1.2323 1.8925,0.3411 3.8022,0.565 5.7146,0.7571 1.8599,0.2118 3.7374,0.014 5.5983,-0.1012 1.9059,-0.1618 3.8259,-0.133 5.7254,-0.3578 1.9822,-0.2861 3.9611,-0.5713 5.9179,-1.0001 1.8595,-0.4261 3.7262,-0.7913 5.5502,-1.354 1.9152,-0.4903 3.7649,-1.1658 5.5857,-1.9301 1.8245,-0.7207 3.577,-1.5974 5.3187,-2.4968 2.0504,-1.1505 4.1608,-2.1882 6.2171,-3.3288 2.1106,-1.1153 4.1553,-2.3324 6.2031,-3.5565 2.0461,-1.3092 4.0498,-2.6776 6.0474,-4.0586 2.2757,-1.5953 4.5534,-3.1873 6.8573,-4.7419 2.1961,-1.4183 4.2179,-3.069 6.2551,-4.7004 1.9479,-1.5583 3.8585,-3.1626 5.7724,-4.7624 1.6977,-1.4193 3.2458,-3.0029 4.7724,-4.6016 1.6392,-1.7315 3.1375,-3.5878 4.7552,-5.3396 1.5882,-1.7102 3.1591,-3.4373 4.7141,-5.1785 1.8083,-1.9628 3.4628,-4.0573 5.1565,-6.1178 1.8182,-2.2032 3.6865,-4.364 5.5854,-6.4977 1.9535,-2.0996 4.0269,-4.0792 5.9904,-6.1687 1.9691,-2.0032 3.722,-4.1913 5.423,-6.4214 1.8355,-2.4042 3.7454,-4.7478 5.5254,-7.1936 1.764,-2.2866 3.1862,-4.8046 4.6446,-7.2893 1.5633,-2.5248 3.0256,-5.1047 4.4525,-7.7081 1.3454,-2.5198 2.5036,-5.1309 3.8253,-7.6628 1.2332,-2.4344 2.4064,-4.8958 3.6842,-7.3077 1.3622,-2.721 2.9134,-5.3406 4.3729,-8.0094 1.6679,-3.004 3.4599,-5.937 5.1521,-8.9271 1.7391,-2.9251 3.3794,-5.9049 5.0753,-8.8547 1.8572,-3.2912 3.5446,-6.6725 5.4353,-9.945 1.6036,-2.8191 3.1984,-5.6424 4.7822,-8.4727 1.4446,-2.5242 3.0173,-4.9709 4.4871,-7.4801 1.6029,-2.6257 3.2872,-5.2014 4.9292,-7.8035 1.4089,-2.2915 2.8092,-4.5895 4.4435,-6.7286 1.8544,-2.207 3.7041,-4.4197 5.6268,-6.5679 1.7599,-2.0346 3.4083,-4.1569 5.1655,-6.1945 1.7616,-1.9875 3.531,-3.9671 5.2484,-5.9929 1.8082,-1.9899 3.5382,-4.0507 5.3742,-6.0151 1.8634,-2.2128 4.0738,-4.0792 6.1722,-6.0558 2.1434,-1.9777 4.2898,-3.9546 6.3781,-5.9908 1.8886,-1.6646 3.6467,-3.4615 5.3868,-5.2782 1.3802,-1.45 2.7608,-2.8996 4.1456,-4.3452 1.1974,-1.3405 2.3214,-2.741 3.5686,-4.0363 1.1295,-1.0491 1.979,-2.3383 2.9412,-3.5316 0.9346,-1.3241 2.0503,-2.5067 3.1445,-3.6979 0.879,-1.1856 1.8788,-2.2639 2.9059,-3.3207 0.7702,-1.0369 1.6843,-1.9426 2.6055,-2.843 1.0251,-0.8884 1.9801,-1.8605 3.0175,-2.7353 1.2481,-0.9806 2.5402,-1.9017 3.8243,-2.8348 1.9009,-1.4598 3.8283,-2.8854 5.6815,-4.406 1.5737,-1.3822 3.1804,-2.7252 4.7658,-4.0925 1.3094,-1.0944 2.5676,-2.2424 3.8004,-3.4226 0.9198,-0.9394 1.953,-1.7522 2.9696,-2.582 1.1055,-0.9687 2.1917,-1.9588 3.3096,-2.9138 1.0403,-0.8032 1.8321,-1.8628 2.7765,-2.766 0.7435,-0.6632 1.5314,-1.2738 2.3168,-1.8859 0.5738,-0.4271 1.0565,-0.9509 1.5973,-1.4212 0.4583,-0.3938 0.9218,-0.7815 1.385,-1.1694 0.2642,-0.2211 0.5286,-0.4421 0.7929,-0.6631 0.1486,-0.1241 0.2971,-0.2483 0.4456,-0.3724 0.083,-0.07 0.1668,-0.1394 0.2502,-0.2091 0.097,-0.076 0.1815,-0.1641 0.2687,-0.2505 0.2437,-0.2386 0.4868,-0.4779 0.7299,-0.717 0.1501,-0.1477 0.3002,-0.2954 0.4503,-0.443 0.085,-0.083 0.1693,-0.1666 0.254,-0.2499 0.019,-0.019 0.038,-0.037 0.057,-0.056 l 1.2348,1.2549 0,0 c -0.019,0.019 -0.038,0.037 -0.057,0.056 -0.085,0.083 -0.1693,0.1666 -0.254,0.2499 -0.1501,0.1477 -0.3003,0.2954 -0.4504,0.4431 -0.2448,0.2408 -0.4896,0.4817 -0.7349,0.7219 -0.12,0.1171 -0.2381,0.2367 -0.3693,0.3413 -0.083,0.07 -0.1668,0.1395 -0.2502,0.2092 -0.1485,0.1241 -0.297,0.2482 -0.4455,0.3724 -0.264,0.2206 -0.5279,0.4413 -0.7918,0.6621 -0.4549,0.3809 -0.9101,0.7617 -1.3603,1.1483 -0.5635,0.4896 -1.071,1.0357 -1.6701,1.4812 -0.7407,0.5772 -1.4839,1.153 -2.188,1.7751 -0.9752,0.9134 -1.7659,2.0196 -2.8441,2.8268 -1.1286,0.9635 -2.2248,1.9628 -3.3411,2.9401 -0.9821,0.7982 -1.977,1.583 -2.864,2.4888 -1.2551,1.2014 -2.537,2.3691 -3.8688,3.4846 -1.5979,1.375 -3.2123,2.7307 -4.7987,4.1201 -1.881,1.5407 -3.8332,2.99 -5.7627,4.4688 -1.2513,0.9093 -2.5105,1.8068 -3.7285,2.76 -1.0084,0.8387 -1.9227,1.7909 -2.9177,2.6449 -0.9114,0.8906 -1.8077,1.7888 -2.5736,2.8111 -1.0161,1.0451 -1.9993,2.1143 -2.8717,3.2845 -1.0689,1.1636 -2.1597,2.3176 -3.0709,3.6124 -0.9952,1.233 -1.8753,2.564 -3.0437,3.6478 -1.2469,1.2929 -2.364,2.6976 -3.565,4.0325 -1.3848,1.4456 -2.7654,2.8952 -4.1456,4.3452 -1.754,1.8311 -3.5259,3.6429 -5.4294,5.3212 -2.0964,2.0423 -4.2486,4.0277 -6.4,6.0117 -2.0721,1.9502 -4.2544,3.7921 -6.0933,5.9768 -1.8182,1.9419 -3.5264,3.984 -5.3173,5.951 -1.7213,2.029 -3.4922,4.0137 -5.2579,6.0041 -1.7644,2.0457 -3.4178,4.1781 -5.1871,6.2191 -1.8937,2.1137 -3.7119,4.294 -5.5405,6.4638 -1.6066,2.0934 -2.9663,4.3553 -4.3525,6.5979 -1.6319,2.5856 -3.3052,5.1454 -4.899,7.7539 -1.4646,2.4987 -3.0291,4.9369 -4.4698,7.4498 -1.5879,2.8374 -3.1867,5.6678 -4.7943,8.494 -1.8916,3.2704 -3.5738,6.6532 -5.4333,9.9415 -1.6943,2.9461 -3.3323,5.9228 -5.0694,8.8445 -1.6887,2.9822 -3.4747,5.9088 -5.1397,8.9046 -1.4561,2.6618 -3.0028,5.275 -4.3619,7.9889 -1.2767,2.4084 -2.4462,4.8678 -3.6792,7.2984 -1.3282,2.5417 -2.4873,5.1657 -3.842,7.6939 -1.4352,2.6185 -2.9059,5.2134 -4.478,7.7531 -1.4877,2.5345 -2.9413,5.1011 -4.7395,7.4342 -1.7882,2.4562 -3.7045,4.8114 -5.549,7.2252 -1.7378,2.278 -3.5299,4.512 -5.54,6.5594 -1.9529,2.0778 -4.013,4.048 -5.9581,6.1335 -1.8837,2.1164 -3.7369,4.2598 -5.5404,6.4452 -1.709,2.0791 -3.3792,4.1919 -5.2035,6.1725 -1.5618,1.7487 -3.14,3.4827 -4.7344,5.2009 -1.6259,1.7572 -3.1257,3.6249 -4.7748,5.3604 -1.5722,1.6463 -3.1684,3.2749 -4.9166,4.7366 -1.9233,1.6076 -3.8434,3.2198 -5.801,4.7858 -2.0746,1.6613 -4.1353,3.3403 -6.3709,4.7855 -2.2984,1.5509 -4.5706,3.1392 -6.8408,4.7308 -2.0297,1.4029 -4.0656,2.7933 -6.1455,4.1217 -2.0645,1.233 -4.1257,2.4599 -6.2525,3.585 -2.0721,1.1482 -4.1974,2.195 -6.2634,3.3535 -1.7833,0.9197 -3.5779,1.8168 -5.445,2.5558 -1.8742,0.7858 -3.7782,1.4825 -5.7486,1.9891 -1.8712,0.5756 -3.784,0.9576 -5.692,1.3913 -2.0144,0.4404 -4.0511,0.7371 -6.0919,1.0292 -1.932,0.2192 -3.8805,0.2119 -5.8187,0.3661 -1.9561,0.1214 -3.9285,0.3212 -5.8835,0.096 -1.959,-0.1971 -3.9152,-0.427 -5.8537,-0.7767 -1.9909,-0.3624 -3.9762,-0.7497 -5.9387,-1.2464 -1.8165,-0.4093 -3.6703,-0.641 -5.4798,-1.089 -2.0371,-0.4683 -4.0718,-0.9704 -6.0305,-1.7104 -1.6285,-0.5923 -3.3167,-1.0402 -4.8579,-1.8534 -1.3611,-0.71 -2.7736,-1.3176 -4.0856,-2.1199 -1.7259,-1.0158 -3.353,-2.1781 -5.0156,-3.2929 -1.9625,-1.3159 -3.9669,-2.5743 -5.8596,-3.99 -1.7769,-1.4364 -3.5499,-2.8788 -5.2385,-4.419 -2.1643,-1.9577 -4.3275,-3.917 -6.5293,-5.8327 -1.8739,-1.6174 -3.7818,-3.1953 -5.6017,-4.8739 -1.5349,-1.2791 -2.9964,-2.6468 -4.4384,-4.0292 -1.4778,-1.5587 -3.0777,-2.9917 -4.5343,-4.5718 -1.5775,-1.8322 -3.0461,-3.7503 -4.428,-5.7346 -1.64,-2.1889 -3.242,-4.4111 -4.7492,-6.6938 -1.4871,-2.4207 -3.0094,-4.8196 -4.4567,-7.2648 -1.3756,-2.3466 -2.726,-4.7076 -4.0488,-7.0843 -1.6128,-2.8766 -3.1602,-5.7883 -4.6197,-8.7463 -1.474,-2.7856 -2.9765,-5.556 -4.5331,-8.2964 -1.3467,-2.3359 -2.5914,-4.7171 -3.7387,-7.1569 -1.2895,-2.4307 -2.7055,-4.7919 -4.0317,-7.2028 -1.1327,-2.3064 -2.2241,-4.6359 -3.1321,-7.0416 -1.0362,-2.4681 -2.0419,-4.9458 -3.0474,-7.4263 -1.2185,-2.7979 -2.3472,-5.6349 -3.662,-8.3903 -1.3163,-2.9289 -2.7604,-5.7986 -4.2596,-8.6378 -1.5533,-2.8947 -2.9408,-5.8798 -4.6464,-8.6918 -1.6154,-2.8354 -3.2817,-5.6413 -4.9817,-8.4267 -1.8704,-3.0445 -3.8205,-6.0398 -5.732,-9.0581 -1.9758,-2.994 -4.1631,-5.8343 -6.4155,-8.6249 -2.1162,-2.6533 -4.3037,-5.2526 -6.5273,-7.8161 -2.4739,-2.571 -5.0616,-5.0413 -7.782,-7.3506 -2.6994,-2.2964 -5.3318,-4.669 -8.0836,-6.9035 -2.8226,-2.2495 -5.7931,-4.3098 -8.84,-6.244 -3.0465,-1.9038 -6.1345,-3.7341 -9.3147,-5.4086 -3.3711,-1.7643 -6.7204,-3.5679 -10.2736,-4.9519 -3.5437,-1.456 -7.1112,-2.8445 -10.7614,-4.0156 -3.2776,-1.0709 -6.6336,-1.8659 -10.0417,-2.3992 -3.4939,-0.4896 -6.9827,-1.023 -10.4996,-1.3224 -2.8911,-0.2975 -5.7883,-0.4434 -8.6882,-0.6301 -2.367,-0.1869 -4.7289,-0.4219 -7.0891,-0.681 -2.0745,-0.1528 -4.1581,-0.051 -6.2368,-0.096 -2.0974,-0.012 -4.1947,-0.026 -6.292,-0.042 -1.7576,-0.013 -3.517,-0.049 -5.2739,0.016 l -0.2894,-1.7366 z" />
  <circle
     style="color:#000000;clip-rule:nonzero;display:inline;overflow:visible;visibility:visible;opacity:1;isolation:auto;mix-blend-mode:normal;color-interpolation:sRGB;color-interpolation-filters:linearRGB;solid-color:#000000;solid-opacity:1;fill:#000000;fill-opacity:1;fill-rule:nonzero;stroke:none;stroke-width:1;stroke-linecap:butt;stroke-linejoin:miter;stroke-miterlimit:4;stroke-dasharray:none;stroke-dashoffset:0;stroke-opacity:1;color-rendering:auto;image-rendering:auto;shape-rendering:auto;text-rendering:auto;enable-background:accumulate"
     id="path5512-4-7"
     cx="586.39923"
     cy="281.39713"
     r="10.563706" />
  <circle
     style="color:#000000;clip-rule:nonzero;display:inline;overflow:visible;visibility:visible;opacity:1;isolation:auto;mix-blend-mode:normal;color-interpolation:sRGB;color-interpolation-filters:linearRGB;solid-color:#000000;solid-opacity:1;fill:#000000;fill-opacity:1;fill-rule:nonzero;stroke:none;stroke-width:1;stroke-linecap:butt;stroke-linejoin:miter;stroke-miterlimit:4;stroke-dasharray:none;stroke-dashoffset:0;stroke-opacity:1;color-rendering:auto;image-rendering:auto;shape-rendering:auto;text-rendering:auto;enable-background:accumulate"
     id="path5512-4-7-2"
     cx="880.3819"
     cy="17.819834"
     r="10.563706" />
  <g
     id="flowRoot4242-6-5-4"
     style="font-style:normal;font-weight:normal;font-size:40px;line-height:125%;font-family:sans-serif;letter-spacing:0px;word-spacing:0px;fill:#4d4d4d;fill-opacity:1;stroke:none;stroke-width:1px;stroke-linecap:butt;stroke-linejoin:miter;stroke-opacity:1"
     transform="translate(-799.36401,-62.44074)">
    <path
       id="path3371"
       style="font-style:normal;font-variant:normal;font-weight:bold;font-stretch:normal;font-family:'Comic Neue';-inkscape-font-specification:'Comic Neue Bold';fill:#4d4d4d"
       d="m 1569.7773,386.60828 q 0,-0.8789 0.586,-1.5039 0.6055,-0.625 1.4453,-0.625 l 16.4062,0 q 0.8399,0 1.4454,0.625 0.6054,0.625 0.6054,1.5039 0,0.91797 -0.6054,1.54297 -0.6055,0.60547 -1.4454,0.60547 l -6.4062,0 0,20.83984 q 0,0.87891 -0.6055,1.50391 -0.5859,0.625 -1.4258,0.625 -0.8398,0 -1.4453,-0.60547 -0.5859,-0.625 -0.5859,-1.52344 l 0,-20.83984 -5.9375,0 q -0.8398,0 -1.4453,-0.60547 -0.586,-0.625 -0.586,-1.54297 z" />
    <path
       id="path3373"
       style="font-style:normal;font-variant:normal;font-weight:bold;font-stretch:normal;font-family:'Comic Neue';-inkscape-font-specification:'Comic Neue Bold';fill:#4d4d4d"
       d="m 1592.8438,409.5575 0,-23.28125 q 0,-0.91797 0.625,-1.52344 0.625,-0.625 1.5039,-0.625 0.8789,0 1.4843,0.625 0.625,0.60547 0.625,1.52344 l 0,8.04688 q 0.2344,-0.27344 0.4688,-0.50782 0.2539,-0.2539 0.4883,-0.48828 2.4023,-2.32422 4.8828,-2.32422 0.4883,0 1.0547,0.11719 0.5859,0.11719 1.1914,0.46875 0.6054,0.33203 1.1523,0.9375 0.5664,0.60547 0.9961,1.5625 1.2891,2.63672 1.4063,7.71484 0.039,0.83985 0.039,2.16797 0,1.3086 0,2.5586 0,1.42578 -0.039,2.98828 0,0.8789 -0.6055,1.5039 -0.5859,0.625 -1.4649,0.625 -0.8789,0 -1.4843,-0.625 -0.6055,-0.625 -0.6055,-1.5039 0.039,-1.44531 0.039,-2.79297 0,-1.15234 0,-2.48047 0,-1.32812 -0.039,-2.36328 -0.039,-1.79688 -0.2148,-3.02734 -0.1758,-1.25 -0.4297,-2.03125 -0.2344,-0.78125 -0.4883,-1.13282 -0.2539,-0.37109 -0.5078,-0.37109 -1.5235,0 -3.3203,2.12891 -0.8399,0.95703 -1.3868,1.875 -0.5273,0.91796 -0.6835,1.25 -0.4493,0.91796 -0.4493,2.7539 l 0,6.23047 q 0,0.91797 -0.625,1.54297 -0.6054,0.625 -1.4843,0.625 -0.8789,0 -1.5039,-0.60547 -0.625,-0.625 -0.625,-1.5625 z" />
    <path
       id="path3375"
       style="font-style:normal;font-variant:normal;font-weight:bold;font-stretch:normal;font-family:'Comic Neue';-inkscape-font-specification:'Comic Neue Bold';fill:#4d4d4d"
       d="m 1612.7852,401.76453 q 0,-1.95312 0.7031,-3.71094 0.7031,-1.77734 1.914,-3.10546 1.2305,-1.34766 2.8711,-2.16797 1.6407,-0.82032 3.5157,-0.9375 0.3515,-0.0391 0.7031,-0.0391 1.9141,0 3.4961,0.91797 1.875,1.07422 3.0078,2.89063 0.1953,0.3125 0.332,0.64453 0.1367,0.3125 0.3125,0.58594 0.1953,0.37109 0.1953,0.82031 0,0.25391 -0.059,0.56641 -0.1757,0.82031 -1.0156,1.25 -0.7226,0.39062 -2.0312,1.13281 -1.2891,0.72265 -2.8125,1.5625 -1.5235,0.83984 -3.086,1.71875 -1.5625,0.8789 -2.7929,1.54297 0.6445,0.80078 1.4648,1.36718 1.2891,0.87891 2.9297,0.87891 2.2852,0 3.9648,-1.75781 l 0.8008,-0.83985 q 0.5664,-0.5664 1.3867,-0.5664 0.8399,0 1.4454,0.60547 0.6054,0.60547 0.6054,1.40625 0,0.72265 -0.4883,1.30859 l -0.8007,0.83984 q -1.3672,1.48438 -3.1641,2.28516 -1.7578,0.76172 -3.75,0.76172 -1.9922,0 -3.7695,-0.78125 -1.7578,-0.78125 -3.0664,-2.10938 -1.2891,-1.34765 -2.0508,-3.16406 -0.7617,-1.8164 -0.7617,-3.90625 z m 4.0429,-0.27344 q 0.8399,-0.48828 1.9532,-1.09375 1.1328,-0.625 2.246,-1.25 1.1329,-0.625 2.1485,-1.1914 1.0156,-0.58594 1.7383,-0.9961 -1.0352,-1.03515 -2.4024,-1.11328 -1.3672,0.0391 -2.3828,0.54688 -1.0156,0.48828 -1.7383,1.28906 -1.4453,1.64063 -1.5625,3.80859 z" />
    <path
       id="path3377"
       style="font-style:normal;font-variant:normal;font-weight:bold;font-stretch:normal;font-family:'Comic Neue';-inkscape-font-specification:'Comic Neue Bold';fill:#4d4d4d"
       d="m 1646.6719,393.67859 q 0,-0.8789 0.6054,-1.48437 0.625,-0.625 1.5235,-0.625 l 2.7539,0 0,-4.08203 q 0,-0.87891 0.5859,-1.48438 0.6055,-0.60547 1.5235,-0.60547 0.8789,0 1.4843,0.60547 0.6055,0.60547 0.6055,1.48438 l 0,4.08203 2.7539,0 q 0.918,0 1.5235,0.625 0.6054,0.60547 0.6054,1.48437 0,0.91797 -0.6054,1.52344 -0.6055,0.60547 -1.5235,0.60547 l -2.7539,0 0,13.84766 q 0,0.8789 -0.6055,1.48437 -0.6054,0.58594 -1.4843,0.58594 -0.918,0 -1.5235,-0.58594 -0.5859,-0.60547 -0.5859,-1.48437 l 0,-13.84766 -2.7539,0 q -0.8789,0 -1.5039,-0.60547 -0.625,-0.60547 -0.625,-1.52344 z" />
    <path
       id="path3379"
       style="font-style:normal;font-variant:normal;font-weight:bold;font-stretch:normal;font-family:'Comic Neue';-inkscape-font-specification:'Comic Neue Bold';fill:#4d4d4d"
       d="m 1664.0156,409.5575 0,-23.28125 q 0,-0.91797 0.625,-1.52344 0.625,-0.625 1.5039,-0.625 0.8789,0 1.4844,0.625 0.625,0.60547 0.625,1.52344 l 0,8.04688 q 0.2344,-0.27344 0.4688,-0.50782 0.2539,-0.2539 0.4882,-0.48828 2.4024,-2.32422 4.8829,-2.32422 0.4882,0 1.0546,0.11719 0.586,0.11719 1.1914,0.46875 0.6055,0.33203 1.1524,0.9375 0.5664,0.60547 0.9961,1.5625 1.289,2.63672 1.4062,7.71484 0.039,0.83985 0.039,2.16797 0,1.3086 0,2.5586 0,1.42578 -0.039,2.98828 0,0.8789 -0.6054,1.5039 -0.586,0.625 -1.4649,0.625 -0.8789,0 -1.4844,-0.625 -0.6054,-0.625 -0.6054,-1.5039 0.039,-1.44531 0.039,-2.79297 0,-1.15234 0,-2.48047 0,-1.32812 -0.039,-2.36328 -0.039,-1.79688 -0.2149,-3.02734 -0.1757,-1.25 -0.4297,-2.03125 -0.2343,-0.78125 -0.4882,-1.13282 -0.2539,-0.37109 -0.5078,-0.37109 -1.5235,0 -3.3204,2.12891 -0.8398,0.95703 -1.3867,1.875 -0.5273,0.91796 -0.6836,1.25 -0.4492,0.91796 -0.4492,2.7539 l 0,6.23047 q 0,0.91797 -0.625,1.54297 -0.6055,0.625 -1.4844,0.625 -0.8789,0 -1.5039,-0.60547 -0.625,-0.625 -0.625,-1.5625 z" />
    <path
       id="path3381"
       style="font-style:normal;font-variant:normal;font-weight:bold;font-stretch:normal;font-family:'Comic Neue';-inkscape-font-specification:'Comic Neue Bold';fill:#4d4d4d"
       d="m 1684.5625,409.65516 0,-15.76172 q 0,-0.91797 0.6445,-1.54297 0.6446,-0.625 1.5625,-0.625 0.918,0 1.543,0.625 0.6445,0.60547 0.6445,1.54297 l -0.078,15.76172 q 0,0.91797 -0.625,1.54297 -0.6055,0.60546 -1.5234,0.60546 -0.918,0 -1.543,-0.60546 -0.625,-0.625 -0.625,-1.54297 z m 0.1563,-22.12891 0.078,-1.36719 q 0,-0.8789 0.625,-1.48437 0.625,-0.625 1.5039,-0.625 0.8789,0 1.4844,0.625 0.625,0.60547 0.625,1.48437 l -0.078,1.36719 q 0,0.87891 -0.625,1.50391 -0.6054,0.625 -1.4843,0.625 -0.8789,0 -1.5039,-0.625 -0.625,-0.625 -0.625,-1.50391 z" />
    <path
       id="path3383"
       style="font-style:normal;font-variant:normal;font-weight:bold;font-stretch:normal;font-family:'Comic Neue';-inkscape-font-specification:'Comic Neue Bold';fill:#4d4d4d"
       d="m 1694.25,409.59656 0,-15 0,-1.1914 q 0,-0.87891 0.625,-1.50391 0.625,-0.625 1.5039,-0.625 0.8789,0 1.4844,0.625 0.625,0.625 0.625,1.50391 l 0,1.25 q 0.1562,-0.19532 0.293,-0.35157 0.1562,-0.17578 0.3515,-0.37109 1.1133,-1.11328 2.4805,-1.71875 1.3672,-0.60547 2.9687,-0.60547 2.2071,0 3.6328,1.19141 1.3672,1.11328 1.9532,3.4375 0.4492,1.67969 0.5273,4.0625 0.078,2.38281 0.078,5.97656 l 0,2.20703 q 0,0.56641 0.039,1.11328 0,0.87891 -0.625,1.50391 -0.6055,0.625 -1.4648,0.625 -0.8789,0 -1.5039,-0.60547 -0.6055,-0.625 -0.6055,-1.52344 -0.039,-0.60547 -0.039,-1.1914 l 0,-2.07032 q 0,-2.92968 -0.059,-5.3125 -0.059,-2.38281 -0.3906,-3.76953 -0.2734,-1.03515 -0.6055,-1.25 -0.3125,-0.23437 -0.9375,-0.23437 -0.3906,0 -0.8789,0.0976 -0.4883,0.0977 -1.0351,0.48829 -0.5274,0.37109 -1.1524,1.09375 -0.625,0.72265 -1.2695,1.91406 -0.8008,1.52344 -1.2891,3.41797 -0.4687,1.875 -0.4687,3.63281 l -0.039,3.18359 q 0,0.87891 -0.625,1.50391 -0.6054,0.625 -1.4844,0.625 -0.8789,0 -1.4843,-0.60547 -0.6055,-0.625 -0.6055,-1.52344 z" />
    <path
       id="path3385"
       style="font-style:normal;font-variant:normal;font-weight:bold;font-stretch:normal;font-family:'Comic Neue';-inkscape-font-specification:'Comic Neue Bold';fill:#4d4d4d"
       d="m 1715.4805,403.36609 q -0.039,-0.50781 -0.039,-0.99609 0,-2.63672 1.0547,-4.92187 0.7227,-1.52344 1.875,-2.75391 1.2891,-1.28906 3.0469,-2.08984 1.7187,-0.80079 3.5156,-0.80079 0.8008,0 1.4844,0.15625 0.7031,0.15625 1.3476,0.3711 l 0.3321,0.0781 q 0.2734,-0.44922 0.7226,-0.72265 0.4688,-0.27344 1.0742,-0.27344 0.8789,0 1.4649,0.60547 0.6054,0.58594 0.6054,1.46484 l 0,0.76172 q -0.039,1.03516 -0.058,2.59766 -0.02,1.5625 -0.059,3.30078 -0.039,1.73828 -0.078,3.49609 -0.039,1.75781 -0.078,3.1836 -0.039,1.42578 -0.059,2.38281 -0.02,0.95703 -0.02,1.11328 -0.1172,1.60156 -0.625,2.96875 -0.5078,1.36719 -1.4258,2.40234 -0.918,1.03516 -2.1289,1.67969 -1.1914,0.64453 -2.6172,0.76172 -0.3906,0.0781 -0.7812,0.0781 -0.3907,0 -0.8204,0 -1.6406,0 -2.9687,-0.2539 l -0.6055,-0.0781 q -0.8789,-0.19531 -1.3867,-0.91797 -0.3516,-0.52734 -0.3516,-1.11328 0,-0.23437 0.059,-0.48828 0.1954,-0.83984 0.918,-1.32812 0.5274,-0.3711 1.0938,-0.3711 0.2343,0 0.4687,0.0586 l 0.3711,0.0391 q 0.5664,0.0781 1.1523,0.13672 0.6055,0.0781 1.25,0.0781 0.3125,0 0.586,0 0.293,0 0.6055,-0.0391 1.6015,-0.15625 2.3632,-1.60156 0.2344,-0.44922 0.3516,-0.91797 0.1367,-0.48828 0.2148,-0.83984 -0.1171,0.0781 -0.2343,0.11718 -0.098,0.0391 -0.2149,0.11719 -1.5625,0.87891 -3.3203,0.87891 l -0.1562,0 q -3.4766,0 -5.7618,-2.89063 -0.9179,-1.15234 -1.4648,-2.53906 -0.5273,-1.40625 -0.7031,-2.89063 z m 3.9453,-1.5625 q 0,0.3711 0,0.66407 0,0.37109 0.02,0.58593 0.078,0.80079 0.3906,1.6211 0.3321,0.82031 0.7813,1.44531 1.1133,1.44531 2.6758,1.44531 l 0.039,0 q 0.6055,0 1.3477,-0.23437 0.7617,-0.25391 1.4453,-0.9961 1.4844,-1.71875 1.4844,-5.21484 l 0,-4.47266 q -0.3516,-0.19531 -1.0156,-0.41015 -0.6641,-0.23438 -1.4649,-0.23438 -1.0351,0 -2.168,0.44922 -2.3632,1.07422 -3.1445,3.4375 -0.3516,1.03516 -0.3906,1.91406 z" />
  </g>
  <g
     id="flowRoot4242-6-5-4-9"
     style="font-style:normal;font-weight:normal;font-size:40px;line-height:125%;font-family:sans-serif;text-align:center;letter-spacing:0px;word-spacing:0px;text-anchor:middle;fill:#4d4d4d;fill-opacity:1;stroke:none;stroke-width:1px;stroke-linecap:butt;stroke-linejoin:miter;stroke-opacity:1"
     transform="translate(-663.39505,-207.77284)">
    <path
       id="path3388"
       style="font-style:normal;font-variant:normal;font-weight:bold;font-stretch:normal;line-height:100%;font-family:'Comic Neue';-inkscape-font-specification:'Comic Neue Bold';text-align:center;text-anchor:middle;fill:#4d4d4d"
       d="m 1586.0479,379.21163 q -0.098,-0.3125 -0.098,-0.625 0,-0.50782 0.2539,-0.9961 0.3906,-0.78125 1.2305,-1.03515 0.2734,-0.11719 0.6445,-0.11719 0.6836,0 1.2305,0.42969 0.5664,0.41015 0.7617,1.09375 l 4.9219,16.48437 5.2929,-16.52344 q 0.1953,-0.68359 0.7422,-1.07422 0.5664,-0.41015 1.25,-0.41015 l 0.039,0 q 0.6836,0.0391 1.2109,0.46875 0.5469,0.41015 0.7617,1.09375 l 4.5118,16.52344 5.9179,-16.67969 q 0.1953,-0.64453 0.7422,-1.01563 0.5469,-0.39062 1.211,-0.39062 0.3515,0 0.7226,0.11719 0.8399,0.3125 1.2109,1.13281 0.1758,0.41015 0.1758,0.89844 0,0.35156 -0.098,0.74218 l -8.1641,22.98828 q -0.2344,0.64454 -0.7812,1.03516 -0.5274,0.37109 -1.211,0.37109 l -0.078,0 q -0.6836,-0.0391 -1.2305,-0.44921 -0.5468,-0.42969 -0.7422,-1.11329 l -4.3554,-16.11328 -5.1563,16.19141 q -0.1953,0.68359 -0.7617,1.09375 -0.5664,0.39062 -1.25,0.39062 l -0.039,0 q -0.6836,0 -1.25,-0.41015 -0.5468,-0.42969 -0.7421,-1.11328 l -6.875,-22.98828 z" />
    <path
       id="path3390"
       style="font-style:normal;font-variant:normal;font-weight:bold;font-stretch:normal;line-height:100%;font-family:'Comic Neue';-inkscape-font-specification:'Comic Neue Bold';text-align:center;text-anchor:middle;fill:#4d4d4d"
       d="m 1621.79,401.51631 0,-23.28125 q 0,-0.91797 0.625,-1.52343 0.625,-0.625 1.5039,-0.625 0.879,0 1.4844,0.625 0.625,0.60546 0.625,1.52343 l 0,8.04688 q 0.2344,-0.27344 0.4688,-0.50781 0.2539,-0.25391 0.4883,-0.48829 2.4023,-2.32421 4.8828,-2.32421 0.4882,0 1.0547,0.11718 0.5859,0.11719 1.1914,0.46875 0.6054,0.33203 1.1523,0.9375 0.5664,0.60547 0.9961,1.5625 1.2891,2.63672 1.4062,7.71485 0.039,0.83984 0.039,2.16797 0,1.30859 0,2.55859 0,1.42578 -0.039,2.98828 0,0.87891 -0.6054,1.50391 -0.586,0.625 -1.4649,0.625 -0.8789,0 -1.4843,-0.625 -0.6055,-0.625 -0.6055,-1.50391 0.039,-1.44531 0.039,-2.79297 0,-1.15234 0,-2.48047 0,-1.32812 -0.039,-2.36328 -0.039,-1.79687 -0.2149,-3.02734 -0.1757,-1.25 -0.4296,-2.03125 -0.2344,-0.78125 -0.4883,-1.13281 -0.2539,-0.3711 -0.5078,-0.3711 -1.5235,0 -3.3203,2.12891 -0.8399,0.95703 -1.3868,1.875 -0.5273,0.91797 -0.6836,1.25 -0.4492,0.91797 -0.4492,2.7539 l 0,6.23047 q 0,0.91797 -0.625,1.54297 -0.6054,0.625 -1.4844,0.625 -0.8789,0 -1.5039,-0.60547 -0.625,-0.625 -0.625,-1.5625 z" />
    <path
       id="path3392"
       style="font-style:normal;font-variant:normal;font-weight:bold;font-stretch:normal;line-height:100%;font-family:'Comic Neue';-inkscape-font-specification:'Comic Neue Bold';text-align:center;text-anchor:middle;fill:#4d4d4d"
       d="m 1641.7314,393.72334 q 0,-1.95312 0.7032,-3.71093 0.7031,-1.77735 1.914,-3.10547 1.2305,-1.34766 2.8711,-2.16797 1.6407,-0.82031 3.5157,-0.9375 0.3515,-0.0391 0.7031,-0.0391 1.914,0 3.4961,0.91797 1.875,1.07421 3.0078,2.89062 0.1953,0.3125 0.332,0.64453 0.1367,0.3125 0.3125,0.58594 0.1953,0.37109 0.1953,0.82031 0,0.25391 -0.059,0.56641 -0.1757,0.82031 -1.0156,1.25 -0.7226,0.39062 -2.0312,1.13281 -1.2891,0.72266 -2.8125,1.5625 -1.5235,0.83984 -3.086,1.71875 -1.5625,0.87891 -2.7929,1.54297 0.6445,0.80078 1.4648,1.36719 1.2891,0.8789 2.9297,0.8789 2.2851,0 3.9648,-1.75781 l 0.8008,-0.83984 q 0.5664,-0.56641 1.3867,-0.56641 0.8399,0 1.4453,0.60547 0.6055,0.60547 0.6055,1.40625 0,0.72266 -0.4883,1.30859 l -0.8008,0.83985 q -1.3671,1.48437 -3.164,2.28515 -1.7578,0.76172 -3.75,0.76172 -1.9922,0 -3.7695,-0.78125 -1.7579,-0.78125 -3.0665,-2.10937 -1.289,-1.34766 -2.0507,-3.16407 -0.7618,-1.8164 -0.7618,-3.90625 z m 4.043,-0.27343 q 0.8399,-0.48828 1.9531,-1.09375 1.1329,-0.625 2.2461,-1.25 1.1328,-0.625 2.1485,-1.19141 1.0156,-0.58594 1.7383,-0.99609 -1.0352,-1.03516 -2.4024,-1.11328 -1.3672,0.0391 -2.3828,0.54687 -1.0156,0.48828 -1.7383,1.28906 -1.4453,1.64063 -1.5625,3.8086 z" />
    <path
       id="path3394"
       style="font-style:normal;font-variant:normal;font-weight:bold;font-stretch:normal;line-height:100%;font-family:'Comic Neue';-inkscape-font-specification:'Comic Neue Bold';text-align:center;text-anchor:middle;fill:#4d4d4d"
       d="m 1664.2119,401.61397 0,-16.13281 q 0,-0.91797 0.625,-1.50391 0.625,-0.60547 1.5039,-0.60547 0.918,0 1.5039,0.60547 0.6055,0.58594 0.6055,1.50391 l 0,0.33203 q 0.5664,-0.60547 1.2695,-1.09375 0.7032,-0.50781 1.5039,-0.76172 1.0743,-0.39063 2.1094,-0.39063 1.5625,0 2.6367,0.83985 1.4063,1.07422 1.4063,2.79297 l 0,1.17187 q 0,0.83985 -0.6055,1.46485 -0.6055,0.60546 -1.4844,0.60546 -0.8789,0 -1.4843,-0.60546 -0.586,-0.625 -0.586,-1.46485 l 0,-0.60547 -0.078,0 q -0.078,0 -0.2734,0.0195 -0.1758,0.0195 -0.4493,0.0977 -0.6836,0.19531 -1.4843,0.89844 -0.8008,0.70312 -1.4453,1.66015 -0.6446,0.95704 -0.8204,1.6211 -0.1757,0.66406 -0.2148,0.82031 l 0,8.73047 q 0,0.87891 -0.6055,1.50391 -0.5859,0.60546 -1.5039,0.60546 -0.8789,0 -1.5039,-0.60546 -0.625,-0.625 -0.625,-1.50391 z" />
    <path
       id="path3396"
       style="font-style:normal;font-variant:normal;font-weight:bold;font-stretch:normal;line-height:100%;font-family:'Comic Neue';-inkscape-font-specification:'Comic Neue Bold';text-align:center;text-anchor:middle;fill:#4d4d4d"
       d="m 1680.9502,393.72334 q 0,-1.95312 0.7031,-3.71093 0.7031,-1.77735 1.9141,-3.10547 1.2305,-1.34766 2.8711,-2.16797 1.6406,-0.82031 3.5156,-0.9375 0.3516,-0.0391 0.7031,-0.0391 1.9141,0 3.4961,0.91797 1.875,1.07421 3.0078,2.89062 0.1953,0.3125 0.3321,0.64453 0.1367,0.3125 0.3125,0.58594 0.1953,0.37109 0.1953,0.82031 0,0.25391 -0.059,0.56641 -0.1758,0.82031 -1.0156,1.25 -0.7227,0.39062 -2.0313,1.13281 -1.2891,0.72266 -2.8125,1.5625 -1.5234,0.83984 -3.0859,1.71875 -1.5625,0.87891 -2.793,1.54297 0.6445,0.80078 1.4648,1.36719 1.2891,0.8789 2.9297,0.8789 2.2852,0 3.9649,-1.75781 l 0.8008,-0.83984 q 0.5664,-0.56641 1.3867,-0.56641 0.8398,0 1.4453,0.60547 0.6055,0.60547 0.6055,1.40625 0,0.72266 -0.4883,1.30859 l -0.8008,0.83985 q -1.3672,1.48437 -3.1641,2.28515 -1.7578,0.76172 -3.75,0.76172 -1.9922,0 -3.7695,-0.78125 -1.7578,-0.78125 -3.0664,-2.10937 -1.2891,-1.34766 -2.0508,-3.16407 -0.7617,-1.8164 -0.7617,-3.90625 z m 4.043,-0.27343 q 0.8398,-0.48828 1.9531,-1.09375 1.1328,-0.625 2.2461,-1.25 1.1328,-0.625 2.1484,-1.19141 1.0156,-0.58594 1.7383,-0.99609 -1.0352,-1.03516 -2.4023,-1.11328 -1.3672,0.0391 -2.3829,0.54687 -1.0156,0.48828 -1.7382,1.28906 -1.4453,1.64063 -1.5625,3.8086 z" />
    <path
       id="path3398"
       style="font-style:normal;font-variant:normal;font-weight:bold;font-stretch:normal;line-height:100%;font-family:'Comic Neue';-inkscape-font-specification:'Comic Neue Bold';text-align:center;text-anchor:middle;fill:#4d4d4d"
       d="m 1714.5244,386.20381 q -0.059,-0.2539 -0.059,-0.48828 0,-0.60547 0.3516,-1.09375 0.5078,-0.70312 1.3476,-0.89844 0.2539,-0.0586 0.4883,-0.0586 0.586,0.0195 1.0938,0.37109 0.7031,0.50782 0.8984,1.32813 l 1.875,9.47266 3.125,-9.35547 q 0.1953,-0.76172 0.7813,-1.25 0.6054,-0.50782 1.4062,-0.50782 0.8399,0 1.4844,0.56641 0.6445,0.54688 0.7617,1.34766 l 2.1094,9.27734 2.8906,-9.70703 q 0.2344,-0.82031 0.9961,-1.25 0.4883,-0.27344 1.0156,-0.27344 0.293,0 0.586,0.0781 0.8203,0.23437 1.25,0.99609 0.2734,0.48828 0.2734,1.01563 0,0.29296 -0.078,0.58593 l -4.961,15.76172 q -0.3125,0.89844 -1.2109,1.32813 -0.5078,0.23437 -1.0156,0.2539 -0.3907,0 -0.7813,-0.13672 -1.289,-0.52734 -1.4844,-1.79687 l -2.1484,-9.00391 -3.3203,9.39453 q -0.3125,0.9375 -1.2109,1.32813 -0.5079,0.23437 -0.9961,0.21484 -0.3907,0 -0.8008,-0.13672 -1.3281,-0.52734 -1.5235,-1.875 l -3.1445,-15.48828 z" />
    <path
       id="path3400"
       style="font-style:normal;font-variant:normal;font-weight:bold;font-stretch:normal;line-height:100%;font-family:'Comic Neue';-inkscape-font-specification:'Comic Neue Bold';text-align:center;text-anchor:middle;fill:#4d4d4d"
       d="m 1739.6221,393.72334 q 0,-1.95312 0.7031,-3.71093 0.7031,-1.77735 1.9141,-3.10547 1.2304,-1.34766 2.8711,-2.16797 1.6406,-0.82031 3.5156,-0.9375 0.3515,-0.0391 0.7031,-0.0391 1.9141,0 3.4961,0.91797 1.875,1.07421 3.0078,2.89062 0.1953,0.3125 0.332,0.64453 0.1368,0.3125 0.3125,0.58594 0.1954,0.37109 0.1954,0.82031 0,0.25391 -0.059,0.56641 -0.1758,0.82031 -1.0157,1.25 -0.7226,0.39062 -2.0312,1.13281 -1.2891,0.72266 -2.8125,1.5625 -1.5235,0.83984 -3.086,1.71875 -1.5625,0.87891 -2.7929,1.54297 0.6445,0.80078 1.4648,1.36719 1.2891,0.8789 2.9297,0.8789 2.2852,0 3.9649,-1.75781 l 0.8007,-0.83984 q 0.5664,-0.56641 1.3868,-0.56641 0.8398,0 1.4453,0.60547 0.6054,0.60547 0.6054,1.40625 0,0.72266 -0.4882,1.30859 l -0.8008,0.83985 q -1.3672,1.48437 -3.1641,2.28515 -1.7578,0.76172 -3.75,0.76172 -1.9922,0 -3.7695,-0.78125 -1.7578,-0.78125 -3.0664,-2.10937 -1.2891,-1.34766 -2.0508,-3.16407 -0.7617,-1.8164 -0.7617,-3.90625 z m 4.0429,-0.27343 q 0.8399,-0.48828 1.9532,-1.09375 1.1328,-0.625 2.2461,-1.25 1.1328,-0.625 2.1484,-1.19141 1.0156,-0.58594 1.7383,-0.99609 -1.0352,-1.03516 -2.4024,-1.11328 -1.3672,0.0391 -2.3828,0.54687 -1.0156,0.48828 -1.7383,1.28906 -1.4453,1.64063 -1.5625,3.8086 z" />
    <path
       id="path3402"
       style="font-style:normal;font-variant:normal;font-weight:bold;font-stretch:normal;line-height:100%;font-family:'Comic Neue';-inkscape-font-specification:'Comic Neue Bold';text-align:center;text-anchor:middle;fill:#4d4d4d"
       d="m 1604.6221,436.16475 q -0.078,-0.58594 -0.078,-1.21094 0,-0.72265 0.1172,-1.5039 0.1953,-1.44532 0.6055,-2.8125 0.5664,-1.71875 1.5625,-3.08594 0.9961,-1.38672 2.2852,-2.34375 2.0703,-1.60156 4.9609,-1.60156 1.0742,0 2.0117,0.19531 0.9375,0.19531 1.6602,0.44922 0.7226,0.23437 1.1914,0.48828 0.4883,0.23437 0.6054,0.27344 0.2344,0.15625 0.586,0.52734 0.3515,0.35156 0.3515,1.07422 l 0,7.91016 q 0,3.20312 0.039,7.1289 l 0,0.42969 q 0,0.87891 -0.625,1.50391 -0.625,0.625 -1.5039,0.625 -0.7227,0 -1.2695,-0.42969 -0.5274,-0.41016 -0.7227,-1.09375 l -0.078,0.0391 q -0.8399,0.35156 -1.9141,0.64453 -1.0547,0.27344 -2.0898,0.27344 l -0.1563,0 q -3.0859,-0.0781 -5.1367,-2.12891 -2.0312,-2.07031 -2.4023,-5.35156 z m 4.2578,-0.48828 q 0.039,0.3125 0.1758,0.9375 0.1367,0.625 0.4882,1.26953 0.3711,0.64453 0.9961,1.11328 0.6446,0.44922 1.6993,0.48828 l 0.078,0 q 1.1133,0 2.5195,-0.72265 0.4492,-0.19532 0.7813,-0.39063 0.332,-0.21484 0.6054,-0.41015 0,-0.48829 0,-1.34766 0,-0.85938 0.02,-1.93359 0.02,-1.07422 0.039,-2.32422 0.039,-1.26953 0.078,-2.5586 l 0,-1.60156 q -0.2344,-0.0781 -0.5079,-0.13672 -0.2539,-0.0586 -0.5468,-0.13672 -0.6055,-0.11718 -1.1524,-0.11718 l -0.078,0 q -1.4063,0 -2.4023,0.72265 -0.9961,0.76172 -1.5625,1.71875 -0.5665,0.95703 -0.8008,1.75781 -0.3125,0.91797 -0.4297,1.89454 -0.059,0.50781 -0.059,0.97656 0.019,0.41015 0.059,0.80078 z" />
    <path
       id="path3404"
       style="font-style:normal;font-variant:normal;font-weight:bold;font-stretch:normal;line-height:100%;font-family:'Comic Neue';-inkscape-font-specification:'Comic Neue Bold';text-align:center;text-anchor:middle;fill:#4d4d4d"
       d="m 1625.6963,441.61397 0,-16.13281 q 0,-0.91797 0.625,-1.50391 0.625,-0.60547 1.5039,-0.60547 0.918,0 1.5039,0.60547 0.6055,0.58594 0.6055,1.50391 l 0,0.33203 q 0.5664,-0.60547 1.2695,-1.09375 0.7031,-0.50781 1.5039,-0.76172 1.0742,-0.39063 2.1094,-0.39063 1.5625,0 2.6367,0.83985 1.4063,1.07422 1.4063,2.79297 l 0,1.17187 q 0,0.83985 -0.6055,1.46485 -0.6055,0.60546 -1.4844,0.60546 -0.8789,0 -1.4844,-0.60546 -0.5859,-0.625 -0.5859,-1.46485 l 0,-0.60547 -0.078,0 q -0.078,0 -0.2735,0.0195 -0.1757,0.0195 -0.4492,0.0977 -0.6836,0.19531 -1.4844,0.89844 -0.8007,0.70312 -1.4453,1.66015 -0.6445,0.95704 -0.8203,1.6211 -0.1758,0.66406 -0.2148,0.82031 l 0,8.73047 q 0,0.87891 -0.6055,1.50391 -0.5859,0.60546 -1.5039,0.60546 -0.8789,0 -1.5039,-0.60546 -0.625,-0.625 -0.625,-1.50391 z" />
    <path
       id="path3406"
       style="font-style:normal;font-variant:normal;font-weight:bold;font-stretch:normal;line-height:100%;font-family:'Comic Neue';-inkscape-font-specification:'Comic Neue Bold';text-align:center;text-anchor:middle;fill:#4d4d4d"
       d="m 1642.4346,433.72334 q 0,-1.95312 0.7031,-3.71093 0.7031,-1.77735 1.9141,-3.10547 1.2304,-1.34766 2.8711,-2.16797 1.6406,-0.82031 3.5156,-0.9375 0.3515,-0.0391 0.7031,-0.0391 1.9141,0 3.4961,0.91797 1.875,1.07421 3.0078,2.89062 0.1953,0.3125 0.332,0.64453 0.1368,0.3125 0.3125,0.58594 0.1954,0.37109 0.1954,0.82031 0,0.25391 -0.059,0.56641 -0.1758,0.82031 -1.0157,1.25 -0.7226,0.39062 -2.0312,1.13281 -1.2891,0.72266 -2.8125,1.5625 -1.5235,0.83984 -3.086,1.71875 -1.5625,0.87891 -2.7929,1.54297 0.6445,0.80078 1.4648,1.36719 1.2891,0.8789 2.9297,0.8789 2.2852,0 3.9649,-1.75781 l 0.8007,-0.83984 q 0.5664,-0.56641 1.3868,-0.56641 0.8398,0 1.4453,0.60547 0.6054,0.60547 0.6054,1.40625 0,0.72266 -0.4882,1.30859 l -0.8008,0.83985 q -1.3672,1.48437 -3.1641,2.28515 -1.7578,0.76172 -3.75,0.76172 -1.9922,0 -3.7695,-0.78125 -1.7578,-0.78125 -3.0664,-2.10937 -1.2891,-1.34766 -2.0508,-3.16407 -0.7617,-1.8164 -0.7617,-3.90625 z m 4.0429,-0.27343 q 0.8399,-0.48828 1.9532,-1.09375 1.1328,-0.625 2.2461,-1.25 1.1328,-0.625 2.1484,-1.19141 1.0156,-0.58594 1.7383,-0.99609 -1.0352,-1.03516 -2.4024,-1.11328 -1.3672,0.0391 -2.3828,0.54687 -1.0156,0.48828 -1.7383,1.28906 -1.4453,1.64063 -1.5625,3.8086 z" />
    <path
       id="path3408"
       style="font-style:normal;font-variant:normal;font-weight:bold;font-stretch:normal;line-height:100%;font-family:'Comic Neue';-inkscape-font-specification:'Comic Neue Bold';text-align:center;text-anchor:middle;fill:#4d4d4d"
       d="m 1678.1182,441.55538 0,-15 0,-1.19141 q 0,-0.87891 0.625,-1.50391 0.625,-0.625 1.5039,-0.625 0.8789,0 1.4843,0.625 0.625,0.625 0.625,1.50391 l 0,1.25 q 0.1563,-0.19531 0.293,-0.35156 0.1563,-0.17578 0.3516,-0.3711 1.1133,-1.11328 2.4804,-1.71875 1.3672,-0.60547 2.9688,-0.60547 2.207,0 3.6328,1.19141 1.3672,1.11328 1.9531,3.4375 0.4493,1.67969 0.5274,4.0625 0.078,2.38281 0.078,5.97656 l 0,2.20703 q 0,0.56641 0.039,1.11329 0,0.8789 -0.625,1.5039 -0.6055,0.625 -1.4649,0.625 -0.8789,0 -1.5039,-0.60547 -0.6055,-0.625 -0.6055,-1.52343 -0.039,-0.60547 -0.039,-1.19141 l 0,-2.07031 q 0,-2.92969 -0.059,-5.3125 -0.059,-2.38282 -0.3906,-3.76953 -0.2735,-1.03516 -0.6055,-1.25 -0.3125,-0.23438 -0.9375,-0.23438 -0.3906,0 -0.8789,0.0977 -0.4883,0.0976 -1.0352,0.48828 -0.5273,0.37109 -1.1523,1.09375 -0.625,0.72265 -1.2695,1.91406 -0.8008,1.52344 -1.2891,3.41797 -0.4688,1.875 -0.4688,3.63281 l -0.039,3.1836 q 0,0.8789 -0.625,1.5039 -0.6055,0.625 -1.4844,0.625 -0.8789,0 -1.4844,-0.60547 -0.6054,-0.625 -0.6054,-1.52343 z" />
    <path
       id="path3410"
       style="font-style:normal;font-variant:normal;font-weight:bold;font-stretch:normal;line-height:100%;font-family:'Comic Neue';-inkscape-font-specification:'Comic Neue Bold';text-align:center;text-anchor:middle;fill:#4d4d4d"
       d="m 1699.3486,433.52803 q 0.1172,-1.95312 0.8789,-3.73047 0.7618,-1.79687 2.0899,-3.18359 1.3281,-1.44531 2.9297,-2.20703 1.6211,-0.76172 3.3593,-0.76172 1.5235,0 2.9102,0.56641 1.4063,0.54687 2.5195,1.67968 1.5235,1.48438 2.2461,3.53516 0.586,1.64062 0.586,3.47656 0,0.44922 -0.039,0.89844 -0.1562,1.99219 -0.918,3.78906 -0.7617,1.77735 -2.0312,3.16406 -1.3281,1.44532 -2.9492,2.20704 -1.6211,0.76171 -3.3789,0.76171 -1.5235,0 -2.9297,-0.5664 -1.3867,-0.58594 -2.5,-1.71875 -1.4844,-1.44531 -2.2071,-3.4961 -0.5859,-1.67968 -0.5859,-3.57421 0,-0.41016 0.02,-0.83985 z m 4.2578,0.27344 q -0.019,0.23437 0,0.46875 0,1.21094 0.3321,2.30469 0.4101,1.28906 1.2109,2.10937 0.9961,1.03516 2.4024,1.03516 0.8398,0 1.6992,-0.42969 0.8594,-0.44922 1.582,-1.32812 0.7617,-0.87891 1.1914,-2.03125 0.4492,-1.17188 0.5274,-2.40235 0.02,-0.19531 0.02,-0.39062 -0.02,-1.17188 -0.4102,-2.30469 -0.4687,-1.32813 -1.3281,-2.22656 -1.0742,-0.9961 -2.4023,-0.9961 -1.7578,0 -3.1446,1.75782 -0.7226,0.8789 -1.1718,2.05078 -0.4297,1.15234 -0.5079,2.38281 z" />
    <path
       id="path3412"
       style="font-style:normal;font-variant:normal;font-weight:bold;font-stretch:normal;line-height:100%;font-family:'Comic Neue';-inkscape-font-specification:'Comic Neue Bold';text-align:center;text-anchor:middle;fill:#4d4d4d"
       d="m 1719.3682,426.20381 q -0.059,-0.2539 -0.059,-0.48828 0,-0.60547 0.3515,-1.09375 0.5078,-0.70312 1.3477,-0.89844 0.2539,-0.0586 0.4883,-0.0586 0.5859,0.0195 1.0937,0.37109 0.7031,0.50782 0.8985,1.32813 l 1.875,9.47266 3.125,-9.35547 q 0.1953,-0.76172 0.7812,-1.25 0.6055,-0.50782 1.4063,-0.50782 0.8398,0 1.4843,0.56641 0.6446,0.54688 0.7618,1.34766 l 2.1093,9.27734 2.8907,-9.70703 q 0.2343,-0.82031 0.996,-1.25 0.4883,-0.27344 1.0157,-0.27344 0.2929,0 0.5859,0.0781 0.8203,0.23437 1.25,0.99609 0.2734,0.48828 0.2734,1.01563 0,0.29296 -0.078,0.58593 l -4.9609,15.76172 q -0.3125,0.89844 -1.211,1.32813 -0.5078,0.23437 -1.0156,0.2539 -0.3906,0 -0.7812,-0.13672 -1.2891,-0.52734 -1.4844,-1.79687 l -2.1484,-9.00391 -3.3204,9.39453 q -0.3125,0.9375 -1.2109,1.32813 -0.5078,0.23437 -0.9961,0.21484 -0.3906,0 -0.8008,-0.13672 -1.3281,-0.52734 -1.5234,-1.875 l -3.1445,-15.48828 z" />
  </g>
  <path
     style="color:#000000;clip-rule:nonzero;display:inline;overflow:visible;visibility:visible;opacity:0.77999998;isolation:auto;mix-blend-mode:normal;color-interpolation:sRGB;color-interpolation-filters:linearRGB;solid-color:#000000;solid-opacity:1;fill:#000000;fill-opacity:1;fill-rule:nonzero;stroke:#000000;stroke-width:1;stroke-linecap:butt;stroke-linejoin:miter;stroke-miterlimit:4;stroke-dasharray:none;stroke-dashoffset:0;stroke-opacity:1;color-rendering:auto;image-rendering:auto;shape-rendering:auto;text-rendering:auto;enable-background:accumulate"
     id="path5632"
     d="m 756.51787,338.70646 c -2.0635,0.1764 -4.1271,0.3391 -6.1976,0.4035 -3.0016,0.1791 -6.0075,0.06 -9.0114,0.036 -4.2174,0.01 -8.4347,-0.06 -12.6509,-0.154 -4.9419,-0.055 -9.8808,-0.2987 -14.8098,-0.6514 -5.5622,-0.4172 -11.1037,-1.0274 -16.6319,-1.7628 -5.6126,-0.6428 -11.1723,-1.6615 -16.7179,-2.7224 -5.4163,-1.0476 -10.8036,-2.236 -16.1853,-3.4467 -4.7556,-1.0752 -9.5005,-2.1969 -14.241,-3.3366 -3.9256,-0.9143 -7.781,-2.101 -11.6417,-3.2527 -2.904,-0.7874 -5.7252,-1.8275 -8.5512,-2.8514 -2.3034,-0.9675 -4.6256,-1.8993 -6.8914,-2.9529 -1.876,-0.8656 -3.6834,-1.8706 -5.4032,-3.0146 -1.3857,-0.8614 -2.6469,-1.8779 -3.8948,-2.9219 -1.0671,-0.9876 -2.0938,-2.0245 -3.0368,-3.1318 -0.7992,-0.9724 -1.6634,-1.8809 -2.5709,-2.7515 -0.6156,-0.5841 -1.2386,-1.1599 -1.8617,-1.7361 -0.3554,-0.3286 -0.7111,-0.6569 -1.0668,-0.9854 -0.1999,-0.1845 -0.3998,-0.3691 -0.5997,-0.5537 0.3165,0.076 0.6806,0.043 0.9496,0.2267 0.1258,0.086 0.026,0.3039 0.05,0.4542 0.1778,1.0914 0.5638,2.1585 0.8716,3.2171 0.8176,2.468 1.408,4.9992 2.0301,7.521 0.4792,2.2898 1.1071,4.5431 1.5325,6.844 0.3286,1.8456 0.5053,3.7139 0.6919,5.578 0.064,0.8795 0.032,1.761 0.064,2.6416 -0.019,0.3914 0.1974,0.2645 0.6141,0.2712 1.3084,-0.1122 2.5663,-0.4843 3.7703,-0.9938 2.2574,-1.1242 4.4571,-2.3684 6.6684,-3.5821 3.2713,-1.8506 6.5818,-3.6261 9.9176,-5.357 2.4997,-1.2918 5.0043,-2.5741 7.5088,-3.8566 1.3303,-0.7145 2.7468,-1.2935 3.9555,-2.2118 0.3512,-0.2499 0.4061,-0.4327 0.3608,-0.5701 -0.3514,-0.096 -0.7496,-0.2274 -1.1162,-0.3331 -1.0433,-0.2936 -2.092,-0.5679 -3.1379,-0.8519 -2.0222,-0.5645 -4.1167,-0.8201 -6.2009,-1.0294 -2.6584,-0.219 -5.3108,-0.4994 -7.9583,-0.8234 -2.4644,-0.3056 -4.9126,-0.7226 -7.3546,-1.1703 -2.1551,-0.4375 -4.333,-0.7816 -6.4609,-1.3413 -1.3612,-0.3923 -2.699,-0.8596 -4.0361,-1.3256 -0.4159,-0.1502 -0.8355,-0.2911 -1.2383,-0.4744 0,0 0.5226,-1.13 0.5226,-1.13 l 0,0 c 0.3631,0.1722 0.7506,0.2857 1.1254,0.4287 1.307,0.4554 2.6143,0.913 3.9442,1.2976 2.0959,0.5556 4.2451,0.8846 6.3677,1.3205 2.4176,0.4433 4.8414,0.8564 7.2814,1.159 2.6386,0.3231 5.2821,0.6022 7.9317,0.8205 2.1518,0.2175 4.3134,0.483 6.4013,1.0664 1.0527,0.2849 2.105,0.5715 3.1575,0.8572 0.7481,0.2155 1.5722,0.3709 1.9511,1.1313 0.2473,0.8462 -0.1303,1.4411 -0.7929,1.9636 -1.275,0.949 -2.7312,1.5933 -4.1356,2.3245 -2.5025,1.2815 -5.0051,2.5627 -7.5028,3.8535 -3.3273,1.7264 -6.6292,3.4973 -9.892,5.3431 -2.2493,1.2347 -4.4859,2.5024 -6.7857,3.6388 -1.3812,0.5755 -2.8277,1.0092 -4.3313,1.0884 -0.9024,-0.08 -1.7975,-0.3989 -1.779,-1.4674 -0.032,-0.8547 0,-1.71 -0.059,-2.5639 -0.1833,-1.8299 -0.3559,-3.6641 -0.6775,-5.4761 -0.4193,-2.277 -1.0452,-4.5055 -1.517,-6.7717 -0.618,-2.5053 -1.2039,-5.0199 -2.0169,-7.4717 -0.1576,-0.5424 -1.2372,-3.767 -0.9577,-4.2022 0.2664,-0.4146 0.7507,-0.6385 1.1261,-0.9577 0.1999,0.1845 0.3998,0.3692 0.5998,0.5537 0.356,0.3286 0.7119,0.6573 1.0676,0.9861 0.6286,0.5813 1.2573,1.1624 1.8783,1.7517 0.9379,0.9001 1.8314,1.8397 2.6581,2.8443 0.8936,1.0566 1.8769,2.0376 2.8865,2.9826 1.2132,1.0153 2.4377,2.005 3.7865,2.8408 1.6649,1.1124 3.4208,2.0806 5.238,2.9218 2.2319,1.0398 4.522,1.9542 6.7902,2.9111 2.8035,1.0158 5.6018,2.0485 8.4828,2.8289 3.8395,1.1449 7.6732,2.3258 11.5771,3.2351 4.7345,1.1382 9.4736,2.2585 14.2232,3.3324 5.3686,1.2078 10.7428,2.3934 16.1459,3.4386 5.5225,1.0565 11.059,2.0714 16.6482,2.711 5.5032,0.7322 11.0196,1.3397 16.5567,1.7552 4.9085,0.3515 9.827,0.5935 14.7485,0.6485 4.2102,0.094 8.4215,0.163 12.6328,0.1537 2.9878,0.023 5.9778,0.1425 8.9634,-0.036 2.0445,-0.063 4.0821,-0.2249 6.1195,-0.3986 0,0 0.1166,1.2395 0.1166,1.2395 z" />
  <path
     style="color:#000000;clip-rule:nonzero;display:inline;overflow:visible;visibility:visible;opacity:0.77999998;isolation:auto;mix-blend-mode:normal;color-interpolation:sRGB;color-interpolation-filters:linearRGB;solid-color:#000000;solid-opacity:1;fill:#000000;fill-opacity:1;fill-rule:nonzero;stroke:#000000;stroke-width:1;stroke-linecap:butt;stroke-linejoin:miter;stroke-miterlimit:4;stroke-dasharray:none;stroke-dashoffset:0;stroke-opacity:1;color-rendering:auto;image-rendering:auto;shape-rendering:auto;text-rendering:auto;enable-background:accumulate"
     id="path5652"
     d="m 992.33477,147.86336 c 0.048,-2.0391 -0.3196,-4.0457 -0.7004,-6.0389 -0.5872,-2.7806 -1.2911,-5.5335 -1.9336,-8.3013 -0.7117,-2.9494 -1.4846,-5.8781 -2.3273,-8.7924 -1.0216,-3.317 -2.2422,-6.5681 -3.3722,-9.8489 -1.167,-3.4374 -2.2468,-6.9025 -3.3425,-10.3629 -1.1243,-3.5042 -2.2854,-6.9962 -3.4781,-10.4775 -1.2344,-3.6742 -2.6728,-7.2692 -4.1553,-10.8484 -1.338,-3.1418 -2.8293,-6.211 -4.4448,-9.2185 -1.6036,-2.8865 -3.3859,-5.6664 -5.2633,-8.3809 -2.068,-2.8616 -4.1442,-5.7175 -6.2508,-8.5509 -1.8301,-2.3963 -3.6338,-4.8134 -5.5317,-7.1567 -1.8484,-2.1245 -3.7877,-4.172 -5.7986,-6.1432 -2.1897,-2.1284 -4.6363,-3.943 -7.1224,-5.7028 -2.4378,-1.6845 -4.9989,-3.1746 -7.6108,-4.5693 -2.3869,-1.1226 -4.7925,-2.2123 -7.2515,-3.1692 -1.9482,-0.7619 -3.9389,-1.4037 -5.9313,-2.0375 -1.231,-0.3895 -2.4635,-0.7743 -3.6959,-1.1592 -0.913,-0.2064 -1.7838,-0.4884 -2.6262,-0.8953 -0.5209,-0.2608 -1.0325,-0.5394 -1.5442,-0.8177 -0.2856,-0.1555 -0.5709,-0.3115 -0.8562,-0.4674 -0.1601,-0.088 -0.3202,-0.1751 -0.4803,-0.2626 -0.09,-0.049 -0.1798,-0.098 -0.2696,-0.1475 -0.05,-0.028 -0.101,-0.055 -0.1515,-0.083 1.317,-1.2942 1.5041,-0.8326 2.8226,0.1403 0.88,0.6933 1.6284,1.526 2.4032,2.3289 1.2206,1.1823 2.355,2.4493 3.4402,3.756 1.29,1.5445 2.4627,3.1777 3.5775,4.8515 0.8741,1.481 1.7454,2.9546 2.7277,4.3669 0.8254,1.155 1.434,2.4276 1.9466,3.7456 0.4535,1.0457 0.9769,2.0592 1.496,3.0735 0.3138,0.6115 0.6295,1.2222 0.9451,1.8328 0.059,0.1275 0.14,0.2469 0.2352,0.3505 0.6615,-0.2411 1.2384,-0.6503 1.8097,-1.0572 1.2065,-0.9374 2.3499,-1.9521 3.5284,-2.9246 1.677,-1.4801 3.4864,-2.798 5.203,-4.2291 1.3486,-1.1345 2.7127,-2.2425 3.8619,-3.5844 0.9033,-1.1417 1.7805,-2.3039 2.6673,-3.4585 0.5859,-0.7629 1.1721,-1.5256 1.7583,-2.2882 0.3319,-0.4319 0.6638,-0.8638 0.9958,-1.2957 0.1865,-0.2426 0.3729,-0.4852 0.5594,-0.7278 -0.078,0.173 -0.086,0.4002 -0.2342,0.5192 -0.042,0.034 -1.3904,-0.8209 -1.5179,-0.8857 -1.006,-0.4187 -2.0706,-0.6663 -3.1041,-1.0079 -1.3053,-0.449 -2.6643,-0.6966 -4.0006,-1.0277 -1.5502,-0.3726 -3.0747,-0.8284 -4.6055,-1.2713 -1.6619,-0.4633 -3.3559,-0.7924 -5.0581,-1.0651 -1.9383,-0.2954 -3.8921,-0.4664 -5.8459,-0.6181 -2.0554,-0.1505 -4.1142,-0.2483 -6.1724,-0.3498 -1.608,-0.078 -3.2168,-0.1376 -4.8256,-0.1968 -1.0221,-0.037 -2.0442,-0.074 -3.0664,-0.1106 -0.5778,-0.021 -1.1557,-0.042 -1.7336,-0.062 -0.5219,0.012 -0.9293,-0.025 -1.3538,-0.3568 0,0 0.9072,-0.8526 0.9072,-0.8526 l 0,0 c -0.4693,-0.2303 0.276,0.049 0.4912,-0.035 0.5779,0.021 1.1558,0.041 1.7337,0.062 1.0225,0.037 2.045,0.073 3.0675,0.1107 1.6139,0.059 3.2279,0.119 4.8411,0.1974 2.07,0.1021 4.1405,0.2005 6.2076,0.3521 1.9874,0.1544 3.9749,0.3289 5.9465,0.6301 1.7524,0.2812 3.4964,0.6205 5.2071,1.0985 1.5155,0.4387 3.0245,0.8906 4.5595,1.2589 1.3663,0.3403 2.757,0.5918 4.0913,1.0539 1.0937,0.3619 2.224,0.6168 3.2808,1.0818 1.0764,0.5546 1.9796,0.8957 2.1717,2.2332 -0.1865,0.2426 -0.373,0.4853 -0.5594,0.7279 -0.332,0.4319 -0.6639,0.8637 -0.9958,1.2956 -0.5861,0.7626 -1.1722,1.5251 -1.7581,2.2878 -0.9007,1.1729 -1.791,2.354 -2.7106,3.512 -1.1994,1.3897 -2.602,2.5559 -4.009,3.7292 -1.7192,1.4311 -3.5281,2.7525 -5.2076,4.2329 -1.2012,0.9912 -2.3655,2.0273 -3.5988,2.9785 -0.7745,0.5507 -1.5638,1.1103 -2.518,1.2879 -0.6966,-0.072 -1.0909,-0.3708 -1.3547,-1.0237 -0.3165,-0.6122 -0.6329,-1.2243 -0.9475,-1.8374 -0.5385,-1.0523 -1.0816,-2.1038 -1.5484,-3.1904 -0.4745,-1.2271 -1.0396,-2.4107 -1.8081,-3.4851 -0.9866,-1.4193 -1.867,-2.8973 -2.7417,-4.3876 -1.0903,-1.6376 -2.2372,-3.2355 -3.4993,-4.7465 -1.0645,-1.2839 -2.1802,-2.526 -3.3785,-3.6869 -0.7278,-0.7557 -1.4303,-1.5391 -2.253,-2.1964 -1.1815,-0.9018 -1.7283,-0.3579 -1.4792,-2.2292 0.051,0.028 0.101,0.055 0.1515,0.083 0.09,0.049 0.1797,0.098 0.2696,0.1475 0.16,0.088 0.3201,0.175 0.4801,0.2625 0.2845,0.1555 0.569,0.3111 0.8538,0.4661 0.4945,0.2689 0.9889,0.5382 1.4919,0.7909 0.7872,0.382 1.6015,0.6315 2.4549,0.8275 1.2345,0.3855 2.4691,0.7709 3.7022,1.1611 2.0174,0.6418 4.033,1.2923 6.0056,2.0637 2.5047,0.9757 4.9563,2.084 7.3863,3.2313 2.6576,1.4195 5.2635,2.9365 7.7436,4.6513 2.5401,1.7981 5.038,3.655 7.2748,5.83 2.0441,2.0051 4.0172,4.086 5.8944,6.2486 1.9084,2.3568 3.7231,4.7871 5.5633,7.1974 2.115,2.8448 4.1997,5.7122 6.2756,8.5856 1.9036,2.7531 3.7109,5.5722 5.3362,8.5 1.6346,3.0444 3.1445,6.1508 4.4982,9.3311 1.4924,3.6032 2.9399,7.2226 4.1828,10.9213 1.1957,3.4906 2.3602,6.9918 3.4873,10.5052 1.0925,3.4505 2.169,6.9058 3.3327,10.3333 1.1366,3.3005 2.3651,6.5709 3.391,9.9085 0.8489,2.9356 1.6272,5.8858 2.3441,8.8567 0.6461,2.7837 1.3544,5.5524 1.9437,8.3493 0.3953,2.0701 0.7702,4.1548 0.7226,6.2724 0,0 -1.245,0 -1.245,0 z" />
  <rect
     style="color:#000000;clip-rule:nonzero;display:inline;overflow:visible;visibility:visible;opacity:0.77999998;isolation:auto;mix-blend-mode:normal;color-interpolation:sRGB;color-interpolation-filters:linearRGB;solid-color:#000000;solid-opacity:1;fill:none;fill-opacity:1;fill-rule:nonzero;stroke:none;stroke-width:2;stroke-linecap:round;stroke-linejoin:miter;stroke-miterlimit:4;stroke-dasharray:none;stroke-dashoffset:0;stroke-opacity:1;color-rendering:auto;image-rendering:auto;shape-rendering:auto;text-rendering:auto;enable-background:accumulate"
     id="rect3369"
     width="1317.37"
     height="363.02524"
     x="0"
     y="0"
     rx="35.072105"
     ry="2.8317683" />
</svg>
