<?xml version="1.0" encoding="UTF-8" standalone="no"?>
<svg
   xmlns:dc="http://purl.org/dc/elements/1.1/"
   xmlns:cc="http://creativecommons.org/ns#"
   xmlns:rdf="http://www.w3.org/1999/02/22-rdf-syntax-ns#"
   xmlns:svg="http://www.w3.org/2000/svg"
   xmlns="http://www.w3.org/2000/svg"
   version="1.1"
   id="svg2"
   viewBox="0 0 1317.37 363.02523"
   height="102.45379mm"
   width="371.79108mm">
  <defs
     id="defs4">
    <marker
       style="overflow:visible"
       id="Arrow1Lend"
       refX="0"
       refY="0"
       orient="auto">
      <path
         transform="matrix(-0.8,0,0,-0.8,-10,0)"
         style="fill:#000000;fill-opacity:1;fill-rule:evenodd;stroke:#000000;stroke-width:1pt;stroke-opacity:1"
         d="M 0,0 5,-5 -12.5,0 5,5 0,0 Z"
         id="path5845" />
    </marker>
    <marker
       style="overflow:visible"
       id="TriangleOutM"
       refX="0"
       refY="0"
       orient="auto">
      <path
         transform="scale(0.4,0.4)"
         style="fill:#000000;fill-opacity:1;fill-rule:evenodd;stroke:#000000;stroke-width:1pt;stroke-opacity:1"
         d="m 5.77,0 -8.65,5 0,-10 8.65,5 z"
         id="path5987" />
    </marker>
    <marker
       style="overflow:visible"
       id="TriangleInM"
       refX="0"
       refY="0"
       orient="auto">
      <path
         transform="scale(-0.4,-0.4)"
         style="fill:#000000;fill-opacity:1;fill-rule:evenodd;stroke:#000000;stroke-width:1pt;stroke-opacity:1"
         d="m 5.77,0 -8.65,5 0,-10 8.65,5 z"
         id="path5978" />
    </marker>
    <marker
       style="overflow:visible"
       id="Arrow2Mstart"
       refX="0"
       refY="0"
       orient="auto">
      <path
         transform="scale(0.6,0.6)"
         d="M 8.7185878,4.0337352 -2.2072895,0.01601326 8.7185884,-4.0017078 c -1.7454984,2.3720609 -1.7354408,5.6174519 -6e-7,8.035443 z"
         style="fill:#000000;fill-opacity:1;fill-rule:evenodd;stroke:#000000;stroke-width:0.625;stroke-linejoin:round;stroke-opacity:1"
         id="path5866" />
    </marker>
    <marker
       style="overflow:visible"
       id="Arrow1Lstart"
       refX="0"
       refY="0"
       orient="auto">
      <path
         transform="matrix(0.8,0,0,0.8,10,0)"
         style="fill:#000000;fill-opacity:1;fill-rule:evenodd;stroke:#000000;stroke-width:1pt;stroke-opacity:1"
         d="M 0,0 5,-5 -12.5,0 5,5 0,0 Z"
         id="path5842" />
    </marker>
    <marker
       style="overflow:visible"
       id="TriangleInM-6"
       refX="0"
       refY="0"
       orient="auto">
      <path
         transform="scale(-0.4,-0.4)"
         style="fill:#000000;fill-opacity:1;fill-rule:evenodd;stroke:#000000;stroke-width:1pt;stroke-opacity:1"
         d="m 5.77,0 -8.65,5 0,-10 8.65,5 z"
         id="path5978-6" />
    </marker>
    <marker
       style="overflow:visible"
       id="TriangleOutM-4"
       refX="0"
       refY="0"
       orient="auto">
      <path
         transform="scale(0.4,0.4)"
         style="fill:#000000;fill-opacity:1;fill-rule:evenodd;stroke:#000000;stroke-width:1pt;stroke-opacity:1"
         d="m 5.77,0 -8.65,5 0,-10 8.65,5 z"
         id="path5987-0" />
    </marker>
    <marker
       style="overflow:visible"
       id="TriangleInM-6-4"
       refX="0"
       refY="0"
       orient="auto">
      <path
         transform="scale(-0.4,-0.4)"
         style="fill:#000000;fill-opacity:1;fill-rule:evenodd;stroke:#000000;stroke-width:1pt;stroke-opacity:1"
         d="m 5.77,0 -8.65,5 0,-10 8.65,5 z"
         id="path5978-6-6" />
    </marker>
    <marker
       style="overflow:visible"
       id="TriangleOutM-4-2"
       refX="0"
       refY="0"
       orient="auto">
      <path
         transform="scale(0.4,0.4)"
         style="fill:#000000;fill-opacity:1;fill-rule:evenodd;stroke:#000000;stroke-width:1pt;stroke-opacity:1"
         d="m 5.77,0 -8.65,5 0,-10 8.65,5 z"
         id="path5987-0-6" />
    </marker>
    <marker
       style="overflow:visible"
       id="TriangleInM-6-4-5"
       refX="0"
       refY="0"
       orient="auto">
      <path
         transform="scale(-0.4,-0.4)"
         style="fill:#000000;fill-opacity:1;fill-rule:evenodd;stroke:#000000;stroke-width:1pt;stroke-opacity:1"
         d="m 5.77,0 -8.65,5 0,-10 8.65,5 z"
         id="path5978-6-6-6" />
    </marker>
    <marker
       style="overflow:visible"
       id="TriangleOutM-4-2-9"
       refX="0"
       refY="0"
       orient="auto">
      <path
         transform="scale(0.4,0.4)"
         style="fill:#000000;fill-opacity:1;fill-rule:evenodd;stroke:#000000;stroke-width:1pt;stroke-opacity:1"
         d="m 5.77,0 -8.65,5 0,-10 8.65,5 z"
         id="path5987-0-6-8" />
    </marker>
  </defs>
  <metadata
     id="metadata7">
    <rdf:RDF>
      <cc:Work
         rdf:about="">
        <dc:format>image/svg+xml</dc:format>
        <dc:type
           rdf:resource="http://purl.org/dc/dcmitype/StillImage" />
        <dc:title></dc:title>
      </cc:Work>
    </rdf:RDF>
  </metadata>
  <path
     d="m 323.38336,78.748662 c 1.856,-0.1043 3.7182,-0.054 5.5765,-0.04 2.0963,0.017 4.1926,0.03 6.2889,0.042 2.1178,0.037 4.2386,-0.047 6.3524,0.1002 2.3647,0.2575 4.7305,0.4948 7.1018,0.6818 2.9139,0.1862 5.8249,0.3353 8.7298,0.6341 3.5384,0.3017 7.0486,0.8375 10.5638,1.3301 3.5111,0.5456 6.9665,1.3694 10.3433,2.4689 3.6918,1.1849 7.3005,2.5882 10.8846,4.0609 3.6031,1.405 7.0017,3.2313 10.4209,5.0206 3.2199,1.6955 6.3468,3.5478 9.4314,5.4753 3.1049,1.968098 6.127,4.070898 9.0037,6.359898 2.7672,2.2458 5.4137,4.631 8.1277,6.9397 2.7658,2.3463 5.3938,4.8588 7.9094,7.4706 2.264,2.6008 4.4843,5.2439 6.6353,7.9391 2.2869,2.8306 4.5017,5.7161 6.5085,8.7526 1.9223,3.0343 3.8819,6.0461 5.7628,9.1067 1.7104,2.8018 3.3859,5.6248 5.0113,8.4768 1.7149,2.8239 3.1063,5.8237 4.6679,8.7307 1.5194,2.8751 2.9801,5.7826 4.3141,8.7486 1.318,2.7615 2.4492,5.6051 3.6704,8.4092 1.0093,2.4875 2.0175,4.9725 3.0568,7.4478 0.8952,2.3733 1.9707,4.6718 3.0888,6.9468 1.3232,2.3916 2.7243,4.74 4.0065,7.1536 1.14,2.4208 2.3718,4.785 3.7089,7.1029 1.5675,2.7588 3.0798,5.5481 4.564,8.3525 1.4535,2.9452 2.9935,5.8445 4.5994,8.7088 1.3173,2.3667 2.6621,4.718 4.0319,7.0549 1.4413,2.4344 2.9566,4.8234 4.4379,7.2333 1.4814,2.2349 3.0489,4.4152 4.6578,6.5595 1.3596,1.9515 2.8009,3.8401 4.3534,5.6417 1.4439,1.5532 3.0185,2.9715 4.4777,4.5093 1.3967,1.3293 2.8031,2.6551 4.287,3.8872 1.8286,1.6849 3.744,3.2702 5.626,4.8947 2.2123,1.9245 4.3857,3.8929 6.56,5.8599 1.6641,1.5185 3.4127,2.9394 5.1643,4.3553 1.853,1.378 3.8065,2.6144 5.7284,3.8936 1.6328,1.1007 3.2344,2.2427 4.9326,3.241 1.2877,0.7843 2.6722,1.3805 4.0069,2.0763 1.4762,0.767 3.0878,1.1966 4.6442,1.7595 1.8914,0.7152 3.8573,1.1977 5.8245,1.6494 1.8078,0.4406 3.6554,0.6836 5.4699,1.087 1.9397,0.4913 3.9018,0.8741 5.8696,1.2322 1.8924,0.3412 3.8021,0.5651 5.7146,0.7571 1.8599,0.2118 3.7373,0.014 5.5983,-0.1012 1.9059,-0.1617 3.8259,-0.133 5.7253,-0.3577 1.9822,-0.2861 3.9611,-0.5713 5.9179,-1.0002 1.8596,-0.4261 3.7263,-0.7912 5.5503,-1.354 1.9151,-0.4903 3.7649,-1.1658 5.5856,-1.93 1.8246,-0.7207 3.5771,-1.5974 5.3187,-2.4969 2.0505,-1.1505 4.1609,-2.1881 6.2171,-3.3287 2.1106,-1.1153 4.1553,-2.3325 6.2032,-3.5565 2.0461,-1.3093 4.0497,-2.6776 6.0473,-4.0587 2.2758,-1.5952 4.5534,-3.1872 6.8574,-4.7418 2.1961,-1.4183 4.2179,-3.069 6.255,-4.7005 1.9479,-1.5583 3.8586,-3.1625 5.7725,-4.7624 1.6977,-1.4192 3.2458,-3.0028 4.7724,-4.6015 1.6392,-1.7315 3.1374,-3.5878 4.7552,-5.3396 1.5882,-1.7103 3.1591,-3.4374 4.714,-5.1785 1.8083,-1.9629 3.4629,-4.0574 5.1566,-6.1179 1.8181,-2.2031 3.6865,-4.364 5.5853,-6.4976 1.9536,-2.0997 4.027,-4.0793 5.9905,-6.1688 1.9691,-2.0031 3.7219,-4.1913 5.423,-6.4213 1.8355,-2.4043 3.7454,-4.7479 5.5253,-7.1937 1.7641,-2.2865 3.1862,-4.8045 4.6447,-7.2893 1.5632,-2.5247 3.0256,-5.1047 4.4524,-7.7081 1.3455,-2.5198 2.5037,-5.1308 3.8254,-7.6628 1.2332,-2.4344 2.4064,-4.8958 3.6841,-7.3077 1.3623,-2.7209 2.9135,-5.3405 4.373,-8.0094 1.6679,-3.004 3.4598,-5.9369 5.1521,-8.9271 1.739,-2.9251 3.3794,-5.9048 5.0753,-8.8546 1.8572,-3.2913 3.5446,-6.6725 5.4352,-9.945 1.6037,-2.8191 3.1985,-5.6424 4.7822,-8.4727 1.4447,-2.5243 3.0174,-4.9709 4.4872,-7.4802 1.6029,-2.6257 3.2872,-5.2013 4.9292,-7.8034 1.4088,-2.2916 2.8091,-4.5895 4.4435,-6.7286 1.8543,-2.207 3.7041,-4.4198 5.6268,-6.568 1.7598,-2.0345 3.4082,-4.1569 5.1655,-6.1944 1.7616,-1.9875 3.531,-3.967098 5.2483,-5.992998 1.8082,-1.9898 3.5382,-4.0507 5.3743,-6.015 1.8633,-2.2129 4.0738,-4.0792 6.1722,-6.0558 2.1434,-1.9777 4.2898,-3.9546 6.378,-5.9909 1.8887,-1.6646 3.6468,-3.4615 5.3868,-5.2782 1.3802,-1.4499 2.7608,-2.8995 4.1456,-4.3451 1.1975,-1.3405 2.3214,-2.741 3.5687,-4.0364 1.1295,-1.049 1.979,-2.3382 2.9412,-3.5315 0.9345,-1.3241 2.0503,-2.5067 3.1444,-3.6979 0.8791,-1.1856 1.8789,-2.2639 2.906,-3.3208 0.7702,-1.0368 1.6843,-1.9425 2.6055,-2.8429 1.025,-0.8885 1.98,-1.8605 3.0175,-2.7353 1.248,-0.9806 2.5402,-1.9017 3.8242,-2.8349 1.9009,-1.4597 3.8283,-2.8853 5.6815,-4.4059 1.5737,-1.3822 3.1805,-2.7253 4.7659,-4.0926 1.3093,-1.0944 2.5676,-2.2424 3.8003,-3.4226 0.9199,-0.9394 1.9531,-1.7522 2.9697,-2.5819 1.1055,-0.9687 2.1916,-1.9588 3.3096,-2.9138 1.0403,-0.8032 1.832,-1.8628 2.7765,-2.766 0.7435,-0.6632 1.5314,-1.2738 2.3168,-1.8859 0.5737,-0.4272 1.0565,-0.9509 1.5973,-1.4212 0.4582,-0.3938 0.9217,-0.7815 1.385,-1.1694 0.2641,-0.2212 0.5286,-0.4422 0.7929,-0.6631 0.1486,-0.1241 0.2971,-0.2483 0.4456,-0.3724 0.083,-0.07 0.1668,-0.1394 0.2502,-0.2091 0.097,-0.076 0.1815,-0.1641 0.2686,-0.2505 0.2438,-0.2386 0.4869,-0.478 0.73,-0.7171 0.15,-0.1476 0.3002,-0.2953 0.4503,-0.4429 0.085,-0.083 0.1693,-0.1666 0.2539,-0.2499 0.019,-0.019 0.038,-0.037 0.057,-0.057 l 1.2348,1.2549 0,0 c -0.019,0.019 -0.038,0.037 -0.057,0.057 -0.085,0.083 -0.1694,0.1666 -0.254,0.2499 -0.1502,0.1476 -0.3004,0.2954 -0.4504,0.4431 -0.2449,0.2408 -0.4897,0.4816 -0.735,0.7219 -0.12,0.117 -0.238,0.2366 -0.3693,0.3413 -0.083,0.07 -0.1668,0.1395 -0.2502,0.2092 -0.1485,0.1241 -0.297,0.2482 -0.4454,0.3724 -0.2641,0.2206 -0.528,0.4413 -0.7918,0.6621 -0.4549,0.3808 -0.9101,0.7616 -1.3603,1.1483 -0.5635,0.4895 -1.0711,1.0357 -1.6702,1.4812 -0.7407,0.5772 -1.4839,1.153 -2.1879,1.7751 -0.9753,0.9134 -1.766,2.0196 -2.8441,2.8267 -1.1287,0.9635 -2.2248,1.9629 -3.3411,2.9402 -0.9821,0.7981 -1.977,1.583 -2.864,2.4887 -1.2551,1.2015 -2.5371,2.3691 -3.8688,3.4847 -1.598,1.3749 -3.2124,2.7306 -4.7987,4.12 -1.881,1.5407 -3.8332,2.9901 -5.7627,4.4689 -1.2514,0.9093 -2.5105,1.8068 -3.7286,2.7599 -1.0084,0.8388 -1.9227,1.791 -2.9177,2.645 -0.9113,0.8905 -1.8076,1.7887 -2.5735,2.811 -1.0162,1.0451 -1.9993,2.1143 -2.8718,3.2846 -1.0688,1.1636 -2.1597,2.3176 -3.0708,3.6124 -0.9952,1.233 -1.8753,2.564 -3.0437,3.6478 -1.247,1.2929 -2.3641,2.6976 -3.565,4.0325 -1.3848,1.4456 -2.7654,2.8951 -4.1456,4.3451 -1.754,1.8311 -3.526,3.643 -5.4294,5.3212 -2.0964,2.0423 -4.2486,4.0278 -6.4,6.0118 -2.0721,1.9502 -4.2545,3.7921 -6.0933,5.9768 -1.8183,1.9418 -3.5264,3.9839 -5.3173,5.951 -1.7214,2.029 -3.4922,4.013598 -5.2579,6.004098 -1.7644,2.0457 -3.4178,4.1781 -5.1872,6.2191 -1.8937,2.1136 -3.7118,4.294 -5.5404,6.4637 -1.6067,2.0935 -2.9664,4.3553 -4.3525,6.5979 -1.632,2.5856 -3.3053,5.1454 -4.8991,7.754 -1.4645,2.4986 -3.0291,4.9369 -4.4698,7.4498 -1.5879,2.8374 -3.1867,5.6678 -4.7943,8.494 -1.8916,3.2703 -3.5738,6.6531 -5.4332,9.9415 -1.6944,2.9461 -3.3323,5.9228 -5.0695,8.8444 -1.6887,2.9823 -3.4747,5.9088 -5.1396,8.9047 -1.4562,2.6618 -3.0029,5.2749 -4.3619,7.9888 -1.2767,2.4085 -2.4462,4.8679 -3.6792,7.2984 -1.3283,2.5418 -2.4873,5.1657 -3.842,7.694 -1.4352,2.6185 -2.906,5.2133 -4.4781,7.7531 -1.4876,2.5345 -2.9413,5.101 -4.7394,7.4341 -1.7882,2.4562 -3.7045,4.8115 -5.5491,7.2253 -1.7377,2.278 -3.5298,4.512 -5.54,6.5594 -1.9528,2.0778 -4.013,4.0479 -5.9581,6.1335 -1.8836,2.1163 -3.7368,4.2597 -5.5403,6.4452 -1.7091,2.0791 -3.3793,4.1918 -5.2036,6.1725 -1.5617,1.7486 -3.1399,3.4826 -4.7343,5.2008 -1.6259,1.7573 -3.1257,3.6249 -4.7749,5.3605 -1.5722,1.6463 -3.1684,3.2748 -4.9166,4.7365 -1.9232,1.6076 -3.8434,3.2199 -5.8009,4.7858 -2.0746,1.6613 -4.1353,3.3404 -6.3709,4.7856 -2.2985,1.5508 -4.5707,3.1392 -6.8408,4.7307 -2.0297,1.4029 -4.0656,2.7934 -6.1455,4.1218 -2.0646,1.2329 -4.1257,2.4598 -6.2526,3.585 -2.0721,1.1482 -4.1974,2.195 -6.2633,3.3535 -1.7833,0.9196 -3.5779,1.8168 -5.445,2.5558 -1.8742,0.7858 -3.7782,1.4824 -5.7486,1.989 -1.8713,0.5757 -3.784,0.9577 -5.6921,1.3913 -2.0143,0.4405 -4.0511,0.7372 -6.0919,1.0292 -1.932,0.2193 -3.8804,0.2119 -5.8187,0.3662 -1.956,0.1214 -3.9284,0.3211 -5.8835,0.096 -1.959,-0.197 -3.9151,-0.4269 -5.8536,-0.7766 -1.9909,-0.3624 -3.9763,-0.7497 -5.9387,-1.2464 -1.8165,-0.4094 -3.6703,-0.6411 -5.4799,-1.0891 -2.037,-0.4683 -4.0717,-0.9704 -6.0305,-1.7103 -1.6284,-0.5923 -3.3167,-1.0402 -4.8578,-1.8534 -1.3611,-0.71 -2.7737,-1.3176 -4.0856,-2.12 -1.726,-1.0158 -3.353,-2.1781 -5.0157,-3.2929 -1.9624,-1.3158 -3.9668,-2.5742 -5.8596,-3.99 -1.7769,-1.4364 -3.5498,-2.8787 -5.2384,-4.4189 -2.1643,-1.9577 -4.3276,-3.9171 -6.5294,-5.8327 -1.8739,-1.6175 -3.7817,-3.1953 -5.6016,-4.874 -1.535,-1.2791 -2.9965,-2.6467 -4.4384,-4.0291 -1.4778,-1.5587 -3.0777,-2.9918 -4.5344,-4.5718 -1.5774,-1.8323 -3.046,-3.7504 -4.4279,-5.7347 -1.64,-2.1889 -3.2421,-4.4111 -4.7492,-6.6937 -1.4872,-2.4207 -3.0095,-4.8197 -4.4567,-7.2648 -1.3756,-2.3467 -2.7261,-4.7076 -4.0488,-7.0843 -1.6128,-2.8766 -3.1603,-5.7883 -4.6198,-8.7463 -1.4739,-2.7857 -2.9765,-5.5561 -4.5331,-8.2965 -1.3467,-2.3358 -2.5914,-4.717 -3.7386,-7.1568 -1.2896,-2.4307 -2.7056,-4.7919 -4.0317,-7.2029 -1.1327,-2.3064 -2.2241,-4.6358 -3.1321,-7.0416 -1.0363,-2.4681 -2.0419,-4.9457 -3.0475,-7.4262 -1.2185,-2.7979 -2.3471,-5.635 -3.662,-8.3903 -1.3162,-2.9289 -2.7604,-5.7986 -4.2595,-8.6378 -1.5533,-2.8948 -2.9408,-5.8798 -4.6465,-8.6918 -1.6153,-2.8354 -3.2816,-5.6413 -4.9816,-8.4267 -1.8705,-3.0445 -3.8206,-6.0398 -5.7321,-9.0582 -1.9757,-2.9939 -4.163,-5.8343 -6.4154,-8.6249 -2.1162,-2.6532 -4.3038,-5.2525 -6.5273,-7.8161 -2.474,-2.5709 -5.0617,-5.0412 -7.782,-7.3505 -2.6995,-2.2965 -5.3319,-4.669 -8.0837,-6.9036 -2.8225,-2.2495 -5.793,-4.3097 -8.8399,-6.2439 -3.0465,-1.903798 -6.1346,-3.734198 -9.3148,-5.408598 -3.3711,-1.7644 -6.7203,-3.568 -10.2735,-4.9519 -3.5438,-1.456 -7.1112,-2.8445 -10.7614,-4.0157 -3.2776,-1.0708 -6.6337,-1.8658 -10.0417,-2.3991 -3.494,-0.4896 -6.9827,-1.023 -10.4997,-1.3224 -2.8911,-0.2975 -5.7882,-0.4434 -8.6881,-0.6301 -2.367,-0.1869 -4.7289,-0.4219 -7.0891,-0.681 -2.0745,-0.1528 -4.1582,-0.051 -6.2369,-0.096 -2.0973,-0.011 -4.1947,-0.026 -6.2919,-0.042 -1.7576,-0.013 -3.5171,-0.049 -5.2739,0.016 l -0.2894,-1.7366 z"
     id="path5548-2"
     style="color:#000000;clip-rule:nonzero;display:inline;overflow:visible;visibility:visible;opacity:0.77999998;isolation:auto;mix-blend-mode:normal;color-interpolation:sRGB;color-interpolation-filters:linearRGB;solid-color:#000000;solid-opacity:1;fill:#000000;fill-opacity:1;fill-rule:nonzero;stroke:#000000;stroke-width:1;stroke-linecap:butt;stroke-linejoin:miter;stroke-miterlimit:4;stroke-dasharray:none;stroke-dashoffset:0;stroke-opacity:1;color-rendering:auto;image-rendering:auto;shape-rendering:auto;text-rendering:auto;enable-background:accumulate" />
  <circle
     r="10.563706"
     cy="284.63907"
     cx="549.97278"
     id="path5512-4-7-9"
     style="color:#000000;clip-rule:nonzero;display:inline;overflow:visible;visibility:visible;opacity:1;isolation:auto;mix-blend-mode:normal;color-interpolation:sRGB;color-interpolation-filters:linearRGB;solid-color:#000000;solid-opacity:1;fill:#000000;fill-opacity:1;fill-rule:nonzero;stroke:none;stroke-width:1;stroke-linecap:butt;stroke-linejoin:miter;stroke-miterlimit:4;stroke-dasharray:none;stroke-dashoffset:0;stroke-opacity:1;color-rendering:auto;image-rendering:auto;shape-rendering:auto;text-rendering:auto;enable-background:accumulate" />
  <circle
     r="10.563706"
     cy="21.061901"
     cx="843.95544"
     id="path5512-4-7-2-9"
     style="color:#000000;clip-rule:nonzero;display:inline;overflow:visible;visibility:visible;opacity:1;isolation:auto;mix-blend-mode:normal;color-interpolation:sRGB;color-interpolation-filters:linearRGB;solid-color:#000000;solid-opacity:1;fill:#000000;fill-opacity:1;fill-rule:nonzero;stroke:none;stroke-width:1;stroke-linecap:butt;stroke-linejoin:miter;stroke-miterlimit:4;stroke-dasharray:none;stroke-dashoffset:0;stroke-opacity:1;color-rendering:auto;image-rendering:auto;shape-rendering:auto;text-rendering:auto;enable-background:accumulate" />
  <g
     transform="translate(-1061.4221,-4038.7823)"
     style="font-style:normal;font-weight:normal;font-size:40px;line-height:125%;font-family:sans-serif;letter-spacing:0px;word-spacing:0px;fill:#4d4d4d;fill-opacity:1;stroke:none;stroke-width:1px;stroke-linecap:butt;stroke-linejoin:miter;stroke-opacity:1"
     id="flowRoot4242-6-5-4-6">
    <path
       d="m 1795.4082,4366.1923 q 0,-0.8789 0.5859,-1.5039 0.6055,-0.625 1.4454,-0.625 l 16.4062,0 q 0.8398,0 1.4453,0.625 0.6055,0.625 0.6055,1.5039 0,0.9179 -0.6055,1.5429 -0.6055,0.6055 -1.4453,0.6055 l -6.4062,0 0,20.8398 q 0,0.879 -0.6055,1.504 -0.586,0.625 -1.4258,0.625 -0.8398,0 -1.4453,-0.6055 -0.5859,-0.625 -0.5859,-1.5235 l 0,-20.8398 -5.9375,0 q -0.8399,0 -1.4454,-0.6055 -0.5859,-0.625 -0.5859,-1.5429 z"
       style="font-style:normal;font-variant:normal;font-weight:bold;font-stretch:normal;font-family:'Comic Neue';-inkscape-font-specification:'Comic Neue Bold';fill:#4d4d4d"
       id="path4048" />
    <path
       d="m 1818.4746,4389.1415 0,-23.2813 q 0,-0.9179 0.625,-1.5234 0.625,-0.625 1.5039,-0.625 0.8789,0 1.4844,0.625 0.625,0.6055 0.625,1.5234 l 0,8.0469 q 0.2344,-0.2734 0.4687,-0.5078 0.2539,-0.2539 0.4883,-0.4883 2.4024,-2.3242 4.8828,-2.3242 0.4883,0 1.0547,0.1172 0.586,0.1172 1.1914,0.4687 0.6055,0.3321 1.1524,0.9375 0.5664,0.6055 0.9961,1.5625 1.289,2.6368 1.4062,7.7149 0.039,0.8398 0.039,2.1679 0,1.3086 0,2.5586 0,1.4258 -0.039,2.9883 0,0.8789 -0.6055,1.5039 -0.5859,0.625 -1.4648,0.625 -0.8789,0 -1.4844,-0.625 -0.6054,-0.625 -0.6054,-1.5039 0.039,-1.4453 0.039,-2.7929 0,-1.1524 0,-2.4805 0,-1.3281 -0.039,-2.3633 -0.039,-1.7969 -0.2149,-3.0273 -0.1758,-1.25 -0.4297,-2.0313 -0.2343,-0.7812 -0.4883,-1.1328 -0.2539,-0.3711 -0.5078,-0.3711 -1.5234,0 -3.3203,2.1289 -0.8398,0.957 -1.3867,1.875 -0.5273,0.918 -0.6836,1.25 -0.4492,0.918 -0.4492,2.7539 l 0,6.2305 q 0,0.918 -0.625,1.543 -0.6055,0.625 -1.4844,0.625 -0.8789,0 -1.5039,-0.6055 -0.625,-0.625 -0.625,-1.5625 z"
       style="font-style:normal;font-variant:normal;font-weight:bold;font-stretch:normal;font-family:'Comic Neue';-inkscape-font-specification:'Comic Neue Bold';fill:#4d4d4d"
       id="path4050" />
    <path
       d="m 1838.416,4381.3485 q 0,-1.9531 0.7031,-3.7109 0.7032,-1.7774 1.9141,-3.1055 1.2305,-1.3476 2.8711,-2.168 1.6406,-0.8203 3.5156,-0.9375 0.3516,-0.039 0.7031,-0.039 1.9141,0 3.4961,0.9179 1.875,1.0743 3.0079,2.8907 0.1953,0.3125 0.332,0.6445 0.1367,0.3125 0.3125,0.5859 0.1953,0.3711 0.1953,0.8204 0,0.2539 -0.059,0.5664 -0.1758,0.8203 -1.0156,1.25 -0.7227,0.3906 -2.0313,1.1328 -1.289,0.7226 -2.8125,1.5625 -1.5234,0.8398 -3.0859,1.7187 -1.5625,0.8789 -2.793,1.543 0.6446,0.8008 1.4649,1.3672 1.289,0.8789 2.9297,0.8789 2.2851,0 3.9648,-1.7578 l 0.8008,-0.8399 q 0.5664,-0.5664 1.3867,-0.5664 0.8398,0 1.4453,0.6055 0.6055,0.6055 0.6055,1.4062 0,0.7227 -0.4883,1.3086 l -0.8008,0.8399 q -1.3672,1.4844 -3.164,2.2851 -1.7579,0.7618 -3.75,0.7618 -1.9922,0 -3.7696,-0.7813 -1.7578,-0.7812 -3.0664,-2.1094 -1.289,-1.3476 -2.0508,-3.164 -0.7617,-1.8164 -0.7617,-3.9063 z m 4.043,-0.2734 q 0.8398,-0.4883 1.9531,-1.0938 1.1328,-0.625 2.2461,-1.25 1.1328,-0.625 2.1484,-1.1914 1.0157,-0.5859 1.7383,-0.9961 -1.0351,-1.0351 -2.4023,-1.1133 -1.3672,0.039 -2.3828,0.5469 -1.0157,0.4883 -1.7383,1.2891 -1.4453,1.6406 -1.5625,3.8086 z"
       style="font-style:normal;font-variant:normal;font-weight:bold;font-stretch:normal;font-family:'Comic Neue';-inkscape-font-specification:'Comic Neue Bold';fill:#4d4d4d"
       id="path4052" />
    <path
       d="m 1860.8965,4389.1805 0,-15 0,-1.1914 q 0,-0.8789 0.625,-1.5039 0.625,-0.625 1.5039,-0.625 0.8789,0 1.4844,0.625 0.625,0.625 0.625,1.5039 l 0,1.25 q 0.1562,-0.1953 0.2929,-0.3515 0.1563,-0.1758 0.3516,-0.3711 1.1133,-1.1133 2.4805,-1.7188 1.3672,-0.6054 2.9687,-0.6054 2.207,0 3.6328,1.1914 1.3672,1.1133 1.9532,3.4375 0.4492,1.6797 0.5273,4.0625 0.078,2.3828 0.078,5.9765 l 0,2.2071 q 0,0.5664 0.039,1.1132 0,0.879 -0.625,1.504 -0.6055,0.625 -1.4649,0.625 -0.8789,0 -1.5039,-0.6055 -0.6054,-0.625 -0.6054,-1.5235 -0.039,-0.6054 -0.039,-1.1914 l 0,-2.0703 q 0,-2.9297 -0.059,-5.3125 -0.059,-2.3828 -0.3906,-3.7695 -0.2735,-1.0352 -0.6055,-1.25 -0.3125,-0.2344 -0.9375,-0.2344 -0.3906,0 -0.8789,0.098 -0.4883,0.098 -1.0351,0.4883 -0.5274,0.3711 -1.1524,1.0937 -0.625,0.7227 -1.2695,1.9141 -0.8008,1.5234 -1.2891,3.4179 -0.4687,1.875 -0.4687,3.6329 l -0.039,3.1835 q 0,0.879 -0.625,1.504 -0.6055,0.625 -1.4844,0.625 -0.8789,0 -1.4843,-0.6055 -0.6055,-0.625 -0.6055,-1.5235 z"
       style="font-style:normal;font-variant:normal;font-weight:bold;font-stretch:normal;font-family:'Comic Neue';-inkscape-font-specification:'Comic Neue Bold';fill:#4d4d4d"
       id="path4054" />
  </g>
  <g
     transform="translate(-1061.4221,-4038.7823)"
     style="font-style:normal;font-weight:normal;font-size:40px;line-height:125%;font-family:sans-serif;text-align:center;letter-spacing:0px;word-spacing:0px;text-anchor:middle;fill:#4d4d4d;fill-opacity:1;stroke:none;stroke-width:1px;stroke-linecap:butt;stroke-linejoin:miter;stroke-opacity:1"
     id="flowRoot4242-6-5-4-9-6">
    <path
       d="m 1989.4951,4205.778 0,-0.078 q 0,-1.0351 0.7031,-1.7578 0.7032,-0.7227 1.6993,-0.7227 0.8398,0 1.4843,0.5274 l 0.1953,0.1953 q 0.1563,0.1953 0.3516,0.4883 0.039,0.039 0.5274,0.8398 0.4882,0.8008 1.2304,2.0703 0.7617,1.25 1.7188,2.8516 0.9765,1.6016 1.9726,3.2812 2.3633,3.9258 5.3125,8.8282 l 0,-16.9922 q 0,-0.8789 0.6055,-1.4844 0.6055,-0.6055 1.4062,-0.6055 0.8399,0 1.4063,0.6055 0.5859,0.6055 0.5859,1.4844 l 0,22.5586 q 0,1.0742 -0.7422,1.8554 -0.7421,0.7813 -1.7773,0.7813 -0.6836,0 -1.2695,-0.332 -0.5664,-0.3516 -0.8789,-0.9961 l -10.4883,-17.5977 0,16.8164 q 0,0.8789 -0.586,1.5039 -0.5664,0.6055 -1.4062,0.6055 -0.8398,0 -1.4258,-0.6055 -0.5859,-0.625 -0.5859,-1.5039 l -0.039,-22.6172 z"
       style="font-style:normal;font-variant:normal;font-weight:bold;font-stretch:normal;line-height:100%;font-family:'Comic Neue';-inkscape-font-specification:'Comic Neue Bold';text-align:center;text-anchor:middle;fill:#4d4d4d"
       id="path4057" />
    <path
       d="m 2013.3037,4220.3093 q 0.1172,-1.9531 0.8789,-3.7305 0.7617,-1.7969 2.0899,-3.1836 1.3281,-1.4453 2.9296,-2.207 1.6211,-0.7617 3.3594,-0.7617 1.5235,0 2.9102,0.5664 1.4062,0.5469 2.5195,1.6797 1.5234,1.4843 2.2461,3.5351 0.5859,1.6406 0.5859,3.4766 0,0.4492 -0.039,0.8984 -0.1563,1.9922 -0.918,3.7891 -0.7617,1.7773 -2.0312,3.164 -1.3282,1.4454 -2.9493,2.2071 -1.6211,0.7617 -3.3789,0.7617 -1.5234,0 -2.9297,-0.5664 -1.3867,-0.5859 -2.5,-1.7188 -1.4843,-1.4453 -2.207,-3.4961 -0.5859,-1.6796 -0.5859,-3.5742 0,-0.4101 0.019,-0.8398 z m 4.2578,0.2734 q -0.02,0.2344 0,0.4688 0,1.2109 0.3321,2.3047 0.4101,1.289 1.2109,2.1093 0.9961,1.0352 2.4023,1.0352 0.8399,0 1.6993,-0.4297 0.8593,-0.4492 1.582,-1.3281 0.7617,-0.8789 1.1914,-2.0313 0.4492,-1.1718 0.5273,-2.4023 0.02,-0.1953 0.02,-0.3906 -0.02,-1.1719 -0.4102,-2.3047 -0.4687,-1.3282 -1.3281,-2.2266 -1.0742,-0.9961 -2.4024,-0.9961 -1.7578,0 -3.1445,1.7578 -0.7226,0.8789 -1.1719,2.0508 -0.4297,1.1524 -0.5078,2.3828 z"
       style="font-style:normal;font-variant:normal;font-weight:bold;font-stretch:normal;line-height:100%;font-family:'Comic Neue';-inkscape-font-specification:'Comic Neue Bold';text-align:center;text-anchor:middle;fill:#4d4d4d"
       id="path4059" />
    <path
       d="m 2033.3232,4212.9851 q -0.059,-0.2539 -0.059,-0.4883 0,-0.6055 0.3516,-1.0938 0.5078,-0.7031 1.3477,-0.8984 0.2539,-0.059 0.4882,-0.059 0.586,0.02 1.0938,0.3711 0.7031,0.5078 0.8984,1.3281 l 1.875,9.4727 3.125,-9.3555 q 0.1953,-0.7617 0.7813,-1.25 0.6055,-0.5078 1.4062,-0.5078 0.8399,0 1.4844,0.5664 0.6445,0.5469 0.7617,1.3477 l 2.1094,9.2773 2.8906,-9.707 q 0.2344,-0.8203 0.9961,-1.25 0.4883,-0.2735 1.0156,-0.2735 0.293,0 0.586,0.078 0.8203,0.2343 1.25,0.9961 0.2734,0.4882 0.2734,1.0156 0,0.2929 -0.078,0.5859 l -4.9609,15.7617 q -0.3125,0.8985 -1.211,1.3282 -0.5078,0.2343 -1.0156,0.2539 -0.3906,0 -0.7813,-0.1368 -1.289,-0.5273 -1.4843,-1.7968 l -2.1485,-9.0039 -3.3203,9.3945 q -0.3125,0.9375 -1.2109,1.3281 -0.5078,0.2344 -0.9961,0.2149 -0.3906,0 -0.8008,-0.1368 -1.3281,-0.5273 -1.5234,-1.875 l -3.1446,-15.4882 z"
       style="font-style:normal;font-variant:normal;font-weight:bold;font-stretch:normal;line-height:100%;font-family:'Comic Neue';-inkscape-font-specification:'Comic Neue Bold';text-align:center;text-anchor:middle;fill:#4d4d4d"
       id="path4061" />
  </g>
  <path
     d="m 720.09146,341.94866 c -2.0636,0.1765 -4.1271,0.3392 -6.1977,0.4036 -3.0016,0.1791 -6.0074,0.06 -9.0113,0.036 -4.2174,0.01 -8.4347,-0.06 -12.6509,-0.1541 -4.9419,-0.054 -9.8808,-0.2987 -14.8098,-0.6513 -5.5622,-0.4172 -11.1037,-1.0274 -16.6319,-1.7629 -5.6126,-0.6427 -11.1723,-1.6615 -16.7179,-2.7224 -5.4163,-1.0475 -10.8037,-2.236 -16.1853,-3.4467 -4.7556,-1.0752 -9.5005,-2.1968 -14.2411,-3.3365 -3.9256,-0.9143 -7.7809,-2.101 -11.6416,-3.2528 -2.904,-0.7873 -5.7253,-1.8274 -8.5513,-2.8514 -2.3034,-0.9675 -4.6255,-1.8992 -6.8913,-2.9528 -1.876,-0.8657 -3.6835,-1.8707 -5.4033,-3.0147 -1.3856,-0.8613 -2.6468,-1.8779 -3.8947,-2.9218 -1.0671,-0.9877 -2.0938,-2.0246 -3.0369,-3.1318 -0.7992,-0.9725 -1.6633,-1.881 -2.5708,-2.7515 -0.6157,-0.5842 -1.2386,-1.1599 -1.8617,-1.7362 -0.3554,-0.3286 -0.7111,-0.6569 -1.0669,-0.9854 -0.1999,-0.1845 -0.3997,-0.3691 -0.5996,-0.5537 0.3164,0.076 0.6806,0.043 0.9496,0.2267 0.1257,0.086 0.026,0.3039 0.05,0.4543 0.1777,1.0913 0.5638,2.1584 0.8716,3.217 0.8176,2.468 1.408,4.9992 2.03,7.521 0.4793,2.2898 1.1072,4.5432 1.5326,6.8441 0.3286,1.8455 0.5052,3.7139 0.6919,5.578 0.064,0.8794 0.032,1.761 0.064,2.6416 -0.019,0.3914 0.1973,0.2644 0.6141,0.2711 1.3084,-0.1122 2.5663,-0.4843 3.7703,-0.9937 2.2574,-1.1242 4.4571,-2.3685 6.6684,-3.5822 3.2713,-1.8506 6.5818,-3.626 9.9176,-5.357 2.4997,-1.2917 5.0043,-2.5741 7.5088,-3.8565 1.3303,-0.7146 2.7468,-1.2936 3.9555,-2.2119 0.3512,-0.2499 0.4061,-0.4327 0.3608,-0.5701 -0.3514,-0.096 -0.7496,-0.2274 -1.1162,-0.3331 -1.0433,-0.2935 -2.092,-0.5679 -3.1379,-0.8519 -2.0222,-0.5645 -4.1167,-0.82 -6.2009,-1.0293 -2.6584,-0.219 -5.3108,-0.4995 -7.9583,-0.8235 -2.4644,-0.3056 -4.9126,-0.7226 -7.3546,-1.1703 -2.1551,-0.4375 -4.333,-0.7816 -6.461,-1.3412 -1.3611,-0.3923 -2.6989,-0.8597 -4.036,-1.3257 -0.4159,-0.1502 -0.8355,-0.291 -1.2383,-0.4744 0,0 0.5226,-1.1299 0.5226,-1.1299 l 0,0 c 0.3631,0.1721 0.7506,0.2857 1.1254,0.4286 1.3069,0.4554 2.6143,0.9131 3.9442,1.2976 2.0959,0.5556 4.2451,0.8846 6.3677,1.3206 2.4176,0.4433 4.8414,0.8563 7.2814,1.1589 2.6386,0.3232 5.2821,0.6023 7.9317,0.8206 2.1518,0.2174 4.3134,0.4829 6.4013,1.0663 1.0527,0.285 2.105,0.5715 3.1575,0.8572 0.7481,0.2156 1.5722,0.371 1.9511,1.1313 0.2473,0.8462 -0.1303,1.4411 -0.7929,1.9636 -1.275,0.9491 -2.7313,1.5933 -4.1356,2.3246 -2.5026,1.2815 -5.0051,2.5627 -7.5028,3.8535 -3.3273,1.7264 -6.6292,3.4972 -9.892,5.3431 -2.2493,1.2346 -4.4859,2.5024 -6.7857,3.6388 -1.3812,0.5754 -2.8277,1.0092 -4.3313,1.0884 -0.9024,-0.081 -1.7975,-0.3989 -1.779,-1.4675 -0.032,-0.8546 0,-1.7099 -0.059,-2.5638 -0.1833,-1.83 -0.3559,-3.6642 -0.6775,-5.4761 -0.4193,-2.277 -1.0452,-4.5056 -1.517,-6.7717 -0.618,-2.5054 -1.2039,-5.02 -2.0169,-7.4717 -0.1576,-0.5424 -1.2371,-3.767 -0.9577,-4.2022 0.2664,-0.4147 0.7507,-0.6386 1.1261,-0.9578 0.2,0.1845 0.3998,0.3692 0.5998,0.5537 0.356,0.3286 0.7119,0.6573 1.0676,0.9861 0.6287,0.5813 1.2574,1.1624 1.8783,1.7517 0.9379,0.9002 1.8314,1.8397 2.6581,2.8443 0.8937,1.0566 1.8769,2.0377 2.8866,2.9827 1.2131,1.0152 2.4376,2.0049 3.7864,2.8407 1.665,1.1124 3.4208,2.0806 5.238,2.9219 2.2319,1.0397 4.522,1.9541 6.7903,2.911 2.8035,1.0158 5.6017,2.0485 8.4828,2.829 3.8395,1.1448 7.6731,2.3257 11.577,3.235 4.7345,1.1383 9.4736,2.2585 14.2232,3.3324 5.3686,1.2078 10.7429,2.3934 16.1459,3.4386 5.5225,1.0565 11.059,2.0714 16.6482,2.711 5.5032,0.7322 11.0197,1.3398 16.5568,1.7552 4.9084,0.3515 9.827,0.5935 14.7484,0.6485 4.2103,0.094 8.4215,0.1631 12.6328,0.1538 2.9878,0.023 5.9779,0.1424 8.9634,-0.036 2.0445,-0.063 4.0821,-0.2249 6.1195,-0.3986 0,0 0.1167,1.2394 0.1167,1.2394 z"
     id="path5632-5"
     style="color:#000000;clip-rule:nonzero;display:inline;overflow:visible;visibility:visible;opacity:0.77999998;isolation:auto;mix-blend-mode:normal;color-interpolation:sRGB;color-interpolation-filters:linearRGB;solid-color:#000000;solid-opacity:1;fill:#000000;fill-opacity:1;fill-rule:nonzero;stroke:#000000;stroke-width:1;stroke-linecap:butt;stroke-linejoin:miter;stroke-miterlimit:4;stroke-dasharray:none;stroke-dashoffset:0;stroke-opacity:1;color-rendering:auto;image-rendering:auto;shape-rendering:auto;text-rendering:auto;enable-background:accumulate" />
  <path
     d="m 955.90826,151.10556 c 0.048,-2.039 -0.3195,-4.0456 -0.7004,-6.0388 -0.5871,-2.7806 -1.2911,-5.5336 -1.9335,-8.3014 -0.7117,-2.9494 -1.4846,-5.878 -2.3274,-8.7923 -1.0215,-3.317 -2.2421,-6.5681 -3.3721,-9.8489 -1.167,-3.4375 -2.2468,-6.9025 -3.3426,-10.3629 -1.1243,-3.5042 -2.2853,-6.9963 -3.478,-10.477598 -1.2344,-3.6741 -2.6728,-7.2692 -4.1553,-10.8483 -1.3381,-3.1419 -2.8294,-6.211 -4.4448,-9.2185 -1.6036,-2.8866 -3.386,-5.6664 -5.2634,-8.381 -2.068,-2.8616 -4.1442,-5.7175 -6.2507,-8.5508 -1.8301,-2.3963 -3.6338,-4.8135 -5.5318,-7.1567 -1.8484,-2.1246 -3.7877,-4.1721 -5.7986,-6.1432 -2.1896,-2.1284 -4.6363,-3.943 -7.1224,-5.7029 -2.4377,-1.6845 -4.9989,-3.1746 -7.6108,-4.5693 -2.3869,-1.1225 -4.7925,-2.2122 -7.2515,-3.1691 -1.9481,-0.762 -3.9388,-1.4038 -5.9313,-2.0375 -1.2309,-0.3895 -2.4635,-0.7744 -3.6958,-1.1593 -0.913,-0.2063 -1.7838,-0.4884 -2.6262,-0.8952 -0.521,-0.2608 -1.0326,-0.5394 -1.5442,-0.8178 -0.2857,-0.1555 -0.571,-0.3115 -0.8562,-0.4673 -0.1601,-0.088 -0.3202,-0.1752 -0.4804,-0.2627 -0.09,-0.049 -0.1797,-0.098 -0.2695,-0.1474 -0.05,-0.028 -0.101,-0.055 -0.1516,-0.083 1.317,-1.2942 1.5041,-0.8326 2.8227,0.1402 0.88,0.6934 1.6284,1.5261 2.4031,2.3289 1.2206,1.1823 2.3551,2.4494 3.4403,3.756 1.29,1.5445 2.4626,3.1777 3.5775,4.8516 0.8741,1.4809 1.7454,2.9546 2.7277,4.3669 0.8253,1.155 1.434,2.4276 1.9465,3.7455 0.4536,1.0458 0.9769,2.0593 1.4961,3.0735 0.3138,0.6116 0.6294,1.2223 0.945,1.8329 0.059,0.1275 0.1401,0.2469 0.2353,0.3505 0.6615,-0.2411 1.2384,-0.6503 1.8096,-1.0573 1.2065,-0.9373 2.35,-1.9521 3.5284,-2.9245 1.6771,-1.4802 3.4865,-2.798 5.2031,-4.2292 1.3486,-1.1344 2.7126,-2.2424 3.8619,-3.5843 0.9033,-1.1417 1.7805,-2.3039 2.6672,-3.4585 0.586,-0.7629 1.1722,-1.5257 1.7583,-2.2882 0.332,-0.4319 0.6639,-0.8639 0.9958,-1.2958 0.1865,-0.2425 0.373,-0.4851 0.5595,-0.7278 -0.079,0.1731 -0.086,0.4003 -0.2342,0.5193 -0.042,0.034 -1.3905,-0.821 -1.5179,-0.8858 -1.006,-0.4187 -2.0707,-0.6662 -3.1042,-1.0078 -1.3052,-0.4491 -2.6642,-0.6967 -4.0005,-1.0278 -1.5503,-0.3725 -3.0748,-0.8283 -4.6056,-1.2712 -1.6619,-0.4634 -3.3559,-0.7924 -5.0581,-1.0651 -1.9382,-0.2954 -3.892,-0.4664 -5.8459,-0.6182 -2.0554,-0.1504 -4.1142,-0.2483 -6.1724,-0.3497 -1.608,-0.078 -3.2167,-0.1376 -4.8256,-0.1968 -1.0221,-0.037 -2.0441,-0.074 -3.0663,-0.1106 -0.5778,-0.021 -1.1558,-0.042 -1.7336,-0.062 -0.5219,0.012 -0.9293,-0.025 -1.3538,-0.3569 0,0 0.9071,-0.8526 0.9071,-0.8526 l 0,0 c -0.4692,-0.2303 0.2761,0.049 0.4913,-0.035 0.5778,0.021 1.1558,0.041 1.7336,0.062 1.0225,0.037 2.0451,0.073 3.0676,0.1108 1.6138,0.059 3.2279,0.1189 4.841,0.1973 2.0701,0.1022 4.1405,0.2005 6.2076,0.3522 1.9875,0.1543 3.9749,0.3289 5.9466,0.63 1.7524,0.2812 3.4963,0.6205 5.207,1.0985 1.5155,0.4387 3.0245,0.8907 4.5596,1.2589 1.3663,0.3403 2.7569,0.5918 4.0913,1.0539 1.0936,0.3619 2.2239,0.6168 3.2808,1.0819 1.0764,0.5545 1.9796,0.8957 2.1716,2.2331 -0.1865,0.2426 -0.373,0.4853 -0.5593,0.728 -0.3321,0.4319 -0.6639,0.8636 -0.9959,1.2955 -0.5861,0.7627 -1.1721,1.5251 -1.758,2.2878 -0.9007,1.1729 -1.7911,2.354 -2.7106,3.5121 -1.1995,1.3897 -2.602,2.5559 -4.009,3.7292 -1.7193,1.431 -3.5281,2.7524 -5.2077,4.2328 -1.2011,0.9913 -2.3654,2.0274 -3.5987,2.9785 -0.7745,0.5508 -1.5638,1.1103 -2.518,1.2879 -0.6967,-0.072 -1.091,-0.3708 -1.3548,-1.0237 -0.3164,-0.6121 -0.6329,-1.2242 -0.9475,-1.8374 -0.5385,-1.0523 -1.0816,-2.1038 -1.5483,-3.1903 -0.4746,-1.2271 -1.0397,-2.4108 -1.8081,-3.4852 -0.9866,-1.4192 -1.867,-2.8973 -2.7418,-4.3875 -1.0903,-1.6377 -2.2371,-3.2355 -3.4993,-4.7465 -1.0644,-1.2839 -2.1802,-2.5261 -3.3785,-3.6869 -0.7277,-0.7558 -1.4302,-1.5392 -2.2529,-2.1965 -1.1815,-0.9017 -1.7284,-0.3579 -1.4792,-2.2292 0.051,0.028 0.101,0.055 0.1515,0.083 0.09,0.049 0.1797,0.098 0.2696,0.1476 0.16,0.088 0.3201,0.1749 0.4801,0.2624 0.2844,0.1555 0.569,0.3111 0.8538,0.4661 0.4945,0.269 0.9888,0.5382 1.4919,0.7909 0.7871,0.382 1.6015,0.6315 2.4549,0.8275 1.2345,0.3855 2.469,0.7709 3.7022,1.1612 2.0174,0.6418 4.033,1.2922 6.0056,2.0636 2.5047,0.9757 4.9563,2.084 7.3863,3.2313 2.6576,1.4195 5.2634,2.9365 7.7436,4.6513 2.5401,1.7981 5.038,3.6551 7.2747,5.83 2.0442,2.0051 4.0172,4.086 5.8945,6.2486 1.9083,2.3568 3.723,4.7871 5.5632,7.1974 2.1151,2.8448 4.1997,5.7122 6.2756,8.5856 1.9037,2.7532 3.711,5.5723 5.3363,8.5 1.6346,3.0445 3.1444,6.1508 4.4981,9.3312 1.4924,3.6032 2.94,7.2225 4.1829,10.9212 1.1957,3.490698 2.3602,6.991798 3.4873,10.505298 1.0925,3.4504 2.169,6.9057 3.3326,10.3332 1.1366,3.3005 2.3652,6.5709 3.391,9.9085 0.8489,2.9356 1.6273,5.8858 2.3441,8.8568 0.6461,2.7837 1.3545,5.5523 1.9437,8.3492 0.3954,2.0702 0.7703,4.1548 0.7226,6.2725 0,0 -1.245,0 -1.245,0 z"
     id="path5652-9"
     style="color:#000000;clip-rule:nonzero;display:inline;overflow:visible;visibility:visible;opacity:0.77999998;isolation:auto;mix-blend-mode:normal;color-interpolation:sRGB;color-interpolation-filters:linearRGB;solid-color:#000000;solid-opacity:1;fill:#000000;fill-opacity:1;fill-rule:nonzero;stroke:#000000;stroke-width:1;stroke-linecap:butt;stroke-linejoin:miter;stroke-miterlimit:4;stroke-dasharray:none;stroke-dashoffset:0;stroke-opacity:1;color-rendering:auto;image-rendering:auto;shape-rendering:auto;text-rendering:auto;enable-background:accumulate" />
  <rect
     ry="2.8317683"
     rx="35.072105"
     y="0"
     x="0"
     height="363.02524"
     width="1317.37"
     id="rect3369"
     style="color:#000000;clip-rule:nonzero;display:inline;overflow:visible;visibility:visible;opacity:0.77999998;isolation:auto;mix-blend-mode:normal;color-interpolation:sRGB;color-interpolation-filters:linearRGB;solid-color:#000000;solid-opacity:1;fill:none;fill-opacity:1;fill-rule:nonzero;stroke:none;stroke-width:2;stroke-linecap:round;stroke-linejoin:miter;stroke-miterlimit:4;stroke-dasharray:none;stroke-dashoffset:0;stroke-opacity:1;color-rendering:auto;image-rendering:auto;shape-rendering:auto;text-rendering:auto;enable-background:accumulate" />
</svg>
