<?xml version="1.0" encoding="UTF-8" standalone="no"?>
<svg
   xmlns:dc="http://purl.org/dc/elements/1.1/"
   xmlns:cc="http://creativecommons.org/ns#"
   xmlns:rdf="http://www.w3.org/1999/02/22-rdf-syntax-ns#"
   xmlns:svg="http://www.w3.org/2000/svg"
   xmlns="http://www.w3.org/2000/svg"
   width="395.58426mm"
   height="204.48222mm"
   viewBox="0 0 1401.6765 724.54331"
   id="svg2"
   version="1.1">
  <defs
     id="defs4">
    <marker
       orient="auto"
       refY="0"
       refX="0"
       id="Arrow1Lend"
       style="overflow:visible">
      <path
         id="path5845"
         d="M 0,0 5,-5 -12.5,0 5,5 0,0 Z"
         style="fill:#000000;fill-opacity:1;fill-rule:evenodd;stroke:#000000;stroke-width:1pt;stroke-opacity:1"
         transform="matrix(-0.8,0,0,-0.8,-10,0)" />
    </marker>
    <marker
       orient="auto"
       refY="0"
       refX="0"
       id="TriangleOutM"
       style="overflow:visible">
      <path
         id="path5987"
         d="m 5.77,0 -8.65,5 0,-10 8.65,5 z"
         style="fill:#000000;fill-opacity:1;fill-rule:evenodd;stroke:#000000;stroke-width:1pt;stroke-opacity:1"
         transform="scale(0.4,0.4)" />
    </marker>
    <marker
       orient="auto"
       refY="0"
       refX="0"
       id="TriangleInM"
       style="overflow:visible">
      <path
         id="path5978"
         d="m 5.77,0 -8.65,5 0,-10 8.65,5 z"
         style="fill:#000000;fill-opacity:1;fill-rule:evenodd;stroke:#000000;stroke-width:1pt;stroke-opacity:1"
         transform="scale(-0.4,-0.4)" />
    </marker>
    <marker
       orient="auto"
       refY="0"
       refX="0"
       id="Arrow2Mstart"
       style="overflow:visible">
      <path
         id="path5866"
         style="fill:#000000;fill-opacity:1;fill-rule:evenodd;stroke:#000000;stroke-width:0.625;stroke-linejoin:round;stroke-opacity:1"
         d="M 8.7185878,4.0337352 -2.2072895,0.01601326 8.7185884,-4.0017078 c -1.7454984,2.3720609 -1.7354408,5.6174519 -6e-7,8.035443 z"
         transform="scale(0.6,0.6)" />
    </marker>
    <marker
       orient="auto"
       refY="0"
       refX="0"
       id="Arrow1Lstart"
       style="overflow:visible">
      <path
         id="path5842"
         d="M 0,0 5,-5 -12.5,0 5,5 0,0 Z"
         style="fill:#000000;fill-opacity:1;fill-rule:evenodd;stroke:#000000;stroke-width:1pt;stroke-opacity:1"
         transform="matrix(0.8,0,0,0.8,10,0)" />
    </marker>
    <marker
       orient="auto"
       refY="0"
       refX="0"
       id="TriangleInM-6"
       style="overflow:visible">
      <path
         id="path5978-6"
         d="m 5.77,0 -8.65,5 0,-10 8.65,5 z"
         style="fill:#000000;fill-opacity:1;fill-rule:evenodd;stroke:#000000;stroke-width:1pt;stroke-opacity:1"
         transform="scale(-0.4,-0.4)" />
    </marker>
    <marker
       orient="auto"
       refY="0"
       refX="0"
       id="TriangleOutM-4"
       style="overflow:visible">
      <path
         id="path5987-0"
         d="m 5.77,0 -8.65,5 0,-10 8.65,5 z"
         style="fill:#000000;fill-opacity:1;fill-rule:evenodd;stroke:#000000;stroke-width:1pt;stroke-opacity:1"
         transform="scale(0.4,0.4)" />
    </marker>
    <marker
       orient="auto"
       refY="0"
       refX="0"
       id="TriangleInM-6-4"
       style="overflow:visible">
      <path
         id="path5978-6-6"
         d="m 5.77,0 -8.65,5 0,-10 8.65,5 z"
         style="fill:#000000;fill-opacity:1;fill-rule:evenodd;stroke:#000000;stroke-width:1pt;stroke-opacity:1"
         transform="scale(-0.4,-0.4)" />
    </marker>
    <marker
       orient="auto"
       refY="0"
       refX="0"
       id="TriangleOutM-4-2"
       style="overflow:visible">
      <path
         id="path5987-0-6"
         d="m 5.77,0 -8.65,5 0,-10 8.65,5 z"
         style="fill:#000000;fill-opacity:1;fill-rule:evenodd;stroke:#000000;stroke-width:1pt;stroke-opacity:1"
         transform="scale(0.4,0.4)" />
    </marker>
    <marker
       orient="auto"
       refY="0"
       refX="0"
       id="TriangleInM-6-4-5"
       style="overflow:visible">
      <path
         id="path5978-6-6-6"
         d="m 5.77,0 -8.65,5 0,-10 8.65,5 z"
         style="fill:#000000;fill-opacity:1;fill-rule:evenodd;stroke:#000000;stroke-width:1pt;stroke-opacity:1"
         transform="scale(-0.4,-0.4)" />
    </marker>
    <marker
       orient="auto"
       refY="0"
       refX="0"
       id="TriangleOutM-4-2-9"
       style="overflow:visible">
      <path
         id="path5987-0-6-8"
         d="m 5.77,0 -8.65,5 0,-10 8.65,5 z"
         style="fill:#000000;fill-opacity:1;fill-rule:evenodd;stroke:#000000;stroke-width:1pt;stroke-opacity:1"
         transform="scale(0.4,0.4)" />
    </marker>
  </defs>
  <metadata
     id="metadata7">
    <rdf:RDF>
      <cc:Work
         rdf:about="">
        <dc:format>image/svg+xml</dc:format>
        <dc:type
           rdf:resource="http://purl.org/dc/dcmitype/StillImage" />
        <dc:title></dc:title>
      </cc:Work>
    </rdf:RDF>
  </metadata>
  <rect
     style="color:#000000;clip-rule:nonzero;display:inline;overflow:visible;visibility:visible;opacity:0.77999998;isolation:auto;mix-blend-mode:normal;color-interpolation:sRGB;color-interpolation-filters:linearRGB;solid-color:#000000;solid-opacity:1;fill:none;fill-opacity:1;fill-rule:nonzero;stroke:none;stroke-width:1.93398225;stroke-linecap:round;stroke-linejoin:miter;stroke-miterlimit:4;stroke-dasharray:none;stroke-dashoffset:0;stroke-opacity:1;color-rendering:auto;image-rendering:auto;shape-rendering:auto;text-rendering:auto;enable-background:accumulate"
     id="rect3374"
     width="1401.6765"
     height="724.54333"
     x="0"
     y="0"
     rx="6.8494153"
     ry="2.1403706" />
  <g
     id="g3394"
     transform="translate(465.36408,5.6116378)">
    <circle
       style="color:#000000;clip-rule:nonzero;display:inline;overflow:visible;visibility:visible;opacity:1;isolation:auto;mix-blend-mode:normal;color-interpolation:sRGB;color-interpolation-filters:linearRGB;solid-color:#000000;solid-opacity:1;fill:#000000;fill-opacity:1;fill-rule:nonzero;stroke:none;stroke-width:1;stroke-linecap:butt;stroke-linejoin:miter;stroke-miterlimit:4;stroke-dasharray:none;stroke-dashoffset:0;stroke-opacity:1;color-rendering:auto;image-rendering:auto;shape-rendering:auto;text-rendering:auto;enable-background:accumulate"
       id="path5512-5"
       cx="240.17711"
       cy="361.13892"
       r="10.563706" />
    <path
       style="opacity:0.77999998;fill:none;fill-opacity:1;fill-rule:evenodd;stroke:#000000;stroke-width:3;stroke-linecap:round;stroke-linejoin:miter;stroke-miterlimit:20;stroke-dasharray:12, 24;stroke-dashoffset:0;stroke-opacity:1;marker-start:url(#TriangleInM);marker-end:url(#TriangleOutM)"
       d="m 5.2769,627.6211 c 0,0 102.1158,-262.332 230.6409,-267.6139 128.5251,-5.2818 223.5985,272.8958 223.5985,272.8958"
       id="path5836" />
    <path
       style="opacity:0.77999998;fill:none;fill-opacity:1;fill-rule:evenodd;stroke:#000000;stroke-width:3;stroke-linecap:round;stroke-linejoin:miter;stroke-miterlimit:20;stroke-dasharray:12, 24;stroke-dashoffset:0;stroke-opacity:1;marker-start:url(#TriangleInM-6);marker-end:url(#TriangleOutM-4)"
       d="m 11.1617,93.1555 c 0,0 102.1158,262.332 230.6409,267.6139 128.5251,5.2818 223.5985,-272.8958 223.5985,-272.8958"
       id="path5836-0" />
    <path
       style="opacity:0.77999998;fill:none;fill-opacity:1;fill-rule:evenodd;stroke:#000000;stroke-width:3;stroke-linecap:round;stroke-linejoin:miter;stroke-miterlimit:20;stroke-dasharray:12, 24;stroke-dashoffset:0;stroke-opacity:1;marker-start:url(#TriangleInM-6-4);marker-end:url(#TriangleOutM-4-2)"
       d="m 111.517,22.2521 c 0,0 46.0665,341.9998 135.5675,341.5598 C 314.1953,363.482 403.7795,8.1671 403.7795,8.1671"
       id="path5836-0-7" />
    <path
       style="opacity:0.77999998;fill:none;fill-opacity:1;fill-rule:evenodd;stroke:#000000;stroke-width:3;stroke-linecap:round;stroke-linejoin:miter;stroke-miterlimit:20;stroke-dasharray:12, 24;stroke-dashoffset:0;stroke-opacity:1;marker-start:url(#TriangleInM-6-4-5);marker-end:url(#TriangleOutM-4-2-9)"
       d="m 108.6817,699.7207 c 0,0 46.0665,-341.9998 135.5676,-341.5598 67.1108,0.3299 156.695,355.6448 156.695,355.6448"
       id="path5836-0-7-7" />
  </g>
  <g
     transform="translate(298.51961,5.6116517)"
     id="g3375">
    <path
       style="color:#000000;clip-rule:nonzero;display:inline;overflow:visible;visibility:visible;opacity:0.77999998;isolation:auto;mix-blend-mode:normal;color-interpolation:sRGB;color-interpolation-filters:linearRGB;solid-color:#000000;solid-opacity:1;fill:none;fill-opacity:1;fill-rule:nonzero;stroke:#000000;stroke-width:0.77813363;stroke-linecap:round;stroke-linejoin:miter;stroke-miterlimit:20;stroke-dasharray:none;stroke-dashoffset:0;stroke-opacity:1;color-rendering:auto;image-rendering:auto;shape-rendering:auto;text-rendering:auto;enable-background:accumulate"
       id="path8251"
       d="m 619.68837,313.41059 c 0.3203,-0.4275 0.6883,-0.7927 1.0663,-1.1405 0.5603,-0.5048 1.0854,-1.0637 1.6241,-1.6016 0.7557,-0.7596 1.5016,-1.5328 2.2765,-2.2631 0.6795,-0.6839 1.3968,-1.3073 2.1027,-1.9484 0.539,-0.5488 1.1421,-0.9745 1.7681,-1.3534 0.5937,-0.3565 1.2231,-0.5917 1.8714,-0.7395 0.5371,-0.1295 1.0784,-0.1748 1.6243,-0.1641 0.3506,0 0.7007,0.032 1.0199,0.2191 0.3122,0.2114 0.3879,0.5536 0.3484,0.9629 -0.1455,0.6735 -0.5028,1.2276 -0.8204,1.7912 -0.4167,0.731 -0.828,1.4664 -1.2438,2.1981 -0.4591,0.7712 -0.9333,1.5288 -1.3993,2.2939 -0.4122,0.7199 -0.7916,1.4693 -1.1577,2.2257 -0.2717,0.5304 -0.4719,1.1047 -0.54,1.7264 -0.055,0.3916 0.072,0.7124 0.2242,1.0432 0.1381,0.3278 0.3473,0.5623 0.6052,0.7431 0.4173,0.184 0.8674,-0.103 1.2566,-0.2804 0.6551,-0.3186 1.2783,-0.7075 1.8846,-1.1455 0.7731,-0.5807 1.5226,-1.2049 2.2433,-1.8785 0.7206,-0.7034 1.4102,-1.4482 2.0811,-2.2209 0.7888,-0.8887 1.5689,-1.7889 2.3745,-2.6549 0.6747,-0.7555 1.3633,-1.4941 2.0121,-2.283 0.4502,-0.5667 0.8174,-1.2173 1.1959,-1.8544 0.2759,-0.4645 0.5587,-0.9223 0.8061,-1.4106 0.1584,-0.3199 0.3107,-0.6443 0.4631,-0.9685 0.2147,-0.4369 0.1413,-0.5733 0.6226,-0.3584 0.1246,0.6 0.055,1.2468 0.043,1.8625 0,1.2592 -0.076,2.5137 -0.1985,3.7632 -0.2191,1.9458 -0.573,3.8638 -0.9929,5.7581 -0.4707,2.1424 -1.1545,4.1978 -1.9055,6.2128 -0.7581,1.991 -1.688,3.8691 -2.6561,5.7151 -0.8373,1.5848 -1.7959,3.061 -2.7863,4.5047 -0.9052,1.3004 -1.8995,2.4991 -2.9204,3.6621 -0.9123,1.0617 -1.8995,2.0183 -2.9672,2.8339 -1.0078,0.7666 -2.1062,1.2794 -3.2512,1.6353 -0.9101,0.2558 -1.8383,0.3182 -2.768,0.2715 -0.6892,2e-4 -1.3275,-0.2011 -1.9184,-0.6272 -0.5129,-0.4105 -0.838,-1.0275 -1.132,-1.6668 -0.3322,-0.6824 -0.4041,-1.3709 -0.2772,-2.1389 0.2974,-1.1349 0.9474,-2.0406 1.6007,-2.8956 0.8559,-1.0691 1.7667,-2.0723 2.7083,-3.0272 1.0253,-1.0399 2.1778,-1.8604 3.355,-2.6119 1.1801,-0.7232 2.4166,-1.2828 3.6814,-1.7366 1.0407,-0.4194 2.112,-0.504 3.1961,-0.4034 1.0613,0.1371 2.1106,0.3844 3.1658,0.5779 1.0803,0.2188 2.1703,0.3016 3.2631,0.346 1.0355,0 2.0704,-0.062 3.1048,-0.1143 0.9311,-0.017 1.7982,-0.2697 2.6464,-0.724 0.175,-0.1181 0.3499,-0.236 0.5248,-0.3541 0,0 0.1992,0.4423 0.1992,0.4423 l 0,0 c -0.1863,0.1248 -0.3725,0.2497 -0.5589,0.3746 -0.896,0.4754 -1.8123,0.7478 -2.7946,0.7656 -1.0446,0.052 -2.0897,0.1146 -3.1355,0.1145 -1.1087,-0.045 -2.2145,-0.1298 -3.3106,-0.3513 -1.0454,-0.1917 -2.085,-0.4363 -3.1362,-0.5739 -1.0342,-0.098 -2.0553,-0.017 -3.0481,0.3845 -1.239,0.4441 -2.4502,0.9921 -3.6065,1.6998 -1.1517,0.7343 -2.2794,1.5361 -3.2825,2.5529 -0.9284,0.941 -1.8259,1.9301 -2.6703,2.9833 -0.6025,0.7869 -1.2083,1.6176 -1.4982,2.6554 -0.118,0.6462 -0.046,1.2118 0.2332,1.7872 0.2577,0.5622 0.5357,1.1133 0.9832,1.4803 0.5288,0.39 1.1051,0.5558 1.7241,0.5565 0.8897,0.045 1.7779,-0.013 2.6493,-0.2564 1.1039,-0.342 2.1624,-0.8355 3.134,-1.5743 1.046,-0.797 2.011,-1.7363 2.9044,-2.775 1.0086,-1.1488 1.991,-2.3326 2.8855,-3.6171 0.9791,-1.4272 1.9272,-2.8861 2.755,-4.4527 0.9576,-1.8258 1.8779,-3.6829 2.628,-5.652 0.742,-1.9899 1.4177,-4.0198 1.8828,-6.1356 0.4149,-1.8705 0.7643,-3.7647 0.9813,-5.6861 0.1211,-1.2333 0.1964,-2.4716 0.1957,-3.7147 0.01,-0.5137 0.01,-1.0452 0.038,-1.5504 0.3785,-0.029 0.2227,-0.079 0.067,0.3094 -0.1547,0.3291 -0.3092,0.6583 -0.4702,0.983 -0.2529,0.4986 -0.5405,0.9671 -0.8229,1.4413 -0.3914,0.6589 -0.7722,1.3309 -1.2388,1.9157 -0.6553,0.7956 -1.3493,1.5423 -2.0306,2.304 -0.8021,0.8622 -1.5786,1.7587 -2.364,2.6432 -0.6812,0.7847 -1.3816,1.5408 -2.1136,2.2547 -0.7338,0.6855 -1.4967,1.3213 -2.2841,1.9121 -0.6272,0.4528 -1.2725,0.8547 -1.9504,1.1839 -0.5148,0.2344 -1.0697,0.543 -1.6093,0.2432 -0.3189,-0.2312 -0.5836,-0.5246 -0.7572,-0.9324 -0.1948,-0.4268 -0.3406,-0.8593 -0.2728,-1.3601 0.082,-0.6866 0.2897,-1.3263 0.5936,-1.9132 0.3737,-0.7715 0.7604,-1.5362 1.1818,-2.2701 0.4634,-0.7607 0.9347,-1.5139 1.3913,-2.2804 0.4156,-0.7311 0.8266,-1.466 1.2429,-2.1964 0.2821,-0.5007 0.6007,-0.9896 0.752,-1.5777 0.031,-0.1903 0.024,-0.3355 -0.1273,-0.4403 -0.2491,-0.1754 -0.5629,-0.1451 -0.8391,-0.164 -0.5184,-0.011 -1.0321,0.032 -1.5421,0.1556 -0.6111,0.138 -1.2038,0.3602 -1.7636,0.6955 -0.604,0.3653 -1.1857,0.7755 -1.705,1.3062 -0.704,0.6392 -1.4191,1.2612 -2.0969,1.9429 -0.7719,0.7274 -1.5145,1.4981 -2.2673,2.2544 -0.543,0.542 -1.0721,1.1053 -1.637,1.6139 -0.3506,0.3225 -0.6921,0.6597 -0.9922,1.0526 0,0 -0.3226,-0.3154 -0.3226,-0.3154 z" />
    <path
       style="color:#000000;clip-rule:nonzero;display:inline;overflow:visible;visibility:visible;opacity:0.77999998;isolation:auto;mix-blend-mode:normal;color-interpolation:sRGB;color-interpolation-filters:linearRGB;solid-color:#000000;solid-opacity:1;fill:none;fill-opacity:1;fill-rule:nonzero;stroke:#000000;stroke-width:0.77813363;stroke-linecap:round;stroke-linejoin:miter;stroke-miterlimit:20;stroke-dasharray:none;stroke-dashoffset:0;stroke-opacity:1;color-rendering:auto;image-rendering:auto;shape-rendering:auto;text-rendering:auto;enable-background:accumulate"
       id="path8253"
       d="m 655.72177,305.32489 c 0.5567,-0.099 1.1183,-0.1473 1.6793,-0.1942 0.7885,-0.052 1.5764,-0.087 2.3626,-0.1784 0.7631,-0.071 1.5195,-0.1958 2.2749,-0.3428 0.6035,-0.1207 1.209,-0.2275 1.8142,-0.3352 0.4634,-0.058 0.9191,-0.1547 1.3737,-0.2764 0.192,-0.052 0.3837,-0.1062 0.5754,-0.1602 0,0 0.093,0.4919 0.093,0.4919 l 0,0 c -0.1931,0.054 -0.3863,0.109 -0.5798,0.1615 -0.464,0.1242 -0.9295,0.2235 -1.4024,0.2828 -0.6035,0.1073 -1.2072,0.2138 -1.8089,0.3343 -0.764,0.1485 -1.5291,0.2744 -2.3009,0.3467 -0.7898,0.091 -1.5812,0.1277 -2.3733,0.1795 -0.5477,0.046 -1.0959,0.093 -1.6396,0.1884 0,0 -0.068,-0.4979 -0.068,-0.4979 z" />
    <path
       style="color:#000000;clip-rule:nonzero;display:inline;overflow:visible;visibility:visible;opacity:0.77999998;isolation:auto;mix-blend-mode:normal;color-interpolation:sRGB;color-interpolation-filters:linearRGB;solid-color:#000000;solid-opacity:1;fill:none;fill-opacity:1;fill-rule:nonzero;stroke:#000000;stroke-width:0.77813363;stroke-linecap:round;stroke-linejoin:miter;stroke-miterlimit:20;stroke-dasharray:none;stroke-dashoffset:0;stroke-opacity:1;color-rendering:auto;image-rendering:auto;shape-rendering:auto;text-rendering:auto;enable-background:accumulate"
       id="path8255"
       d="m 657.44187,310.41499 c 0.3621,0.018 0.7247,0.01 1.087,0 0.4602,-0.01 0.9172,-0.099 1.3743,-0.1628 0.4429,-0.064 0.8868,-0.1162 1.3314,-0.1607 0.5033,-0.096 1.0058,-0.1918 1.5042,-0.3215 0.4568,-0.122 0.9126,-0.2502 1.3684,-0.378 0.2828,-0.08 0.5651,-0.1623 0.8506,-0.2271 0.202,-0.044 0.4045,-0.086 0.607,-0.1275 0.1248,-0.025 0.2489,-0.054 0.3744,-0.073 0.1862,-0.01 0.3618,-0.083 0.5381,-0.1496 0.1918,-0.083 0.39,-0.1384 0.5881,-0.1932 0.1156,-0.034 0.2538,-0.06 0.3547,-0.106 0.075,-0.061 0,-0.01 0.01,-0.014 0,0 0.3347,0.2957 0.3347,0.2957 l 0,0 c -0.092,0.1286 -0.043,0.076 -0.1449,0.1632 -0.1464,0.081 -0.3021,0.1121 -0.459,0.1536 -0.1875,0.052 -0.3753,0.1039 -0.5568,0.1829 -0.1997,0.076 -0.4002,0.1579 -0.6108,0.1687 -0.1193,0.017 -0.2371,0.047 -0.3557,0.069 -0.2002,0.041 -0.4003,0.082 -0.6001,0.1259 -0.2797,0.063 -0.5564,0.1443 -0.8335,0.2228 -0.458,0.1285 -0.9158,0.2572 -1.3748,0.3798 -0.5156,0.1341 -1.0355,0.2336 -1.5565,0.3309 -0.4403,0.044 -0.8801,0.095 -1.3188,0.1591 -0.4712,0.065 -0.9424,0.159 -1.417,0.1661 -0.3861,0 -0.7729,0.018 -1.1585,-0.011 0,0 0.068,-0.498 0.068,-0.498 z" />
    <path
       style="color:#000000;clip-rule:nonzero;display:inline;overflow:visible;visibility:visible;opacity:0.77999998;isolation:auto;mix-blend-mode:normal;color-interpolation:sRGB;color-interpolation-filters:linearRGB;solid-color:#000000;solid-opacity:1;fill:none;fill-opacity:1;fill-rule:nonzero;stroke:#000000;stroke-width:0.77813363;stroke-linecap:round;stroke-linejoin:miter;stroke-miterlimit:20;stroke-dasharray:none;stroke-dashoffset:0;stroke-opacity:1;color-rendering:auto;image-rendering:auto;shape-rendering:auto;text-rendering:auto;enable-background:accumulate"
       id="path8263"
       d="m 694.89267,293.74789 c -0.5534,0.1012 -1.0904,0.3105 -1.6201,0.5255 -0.7913,0.3071 -1.56,0.6906 -2.3333,1.0577 -0.8393,0.3905 -1.622,0.93 -2.3976,1.4773 -0.9946,0.715 -1.9741,1.4599 -2.915,2.2768 -0.9301,0.7971 -1.7449,1.766 -2.5148,2.7812 -0.7646,1.03 -1.3865,2.201 -1.8968,3.4405 -0.3906,0.9402 -0.6281,1.9493 -0.7403,2.991 -0.078,0.8404 0.085,1.5888 0.4394,2.3008 0.4198,0.6933 1.0074,1.1556 1.6137,1.5707 0.6135,0.3979 1.2364,0.7515 1.9372,0.7935 0.8676,-0.091 1.5575,-0.7973 2.2333,-1.4051 0.8578,-0.8014 1.6866,-1.6474 2.5269,-2.4757 0.7173,-0.6927 1.3788,-1.4483 1.9733,-2.2955 0.5501,-0.8001 0.9699,-1.7135 1.3992,-2.6125 0.3551,-0.7045 0.594,-1.4818 0.8055,-2.2641 0.1708,-0.6297 0.2935,-1.2759 0.4117,-1.9226 0.097,-0.5145 0.1695,-1.0353 0.23,-1.5581 0.034,-0.5299 0.1332,-1.046 0.2317,-1.562 0.082,-0.4239 0.1318,-0.857 0.2286,-1.2764 0.08,-0.327 0.1925,-0.6403 0.2788,-0.9645 0.106,-0.2845 0.2267,-0.5587 0.3292,-0.8454 0.071,-0.2023 0.1407,-0.4057 0.2101,-0.609 0.057,-0.1472 0.088,-0.3039 0.1427,-0.4519 0.086,-0.1657 0.1529,-0.3456 0.2219,-0.5228 0.056,-0.1484 0.102,-0.295 0.2009,-0.4079 0.5089,0.1909 0.384,0.5199 0.3216,1.0232 -0.035,0.4187 -0.1786,0.8052 -0.2988,1.1948 -0.1872,0.5117 -0.3456,1.0357 -0.4699,1.575 -0.148,0.7354 -0.2851,1.4747 -0.4446,2.2065 -0.1722,0.7118 -0.3272,1.429 -0.4504,2.1559 -0.111,0.7271 -0.2159,1.4575 -0.2516,2.1966 -0.039,0.7011 0.07,1.3894 0.1927,2.0698 0.1749,0.6789 0.3042,1.3725 0.4535,2.0597 0.1474,0.6961 0.3145,1.3833 0.5054,2.0633 0.1141,0.5652 0.2992,1.0622 0.588,1.5216 0.168,0.2377 0.373,0.2927 0.6185,0.2886 0,0 -0.011,0.5047 -0.011,0.5047 l 0,0 c -0.3717,-0.023 -0.6863,-0.1195 -0.9357,-0.4865 -0.314,-0.5033 -0.5253,-1.0477 -0.6506,-1.6645 -0.1941,-0.6913 -0.3641,-1.3901 -0.514,-2.0977 -0.1505,-0.6943 -0.2824,-1.3946 -0.4578,-2.0808 -0.1305,-0.7261 -0.2438,-1.4608 -0.2015,-2.2087 0.038,-0.7632 0.1431,-1.5179 0.2595,-2.2687 0.125,-0.7361 0.2811,-1.4626 0.4557,-2.1835 0.1605,-0.7339 0.297,-1.4759 0.4463,-2.2134 0.128,-0.553 0.2882,-1.0915 0.4809,-1.6161 0.11,-0.3563 0.2447,-0.7092 0.2769,-1.0922 0.047,-0.3774 -0.044,-0.5915 0.3425,-0.551 -0.025,0.077 -0.054,0.1534 -0.084,0.2284 -0.071,0.1801 -0.1375,0.3636 -0.2256,0.5318 -0.042,0.1376 -0.08,0.2841 -0.1307,0.4202 -0.07,0.2059 -0.1406,0.412 -0.2129,0.6169 -0.097,0.2718 -0.2074,0.5345 -0.315,0.8001 -0.086,0.3179 -0.1932,0.6264 -0.2743,0.9463 -0.098,0.4103 -0.1389,0.8379 -0.2234,1.2525 -0.096,0.5015 -0.1937,1.0027 -0.225,1.5179 -0.062,0.5358 -0.1362,1.0698 -0.2359,1.5974 -0.1212,0.663 -0.2475,1.3254 -0.4226,1.971 -0.221,0.8156 -0.4712,1.6252 -0.841,2.3601 -0.4419,0.9252 -0.8752,1.8643 -1.4424,2.6866 -0.6113,0.8704 -1.2904,1.6481 -2.0275,2.3598 -0.8451,0.833 -1.6785,1.684 -2.5415,2.4895 -0.7557,0.6792 -1.5263,1.4384 -2.5018,1.5024 -0.7637,-0.06 -1.4475,-0.4116 -2.1156,-0.8572 -0.6683,-0.4593 -1.3116,-0.9767 -1.7655,-1.7507 -0.3973,-0.814 -0.5853,-1.6721 -0.4948,-2.6277 0.1206,-1.0973 0.3684,-2.1612 0.7809,-3.1517 0.5293,-1.2808 1.1708,-2.4923 1.9628,-3.5565 0.7895,-1.0401 1.6249,-2.0326 2.5785,-2.8495 0.9515,-0.8256 1.9416,-1.5799 2.9475,-2.3024 0.7939,-0.5601 1.5955,-1.1111 2.4546,-1.5107 0.7797,-0.3702 1.555,-0.7566 2.3528,-1.0663 0.5501,-0.2229 1.1078,-0.439 1.6822,-0.5443 0,0 0.068,0.498 0.068,0.498 z" />
    <path
       style="color:#000000;clip-rule:nonzero;display:inline;overflow:visible;visibility:visible;opacity:0.77999998;isolation:auto;mix-blend-mode:normal;color-interpolation:sRGB;color-interpolation-filters:linearRGB;solid-color:#000000;solid-opacity:1;fill:none;fill-opacity:1;fill-rule:nonzero;stroke:#000000;stroke-width:0.77813363;stroke-linecap:round;stroke-linejoin:miter;stroke-miterlimit:20;stroke-dasharray:none;stroke-dashoffset:0;stroke-opacity:1;color-rendering:auto;image-rendering:auto;shape-rendering:auto;text-rendering:auto;enable-background:accumulate"
       id="path8265"
       d="m 704.24077,296.42389 c -0.073,-0.4731 -0.1196,-0.9469 -0.1175,-1.4285 -0.012,-0.4516 0.058,-0.8693 0.2305,-1.2674 0.1867,-0.3955 0.4455,-0.7204 0.7157,-1.0303 0.2028,-0.2323 0.4068,-0.4599 0.6386,-0.6482 0.3564,-0.2286 0.687,-0.1187 1.0253,0.096 0.4369,0.327 0.7985,0.781 1.1667,1.2113 0.4227,0.5277 0.7934,1.1136 1.1544,1.7043 0.3977,0.6549 0.7851,1.3191 1.1641,1.9904 0.3288,0.6104 0.6226,1.2467 0.9264,1.8757 0.2913,0.611 0.578,1.2247 0.8861,1.8234 0.2817,0.5631 0.5781,1.115 0.87,1.6704 0.2648,0.5192 0.5874,0.9865 0.92,1.4417 0.3522,0.4679 0.7131,0.9281 1.0902,1.3665 0.3109,0.378 0.6005,0.7794 0.9292,1.1349 0.2733,0.2563 0.5665,0.4775 0.8486,0.7187 0.2479,0.2344 0.5311,0.3959 0.8161,0.5494 0.2333,0.1349 0.4793,0.2296 0.7251,0.3232 0.2113,0.069 0.4255,0.1252 0.6393,0.1818 0.1486,-0.018 0.2954,-0.054 0.4431,-0.081 0.1455,-0.026 0.3119,-0.087 0.4255,-0.2066 0.1541,-0.1351 0.3108,-0.2655 0.4673,-0.3963 0.1147,-0.082 0.2074,-0.1835 0.2936,-0.3064 0.1443,-0.2178 0.2905,-0.4339 0.4364,-0.6505 0.104,-0.1543 0.2079,-0.3085 0.312,-0.4629 0.059,-0.087 0.1179,-0.175 0.1769,-0.2625 0.062,-0.086 0.038,-0.051 0.061,-0.1439 0.021,-0.1546 0.07,-0.2751 0.1477,-0.4016 0,0 0.3156,0.3255 0.3156,0.3255 l 0,0 c -0.023,0.058 -0.061,0.1382 -0.067,0.2198 -0.029,0.1181 -0.065,0.232 -0.138,0.3211 -0.059,0.087 -0.118,0.1751 -0.177,0.2626 -0.104,0.1543 -0.208,0.3086 -0.3119,0.4629 -0.149,0.2212 -0.2982,0.4424 -0.4463,0.6646 -0.1101,0.1484 -0.2272,0.2857 -0.3693,0.3882 -0.152,0.1269 -0.3043,0.2536 -0.4541,0.3844 -0.1812,0.1552 -0.3903,0.2703 -0.612,0.3012 -0.1958,0.035 -0.3916,0.097 -0.5905,0.075 -0.2258,-0.06 -0.4519,-0.1184 -0.6747,-0.1932 -0.2607,-0.099 -0.5213,-0.2008 -0.769,-0.3433 -0.3094,-0.1669 -0.6161,-0.3444 -0.8861,-0.5976 -0.2949,-0.2522 -0.6027,-0.4822 -0.8858,-0.7545 -0.3321,-0.36 -0.6272,-0.7632 -0.9403,-1.1473 -0.3845,-0.4486 -0.7541,-0.9173 -1.1135,-1.3958 -0.3467,-0.4752 -0.6826,-0.9637 -0.9593,-1.5051 -0.2924,-0.5568 -0.5896,-1.1101 -0.872,-1.6744 -0.3102,-0.6028 -0.5989,-1.2205 -0.8922,-1.8357 -0.2988,-0.6187 -0.5878,-1.2446 -0.9107,-1.8455 -0.3759,-0.6662 -0.7604,-1.3252 -1.1551,-1.9751 -0.347,-0.5685 -0.7036,-1.1322 -1.1088,-1.6413 -0.3408,-0.3983 -0.6748,-0.8194 -1.0744,-1.1301 -0.1997,-0.1327 -0.3809,-0.2361 -0.6042,-0.1209 -0.2129,0.1714 -0.3972,0.3839 -0.584,0.5953 -0.2384,0.2732 -0.4692,0.5562 -0.6357,0.904 -0.1484,0.3188 -0.1866,0.6642 -0.18,1.0289 0,0.4525 0.043,0.8973 0.1118,1.342 0,0 -0.4074,0.083 -0.4074,0.083 z" />
    <path
       style="color:#000000;clip-rule:nonzero;display:inline;overflow:visible;visibility:visible;opacity:0.77999998;isolation:auto;mix-blend-mode:normal;color-interpolation:sRGB;color-interpolation-filters:linearRGB;solid-color:#000000;solid-opacity:1;fill:none;fill-opacity:1;fill-rule:nonzero;stroke:#000000;stroke-width:0.77813363;stroke-linecap:round;stroke-linejoin:miter;stroke-miterlimit:20;stroke-dasharray:none;stroke-dashoffset:0;stroke-opacity:1;color-rendering:auto;image-rendering:auto;shape-rendering:auto;text-rendering:auto;enable-background:accumulate"
       id="path8267"
       d="m 718.56687,291.74109 c -0.5246,0.677 -1.033,1.371 -1.5245,2.0843 -0.9808,1.4245 -1.9714,2.8389 -2.913,4.3028 -1.2144,1.8641 -2.3561,3.7957 -3.4516,5.7662 -0.9734,1.7722 -1.9219,3.5647 -2.88,5.3493 -5.2329,8.3399 0.6303,-2.1549 2.5383,-5.6331 1.1011,-1.9801 2.2481,-3.9211 3.4686,-5.7945 0.9446,-1.4682 1.9377,-2.8872 2.9217,-4.3159 0.4992,-0.7242 1.0155,-1.4288 1.5485,-2.116 z" />
    <path
       style="color:#000000;clip-rule:nonzero;display:inline;overflow:visible;visibility:visible;opacity:0.77999998;isolation:auto;mix-blend-mode:normal;color-interpolation:sRGB;color-interpolation-filters:linearRGB;solid-color:#000000;solid-opacity:1;fill:none;fill-opacity:1;fill-rule:nonzero;stroke:#000000;stroke-width:0.77813363;stroke-linecap:round;stroke-linejoin:miter;stroke-miterlimit:20;stroke-dasharray:none;stroke-dashoffset:0;stroke-opacity:1;color-rendering:auto;image-rendering:auto;shape-rendering:auto;text-rendering:auto;enable-background:accumulate"
       id="path8271"
       d="m 726.53807,271.31799 c -0.2885,-0.501 -0.5397,-1.0309 -0.75,-1.5867 -0.2883,-0.7348 -0.3236,-1.5359 -0.3084,-2.3356 0.017,-0.9316 0.3451,-1.6687 0.8534,-2.334 0.7019,-0.8016 1.5405,-1.3911 2.3527,-2.0071 0.6657,-0.5139 1.3405,-1.0076 2.0912,-1.3081 0.6927,-0.2348 1.3639,-0.066 2.0227,0.2233 0.656,0.2974 1.1401,0.8783 1.6146,1.4792 0.4263,0.5306 0.7714,1.1217 1.0127,1.8032 0.2379,0.9157 0.2301,1.8884 0.2087,2.8388 -0.052,1.0601 -0.084,2.1232 -0.1726,3.1799 -0.047,1.0473 -0.3469,2.0048 -0.7019,2.9453 -0.437,1.0531 -0.9891,2.02 -1.5559,2.9725 -0.5456,0.9408 -1.2255,1.7195 -1.9586,2.4348 -0.6816,0.6374 -1.4051,1.2041 -2.1478,1.7283 -0.5703,0.4058 -1.1963,0.5884 -1.8461,0.6637 -0.5071,0.028 -1.0081,-0.078 -1.4872,-0.275 -0.4397,-0.1687 -0.676,-0.5535 -0.8187,-1.0667 -0.1307,-0.4999 -0.1004,-1.0137 0,-1.5145 0.1712,-0.6347 0.5802,-1.0231 1.0348,-1.3472 0.6505,-0.412 1.3714,-0.6001 2.0833,-0.7795 0.8051,-0.1759 1.6207,-0.182 2.4293,-0.052 0.7045,0.099 1.3712,0.3605 2.0237,0.6881 0.6197,0.3133 1.2183,0.6849 1.8267,1.0289 0.6612,0.3452 1.345,0.6218 2.0246,0.9074 0.5861,0.2356 1.1761,0.4562 1.7715,0.654 0.3162,0.069 0.1604,0.047 0.4672,0.07 0,0 -0.028,0.5037 -0.028,0.5037 l 0,0 c -0.365,-0.032 -0.1824,0 -0.5481,-0.086 -0.604,-0.2008 -1.2027,-0.4245 -1.7973,-0.6638 -0.6929,-0.2911 -1.3902,-0.5733 -2.0638,-0.9266 -0.6029,-0.3413 -1.1964,-0.7092 -1.8104,-1.0202 -0.6194,-0.3121 -1.2516,-0.5609 -1.9208,-0.6545 -0.7625,-0.1252 -1.5322,-0.1167 -2.2917,0.046 -0.6687,0.1682 -1.3469,0.3412 -1.9602,0.7222 -0.3594,0.2502 -0.6955,0.5425 -0.8415,1.0371 -0.089,0.4044 -0.114,0.8237 -0.011,1.2292 0.095,0.3677 0.2422,0.6303 0.5599,0.7471 0.4224,0.1793 0.8675,0.2676 1.3152,0.2501 0.5908,-0.067 1.1594,-0.2287 1.6781,-0.5982 0.725,-0.5112 1.431,-1.0645 2.0967,-1.6857 0.7046,-0.6868 1.3584,-1.4327 1.8822,-2.3373 0.5511,-0.9257 1.0886,-1.8646 1.5149,-2.8871 0.3369,-0.8902 0.6232,-1.7932 0.666,-2.7856 0.089,-1.044 0.1179,-2.0947 0.1706,-3.1421 0.021,-0.8774 0.03,-1.776 -0.1754,-2.6256 -0.2179,-0.6272 -0.5409,-1.1637 -0.9303,-1.6516 -0.4306,-0.5453 -0.8626,-1.0825 -1.4581,-1.3552 -0.5705,-0.2542 -1.1513,-0.4151 -1.7544,-0.2177 -0.7201,0.2831 -1.362,0.7695 -2.001,1.2569 -0.7819,0.5931 -1.5897,1.1594 -2.27,1.9247 -0.4439,0.5679 -0.7255,1.195 -0.741,1.9994 -0.015,0.7226 0.01,1.4474 0.2706,2.1121 0.1955,0.5194 0.431,1.0128 0.6975,1.4828 0,0 -0.3226,0.3154 -0.3226,0.3154 z" />
    <path
       style="color:#000000;clip-rule:nonzero;display:inline;overflow:visible;visibility:visible;opacity:0.77999998;isolation:auto;mix-blend-mode:normal;color-interpolation:sRGB;color-interpolation-filters:linearRGB;solid-color:#000000;solid-opacity:1;fill:#000000;fill-opacity:1;fill-rule:nonzero;stroke:#000000;stroke-width:0.5;stroke-linecap:round;stroke-linejoin:miter;stroke-miterlimit:20;stroke-dasharray:none;stroke-dashoffset:0;stroke-opacity:1;color-rendering:auto;image-rendering:auto;shape-rendering:auto;text-rendering:auto;enable-background:accumulate"
       id="path8301"
       d="m 580.09597,368.86489 c 0.1592,-0.3185 0.3184,-0.6369 0.4776,-0.9555 0.075,-0.1292 0.2144,-0.4427 0.237,-0.4977 0.111,0.183 -0.04,0.1633 -0.2138,0.2407 -0.8345,0.4095 -1.5141,1.0614 -2.1687,1.7078 -1.3404,1.3331 -2.3337,2.9354 -3.1964,4.6037 -1.0842,2.275 -1.5978,4.7444 -1.9784,7.2181 -0.454,2.869 -0.2888,5.7464 0.1499,8.6011 0.5747,3.1624 1.6702,6.1912 2.8806,9.1576 1.1406,2.8088 2.5589,5.4812 4.2728,7.979 0.6919,1.038 1.5847,1.8866 2.501,2.7181 0,0 -0.2825,0.311 -0.2825,0.311 l 0,0 c -0.9392,-0.8546 -1.8551,-1.7263 -2.5651,-2.7914 -1.7297,-2.5233 -3.164,-5.221 -4.3153,-8.058 -1.2225,-2.997 -2.3282,-6.0572 -2.9069,-9.2526 -0.444,-2.8971 -0.611,-5.8173 -0.1498,-8.7288 0.3882,-2.5186 0.9137,-5.0321 2.0204,-7.3472 0.8843,-1.7069 1.9018,-3.3461 3.2746,-4.7098 0.6915,-0.6815 1.4107,-1.3659 2.2942,-1.7931 0.2727,-0.1194 0.715,-0.2994 0.8037,0.1362 -0.024,0.2552 -0.1739,0.4641 -0.2813,0.6933 -0.1593,0.3184 -0.3186,0.637 -0.4778,0.9554 0,0 -0.3758,-0.1879 -0.3758,-0.1879 z" />
    <path
       style="color:#000000;clip-rule:nonzero;display:inline;overflow:visible;visibility:visible;opacity:0.77999998;isolation:auto;mix-blend-mode:normal;color-interpolation:sRGB;color-interpolation-filters:linearRGB;solid-color:#000000;solid-opacity:1;fill:#000000;fill-opacity:1;fill-rule:nonzero;stroke:#000000;stroke-width:0.5;stroke-linecap:round;stroke-linejoin:miter;stroke-miterlimit:20;stroke-dasharray:none;stroke-dashoffset:0;stroke-opacity:1;color-rendering:auto;image-rendering:auto;shape-rendering:auto;text-rendering:auto;enable-background:accumulate"
       id="path8303"
       d="m 589.13317,383.96019 c -0.2888,-0.3266 -0.662,-0.5537 -1.0624,-0.7159 -0.4828,-0.1944 -0.9869,-0.2004 -1.4905,-0.1028 -0.6132,0.1563 -1.1124,0.5562 -1.5665,0.9793 -0.5247,0.4997 -0.9529,1.0882 -1.3424,1.6961 -0.4569,0.7487 -0.7623,1.5636 -1.0231,2.3967 -0.276,0.9513 -0.2964,1.9165 -0.076,2.8765 0.3075,1.0515 0.9886,1.885 1.7546,2.6397 0.8842,0.814 1.9501,1.3542 3.0576,1.7916 1.0479,0.3784 2.1482,0.5494 3.2573,0.589 1.1636,0.038 2.2224,-0.2868 3.2317,-0.8384 1.1293,-0.6675 2.0026,-1.6429 2.8066,-2.6609 0.677,-0.8211 1.2021,-1.7274 1.5925,-2.7137 0.3453,-0.9616 0.536,-1.9715 0.6043,-2.9889 0.038,-0.8177 -0.089,-1.6062 -0.3658,-2.3723 -0.2887,-0.7019 -0.7298,-1.3183 -1.2153,-1.8954 -0.4919,-0.5572 -1.0309,-1.0579 -1.6397,-1.4838 -0.5381,-0.3465 -1.1042,-0.6451 -1.6889,-0.9041 -0.5032,-0.2296 -1.0367,-0.3772 -1.5721,-0.5089 -0.5378,-0.1261 -1.0806,-0.2177 -1.6323,-0.2442 -0.4494,-0.039 -0.8803,0.01 -1.3023,0.1667 -0.417,0.1701 -0.715,0.4976 -0.9825,0.8472 -0.2685,0.3712 -0.4204,0.7857 -0.4394,1.2416 0.029,0.4917 0.2634,0.9249 0.5715,1.2974 0.4274,0.4635 0.9809,0.7477 1.5542,0.9863 0.7675,0.2934 1.5727,0.4463 2.3857,0.5402 0.9536,0.1263 1.9112,0.019 2.8604,-0.089 1.1382,-0.1562 2.2552,-0.441 3.3572,-0.7608 1.15,-0.3121 2.1936,-0.8384 3.1819,-1.4918 0.872,-0.5908 1.6332,-1.3047 2.2829,-2.1306 0.4387,-0.5511 0.7389,-1.1908 1.0029,-1.8392 0.1943,-0.4744 0.341,-0.9657 0.5095,-1.4494 0.085,-0.2432 0.1629,-0.4982 0.3568,-0.6765 0.3059,-0.092 0.5235,0.1287 0.776,0.2729 0.4463,0.285 0.9532,0.4416 1.4686,0.5423 0.7765,0.1336 1.5677,0.1329 2.3521,0.093 0.8031,-0.023 1.5788,-0.2246 2.3433,-0.4534 0.5541,-0.1455 1.0817,-0.3761 1.6316,-0.5331 0.6388,-0.1859 0.7816,0.1694 0.6976,0.7458 -0.2383,0.9049 -0.4106,1.8201 -0.4845,2.7527 -0.089,1.0945 0.2062,2.0678 0.8077,2.9685 0.6957,0.9042 1.6955,1.3663 2.7284,1.7708 0.4866,0.183 0.9819,0.341 1.4738,0.5091 0,0 -0.1358,0.3976 -0.1358,0.3976 l 0,0 c -0.4978,-0.1699 -0.9991,-0.3299 -1.4914,-0.5155 -1.1137,-0.4372 -2.1832,-0.9489 -2.9253,-1.9299 -0.6474,-0.9834 -0.9741,-2.0438 -0.8763,-3.2341 0.076,-0.9433 0.2443,-1.8706 0.4884,-2.7855 0.047,-0.2651 0.1881,-0.3764 -0.1682,-0.2751 -0.5486,0.1534 -1.0726,0.3896 -1.6255,0.5314 -0.7969,0.2382 -1.6057,0.4461 -2.4425,0.4705 -0.8189,0.041 -1.6448,0.042 -2.4553,-0.1 -0.5593,-0.1127 -1.1102,-0.2805 -1.5955,-0.5898 -0.086,-0.049 -0.5645,-0.2225 -0.3109,-0.3046 -0.05,0.071 -0.184,0.3335 -0.2162,0.4817 -0.171,0.4905 -0.3197,0.9889 -0.5173,1.4699 -0.2795,0.6846 -0.5983,1.3589 -1.062,1.9407 -0.6789,0.8599 -1.4713,1.6059 -2.3813,2.221 -1.024,0.6758 -2.1058,1.221 -3.2964,1.5447 -1.1249,0.3262 -2.2648,0.6166 -3.4267,0.7748 -0.9811,0.1119 -1.9708,0.2193 -2.9565,0.089 -0.8518,-0.099 -1.6955,-0.2606 -2.4991,-0.5699 -0.637,-0.2667 -1.2483,-0.5889 -1.7183,-1.109 -0.3687,-0.4596 -0.6462,-0.9821 -0.6651,-1.584 0.032,-0.5414 0.2019,-1.0364 0.526,-1.4765 0.3185,-0.4117 0.6769,-0.7901 1.172,-0.9858 0.4756,-0.1701 0.9608,-0.2371 1.4663,-0.1915 0.5786,0.029 1.1483,0.1229 1.7122,0.2559 0.5594,0.1379 1.1163,0.293 1.6421,0.5328 0.6092,0.2705 1.1998,0.5815 1.7597,0.9442 0.6378,0.448 1.2053,0.9718 1.7203,1.5576 0.5165,0.6159 0.9851,1.2739 1.289,2.0236 0.2935,0.8217 0.4328,1.667 0.3896,2.5429 -0.074,1.0606 -0.2704,2.1135 -0.633,3.1154 -0.407,1.0235 -0.9504,1.9665 -1.6534,2.8193 -0.8401,1.062 -1.7548,2.0762 -2.9355,2.7695 -1.0778,0.5832 -2.2078,0.9317 -3.4478,0.8891 -1.1568,-0.043 -2.3042,-0.2209 -3.3966,-0.6182 -1.1598,-0.4592 -2.2743,-1.0283 -3.1983,-1.8833 -0.8217,-0.8133 -1.5463,-1.7131 -1.8692,-2.846 -0.2309,-1.0339 -0.2156,-2.0715 0.085,-3.0948 0.2724,-0.8687 0.5928,-1.718 1.0704,-2.4982 0.4093,-0.6371 0.8588,-1.2537 1.41,-1.7769 0.5144,-0.476 1.08,-0.9167 1.7748,-1.0844 0.585,-0.1075 1.169,-0.1 1.7285,0.1273 0.4643,0.1942 0.8982,0.4563 1.2303,0.8419 0,0 -0.3281,0.2625 -0.3281,0.2625 z" />
    <path
       style="color:#000000;clip-rule:nonzero;display:inline;overflow:visible;visibility:visible;opacity:0.77999998;isolation:auto;mix-blend-mode:normal;color-interpolation:sRGB;color-interpolation-filters:linearRGB;solid-color:#000000;solid-opacity:1;fill:#000000;fill-opacity:1;fill-rule:nonzero;stroke:#000000;stroke-width:0.5;stroke-linecap:round;stroke-linejoin:miter;stroke-miterlimit:20;stroke-dasharray:none;stroke-dashoffset:0;stroke-opacity:1;color-rendering:auto;image-rendering:auto;shape-rendering:auto;text-rendering:auto;enable-background:accumulate"
       id="path8305"
       d="m 633.95097,390.81459 c 0.8449,-0.4111 1.6247,-0.9377 2.4188,-1.4365 1.2623,-0.7992 2.4967,-1.6395 3.6792,-2.5526 1.2041,-0.9026 2.1399,-2.0645 2.9777,-3.3003 0.7336,-1.0899 1.2234,-2.3136 1.6699,-3.5421 0.3518,-1.0861 0.6719,-2.1826 0.9938,-3.2781 0.2032,-0.75 0.4354,-1.4885 0.7176,-2.2123 0.1854,-0.44 0.3491,-0.8882 0.5083,-1.3382 0.1201,-0.4235 0.3341,-0.7244 0.7398,-0.9021 0.703,-0.1384 1.3878,0.1448 2.0247,0.4127 1.2049,0.5261 2.1649,1.4126 3.0805,2.3317 0.9588,1.0049 1.7549,2.1379 2.3937,3.3682 0.4893,1.0369 0.6396,2.1467 0.4136,3.2653 -0.3617,1.239 -1.3797,1.9762 -2.4108,2.6496 -1.2351,0.7743 -2.5741,1.3562 -3.917,1.9133 -0.9366,0.4151 -1.8981,0.5912 -2.9069,0.4178 -0.5542,-0.1245 -1.0904,-0.3144 -1.6253,-0.5026 -0.293,-0.1116 -0.6252,-0.1638 -0.8139,-0.4304 0.076,-0.1116 0.1236,-0.2474 0.226,-0.3348 0.209,-0.1784 1.6974,-0.083 1.9796,-0.088 1.4792,-0.034 2.9577,-0.077 4.4352,-0.1551 1.6939,-0.068 3.3515,-0.4282 5.0004,-0.7941 1.6151,-0.3559 3.1792,-0.8843 4.6831,-1.5678 1.7033,-0.7942 3.174,-1.9704 4.6048,-3.1696 1.3361,-1.1347 2.6032,-2.3479 3.812,-3.6164 0.689,-0.7497 1.3512,-1.533 1.7629,-2.4711 0.2397,-0.5765 0.1441,-1.0924 -0.1607,-1.613 -0.3415,-0.4605 -0.8241,-0.7192 -1.3686,-0.8595 -0.5602,-0.107 -1.0072,0.071 -1.4332,0.4226 -0.7552,0.7144 -1.1183,1.7054 -1.4604,2.6618 -0.489,1.4388 -0.7831,2.9275 -0.9232,4.4379 -0.072,1.2023 0.099,2.3757 0.6559,3.4467 0.5171,0.8735 1.3578,1.2491 2.2958,1.5079 1.0786,0.2646 2.1499,0.1494 3.1977,-0.1712 1.3439,-0.5294 2.2327,-1.6835 3.0609,-2.8116 0.9794,-1.3976 1.7404,-2.9203 2.2564,-4.5443 0.3545,-1.2323 0.29,-2.4679 -0.01,-3.6988 -0.2801,-1.0162 -0.8646,-1.847 -1.6393,-2.5427 -0.5812,-0.4895 -1.2688,-0.8015 -2.0106,-0.9457 -0.5372,-0.1088 -1.0102,-0.029 -1.4715,0.2543 -0.5536,0.4281 -0.7166,1.0915 -0.8236,1.7498 -0.1129,0.8269 -0.088,1.6605 0.091,2.4746 0.1793,0.7191 0.5965,1.2928 1.1328,1.7873 0.6771,0.5926 1.4848,0.9073 2.3642,1.0368 1.0612,0.1148 2.0304,-0.2513 2.9578,-0.7231 0.998,-0.5184 1.7321,-1.3398 2.3959,-2.2248 0.7474,-1.0443 1.3868,-2.159 2.0657,-3.2475 0.4769,-0.7744 0.9524,-1.5485 1.5496,-2.2365 0.5853,-0.5861 1.0519,-0.7162 1.7547,-0.2352 0.7842,0.859 1.0567,2.0398 1.3842,3.1265 0.3814,1.2651 0.6576,2.5572 0.8984,3.8553 0.1935,1.021 0.3451,2.0594 0.6502,3.0549 0.01,0.019 0.094,0.2944 0.1911,0.3164 0.049,0.012 -0.01,-0.1053 0.018,-0.1491 0.1108,-0.201 0.2414,-0.3905 0.3552,-0.5898 0.6176,-1.1679 1.1104,-2.3953 1.5935,-3.6231 0.394,-0.9771 0.7329,-1.9763 1.1435,-2.9466 0.3644,-0.6733 0.5735,-1.2887 1.452,-1.0108 0.7774,0.6277 1.1126,1.6479 1.4945,2.5418 0.3493,0.7065 0.5075,1.5238 0.9919,2.1569 0.033,0.018 0.06,0.051 0.097,0.055 0.036,0 -0.023,-0.073 -0.015,-0.1082 0.014,-0.068 0.05,-0.129 0.073,-0.1943 0.1374,-0.3951 0.1116,-0.3339 0.2284,-0.7748 0.2525,-1.0836 0.539,-2.1586 0.8161,-3.2362 0.1905,-0.8004 0.4198,-1.605 0.9001,-2.2823 0.8507,-0.7668 1.3488,0.4488 1.6557,1.0998 0.5667,1.3781 1.1032,2.7662 1.7599,4.1049 0.5762,1.1568 1.1332,1.9453 2.4416,2.2072 1.3938,0.017 2.6085,-0.7219 3.7713,-1.4052 1.0225,-0.6014 1.927,-1.3512 2.6822,-2.2634 0.671,-0.9207 0.9702,-2.0241 1.2548,-3.1097 0.2401,-0.9504 0.3434,-1.922 0.1793,-2.891 -0.091,-0.3094 -0.2614,-0.9075 -0.6851,-0.8695 -0.5162,0.2719 -0.756,0.9197 -0.9528,1.4319 -0.384,1.1956 -0.4541,2.4596 -0.485,3.7062 -0.01,1.3309 0.1351,2.6535 0.3344,3.9672 0.1341,0.8864 0.3958,1.7281 0.9292,2.4528 0.4059,0.4972 0.9319,0.6133 1.5435,0.6109 0.9313,-0.1107 1.7714,-0.5605 2.5679,-1.0289 0.9505,-0.5843 1.7282,-1.3789 2.3956,-2.2637 0.8695,-1.2483 1.4149,-2.6796 1.9507,-4.0928 0.644,-1.706 1.1,-3.4711 1.4867,-5.2504 0.3778,-1.9933 0.5456,-4.0178 0.7092,-6.0374 0.1379,-1.7952 0.2535,-3.5919 0.3704,-5.3884 0.046,-1.0141 0.1592,-2.0256 0.1895,-3.0402 0,-0.062 -8e-4,-0.1243 0,-0.1864 0,0 -0.019,-0.017 -0.014,-0.014 0.1097,0.074 0.2693,0.1048 0.3271,0.2235 0.046,0.096 -0.049,0.2072 -0.067,0.3119 -0.068,0.3873 -0.087,0.6327 -0.1314,1.0367 -0.1702,1.9122 -0.3222,3.826 -0.4444,5.7418 -0.167,2.3366 -0.1822,4.6774 -0.1025,7.0174 0.042,1.7097 0.1921,3.4119 0.6788,5.0551 0.3778,0.9593 0.7792,1.6032 1.88,1.5363 1.1227,-0.2542 1.9429,-1.0896 2.692,-1.9115 0.8476,-1.036 1.4804,-2.2253 2.0929,-3.4094 0.698,-1.4096 1.2882,-2.8689 1.7713,-4.3652 0.402,-1.259 0.6625,-2.5557 0.8177,-3.8667 0.1345,-1.1198 0.127,-2.2475 0.1174,-3.3731 0.01,-0.8179 -0.027,-1.6321 -0.1054,-2.4459 -0.046,-0.4799 -0.1005,-0.9726 -0.3775,-1.3788 -0.2164,-0.2048 -0.3959,-0.07 -0.5497,0.1273 -0.4267,0.7576 -0.5202,1.6368 -0.6128,2.4854 -0.1318,1.6775 -0.2328,3.3574 -0.3648,5.035 -0.1496,1.9946 -0.3706,3.9832 -0.644,5.9644 -0.2389,1.6261 -0.4726,3.2528 -0.6937,4.8815 -0.1384,1.0204 -0.2698,2.0417 -0.4141,3.0613 -0.2634,-0.072 0.1,0.9111 -0.054,0.6975 -0.1225,-0.1701 -0.1021,-0.062 -0.1136,-0.1762 0.5816,-0.5868 1.0311,-1.2939 1.4734,-1.9878 0.5773,-0.9105 1.0932,-1.8577 1.6328,-2.7906 0.4892,-0.8131 1.045,-1.5817 1.6431,-2.3174 0.4216,-0.4737 0.7754,-1.0294 1.3134,-1.3805 0.7938,-0.2527 1.0115,0.7613 1.1679,1.3215 0.2406,1.2907 0.3049,2.6069 0.3901,3.9148 0.045,1.0696 0.1591,2.1308 0.4201,3.1694 0.1856,0.622 0.5132,1.0508 1.1689,1.1427 0.7312,-0.014 1.2347,-0.5085 1.706,-1.009 0.6136,-0.6699 0.97,-1.4992 1.3071,-2.3293 0.3857,-1.0075 0.7235,-2.0317 1.0409,-3.0625 0.2525,-0.875 0.4745,-1.7577 0.7497,-2.626 0.2178,-0.6623 0.4505,-1.3195 0.6826,-1.9768 0.2694,-0.6233 -0.04,-0.8558 0.5701,-0.3915 -0.1265,0.8837 -0.2237,1.7717 -0.3107,2.6601 -0.1207,1.2961 -0.1952,2.5958 -0.2636,3.8956 -0.046,1.017 -0.1352,2.0346 -0.063,3.0523 0.045,0.4459 0.1971,0.707 0.6503,0.6539 0.6837,-0.1421 1.1887,-0.6488 1.6501,-1.1389 0.8228,-1.0387 1.4338,-2.226 2.0326,-3.4026 0.5552,-1.0568 1.0911,-2.1235 1.6281,-3.1897 0.2917,-0.5903 0.5737,-1.2196 1.1263,-1.6087 0.7201,-0.236 0.967,0.5468 1.1457,1.0848 0.2479,0.9338 0.372,1.8948 0.5075,2.8497 0.1028,0.6756 0.1568,1.3586 0.3198,2.0233 0.142,0.4051 0.1584,0.1837 0.3326,-0.068 0.3771,-0.6196 0.6583,-1.2925 0.9518,-1.9544 0.4386,-0.9563 0.9152,-1.8944 1.395,-2.8306 0.4675,-0.8795 0.8465,-1.8065 1.3634,-2.659 0.4159,-0.6202 0.7998,-0.9397 1.3163,-0.1979 0.4242,0.8868 0.5739,1.8746 0.7388,2.8354 0.16,0.9958 0.2867,1.9964 0.4158,2.9966 0.087,0.4257 0.096,1.1923 0.6823,1.1664 0.8297,-0.1976 1.4613,-0.8435 2.0675,-1.4047 0.8895,-0.8526 1.68,-1.7983 2.4526,-2.7556 0.8161,-1.0765 1.6546,-2.1357 2.4773,-3.2071 0.6784,-0.8494 1.3343,-1.7164 1.9915,-2.5822 0.408,-0.5208 0.7969,-1.0544 1.1624,-1.6057 0.2341,-0.3397 0.4339,-0.7032 0.6846,-1.0309 0.171,-0.2074 0.3578,-0.4008 0.544,-0.5944 0.1046,-0.1085 0.2097,-0.2167 0.3147,-0.3249 0.059,-0.061 0.118,-0.1215 0.1769,-0.1822 -10e-5,0.022 0.038,-0.059 0.039,-0.041 0.028,0.4522 -0.013,0.281 -0.2751,0.4809 -0.5485,0.4228 -1.028,0.9247 -1.4834,1.4444 -0.7065,0.8527 -1.2284,1.8247 -1.6696,2.8344 -0.457,1.069 -0.6768,2.2099 -0.7986,3.36 -0.089,0.8423 -0.096,1.6955 0.2026,2.4966 0.2384,0.4395 0.6445,0.5129 1.102,0.427 0.8313,-0.2871 1.3558,-1.0144 1.8681,-1.6852 0.8642,-1.2056 1.4693,-2.5557 1.9594,-3.9483 0.3816,-1.1356 0.4858,-2.3307 0.5835,-3.5166 0.072,-0.7467 0.043,-1.4982 0.019,-2.2465 -0.029,-0.4108 -0.01,-0.8265 -0.05,-1.2363 0.1366,0.057 0.3153,0.057 0.4098,0.171 0.067,0.08 -0.01,0.2101 -0.01,0.3152 0,0.154 0,0.3081 -0.01,0.4622 -0.01,0.7565 -0.01,1.513 -0.012,2.2695 0.032,2.7537 -0.06,5.5041 -0.2632,8.25 -0.2444,3.1729 -0.9012,6.2836 -1.7954,9.331 -0.727,2.3426 -1.6852,4.5961 -2.9251,6.7112 -0.7427,1.1182 -1.6498,2.1716 -3.0821,2.1136 -1.0949,-0.3106 -1.2583,-1.2812 -1.1576,-2.2781 0.3218,-1.4455 1.3576,-2.5419 2.3705,-3.5596 1.3236,-1.3263 2.9369,-2.1742 4.7057,-2.7317 1.8821,-0.4674 3.8347,-0.3314 5.7551,-0.3231 1.9764,0.079 3.874,-0.3816 5.7445,-0.9597 0.3124,-0.111 0.6247,-0.2219 0.937,-0.3328 0,0 0.1406,0.3961 0.1406,0.3961 l 0,0 c -0.3179,0.1127 -0.6357,0.2254 -0.9535,0.3381 -1.9113,0.5902 -3.8515,1.0579 -5.8704,0.9786 -1.8772,-0.01 -3.7862,-0.1435 -5.6274,0.3038 -1.7053,0.5332 -3.2581,1.3507 -4.5339,2.6273 -0.9451,0.9474 -1.9282,1.9673 -2.2503,3.3077 -0.085,0.7432 -0.053,1.5255 0.7641,1.8139 1.2547,0.1023 2.0482,-0.9702 2.6953,-1.9067 1.2236,-2.0848 2.1662,-4.3077 2.8843,-6.617 0.8864,-3.0187 1.5369,-6.1004 1.7795,-9.2435 0.2021,-2.7362 0.2933,-5.4768 0.262,-8.2208 0,-0.7577 0.01,-1.5154 0.012,-2.273 8e-4,-0.05 0.01,-0.7879 0.013,-0.7932 0.1004,-0.12 0.2853,-0.1284 0.428,-0.1925 0.041,0.42 0.026,0.8445 0.052,1.2655 0.024,0.7642 0.053,1.5316 -0.02,2.2943 -0.1007,1.2218 -0.2111,2.4524 -0.606,3.6218 -0.5059,1.4337 -1.1299,2.8237 -2.0219,4.0638 -0.5793,0.7572 -1.1807,1.5549 -2.1331,1.8446 -0.6659,0.1002 -1.2422,-0.057 -1.5654,-0.697 -0.3124,-0.8655 -0.3281,-1.7764 -0.2259,-2.6857 0.1276,-1.1927 0.3564,-2.3755 0.8314,-3.4839 0.4593,-1.0489 1.003,-2.0583 1.7387,-2.9431 0.4781,-0.5447 0.9817,-1.0709 1.5592,-1.512 0.206,-0.1361 0.9768,-0.4596 0.7771,0.1974 -0.059,0.06 -0.1178,0.1214 -0.1767,0.1821 -0.1046,0.1077 -0.2092,0.2154 -0.3134,0.3235 -0.1756,0.1827 -0.352,0.3651 -0.5143,0.56 -0.2475,0.3172 -0.435,0.6777 -0.667,1.0063 -0.3705,0.5587 -0.7644,1.0995 -1.1779,1.6274 -0.6576,0.8665 -1.3141,1.7342 -1.9929,2.5841 -0.8248,1.0741 -1.6653,2.1361 -2.4836,3.2152 -0.7855,0.973 -1.5894,1.9339 -2.4942,2.8 -0.6913,0.6394 -1.417,1.3693 -2.3875,1.5151 -0.8751,-0.1259 -0.9362,-0.7688 -1.0645,-1.5314 -0.1284,-0.9943 -0.2543,-1.9893 -0.4132,-2.9794 -0.1551,-0.9046 -0.2963,-1.8322 -0.6756,-2.6753 -0.2817,-0.4677 -0.2344,-0.2718 -0.6063,0.1852 -0.514,0.8421 -0.8826,1.7638 -1.3484,2.6324 -0.4763,0.929 -0.9494,1.8601 -1.3849,2.8091 -0.3054,0.6889 -0.5979,1.3896 -0.996,2.0312 -0.4061,0.541 -0.8373,0.6627 -1.0807,-0.079 -0.1651,-0.6785 -0.2252,-1.3743 -0.3277,-2.0639 -0.132,-0.9305 -0.2529,-1.8665 -0.4906,-2.7773 -0.082,-0.2511 -0.186,-0.822 -0.5119,-0.8677 -0.5059,0.3152 -0.7097,0.9553 -0.9857,1.4492 -0.5372,1.0667 -1.0734,2.1339 -1.6288,3.1914 -0.6171,1.2119 -1.2474,2.4353 -2.1018,3.5005 -0.537,0.5664 -1.1254,1.1294 -1.9239,1.2693 -0.6906,0.035 -1.0369,-0.3624 -1.1011,-1.0439 -0.071,-1.0349 0.014,-2.0692 0.063,-3.1034 0.069,-1.3061 0.1436,-2.6121 0.2651,-3.9146 0.088,-0.9049 0.1868,-1.8095 0.3184,-2.7091 0.783,-0.1944 0.4065,-0.05 0.2366,0.6214 -0.2306,0.6531 -0.4619,1.306 -0.6783,1.9638 -0.2751,0.8672 -0.4955,1.7492 -0.7487,2.6228 -0.3211,1.0425 -0.6627,2.0782 -1.0531,3.0971 -0.3571,0.8783 -0.7401,1.7524 -1.3911,2.4597 -0.5732,0.6046 -1.1941,1.1559 -2.0799,1.1349 -0.8192,-0.1501 -1.2775,-0.6572 -1.508,-1.4551 -0.2662,-1.0633 -0.3865,-2.1492 -0.4319,-3.2442 -0.083,-1.2795 -0.147,-2.5663 -0.3757,-3.8299 -0.072,-0.2622 -0.1863,-1.0404 -0.5386,-1.0783 -0.5089,0.305 -0.8065,0.8729 -1.2116,1.2903 -0.5843,0.7183 -1.1271,1.4687 -1.6054,2.2626 -0.5427,0.9381 -1.0614,1.8906 -1.6422,2.8061 -0.4695,0.7355 -0.9454,1.4888 -1.5759,2.0983 -0.8017,0.4292 -0.5577,-0.5025 -0.5003,-0.9167 0.1441,-1.0188 0.2753,-2.0393 0.4136,-3.059 0.2213,-1.6288 0.4549,-3.256 0.694,-4.8823 0.2723,-1.9731 0.4922,-3.9536 0.6412,-5.94 0.1325,-1.6818 0.2334,-3.366 0.3661,-5.0477 0.1025,-0.9328 0.2103,-1.9023 0.7151,-2.7173 0.3659,-0.3884 0.8189,-0.5228 1.2154,-0.081 0.3063,0.4716 0.4025,1.0155 0.4455,1.5706 0.079,0.826 0.1156,1.6525 0.1073,2.4827 0.01,1.1433 0.016,2.2888 -0.1203,3.4263 -0.1594,1.3379 -0.4241,2.6614 -0.8351,3.9464 -0.491,1.518 -1.0888,2.999 -1.798,4.429 -0.6295,1.2166 -1.2811,2.4379 -2.1557,3.4997 -0.8281,0.9052 -1.7367,1.8038 -2.986,2.048 -1.3174,0.029 -1.8494,-0.6634 -2.2993,-1.8372 -0.4944,-1.6781 -0.6546,-3.4141 -0.6959,-5.1598 -0.079,-2.3537 -0.065,-4.7082 0.1032,-7.0584 0.1227,-1.9222 0.2749,-3.8425 0.4459,-5.761 0.016,-0.146 0.1059,-1.32 0.2173,-1.4352 0.1205,-0.1246 0.3018,-0.189 0.473,-0.2158 0.1119,-0.017 -0.057,0.4038 0.034,0.3379 -0.032,1.0195 -0.1431,2.0358 -0.1903,3.0547 -0.117,1.7988 -0.2327,3.5977 -0.3707,5.395 -0.1652,2.0383 -0.3351,4.0814 -0.7175,6.0928 -0.3914,1.7995 -0.8528,3.5848 -1.5044,5.3101 -0.5501,1.4505 -1.1126,2.9182 -2.0085,4.1972 -0.703,0.9272 -1.5186,1.7613 -2.518,2.3727 -0.862,0.5052 -1.7713,0.9848 -2.7813,1.0867 -0.7471,-0.01 -1.3938,-0.1755 -1.8823,-0.7833 -0.5681,-0.7834 -0.8641,-1.6816 -1.0052,-2.6376 -0.2029,-1.338 -0.3459,-2.6852 -0.3391,-4.0407 0.033,-1.2949 0.1083,-2.6074 0.5133,-3.8478 0.2631,-0.6713 0.5968,-1.5188 1.3737,-1.699 0.6443,0.084 0.9291,0.6279 1.0706,1.2198 0.1685,1.0285 0.071,2.058 -0.1873,3.0666 -0.3008,1.145 -0.6228,2.3052 -1.3381,3.2714 -0.7885,0.9477 -1.7269,1.7322 -2.7926,2.3574 -1.2548,0.7368 -2.5647,1.5151 -4.0712,1.4539 -1.4968,-0.3314 -2.0559,-1.1083 -2.7319,-2.4333 -0.6571,-1.3409 -1.1972,-2.73 -1.7628,-4.1111 -0.1421,-0.3026 -0.4513,-1.4022 -0.9345,-1.0329 -0.4598,0.6258 -0.6465,1.3995 -0.834,2.1414 -0.2775,1.0786 -0.5642,2.1547 -0.817,3.2395 -0.1351,0.5057 -0.3707,1.7814 -1.1247,1.1661 -0.4946,-0.67 -0.6944,-1.4959 -1.0422,-2.2439 -0.3417,-0.8002 -0.6458,-1.6865 -1.2651,-2.3172 -0.4667,-0.2965 -0.7273,0.4772 -0.9078,0.785 -0.41,0.9666 -0.746,1.9631 -1.1395,2.9366 -0.4906,1.2467 -0.9915,2.493 -1.62,3.6782 -0.3518,0.6107 -0.8989,1.4596 -1.3313,0.336 -0.3067,-1.0117 -0.4678,-2.0634 -0.6612,-3.1008 -0.238,-1.2831 -0.5108,-2.5602 -0.8876,-3.8108 -0.3014,-1.0003 -0.5509,-2.0844 -1.2277,-2.9068 -0.4475,-0.3481 -0.8053,-0.2377 -1.1916,0.17 -0.5835,0.6705 -1.0436,1.4287 -1.5103,2.1832 -0.6853,1.0988 -1.3308,2.2241 -2.0862,3.2775 -0.7036,0.9358 -1.4856,1.8 -2.5419,2.3471 -1.0074,0.5092 -2.0607,0.8944 -3.2107,0.7639 -0.9624,-0.1488 -1.8478,-0.4915 -2.5874,-1.1444 -0.5958,-0.557 -1.0608,-1.2005 -1.2574,-2.006 -0.1867,-0.8667 -0.2178,-1.7527 -0.095,-2.6326 0.1321,-0.7828 0.3499,-1.5492 1.0214,-2.041 0.556,-0.3297 1.1282,-0.4368 1.77,-0.3064 0.8156,0.1643 1.5724,0.503 2.2105,1.0458 0.8347,0.7566 1.467,1.6563 1.7665,2.7574 0.3098,1.3061 0.3751,2.6176 0,3.9236 -0.532,1.6669 -1.3106,3.2315 -2.3182,4.6656 -0.8844,1.202 -1.8388,2.4143 -3.2774,2.965 -1.1259,0.3394 -2.2756,0.4615 -3.4325,0.1739 -1.0514,-0.2951 -1.9845,-0.738 -2.5568,-1.7205 -0.5854,-1.1471 -0.7836,-2.3925 -0.7006,-3.6779 0.1445,-1.5454 0.4445,-3.0688 0.946,-4.5407 0.3695,-1.0294 0.769,-2.0874 1.5918,-2.8469 0.5384,-0.4279 1.1102,-0.6434 1.8048,-0.5022 0.6526,0.1761 1.227,0.4929 1.6255,1.0563 0.3636,0.6417 0.4735,1.2906 0.1807,1.9927 -0.4369,0.9802 -1.116,1.8081 -1.8429,2.5909 -1.22,1.2798 -2.4982,2.504 -3.8464,3.6486 -1.4602,1.2233 -2.9623,2.4212 -4.7011,3.2301 -1.531,0.6943 -3.1218,1.2339 -4.7656,1.5955 -1.6716,0.3708 -3.3522,0.7346 -5.0691,0.8035 -1.4824,0.079 -2.9657,0.1209 -4.4498,0.1557 -0.5493,0.011 -1.1172,-0.033 -1.6648,0.023 -0.051,0.01 -0.1168,0.067 -0.1498,0.029 -0.049,-0.057 -0.012,-0.15 -0.017,-0.2249 -0.132,-0.1099 0.4828,0.2248 0.572,0.2106 0.5133,0.1805 1.0276,0.3631 1.5587,0.4851 0.9282,0.1672 1.8115,-0.012 2.6732,-0.3921 1.319,-0.5471 2.6348,-1.1175 3.8486,-1.8772 0.9353,-0.6081 1.8847,-1.2654 2.2287,-2.383 0.2185,-1.0197 0.064,-2.0396 -0.3753,-2.9865 -0.6173,-1.1931 -1.3907,-2.29 -2.3184,-3.2651 -0.8765,-0.8809 -1.7925,-1.7349 -2.9461,-2.2409 -0.5354,-0.227 -1.1093,-0.4728 -1.7041,-0.4103 -0.3016,0.1029 -0.411,0.3619 -0.5008,0.6526 -0.1607,0.4542 -0.3258,0.9066 -0.5129,1.3507 -0.278,0.7126 -0.5059,1.4398 -0.706,2.1782 -0.3244,1.1039 -0.6468,2.2088 -1.002,3.3032 -0.4586,1.261 -0.9634,2.5161 -1.7171,3.6345 -0.8635,1.272 -1.829,2.4673 -3.0687,3.3969 -1.1933,0.9212 -2.4385,1.7696 -3.7125,2.5758 -0.8125,0.5104 -1.6108,1.049 -2.4767,1.467 0,0 -0.1656,-0.3863 -0.1656,-0.3863 z" />
    <path
       style="color:#000000;clip-rule:nonzero;display:inline;overflow:visible;visibility:visible;opacity:0.77999998;isolation:auto;mix-blend-mode:normal;color-interpolation:sRGB;color-interpolation-filters:linearRGB;solid-color:#000000;solid-opacity:1;fill:#000000;fill-opacity:1;fill-rule:nonzero;stroke:#000000;stroke-width:0.5;stroke-linecap:round;stroke-linejoin:miter;stroke-miterlimit:20;stroke-dasharray:none;stroke-dashoffset:0;stroke-opacity:1;color-rendering:auto;image-rendering:auto;shape-rendering:auto;text-rendering:auto;enable-background:accumulate"
       id="path8309"
       d="m 714.60937,360.56219 c 0.7462,-0.3602 1.4907,-0.7228 2.2414,-1.0737 1.0335,-0.4682 2.0978,-0.8605 3.1597,-1.2578 0.8794,-0.3368 1.7674,-0.6506 2.6548,-0.9657 0.5591,-0.2073 1.127,-0.3882 1.6963,-0.5649 0.3438,-0.1153 0.6991,-0.1976 1.0372,-0.329 0,0 0.1508,0.3923 0.1508,0.3923 l 0,0 c -0.3478,0.1324 -0.7099,0.2225 -1.0634,0.3381 -0.5639,0.175 -1.1266,0.3541 -1.6804,0.5595 -0.8851,0.3144 -1.7708,0.6273 -2.6481,0.9633 -1.0515,0.3934 -2.1054,0.7815 -3.1289,1.2449 -0.7474,0.3493 -1.4886,0.7102 -2.2314,1.0689 0,0 -0.188,-0.3759 -0.188,-0.3759 z" />
    <path
       style="color:#000000;clip-rule:nonzero;display:inline;overflow:visible;visibility:visible;opacity:0.77999998;isolation:auto;mix-blend-mode:normal;color-interpolation:sRGB;color-interpolation-filters:linearRGB;solid-color:#000000;solid-opacity:1;fill:#000000;fill-opacity:1;fill-rule:nonzero;stroke:#000000;stroke-width:0.5;stroke-linecap:round;stroke-linejoin:miter;stroke-miterlimit:20;stroke-dasharray:none;stroke-dashoffset:0;stroke-opacity:1;color-rendering:auto;image-rendering:auto;shape-rendering:auto;text-rendering:auto;enable-background:accumulate"
       id="path8315"
       d="m 739.88357,355.95479 c 0.3603,-0.044 0.7061,-0.1524 1.0629,-0.2155 0.2715,-0.031 0.5161,0.063 0.6583,0.2988 0.079,0.2107 0.074,0.4081 -0.012,0.6145 -0.1413,0.2344 -0.2981,0.4655 -0.4745,0.6757 -0.169,0.1729 -0.3245,0.3691 -0.5473,0.4725 -0.5084,0.055 -0.2949,-0.6002 -0.2106,-0.8391 0.082,-0.2003 0.1541,-0.4033 0.2153,-0.6109 0.037,-0.1496 0.09,-0.2909 0.1857,-0.4119 0.4524,0.3338 0.2049,0.6635 -0.2193,0.6584 -0.1737,-0.4855 -0.02,-0.7388 0.4595,-0.8563 0.3293,-0.031 0.3893,0.2611 0.3744,0.5193 0,0.1869 -0.052,0.3362 -0.1863,0.4677 -0.1857,0.1173 -0.3844,-0.024 -0.5643,-0.085 -0.068,-0.035 -0.1015,-0.013 -0.1629,0 0,0 -0.099,-0.4084 -0.099,-0.4084 l 0,0 c 0.1387,-0.026 0.2618,-0.043 0.3974,0.01 0.092,0.032 0.4055,0.1018 0.1671,0.1544 0.02,-0.052 0.023,-0.1092 0.029,-0.1646 0.012,-0.1691 0.039,-0.096 0.1162,-0.08 -0.2851,0.064 -0.1589,0.3719 -0.4922,0.024 0.053,-0.01 0.2202,-0.1988 0.4727,0.062 0.061,-0.1015 -0.082,0.1799 -0.075,0.2283 -0.063,0.2148 -0.1368,0.4253 -0.2222,0.6324 -0.1021,0.2869 0,0.4378 -0.3406,0.3083 0.1465,-0.074 0.2574,-0.2413 0.3823,-0.3544 0.1566,-0.1805 0.2881,-0.3865 0.4165,-0.5868 0.042,-0.075 0.024,-0.1477 0.019,-0.2324 -0.049,-0.06 -0.1119,-0.1013 -0.2149,-0.083 -0.3581,0.063 -0.7052,0.1726 -1.0669,0.2163 0,0 -0.069,-0.4145 -0.069,-0.4145 z" />
    <path
       style="color:#000000;clip-rule:nonzero;display:inline;overflow:visible;visibility:visible;opacity:0.77999998;isolation:auto;mix-blend-mode:normal;color-interpolation:sRGB;color-interpolation-filters:linearRGB;solid-color:#000000;solid-opacity:1;fill:#000000;fill-opacity:1;fill-rule:nonzero;stroke:#000000;stroke-width:0.5;stroke-linecap:round;stroke-linejoin:miter;stroke-miterlimit:20;stroke-dasharray:none;stroke-dashoffset:0;stroke-opacity:1;color-rendering:auto;image-rendering:auto;shape-rendering:auto;text-rendering:auto;enable-background:accumulate"
       id="path8301-2"
       d="m 782.12957,340.89749 c -0.1592,-0.3186 -0.3185,-0.6371 -0.4777,-0.9555 -0.075,-0.1293 -0.2144,-0.4429 -0.2371,-0.4978 -0.1109,0.183 0.04,0.1632 0.2139,0.2407 0.8346,0.4095 1.5142,1.0614 2.1686,1.7078 1.3406,1.3331 2.3339,2.9355 3.1966,4.6038 1.0841,2.275 1.5976,4.7442 1.9782,7.2181 0.4542,2.8689 0.289,5.7464 -0.1498,8.6009 -0.5747,3.1626 -1.6701,6.1914 -2.8806,9.1577 -1.1406,2.8088 -2.5588,5.4812 -4.2727,7.979 -0.6919,1.038 -1.5849,1.8866 -2.5012,2.7181 0,0 0.2827,0.311 0.2827,0.311 l 0,0 c 0.9392,-0.8546 1.855,-1.7263 2.5651,-2.7914 1.7297,-2.5233 3.164,-5.221 4.3151,-8.058 1.2226,-2.9969 2.3283,-6.0572 2.907,-9.2526 0.444,-2.8971 0.6109,-5.8174 0.1498,-8.7287 -0.3883,-2.5187 -0.9136,-5.0322 -2.0204,-7.3473 -0.8842,-1.7068 -1.9018,-3.3461 -3.2746,-4.7098 -0.6916,-0.6814 -1.4106,-1.3658 -2.2941,-1.793 -0.2729,-0.1194 -0.7151,-0.2995 -0.8037,0.136 0.024,0.2554 0.1739,0.4643 0.2813,0.6933 0.1592,0.3186 0.3185,0.6371 0.4777,0.9556 0,0 0.3759,-0.1879 0.3759,-0.1879 z" />
  </g>
</svg>
