<?xml version="1.0" encoding="UTF-8" standalone="no"?>
<svg
   xmlns:dc="http://purl.org/dc/elements/1.1/"
   xmlns:cc="http://creativecommons.org/ns#"
   xmlns:rdf="http://www.w3.org/1999/02/22-rdf-syntax-ns#"
   xmlns:svg="http://www.w3.org/2000/svg"
   xmlns="http://www.w3.org/2000/svg"
   width="309.06274mm"
   height="63.601337mm"
   viewBox="0 0 1095.1042 225.35907"
   id="svg2"
   version="1.1">
  <defs
     id="defs4">
    <marker
       orient="auto"
       refY="0"
       refX="0"
       id="Arrow1Lend"
       style="overflow:visible">
      <path
         id="path5845"
         d="M 0,0 5,-5 -12.5,0 5,5 0,0 Z"
         style="fill:#000000;fill-opacity:1;fill-rule:evenodd;stroke:#000000;stroke-width:1pt;stroke-opacity:1"
         transform="matrix(-0.8,0,0,-0.8,-10,0)" />
    </marker>
    <marker
       orient="auto"
       refY="0"
       refX="0"
       id="TriangleOutM"
       style="overflow:visible">
      <path
         id="path5987"
         d="m 5.77,0 -8.65,5 0,-10 8.65,5 z"
         style="fill:#000000;fill-opacity:1;fill-rule:evenodd;stroke:#000000;stroke-width:1pt;stroke-opacity:1"
         transform="scale(0.4,0.4)" />
    </marker>
    <marker
       orient="auto"
       refY="0"
       refX="0"
       id="TriangleInM"
       style="overflow:visible">
      <path
         id="path5978"
         d="m 5.77,0 -8.65,5 0,-10 8.65,5 z"
         style="fill:#000000;fill-opacity:1;fill-rule:evenodd;stroke:#000000;stroke-width:1pt;stroke-opacity:1"
         transform="scale(-0.4,-0.4)" />
    </marker>
    <marker
       orient="auto"
       refY="0"
       refX="0"
       id="Arrow2Mstart"
       style="overflow:visible">
      <path
         id="path5866"
         style="fill:#000000;fill-opacity:1;fill-rule:evenodd;stroke:#000000;stroke-width:0.625;stroke-linejoin:round;stroke-opacity:1"
         d="M 8.7185878,4.0337352 -2.2072895,0.01601326 8.7185884,-4.0017078 c -1.7454984,2.3720609 -1.7354408,5.6174519 -6e-7,8.035443 z"
         transform="scale(0.6,0.6)" />
    </marker>
    <marker
       orient="auto"
       refY="0"
       refX="0"
       id="Arrow1Lstart"
       style="overflow:visible">
      <path
         id="path5842"
         d="M 0,0 5,-5 -12.5,0 5,5 0,0 Z"
         style="fill:#000000;fill-opacity:1;fill-rule:evenodd;stroke:#000000;stroke-width:1pt;stroke-opacity:1"
         transform="matrix(0.8,0,0,0.8,10,0)" />
    </marker>
    <marker
       orient="auto"
       refY="0"
       refX="0"
       id="TriangleInM-6"
       style="overflow:visible">
      <path
         id="path5978-6"
         d="m 5.77,0 -8.65,5 0,-10 8.65,5 z"
         style="fill:#000000;fill-opacity:1;fill-rule:evenodd;stroke:#000000;stroke-width:1pt;stroke-opacity:1"
         transform="scale(-0.4,-0.4)" />
    </marker>
    <marker
       orient="auto"
       refY="0"
       refX="0"
       id="TriangleOutM-4"
       style="overflow:visible">
      <path
         id="path5987-0"
         d="m 5.77,0 -8.65,5 0,-10 8.65,5 z"
         style="fill:#000000;fill-opacity:1;fill-rule:evenodd;stroke:#000000;stroke-width:1pt;stroke-opacity:1"
         transform="scale(0.4,0.4)" />
    </marker>
    <marker
       orient="auto"
       refY="0"
       refX="0"
       id="TriangleInM-6-4"
       style="overflow:visible">
      <path
         id="path5978-6-6"
         d="m 5.77,0 -8.65,5 0,-10 8.65,5 z"
         style="fill:#000000;fill-opacity:1;fill-rule:evenodd;stroke:#000000;stroke-width:1pt;stroke-opacity:1"
         transform="scale(-0.4,-0.4)" />
    </marker>
    <marker
       orient="auto"
       refY="0"
       refX="0"
       id="TriangleOutM-4-2"
       style="overflow:visible">
      <path
         id="path5987-0-6"
         d="m 5.77,0 -8.65,5 0,-10 8.65,5 z"
         style="fill:#000000;fill-opacity:1;fill-rule:evenodd;stroke:#000000;stroke-width:1pt;stroke-opacity:1"
         transform="scale(0.4,0.4)" />
    </marker>
    <marker
       orient="auto"
       refY="0"
       refX="0"
       id="TriangleInM-6-4-5"
       style="overflow:visible">
      <path
         id="path5978-6-6-6"
         d="m 5.77,0 -8.65,5 0,-10 8.65,5 z"
         style="fill:#000000;fill-opacity:1;fill-rule:evenodd;stroke:#000000;stroke-width:1pt;stroke-opacity:1"
         transform="scale(-0.4,-0.4)" />
    </marker>
    <marker
       orient="auto"
       refY="0"
       refX="0"
       id="TriangleOutM-4-2-9"
       style="overflow:visible">
      <path
         id="path5987-0-6-8"
         d="m 5.77,0 -8.65,5 0,-10 8.65,5 z"
         style="fill:#000000;fill-opacity:1;fill-rule:evenodd;stroke:#000000;stroke-width:1pt;stroke-opacity:1"
         transform="scale(0.4,0.4)" />
    </marker>
  </defs>
  <metadata
     id="metadata7">
    <rdf:RDF>
      <cc:Work
         rdf:about="">
        <dc:format>image/svg+xml</dc:format>
        <dc:type
           rdf:resource="http://purl.org/dc/dcmitype/StillImage" />
        <dc:title></dc:title>
      </cc:Work>
    </rdf:RDF>
  </metadata>
  <g
     transform="translate(-1223.6294,-2471.4202)"
     id="g4016">
    <g
       transform="translate(151.8241,2139.1938)"
       style="font-style:normal;font-weight:normal;font-size:40px;line-height:125%;font-family:sans-serif;letter-spacing:0px;word-spacing:0px;fill:#4d4d4d;fill-opacity:1;stroke:none;stroke-width:1px;stroke-linecap:butt;stroke-linejoin:miter;stroke-opacity:1"
       id="flowRoot4242-6-5-4-1">
      <path
         d="m 1572.375,409.65516 0,-23.04688 q 0,-0.8789 0.625,-1.48437 0.625,-0.60547 1.4648,-0.60547 0.8399,0 1.4258,0.60547 0.6055,0.60547 0.6055,1.48437 l 0,10.27344 13.4375,-1.875 0,-8.39844 q 0,-0.8789 0.6055,-1.48437 0.6054,-0.60547 1.4843,-0.60547 0.8399,0 1.4258,0.60547 0.6055,0.60547 0.6055,1.48437 l 0,23.04688 q 0,0.8789 -0.6055,1.48437 -0.5859,0.58594 -1.4258,0.58594 -0.8789,0 -1.4843,-0.58594 -0.6055,-0.60547 -0.6055,-1.48437 l 0,-10.48828 -13.4375,1.83593 0,8.65235 q 0,0.8789 -0.6055,1.48437 -0.5859,0.58594 -1.4258,0.58594 -0.8398,0 -1.4648,-0.58594 -0.625,-0.60547 -0.625,-1.48437 z"
         style="font-style:normal;font-variant:normal;font-weight:bold;font-stretch:normal;font-family:'Comic Neue';-inkscape-font-specification:'Comic Neue Bold';fill:#4d4d4d"
         id="path4008" />
      <path
         d="m 1599.25,409.5575 0,-22.91016 q 0,-0.8789 0.6055,-1.5039 0.6054,-0.625 1.4453,-0.625 l 15.1172,0 q 0.8398,0 1.4258,0.625 0.6054,0.625 0.6054,1.5039 0,0.91797 -0.6054,1.54297 -0.586,0.60547 -1.4258,0.60547 l -13.0469,0 0,6.77735 11.3281,0 q 0.8399,0 1.4258,0.625 0.6055,0.60546 0.6055,1.52343 0,0.87891 -0.6055,1.50391 -0.5859,0.625 -1.4258,0.625 l -11.3281,0 0,7.59766 12.9687,0 q 0.8399,0 1.4454,0.625 0.625,0.60546 0.625,1.48437 0,0.91797 -0.625,1.54297 -0.6055,0.625 -1.4454,0.625 l -15.039,0 q -0.8399,0 -1.4453,-0.60547 -0.6055,-0.625 -0.6055,-1.5625 z"
         style="font-style:normal;font-variant:normal;font-weight:bold;font-stretch:normal;font-family:'Comic Neue';-inkscape-font-specification:'Comic Neue Bold';fill:#4d4d4d"
         id="path4010" />
      <path
         d="m 1623.4688,409.59656 0,-22.83203 q 0,-0.80078 0.4882,-1.40625 0.5078,-0.625 1.3086,-0.70312 0.078,0 0.8789,-0.0586 0.8008,-0.0781 2.0508,-0.0781 0.5664,0 1.1328,0.0195 0.586,0.0195 1.1524,0.0586 5.957,0.44922 8.789,3.08594 1.1133,0.99609 1.7578,2.48047 0.6055,1.44531 0.6055,3.08594 0,3.20312 -2.3633,5.54687 -1.1914,1.11328 -3.0859,2.08985 1.3672,1.11328 3.0469,3.02734 1.6797,1.89453 3.0859,4.72656 0.2149,0.48828 0.2149,0.97656 0,0.33204 -0.098,0.66407 -0.2344,0.83984 -1.0352,1.21093 -0.4492,0.23438 -0.9179,0.23438 -1.2305,0 -1.8164,-1.15234 -0.8008,-1.67969 -1.7383,-2.92969 -0.9375,-1.26953 -1.836,-2.16797 -0.8984,-0.91797 -1.6601,-1.48438 -0.7617,-0.58593 -1.2305,-0.85937 -0.8398,-0.52734 -2.2461,-0.52734 -0.1953,0 -0.4297,0.0195 -0.2148,0.0195 -0.4492,0.0586 -0.4492,0.0391 -0.8398,0.0781 -0.3711,0.0391 -0.6836,0.0781 l 0,6.75781 q 0,0.91797 -0.6055,1.52344 -0.5859,0.60547 -1.4258,0.60547 -0.8398,0 -1.4453,-0.58594 -0.6054,-0.60547 -0.6054,-1.54297 z m 4.082,-10.91797 q 1.289,-0.0781 2.7734,-0.35156 1.5039,-0.27344 2.8711,-0.76172 2.168,-0.80078 3.2813,-1.83593 1.0742,-1.07422 1.0742,-2.48047 0,-1.44532 -0.9961,-2.40235 -0.8789,-0.80078 -2.5195,-1.30859 -1.6407,-0.52734 -3.8477,-0.74219 -0.4883,-0.0391 -0.9961,-0.0586 -0.4883,-0.0195 -0.9961,-0.0195 -0.1562,0 -0.332,0 -0.1563,0 -0.3125,0.0391 l 0,9.92187 z"
         style="font-style:normal;font-variant:normal;font-weight:bold;font-stretch:normal;font-family:'Comic Neue';-inkscape-font-specification:'Comic Neue Bold';fill:#4d4d4d"
         id="path4012" />
      <path
         d="m 1647.1406,409.5575 0,-22.91016 q 0,-0.8789 0.6055,-1.5039 0.6055,-0.625 1.4453,-0.625 l 15.1172,0 q 0.8398,0 1.4258,0.625 0.6054,0.625 0.6054,1.5039 0,0.91797 -0.6054,1.54297 -0.586,0.60547 -1.4258,0.60547 l -13.0469,0 0,6.77735 11.3281,0 q 0.8399,0 1.4258,0.625 0.6055,0.60546 0.6055,1.52343 0,0.87891 -0.6055,1.50391 -0.5859,0.625 -1.4258,0.625 l -11.3281,0 0,7.59766 12.9688,0 q 0.8398,0 1.4453,0.625 0.625,0.60546 0.625,1.48437 0,0.91797 -0.625,1.54297 -0.6055,0.625 -1.4453,0.625 l -15.0391,0 q -0.8398,0 -1.4453,-0.60547 -0.6055,-0.625 -0.6055,-1.5625 z"
         style="font-style:normal;font-variant:normal;font-weight:bold;font-stretch:normal;font-family:'Comic Neue';-inkscape-font-specification:'Comic Neue Bold';fill:#4d4d4d"
         id="path4014" />
    </g>
    <g
       transform="translate(158.24011,2231.9931)"
       style="font-style:normal;font-weight:normal;font-size:40px;line-height:125%;font-family:sans-serif;letter-spacing:0px;word-spacing:0px;fill:#4d4d4d;fill-opacity:1;stroke:none;stroke-width:1px;stroke-linecap:butt;stroke-linejoin:miter;stroke-opacity:1"
       id="flowRoot4242-6-5-4-1-0">
      <path
         d="m 1572.375,387.03797 0,-0.0781 q 0,-1.03515 0.7031,-1.75781 0.7032,-0.72265 1.6992,-0.72265 0.8399,0 1.4844,0.52734 l 0.1953,0.19531 q 0.1563,0.19531 0.3516,0.48828 0.039,0.0391 0.5273,0.83985 0.4883,0.80078 1.2305,2.07031 0.7617,1.25 1.7188,2.85156 0.9765,1.60156 1.9726,3.28125 2.3633,3.92578 5.3125,8.82813 l 0,-16.99219 q 0,-0.87891 0.6055,-1.48438 0.6055,-0.60546 1.4062,-0.60546 0.8399,0 1.4063,0.60546 0.5859,0.60547 0.5859,1.48438 l 0,22.55859 q 0,1.07422 -0.7422,1.85547 -0.7422,0.78125 -1.7773,0.78125 -0.6836,0 -1.2695,-0.33203 -0.5664,-0.35156 -0.8789,-0.99609 l -10.4883,-17.59766 0,16.81641 q 0,0.8789 -0.586,1.5039 -0.5664,0.60547 -1.4062,0.60547 -0.8399,0 -1.4258,-0.60547 -0.5859,-0.625 -0.5859,-1.5039 l -0.039,-22.61719 z"
         style="font-style:normal;font-variant:normal;font-weight:bold;font-stretch:normal;font-family:'Comic Neue';-inkscape-font-specification:'Comic Neue Bold';fill:#4d4d4d"
         id="path4001" />
      <path
         d="m 1596.5938,397.91688 q 0.1562,-2.67579 1.0742,-5.09766 0.9179,-2.42188 2.4804,-4.33594 1.6016,-1.875 3.5157,-2.91015 1.9922,-1.11329 4.2578,-1.13282 1.8359,0 3.5156,0.80078 1.6797,0.80079 3.0273,2.2461 1.7969,1.97265 2.6563,4.78515 0.7031,2.2461 0.7031,4.70704 0,0.60546 -0.039,1.23046 -0.1954,2.67579 -1.1133,5.09766 -0.918,2.42188 -2.4805,4.33594 -1.6406,1.91406 -3.4766,2.92969 -2.0703,1.11328 -4.2382,1.11328 -1.875,0 -3.5743,-0.78125 -1.6796,-0.78125 -2.9882,-2.26563 -1.7969,-1.99219 -2.6563,-4.80469 -0.7031,-2.28515 -0.7031,-4.76562 0,-0.56641 0.039,-1.15234 z m 4.121,0.29296 q -0.019,0.39063 -0.019,0.76172 0,1.89453 0.4883,3.59375 0.5664,1.99219 1.7383,3.24219 1.5625,1.67969 3.5547,1.67969 1.289,0 2.4804,-0.70313 1.1914,-0.70312 2.2266,-2.01172 1.0352,-1.36718 1.6797,-3.125 0.6445,-1.75781 0.7617,-3.73046 0.02,-0.3711 0.02,-0.76172 0,-0.66407 -0.078,-1.3086 -0.1367,-1.03515 -0.4492,-2.08984 -0.6836,-2.16797 -1.9336,-3.39844 -1.5234,-1.67969 -3.5156,-1.67969 -1.2305,0 -2.4219,0.6836 -1.1719,0.68359 -2.1289,1.97265 -1.0352,1.36719 -1.6602,3.125 -0.625,1.73829 -0.7422,3.75 z"
         style="font-style:normal;font-variant:normal;font-weight:bold;font-stretch:normal;font-family:'Comic Neue';-inkscape-font-specification:'Comic Neue Bold';fill:#4d4d4d"
         id="path4003" />
      <path
         d="m 1620.7734,387.25281 q -0.098,-0.3125 -0.098,-0.625 0,-0.50781 0.2539,-0.99609 0.3906,-0.78125 1.2305,-1.03516 0.2734,-0.11718 0.6445,-0.11718 0.6836,0 1.2305,0.42968 0.5664,0.41016 0.7617,1.09375 l 4.9219,16.48438 5.2929,-16.52344 q 0.1953,-0.68359 0.7422,-1.07422 0.5664,-0.41015 1.25,-0.41015 l 0.039,0 q 0.6836,0.0391 1.2109,0.46875 0.5469,0.41015 0.7617,1.09375 l 4.5117,16.52343 5.918,-16.67968 q 0.1953,-0.64454 0.7422,-1.01563 0.5469,-0.39062 1.2109,-0.39062 0.3516,0 0.7227,0.11718 0.8398,0.3125 1.2109,1.13282 0.1758,0.41015 0.1758,0.89843 0,0.35157 -0.098,0.74219 l -8.1641,22.98828 q -0.2344,0.64453 -0.7813,1.03516 -0.5273,0.37109 -1.2109,0.37109 l -0.078,0 q -0.6836,-0.0391 -1.2305,-0.44922 -0.5469,-0.42968 -0.7422,-1.11328 l -4.3554,-16.11328 -5.1563,16.19141 q -0.1953,0.68359 -0.7617,1.09375 -0.5664,0.39062 -1.25,0.39062 l -0.039,0 q -0.6836,0 -1.25,-0.41015 -0.5468,-0.42969 -0.7422,-1.11329 l -6.875,-22.98828 z"
         style="font-style:normal;font-variant:normal;font-weight:bold;font-stretch:normal;font-family:'Comic Neue';-inkscape-font-specification:'Comic Neue Bold';fill:#4d4d4d"
         id="path4005" />
    </g>
    <rect
       style="color:#000000;clip-rule:nonzero;display:inline;overflow:visible;visibility:visible;opacity:0.77999998;isolation:auto;mix-blend-mode:normal;color-interpolation:sRGB;color-interpolation-filters:linearRGB;solid-color:#000000;solid-opacity:1;fill:none;fill-opacity:1;fill-rule:nonzero;stroke:none;stroke-width:1;stroke-linecap:butt;stroke-linejoin:miter;stroke-miterlimit:4;stroke-dasharray:none;stroke-dashoffset:0;stroke-opacity:1;color-rendering:auto;image-rendering:auto;shape-rendering:auto;text-rendering:auto;enable-background:accumulate"
       id="rect5510-1"
       width="1095.1042"
       height="225.35907"
       x="1223.6294"
       y="2471.4202"
       rx="4.4103498"
       ry="2.7853885" />
    <circle
       style="color:#000000;clip-rule:nonzero;display:inline;overflow:visible;visibility:visible;opacity:1;isolation:auto;mix-blend-mode:normal;color-interpolation:sRGB;color-interpolation-filters:linearRGB;solid-color:#000000;solid-opacity:1;fill:#000000;fill-opacity:1;fill-rule:nonzero;stroke:none;stroke-width:1;stroke-linecap:butt;stroke-linejoin:miter;stroke-miterlimit:4;stroke-dasharray:none;stroke-dashoffset:0;stroke-opacity:1;color-rendering:auto;image-rendering:auto;shape-rendering:auto;text-rendering:auto;enable-background:accumulate"
       id="path5512-3"
       cx="1771.1815"
       cy="2584.0996"
       r="10.563706" />
  </g>
</svg>
