<?xml version="1.0" encoding="UTF-8" standalone="no"?>
<svg
   xmlns:dc="http://purl.org/dc/elements/1.1/"
   xmlns:cc="http://creativecommons.org/ns#"
   xmlns:rdf="http://www.w3.org/1999/02/22-rdf-syntax-ns#"
   xmlns:svg="http://www.w3.org/2000/svg"
   xmlns="http://www.w3.org/2000/svg"
   width="372.89072mm"
   height="96.246452mm"
   viewBox="0 0 1321.2663 341.03074"
   id="svg2"
   version="1.1">
  <defs
     id="defs4">
    <marker
       orient="auto"
       refY="0"
       refX="0"
       id="Arrow1Lend"
       style="overflow:visible">
      <path
         id="path5845"
         d="M 0,0 5,-5 -12.5,0 5,5 0,0 Z"
         style="fill:#000000;fill-opacity:1;fill-rule:evenodd;stroke:#000000;stroke-width:1pt;stroke-opacity:1"
         transform="matrix(-0.8,0,0,-0.8,-10,0)" />
    </marker>
    <marker
       orient="auto"
       refY="0"
       refX="0"
       id="TriangleOutM"
       style="overflow:visible">
      <path
         id="path5987"
         d="m 5.77,0 -8.65,5 0,-10 8.65,5 z"
         style="fill:#000000;fill-opacity:1;fill-rule:evenodd;stroke:#000000;stroke-width:1pt;stroke-opacity:1"
         transform="scale(0.4,0.4)" />
    </marker>
    <marker
       orient="auto"
       refY="0"
       refX="0"
       id="TriangleInM"
       style="overflow:visible">
      <path
         id="path5978"
         d="m 5.77,0 -8.65,5 0,-10 8.65,5 z"
         style="fill:#000000;fill-opacity:1;fill-rule:evenodd;stroke:#000000;stroke-width:1pt;stroke-opacity:1"
         transform="scale(-0.4,-0.4)" />
    </marker>
    <marker
       orient="auto"
       refY="0"
       refX="0"
       id="Arrow2Mstart"
       style="overflow:visible">
      <path
         id="path5866"
         style="fill:#000000;fill-opacity:1;fill-rule:evenodd;stroke:#000000;stroke-width:0.625;stroke-linejoin:round;stroke-opacity:1"
         d="M 8.7185878,4.0337352 -2.2072895,0.01601326 8.7185884,-4.0017078 c -1.7454984,2.3720609 -1.7354408,5.6174519 -6e-7,8.035443 z"
         transform="scale(0.6,0.6)" />
    </marker>
    <marker
       orient="auto"
       refY="0"
       refX="0"
       id="Arrow1Lstart"
       style="overflow:visible">
      <path
         id="path5842"
         d="M 0,0 5,-5 -12.5,0 5,5 0,0 Z"
         style="fill:#000000;fill-opacity:1;fill-rule:evenodd;stroke:#000000;stroke-width:1pt;stroke-opacity:1"
         transform="matrix(0.8,0,0,0.8,10,0)" />
    </marker>
    <marker
       orient="auto"
       refY="0"
       refX="0"
       id="TriangleInM-6"
       style="overflow:visible">
      <path
         id="path5978-6"
         d="m 5.77,0 -8.65,5 0,-10 8.65,5 z"
         style="fill:#000000;fill-opacity:1;fill-rule:evenodd;stroke:#000000;stroke-width:1pt;stroke-opacity:1"
         transform="scale(-0.4,-0.4)" />
    </marker>
    <marker
       orient="auto"
       refY="0"
       refX="0"
       id="TriangleOutM-4"
       style="overflow:visible">
      <path
         id="path5987-0"
         d="m 5.77,0 -8.65,5 0,-10 8.65,5 z"
         style="fill:#000000;fill-opacity:1;fill-rule:evenodd;stroke:#000000;stroke-width:1pt;stroke-opacity:1"
         transform="scale(0.4,0.4)" />
    </marker>
    <marker
       orient="auto"
       refY="0"
       refX="0"
       id="TriangleInM-6-4"
       style="overflow:visible">
      <path
         id="path5978-6-6"
         d="m 5.77,0 -8.65,5 0,-10 8.65,5 z"
         style="fill:#000000;fill-opacity:1;fill-rule:evenodd;stroke:#000000;stroke-width:1pt;stroke-opacity:1"
         transform="scale(-0.4,-0.4)" />
    </marker>
    <marker
       orient="auto"
       refY="0"
       refX="0"
       id="TriangleOutM-4-2"
       style="overflow:visible">
      <path
         id="path5987-0-6"
         d="m 5.77,0 -8.65,5 0,-10 8.65,5 z"
         style="fill:#000000;fill-opacity:1;fill-rule:evenodd;stroke:#000000;stroke-width:1pt;stroke-opacity:1"
         transform="scale(0.4,0.4)" />
    </marker>
    <marker
       orient="auto"
       refY="0"
       refX="0"
       id="TriangleInM-6-4-5"
       style="overflow:visible">
      <path
         id="path5978-6-6-6"
         d="m 5.77,0 -8.65,5 0,-10 8.65,5 z"
         style="fill:#000000;fill-opacity:1;fill-rule:evenodd;stroke:#000000;stroke-width:1pt;stroke-opacity:1"
         transform="scale(-0.4,-0.4)" />
    </marker>
    <marker
       orient="auto"
       refY="0"
       refX="0"
       id="TriangleOutM-4-2-9"
       style="overflow:visible">
      <path
         id="path5987-0-6-8"
         d="m 5.77,0 -8.65,5 0,-10 8.65,5 z"
         style="fill:#000000;fill-opacity:1;fill-rule:evenodd;stroke:#000000;stroke-width:1pt;stroke-opacity:1"
         transform="scale(0.4,0.4)" />
    </marker>
  </defs>
  <metadata
     id="metadata7">
    <rdf:RDF>
      <cc:Work
         rdf:about="">
        <dc:format>image/svg+xml</dc:format>
        <dc:type
           rdf:resource="http://purl.org/dc/dcmitype/StillImage" />
        <dc:title></dc:title>
      </cc:Work>
    </rdf:RDF>
  </metadata>
  <g
     transform="translate(-965.85421,-4997.603)"
     id="g4141">
    <path
       d="m 1046.9069,5138.2332 c 1.4953,1.1303 3.1446,1.3729 4.7894,1.4085 3.7059,-0.2505 7.2034,-2.1711 10.6142,-4.2285 5.1735,-3.4372 10.146,-7.5353 15.1116,-11.6083 5.9404,-4.8609 11.8354,-9.8477 17.7599,-14.7532 6.218,-5.2388 12.5273,-10.2015 18.9373,-14.8744 5.9928,-4.3681 12.1276,-8.2607 18.2649,-12.1307 6.2034,-3.9618 12.2853,-8.342 18.449,-12.4411 5.1349,-3.684 10.528,-6.1554 16.1195,-7.5424 4.735,-1.0592 9.4571,-0.4422 14.1189,0.9767 4.7375,1.4484 8.9093,4.8 12.7411,9.1537 4.602,5.9063 8.3338,13.1705 11.9223,20.4694 4.1381,8.7185 7.9182,17.8102 11.8277,26.7649 3.8106,8.8707 7.7342,17.6175 11.8539,26.1636 4.1617,8.4314 8.4398,16.7274 12.6269,25.1297 3.9095,8.1047 8.2678,15.6186 13.4036,21.9585 5.1034,5.9648 10.4264,8.5454 16.7194,9.8228 7.255,1.0751 14.2079,-1.9177 20.9179,-5.7623 8.8263,-5.4199 16.4598,-14.0922 23.8516,-23.0217 7.4778,-9.3328 14.5492,-19.3825 21.6533,-29.3569 6.2502,-8.8752 12.5748,-17.6281 18.877,-26.4182 5.8377,-8.1408 11.5441,-16.4962 17.3977,-24.6109 4.3288,-5.9296 8.7478,-11.7014 13.4604,-16.9178 3.8139,-4.2594 8.0923,-7.282 12.4898,-9.8459 4.3436,-2.6009 8.8774,-3.8069 13.5237,-3.9621 4.8731,-0.037 9.4757,2.0321 13.9149,4.8944 5.4054,3.7162 9.7915,9.7055 13.9841,15.934 5.2441,8.0311 9.8502,16.9303 14.3289,25.9439 5.3401,10.6792 10.0052,22.068 14.5159,33.5784 4.3703,11.7709 9.2082,23.0756 14.6872,33.7196 4.8576,9.3921 10.7617,17.1978 17.1373,24.101 5.633,6.0597 11.9256,10.0223 18.6159,12.3703 6.5327,2.1102 13.0266,0.902 19.3877,-1.734 7.1404,-3.3568 13.1922,-9.9435 18.9645,-16.9339 6.8639,-8.8099 13.3636,-18.2484 19.8758,-27.6459 7.2992,-10.359 14.3346,-21.1215 21.1266,-32.2441 6.6503,-10.904 12.8487,-22.4078 19.0333,-33.9175 5.1538,-9.8576 10.3167,-19.7029 15.6012,-29.3996 4.1266,-7.6503 8.6018,-14.8239 13.5291,-21.2866 4.2218,-5.5125 9.024,-9.7097 14.0927,-13.1217 5.09,-3.2172 9.4133,-3.8846 14.8182,-2.6108 5.4043,1.6444 10.0652,5.9749 14.4169,10.9137 5.5501,6.7425 9.7563,15.4935 13.7858,24.2786 5.1024,11.4685 9.5648,23.5458 13.872,35.7303 3.9649,11.3765 7.5298,23.0569 11.1234,34.7098 2.7832,9.4756 5.8268,18.7536 9.2925,27.6948 3.0371,7.9417 7.0496,14.7673 11.4175,21.051 3.5605,4.6882 7.5951,8.7402 12.1958,10.6114 0.9545,0.3882 1.9364,0.5996 2.9047,0.8994 6.9233,1.4079 13.7151,-0.9714 20.3019,-3.9953 7.6417,-3.7735 14.6725,-9.7013 21.4733,-16.098 7.7194,-7.389 14.4408,-16.7182 20.7975,-26.582 6.8995,-11.0429 12.9291,-23.2278 18.9903,-35.3242 5.5845,-11.4068 11.3353,-22.6203 17.2304,-33.6598 4.6995,-8.6661 9.5872,-17.0959 14.6417,-25.2874 3.4973,-5.6537 7.1834,-11.0221 11.3244,-15.575 3.1322,-3.3381 6.6215,-5.3169 10.4,-5.9984 3.9994,-0.3285 6.5858,2.0964 9.3739,6.1589 3.776,6.4146 6.0309,14.4385 8.1848,22.2927 2.9651,11.7328 5.1055,23.8944 7.3628,35.971 2.4039,13.2096 5.2531,26.2076 8.2545,39.1266 2.7883,11.9788 5.9756,23.7285 9.4267,35.2987 2.5412,8.6273 5.573,16.8908 9.1209,24.6512 2.0416,4.0379 4.1469,8.7012 7.3613,10.7579 0.526,0.3365 1.0922,0.5052 1.6381,0.7578 4.9238,1.1712 8.947,-3.3558 12.6495,-7.6571 5.5109,-7.0467 10.3144,-15.2456 15.203,-23.2517 5.186,-8.5869 10.1811,-17.43 15.1667,-26.2839 4.6765,-8.2934 9.334,-16.6106 13.9681,-24.959 3.701,-6.6878 7.2661,-13.5441 10.8768,-20.3435 3.1124,-5.7256 6.1607,-11.5315 9.3111,-17.2094 2.2431,-4.1176 4.4919,-8.2287 6.9466,-12.0612 1.9096,-2.9846 4.1027,-5.1614 6.7588,-6.1829 3.4127,-0.6512 5.2127,3.1249 6.809,7.0942 2.6325,7.5385 4.3882,15.697 6.2596,23.7191 2.2499,9.9404 4.4724,19.895 6.7642,29.8133 2.2564,9.9186 4.4757,19.855 6.9114,29.6763 2.1848,9.0801 5.031,17.714 8.4268,25.8767 2.7074,6.3258 6.0914,11.6654 10.2927,15.6702 4.419,3.6516 8.136,3.5767 12.9077,1.8636 6.1513,-2.8022 11.0796,-9.0602 15.7683,-15.4579 5.7832,-8.4504 10.9479,-17.8089 16.0749,-27.1661 5.0366,-9.2427 10.0707,-18.4887 15.1279,-27.7055 3.4996,-6.3844 6.9347,-12.8456 10.7283,-18.836 2.6436,-4.1131 5.5449,-7.6945 9.1665,-9.5028 3.6534,-0.8587 5.775,3.2542 7.725,7.2799 2.43,5.7178 4.8128,11.4755 7.3567,17.08 2.4041,5.3399 5.1591,10.2573 8.1413,14.8642 2.1481,3.3135 4.5191,6.2272 7.2886,8.232 2.4434,1.6812 4.7898,1.0725 7.2233,-0.2195 2.6984,-1.798 5.093,-4.4463 7.4201,-7.1549 1.9913,-2.3108 3.7736,-4.9972 5.491,-7.7592 1.4161,-2.2882 2.7133,-4.7373 4.0173,-7.172 0.5129,-1.0278 1.0993,-1.9545 1.6945,-2.8703 0,0 0.6346,0.9525 0.6346,0.9525 l 0,0 c -0.5758,0.8833 -1.1419,1.7791 -1.637,2.7726 -1.3178,2.4607 -2.6292,4.9353 -4.0608,7.2476 -1.7505,2.8138 -3.5674,5.5503 -5.597,7.9044 -2.4027,2.7949 -4.877,5.5248 -7.6696,7.359 -2.6598,1.3974 -5.2418,2 -7.9017,0.1619 -2.8586,-2.0874 -5.322,-5.0686 -7.5395,-8.5044 -3.0177,-4.6639 -5.8067,-9.6402 -8.2398,-15.0451 -2.5387,-5.5935 -4.9193,-11.3372 -7.3411,-17.0468 -1.6969,-3.5158 -3.5192,-7.4144 -6.7294,-6.7937 -3.4873,1.7068 -6.2543,5.2252 -8.8001,9.1537 -3.7794,5.9664 -7.1989,12.406 -10.6857,18.7643 -5.0571,9.2166 -10.091,18.4623 -15.1278,27.7047 -5.1544,9.4074 -10.3475,18.8156 -16.1642,27.3075 -4.8024,6.5484 -9.8563,12.9274 -16.1608,15.7689 -5.1326,1.8187 -8.8343,1.8375 -13.5867,-2.0359 -4.3082,-4.1267 -7.7955,-9.589 -10.5717,-16.0934 -3.4263,-8.2419 -6.3024,-16.9557 -8.5077,-26.1227 -2.4379,-9.831 -4.6598,-19.7768 -6.918,-29.7052 -2.2917,-9.9171 -4.5141,-19.8702 -6.7636,-29.8095 -1.8509,-7.9347 -3.587,-16.0038 -6.1807,-23.4674 -1.3701,-3.4352 -2.8545,-6.9625 -5.831,-6.4836 -2.4987,0.9292 -4.54,3.0265 -6.3351,5.813 -2.4408,3.8083 -4.6735,7.8981 -6.9039,11.9896 -3.1462,5.6701 -6.1904,11.4689 -9.2987,17.1867 -3.6148,6.8071 -7.184,13.671 -10.8891,20.3663 -4.6355,8.3508 -9.2944,16.6704 -13.9724,24.9662 -4.9933,8.8678 -9.9962,17.7245 -15.1904,26.3247 -4.9229,8.0625 -9.7611,16.3187 -15.3155,23.4071 -3.9488,4.5761 -8.2212,9.2316 -13.4558,7.8744 -0.6011,-0.2882 -1.2243,-0.4862 -1.8037,-0.8646 -3.3329,-2.1773 -5.546,-6.9476 -7.6644,-11.1726 -3.5769,-7.8295 -6.6381,-16.1616 -9.2004,-24.8647 -3.4614,-11.6058 -6.6586,-23.3912 -9.4553,-35.407 -3.0078,-12.9457 -5.8625,-25.9706 -8.2716,-39.2073 -2.2477,-12.0254 -4.3785,-24.1355 -7.3282,-35.8203 -2.1058,-7.6836 -4.3041,-15.5416 -7.98,-21.8375 -2.5762,-3.7841 -4.9343,-6.0731 -8.6509,-5.789 -3.628,0.6381 -6.9731,2.5543 -9.9812,5.7503 -4.0968,4.4978 -7.736,9.8169 -11.1961,15.4039 -5.0403,8.1675 -9.9136,16.5734 -14.5999,25.2142 -5.8893,11.0287 -11.6343,22.2312 -17.2134,33.6269 -6.0834,12.141 -12.1362,24.3698 -19.0625,35.4515 -6.4079,9.9405 -13.1841,19.3407 -20.9655,26.7861 -6.8674,6.4573 -13.968,12.4382 -21.6851,16.2431 -6.7297,3.085 -13.6682,5.4927 -20.7391,4.0257 -1.0037,-0.3144 -2.0215,-0.5373 -3.0105,-0.943 -4.7229,-1.9366 -8.869,-6.0899 -12.5245,-10.9117 -4.4271,-6.3729 -8.4936,-13.2954 -11.5727,-21.3472 -3.479,-8.9785 -6.5375,-18.2928 -9.3316,-27.8076 -3.5865,-11.6303 -7.1443,-23.2885 -11.1013,-34.6433 -4.2909,-12.1388 -8.7358,-24.1708 -13.8182,-35.5969 -3.9741,-8.667 -8.1183,-17.3075 -13.588,-23.968 -4.2323,-4.8109 -8.7638,-9.0427 -14.0203,-10.66 -5.1377,-1.23 -9.4845,-0.5846 -14.319,2.511 -4.9898,3.3538 -9.7153,7.485 -13.8711,12.9084 -4.891,6.4109 -9.3291,13.5344 -13.4246,21.1249 -5.2835,9.6943 -10.4448,19.5373 -15.5974,29.3923 -6.1964,11.5319 -12.4073,23.0574 -19.0702,33.9822 -6.8052,11.1433 -13.8536,21.9265 -21.1662,32.3049 -6.5312,9.4246 -13.0496,18.8903 -19.9344,27.7232 -5.8687,7.1034 -12.0254,13.7828 -19.2861,17.1818 -6.5878,2.7194 -13.0572,3.9006 -19.8235,1.7467 -6.8028,-2.3975 -13.2049,-6.4203 -18.9329,-12.5872 -6.4437,-6.9817 -12.412,-14.8738 -17.3221,-24.3698 -5.501,-10.6903 -10.3627,-22.0397 -14.7509,-33.861 -4.4938,-11.468 -9.1413,-22.8153 -14.4613,-33.4551 -4.4518,-8.9599 -9.0292,-17.807 -14.2408,-25.7917 -4.1124,-6.1117 -8.4085,-12.001 -13.7093,-15.6554 -4.321,-2.7935 -8.801,-4.8166 -13.5465,-4.7868 -4.5438,0.1445 -8.9757,1.3305 -13.2232,3.8726 -4.3249,2.519 -8.5335,5.4877 -12.2839,9.6759 -4.6868,5.1856 -9.0792,10.9286 -13.3845,16.8234 -5.8529,8.1136 -11.5583,16.4686 -17.3958,24.608 -6.3012,8.7892 -12.6252,17.541 -18.8747,26.4153 -7.1202,9.9971 -14.208,20.0695 -21.7034,29.4224 -7.4651,9.0163 -15.1773,17.7639 -24.0924,23.2292 -6.8505,3.918 -13.9476,6.9504 -21.3513,5.8373 -6.4601,-1.3241 -11.9275,-3.9849 -17.1638,-10.1146 -5.1878,-6.4153 -9.6026,-13.9954 -13.5522,-22.1919 -4.1897,-8.4082 -8.471,-16.7096 -12.6354,-25.1471 -4.1276,-8.5631 -8.0594,-17.3269 -11.8775,-26.2152 -3.9004,-8.9336 -7.6716,-18.004 -11.7989,-26.703 -3.5371,-7.1962 -7.2134,-14.3602 -11.7424,-20.1957 -3.7214,-4.2409 -7.7763,-7.4985 -12.3817,-8.9096 -4.5559,-1.3916 -9.171,-1.9985 -13.7999,-0.9678 -5.5182,1.3644 -10.8381,3.8103 -15.9051,7.4462 -6.1691,4.1025 -12.2559,8.487 -18.4646,12.4513 -6.1226,3.8607 -12.2425,7.7435 -18.2211,12.1009 -6.396,4.6626 -12.6915,9.615 -18.8962,14.8424 -5.9254,4.9064 -11.8216,9.8941 -17.763,14.7559 -4.9963,4.098 -9.9997,8.2214 -15.2063,11.6754 -3.5205,2.121 -7.1323,4.0888 -10.9577,4.324 -1.7603,-0.049 -3.5251,-0.3132 -5.1269,-1.5179 0,0 0.3517,-1.2454 0.3517,-1.2454 z"
       id="path4174-80"
       style="color:#000000;clip-rule:nonzero;display:inline;overflow:visible;visibility:visible;opacity:0.781;isolation:auto;mix-blend-mode:normal;color-interpolation:sRGB;color-interpolation-filters:linearRGB;solid-color:#000000;solid-opacity:1;fill:#000000;fill-opacity:1;fill-rule:nonzero;stroke:#000000;stroke-width:2.00110102;stroke-linecap:butt;stroke-linejoin:miter;stroke-miterlimit:4;stroke-dasharray:none;stroke-dashoffset:0;stroke-opacity:1;color-rendering:auto;image-rendering:auto;shape-rendering:auto;text-rendering:auto;enable-background:accumulate" />
    <path
       d="m 1003.0713,5285.6324 c 4.9623,-0.2569 9.9309,-0.4404 14.9027,-0.5944 7.7951,-0.2263 15.5961,-0.345 23.3965,-0.455 8.3465,-0.1141 16.6938,-0.1902 25.0413,-0.2584 8.0278,-0.065 16.0559,-0.1083 24.0842,-0.1453 8.3333,-0.1673 16.6599,-0.452 24.99,-0.6761 8.4945,-0.2029 16.988,-0.3608 25.4757,-0.6656 10.0682,-0.2998 20.1236,-0.7159 30.1781,-1.1678 9.7922,-0.5512 19.6165,-0.6531 29.4377,-0.7291 10.0729,-0.035 20.1414,-0.065 30.2096,-0.2754 10.3502,-0.2765 20.7135,-0.1951 31.0695,-0.1654 11.3101,0.038 22.6202,0.066 33.9306,0.089 13.0281,-0.067 26.0496,0.2085 39.0711,0.4426 13.8265,0.2829 27.6531,0.4459 41.4859,0.4024 13.3599,-0.1424 26.7153,-0.1575 40.0744,0 9.9071,0.1367 19.7636,0.8249 29.63,1.3699 10.1499,0.7237 20.3277,1.2526 30.4899,1.8905 10.8831,0.7637 21.6958,1.8829 32.5203,2.9327 12.9863,1.2303 26.0078,2.2844 39.0316,3.3267 14.3993,1.1616 28.8232,2.1737 43.2429,3.2163 15.7363,1.2806 31.5725,1.7987 47.4024,2.2603 17.0973,0.4949 34.2106,0.6771 51.3116,1.0921 15.3948,0.3338 30.7462,1.2299 46.0822,2.1397 16.7638,1.0511 33.5691,1.7608 50.38,2.3847 16.847,0.5762 33.6785,1.3243 50.524,1.9196 17.44,0.6961 34.912,0.8002 52.3776,0.9098 18.8972,0.1698 37.7951,-0.097 56.6738,-0.6397 16.0512,-0.3382 32.0111,-1.5103 47.9351,-2.8133 16.4314,-1.4913 32.8304,-3.1296 49.2699,-4.5831 14.5343,-1.2494 29.0977,-2.3351 43.6277,-3.606 12.6459,-1.1871 25.1928,-2.7808 37.7784,-4.2105 12.323,-1.2788 24.6174,-2.6711 36.9364,-3.9664 10.2591,-1.0233 20.4888,-2.1712 30.6847,-3.4384 9.0998,-1.0815 18.1497,-2.3277 27.2064,-3.5532 7.1422,-1.0289 14.2307,-2.2087 21.3588,-3.2769 6.3828,-1.0449 12.7896,-2.0232 19.1998,-2.9927 4.0447,-0.6102 8.0905,-1.2175 12.1362,-1.8246 2.5919,-0.3696 5.1961,-0.7009 7.7994,-1.0339 1.5138,-0.1932 3.0282,-0.3854 4.5424,-0.5778 4.5814,0.1611 -0.3284,3.3386 -1.682,4.1312 -4.3581,2.3605 -8.7342,4.7109 -13.158,7.0188 -4.3996,2.14 -8.6923,4.3726 -12.991,6.599 -2.5796,1.3373 -5.1565,2.677 -7.7333,4.0166 -1.8255,1.0344 -3.6122,1.7413 -5.7528,0.7452 -1.412,-2.0822 -0.7695,-4.5151 -0.5634,-6.727 0.097,-2.8991 -0.035,-5.7992 -0.138,-8.6976 -0.073,-2.025 -0.1532,-4.0499 -0.2218,-6.0749 -0.1728,-1.2853 -0.5945,-2.5483 -1.0062,-3.8077 -0.2489,-0.7524 -0.5048,-1.5038 -0.7607,-2.2552 -0.224,-1.5646 1.9101,-1.8764 3.7982,-1.9905 3.8763,-0.134 7.7466,0.271 11.5528,0.7104 4.4477,0.545 8.8123,1.3552 13.0832,2.3304 3.1721,0.6913 6.2088,1.6057 9.2314,2.5347 1.8918,0.5858 3.7772,1.1799 5.6628,1.7739 0.7172,0.1795 1.3588,0.5132 2.1159,0.6141 0,0 -0.659,1.5807 -0.659,1.5807 l 0,0 c -0.8878,-0.1772 -1.7037,-0.4438 -2.5335,-0.7166 -1.8787,-0.5919 -3.7571,-1.1838 -5.6414,-1.7674 -2.9456,-0.9053 -5.9026,-1.7984 -8.9941,-2.4713 -4.1449,-0.9475 -8.3811,-1.7338 -12.6974,-2.2644 -3.592,-0.4168 -7.2462,-0.8044 -10.9048,-0.6918 -0.4437,0.024 -1.3801,0.095 -1.5822,-3e-4 0.2576,0.7559 0.515,1.5119 0.7653,2.2688 0.4448,1.3605 0.8984,2.7254 1.0613,4.1158 0.069,2.0245 0.1484,4.0489 0.2218,6.0734 0.104,2.9443 0.2409,5.8905 0.1339,8.8357 -0.1687,1.8099 -0.4063,3.6657 -0.1707,5.462 0.1372,0.057 1.7152,-0.2843 2.4538,-0.8661 2.5781,-1.3403 5.1561,-2.6806 7.7369,-4.0187 4.2964,-2.225 8.5865,-4.4568 12.9842,-6.5954 4.3886,-2.289 8.7283,-4.6216 13.0539,-6.9614 0.1222,-0.071 2.6031,-1.8303 2.73,-1.8276 0.096,0 1.2291,0.8409 1.0775,0.5324 -1.5132,0.1922 -3.0263,0.3843 -4.5395,0.5775 -2.5767,0.3296 -5.1545,0.6575 -7.7204,1.023 -4.0444,0.607 -8.0889,1.2138 -12.1321,1.8239 -6.4116,0.9698 -12.8201,1.9484 -19.2046,2.9933 -7.1453,1.0706 -14.2507,2.254 -21.4102,3.2843 -9.0701,1.2273 -18.1331,2.475 -27.246,3.5585 -10.219,1.2697 -20.4718,2.4206 -30.7541,3.4463 -12.3086,1.294 -24.593,2.6854 -36.9056,3.9628 -12.6175,1.4334 -25.196,3.0313 -37.8743,4.2203 -14.5285,1.2708 -29.0907,2.3566 -43.6239,3.6058 -16.4478,1.4539 -32.8546,3.0936 -49.2944,4.585 -15.99,1.3083 -32.0161,2.4842 -48.1342,2.8245 -18.9227,0.5433 -37.8646,0.8112 -56.806,0.6411 -17.5023,-0.11 -35.011,-0.2146 -52.4877,-0.9121 -16.8476,-0.5954 -33.6815,-1.3437 -50.5304,-1.92 -16.8391,-0.6248 -33.6721,-1.3359 -50.4637,-2.3887 -15.2922,-0.9072 -30.5996,-1.8012 -45.9501,-2.1342 -17.1074,-0.4152 -34.2267,-0.597 -51.3301,-1.0926 -15.8839,-0.4632 -31.7744,-0.9839 -47.5643,-2.2684 -14.4295,-1.0433 -28.8629,-2.0561 -43.2718,-3.2185 -13.0445,-1.044 -26.0868,-2.0998 -39.0941,-3.3323 -10.7825,-1.0456 -21.5529,-2.1608 -32.3937,-2.9225 -10.1526,-0.6376 -20.3211,-1.1655 -30.4615,-1.8887 -9.8119,-0.5422 -19.6134,-1.2273 -29.4654,-1.3646 -13.3405,-0.1553 -26.6773,-0.14 -40.0184,0 -13.8594,0.043 -27.7129,-0.1193 -41.566,-0.4028 -13.0012,-0.2338 -26.0028,-0.5094 -39.0109,-0.4422 -11.3113,-0.023 -22.6224,-0.051 -33.9337,-0.089 -10.3261,-0.031 -20.6592,-0.1114 -30.9791,0.1646 -10.085,0.2109 -20.1702,0.2404 -30.2596,0.2759 -9.7741,0.076 -19.5517,0.1763 -29.2972,0.7256 -10.0659,0.4524 -20.1328,0.869 -30.2122,1.1692 -8.4991,0.305 -17.0037,0.4637 -25.5097,0.6666 -8.3582,0.2249 -16.7128,0.5112 -25.0744,0.6775 -8.0237,0.035 -16.0472,0.08 -24.0706,0.145 -8.34,0.068 -16.68,0.1442 -25.0189,0.2584 -7.7793,0.1097 -15.559,0.2279 -23.3326,0.4536 -5.0111,0.1549 -10.0181,0.3455 -15.02,0.596 0,0 0,-1.6391 0,-1.6391 z"
       id="path4214-4"
       style="color:#000000;clip-rule:nonzero;display:inline;overflow:visible;visibility:visible;opacity:0.781;isolation:auto;mix-blend-mode:normal;color-interpolation:sRGB;color-interpolation-filters:linearRGB;solid-color:#000000;solid-opacity:1;fill:#b3b3b3;fill-opacity:1;fill-rule:nonzero;stroke:#b3b3b3;stroke-width:1.30048954;stroke-linecap:butt;stroke-linejoin:miter;stroke-miterlimit:4;stroke-dasharray:none;stroke-dashoffset:0;stroke-opacity:1;color-rendering:auto;image-rendering:auto;shape-rendering:auto;text-rendering:auto;enable-background:accumulate" />
    <path
       d="m 1015.0535,5306.074 c -0.8598,-2.9687 -1.101,-6.1424 -1.2218,-9.2999 -0.024,-6.996 0.7572,-5.266 1.3764,-12.1951 0.988,-10.4811 1.6238,-21.0024 1.8953,-31.5607 0.1872,-12.3953 -0.3991,-24.7798 -0.9251,-37.1477 -0.7312,-13.9633 -1.3565,-27.935 -1.8712,-41.9159 -0.4687,-14.1355 -1.0256,-28.2652 -1.6557,-42.389 -0.6555,-13.5356 -1.1031,-27.0833 -1.3431,-40.6435 -0.2201,-12.8776 -0.1229,-25.7605 -0.056,-38.64 0.046,-8.2496 0.098,-16.4991 0.1493,-24.7486 0.031,-4.6713 0.059,-9.3424 0.09,-14.0137 0.024,-2.6242 0.034,-5.2484 0.05,-7.8724 0,-1.4737 0.024,-2.9473 0.028,-4.421 0.1088,-1.1743 -0.5173,-1.7922 0.5279,-0.8336 -1.2812,2.6812 -2.4738,5.438 -3.7339,8.1378 -2.2767,4.9451 -4.4873,9.9451 -6.6685,14.9688 -1.4964,3.4555 -2.98535,6.9168 -4.47425,10.3782 -0.6838,1.4988 -1.1843,3.114 -1.48631,4.8241 -0.0456,0.4877 0.0239,0.9631 0.10516,1.4333 0.0499,0.2516 0.10405,0.5008 0.15847,0.7502 -0.0249,-0.064 0.0595,0.2243 0.0379,0.172 -0.30916,-0.7455 0.57583,-0.287 0.96729,-0.2519 2.95189,0.1441 5.90304,-0.2598 8.84564,-0.5305 4.3401,-0.5184 8.6802,-1.035 13.0224,-1.5109 3.1274,-0.3378 6.2553,-0.6648 9.3832,-0.9922 1.7726,-0.1905 3.5462,-0.3616 5.3183,-0.5606 0.5758,0.067 1.3478,-0.3284 1.6521,-0.6107 -0.1586,-1.1466 -0.6703,-2.1668 -1.1677,-3.1343 -1.4724,-2.5869 -3.0929,-5.0108 -4.6491,-7.5043 -1.7591,-2.7541 -3.5438,-5.4774 -5.3023,-8.2322 -1.2168,-1.959 -2.5127,-3.8258 -3.7039,-5.8136 -0.9055,-1.561 -1.8409,-3.0935 -2.8239,-4.5665 -0.9698,-1.4639 -1.9218,-2.947 -2.8543,-4.4557 -0.6089,-0.9884 -1.2149,-1.9803 -1.8208,-2.972 -0.1871,-0.3643 -0.4291,-0.6596 -0.645,-0.9874 l 0.898,-1.0424 0,0 c 0.2321,0.3164 0.4539,0.6488 0.6566,1.0053 0.6042,0.9893 1.2087,1.9789 1.8161,2.9649 0.9228,1.4933 1.8654,2.962 2.8256,4.4106 0.9956,1.4956 1.9469,3.0471 2.8648,4.6312 1.1813,1.9763 2.4729,3.8264 3.6795,5.7744 1.7615,2.7594 3.5493,5.487 5.3107,8.2458 1.5812,2.533 3.2293,4.9937 4.7192,7.6278 0.7299,1.4388 1.538,2.9812 1.2354,4.813 -0.6064,1.1691 -1.5834,1.359 -2.5938,1.4452 -1.7742,0.1993 -3.5502,0.3708 -5.3249,0.5615 -3.126,0.3271 -6.2528,0.6538 -9.3786,0.9916 -4.3476,0.4765 -8.6927,0.994 -13.0376,1.5124 -2.9957,0.2756 -6.00009,0.6858 -9.00478,0.5306 -0.66841,-0.062 -1.7918,0.05 -2.05771,-1.0589 -0.0595,-0.2721 -0.1201,-0.5442 -0.17279,-0.8191 -0.13289,-0.7237 -0.20367,-1.4575 -0.10623,-2.2024 0.33182,-1.8614 0.87177,-3.6243 1.61476,-5.2579 1.48988,-3.463 2.97966,-6.9262 4.47665,-10.3837 2.1879,-5.0383 4.4046,-10.0532 6.6884,-15.0129 1.3024,-2.7892 2.5151,-5.6592 3.8806,-8.3915 1.7844,-0.3964 1.4703,-0.157 1.505,1.9606 0,1.4736 -0.024,2.9472 -0.028,4.4208 -0.024,2.6242 -0.033,5.2484 -0.05,7.8725 -0.032,4.6712 -0.059,9.3424 -0.09,14.0136 -0.052,8.2486 -0.1041,16.4973 -0.1492,24.746 -0.066,12.8628 -0.1634,25.7292 0.056,38.5902 0.2396,13.5406 0.6866,27.0688 1.3412,40.5849 0.6307,14.1294 1.1878,28.2649 1.6568,42.406 0.5142,13.9767 1.1394,27.9442 1.8702,41.9033 0.5283,12.4175 1.1179,24.8515 0.9267,37.2965 -0.2733,10.6041 -0.911,21.1714 -1.9035,31.6979 -0.6109,6.838 -1.3807,5.0162 -1.3691,11.9199 0.1088,2.9687 0.3291,5.9537 1.1277,8.7497 l -1.0863,0.6321 z"
       id="path4220-2"
       style="color:#000000;clip-rule:nonzero;display:inline;overflow:visible;visibility:visible;opacity:0.781;isolation:auto;mix-blend-mode:normal;color-interpolation:sRGB;color-interpolation-filters:linearRGB;solid-color:#000000;solid-opacity:1;fill:#b3b3b3;fill-opacity:1;fill-rule:nonzero;stroke:#b3b3b3;stroke-width:0.88603693;stroke-linecap:butt;stroke-linejoin:miter;stroke-miterlimit:4;stroke-dasharray:none;stroke-dashoffset:0;stroke-opacity:1;color-rendering:auto;image-rendering:auto;shape-rendering:auto;text-rendering:auto;enable-background:accumulate" />
    <g
       style="font-style:normal;font-weight:normal;font-size:43.36092758px;line-height:125%;font-family:sans-serif;letter-spacing:0px;word-spacing:0px;fill:#4d4d4d;fill-opacity:1;stroke:none;stroke-width:1px;stroke-linecap:butt;stroke-linejoin:miter;stroke-opacity:1"
       id="flowRoot4242-9">
      <path
         d="m 1545.4473,5311.3214 q 0,-0.9528 0.6351,-1.6303 0.6564,-0.6775 1.5668,-0.6775 l 17.7847,0 q 0.9105,0 1.5668,0.6775 0.6563,0.6775 0.6563,1.6303 0,0.9951 -0.6563,1.6726 -0.6563,0.6564 -1.5668,0.6564 l -6.9445,0 0,22.5908 q 0,0.9528 -0.6563,1.6303 -0.6352,0.6775 -1.5456,0.6775 -0.9104,0 -1.5668,-0.6563 -0.6351,-0.6775 -0.6351,-1.6515 l 0,-22.5908 -6.4364,0 q -0.9104,0 -1.5668,-0.6564 -0.6351,-0.6775 -0.6351,-1.6726 z"
         style="font-style:normal;font-variant:normal;font-weight:bold;font-stretch:normal;font-family:'Comic Neue';-inkscape-font-specification:'Comic Neue Bold';fill:#4d4d4d"
         id="path4133" />
      <path
         d="m 1570.4518,5336.3047 0,-17.086 q 0,-0.9951 0.6987,-1.6726 0.6987,-0.6776 1.6938,-0.6776 0.9951,0 1.6726,0.6776 0.6987,0.6563 0.6987,1.6726 l -0.085,17.086 q 0,0.9951 -0.6775,1.6727 -0.6564,0.6563 -1.6515,0.6563 -0.9951,0 -1.6726,-0.6563 -0.6775,-0.6776 -0.6775,-1.6727 z m 0.1694,-23.9882 0.085,-1.4821 q 0,-0.9527 0.6775,-1.6091 0.6775,-0.6775 1.6302,-0.6775 0.9528,0 1.6091,0.6775 0.6775,0.6564 0.6775,1.6091 l -0.085,1.4821 q 0,0.9528 -0.6776,1.6303 -0.6563,0.6775 -1.6091,0.6775 -0.9527,0 -1.6302,-0.6775 -0.6775,-0.6775 -0.6775,-1.6303 z"
         style="font-style:normal;font-variant:normal;font-weight:bold;font-stretch:normal;font-family:'Comic Neue';-inkscape-font-specification:'Comic Neue Bold';fill:#4d4d4d"
         id="path4135" />
      <path
         d="m 1580.9533,5336.2412 0,-17.1707 q 0,-0.9528 0.6775,-1.6091 0.6775,-0.6775 1.6302,-0.6775 0.9528,0 1.6091,0.6775 0.6776,0.6563 0.6776,1.6091 l 0,0.6987 q 0.3387,-0.3811 0.6986,-0.6987 0.3811,-0.3388 0.7411,-0.6775 2.3924,-2.0749 4.6367,-2.0961 2.1596,0 3.5993,1.0586 1.0798,0.741 1.7785,2.0326 0.9527,-1.0375 2.1172,-1.7362 2.1596,-1.3338 4.0439,-1.355 2.7313,0 4.3827,1.7361 2.0749,2.0749 2.0749,6.5634 l 0,11.6448 q 0,0.9528 -0.6775,1.6303 -0.6775,0.6775 -1.6303,0.6775 -0.9527,0 -1.6303,-0.6563 -0.6563,-0.6775 -0.6563,-1.6515 l 0,-11.92 q 0,-0.6987 -0.1482,-1.7361 -0.127,-1.0375 -0.5928,-1.5879 -0.3811,-0.3811 -1.1222,-0.4023 -0.5293,0 -1.4185,0.4023 -0.8893,0.3811 -1.715,1.1221 -0.6987,0.614 -1.3338,1.6303 -0.614,1.0162 -0.614,2.5195 l 0,9.9721 q 0,0.9528 -0.6775,1.6303 -0.6564,0.6775 -1.6091,0.6775 -0.9528,0 -1.6303,-0.6563 -0.6775,-0.6775 -0.6775,-1.6515 l 0,-11.92 q 0,-0.6987 -0.1271,-1.7361 -0.127,-1.0375 -0.614,-1.5879 -0.3811,-0.3811 -1.1221,-0.4023 -0.741,0 -2.3713,1.228 -1.6091,1.2068 -3.3876,4.1498 -0.1693,0.254 -0.254,0.5928 -0.063,0.3176 -0.063,0.4446 l 0,9.2311 q 0,0.9528 -0.6776,1.6303 -0.6563,0.6775 -1.6091,0.6775 -0.9527,0 -1.6302,-0.6563 -0.6775,-0.6775 -0.6775,-1.6515 z"
         style="font-style:normal;font-variant:normal;font-weight:bold;font-stretch:normal;font-family:'Comic Neue';-inkscape-font-specification:'Comic Neue Bold';fill:#4d4d4d"
         id="path4137" />
      <path
         d="m 1614.5961,5327.7511 q 0,-2.1172 0.7622,-4.0227 0.7622,-1.9267 2.0749,-3.3664 1.3338,-1.4609 3.1123,-2.3501 1.7785,-0.8893 3.811,-1.0163 0.3811,-0.042 0.7622,-0.042 2.0749,0 3.7899,0.9951 2.0325,1.1645 3.2605,3.1335 0.2117,0.3388 0.3599,0.6987 0.1483,0.3388 0.3388,0.6352 0.2117,0.4023 0.2117,0.8892 0,0.2753 -0.063,0.614 -0.1905,0.8893 -1.101,1.3551 -0.7833,0.4234 -2.2019,1.228 -1.3973,0.7833 -3.0488,1.6937 -1.6514,0.9105 -3.3452,1.8632 -1.6938,0.9528 -3.0277,1.6726 0.6987,0.8681 1.588,1.4821 1.3973,0.9527 3.1758,0.9527 2.4772,0 4.298,-1.9055 l 0.8681,-0.9104 q 0.614,-0.614 1.5032,-0.614 0.9104,0 1.5668,0.6564 0.6563,0.6563 0.6563,1.5244 0,0.7834 -0.5293,1.4185 l -0.8681,0.9104 q -1.482,1.6091 -3.4299,2.4772 -1.9055,0.8257 -4.0651,0.8257 -2.1596,0 -4.0862,-0.8469 -1.9056,-0.8469 -3.3241,-2.2866 -1.3974,-1.4609 -2.2231,-3.4299 -0.8257,-1.969 -0.8257,-4.2345 z m 4.3827,-0.2964 q 0.9104,-0.5293 2.1172,-1.1856 1.228,-0.6776 2.4348,-1.3551 1.228,-0.6775 2.329,-1.2915 1.1009,-0.6351 1.8843,-1.0798 -1.1221,-1.1221 -2.6042,-1.2068 -1.4821,0.042 -2.583,0.5928 -1.101,0.5293 -1.8844,1.3974 -1.5667,1.7785 -1.6937,4.1286 z"
         style="font-style:normal;font-variant:normal;font-weight:bold;font-stretch:normal;font-family:'Comic Neue';-inkscape-font-specification:'Comic Neue Bold';fill:#4d4d4d"
         id="path4139" />
    </g>
    <g
       transform="matrix(0,-1.0840231,1.0840231,0,549.93776,6881.6847)"
       style="font-style:normal;font-weight:normal;font-size:40px;line-height:125%;font-family:sans-serif;letter-spacing:0px;word-spacing:0px;fill:#4d4d4d;fill-opacity:1;stroke:none;stroke-width:1px;stroke-linecap:butt;stroke-linejoin:miter;stroke-opacity:1"
       id="flowRoot4242-3-2">
      <path
         d="m 1572.1797,409.69422 q 0,-0.87891 0.5859,-1.48438 0.6055,-0.60546 1.4453,-0.60546 l 2.4805,0 0,-19.04297 -2.4805,0 q -0.8398,0 -1.4453,-0.58594 -0.5859,-0.60547 -0.5859,-1.44531 0,-0.87891 0.5859,-1.48438 0.6055,-0.60547 1.4453,-0.60547 l 9.043,0 q 0.8399,0 1.4453,0.60547 0.6055,0.60547 0.6055,1.48438 0,0.83984 -0.6055,1.44531 -0.6054,0.58594 -1.4453,0.58594 l -2.4414,0 0,19.04297 2.4414,0 q 0.8399,0 1.4453,0.60546 0.6055,0.58594 0.6055,1.48438 0,0.83984 -0.6055,1.44531 -0.6054,0.58594 -1.4453,0.58594 l -9.043,0 q -0.8398,0 -1.4453,-0.58594 -0.5859,-0.60547 -0.5859,-1.44531 z"
         style="font-style:normal;font-variant:normal;font-weight:bold;font-stretch:normal;font-family:'Comic Neue';-inkscape-font-specification:'Comic Neue Bold';fill:#4d4d4d"
         id="path4117" />
      <path
         d="m 1589.6992,397.95594 q 0.1953,-2.67578 1.2305,-5.11719 1.0547,-2.44141 2.8125,-4.35547 1.7187,-1.83594 3.9258,-2.87109 2.207,-1.07422 4.6484,-1.09375 2.0313,0 3.8672,0.76172 1.8359,0.76172 3.3203,2.20703 2.0313,1.99219 3.0078,4.78515 0.8008,2.34375 0.8008,4.92188 0,0.52734 -0.039,1.05469 -0.2343,2.79297 -1.3281,5.3125 -0.8789,1.83593 -2.0312,3.32031 l 2.5195,1.71875 q 0.6836,0.52734 0.8789,1.36719 0.039,0.21484 0.039,0.41015 0,0.60547 -0.3321,1.19141 -0.6445,0.95703 -1.7187,0.95703 -0.5664,0 -1.1133,-0.35156 l -3.4375,-2.36328 q -2.832,1.875 -6.0742,1.875 -2.0313,0 -3.8867,-0.76172 -1.836,-0.76172 -3.3203,-2.20703 -2.0313,-1.99219 -2.9883,-4.80469 -0.8203,-2.32422 -0.8203,-4.90234 0,-0.52735 0.039,-1.05469 z m 4.2578,0.29297 q -0.039,0.42968 -0.039,0.83984 0,1.77734 0.5468,3.41797 0.6836,2.01172 2.0118,3.30078 1.7968,1.71875 4.1992,1.71875 1.1523,0 2.1875,-0.41016 l -1.2305,-0.83984 q -0.6836,-0.44922 -0.8789,-1.34766 -0.039,-0.21484 -0.039,-0.42968 0,-0.58594 0.3125,-1.17188 0.6446,-0.95703 1.7188,-0.95703 0.6445,0 1.1133,0.35156 l 2.5781,1.75782 q 1.1133,-1.32813 1.7578,-2.98829 0.6641,-1.67968 0.8399,-3.53515 0.019,-0.29297 0.019,-0.58594 0,-1.83594 -0.625,-3.57422 -0.8008,-2.1289 -2.168,-3.39844 -1.8359,-1.71875 -4.2383,-1.71875 -1.4843,0 -2.8515,0.70313 -1.3477,0.70312 -2.5,1.99219 -1.1524,1.36718 -1.8555,3.125 -0.7031,1.73828 -0.8594,3.75 z"
         style="font-style:normal;font-variant:normal;font-weight:bold;font-stretch:normal;font-family:'Comic Neue';-inkscape-font-specification:'Comic Neue Bold';fill:#4d4d4d"
         id="path4119" />
      <path
         d="m 1619.3281,389.81141 q -0.7617,-0.44922 -0.9961,-1.3086 -0.2148,-0.85937 0.2344,-1.62109 0.6445,-1.03516 1.8359,-1.03516 0.5665,0 1.0352,0.23438 l 0.5664,0.29297 0,-0.56641 q 0,-0.87891 0.6055,-1.50391 0.625,-0.625 1.5039,-0.625 0.918,0 1.5234,0.625 0.6055,0.625 0.6055,1.50391 l 0,0.60547 q 0.1953,-0.0781 0.3516,-0.15625 0.1757,-0.0977 0.2539,-0.13672 0.4492,-0.27344 1.0351,-0.27344 1.1914,0 1.836,1.07422 0.4492,0.76172 0.1953,1.60156 -0.2735,0.91797 -0.9961,1.32813 l -0.039,0 q -0.2734,0.15625 -0.6836,0.35156 -0.3906,0.19531 -0.5469,0.29297 0.1954,0.23438 0.586,0.68359 0.4101,0.42969 0.4883,0.50782 0.6054,0.60547 0.6054,1.52343 0,0.83985 -0.6445,1.48438 -0.6445,0.64453 -1.4844,0.625 -0.8789,0 -1.5234,-0.625 l -0.039,0 0,-0.0391 q -0.039,-0.0391 -0.2148,-0.23438 -0.1758,-0.21484 -0.4102,-0.44922 -0.2148,-0.2539 -0.4297,-0.48828 -0.2148,-0.23437 -0.2929,-0.3125 -0.039,-0.0391 -0.059,-0.0781 -0.02,-0.0391 -0.059,-0.0781 -0.039,0.0781 -0.1758,0.19531 -0.078,0.0781 -0.2734,0.3125 -0.1954,0.23438 -0.4297,0.48829 -0.2149,0.23437 -0.3907,0.44921 -0.1757,0.19532 -0.2148,0.23438 l -0.039,0.0391 q -0.6445,0.625 -1.5234,0.625 -0.8398,0 -1.4844,-0.625 -0.6445,-0.5664 -0.6445,-1.48437 0,-0.83985 0.5664,-1.48438 0.039,-0.0391 0.1953,-0.21484 0.1563,-0.17578 0.332,-0.3711 0.1954,-0.21484 0.3711,-0.41015 0.1758,-0.19531 0.2539,-0.27344 -0.039,0 -0.058,-0.0195 -0.02,-0.0391 -0.059,-0.0391 l -1.2305,-0.625 -0.039,0 z"
         style="font-style:normal;font-variant:normal;font-weight:bold;font-stretch:normal;font-family:'Comic Neue';-inkscape-font-specification:'Comic Neue Bold';fill:#4d4d4d"
         id="path4121" />
    </g>
    <path
       d="m 1046.1303,5160.5362 c 1.4953,-1.1303 3.1445,-1.3729 4.7893,-1.4085 3.7059,0.2506 7.2034,2.1711 10.6142,4.2285 5.1735,3.4372 10.146,7.5353 15.1116,11.6083 5.9404,4.861 11.8354,9.8477 17.7599,14.7533 6.218,5.2387 12.5273,10.2014 18.9373,14.8743 5.9928,4.3681 12.1276,8.2607 18.2649,12.1307 6.2034,3.9618 12.2853,8.342 18.449,12.4411 5.1349,3.684 10.528,6.1554 16.1195,7.5424 4.735,1.0593 9.4572,0.4423 14.119,-0.9767 4.7374,-1.4484 8.9092,-4.8 12.741,-9.1537 4.6021,-5.9062 8.3339,-13.1705 11.9223,-20.4693 4.1381,-8.7186 7.9182,-17.8103 11.8277,-26.765 3.8106,-8.8706 7.7342,-17.6175 11.8539,-26.1636 4.1617,-8.4314 8.4398,-16.7274 12.627,-25.1296 3.9095,-8.1047 8.2678,-15.6187 13.4036,-21.9586 5.1034,-5.9647 10.4264,-8.5453 16.7194,-9.8228 7.2549,-1.0751 14.2079,1.9177 20.9179,5.7623 8.8263,5.4199 16.4598,14.0922 23.8515,23.0218 7.4779,9.3327 14.5493,19.3824 21.6533,29.3568 6.2502,8.8753 12.5748,17.6282 18.8771,26.4182 5.8377,8.1408 11.5441,16.4963 17.3977,24.6109 4.3287,5.9296 8.7477,11.7014 13.4604,16.9178 3.8138,4.2594 8.0923,7.282 12.4898,9.8459 4.3436,2.6009 8.8773,3.8069 13.5237,3.9621 4.873,0.037 9.4756,-2.0321 13.9149,-4.8944 5.4054,-3.7162 9.7914,-9.7055 13.9841,-15.934 5.2441,-8.0311 9.8501,-16.9303 14.3288,-25.9439 5.34,-10.6792 10.0053,-22.068 14.516,-33.5784 4.3702,-11.7708 9.2081,-23.0755 14.687,-33.7196 4.8577,-9.3921 10.7619,-17.1977 17.1374,-24.101 5.633,-6.0597 11.9256,-10.0223 18.6159,-12.3702 6.5328,-2.1102 13.0265,-0.9021 19.3878,1.7339 7.1403,3.3568 13.1921,9.9435 18.9645,16.934 6.8639,8.8098 13.3634,18.2483 19.8757,27.6459 7.2993,10.3589 14.3346,21.1214 21.1267,32.2441 6.6501,10.904 12.8486,22.4077 19.0333,33.9174 5.1537,9.8576 10.3167,19.7029 15.6011,29.3996 4.1266,7.6504 8.6019,14.8239 13.5292,21.2866 4.2217,5.5125 9.0239,9.7097 14.0926,13.1217 5.0901,3.2172 9.4133,3.8846 14.8182,2.6109 5.4044,-1.6445 10.0653,-5.975 14.4168,-10.9138 5.5502,-6.7425 9.7565,-15.4934 13.7859,-24.2786 5.1025,-11.4685 9.5648,-23.5458 13.8721,-35.7303 3.9648,-11.3765 7.5298,-23.0569 11.1234,-34.7097 2.7831,-9.4756 5.8268,-18.7536 9.2925,-27.6949 3.037,-7.9417 7.0496,-14.7673 11.4174,-21.0509 3.5606,-4.6883 7.5952,-8.7403 12.1958,-10.6115 0.9546,-0.3882 1.9364,-0.5996 2.9047,-0.8994 6.9233,-1.4079 13.7151,0.9714 20.302,3.9953 7.6416,3.7735 14.6725,9.7013 21.4732,16.098 7.7194,7.389 14.4409,16.7182 20.7975,26.582 6.8996,11.0429 12.9292,23.2278 18.9904,35.3242 5.5844,11.4069 11.3353,22.6203 17.2303,33.6599 4.6996,8.666 9.5873,17.0959 14.6418,25.2873 3.4972,5.6537 7.1834,11.0221 11.3244,15.5751 3.1321,3.338 6.6214,5.3168 10.4,5.9983 3.9993,0.3285 6.5858,-2.0964 9.3738,-6.1589 3.7761,-6.4146 6.031,-14.4384 8.1848,-22.2927 2.9651,-11.7328 5.1055,-23.8944 7.3628,-35.971 2.404,-13.2096 5.2531,-26.2075 8.2546,-39.1265 2.7882,-11.9789 5.9755,-23.7286 9.4267,-35.2988 2.5412,-8.6273 5.5729,-16.8908 9.1207,-24.6512 2.0418,-4.0379 4.147,-8.7012 7.3615,-10.7579 0.5259,-0.3365 1.0922,-0.5051 1.6381,-0.7578 4.9236,-1.1712 8.9469,3.3559 12.6494,7.6572 5.5109,7.0466 10.3145,15.2455 15.2031,23.2516 5.186,8.587 10.1811,17.43 15.1666,26.2839 4.6766,8.2934 9.3341,16.6106 13.9682,24.959 3.701,6.6878 7.266,13.5442 10.8768,20.3435 3.1123,5.7256 6.1606,11.5315 9.3111,17.2094 2.2431,4.1176 4.4918,8.2288 6.9465,12.0613 1.9097,2.9845 4.1027,5.1614 6.7588,6.1828 3.4127,0.6512 5.2127,-3.1248 6.8091,-7.0942 2.6324,-7.5385 4.3882,-15.697 6.2595,-23.7191 2.25,-9.9404 4.4725,-19.895 6.7643,-29.8133 2.2564,-9.9185 4.4756,-19.855 6.9113,-29.6763 2.1849,-9.0801 5.0311,-17.714 8.4269,-25.8766 2.7073,-6.3259 6.0914,-11.6655 10.2927,-15.6703 4.4189,-3.6516 8.1359,-3.5767 12.9076,-1.8636 6.1513,2.8023 11.0797,9.0603 15.7683,15.458 5.7832,8.4503 10.9479,17.8088 16.0749,27.1661 5.0366,9.2426 10.0707,18.4886 15.1279,27.7054 3.4996,6.3844 6.9347,12.8456 10.7283,18.8361 2.6436,4.113 5.5449,7.6945 9.1665,9.5028 3.6534,0.8586 5.7751,-3.2543 7.725,-7.2799 2.4301,-5.7178 4.8128,-11.4755 7.3567,-17.0801 2.4041,-5.3399 5.159,-10.2573 8.1413,-14.8642 2.1481,-3.3134 4.5192,-6.2271 7.2885,-8.232 2.4436,-1.6812 4.79,-1.0725 7.2234,0.2195 2.6983,1.798 5.093,4.4463 7.4201,7.1549 1.9914,2.3108 3.7736,4.9972 5.491,7.7592 1.4162,2.2882 2.7134,4.7374 4.0173,7.172 0.5129,1.0278 1.0993,1.9546 1.6945,2.8703 0,0 0.6346,-0.9525 0.6346,-0.9525 l 0,0 c -0.5758,-0.8833 -1.1419,-1.7791 -1.637,-2.7726 -1.3178,-2.4607 -2.6292,-4.9353 -4.0608,-7.2475 -1.7505,-2.8139 -3.5673,-5.5504 -5.597,-7.9045 -2.4027,-2.7949 -4.877,-5.5248 -7.6696,-7.359 -2.6598,-1.3974 -5.2417,-2 -7.9017,-0.1618 -2.8586,2.0874 -5.322,5.0685 -7.5395,8.5043 -3.0177,4.6639 -5.8066,9.6402 -8.2398,15.0451 -2.5387,5.5935 -4.9192,11.3372 -7.3411,17.0469 -1.6968,3.5157 -3.5192,7.4143 -6.7294,6.7936 -3.4873,-1.7067 -6.2543,-5.2252 -8.8001,-9.1537 -3.7794,-5.9664 -7.1989,-12.406 -10.6856,-18.7642 -5.0572,-9.2167 -10.0911,-18.4624 -15.1278,-27.7047 -5.1545,-9.4075 -10.3475,-18.8157 -16.1644,-27.3076 -4.8023,-6.5484 -9.8561,-12.9274 -16.1607,-15.7689 -5.1325,-1.8187 -8.8343,-1.8375 -13.5866,2.0359 -4.3083,4.1267 -7.7955,9.589 -10.5717,16.0934 -3.4264,8.2419 -6.3025,16.9557 -8.5077,26.1227 -2.438,9.831 -4.6598,19.7768 -6.9181,29.7052 -2.2917,9.9171 -4.5141,19.8702 -6.7636,29.8095 -1.8509,7.9347 -3.587,16.0038 -6.1807,23.4674 -1.3701,3.4353 -2.8544,6.9625 -5.831,6.4836 -2.4987,-0.9292 -4.5399,-3.0265 -6.3351,-5.813 -2.4407,-3.8083 -4.6734,-7.898 -6.9039,-11.9895 -3.1461,-5.6701 -6.1903,-11.4689 -9.2987,-17.1868 -3.6147,-6.807 -7.1839,-13.671 -10.889,-20.3663 -4.6356,-8.3508 -9.2945,-16.6704 -13.9725,-24.9662 -4.9933,-8.8678 -9.9962,-17.7245 -15.1904,-26.3247 -4.9228,-8.0625 -9.7612,-16.3187 -15.3154,-23.407 -3.9488,-4.5762 -8.2212,-9.2317 -13.456,-7.8745 -0.601,0.2883 -1.2241,0.4863 -1.8035,0.8647 -3.333,2.1773 -5.5461,6.9475 -7.6644,11.1725 -3.5769,7.8295 -6.6382,16.1616 -9.2004,24.8647 -3.4615,11.6058 -6.6587,23.3913 -9.4553,35.407 -3.0079,12.9457 -5.8625,25.9706 -8.2716,39.2074 -2.2478,12.0253 -4.3785,24.1355 -7.3282,35.8202 -2.1058,7.6837 -4.3042,15.5416 -7.9801,21.8375 -2.5762,3.7841 -4.9343,6.0731 -8.6509,5.789 -3.628,-0.6381 -6.973,-2.5542 -9.9812,-5.7503 -4.0967,-4.4978 -7.7359,-9.8169 -11.1961,-15.4038 -5.0403,-8.1675 -9.9136,-16.5735 -14.5999,-25.2142 -5.8893,-11.0288 -11.6342,-22.2313 -17.2133,-33.6269 -6.0834,-12.1411 -12.1363,-24.3698 -19.0626,-35.4516 -6.4079,-9.9405 -13.1842,-19.3407 -20.9655,-26.7861 -6.8673,-6.4573 -13.9679,-12.4382 -21.685,-16.2431 -6.7297,-3.085 -13.6683,-5.4927 -20.7391,-4.0256 -1.0037,0.3143 -2.0216,0.5372 -3.0106,0.9429 -4.7228,1.9366 -8.8689,6.09 -12.5244,10.9117 -4.4272,6.3729 -8.4936,13.2954 -11.5728,21.3473 -3.4791,8.9784 -6.5375,18.2927 -9.3315,27.8075 -3.5865,11.6303 -7.1444,23.2885 -11.1014,34.6433 -4.2909,12.1388 -8.7358,24.1708 -13.8182,35.597 -3.974,8.6669 -8.1182,17.3074 -13.588,23.9679 -4.2322,4.811 -8.7638,9.0427 -14.0203,10.66 -5.1377,1.23 -9.4844,0.5847 -14.3189,-2.511 -4.9898,-3.3537 -9.7153,-7.485 -13.8711,-12.9083 -4.891,-6.4109 -9.3292,-13.5345 -13.4246,-21.1249 -5.2836,-9.6943 -10.4449,-19.5374 -15.5974,-29.3924 -6.1964,-11.5319 -12.4073,-23.0574 -19.0703,-33.9822 -6.8051,-11.1433 -13.8536,-21.9265 -21.1662,-32.3049 -6.5312,-9.4246 -13.0496,-18.8903 -19.9343,-27.7232 -5.8688,-7.1034 -12.0254,-13.7827 -19.2863,-17.1818 -6.5876,-2.7193 -13.0571,-3.9006 -19.8233,-1.7467 -6.8028,2.3975 -13.2049,6.4204 -18.933,12.5872 -6.4436,6.9818 -12.412,14.8738 -17.3221,24.3698 -5.501,10.6904 -10.3627,22.0398 -14.7509,33.861 -4.4938,11.468 -9.1412,22.8153 -14.4612,33.4551 -4.4519,8.96 -9.0293,17.807 -14.2408,25.7917 -4.1124,6.1117 -8.4085,12.0011 -13.7093,15.6555 -4.3211,2.7934 -8.8012,4.8166 -13.5465,4.7867 -4.5438,-0.1445 -8.9757,-1.3305 -13.2232,-3.8725 -4.325,-2.5191 -8.5335,-5.4877 -12.2839,-9.6759 -4.6868,-5.1857 -9.0792,-10.9286 -13.3845,-16.8235 -5.8529,-8.1135 -11.5583,-16.4686 -17.3959,-24.608 -6.3012,-8.7892 -12.6251,-17.541 -18.8746,-26.4152 -7.1203,-9.9972 -14.208,-20.0696 -21.7035,-29.4224 -7.4651,-9.0164 -15.1772,-17.764 -24.0925,-23.2293 -6.8503,-3.918 -13.9475,-6.9503 -21.3512,-5.8373 -6.4601,1.3241 -11.9274,3.9849 -17.1637,10.1147 -5.1878,6.4152 -9.6026,13.9954 -13.5522,22.1919 -4.1897,8.4081 -8.4711,16.7095 -12.6356,25.147 -4.1276,8.5631 -8.0594,17.3269 -11.8774,26.2152 -3.9004,8.9337 -7.6716,18.004 -11.7988,26.7031 -3.5372,7.1961 -7.2134,14.3602 -11.7425,20.1956 -3.7214,4.2409 -7.7762,7.4985 -12.3817,8.9096 -4.5559,1.3917 -9.1709,1.9985 -13.7998,0.9678 -5.5183,-1.3644 -10.8382,-3.8103 -15.9052,-7.4461 -6.1691,-4.1026 -12.2559,-8.4871 -18.4646,-12.4514 -6.1227,-3.8607 -12.2425,-7.7434 -18.2211,-12.1008 -6.3961,-4.6627 -12.6915,-9.6151 -18.8962,-14.8425 -5.9254,-4.9063 -11.8216,-9.894 -17.763,-14.7558 -4.9963,-4.0981 -9.9997,-8.2214 -15.2064,-11.6755 -3.5204,-2.121 -7.1322,-4.0888 -10.9576,-4.3239 -1.7603,0.049 -3.525,0.3132 -5.1268,1.5179 0,0 0.3517,1.2453 0.3517,1.2453 z"
       id="path4174-80-0"
       style="color:#000000;clip-rule:nonzero;display:inline;overflow:visible;visibility:visible;opacity:0.781;isolation:auto;mix-blend-mode:normal;color-interpolation:sRGB;color-interpolation-filters:linearRGB;solid-color:#000000;solid-opacity:1;fill:#000000;fill-opacity:1;fill-rule:nonzero;stroke:#999999;stroke-width:2.00110102;stroke-linecap:butt;stroke-linejoin:miter;stroke-miterlimit:4;stroke-dasharray:none;stroke-dashoffset:0;stroke-opacity:1;color-rendering:auto;image-rendering:auto;shape-rendering:auto;text-rendering:auto;enable-background:accumulate" />
    <g
       style="font-style:normal;font-weight:normal;font-size:40px;line-height:125%;font-family:sans-serif;letter-spacing:0px;word-spacing:0px;fill:#4d4d4d;fill-opacity:1;stroke:none;stroke-width:1px;stroke-linecap:butt;stroke-linejoin:miter;stroke-opacity:1"
       id="flowRoot4242-6-5-4-6-4-2">
      <path
         d="m 1041.6563,5074.7372 4.8437,-22.8906 q 0.1563,-0.7227 0.6836,-1.1719 0.5273,-0.4688 1.25,-0.5078 l 0.078,0 q 0.6836,0 1.211,0.4101 0.5468,0.3907 0.7421,1.0743 l 5.1172,16.914 5.918,-16.9922 q 0.1953,-0.6445 0.7227,-1.0156 0.5273,-0.3906 1.2109,-0.3906 l 0.1172,0 q 0.6836,0.078 1.1914,0.5469 0.5273,0.4687 0.6445,1.1328 l 4.9219,22.8906 q 0.059,0.2539 0.059,0.4883 0,0.5664 -0.3125,1.0937 -0.4688,0.7422 -1.2695,0.9375 -0.1563,0.039 -0.4297,0.039 -0.7227,0 -1.2891,-0.4492 -0.6055,-0.5664 -0.7226,-1.1914 l -3.3985,-15.7618 -5.5664,16.0352 q -0.1953,0.6445 -0.7226,1.0352 -0.5079,0.371 -1.1915,0.371 l -0.039,0 q -0.6836,-0.039 -1.211,-0.4101 -0.5078,-0.3906 -0.7031,-1.0742 l -4.6484,-15.3516 -3.2031,15.1563 q -0.1563,0.7226 -0.7227,1.1914 -0.5469,0.4492 -1.2695,0.4492 -0.2735,0 -0.4492,-0.039 -0.8204,-0.1953 -1.2891,-0.9375 -0.332,-0.5273 -0.332,-1.0937 0,-0.2539 0.059,-0.4883 z"
         style="font-style:normal;font-variant:normal;font-weight:bold;font-stretch:normal;font-family:'Comic Neue';-inkscape-font-specification:'Comic Neue Bold';fill:#4d4d4d"
         id="path4112" />
      <path
         d="m 1074.3906,5067.413 q 0,-1.9532 0.7032,-3.711 0.7031,-1.7773 1.914,-3.1054 1.2305,-1.3477 2.8711,-2.168 1.6406,-0.8203 3.5156,-0.9375 0.3516,-0.039 0.7032,-0.039 1.914,0 3.4961,0.918 1.875,1.0742 3.0078,2.8906 0.1953,0.3125 0.332,0.6446 0.1367,0.3125 0.3125,0.5859 0.1953,0.3711 0.1953,0.8203 0,0.2539 -0.059,0.5664 -0.1758,0.8203 -1.0156,1.25 -0.7227,0.3906 -2.0313,1.1328 -1.289,0.7227 -2.8125,1.5625 -1.5234,0.8399 -3.0859,1.7188 -1.5625,0.8789 -2.793,1.5429 0.6446,0.8008 1.4649,1.3672 1.289,0.8789 2.9297,0.8789 2.2851,0 3.9648,-1.7578 l 0.8008,-0.8398 q 0.5664,-0.5664 1.3867,-0.5664 0.8399,0 1.4453,0.6054 0.6055,0.6055 0.6055,1.4063 0,0.7227 -0.4883,1.3086 l -0.8008,0.8398 q -1.3672,1.4844 -3.164,2.2852 -1.7578,0.7617 -3.75,0.7617 -1.9922,0 -3.7696,-0.7812 -1.7578,-0.7813 -3.0664,-2.1094 -1.289,-1.3477 -2.0508,-3.1641 -0.7617,-1.8164 -0.7617,-3.9062 z m 4.043,-0.2735 q 0.8398,-0.4882 1.9531,-1.0937 1.1328,-0.625 2.2461,-1.25 1.1328,-0.625 2.1485,-1.1914 1.0156,-0.586 1.7382,-0.9961 -1.0351,-1.0352 -2.4023,-1.1133 -1.3672,0.039 -2.3828,0.5469 -1.0156,0.4883 -1.7383,1.289 -1.4453,1.6407 -1.5625,3.8086 z"
         style="font-style:normal;font-variant:normal;font-weight:bold;font-stretch:normal;font-family:'Comic Neue';-inkscape-font-specification:'Comic Neue Bold';fill:#4d4d4d"
         id="path4114" />
    </g>
    <g
       style="font-style:normal;font-weight:normal;font-size:40px;line-height:125%;font-family:sans-serif;letter-spacing:0px;word-spacing:0px;fill:#4d4d4d;fill-opacity:1;stroke:none;stroke-width:1px;stroke-linecap:butt;stroke-linejoin:miter;stroke-opacity:1"
       id="flowRoot4242-6-5-4-6-4-2-0">
      <path
         d="m 1040.8281,5221.372 q 0,-0.879 0.586,-1.504 0.6054,-0.625 1.4453,-0.625 l 16.4062,0 q 0.8399,0 1.4453,0.625 0.6055,0.625 0.6055,1.504 0,0.9179 -0.6055,1.5429 -0.6054,0.6055 -1.4453,0.6055 l -6.4062,0 0,20.8398 q 0,0.8789 -0.6055,1.5039 -0.5859,0.625 -1.4258,0.625 -0.8398,0 -1.4453,-0.6054 -0.5859,-0.625 -0.5859,-1.5235 l 0,-20.8398 -5.9375,0 q -0.8399,0 -1.4453,-0.6055 -0.586,-0.625 -0.586,-1.5429 z"
         style="font-style:normal;font-variant:normal;font-weight:bold;font-stretch:normal;font-family:'Comic Neue';-inkscape-font-specification:'Comic Neue Bold';fill:#4d4d4d"
         id="path4124" />
      <path
         d="m 1063.8945,5244.3212 0,-23.2813 q 0,-0.9179 0.625,-1.5234 0.625,-0.625 1.5039,-0.625 0.8789,0 1.4844,0.625 0.625,0.6055 0.625,1.5234 l 0,8.0469 q 0.2344,-0.2734 0.4688,-0.5078 0.2539,-0.2539 0.4882,-0.4883 2.4024,-2.3242 4.8829,-2.3242 0.4882,0 1.0546,0.1172 0.586,0.1172 1.1915,0.4687 0.6054,0.3321 1.1523,0.9375 0.5664,0.6055 0.9961,1.5625 1.2891,2.6367 1.4062,7.7149 0.039,0.8398 0.039,2.1679 0,1.3086 0,2.5586 0,1.4258 -0.039,2.9883 0,0.8789 -0.6054,1.5039 -0.586,0.625 -1.4649,0.625 -0.8789,0 -1.4843,-0.625 -0.6055,-0.625 -0.6055,-1.5039 0.039,-1.4453 0.039,-2.793 0,-1.1523 0,-2.4804 0,-1.3282 -0.039,-2.3633 -0.039,-1.7969 -0.2149,-3.0274 -0.1757,-1.25 -0.4296,-2.0312 -0.2344,-0.7813 -0.4883,-1.1328 -0.2539,-0.3711 -0.5078,-0.3711 -1.5235,0 -3.3204,2.1289 -0.8398,0.957 -1.3867,1.875 -0.5273,0.918 -0.6836,1.25 -0.4492,0.918 -0.4492,2.7539 l 0,6.2305 q 0,0.9179 -0.625,1.5429 -0.6055,0.625 -1.4844,0.625 -0.8789,0 -1.5039,-0.6054 -0.625,-0.625 -0.625,-1.5625 z"
         style="font-style:normal;font-variant:normal;font-weight:bold;font-stretch:normal;font-family:'Comic Neue';-inkscape-font-specification:'Comic Neue Bold';fill:#4d4d4d"
         id="path4126" />
      <path
         d="m 1083.8359,5236.5282 q 0,-1.9531 0.7032,-3.7109 0.7031,-1.7774 1.914,-3.1055 1.2305,-1.3477 2.8711,-2.168 1.6406,-0.8203 3.5156,-0.9375 0.3516,-0.039 0.7032,-0.039 1.914,0 3.4961,0.9179 1.875,1.0743 3.0078,2.8907 0.1953,0.3125 0.332,0.6445 0.1367,0.3125 0.3125,0.5859 0.1953,0.3711 0.1953,0.8203 0,0.2539 -0.059,0.5664 -0.1758,0.8204 -1.0156,1.25 -0.7227,0.3907 -2.0312,1.1329 -1.2891,0.7226 -2.8125,1.5625 -1.5235,0.8398 -3.086,1.7187 -1.5625,0.8789 -2.793,1.543 0.6446,0.8008 1.4649,1.3672 1.2891,0.8789 2.9297,0.8789 2.2851,0 3.9648,-1.7578 l 0.8008,-0.8399 q 0.5664,-0.5664 1.3867,-0.5664 0.8399,0 1.4453,0.6055 0.6055,0.6054 0.6055,1.4062 0,0.7227 -0.4883,1.3086 l -0.8008,0.8399 q -1.3671,1.4843 -3.164,2.2851 -1.7578,0.7617 -3.75,0.7617 -1.9922,0 -3.7696,-0.7812 -1.7578,-0.7813 -3.0664,-2.1094 -1.289,-1.3476 -2.0507,-3.164 -0.7618,-1.8165 -0.7618,-3.9063 z m 4.043,-0.2734 q 0.8399,-0.4883 1.9531,-1.0938 1.1328,-0.625 2.2461,-1.25 1.1328,-0.625 2.1485,-1.1914 1.0156,-0.5859 1.7382,-0.9961 -1.0351,-1.0351 -2.4023,-1.1133 -1.3672,0.039 -2.3828,0.5469 -1.0156,0.4883 -1.7383,1.2891 -1.4453,1.6406 -1.5625,3.8086 z"
         style="font-style:normal;font-variant:normal;font-weight:bold;font-stretch:normal;font-family:'Comic Neue';-inkscape-font-specification:'Comic Neue Bold';fill:#4d4d4d"
         id="path4128" />
      <path
         d="m 1106.3164,5244.3602 0,-15.8398 q 0,-0.8789 0.625,-1.4844 0.625,-0.625 1.5039,-0.625 0.8789,0 1.4844,0.625 0.625,0.6055 0.625,1.4844 l 0,0.6445 q 0.3125,-0.3515 0.6445,-0.6445 0.3516,-0.3125 0.6836,-0.625 2.207,-1.9141 4.2774,-1.9336 1.9921,0 3.3203,0.9766 0.9961,0.6836 1.6406,1.875 0.8789,-0.9571 1.9531,-1.6016 1.9922,-1.2305 3.7305,-1.25 2.5195,0 4.043,1.6016 1.914,1.914 1.914,6.0546 l 0,10.7422 q 0,0.8789 -0.625,1.5039 -0.625,0.625 -1.5039,0.625 -0.8789,0 -1.5039,-0.6054 -0.6055,-0.625 -0.6055,-1.5235 l 0,-10.9961 q 0,-0.6445 -0.1367,-1.6015 -0.1172,-0.9571 -0.5469,-1.4649 -0.3515,-0.3515 -1.0351,-0.3711 -0.4883,0 -1.3086,0.3711 -0.8203,0.3516 -1.582,1.0352 -0.6446,0.5664 -1.2305,1.5039 -0.5664,0.9375 -0.5664,2.3242 l 0,9.1992 q 0,0.8789 -0.625,1.5039 -0.6055,0.625 -1.4844,0.625 -0.8789,0 -1.5039,-0.6054 -0.625,-0.625 -0.625,-1.5235 l 0,-10.9961 q 0,-0.6445 -0.1172,-1.6015 -0.1172,-0.9571 -0.5664,-1.4649 -0.3515,-0.3515 -1.0351,-0.3711 -0.6836,0 -2.1875,1.1329 -1.4844,1.1132 -3.125,3.8281 -0.1563,0.2344 -0.2344,0.5469 -0.059,0.2929 -0.059,0.4101 l 0,8.5156 q 0,0.8789 -0.625,1.5039 -0.6055,0.625 -1.4844,0.625 -0.8789,0 -1.5039,-0.6054 -0.625,-0.625 -0.625,-1.5235 z"
         style="font-style:normal;font-variant:normal;font-weight:bold;font-stretch:normal;font-family:'Comic Neue';-inkscape-font-specification:'Comic Neue Bold';fill:#4d4d4d"
         id="path4130" />
    </g>
    <circle
       r="7.7625813"
       cy="5061.5283"
       cx="1177.8533"
       id="path5512-4-7-9-1-1-4-9-79"
       style="color:#000000;clip-rule:nonzero;display:inline;overflow:visible;visibility:visible;opacity:1;isolation:auto;mix-blend-mode:normal;color-interpolation:sRGB;color-interpolation-filters:linearRGB;solid-color:#000000;solid-opacity:1;fill:#000000;fill-opacity:1;fill-rule:nonzero;stroke:none;stroke-width:1;stroke-linecap:butt;stroke-linejoin:miter;stroke-miterlimit:4;stroke-dasharray:none;stroke-dashoffset:0;stroke-opacity:1;color-rendering:auto;image-rendering:auto;shape-rendering:auto;text-rendering:auto;enable-background:accumulate" />
    <circle
       r="7.7625813"
       cy="5235.8296"
       cx="1177.8533"
       id="path5512-4-7-9-1-1-4-9-3"
       style="color:#000000;clip-rule:nonzero;display:inline;overflow:visible;visibility:visible;opacity:1;isolation:auto;mix-blend-mode:normal;color-interpolation:sRGB;color-interpolation-filters:linearRGB;solid-color:#000000;solid-opacity:1;fill:#000000;fill-opacity:1;fill-rule:nonzero;stroke:none;stroke-width:1;stroke-linecap:butt;stroke-linejoin:miter;stroke-miterlimit:4;stroke-dasharray:none;stroke-dashoffset:0;stroke-opacity:1;color-rendering:auto;image-rendering:auto;shape-rendering:auto;text-rendering:auto;enable-background:accumulate" />
    <circle
       r="7.7625813"
       cy="5096.7407"
       cx="1279.9691"
       id="path5512-4-7-9-1-1-4-9-78"
       style="color:#000000;clip-rule:nonzero;display:inline;overflow:visible;visibility:visible;opacity:1;isolation:auto;mix-blend-mode:normal;color-interpolation:sRGB;color-interpolation-filters:linearRGB;solid-color:#000000;solid-opacity:1;fill:#000000;fill-opacity:1;fill-rule:nonzero;stroke:none;stroke-width:1;stroke-linecap:butt;stroke-linejoin:miter;stroke-miterlimit:4;stroke-dasharray:none;stroke-dashoffset:0;stroke-opacity:1;color-rendering:auto;image-rendering:auto;shape-rendering:auto;text-rendering:auto;enable-background:accumulate" />
    <circle
       r="7.7625813"
       cy="5202.6172"
       cx="1280.2085"
       id="path5512-4-7-9-1-1-4-9-74"
       style="color:#000000;clip-rule:nonzero;display:inline;overflow:visible;visibility:visible;opacity:1;isolation:auto;mix-blend-mode:normal;color-interpolation:sRGB;color-interpolation-filters:linearRGB;solid-color:#000000;solid-opacity:1;fill:#000000;fill-opacity:1;fill-rule:nonzero;stroke:none;stroke-width:1;stroke-linecap:butt;stroke-linejoin:miter;stroke-miterlimit:4;stroke-dasharray:none;stroke-dashoffset:0;stroke-opacity:1;color-rendering:auto;image-rendering:auto;shape-rendering:auto;text-rendering:auto;enable-background:accumulate" />
  </g>
</svg>
