<?xml version="1.0" encoding="UTF-8" standalone="no"?>
<svg
   xmlns:dc="http://purl.org/dc/elements/1.1/"
   xmlns:cc="http://creativecommons.org/ns#"
   xmlns:rdf="http://www.w3.org/1999/02/22-rdf-syntax-ns#"
   xmlns:svg="http://www.w3.org/2000/svg"
   xmlns="http://www.w3.org/2000/svg"
   width="392.47424mm"
   height="139.34023mm"
   viewBox="0 0 1390.6568 493.72521"
   id="svg2"
   version="1.1">
  <defs
     id="defs4">
    <marker
       orient="auto"
       refY="0"
       refX="0"
       id="Arrow1Lend"
       style="overflow:visible">
      <path
         id="path5845"
         d="M 0,0 5,-5 -12.5,0 5,5 0,0 Z"
         style="fill:#000000;fill-opacity:1;fill-rule:evenodd;stroke:#000000;stroke-width:1pt;stroke-opacity:1"
         transform="matrix(-0.8,0,0,-0.8,-10,0)" />
    </marker>
    <marker
       orient="auto"
       refY="0"
       refX="0"
       id="TriangleOutM"
       style="overflow:visible">
      <path
         id="path5987"
         d="m 5.77,0 -8.65,5 0,-10 8.65,5 z"
         style="fill:#000000;fill-opacity:1;fill-rule:evenodd;stroke:#000000;stroke-width:1pt;stroke-opacity:1"
         transform="scale(0.4,0.4)" />
    </marker>
    <marker
       orient="auto"
       refY="0"
       refX="0"
       id="TriangleInM"
       style="overflow:visible">
      <path
         id="path5978"
         d="m 5.77,0 -8.65,5 0,-10 8.65,5 z"
         style="fill:#000000;fill-opacity:1;fill-rule:evenodd;stroke:#000000;stroke-width:1pt;stroke-opacity:1"
         transform="scale(-0.4,-0.4)" />
    </marker>
    <marker
       orient="auto"
       refY="0"
       refX="0"
       id="Arrow2Mstart"
       style="overflow:visible">
      <path
         id="path5866"
         style="fill:#000000;fill-opacity:1;fill-rule:evenodd;stroke:#000000;stroke-width:0.625;stroke-linejoin:round;stroke-opacity:1"
         d="M 8.7185878,4.0337352 -2.2072895,0.01601326 8.7185884,-4.0017078 c -1.7454984,2.3720609 -1.7354408,5.6174519 -6e-7,8.035443 z"
         transform="scale(0.6,0.6)" />
    </marker>
    <marker
       orient="auto"
       refY="0"
       refX="0"
       id="Arrow1Lstart"
       style="overflow:visible">
      <path
         id="path5842"
         d="M 0,0 5,-5 -12.5,0 5,5 0,0 Z"
         style="fill:#000000;fill-opacity:1;fill-rule:evenodd;stroke:#000000;stroke-width:1pt;stroke-opacity:1"
         transform="matrix(0.8,0,0,0.8,10,0)" />
    </marker>
    <marker
       orient="auto"
       refY="0"
       refX="0"
       id="TriangleInM-6"
       style="overflow:visible">
      <path
         id="path5978-6"
         d="m 5.77,0 -8.65,5 0,-10 8.65,5 z"
         style="fill:#000000;fill-opacity:1;fill-rule:evenodd;stroke:#000000;stroke-width:1pt;stroke-opacity:1"
         transform="scale(-0.4,-0.4)" />
    </marker>
    <marker
       orient="auto"
       refY="0"
       refX="0"
       id="TriangleOutM-4"
       style="overflow:visible">
      <path
         id="path5987-0"
         d="m 5.77,0 -8.65,5 0,-10 8.65,5 z"
         style="fill:#000000;fill-opacity:1;fill-rule:evenodd;stroke:#000000;stroke-width:1pt;stroke-opacity:1"
         transform="scale(0.4,0.4)" />
    </marker>
    <marker
       orient="auto"
       refY="0"
       refX="0"
       id="TriangleInM-6-4"
       style="overflow:visible">
      <path
         id="path5978-6-6"
         d="m 5.77,0 -8.65,5 0,-10 8.65,5 z"
         style="fill:#000000;fill-opacity:1;fill-rule:evenodd;stroke:#000000;stroke-width:1pt;stroke-opacity:1"
         transform="scale(-0.4,-0.4)" />
    </marker>
    <marker
       orient="auto"
       refY="0"
       refX="0"
       id="TriangleOutM-4-2"
       style="overflow:visible">
      <path
         id="path5987-0-6"
         d="m 5.77,0 -8.65,5 0,-10 8.65,5 z"
         style="fill:#000000;fill-opacity:1;fill-rule:evenodd;stroke:#000000;stroke-width:1pt;stroke-opacity:1"
         transform="scale(0.4,0.4)" />
    </marker>
    <marker
       orient="auto"
       refY="0"
       refX="0"
       id="TriangleInM-6-4-5"
       style="overflow:visible">
      <path
         id="path5978-6-6-6"
         d="m 5.77,0 -8.65,5 0,-10 8.65,5 z"
         style="fill:#000000;fill-opacity:1;fill-rule:evenodd;stroke:#000000;stroke-width:1pt;stroke-opacity:1"
         transform="scale(-0.4,-0.4)" />
    </marker>
    <marker
       orient="auto"
       refY="0"
       refX="0"
       id="TriangleOutM-4-2-9"
       style="overflow:visible">
      <path
         id="path5987-0-6-8"
         d="m 5.77,0 -8.65,5 0,-10 8.65,5 z"
         style="fill:#000000;fill-opacity:1;fill-rule:evenodd;stroke:#000000;stroke-width:1pt;stroke-opacity:1"
         transform="scale(0.4,0.4)" />
    </marker>
  </defs>
  <metadata
     id="metadata7">
    <rdf:RDF>
      <cc:Work
         rdf:about="">
        <dc:format>image/svg+xml</dc:format>
        <dc:type
           rdf:resource="http://purl.org/dc/dcmitype/StillImage" />
        <dc:title></dc:title>
      </cc:Work>
    </rdf:RDF>
  </metadata>
  <g
     transform="translate(-265.76894,-8521.6672)"
     id="g4179">
    <g
       transform="translate(-909.90183,8305.6706)"
       style="font-style:normal;font-weight:normal;font-size:40px;line-height:100%;font-family:sans-serif;text-align:center;letter-spacing:0px;word-spacing:0px;text-anchor:middle;fill:#4d4d4d;fill-opacity:1;stroke:none;stroke-width:1px;stroke-linecap:butt;stroke-linejoin:miter;stroke-opacity:1"
       id="flowRoot4242-2-6-0-2-0-6-5">
      <path
         d="m 1599.7412,401.04756 4.8438,-22.89062 q 0.1562,-0.72266 0.6836,-1.17188 0.5273,-0.46875 1.25,-0.50781 l 0.078,0 q 0.6836,0 1.2109,0.41016 0.5469,0.39062 0.7422,1.07422 l 5.1172,16.91406 5.918,-16.99219 q 0.1953,-0.64453 0.7226,-1.01562 0.5274,-0.39063 1.211,-0.39063 l 0.1171,0 q 0.6836,0.0781 1.1914,0.54688 0.5274,0.46875 0.6446,1.13281 l 4.9219,22.89062 q 0.058,0.25391 0.058,0.48828 0,0.56641 -0.3125,1.09375 -0.4687,0.74219 -1.2695,0.9375 -0.1562,0.0391 -0.4297,0.0391 -0.7226,0 -1.289,-0.44922 -0.6055,-0.56641 -0.7227,-1.19141 l -3.3984,-15.76172 -5.5664,16.03516 q -0.1953,0.64453 -0.7227,1.03516 -0.5078,0.37109 -1.1914,0.37109 l -0.039,0 q -0.6836,-0.0391 -1.2109,-0.41016 -0.5078,-0.39062 -0.7031,-1.07422 l -4.6485,-15.35156 -3.2031,15.15625 q -0.1562,0.72266 -0.7226,1.19141 -0.5469,0.44922 -1.2696,0.44922 -0.2734,0 -0.4492,-0.0391 -0.8203,-0.19531 -1.2891,-0.9375 -0.332,-0.52734 -0.332,-1.09375 0,-0.2539 0.059,-0.48828 z"
         style="font-style:normal;font-variant:normal;font-weight:bold;font-stretch:normal;line-height:100%;font-family:'Comic Neue';-inkscape-font-specification:'Comic Neue Bold';text-align:center;text-anchor:middle;fill:#4d4d4d"
         id="path4141" />
      <path
         d="m 1631.4014,385.11006 q 0.2734,-0.82031 1.0742,-1.23047 0.4492,-0.19531 0.8984,-0.19531 0.3711,0 0.7227,0.11719 0.8203,0.27344 1.2304,1.07422 l 5.2344,10.52734 4.8438,-10.42969 q 0.3125,-0.80078 1.1328,-1.13281 0.4101,-0.15625 0.8203,-0.15625 0.4102,0 0.8008,0.15625 0.8008,0.35156 1.1133,1.17188 0.1757,0.42968 0.1757,0.83984 0,0.41016 -0.1562,0.80078 l -10.332,22.30469 q -0.3516,0.80078 -1.1719,1.09375 -0.3711,0.15625 -0.7617,0.15625 -0.4297,0 -0.8594,-0.19531 -0.8008,-0.35157 -1.1133,-1.17188 -0.1562,-0.39062 -0.1562,-0.78125 0,-0.42969 0.1953,-0.85937 l 3.1836,-6.875 -6.7578,-13.59375 q -0.2344,-0.46875 -0.2344,-0.95703 0,-0.33204 0.1172,-0.66407 z"
         style="font-style:normal;font-variant:normal;font-weight:bold;font-stretch:normal;line-height:100%;font-family:'Comic Neue';-inkscape-font-specification:'Comic Neue Bold';text-align:center;text-anchor:middle;fill:#4d4d4d"
         id="path4143" />
      <path
         d="m 1589.8389,441.61397 0,-15.76172 q 0,-0.91797 0.6445,-1.54297 0.6445,-0.625 1.5625,-0.625 0.918,0 1.543,0.625 0.6445,0.60547 0.6445,1.54297 l -0.078,15.76172 q 0,0.91797 -0.625,1.54297 -0.6055,0.60547 -1.5235,0.60547 -0.9179,0 -1.5429,-0.60547 -0.625,-0.625 -0.625,-1.54297 z m 0.1562,-22.12891 0.078,-1.36718 q 0,-0.87891 0.625,-1.48438 0.625,-0.625 1.5039,-0.625 0.879,0 1.4844,0.625 0.625,0.60547 0.625,1.48438 l -0.078,1.36718 q 0,0.87891 -0.625,1.50391 -0.6055,0.625 -1.4844,0.625 -0.8789,0 -1.5039,-0.625 -0.625,-0.625 -0.625,-1.50391 z"
         style="font-style:normal;font-variant:normal;font-weight:bold;font-stretch:normal;line-height:100%;font-family:'Comic Neue';-inkscape-font-specification:'Comic Neue Bold';text-align:center;text-anchor:middle;fill:#4d4d4d"
         id="path4145" />
      <path
         d="m 1598.96,434.07491 0,-0.0781 q 0.039,-0.76172 0.1171,-1.97265 0.098,-1.21094 0.5665,-2.57813 1.1523,-3.47656 4.2382,-5.03906 1.6797,-0.83985 3.7696,-0.83985 l 0.1953,0 q 1.6797,0 3.4375,0.60547 l 0.1172,-5.48828 0.039,-0.44922 q 0,-0.91797 0.6055,-1.52343 0.6055,-0.625 1.5234,-0.625 0.8789,0 1.4649,0.625 0.6054,0.60546 0.6054,1.52343 l 0,0.52735 -0.4687,21.875 0,0.91797 q 0,0.91796 -0.625,1.54296 -0.625,0.625 -1.5039,0.625 -0.8008,0 -1.4258,-0.52734 -0.6055,-0.54687 -0.6836,-1.34766 -2.207,1.44532 -4.8437,1.44532 l -0.1953,0 -0.293,0 -0.078,0 q -1.7579,-0.11719 -3.0664,-1.05469 -1.1524,-0.83984 -2.0508,-2.22656 -0.7032,-1.25 -1.0938,-2.77344 -0.3515,-1.38672 -0.3515,-2.85156 0,-0.15625 0,-0.3125 z m 4.1992,0.17578 q 0,0.13672 0,0.29297 -0.02,0.5664 0.098,1.28906 0.1563,0.89844 0.4688,1.69922 0.2734,0.60547 0.5664,0.9375 0.3125,0.33203 0.5664,0.50781 0.2734,0.15625 0.4883,0.19531 0.2148,0.0391 0.3515,0.0391 l 0.3907,0 q 1.9922,0 3.5937,-1.13282 0.6836,-0.48828 0.9961,-0.9375 0.332,-0.44922 0.3711,-0.625 l 0.1563,-7.87109 q -0.6055,-0.3125 -1.5625,-0.60547 -0.9571,-0.3125 -1.9922,-0.3125 -1.1524,0 -1.836,0.39063 -1.6015,0.8789 -2.1093,2.42187 -0.4883,1.54297 -0.5469,3.71094 z"
         style="font-style:normal;font-variant:normal;font-weight:bold;font-stretch:normal;line-height:100%;font-family:'Comic Neue';-inkscape-font-specification:'Comic Neue Bold';text-align:center;text-anchor:middle;fill:#4d4d4d"
         id="path4147" />
      <path
         d="m 1620.249,433.72334 q 0,-1.95312 0.7031,-3.71093 0.7032,-1.77735 1.9141,-3.10547 1.2305,-1.34766 2.8711,-2.16797 1.6406,-0.82031 3.5156,-0.9375 0.3516,-0.0391 0.7032,-0.0391 1.914,0 3.496,0.91797 1.875,1.07421 3.0079,2.89062 0.1953,0.3125 0.332,0.64453 0.1367,0.3125 0.3125,0.58594 0.1953,0.37109 0.1953,0.82031 0,0.25391 -0.059,0.56641 -0.1758,0.82031 -1.0156,1.25 -0.7227,0.39062 -2.0313,1.13281 -1.289,0.72266 -2.8125,1.5625 -1.5234,0.83984 -3.0859,1.71875 -1.5625,0.87891 -2.793,1.54297 0.6446,0.80078 1.4649,1.36719 1.289,0.8789 2.9297,0.8789 2.2851,0 3.9648,-1.75781 l 0.8008,-0.83984 q 0.5664,-0.56641 1.3867,-0.56641 0.8398,0 1.4453,0.60547 0.6055,0.60547 0.6055,1.40625 0,0.72266 -0.4883,1.30859 l -0.8008,0.83985 q -1.3672,1.48437 -3.164,2.28515 -1.7579,0.76172 -3.75,0.76172 -1.9922,0 -3.7696,-0.78125 -1.7578,-0.78125 -3.0664,-2.10937 -1.289,-1.34766 -2.0508,-3.16407 -0.7617,-1.8164 -0.7617,-3.90625 z m 4.043,-0.27343 q 0.8398,-0.48828 1.9531,-1.09375 1.1328,-0.625 2.2461,-1.25 1.1328,-0.625 2.1484,-1.19141 1.0157,-0.58594 1.7383,-0.99609 -1.0351,-1.03516 -2.4023,-1.11328 -1.3672,0.0391 -2.3828,0.54687 -1.0157,0.48828 -1.7383,1.28906 -1.4453,1.64063 -1.5625,3.8086 z"
         style="font-style:normal;font-variant:normal;font-weight:bold;font-stretch:normal;line-height:100%;font-family:'Comic Neue';-inkscape-font-specification:'Comic Neue Bold';text-align:center;text-anchor:middle;fill:#4d4d4d"
         id="path4149" />
      <path
         d="m 1642.2021,436.16475 q -0.078,-0.58594 -0.078,-1.21094 0,-0.72265 0.1172,-1.5039 0.1953,-1.44532 0.6055,-2.8125 0.5664,-1.71875 1.5625,-3.08594 0.9961,-1.38672 2.2851,-2.34375 2.0703,-1.60156 4.961,-1.60156 1.0742,0 2.0117,0.19531 0.9375,0.19531 1.6601,0.44922 0.7227,0.23437 1.1915,0.48828 0.4882,0.23437 0.6054,0.27344 0.2344,0.15625 0.586,0.52734 0.3515,0.35156 0.3515,1.07422 l 0,7.91016 q 0,3.20312 0.039,7.1289 l 0,0.42969 q 0,0.87891 -0.625,1.50391 -0.625,0.625 -1.5039,0.625 -0.7227,0 -1.2696,-0.42969 -0.5273,-0.41016 -0.7226,-1.09375 l -0.078,0.0391 q -0.8399,0.35156 -1.9141,0.64453 -1.0547,0.27344 -2.0898,0.27344 l -0.1563,0 q -3.0859,-0.0781 -5.1367,-2.12891 -2.0313,-2.07031 -2.4024,-5.35156 z m 4.2579,-0.48828 q 0.039,0.3125 0.1757,0.9375 0.1368,0.625 0.4883,1.26953 0.3711,0.64453 0.9961,1.11328 0.6445,0.44922 1.6992,0.48828 l 0.078,0 q 1.1132,0 2.5195,-0.72265 0.4492,-0.19532 0.7812,-0.39063 0.3321,-0.21484 0.6055,-0.41015 0,-0.48829 0,-1.34766 0,-0.85938 0.02,-1.93359 0.02,-1.07422 0.039,-2.32422 0.039,-1.26953 0.078,-2.5586 l 0,-1.60156 q -0.2343,-0.0781 -0.5078,-0.13672 -0.2539,-0.0586 -0.5469,-0.13672 -0.6054,-0.11718 -1.1523,-0.11718 l -0.078,0 q -1.4063,0 -2.4024,0.72265 -0.9961,0.76172 -1.5625,1.71875 -0.5664,0.95703 -0.8008,1.75781 -0.3125,0.91797 -0.4296,1.89454 -0.059,0.50781 -0.059,0.97656 0.02,0.41015 0.059,0.80078 z"
         style="font-style:normal;font-variant:normal;font-weight:bold;font-stretch:normal;line-height:100%;font-family:'Comic Neue';-inkscape-font-specification:'Comic Neue Bold';text-align:center;text-anchor:middle;fill:#4d4d4d"
         id="path4151" />
    </g>
    <path
       d="m 1521.6273,8578.3363 c -0.5403,-1.3276 -1.3243,-2.6265 -2.1054,-3.9221 -1.1651,-2.0031 -3.0615,-3.8673 -5.3249,-5.6555 -3.5905,-2.6904 -8.1116,-5.1241 -12.697,-7.5193 -5.4726,-2.8017 -11.3361,-5.4662 -17.4495,-8.034 -3.9836,-1.5519 -7.9262,-3.2085 -12.9408,-4.2594 -0.8291,-0.1737 -1.7176,-0.3055 -2.5763,-0.4582 -4.5081,-0.6359 -9.3462,-0.4422 -13.9636,0.5803 -1.0258,0.2271 -1.9835,0.5092 -2.9751,0.7637 -7.5538,2.2862 -12.9131,5.4303 -18.0193,8.5528 -7.4409,4.668 -12.7075,9.7156 -17.469,14.7939 -5.3905,6.0287 -9.2836,12.1776 -13.6084,18.2875 -2.7661,3.76 -5.7231,7.5203 -9.6157,11.1737 -2.3797,2.2334 -2.9455,2.5744 -5.7134,4.7103 -3.5702,2.5172 -7.757,5.0047 -13.6846,6.7658 -3.3571,0.9974 -4.3029,1.0496 -8.0067,1.6694 -1.4041,0.1188 -2.8035,0.2914 -4.2123,0.3556 -8.8641,0.4057 -15.9965,-1.1735 -22.8729,-2.8178 -10.9202,-2.9558 -19.9703,-6.8103 -28.9015,-10.6453 -9.8135,-4.2653 -18.6389,-8.8848 -27.7647,-13.3941 -7.9699,-3.9678 -16.5428,-7.7159 -25.873,-11.1588 -5.6927,-1.965 -11.7934,-3.8276 -18.968,-4.9391 -1.1966,-0.1854 -2.4478,-0.323 -3.6718,-0.4846 -5.6785,-0.6058 -11.7903,-0.6779 -17.8405,0.084 -1.1081,0.1399 -2.1871,0.3314 -3.2806,0.4971 -7.095,1.2287 -12.3085,3.506 -17.1025,5.9168 -6.3348,3.4113 -10.6789,7.2471 -14.804,11.0668 -5.0638,5.0013 -9.8503,10.0311 -15.361,14.9762 -5.379,4.7828 -11.9732,9.355 -19.5124,13.7138 -5.2653,2.8536 -11.0918,5.629 -18.3351,7.7059 -1.2657,0.363 -2.6064,0.6756 -3.9096,1.0135 -6.7526,1.5304 -14.027,2.1564 -21.1677,1.7623 -1.525,-0.084 -2.9937,-0.2463 -4.4904,-0.3694 -10.9302,-1.2625 -19.2853,-4.1921 -27.1917,-7.2029 -10.7133,-4.3246 -19.6815,-9.2902 -28.8546,-14.1577 -9.4259,-5.0493 -19.5394,-9.8657 -30.1195,-14.5081 -8.6342,-3.7644 -18.09195,-7.1932 -28.13405,-10.3452 -6.9693,-2.0645 -14.2317,-4.0827 -22.6321,-5.2456 -1.4038,-0.1941 -2.8692,-0.33 -4.3039,-0.495 -6.5613,-0.5674 -13.6026,-0.4449 -20.2429,0.8328 -1.2827,0.2467 -2.4909,0.565 -3.7364,0.8476 -9.0155,2.4404 -14.597,6.1515 -19.7253,9.853 -6.3177,4.8449 -11.2183,9.9018 -16.0895,14.9415 -5.2398,5.5687 -10.0815,11.1779 -15.0511,16.7738 -3.6823,3.9546 -7.2021,7.9757 -12.4327,11.7234 -0.8249,0.5913 -1.7516,1.162 -2.6274,1.7429 -3.65,2.1982 -8.2557,4.2319 -14.5134,5.1074 -1.1068,0.1548 -2.247,0.2355 -3.3706,0.3532 -9.3833,0.5474 -17.6709,-0.8424 -25.5612,-2.2625 -12.2425,-2.3826 -23.0171,-5.6591 -33.5648,-8.9932 -12.1033,-3.9127 -23.7728,-8.0281 -35.4347,-12.1435 -11.582,-4.106 -23.25716,-8.1699 -35.05386,-12.1785 -10.2546,-3.5151 -20.8811,-6.8544 -32.1244,-9.8736 -6.413,-1.5701 -13.1226,-3.2463 -21.0356,-3.6039 -1.2609,-0.057 -2.561,-0.034 -3.8414,-0.052 -9.2875,0.3648 -14.2189,2.1856 -20.437,5.0321 -6.8375,3.4646 -11.8113,7.378 -16.7796,11.2446 -5.7194,4.5046 -11.073,9.0679 -16.3006,13.6477 -5.19215,4.7081 -10.90599,9.333 -17.25541,13.8517 -4.73264,3.2145 -9.74769,6.413 -16.01654,9.2301 -1.0567,0.4749 -2.19293,0.9207 -3.28939,1.381 -4.73386,1.8241 -10.1434,3.4298 -16.41464,3.9893 -1.10634,0.099 -2.22237,0.1258 -3.3333,0.1937 -8.98053,0.1719 -16.0591,-1.7052 -22.79194,-3.5498 -9.96326,-2.9889 -19.10389,-6.3747 -28.15197,-9.7822 -10.43879,-3.9243 -19.96219,-8.2127 -29.26607,-12.5749 -8.71625,-4.1859 -17.39576,-8.3841 -26.40699,-12.464 -5.53292,-2.3497 -10.77342,-4.8916 -17.37531,-6.7886 -0.98949,-0.2844 -2.05904,-0.5248 -3.08866,-0.7871 -3.69716,-0.7702 -7.80721,-1.1752 -12.20201,-0.3901 -2.78316,0.4971 -3.68549,0.9259 -6.05659,1.7328 -7.52293,3.1753 -12.75571,7.0358 -18.11095,10.7694 -6.51129,4.5979 -13.06304,9.1877 -19.71001,13.7588 -6.28749,4.299 -12.60731,8.5919 -19.2738,12.8108 -5.02935,3.0728 -10.18312,6.1539 -16.39464,8.8958 -1.18841,0.5247 -2.45186,1.0215 -3.6778,1.5322 -1.30308,0.4746 -2.60605,0.9492 -3.90913,1.4239 0,0 0.60275,0.2774 0.60275,0.2774 l 0,0 c 1.32196,-0.482 2.64392,-0.964 3.96589,-1.4459 1.24124,-0.5176 2.52022,-1.021 3.72364,-1.5525 6.24772,-2.7595 11.43587,-5.8584 16.49501,-8.9502 6.67389,-4.2239 13.00155,-8.5215 19.29615,-12.8256 6.64802,-4.5719 13.20102,-9.1625 19.71336,-13.7612 5.28884,-3.6873 10.45342,-7.4998 17.85412,-10.6456 0.9486,-0.3259 1.83756,-0.6848 2.84588,-0.9776 5.06266,-1.47 9.50765,-1.2714 14.24437,-0.3107 1.00606,0.2556 2.05167,0.4895 3.01819,0.7668 6.56628,1.8847 11.77049,4.4149 17.27356,6.75 9.00814,4.0786 17.68417,8.2754 26.39762,12.4598 9.32316,4.3711 18.86672,8.668 29.32695,12.6005 9.07862,3.4188 18.2503,6.8159 28.24976,9.8136 6.9193,1.894 14.19662,3.8002 23.42837,3.6046 1.15994,-0.071 2.32543,-0.105 3.48072,-0.2027 6.45671,-0.5839 12.03595,-2.2307 16.91045,-4.1126 1.11372,-0.468 2.26752,-0.9213 3.34108,-1.4041 6.31457,-2.8393 11.37106,-6.0614 16.13865,-9.3008 6.36454,-4.5302 12.09404,-9.1663 17.29883,-13.8861 5.2203,-4.5734 10.5663,-9.1303 16.2775,-13.6286 4.925,-3.833 9.852,-7.7133 16.6201,-11.1507 5.9563,-2.7329 10.6689,-4.5117 19.5847,-4.8762 1.2334,0.015 2.4855,-0.01 3.7001,0.045 7.7995,0.3462 14.4015,2.0098 20.7213,3.5529 11.2185,3.0119 21.8195,6.3446 32.0512,9.8515 11.793,4.0072 23.46436,8.0698 35.04256,12.1745 11.6728,4.1193 23.3533,8.2385 35.4682,12.1547 10.6007,3.3505 21.431,6.6422 33.737,9.0349 8.083,1.4533 16.5701,2.8613 26.1822,2.2797 1.1782,-0.1251 2.3744,-0.2122 3.5345,-0.3766 6.4726,-0.9172 11.2586,-3.0132 15.0367,-5.2931 0.8878,-0.5895 1.8269,-1.1687 2.6635,-1.7685 5.2532,-3.7666 8.7961,-7.8063 12.4944,-11.7803 4.9663,-5.5921 9.8047,-11.1975 15.0405,-16.7624 4.8523,-5.0205 9.733,-10.0582 16.0235,-14.8851 5.0199,-3.6257 10.4675,-7.2712 19.2793,-9.6724 1.1991,-0.2735 2.3619,-0.5818 3.5971,-0.821 6.4302,-1.2447 13.2528,-1.3636 19.6131,-0.8165 1.4068,0.1611 2.8436,0.2933 4.22,0.4834 8.3284,1.1506 15.5229,3.154 22.4319,5.1994 10.0074,3.1405 19.43115,6.5577 28.03555,10.3086 10.5636,4.6348 20.6604,9.4436 30.0712,14.4847 9.1999,4.8819 18.1953,9.8615 28.943,14.1975 8.0205,3.0528 16.5041,6.0165 27.6003,7.2873 1.5369,0.1252 3.045,0.2906 4.6107,0.3757 7.3594,0.4004 14.8568,-0.2521 21.8077,-1.8318 1.3322,-0.3461 2.7025,-0.6667 3.9966,-1.0383 7.3346,-2.1068 13.2432,-4.9161 18.5756,-7.8083 7.5787,-4.383 14.2107,-8.9796 19.6179,-13.7887 5.5118,-4.9468 10.3025,-9.9778 15.3662,-14.981 4.084,-3.7827 8.3806,-7.5821 14.6466,-10.962 4.6587,-2.3452 9.7138,-4.57 16.6088,-5.7714 1.0549,-0.1607 2.0955,-0.3468 3.1646,-0.4824 5.8689,-0.7447 11.7993,-0.675 17.3111,-0.09 1.1978,0.1576 2.4222,0.2915 3.5932,0.4725 7.093,1.0962 13.1179,2.9399 18.7452,4.8808 9.3023,3.4316 17.8469,7.1692 25.7927,11.1244 9.1376,4.5152 17.9746,9.1406 27.8015,13.4112 8.9834,3.8571 18.0889,7.7329 29.0792,10.7027 7.1254,1.7003 14.3376,3.2938 23.53,2.857 1.4733,-0.07 2.9355,-0.2535 4.4032,-0.3801 3.8551,-0.6511 4.8236,-0.7046 8.3128,-1.7456 6.0386,-1.8017 10.32,-4.3352 13.9596,-6.9051 2.7914,-2.1552 3.3604,-2.4981 5.7597,-4.7507 3.9066,-3.6677 6.8763,-7.4426 9.6527,-11.2173 4.3166,-6.0983 8.202,-12.2354 13.5801,-18.2528 4.731,-5.0473 9.962,-10.0642 17.3548,-14.7041 5.0143,-3.0674 10.2683,-6.16 17.6713,-8.4144 0.9471,-0.2446 1.8619,-0.515 2.8414,-0.7341 4.3492,-0.9727 8.9024,-1.1665 13.1641,-0.5701 0.8281,0.1463 1.685,0.2722 2.484,0.4389 4.9541,1.0349 8.8376,2.6754 12.7727,4.2054 6.0936,2.5594 11.9379,5.2154 17.3931,8.0077 4.5549,2.379 9.047,4.7961 12.616,7.4678 2.2349,1.7639 4.1057,3.6034 5.2556,5.5799 0.7733,1.2825 1.5492,2.5685 2.0872,3.882 0,0 0.9707,-0.098 0.9707,-0.098 z"
       id="path4204-2-2"
       style="color:#000000;clip-rule:nonzero;display:inline;overflow:visible;visibility:visible;opacity:0.781;isolation:auto;mix-blend-mode:normal;color-interpolation:sRGB;color-interpolation-filters:linearRGB;solid-color:#000000;solid-opacity:1;fill:#000000;fill-opacity:1;fill-rule:nonzero;stroke:#000000;stroke-width:2;stroke-linecap:butt;stroke-linejoin:miter;stroke-miterlimit:4;stroke-dasharray:none;stroke-dashoffset:0;stroke-opacity:1;color-rendering:auto;image-rendering:auto;shape-rendering:auto;text-rendering:auto;enable-background:accumulate" />
    <g
       transform="translate(-1171.6295,8466.2827)"
       style="font-style:normal;font-weight:normal;font-size:40px;line-height:125%;font-family:sans-serif;letter-spacing:0px;word-spacing:0px;fill:#4d4d4d;fill-opacity:1;stroke:none;stroke-width:1px;stroke-linecap:butt;stroke-linejoin:miter;stroke-opacity:1"
       id="flowRoot4242-2-6-0-2-0-6-0">
      <path
         d="m 1571.8477,409.08875 4.8437,-22.89062 q 0.1563,-0.72266 0.6836,-1.17188 0.5273,-0.46875 1.25,-0.50781 l 0.078,0 q 0.6836,0 1.211,0.41015 0.5468,0.39063 0.7422,1.07422 l 5.1171,16.91407 5.918,-16.99219 q 0.1953,-0.64453 0.7227,-1.01563 0.5273,-0.39062 1.2109,-0.39062 l 0.1172,0 q 0.6836,0.0781 1.1914,0.54687 0.5273,0.46875 0.6445,1.13282 l 4.9219,22.89062 q 0.059,0.25391 0.059,0.48828 0,0.56641 -0.3125,1.09375 -0.4688,0.74219 -1.2695,0.9375 -0.1563,0.0391 -0.4297,0.0391 -0.7227,0 -1.2891,-0.44921 -0.6055,-0.56641 -0.7226,-1.19141 l -3.3985,-15.76172 -5.5664,16.03516 q -0.1953,0.64453 -0.7226,1.03515 -0.5079,0.3711 -1.1914,0.3711 l -0.039,0 q -0.6836,-0.0391 -1.2109,-0.41016 -0.5079,-0.39062 -0.7032,-1.07422 l -4.6484,-15.35156 -3.2031,15.15625 q -0.1563,0.72266 -0.7227,1.19141 -0.5469,0.44921 -1.2695,0.44921 -0.2735,0 -0.4492,-0.0391 -0.8204,-0.19531 -1.2891,-0.9375 -0.332,-0.52734 -0.332,-1.09375 0,-0.2539 0.059,-0.48828 z"
         style="font-style:normal;font-variant:normal;font-weight:bold;font-stretch:normal;font-family:'Comic Neue';-inkscape-font-specification:'Comic Neue Bold';fill:#4d4d4d"
         id="path4175" />
      <path
         d="m 1604.582,401.76453 q 0,-1.95312 0.7032,-3.71094 0.7031,-1.77734 1.914,-3.10546 1.2305,-1.34766 2.8711,-2.16797 1.6406,-0.82032 3.5156,-0.9375 0.3516,-0.0391 0.7032,-0.0391 1.914,0 3.4961,0.91797 1.875,1.07422 3.0078,2.89063 0.1953,0.3125 0.332,0.64453 0.1367,0.3125 0.3125,0.58594 0.1953,0.37109 0.1953,0.82031 0,0.25391 -0.059,0.56641 -0.1758,0.82031 -1.0156,1.25 -0.7227,0.39062 -2.0313,1.13281 -1.289,0.72265 -2.8125,1.5625 -1.5234,0.83984 -3.0859,1.71875 -1.5625,0.8789 -2.793,1.54297 0.6446,0.80078 1.4649,1.36718 1.289,0.87891 2.9297,0.87891 2.2851,0 3.9648,-1.75781 l 0.8008,-0.83985 q 0.5664,-0.5664 1.3867,-0.5664 0.8399,0 1.4453,0.60547 0.6055,0.60547 0.6055,1.40625 0,0.72265 -0.4883,1.30859 l -0.8008,0.83984 q -1.3672,1.48438 -3.164,2.28516 -1.7578,0.76172 -3.75,0.76172 -1.9922,0 -3.7696,-0.78125 -1.7578,-0.78125 -3.0664,-2.10938 -1.289,-1.34765 -2.0507,-3.16406 -0.7618,-1.8164 -0.7618,-3.90625 z m 4.043,-0.27344 q 0.8398,-0.48828 1.9531,-1.09375 1.1328,-0.625 2.2461,-1.25 1.1328,-0.625 2.1485,-1.1914 1.0156,-0.58594 1.7382,-0.9961 -1.0351,-1.03515 -2.4023,-1.11328 -1.3672,0.0391 -2.3828,0.54688 -1.0156,0.48828 -1.7383,1.28906 -1.4453,1.64063 -1.5625,3.80859 z"
         style="font-style:normal;font-variant:normal;font-weight:bold;font-stretch:normal;font-family:'Comic Neue';-inkscape-font-specification:'Comic Neue Bold';fill:#4d4d4d"
         id="path4177" />
    </g>
    <g
       transform="translate(-1203.3864,8260.3547)"
       style="font-style:normal;font-weight:normal;font-size:40px;line-height:125%;font-family:sans-serif;letter-spacing:0px;word-spacing:0px;fill:#4d4d4d;fill-opacity:1;stroke:none;stroke-width:1px;stroke-linecap:butt;stroke-linejoin:miter;stroke-opacity:1"
       id="flowRoot4242-2-6-0-2-0-4-4-9">
      <path
         d="m 1571.8477,409.08875 4.8437,-22.89062 q 0.1563,-0.72266 0.6836,-1.17188 0.5273,-0.46875 1.25,-0.50781 l 0.078,0 q 0.6836,0 1.211,0.41015 0.5468,0.39063 0.7422,1.07422 l 5.1171,16.91407 5.918,-16.99219 q 0.1953,-0.64453 0.7227,-1.01563 0.5273,-0.39062 1.2109,-0.39062 l 0.1172,0 q 0.6836,0.0781 1.1914,0.54687 0.5273,0.46875 0.6445,1.13282 l 4.9219,22.89062 q 0.059,0.25391 0.059,0.48828 0,0.56641 -0.3125,1.09375 -0.4688,0.74219 -1.2695,0.9375 -0.1563,0.0391 -0.4297,0.0391 -0.7227,0 -1.2891,-0.44921 -0.6055,-0.56641 -0.7226,-1.19141 l -3.3985,-15.76172 -5.5664,16.03516 q -0.1953,0.64453 -0.7226,1.03515 -0.5079,0.3711 -1.1914,0.3711 l -0.039,0 q -0.6836,-0.0391 -1.2109,-0.41016 -0.5079,-0.39062 -0.7032,-1.07422 l -4.6484,-15.35156 -3.2031,15.15625 q -0.1563,0.72266 -0.7227,1.19141 -0.5469,0.44921 -1.2695,0.44921 -0.2735,0 -0.4492,-0.0391 -0.8204,-0.19531 -1.2891,-0.9375 -0.332,-0.52734 -0.332,-1.09375 0,-0.2539 0.059,-0.48828 z"
         style="font-style:normal;font-variant:normal;font-weight:bold;font-stretch:normal;font-family:'Comic Neue';-inkscape-font-specification:'Comic Neue Bold';fill:#4d4d4d"
         id="path4161" />
      <path
         d="m 1604.582,401.76453 q 0,-1.95312 0.7032,-3.71094 0.7031,-1.77734 1.914,-3.10546 1.2305,-1.34766 2.8711,-2.16797 1.6406,-0.82032 3.5156,-0.9375 0.3516,-0.0391 0.7032,-0.0391 1.914,0 3.4961,0.91797 1.875,1.07422 3.0078,2.89063 0.1953,0.3125 0.332,0.64453 0.1367,0.3125 0.3125,0.58594 0.1953,0.37109 0.1953,0.82031 0,0.25391 -0.059,0.56641 -0.1758,0.82031 -1.0156,1.25 -0.7227,0.39062 -2.0313,1.13281 -1.289,0.72265 -2.8125,1.5625 -1.5234,0.83984 -3.0859,1.71875 -1.5625,0.8789 -2.793,1.54297 0.6446,0.80078 1.4649,1.36718 1.289,0.87891 2.9297,0.87891 2.2851,0 3.9648,-1.75781 l 0.8008,-0.83985 q 0.5664,-0.5664 1.3867,-0.5664 0.8399,0 1.4453,0.60547 0.6055,0.60547 0.6055,1.40625 0,0.72265 -0.4883,1.30859 l -0.8008,0.83984 q -1.3672,1.48438 -3.164,2.28516 -1.7578,0.76172 -3.75,0.76172 -1.9922,0 -3.7696,-0.78125 -1.7578,-0.78125 -3.0664,-2.10938 -1.289,-1.34765 -2.0507,-3.16406 -0.7618,-1.8164 -0.7618,-3.90625 z m 4.043,-0.27344 q 0.8398,-0.48828 1.9531,-1.09375 1.1328,-0.625 2.2461,-1.25 1.1328,-0.625 2.1485,-1.1914 1.0156,-0.58594 1.7382,-0.9961 -1.0351,-1.03515 -2.4023,-1.11328 -1.3672,0.0391 -2.3828,0.54688 -1.0156,0.48828 -1.7383,1.28906 -1.4453,1.64063 -1.5625,3.80859 z"
         style="font-style:normal;font-variant:normal;font-weight:bold;font-stretch:normal;font-family:'Comic Neue';-inkscape-font-specification:'Comic Neue Bold';fill:#4d4d4d"
         id="path4163" />
      <path
         d="m 1627.0625,409.59656 0,-15 0,-1.1914 q 0,-0.87891 0.625,-1.50391 0.625,-0.625 1.5039,-0.625 0.8789,0 1.4844,0.625 0.625,0.625 0.625,1.50391 l 0,1.25 q 0.1562,-0.19532 0.293,-0.35157 0.1562,-0.17578 0.3515,-0.37109 1.1133,-1.11328 2.4805,-1.71875 1.3672,-0.60547 2.9687,-0.60547 2.2071,0 3.6328,1.19141 1.3672,1.11328 1.9532,3.4375 0.4492,1.67969 0.5273,4.0625 0.078,2.38281 0.078,5.97656 l 0,2.20703 q 0,0.56641 0.039,1.11328 0,0.87891 -0.625,1.50391 -0.6055,0.625 -1.4648,0.625 -0.8789,0 -1.5039,-0.60547 -0.6055,-0.625 -0.6055,-1.52344 -0.039,-0.60547 -0.039,-1.1914 l 0,-2.07032 q 0,-2.92968 -0.059,-5.3125 -0.059,-2.38281 -0.3906,-3.76953 -0.2734,-1.03515 -0.6055,-1.25 -0.3125,-0.23437 -0.9375,-0.23437 -0.3906,0 -0.8789,0.0976 -0.4883,0.0977 -1.0351,0.48829 -0.5274,0.37109 -1.1524,1.09375 -0.625,0.72265 -1.2695,1.91406 -0.8008,1.52344 -1.2891,3.41797 -0.4687,1.875 -0.4687,3.63281 l -0.039,3.18359 q 0,0.87891 -0.625,1.50391 -0.6054,0.625 -1.4844,0.625 -0.8789,0 -1.4843,-0.60547 -0.6055,-0.625 -0.6055,-1.52344 z"
         style="font-style:normal;font-variant:normal;font-weight:bold;font-stretch:normal;font-family:'Comic Neue';-inkscape-font-specification:'Comic Neue Bold';fill:#4d4d4d"
         id="path4165" />
      <path
         d="m 1647.0625,393.67859 q 0,-0.8789 0.6055,-1.48437 0.625,-0.625 1.5234,-0.625 l 2.7539,0 0,-4.08203 q 0,-0.87891 0.586,-1.48438 0.6054,-0.60547 1.5234,-0.60547 0.8789,0 1.4844,0.60547 0.6054,0.60547 0.6054,1.48438 l 0,4.08203 2.7539,0 q 0.918,0 1.5235,0.625 0.6054,0.60547 0.6054,1.48437 0,0.91797 -0.6054,1.52344 -0.6055,0.60547 -1.5235,0.60547 l -2.7539,0 0,13.84766 q 0,0.8789 -0.6054,1.48437 -0.6055,0.58594 -1.4844,0.58594 -0.918,0 -1.5234,-0.58594 -0.586,-0.60547 -0.586,-1.48437 l 0,-13.84766 -2.7539,0 q -0.8789,0 -1.5039,-0.60547 -0.625,-0.60547 -0.625,-1.52344 z"
         style="font-style:normal;font-variant:normal;font-weight:bold;font-stretch:normal;font-family:'Comic Neue';-inkscape-font-specification:'Comic Neue Bold';fill:#4d4d4d"
         id="path4167" />
      <path
         d="m 1663.8398,401.56922 q 0.1172,-1.95313 0.879,-3.73047 0.7617,-1.79687 2.0898,-3.18359 1.3281,-1.44532 2.9297,-2.20703 1.6211,-0.76172 3.3594,-0.76172 1.5234,0 2.9101,0.5664 1.4063,0.54688 2.5195,1.67969 1.5235,1.48438 2.2461,3.53516 0.586,1.64062 0.586,3.47656 0,0.44922 -0.039,0.89844 -0.1562,1.99218 -0.918,3.78906 -0.7617,1.77734 -2.0312,3.16406 -1.3281,1.44531 -2.9492,2.20703 -1.6211,0.76172 -3.3789,0.76172 -1.5235,0 -2.9297,-0.5664 -1.3867,-0.58594 -2.5,-1.71875 -1.4844,-1.44532 -2.207,-3.4961 -0.586,-1.67969 -0.586,-3.57422 0,-0.41015 0.019,-0.83984 z m 4.2579,0.27344 q -0.02,0.23437 0,0.46875 0,1.21093 0.332,2.30468 0.4101,1.28907 1.2109,2.10938 0.9961,1.03516 2.4024,1.03516 0.8398,0 1.6992,-0.42969 0.8594,-0.44922 1.582,-1.32813 0.7617,-0.8789 1.1914,-2.03125 0.4492,-1.17187 0.5274,-2.40234 0.02,-0.19531 0.02,-0.39063 -0.02,-1.17187 -0.4102,-2.30468 -0.4687,-1.32813 -1.3281,-2.22657 -1.0742,-0.99609 -2.4023,-0.99609 -1.7578,0 -3.1446,1.75781 -0.7226,0.87891 -1.1718,2.05078 -0.4297,1.15235 -0.5078,2.38282 z"
         style="font-style:normal;font-variant:normal;font-weight:bold;font-stretch:normal;font-family:'Comic Neue';-inkscape-font-specification:'Comic Neue Bold';fill:#4d4d4d"
         id="path4169" />
      <path
         d="m 1685.9688,409.65516 0,-16.13282 q 0,-0.91796 0.625,-1.5039 0.625,-0.60547 1.5039,-0.60547 0.9179,0 1.5039,0.60547 0.6054,0.58594 0.6054,1.5039 l 0,0.33204 q 0.5664,-0.60547 1.2696,-1.09375 0.7031,-0.50782 1.5039,-0.76172 1.0742,-0.39063 2.1093,-0.39063 1.5625,0 2.6368,0.83985 1.4062,1.07421 1.4062,2.79296 l 0,1.17188 q 0,0.83984 -0.6055,1.46484 -0.6054,0.60547 -1.4843,0.60547 -0.8789,0 -1.4844,-0.60547 -0.5859,-0.625 -0.5859,-1.46484 l 0,-0.60547 -0.078,0 q -0.078,0 -0.2734,0.0195 -0.1758,0.0195 -0.4492,0.0977 -0.6836,0.19531 -1.4844,0.89844 -0.8008,0.70312 -1.4453,1.66015 -0.6445,0.95703 -0.8203,1.6211 -0.1758,0.66406 -0.2149,0.82031 l 0,8.73047 q 0,0.8789 -0.6054,1.5039 -0.586,0.60547 -1.5039,0.60547 -0.8789,0 -1.5039,-0.60547 -0.625,-0.625 -0.625,-1.5039 z"
         style="font-style:normal;font-variant:normal;font-weight:bold;font-stretch:normal;font-family:'Comic Neue';-inkscape-font-specification:'Comic Neue Bold';fill:#4d4d4d"
         id="path4171" />
    </g>
    <path
       style="color:#000000;clip-rule:nonzero;display:inline;overflow:visible;visibility:visible;opacity:0.781;isolation:auto;mix-blend-mode:normal;color-interpolation:sRGB;color-interpolation-filters:linearRGB;solid-color:#000000;solid-opacity:1;fill:#000000;fill-opacity:1;fill-rule:nonzero;stroke:#000000;stroke-width:2.00110102;stroke-linecap:butt;stroke-linejoin:miter;stroke-miterlimit:4;stroke-dasharray:none;stroke-dashoffset:0;stroke-opacity:1;color-rendering:auto;image-rendering:auto;shape-rendering:auto;text-rendering:auto;enable-background:accumulate"
       id="path4174-80-8-4-9-1"
       d="m 323.78051,8868.2174 c 1.4953,1.1303 3.1446,1.3729 4.7894,1.4085 3.7059,-0.2505 7.2034,-2.1711 10.6142,-4.2285 5.1735,-3.4372 10.146,-7.5353 15.1116,-11.6083 5.9404,-4.8609 11.8354,-9.8477 17.7599,-14.7532 6.218,-5.2388 12.5273,-10.2015 18.9373,-14.8744 5.9928,-4.3681 12.1276,-8.2607 18.2649,-12.1307 6.2034,-3.9618 12.28529,-8.342 18.44899,-12.4411 5.1349,-3.684 10.528,-6.1554 16.1195,-7.5424 4.735,-1.0592 9.4571,-0.4422 14.1189,0.9767 4.7375,1.4484 8.9093,4.8 12.7411,9.1537 4.602,5.9063 8.3338,13.1705 11.9223,20.4694 4.1381,8.7185 7.9182,17.8102 11.8277,26.7649 3.8106,8.8707 7.7342,17.6175 11.8539,26.1636 4.1617,8.4314 8.4398,16.7274 12.6269,25.1297 3.9095,8.1047 8.2678,15.6186 13.4036,21.9585 5.1034,5.9648 10.4264,8.5454 16.7194,9.8228 7.255,1.0751 14.2079,-1.9177 20.9179,-5.7623 8.8263,-5.4199 16.4598,-14.0922 23.8516,-23.0217 7.4778,-9.3328 14.54919,-19.3825 21.65329,-29.3569 6.2502,-8.8752 12.5748,-17.6281 18.877,-26.4182 5.8377,-8.1408 11.5441,-16.4962 17.3977,-24.6109 4.3288,-5.9296 8.7478,-11.7014 13.4604,-16.9178 3.8139,-4.2594 8.0923,-7.282 12.4898,-9.8459 4.3436,-2.6009 8.8774,-3.8069 13.5237,-3.9621 4.8731,-0.037 9.4757,2.0321 13.9149,4.8944 5.4054,3.7162 9.7915,9.7055 13.9841,15.934 5.2441,8.0311 9.8502,16.9303 14.3289,25.9439 5.3401,10.6792 10.00516,22.068 14.51586,33.5784 4.3703,11.7709 9.2082,23.0756 14.6872,33.7196 4.8576,9.3921 10.7617,17.1978 17.1373,24.101 5.633,6.0597 11.9256,10.0223 18.6159,12.3703 6.5327,2.1102 13.0266,0.902 19.3877,-1.734 7.1404,-3.3568 13.1922,-9.9435 18.9645,-16.9339 6.8639,-8.8099 13.3636,-18.2484 19.8758,-27.6459 7.2992,-10.359 14.3346,-21.1215 21.1267,-32.2441 6.6503,-10.904 12.8487,-22.4078 19.0333,-33.9175 5.1538,-9.8576 10.3167,-19.7029 15.6012,-29.3996 4.1266,-7.6503 8.6018,-14.8239 13.5291,-21.2866 4.2218,-5.5125 9.024,-9.7097 14.0927,-13.1217 5.09,-3.2172 9.4133,-3.8846 14.8182,-2.6108 5.4043,1.6444 10.0652,5.9749 14.4169,10.9137 5.5501,6.7425 9.7563,15.4935 13.7858,24.2786 5.1024,11.4685 9.5648,23.5458 13.872,35.7303 3.96485,11.3765 7.52975,23.0569 11.12335,34.7098 2.7832,9.4756 5.8268,18.7536 9.2925,27.6948 3.0371,7.9417 7.0496,14.7673 11.4175,21.051 3.5605,4.6882 7.5951,8.7402 12.1958,10.6114 0.9545,0.3882 1.9364,0.5996 2.9047,0.8994 6.9233,1.4079 13.7151,-0.9714 20.3019,-3.9953 7.6417,-3.7735 14.6725,-9.7013 21.4733,-16.098 7.7194,-7.389 14.4409,-16.7182 20.7975,-26.582 6.8995,-11.0429 12.929,-23.2278 18.9902,-35.3242 5.5845,-11.4068 11.3353,-22.6203 17.2304,-33.6598 4.6995,-8.6661 9.5872,-17.0959 14.6417,-25.2874 3.4973,-5.6537 7.1834,-11.0221 11.3244,-15.575 3.1322,-3.3381 6.6215,-5.3169 10.4,-5.9984 3.9994,-0.3285 6.5858,2.0964 9.3739,6.1589 3.776,6.4146 6.0309,14.4385 8.1848,22.2927 2.9651,11.7328 5.1055,23.8944 7.3628,35.971 2.4039,13.2096 5.2531,26.2076 8.2545,39.1266 2.7883,11.9788 5.9756,23.7285 9.4267,35.2987 2.5412,8.6273 5.573,16.8908 9.1209,24.6512 2.0416,4.0379 4.1469,8.7012 7.3613,10.7579 0.526,0.3365 1.0922,0.5052 1.6381,0.7578 4.9238,1.1712 8.947,-3.3558 12.6495,-7.6571 5.5109,-7.0467 10.3144,-15.2456 15.203,-23.2517 5.186,-8.5869 10.1811,-17.43 15.1667,-26.2839 4.6765,-8.2934 9.334,-16.6106 13.9681,-24.959 3.701,-6.6878 7.2661,-13.5441 10.8768,-20.3435 3.1124,-5.7256 6.1607,-11.5315 9.3111,-17.2094 2.2431,-4.1176 4.4919,-8.2287 6.9467,-12.0612 1.9096,-2.9846 4.1027,-5.1614 6.7588,-6.1829 3.4127,-0.6512 5.2127,3.1249 6.809,7.0942 2.6325,7.5385 4.3882,15.697 6.2596,23.7191 2.2499,9.9404 4.4724,19.895 6.7642,29.8133 2.2564,9.9186 4.4757,19.855 6.9114,29.6763 2.1848,9.0801 5.031,17.714 8.4268,25.8767 2.7074,6.3258 6.0914,11.6654 10.2927,15.6702 4.419,3.6516 8.136,3.5767 12.9077,1.8636 6.1513,-2.8022 11.0796,-9.0602 15.7683,-15.4579 5.7832,-8.4504 10.9479,-17.8089 16.0749,-27.1661 5.0366,-9.2427 10.0707,-18.4887 15.1279,-27.7055 3.4996,-6.3844 6.9347,-12.8456 10.7283,-18.836 2.6436,-4.1131 5.5449,-7.6945 9.1665,-9.5028 3.6534,-0.8587 5.775,3.2542 7.725,7.2799 2.43,5.7178 4.8128,11.4755 7.3567,17.08 2.4041,5.3399 5.1591,10.2573 8.1413,14.8642 2.1481,3.3135 4.5191,6.2272 7.2886,8.232 2.4434,1.6812 4.7898,1.0725 7.2233,-0.2195 2.6984,-1.798 5.093,-4.4463 7.4201,-7.1549 1.9913,-2.3108 3.7736,-4.9972 5.491,-7.7592 1.4161,-2.2882 2.7133,-4.7373 4.0173,-7.172 0.5129,-1.0278 1.0993,-1.9545 1.6945,-2.8703 0,0 0.6346,0.9525 0.6346,0.9525 l 0,0 c -0.5758,0.8833 -1.1419,1.7791 -1.6369,2.7726 -1.3179,2.4607 -2.6293,4.9353 -4.0608,7.2476 -1.7506,2.8138 -3.5674,5.5503 -5.597,7.9044 -2.4028,2.7949 -4.877,5.5248 -7.6696,7.359 -2.6598,1.3974 -5.2418,2 -7.9017,0.1619 -2.8586,-2.0874 -5.322,-5.0686 -7.5395,-8.5044 -3.0177,-4.6639 -5.8067,-9.6402 -8.2398,-15.0451 -2.5387,-5.5935 -4.9193,-11.3372 -7.3412,-17.0468 -1.6968,-3.5158 -3.5191,-7.4144 -6.7293,-6.7937 -3.4873,1.7068 -6.2544,5.2252 -8.8001,9.1537 -3.7794,5.9664 -7.1989,12.406 -10.6857,18.7643 -5.0571,9.2166 -10.091,18.4623 -15.1278,27.7047 -5.1544,9.4074 -10.3475,18.8156 -16.1642,27.3075 -4.8024,6.5484 -9.8563,12.9274 -16.1608,15.7689 -5.1326,1.8187 -8.8343,1.8375 -13.5867,-2.0359 -4.3082,-4.1267 -7.7955,-9.589 -10.5717,-16.0934 -3.4264,-8.2419 -6.3024,-16.9557 -8.5078,-26.1227 -2.4378,-9.831 -4.6597,-19.7768 -6.9179,-29.7052 -2.2917,-9.9171 -4.5142,-19.8702 -6.7636,-29.8095 -1.8509,-7.9347 -3.587,-16.0038 -6.1807,-23.4674 -1.3701,-3.4352 -2.8545,-6.9625 -5.831,-6.4836 -2.4987,0.9292 -4.54,3.0265 -6.3351,5.813 -2.4409,3.8083 -4.6736,7.8981 -6.904,11.9896 -3.1462,5.6701 -6.1904,11.4689 -9.2987,17.1867 -3.6148,6.8071 -7.184,13.671 -10.8891,20.3663 -4.6355,8.3508 -9.2944,16.6704 -13.9725,24.9662 -4.9933,8.8678 -9.9962,17.7245 -15.1903,26.3247 -4.9229,8.0625 -9.7611,16.3187 -15.3155,23.4071 -3.9488,4.5761 -8.2212,9.2316 -13.4558,7.8744 -0.6011,-0.2882 -1.2243,-0.4862 -1.8037,-0.8646 -3.3329,-2.1773 -5.546,-6.9476 -7.6644,-11.1726 -3.5769,-7.8295 -6.6381,-16.1616 -9.2004,-24.8647 -3.4614,-11.6058 -6.6586,-23.3912 -9.4553,-35.407 -3.0078,-12.9457 -5.8625,-25.9706 -8.2716,-39.2073 -2.2477,-12.0254 -4.3785,-24.1355 -7.3282,-35.8203 -2.1058,-7.6836 -4.3041,-15.5416 -7.98,-21.8375 -2.5762,-3.7841 -4.9343,-6.0731 -8.6509,-5.789 -3.628,0.6381 -6.9731,2.5543 -9.9812,5.7503 -4.0968,4.4978 -7.736,9.8169 -11.1961,15.4039 -5.0403,8.1675 -9.9136,16.5734 -14.5999,25.2142 -5.8893,11.0287 -11.6343,22.2312 -17.2134,33.6269 -6.0834,12.141 -12.1361,24.3698 -19.0624,35.4515 -6.4079,9.9405 -13.1841,19.3407 -20.9655,26.7861 -6.8674,6.4573 -13.968,12.4382 -21.6851,16.2431 -6.7297,3.085 -13.6682,5.4927 -20.7391,4.0257 -1.0037,-0.3144 -2.0215,-0.5373 -3.0105,-0.943 -4.7229,-1.9366 -8.869,-6.0899 -12.5245,-10.9117 -4.4271,-6.3729 -8.4936,-13.2954 -11.5727,-21.3472 -3.479,-8.9785 -6.5375,-18.2928 -9.3316,-27.8076 -3.5865,-11.6303 -7.1443,-23.2885 -11.10135,-34.6433 -4.2909,-12.1388 -8.7358,-24.1708 -13.8182,-35.5969 -3.9741,-8.667 -8.1183,-17.3075 -13.588,-23.968 -4.2323,-4.8109 -8.7638,-9.0427 -14.0203,-10.66 -5.1377,-1.23 -9.4845,-0.5846 -14.319,2.511 -4.9898,3.3538 -9.7153,7.485 -13.8711,12.9084 -4.891,6.4109 -9.3291,13.5344 -13.4246,21.1249 -5.2835,9.6943 -10.4448,19.5373 -15.5974,29.3923 -6.1964,11.5319 -12.4073,23.0574 -19.0702,33.9822 -6.8053,11.1433 -13.8537,21.9265 -21.1663,32.3049 -6.5312,9.4246 -13.0496,18.8903 -19.9344,27.7232 -5.8687,7.1034 -12.0254,13.7828 -19.2861,17.1818 -6.5878,2.7194 -13.0572,3.9006 -19.8235,1.7467 -6.8028,-2.3975 -13.2049,-6.4203 -18.9329,-12.5872 -6.4437,-6.9817 -12.412,-14.8738 -17.3221,-24.3698 -5.501,-10.6903 -10.3627,-22.0397 -14.7509,-33.861 -4.4938,-11.468 -9.14126,-22.8153 -14.46126,-33.4551 -4.4518,-8.9599 -9.0292,-17.807 -14.2408,-25.7917 -4.1124,-6.1117 -8.4085,-12.001 -13.7093,-15.6554 -4.321,-2.7935 -8.801,-4.8166 -13.5465,-4.7868 -4.5438,0.1445 -8.9757,1.3305 -13.2232,3.8726 -4.3249,2.519 -8.5335,5.4877 -12.2839,9.6759 -4.6868,5.1856 -9.0792,10.9286 -13.3845,16.8234 -5.8529,8.1136 -11.5583,16.4686 -17.3958,24.608 -6.3012,8.7892 -12.6252,17.541 -18.8747,26.4153 -7.1202,9.9971 -14.20799,20.0695 -21.70339,29.4224 -7.4651,9.0163 -15.1773,17.7639 -24.0924,23.2292 -6.8505,3.918 -13.9476,6.9504 -21.3513,5.8373 -6.4601,-1.3241 -11.9275,-3.9849 -17.1638,-10.1146 -5.1878,-6.4153 -9.6026,-13.9954 -13.5522,-22.1919 -4.1897,-8.4082 -8.471,-16.7096 -12.6354,-25.1471 -4.1276,-8.5631 -8.0594,-17.3269 -11.8775,-26.2152 -3.9004,-8.9336 -7.6716,-18.004 -11.7989,-26.703 -3.5371,-7.1962 -7.2134,-14.3602 -11.7424,-20.1957 -3.7214,-4.2409 -7.7763,-7.4985 -12.3817,-8.9096 -4.5559,-1.3916 -9.171,-1.9985 -13.7999,-0.9678 -5.5182,1.3644 -10.8381,3.8103 -15.9051,7.4462 -6.1691,4.1025 -12.25589,8.487 -18.46459,12.4513 -6.1226,3.8607 -12.2425,7.7435 -18.2211,12.1009 -6.396,4.6626 -12.6915,9.615 -18.8962,14.8424 -5.9254,4.9064 -11.8216,9.8941 -17.763,14.7559 -4.9963,4.098 -9.9997,8.2214 -15.2063,11.6754 -3.5205,2.121 -7.1323,4.0888 -10.9577,4.324 -1.7603,-0.049 -3.5251,-0.3132 -5.1269,-1.5179 0,0 0.3517,-1.2454 0.3517,-1.2454 z" />
    <path
       style="color:#000000;clip-rule:nonzero;display:inline;overflow:visible;visibility:visible;opacity:0.781;isolation:auto;mix-blend-mode:normal;color-interpolation:sRGB;color-interpolation-filters:linearRGB;solid-color:#000000;solid-opacity:1;fill:#b3b3b3;fill-opacity:1;fill-rule:nonzero;stroke:#b3b3b3;stroke-width:1.37952626;stroke-linecap:butt;stroke-linejoin:miter;stroke-miterlimit:4;stroke-dasharray:none;stroke-dashoffset:0;stroke-opacity:1;color-rendering:auto;image-rendering:auto;shape-rendering:auto;text-rendering:auto;enable-background:accumulate"
       id="path4214-0-3"
       d="m 294.33874,8949.4141 c 5.2638,-0.2723 10.5344,-0.4672 15.8085,-0.6305 8.2688,-0.24 16.5438,-0.3659 24.8184,-0.4825 8.8537,-0.1212 17.7085,-0.2019 26.5632,-0.2743 8.5157,-0.069 17.0317,-0.1148 25.5479,-0.154 8.8398,-0.1775 17.6724,-0.4796 26.5089,-0.7172 9.0107,-0.2153 18.0202,-0.3828 27.0238,-0.706 10.6802,-0.318 21.3467,-0.7595 32.0124,-1.2389 10.3871,-0.5846 20.8086,-0.6928 31.2267,-0.7735 10.6851,-0.038 21.3655,-0.069 32.0456,-0.292 10.9791,-0.2934 21.9721,-0.207 32.9576,-0.1754 11.9975,0.041 23.9949,0.07 35.9927,0.095 13.8199,-0.071 27.6329,0.2214 41.4457,0.4697 14.6667,0.3 29.3337,0.473 44.0071,0.4266 14.1718,-0.151 28.339,-0.1668 42.5101,-8e-4 10.509,0.1451 20.9645,0.8751 31.4307,1.4533 10.7667,0.7674 21.5632,1.3286 32.3427,2.0053 11.5447,0.8101 23.0144,1.9974 34.4969,3.1109 13.7755,1.3051 27.5884,2.4233 41.4037,3.5289 15.2744,1.2323 30.5749,2.3058 45.8709,3.4117 16.6926,1.3586 33.4914,1.908 50.2834,2.3976 18.1364,0.5251 36.28956,0.7185 54.42996,1.1586 16.3304,0.3541 32.6148,1.3047 48.8828,2.2696 17.7826,1.1152 35.6092,1.868 53.4418,2.5298 17.8709,0.6111 35.7253,1.4048 53.5946,2.0362 18.4999,0.7385 37.0338,0.8488 55.5609,0.9652 20.0457,0.18 40.0921,-0.1031 60.1178,-0.6786 17.027,-0.3589 33.9568,-1.6022 50.8485,-2.9843 17.43,-1.582 34.8256,-3.3199 52.2644,-4.8617 15.4176,-1.3253 30.8661,-2.477 46.2791,-3.8251 13.4145,-1.2594 26.7239,-2.9498 40.0744,-4.4665 13.0718,-1.3564 26.1136,-2.8334 39.1811,-4.2074 10.8826,-1.0855 21.7341,-2.3031 32.5497,-3.6472 9.6528,-1.1475 19.2527,-2.4693 28.8598,-3.7693 7.5762,-1.0915 15.0956,-2.3429 22.6569,-3.4761 6.7706,-1.1084 13.5669,-2.1461 20.3667,-3.1744 4.2905,-0.6474 8.5822,-1.2915 12.8737,-1.9356 2.7495,-0.392 5.5118,-0.7435 8.2734,-1.0967 1.6059,-0.205 3.2122,-0.409 4.8186,-0.6129 4.8596,0.1708 -0.3484,3.5414 -1.7843,4.3822 -4.6231,2.504 -9.2651,4.9971 -13.9577,7.4453 -4.667,2.2701 -9.2207,4.6384 -13.7806,7 -2.7363,1.4187 -5.4698,2.8398 -8.2033,4.2608 -1.9364,1.0972 -3.8318,1.8471 -6.1023,0.7905 -1.498,-2.2088 -0.8162,-4.7895 -0.5977,-7.1358 0.1035,-3.0754 -0.038,-6.1517 -0.1464,-9.2262 -0.077,-2.148 -0.1624,-4.296 -0.2353,-6.4441 -0.1832,-1.3635 -0.6305,-2.7032 -1.0673,-4.0391 -0.2641,-0.7981 -0.5355,-1.5952 -0.8069,-2.3922 -0.2376,-1.6597 2.0261,-1.9905 4.0291,-2.1116 4.1118,-0.142 8.2173,0.2877 12.2548,0.7537 4.718,0.5781 9.3478,1.4376 13.8784,2.4719 3.3649,0.7334 6.5859,1.7033 9.7924,2.6888 2.0066,0.6213 4.0067,1.2516 6.0069,1.8818 0.7608,0.1903 1.4413,0.5443 2.2446,0.6514 0,0 -0.6992,1.6767 -0.6992,1.6767 l 0,0 c -0.9416,-0.1879 -1.8072,-0.4707 -2.6875,-0.7602 -1.9927,-0.6277 -3.9853,-1.2557 -5.9842,-1.8746 -3.1245,-0.9604 -6.2612,-1.9079 -9.5406,-2.6216 -4.3968,-1.0051 -8.8905,-1.8392 -13.4692,-2.4019 -3.8102,-0.4423 -7.6865,-0.8535 -11.5676,-0.734 -0.4706,0.025 -1.4638,0.1 -1.6782,-3e-4 0.2732,0.8019 0.5463,1.6037 0.8118,2.4067 0.4718,1.443 0.953,2.8911 1.1257,4.3658 0.074,2.1476 0.1576,4.295 0.2353,6.4426 0.1104,3.1233 0.2555,6.2486 0.1421,9.3727 -0.1789,1.9199 -0.4309,3.8885 -0.1811,5.7939 0.1456,0.06 1.8195,-0.3015 2.6029,-0.9188 2.7348,-1.4217 5.4696,-2.8434 8.2073,-4.2628 4.5574,-2.3603 9.1083,-4.7277 13.7731,-6.9962 4.6553,-2.4282 9.2589,-4.9026 13.8473,-7.3845 0.1296,-0.075 2.7614,-1.9414 2.896,-1.9387 0.1011,0 1.3037,0.892 1.1428,0.5648 -1.6051,0.2038 -3.2102,0.4076 -4.8152,0.6125 -2.7334,0.3497 -5.4679,0.6976 -8.1897,1.0852 -4.2902,0.6438 -8.5805,1.2876 -12.8694,1.9349 -6.8015,1.0286 -13.5993,2.0668 -20.3718,3.1751 -7.5796,1.1357 -15.1167,2.391 -22.7114,3.4839 -9.6213,1.3019 -19.235,2.6255 -28.9018,3.7747 -10.8401,1.3469 -21.716,2.5679 -32.6232,3.6557 -13.0567,1.3728 -26.0876,2.8487 -39.1485,4.2039 -13.3843,1.5204 -26.7273,3.2153 -40.176,4.4766 -15.4116,1.348 -30.8588,2.4998 -46.2753,3.8248 -17.4473,1.5425 -34.8514,3.2818 -52.2903,4.8639 -16.9616,1.3877 -33.9618,2.6351 -51.0594,2.996 -20.0727,0.5764 -40.1659,0.8606 -60.2586,0.6801 -18.5658,-0.1166 -37.1386,-0.2277 -55.6774,-0.9676 -17.8716,-0.6315 -35.7284,-1.4252 -53.6015,-2.0365 -17.8624,-0.6629 -35.7185,-1.4171 -53.5304,-2.534 -16.2216,-0.9624 -32.4593,-1.9106 -48.7429,-2.2638 -18.147,-0.4405 -36.30666,-0.6334 -54.44956,-1.1591 -16.8492,-0.4913 -33.7055,-1.0436 -50.4551,-2.4063 -15.3063,-1.1067 -30.6169,-2.181 -45.9015,-3.414 -13.8373,-1.1074 -27.6723,-2.2276 -41.47,-3.5348 -11.4378,-1.1093 -22.8628,-2.2922 -34.3624,-3.1002 -10.7696,-0.6763 -21.5561,-1.2363 -32.3129,-2.0035 -10.4081,-0.5751 -20.8054,-1.3018 -31.2561,-1.4475 -14.1513,-0.1647 -28.2987,-0.1485 -42.4505,0 -14.7017,0.046 -29.3971,-0.1267 -44.0922,-0.4273 -13.7914,-0.2479 -27.583,-0.5403 -41.3818,-0.469 -11.9987,-0.025 -23.9973,-0.054 -35.996,-0.095 -10.9535,-0.032 -21.9146,-0.1181 -32.8618,0.1746 -10.6978,0.2236 -21.396,0.255 -32.0986,0.2926 -10.3683,0.08 -20.7399,0.1871 -31.0778,0.7696 -10.6775,0.4799 -21.3561,0.9219 -32.0483,1.2404 -9.0156,0.3235 -18.0371,0.4918 -27.0601,0.7071 -8.8661,0.2384 -17.7285,0.5421 -26.5983,0.7186 -8.5113,0.039 -17.0224,0.085 -25.5334,0.154 -8.8469,0.072 -17.6937,0.1529 -26.5394,0.274 -8.2521,0.1163 -16.5046,0.2418 -24.7508,0.481 -5.3156,0.1645 -10.6268,0.3665 -15.9328,0.6324 0,0 0,-1.7386 0,-1.7386 z" />
    <path
       style="color:#000000;clip-rule:nonzero;display:inline;overflow:visible;visibility:visible;opacity:0.781;isolation:auto;mix-blend-mode:normal;color-interpolation:sRGB;color-interpolation-filters:linearRGB;solid-color:#000000;solid-opacity:1;fill:#b3b3b3;fill-opacity:1;fill-rule:nonzero;stroke:#b3b3b3;stroke-width:1.20252073;stroke-linecap:butt;stroke-linejoin:miter;stroke-miterlimit:4;stroke-dasharray:none;stroke-dashoffset:0;stroke-opacity:1;color-rendering:auto;image-rendering:auto;shape-rendering:auto;text-rendering:auto;enable-background:accumulate"
       id="path4220-1-7"
       d="m 326.73164,8980.9891 c -1.0633,-4.4212 -1.3617,-9.1477 -1.5112,-13.8502 -0.03,-10.419 0.9365,-7.8426 1.7024,-18.1619 1.222,-15.6094 2.0084,-31.2788 2.3443,-47.003 0.2314,-18.4603 -0.4937,-36.9044 -1.1444,-55.3239 -0.9042,-20.7954 -1.6776,-41.6031 -2.3143,-62.4248 -0.5796,-21.0518 -1.2685,-42.0951 -2.0477,-63.1295 -0.8108,-20.1584 -1.3644,-40.3348 -1.6612,-60.5297 -0.2723,-19.1787 -0.152,-38.3651 -0.07,-57.5464 0.056,-12.286 0.1207,-24.5719 0.1847,-36.8578 0.039,-6.9568 0.074,-13.9136 0.1113,-20.8704 0.029,-3.9081 0.042,-7.8163 0.062,-11.7244 0,-2.1946 0.03,-4.3893 0.035,-6.5839 0.1345,-1.7491 -0.6398,-2.6693 0.6528,-1.2416 -1.5845,3.9931 -3.0596,8.0989 -4.618,12.1195 -2.816,7.3647 -5.55,14.8113 -8.2477,22.2929 -1.8509,5.1463 -3.6923,10.3012 -5.5338,15.456 -0.8458,2.2323 -1.4648,4.6376 -1.8383,7.1846 -0.056,0.7263 0.03,1.4344 0.13,2.1346 0.062,0.3747 0.1288,0.7459 0.1961,1.1172 -0.031,-0.094 0.074,0.3342 0.047,0.2564 -0.3824,-1.1103 0.7122,-0.4276 1.1963,-0.3754 3.651,0.2148 7.301,-0.3868 10.9405,-0.79 5.3677,-0.772 10.7357,-1.5415 16.1062,-2.2501 3.868,-0.5032 7.7365,-0.9902 11.6052,-1.4776 2.1923,-0.2839 4.386,-0.5386 6.5778,-0.835 0.7122,0.101 1.6668,-0.489 2.0433,-0.9094 -0.1962,-1.7078 -0.829,-3.227 -1.4442,-4.6679 -1.8211,-3.8526 -3.8252,-7.4626 -5.7503,-11.1761 -2.1756,-4.1018 -4.3828,-8.1575 -6.5578,-12.2604 -1.5048,-2.9173 -3.1076,-5.6976 -4.5809,-8.6579 -1.1199,-2.3248 -2.2768,-4.6072 -3.4928,-6.8009 -1.1994,-2.1802 -2.3768,-4.389 -3.5302,-6.6357 -0.753,-1.4721 -1.5026,-2.9492 -2.2519,-4.4262 -0.2314,-0.5425 -0.5307,-0.9825 -0.7978,-1.4706 l 1.1107,-1.5526 0,0 c 0.2871,0.4714 0.5613,0.9665 0.812,1.4973 0.7473,1.4735 1.495,2.9471 2.2463,4.4157 1.1413,2.224 2.307,4.4112 3.4946,6.5686 1.2315,2.2274 2.408,4.538 3.5433,6.8971 1.461,2.9434 3.0585,5.6987 4.5509,8.5999 2.1787,4.1096 4.3898,8.1717 6.5683,12.2804 1.9556,3.7723 3.9941,7.437 5.8368,11.3601 0.9027,2.1427 1.9022,4.4398 1.528,7.1678 -0.7501,1.741 -1.9585,2.0239 -3.2082,2.1525 -2.1943,0.2966 -4.3908,0.5519 -6.5858,0.836 -3.8664,0.4872 -7.7336,0.974 -11.5995,1.4769 -5.3772,0.7094 -10.7513,1.4804 -16.1252,2.2524 -3.705,0.4104 -7.421,1.0215 -11.1371,0.7901 -0.8267,-0.093 -2.2162,0.074 -2.5451,-1.5767 -0.074,-0.4054 -0.1485,-0.8107 -0.2137,-1.22 -0.1644,-1.0781 -0.2519,-2.1708 -0.1313,-3.2802 0.4103,-2.7721 1.0782,-5.3975 1.9971,-7.8305 1.8427,-5.1575 3.6852,-10.3152 5.5368,-15.4642 2.7061,-7.5037 5.4477,-14.9723 8.2722,-22.3586 1.6109,-4.154 3.1107,-8.4282 4.7996,-12.4975 2.2071,-0.5904 1.8185,-0.2337 1.8614,2.9199 0,2.1946 -0.029,4.3893 -0.035,6.5839 -0.03,3.9082 -0.04,7.8163 -0.062,11.7244 -0.039,6.9568 -0.074,13.9135 -0.1113,20.8703 -0.064,12.2846 -0.1287,24.5692 -0.1845,36.854 -0.082,19.1565 -0.202,38.3182 0.07,57.472 0.2964,20.1659 0.8492,40.3133 1.6588,60.4426 0.78,21.0429 1.4691,42.0946 2.0491,63.1548 0.636,20.8155 1.4094,41.617 2.3133,62.4063 0.6532,18.4931 1.3826,37.0111 1.146,55.5452 -0.3381,15.7924 -1.1267,31.5302 -2.3543,47.2073 -0.7555,10.1838 -1.7076,7.4706 -1.6933,17.7521 0.1346,4.4213 0.407,8.8669 1.3948,13.0309 l -1.3436,0.9413 z" />
    <g
       style="font-style:normal;font-weight:normal;font-size:53.72769165px;line-height:125%;font-family:sans-serif;letter-spacing:0px;word-spacing:0px;fill:#4d4d4d;fill-opacity:1;stroke:none;stroke-width:1px;stroke-linecap:butt;stroke-linejoin:miter;stroke-opacity:1"
       id="flowRoot4242-0-8">
      <path
         d="m 914.21484,8981.5503 q 0,-1.1805 0.78703,-2.02 0.81326,-0.8395 1.94133,-0.8395 l 22.03675,0 q 1.12807,0 1.94133,0.8395 0.81327,0.8395 0.81327,2.02 0,1.233 -0.81327,2.0725 -0.81326,0.8133 -1.94133,0.8133 l -8.60482,0 0,27.9919 q 0,1.1805 -0.81326,2.02 -0.78703,0.8395 -1.9151,0.8395 -1.12807,0 -1.94134,-0.8133 -0.78702,-0.8394 -0.78702,-2.0462 l 0,-27.9919 -7.97521,0 q -1.12807,0 -1.94133,-0.8133 -0.78703,-0.8395 -0.78703,-2.0725 z"
         style="font-style:normal;font-variant:normal;font-weight:bold;font-stretch:normal;font-family:'Comic Neue';-inkscape-font-specification:'Comic Neue Bold';fill:#4d4d4d"
         id="path4132" />
      <path
         d="m 945.19746,9012.5067 0,-21.171 q 0,-1.233 0.86573,-2.0725 0.86573,-0.8395 2.09874,-0.8395 1.23301,0 2.0725,0.8395 0.86573,0.8132 0.86573,2.0725 l -0.10493,21.171 q 0,1.233 -0.8395,2.0725 -0.81326,0.8132 -2.04627,0.8132 -1.23301,0 -2.0725,-0.8132 -0.8395,-0.8395 -0.8395,-2.0725 z m 0.20988,-29.7234 0.10493,-1.8364 q 0,-1.1805 0.8395,-1.9938 0.83949,-0.8395 2.02003,-0.8395 1.18054,0 1.99381,0.8395 0.83949,0.8133 0.83949,1.9938 l -0.10494,1.8364 q 0,1.1805 -0.83949,2.02 -0.81326,0.8395 -1.9938,0.8395 -1.18054,0 -2.02004,-0.8395 -0.83949,-0.8395 -0.83949,-2.02 z"
         style="font-style:normal;font-variant:normal;font-weight:bold;font-stretch:normal;font-family:'Comic Neue';-inkscape-font-specification:'Comic Neue Bold';fill:#4d4d4d"
         id="path4134" />
      <path
         d="m 958.20964,9012.428 0,-21.276 q 0,-1.1805 0.83949,-1.9938 0.8395,-0.8395 2.02004,-0.8395 1.18054,0 1.9938,0.8395 0.83949,0.8133 0.83949,1.9938 l 0,0.8658 q 0.41975,-0.4723 0.86573,-0.8658 0.47222,-0.4197 0.9182,-0.8395 2.96447,-2.5709 5.7453,-2.5972 2.67589,0 4.45981,1.3118 1.33795,0.9181 2.20368,2.5184 1.18054,-1.2854 2.62342,-2.1512 2.67589,-1.6527 5.01074,-1.679 3.38421,0 5.43048,2.1512 2.57096,2.571 2.57096,8.1327 l 0,14.4288 q 0,1.1805 -0.8395,2.02 -0.83949,0.8395 -2.02003,0.8395 -1.18054,0 -2.02004,-0.8133 -0.81326,-0.8394 -0.81326,-2.0462 l 0,-14.7699 q 0,-0.8657 -0.18364,-2.1512 -0.1574,-1.2855 -0.73456,-1.9676 -0.47221,-0.4722 -1.39041,-0.4984 -0.65586,0 -1.75769,0.4984 -1.10184,0.4723 -2.12498,1.3905 -0.86573,0.7607 -1.65275,2.02 -0.76079,1.2592 -0.76079,3.1219 l 0,12.3563 q 0,1.1805 -0.8395,2.02 -0.81326,0.8395 -1.9938,0.8395 -1.18054,0 -2.02004,-0.8133 -0.83949,-0.8394 -0.83949,-2.0462 l 0,-14.7699 q 0,-0.8657 -0.15741,-2.1512 -0.1574,-1.2855 -0.76079,-1.9676 -0.47222,-0.4722 -1.39041,-0.4984 -0.9182,0 -2.93824,1.5216 -1.9938,1.4953 -4.19747,5.1419 -0.20988,0.3148 -0.31481,0.7345 -0.0787,0.3936 -0.0787,0.551 l 0,11.4381 q 0,1.1805 -0.83949,2.02 -0.81326,0.8395 -1.9938,0.8395 -1.18054,0 -2.02004,-0.8133 -0.83949,-0.8394 -0.83949,-2.0462 z"
         style="font-style:normal;font-variant:normal;font-weight:bold;font-stretch:normal;font-family:'Comic Neue';-inkscape-font-specification:'Comic Neue Bold';fill:#4d4d4d"
         id="path4136" />
      <path
         d="m 999.89582,9001.9081 q 0,-2.6235 0.94448,-4.9845 0.9444,-2.3874 2.5709,-4.1713 1.6528,-1.8102 3.8564,-2.912 2.2037,-1.1018 4.7222,-1.2592 0.4722,-0.052 0.9444,-0.052 2.571,0 4.696,1.233 2.5184,1.4429 4.04,3.8827 0.2624,0.4197 0.446,0.8657 0.1837,0.4198 0.4198,0.787 0.2623,0.4985 0.2623,1.1019 0,0.341 -0.079,0.7608 -0.2361,1.1018 -1.3642,1.679 -0.9706,0.5246 -2.7283,1.5215 -1.7315,0.9707 -3.7778,2.0988 -2.0462,1.128 -4.145,2.3086 -2.0987,1.1805 -3.7515,2.0725 0.8658,1.0756 1.9676,1.8364 1.7315,1.1805 3.9351,1.1805 3.0694,0 5.3256,-2.3611 l 1.0756,-1.128 q 0.7608,-0.7608 1.8626,-0.7608 1.1281,0 1.9413,0.8132 0.8133,0.8133 0.8133,1.8889 0,0.9707 -0.6559,1.7577 l -1.0756,1.1281 q -1.8363,1.9938 -4.2499,3.0694 -2.3611,1.0231 -5.037,1.0231 -2.6759,0 -5.0632,-1.0494 -2.3611,-1.0493 -4.1187,-2.8333 -1.7315,-1.8101 -2.7546,-4.2499 -1.02318,-2.4398 -1.02318,-5.2468 z m 5.43048,-0.3673 q 1.1281,-0.6559 2.6234,-1.4691 1.5216,-0.8395 3.017,-1.679 1.5216,-0.8395 2.8857,-1.6003 1.3642,-0.787 2.3349,-1.338 -1.3904,-1.3904 -3.2268,-1.4953 -1.8364,0.052 -3.2006,0.7345 -1.3642,0.6559 -2.3349,1.7315 -1.9413,2.2037 -2.0987,5.1157 z"
         style="font-style:normal;font-variant:normal;font-weight:bold;font-stretch:normal;font-family:'Comic Neue';-inkscape-font-specification:'Comic Neue Bold';fill:#4d4d4d"
         id="path4138" />
    </g>
    <g
       transform="matrix(0,-1.3431923,1.3431923,0,-249.58519,10885.028)"
       style="font-style:normal;font-weight:normal;font-size:40px;line-height:125%;font-family:sans-serif;letter-spacing:0px;word-spacing:0px;fill:#4d4d4d;fill-opacity:1;stroke:none;stroke-width:1px;stroke-linecap:butt;stroke-linejoin:miter;stroke-opacity:1"
       id="flowRoot4242-3-7-4">
      <path
         d="m 1572.1797,409.69422 q 0,-0.87891 0.5859,-1.48438 0.6055,-0.60546 1.4453,-0.60546 l 2.4805,0 0,-19.04297 -2.4805,0 q -0.8398,0 -1.4453,-0.58594 -0.5859,-0.60547 -0.5859,-1.44531 0,-0.87891 0.5859,-1.48438 0.6055,-0.60547 1.4453,-0.60547 l 9.043,0 q 0.8399,0 1.4453,0.60547 0.6055,0.60547 0.6055,1.48438 0,0.83984 -0.6055,1.44531 -0.6054,0.58594 -1.4453,0.58594 l -2.4414,0 0,19.04297 2.4414,0 q 0.8399,0 1.4453,0.60546 0.6055,0.58594 0.6055,1.48438 0,0.83984 -0.6055,1.44531 -0.6054,0.58594 -1.4453,0.58594 l -9.043,0 q -0.8398,0 -1.4453,-0.58594 -0.5859,-0.60547 -0.5859,-1.44531 z"
         style="font-style:normal;font-variant:normal;font-weight:bold;font-stretch:normal;font-family:'Comic Neue';-inkscape-font-specification:'Comic Neue Bold';fill:#4d4d4d"
         id="path4154" />
      <path
         d="m 1589.6992,397.95594 q 0.1953,-2.67578 1.2305,-5.11719 1.0547,-2.44141 2.8125,-4.35547 1.7187,-1.83594 3.9258,-2.87109 2.207,-1.07422 4.6484,-1.09375 2.0313,0 3.8672,0.76172 1.8359,0.76172 3.3203,2.20703 2.0313,1.99219 3.0078,4.78515 0.8008,2.34375 0.8008,4.92188 0,0.52734 -0.039,1.05469 -0.2343,2.79297 -1.3281,5.3125 -0.8789,1.83593 -2.0312,3.32031 l 2.5195,1.71875 q 0.6836,0.52734 0.8789,1.36719 0.039,0.21484 0.039,0.41015 0,0.60547 -0.3321,1.19141 -0.6445,0.95703 -1.7187,0.95703 -0.5664,0 -1.1133,-0.35156 l -3.4375,-2.36328 q -2.832,1.875 -6.0742,1.875 -2.0313,0 -3.8867,-0.76172 -1.836,-0.76172 -3.3203,-2.20703 -2.0313,-1.99219 -2.9883,-4.80469 -0.8203,-2.32422 -0.8203,-4.90234 0,-0.52735 0.039,-1.05469 z m 4.2578,0.29297 q -0.039,0.42968 -0.039,0.83984 0,1.77734 0.5468,3.41797 0.6836,2.01172 2.0118,3.30078 1.7968,1.71875 4.1992,1.71875 1.1523,0 2.1875,-0.41016 l -1.2305,-0.83984 q -0.6836,-0.44922 -0.8789,-1.34766 -0.039,-0.21484 -0.039,-0.42968 0,-0.58594 0.3125,-1.17188 0.6446,-0.95703 1.7188,-0.95703 0.6445,0 1.1133,0.35156 l 2.5781,1.75782 q 1.1133,-1.32813 1.7578,-2.98829 0.6641,-1.67968 0.8399,-3.53515 0.019,-0.29297 0.019,-0.58594 0,-1.83594 -0.625,-3.57422 -0.8008,-2.1289 -2.168,-3.39844 -1.8359,-1.71875 -4.2383,-1.71875 -1.4843,0 -2.8515,0.70313 -1.3477,0.70312 -2.5,1.99219 -1.1524,1.36718 -1.8555,3.125 -0.7031,1.73828 -0.8594,3.75 z"
         style="font-style:normal;font-variant:normal;font-weight:bold;font-stretch:normal;font-family:'Comic Neue';-inkscape-font-specification:'Comic Neue Bold';fill:#4d4d4d"
         id="path4156" />
      <path
         d="m 1619.3281,389.81141 q -0.7617,-0.44922 -0.9961,-1.3086 -0.2148,-0.85937 0.2344,-1.62109 0.6445,-1.03516 1.8359,-1.03516 0.5665,0 1.0352,0.23438 l 0.5664,0.29297 0,-0.56641 q 0,-0.87891 0.6055,-1.50391 0.625,-0.625 1.5039,-0.625 0.918,0 1.5234,0.625 0.6055,0.625 0.6055,1.50391 l 0,0.60547 q 0.1953,-0.0781 0.3516,-0.15625 0.1757,-0.0977 0.2539,-0.13672 0.4492,-0.27344 1.0351,-0.27344 1.1914,0 1.836,1.07422 0.4492,0.76172 0.1953,1.60156 -0.2735,0.91797 -0.9961,1.32813 l -0.039,0 q -0.2734,0.15625 -0.6836,0.35156 -0.3906,0.19531 -0.5469,0.29297 0.1954,0.23438 0.586,0.68359 0.4101,0.42969 0.4883,0.50782 0.6054,0.60547 0.6054,1.52343 0,0.83985 -0.6445,1.48438 -0.6445,0.64453 -1.4844,0.625 -0.8789,0 -1.5234,-0.625 l -0.039,0 0,-0.0391 q -0.039,-0.0391 -0.2148,-0.23438 -0.1758,-0.21484 -0.4102,-0.44922 -0.2148,-0.2539 -0.4297,-0.48828 -0.2148,-0.23437 -0.2929,-0.3125 -0.039,-0.0391 -0.059,-0.0781 -0.02,-0.0391 -0.059,-0.0781 -0.039,0.0781 -0.1758,0.19531 -0.078,0.0781 -0.2734,0.3125 -0.1954,0.23438 -0.4297,0.48829 -0.2149,0.23437 -0.3907,0.44921 -0.1757,0.19532 -0.2148,0.23438 l -0.039,0.0391 q -0.6445,0.625 -1.5234,0.625 -0.8398,0 -1.4844,-0.625 -0.6445,-0.5664 -0.6445,-1.48437 0,-0.83985 0.5664,-1.48438 0.039,-0.0391 0.1953,-0.21484 0.1563,-0.17578 0.332,-0.3711 0.1954,-0.21484 0.3711,-0.41015 0.1758,-0.19531 0.2539,-0.27344 -0.039,0 -0.058,-0.0195 -0.02,-0.0391 -0.059,-0.0391 l -1.2305,-0.625 -0.039,0 z"
         style="font-style:normal;font-variant:normal;font-weight:bold;font-stretch:normal;font-family:'Comic Neue';-inkscape-font-specification:'Comic Neue Bold';fill:#4d4d4d"
         id="path4158" />
    </g>
    <circle
       r="10.563706"
       cy="8768.5293"
       cx="961.09735"
       id="path5512-4-7-9-1-1-9"
       style="color:#000000;clip-rule:nonzero;display:inline;overflow:visible;visibility:visible;opacity:1;isolation:auto;mix-blend-mode:normal;color-interpolation:sRGB;color-interpolation-filters:linearRGB;solid-color:#000000;solid-opacity:1;fill:#000000;fill-opacity:1;fill-rule:nonzero;stroke:none;stroke-width:1;stroke-linecap:butt;stroke-linejoin:miter;stroke-miterlimit:4;stroke-dasharray:none;stroke-dashoffset:0;stroke-opacity:1;color-rendering:auto;image-rendering:auto;shape-rendering:auto;text-rendering:auto;enable-background:accumulate" />
    <circle
       r="10.563706"
       cy="8696.3232"
       cx="1033.3042"
       id="path5512-4-7-9-1-1-7"
       style="color:#000000;clip-rule:nonzero;display:inline;overflow:visible;visibility:visible;opacity:1;isolation:auto;mix-blend-mode:normal;color-interpolation:sRGB;color-interpolation-filters:linearRGB;solid-color:#000000;solid-opacity:1;fill:#000000;fill-opacity:1;fill-rule:nonzero;stroke:none;stroke-width:1;stroke-linecap:butt;stroke-linejoin:miter;stroke-miterlimit:4;stroke-dasharray:none;stroke-dashoffset:0;stroke-opacity:1;color-rendering:auto;image-rendering:auto;shape-rendering:auto;text-rendering:auto;enable-background:accumulate" />
    <g
       transform="translate(-367.10592,8300.6908)"
       style="font-style:normal;font-weight:normal;font-size:40px;line-height:100%;font-family:sans-serif;text-align:center;letter-spacing:0px;word-spacing:0px;text-anchor:middle;fill:#4d4d4d;fill-opacity:1;stroke:none;stroke-width:1px;stroke-linecap:butt;stroke-linejoin:miter;stroke-opacity:1"
       id="flowRoot4242-2-6-0-2-0-6-53">
      <path
         d="m 1641.2461,378.56709 q 0,-0.8789 0.5859,-1.5039 0.6055,-0.625 1.4453,-0.625 l 16.4063,0 q 0.8398,0 1.4453,0.625 0.6055,0.625 0.6055,1.5039 0,0.91797 -0.6055,1.54297 -0.6055,0.60547 -1.4453,0.60547 l -6.4063,0 0,20.83985 q 0,0.8789 -0.6054,1.5039 -0.586,0.625 -1.4258,0.625 -0.8398,0 -1.4453,-0.60547 -0.586,-0.625 -0.586,-1.52343 l 0,-20.83985 -5.9375,0 q -0.8398,0 -1.4453,-0.60547 -0.5859,-0.625 -0.5859,-1.54297 z"
         style="font-style:normal;font-variant:normal;font-weight:bold;font-stretch:normal;line-height:100%;font-family:'Comic Neue';-inkscape-font-specification:'Comic Neue Bold';text-align:center;text-anchor:middle;fill:#4d4d4d"
         id="path4101" />
      <path
         d="m 1664.3125,401.51631 0,-23.28125 q 0,-0.91797 0.625,-1.52343 0.625,-0.625 1.5039,-0.625 0.8789,0 1.4844,0.625 0.625,0.60546 0.625,1.52343 l 0,8.04688 q 0.2344,-0.27344 0.4687,-0.50781 0.2539,-0.25391 0.4883,-0.48829 2.4024,-2.32421 4.8828,-2.32421 0.4883,0 1.0547,0.11718 0.586,0.11719 1.1914,0.46875 0.6055,0.33203 1.1524,0.9375 0.5664,0.60547 0.9961,1.5625 1.289,2.63672 1.4062,7.71485 0.039,0.83984 0.039,2.16797 0,1.30859 0,2.55859 0,1.42578 -0.039,2.98828 0,0.87891 -0.6055,1.50391 -0.5859,0.625 -1.4648,0.625 -0.8789,0 -1.4844,-0.625 -0.6054,-0.625 -0.6054,-1.50391 0.039,-1.44531 0.039,-2.79297 0,-1.15234 0,-2.48047 0,-1.32812 -0.039,-2.36328 -0.039,-1.79687 -0.2149,-3.02734 -0.1758,-1.25 -0.4297,-2.03125 -0.2344,-0.78125 -0.4883,-1.13281 -0.2539,-0.3711 -0.5078,-0.3711 -1.5234,0 -3.3203,2.12891 -0.8398,0.95703 -1.3867,1.875 -0.5273,0.91797 -0.6836,1.25 -0.4492,0.91797 -0.4492,2.7539 l 0,6.23047 q 0,0.91797 -0.625,1.54297 -0.6055,0.625 -1.4844,0.625 -0.8789,0 -1.5039,-0.60547 -0.625,-0.625 -0.625,-1.5625 z"
         style="font-style:normal;font-variant:normal;font-weight:bold;font-stretch:normal;line-height:100%;font-family:'Comic Neue';-inkscape-font-specification:'Comic Neue Bold';text-align:center;text-anchor:middle;fill:#4d4d4d"
         id="path4103" />
      <path
         d="m 1684.2539,393.72334 q 0,-1.95312 0.7031,-3.71093 0.7032,-1.77735 1.9141,-3.10547 1.2305,-1.34766 2.8711,-2.16797 1.6406,-0.82031 3.5156,-0.9375 0.3516,-0.0391 0.7031,-0.0391 1.9141,0 3.4961,0.91797 1.875,1.07421 3.0078,2.89062 0.1954,0.3125 0.3321,0.64453 0.1367,0.3125 0.3125,0.58594 0.1953,0.37109 0.1953,0.82031 0,0.25391 -0.059,0.56641 -0.1758,0.82031 -1.0156,1.25 -0.7227,0.39062 -2.0313,1.13281 -1.289,0.72266 -2.8125,1.5625 -1.5234,0.83984 -3.0859,1.71875 -1.5625,0.87891 -2.793,1.54297 0.6445,0.80078 1.4649,1.36719 1.289,0.8789 2.9296,0.8789 2.2852,0 3.9649,-1.75781 l 0.8008,-0.83984 q 0.5664,-0.56641 1.3867,-0.56641 0.8398,0 1.4453,0.60547 0.6055,0.60547 0.6055,1.40625 0,0.72266 -0.4883,1.30859 l -0.8008,0.83985 q -1.3672,1.48437 -3.1641,2.28515 -1.7578,0.76172 -3.75,0.76172 -1.9921,0 -3.7695,-0.78125 -1.7578,-0.78125 -3.0664,-2.10937 -1.2891,-1.34766 -2.0508,-3.16407 -0.7617,-1.8164 -0.7617,-3.90625 z m 4.043,-0.27343 q 0.8398,-0.48828 1.9531,-1.09375 1.1328,-0.625 2.2461,-1.25 1.1328,-0.625 2.1484,-1.19141 1.0157,-0.58594 1.7383,-0.99609 -1.0351,-1.03516 -2.4023,-1.11328 -1.3672,0.0391 -2.3828,0.54687 -1.0157,0.48828 -1.7383,1.28906 -1.4453,1.64063 -1.5625,3.8086 z"
         style="font-style:normal;font-variant:normal;font-weight:bold;font-stretch:normal;line-height:100%;font-family:'Comic Neue';-inkscape-font-specification:'Comic Neue Bold';text-align:center;text-anchor:middle;fill:#4d4d4d"
         id="path4105" />
      <path
         d="m 1706.7344,401.61397 0,-15.76172 q 0,-0.91797 0.6445,-1.54297 0.6445,-0.625 1.5625,-0.625 0.918,0 1.543,0.625 0.6445,0.60547 0.6445,1.54297 l -0.078,15.76172 q 0,0.91797 -0.625,1.54297 -0.6055,0.60547 -1.5235,0.60547 -0.9179,0 -1.5429,-0.60547 -0.625,-0.625 -0.625,-1.54297 z m 0.1562,-22.12891 0.078,-1.36718 q 0,-0.87891 0.625,-1.48438 0.625,-0.625 1.5039,-0.625 0.8789,0 1.4843,0.625 0.625,0.60547 0.625,1.48438 l -0.078,1.36718 q 0,0.87891 -0.625,1.50391 -0.6055,0.625 -1.4844,0.625 -0.8789,0 -1.5039,-0.625 -0.625,-0.625 -0.625,-1.50391 z"
         style="font-style:normal;font-variant:normal;font-weight:bold;font-stretch:normal;line-height:100%;font-family:'Comic Neue';-inkscape-font-specification:'Comic Neue Bold';text-align:center;text-anchor:middle;fill:#4d4d4d"
         id="path4107" />
      <path
         d="m 1716.4219,401.61397 0,-16.13281 q 0,-0.91797 0.625,-1.50391 0.625,-0.60547 1.5039,-0.60547 0.918,0 1.5039,0.60547 0.6055,0.58594 0.6055,1.50391 l 0,0.33203 q 0.5664,-0.60547 1.2695,-1.09375 0.7031,-0.50781 1.5039,-0.76172 1.0742,-0.39063 2.1094,-0.39063 1.5625,0 2.6367,0.83985 1.4062,1.07422 1.4062,2.79297 l 0,1.17187 q 0,0.83985 -0.6054,1.46485 -0.6055,0.60546 -1.4844,0.60546 -0.8789,0 -1.4844,-0.60546 -0.5859,-0.625 -0.5859,-1.46485 l 0,-0.60547 -0.078,0 q -0.078,0 -0.2735,0.0195 -0.1758,0.0195 -0.4492,0.0977 -0.6836,0.19531 -1.4844,0.89844 -0.8008,0.70312 -1.4453,1.66015 -0.6445,0.95704 -0.8203,1.6211 -0.1758,0.66406 -0.2148,0.82031 l 0,8.73047 q 0,0.87891 -0.6055,1.50391 -0.5859,0.60546 -1.5039,0.60546 -0.8789,0 -1.5039,-0.60546 -0.625,-0.625 -0.625,-1.50391 z"
         style="font-style:normal;font-variant:normal;font-weight:bold;font-stretch:normal;line-height:100%;font-family:'Comic Neue';-inkscape-font-specification:'Comic Neue Bold';text-align:center;text-anchor:middle;fill:#4d4d4d"
         id="path4109" />
      <path
         d="m 1592.6914,437.96163 q 0,-0.6836 0.3906,-1.19141 0.4102,-0.52734 1.0938,-0.72266 0.3125,-0.0781 0.5664,-0.0781 0.6055,0 1.0547,0.41015 0.4687,0.39063 0.7422,0.97657 0.4492,1.11328 1.3476,1.83593 0.8985,0.72266 2.2071,0.72266 0.3906,0 0.9375,-0.13672 0.5468,-0.13672 1.0156,-0.42969 0.4883,-0.3125 0.8008,-0.74218 0.332,-0.44922 0.332,-1.03516 0,-0.60547 -0.3711,-1.01562 -0.3516,-0.42969 -0.8984,-0.72266 -0.5274,-0.3125 -1.1133,-0.48828 -0.586,-0.17578 -0.9766,-0.29297 -3.0859,-0.87891 -4.4726,-2.24609 -1.6016,-1.48438 -1.6016,-3.84766 0,-2.87109 2.5586,-4.35547 1.1914,-0.68359 2.4414,-0.83984 1.2695,-0.15625 1.9531,-0.15625 3.8477,0 5.4883,2.14843 0.9961,1.32813 0.9961,2.96875 0,0.76172 -0.4883,1.3086 -0.4687,0.52734 -1.1914,0.64453 -0.1562,0.0195 -0.3125,0.0195 -0.5078,0 -1.0351,-0.27344 -0.7032,-0.37109 -0.9375,-1.5039 -0.1954,-0.95703 -0.9571,-1.32813 -0.7617,-0.39062 -1.7578,-0.39062 -0.3516,0 -0.8594,0.0976 -0.5078,0.0977 -0.9765,0.3125 -0.4492,0.19532 -0.7617,0.58594 -0.293,0.37109 -0.293,0.87891 0,0.5664 0.3711,0.95703 0.3906,0.37109 0.8789,0.64453 0.5078,0.25391 1.0351,0.39062 0.5274,0.13672 0.8399,0.21485 3.3984,0.91797 4.9023,2.38281 1.5039,1.46484 1.5039,3.94531 0,2.44141 -2.0117,4.23828 -0.957,0.91797 -2.2656,1.40625 -1.2891,0.46875 -2.7734,0.46875 -2.0313,0 -3.379,-0.72265 -1.3281,-0.72266 -2.0898,-1.44531 -0.8789,-0.80079 -1.4062,-1.79688 -0.5274,-0.99609 -0.5274,-1.79687 z"
         style="font-style:normal;font-variant:normal;font-weight:bold;font-stretch:normal;line-height:100%;font-family:'Comic Neue';-inkscape-font-specification:'Comic Neue Bold';text-align:center;text-anchor:middle;fill:#4d4d4d"
         id="path4111" />
      <path
         d="m 1612.0078,432.39522 0,-0.0781 q 0,-0.83984 0.078,-1.99218 0.078,-1.15235 0.1758,-2.22657 0.1172,-1.09375 0.1953,-1.85546 0.078,-0.76172 0.078,-0.80079 0.078,-0.76171 0.6445,-1.26953 0.5859,-0.52734 1.3867,-0.52734 0.8789,0 1.4844,0.60547 0.6055,0.58594 0.6055,1.42578 l -0.078,0.60547 q -0.078,0.52734 -0.1562,1.25 -0.059,0.70312 -0.1172,1.5039 -0.059,0.80079 -0.098,1.64063 -0.039,0.83984 -0.039,1.60156 l 0,0.0391 0,0.0781 q 0,1.11328 0.039,2.28516 0.039,1.17187 0.1563,2.16796 0.1953,1.23047 0.4297,1.83594 0.2539,0.60547 0.5078,0.80078 0.078,0.0781 0.3711,0.19532 0.2929,0.11718 0.8203,0.11718 0.7617,0 1.543,-0.23437 0.7812,-0.23438 1.4257,-0.58594 0.6641,-0.37109 1.1719,-0.72266 0.5078,-0.37109 0.7031,-0.60546 0.078,-0.0781 0.1172,-0.3125 0.039,-0.25391 0.039,-0.44922 l 0.1953,-11.21094 q 0,-0.80078 0.6055,-1.38672 0.6054,-0.60547 1.4453,-0.60547 0.8789,0 1.4648,0.60547 0.6055,0.58594 0.6055,1.38672 l 0,15.83984 q 0,0.91797 -0.6445,1.54297 -0.625,0.625 -1.5625,0.625 -0.7618,0 -1.3282,-0.39062 -0.5468,-0.41016 -0.7812,-1.05469 l -0.1172,0.0781 q -0.9961,0.60547 -2.2656,1.01563 -1.25,0.39062 -2.6563,0.39062 -1.0742,0 -2.1679,-0.3125 -1.1524,-0.3125 -1.9532,-1.01562 -0.8398,-0.83984 -1.3086,-1.95313 -0.4492,-1.11328 -0.6836,-2.42187 -0.2148,-1.32813 -0.2734,-2.75391 -0.059,-1.42578 -0.059,-2.87109 z"
         style="font-style:normal;font-variant:normal;font-weight:bold;font-stretch:normal;line-height:100%;font-family:'Comic Neue';-inkscape-font-specification:'Comic Neue Bold';text-align:center;text-anchor:middle;fill:#4d4d4d"
         id="path4113" />
      <path
         d="m 1632.418,435.32491 q -0.039,-0.50782 -0.039,-0.9961 0,-2.63672 1.0547,-4.92187 0.7227,-1.52344 1.875,-2.75391 1.2891,-1.28906 3.0469,-2.08984 1.7187,-0.80078 3.5156,-0.80078 0.8008,0 1.4844,0.15625 0.7031,0.15625 1.3476,0.37109 l 0.3321,0.0781 q 0.2734,-0.44922 0.7226,-0.72266 0.4688,-0.27344 1.0742,-0.27344 0.8789,0 1.4649,0.60547 0.6054,0.58594 0.6054,1.46484 l 0,0.76172 q -0.039,1.03516 -0.058,2.59766 -0.02,1.5625 -0.059,3.30078 -0.039,1.73828 -0.078,3.49609 -0.039,1.75782 -0.078,3.1836 -0.039,1.42578 -0.059,2.38281 -0.02,0.95703 -0.02,1.11328 -0.1172,1.60156 -0.625,2.96875 -0.5078,1.36719 -1.4258,2.40235 -0.918,1.03515 -2.1289,1.67968 -1.1914,0.64453 -2.6172,0.76172 -0.3906,0.0781 -0.7812,0.0781 -0.3907,0 -0.8204,0 -1.6406,0 -2.9687,-0.25391 l -0.6055,-0.0781 q -0.8789,-0.19532 -1.3867,-0.91797 -0.3516,-0.52735 -0.3516,-1.11328 0,-0.23438 0.059,-0.48829 0.1954,-0.83984 0.918,-1.32812 0.5274,-0.37109 1.0938,-0.37109 0.2343,0 0.4687,0.0586 l 0.3711,0.0391 q 0.5664,0.0781 1.1523,0.13672 0.6055,0.0781 1.25,0.0781 0.3125,0 0.586,0 0.293,0 0.6055,-0.0391 1.6015,-0.15625 2.3632,-1.60156 0.2344,-0.44922 0.3516,-0.91797 0.1367,-0.48828 0.2148,-0.83984 -0.1171,0.0781 -0.2343,0.11719 -0.098,0.0391 -0.2149,0.11718 -1.5625,0.87891 -3.3203,0.87891 l -0.1562,0 q -3.4766,0 -5.7618,-2.89063 -0.9179,-1.15234 -1.4648,-2.53906 -0.5273,-1.40625 -0.7031,-2.89062 z m 3.9453,-1.5625 q 0,0.37109 0,0.66406 0,0.37109 0.02,0.58594 0.078,0.80078 0.3906,1.62109 0.3321,0.82031 0.7813,1.44531 1.1133,1.44532 2.6758,1.44532 l 0.039,0 q 0.6055,0 1.3477,-0.23438 0.7617,-0.25391 1.4453,-0.99609 1.4844,-1.71875 1.4844,-5.21485 l 0,-4.47265 q -0.3516,-0.19532 -1.0156,-0.41016 -0.6641,-0.23437 -1.4649,-0.23437 -1.0351,0 -2.168,0.44921 -2.3632,1.07422 -3.1445,3.4375 -0.3516,1.03516 -0.3906,1.91407 z"
         style="font-style:normal;font-variant:normal;font-weight:bold;font-stretch:normal;line-height:100%;font-family:'Comic Neue';-inkscape-font-specification:'Comic Neue Bold';text-align:center;text-anchor:middle;fill:#4d4d4d"
         id="path4115" />
      <path
         d="m 1653.5117,435.32491 q -0.039,-0.50782 -0.039,-0.9961 0,-2.63672 1.0546,-4.92187 0.7227,-1.52344 1.875,-2.75391 1.2891,-1.28906 3.0469,-2.08984 1.7188,-0.80078 3.5156,-0.80078 0.8008,0 1.4844,0.15625 0.7031,0.15625 1.3477,0.37109 l 0.332,0.0781 q 0.2734,-0.44922 0.7227,-0.72266 0.4687,-0.27344 1.0742,-0.27344 0.8789,0 1.4648,0.60547 0.6055,0.58594 0.6055,1.46484 l 0,0.76172 q -0.039,1.03516 -0.059,2.59766 -0.02,1.5625 -0.059,3.30078 -0.039,1.73828 -0.078,3.49609 -0.039,1.75782 -0.078,3.1836 -0.039,1.42578 -0.059,2.38281 -0.02,0.95703 -0.02,1.11328 -0.1172,1.60156 -0.625,2.96875 -0.5078,1.36719 -1.4257,2.40235 -0.918,1.03515 -2.129,1.67968 -1.1914,0.64453 -2.6171,0.76172 -0.3907,0.0781 -0.7813,0.0781 -0.3906,0 -0.8203,0 -1.6406,0 -2.9688,-0.25391 l -0.6054,-0.0781 q -0.8789,-0.19532 -1.3867,-0.91797 -0.3516,-0.52735 -0.3516,-1.11328 0,-0.23438 0.059,-0.48829 0.1953,-0.83984 0.918,-1.32812 0.5273,-0.37109 1.0937,-0.37109 0.2344,0 0.4688,0.0586 l 0.3711,0.0391 q 0.5664,0.0781 1.1523,0.13672 0.6055,0.0781 1.25,0.0781 0.3125,0 0.5859,0 0.293,0 0.6055,-0.0391 1.6016,-0.15625 2.3633,-1.60156 0.2344,-0.44922 0.3515,-0.91797 0.1368,-0.48828 0.2149,-0.83984 -0.1172,0.0781 -0.2344,0.11719 -0.098,0.0391 -0.2148,0.11718 -1.5625,0.87891 -3.3203,0.87891 l -0.1563,0 q -3.4766,0 -5.7617,-2.89063 -0.918,-1.15234 -1.4649,-2.53906 -0.5273,-1.40625 -0.7031,-2.89062 z m 3.9453,-1.5625 q 0,0.37109 0,0.66406 0,0.37109 0.02,0.58594 0.078,0.80078 0.3906,1.62109 0.332,0.82031 0.7812,1.44531 1.1133,1.44532 2.6758,1.44532 l 0.039,0 q 0.6055,0 1.3476,-0.23438 0.7618,-0.25391 1.4454,-0.99609 1.4843,-1.71875 1.4843,-5.21485 l 0,-4.47265 q -0.3515,-0.19532 -1.0156,-0.41016 -0.6641,-0.23437 -1.4648,-0.23437 -1.0352,0 -2.168,0.44921 -2.3633,1.07422 -3.1445,3.4375 -0.3516,1.03516 -0.3907,1.91407 z"
         style="font-style:normal;font-variant:normal;font-weight:bold;font-stretch:normal;line-height:100%;font-family:'Comic Neue';-inkscape-font-specification:'Comic Neue Bold';text-align:center;text-anchor:middle;fill:#4d4d4d"
         id="path4117" />
      <path
         d="m 1674.5664,433.72334 q 0,-1.95312 0.7031,-3.71093 0.7032,-1.77735 1.9141,-3.10547 1.2305,-1.34766 2.8711,-2.16797 1.6406,-0.82031 3.5156,-0.9375 0.3516,-0.0391 0.7031,-0.0391 1.9141,0 3.4961,0.91797 1.875,1.07421 3.0078,2.89062 0.1954,0.3125 0.3321,0.64453 0.1367,0.3125 0.3125,0.58594 0.1953,0.37109 0.1953,0.82031 0,0.25391 -0.059,0.56641 -0.1758,0.82031 -1.0156,1.25 -0.7227,0.39062 -2.0313,1.13281 -1.289,0.72266 -2.8125,1.5625 -1.5234,0.83984 -3.0859,1.71875 -1.5625,0.87891 -2.793,1.54297 0.6445,0.80078 1.4649,1.36719 1.289,0.8789 2.9296,0.8789 2.2852,0 3.9649,-1.75781 l 0.8008,-0.83984 q 0.5664,-0.56641 1.3867,-0.56641 0.8398,0 1.4453,0.60547 0.6055,0.60547 0.6055,1.40625 0,0.72266 -0.4883,1.30859 l -0.8008,0.83985 q -1.3672,1.48437 -3.1641,2.28515 -1.7578,0.76172 -3.75,0.76172 -1.9921,0 -3.7695,-0.78125 -1.7578,-0.78125 -3.0664,-2.10937 -1.2891,-1.34766 -2.0508,-3.16407 -0.7617,-1.8164 -0.7617,-3.90625 z m 4.043,-0.27343 q 0.8398,-0.48828 1.9531,-1.09375 1.1328,-0.625 2.2461,-1.25 1.1328,-0.625 2.1484,-1.19141 1.0157,-0.58594 1.7383,-0.99609 -1.0351,-1.03516 -2.4023,-1.11328 -1.3672,0.0391 -2.3828,0.54687 -1.0157,0.48828 -1.7383,1.28906 -1.4453,1.64063 -1.5625,3.8086 z"
         style="font-style:normal;font-variant:normal;font-weight:bold;font-stretch:normal;line-height:100%;font-family:'Comic Neue';-inkscape-font-specification:'Comic Neue Bold';text-align:center;text-anchor:middle;fill:#4d4d4d"
         id="path4119" />
      <path
         d="m 1696.4414,437.96163 q 0,-0.6836 0.3906,-1.19141 0.4102,-0.52734 1.0938,-0.72266 0.3125,-0.0781 0.5664,-0.0781 0.6055,0 1.0547,0.41015 0.4687,0.39063 0.7422,0.97657 0.4492,1.11328 1.3476,1.83593 0.8985,0.72266 2.2071,0.72266 0.3906,0 0.9375,-0.13672 0.5468,-0.13672 1.0156,-0.42969 0.4883,-0.3125 0.8008,-0.74218 0.332,-0.44922 0.332,-1.03516 0,-0.60547 -0.3711,-1.01562 -0.3516,-0.42969 -0.8984,-0.72266 -0.5274,-0.3125 -1.1133,-0.48828 -0.586,-0.17578 -0.9766,-0.29297 -3.0859,-0.87891 -4.4726,-2.24609 -1.6016,-1.48438 -1.6016,-3.84766 0,-2.87109 2.5586,-4.35547 1.1914,-0.68359 2.4414,-0.83984 1.2695,-0.15625 1.9531,-0.15625 3.8477,0 5.4883,2.14843 0.9961,1.32813 0.9961,2.96875 0,0.76172 -0.4883,1.3086 -0.4687,0.52734 -1.1914,0.64453 -0.1562,0.0195 -0.3125,0.0195 -0.5078,0 -1.0351,-0.27344 -0.7032,-0.37109 -0.9375,-1.5039 -0.1954,-0.95703 -0.9571,-1.32813 -0.7617,-0.39062 -1.7578,-0.39062 -0.3516,0 -0.8594,0.0976 -0.5078,0.0977 -0.9765,0.3125 -0.4492,0.19532 -0.7617,0.58594 -0.293,0.37109 -0.293,0.87891 0,0.5664 0.3711,0.95703 0.3906,0.37109 0.8789,0.64453 0.5078,0.25391 1.0351,0.39062 0.5274,0.13672 0.8399,0.21485 3.3984,0.91797 4.9023,2.38281 1.5039,1.46484 1.5039,3.94531 0,2.44141 -2.0117,4.23828 -0.957,0.91797 -2.2656,1.40625 -1.2891,0.46875 -2.7734,0.46875 -2.0313,0 -3.379,-0.72265 -1.3281,-0.72266 -2.0898,-1.44531 -0.8789,-0.80079 -1.4062,-1.79688 -0.5274,-0.99609 -0.5274,-1.79687 z"
         style="font-style:normal;font-variant:normal;font-weight:bold;font-stretch:normal;line-height:100%;font-family:'Comic Neue';-inkscape-font-specification:'Comic Neue Bold';text-align:center;text-anchor:middle;fill:#4d4d4d"
         id="path4121" />
      <path
         d="m 1713.9219,425.63741 q 0,-0.87891 0.6054,-1.48438 0.625,-0.625 1.5235,-0.625 l 2.7539,0 0,-4.08203 q 0,-0.87891 0.5859,-1.48437 0.6055,-0.60547 1.5235,-0.60547 0.8789,0 1.4843,0.60547 0.6055,0.60546 0.6055,1.48437 l 0,4.08203 2.7539,0 q 0.918,0 1.5235,0.625 0.6054,0.60547 0.6054,1.48438 0,0.91797 -0.6054,1.52343 -0.6055,0.60547 -1.5235,0.60547 l -2.7539,0 0,13.84766 q 0,0.87891 -0.6055,1.48437 -0.6054,0.58594 -1.4843,0.58594 -0.918,0 -1.5235,-0.58594 -0.5859,-0.60546 -0.5859,-1.48437 l 0,-13.84766 -2.7539,0 q -0.8789,0 -1.5039,-0.60547 -0.625,-0.60546 -0.625,-1.52343 z"
         style="font-style:normal;font-variant:normal;font-weight:bold;font-stretch:normal;line-height:100%;font-family:'Comic Neue';-inkscape-font-specification:'Comic Neue Bold';text-align:center;text-anchor:middle;fill:#4d4d4d"
         id="path4123" />
      <path
         d="m 1731.2656,441.61397 0,-15.76172 q 0,-0.91797 0.6446,-1.54297 0.6445,-0.625 1.5625,-0.625 0.9179,0 1.5429,0.625 0.6446,0.60547 0.6446,1.54297 l -0.078,15.76172 q 0,0.91797 -0.625,1.54297 -0.6054,0.60547 -1.5234,0.60547 -0.918,0 -1.543,-0.60547 -0.625,-0.625 -0.625,-1.54297 z m 0.1563,-22.12891 0.078,-1.36718 q 0,-0.87891 0.625,-1.48438 0.625,-0.625 1.5039,-0.625 0.8789,0 1.4844,0.625 0.625,0.60547 0.625,1.48438 l -0.078,1.36718 q 0,0.87891 -0.625,1.50391 -0.6055,0.625 -1.4844,0.625 -0.8789,0 -1.5039,-0.625 -0.625,-0.625 -0.625,-1.50391 z"
         style="font-style:normal;font-variant:normal;font-weight:bold;font-stretch:normal;line-height:100%;font-family:'Comic Neue';-inkscape-font-specification:'Comic Neue Bold';text-align:center;text-anchor:middle;fill:#4d4d4d"
         id="path4125" />
      <path
         d="m 1740.3867,433.52803 q 0.1172,-1.95312 0.8789,-3.73047 0.7617,-1.79687 2.0899,-3.18359 1.3281,-1.44531 2.9297,-2.20703 1.6211,-0.76172 3.3593,-0.76172 1.5235,0 2.9102,0.56641 1.4062,0.54687 2.5195,1.67968 1.5235,1.48438 2.2461,3.53516 0.586,1.64062 0.586,3.47656 0,0.44922 -0.039,0.89844 -0.1563,1.99219 -0.918,3.78906 -0.7617,1.77735 -2.0312,3.16406 -1.3282,1.44532 -2.9492,2.20704 -1.6211,0.76171 -3.379,0.76171 -1.5234,0 -2.9296,-0.5664 -1.3868,-0.58594 -2.5,-1.71875 -1.4844,-1.44531 -2.2071,-3.4961 -0.5859,-1.67968 -0.5859,-3.57421 0,-0.41016 0.02,-0.83985 z m 4.2578,0.27344 q -0.02,0.23437 0,0.46875 0,1.21094 0.3321,2.30469 0.4101,1.28906 1.2109,2.10937 0.9961,1.03516 2.4023,1.03516 0.8399,0 1.6993,-0.42969 0.8593,-0.44922 1.582,-1.32812 0.7617,-0.87891 1.1914,-2.03125 0.4492,-1.17188 0.5273,-2.40235 0.02,-0.19531 0.02,-0.39062 -0.02,-1.17188 -0.4102,-2.30469 -0.4687,-1.32813 -1.3281,-2.22656 -1.0742,-0.9961 -2.4023,-0.9961 -1.7579,0 -3.1446,1.75782 -0.7226,0.8789 -1.1719,2.05078 -0.4296,1.15234 -0.5078,2.38281 z"
         style="font-style:normal;font-variant:normal;font-weight:bold;font-stretch:normal;line-height:100%;font-family:'Comic Neue';-inkscape-font-specification:'Comic Neue Bold';text-align:center;text-anchor:middle;fill:#4d4d4d"
         id="path4127" />
      <path
         d="m 1762.5156,441.55538 0,-15 0,-1.19141 q 0,-0.87891 0.625,-1.50391 0.625,-0.625 1.5039,-0.625 0.8789,0 1.4844,0.625 0.625,0.625 0.625,1.50391 l 0,1.25 q 0.1563,-0.19531 0.293,-0.35156 0.1562,-0.17578 0.3515,-0.3711 1.1133,-1.11328 2.4805,-1.71875 1.3672,-0.60547 2.9688,-0.60547 2.207,0 3.6328,1.19141 1.3672,1.11328 1.9531,3.4375 0.4492,1.67969 0.5273,4.0625 0.078,2.38281 0.078,5.97656 l 0,2.20703 q 0,0.56641 0.039,1.11329 0,0.8789 -0.625,1.5039 -0.6054,0.625 -1.4648,0.625 -0.8789,0 -1.5039,-0.60547 -0.6055,-0.625 -0.6055,-1.52343 -0.039,-0.60547 -0.039,-1.19141 l 0,-2.07031 q 0,-2.92969 -0.058,-5.3125 -0.059,-2.38282 -0.3907,-3.76953 -0.2734,-1.03516 -0.6054,-1.25 -0.3125,-0.23438 -0.9375,-0.23438 -0.3907,0 -0.8789,0.0977 -0.4883,0.0976 -1.0352,0.48828 -0.5273,0.37109 -1.1523,1.09375 -0.625,0.72265 -1.2696,1.91406 -0.8008,1.52344 -1.289,3.41797 -0.4688,1.875 -0.4688,3.63281 l -0.039,3.1836 q 0,0.8789 -0.625,1.5039 -0.6054,0.625 -1.4843,0.625 -0.8789,0 -1.4844,-0.60547 -0.6055,-0.625 -0.6055,-1.52343 z"
         style="font-style:normal;font-variant:normal;font-weight:bold;font-stretch:normal;line-height:100%;font-family:'Comic Neue';-inkscape-font-specification:'Comic Neue Bold';text-align:center;text-anchor:middle;fill:#4d4d4d"
         id="path4129" />
    </g>
    <path
       style="color:#000000;clip-rule:nonzero;display:inline;overflow:visible;visibility:visible;opacity:0.77999998;isolation:auto;mix-blend-mode:normal;color-interpolation:sRGB;color-interpolation-filters:linearRGB;solid-color:#000000;solid-opacity:1;fill:#000000;fill-opacity:1;fill-rule:nonzero;stroke:#000000;stroke-width:1.21310353;stroke-linecap:round;stroke-linejoin:miter;stroke-miterlimit:4;stroke-dasharray:none;stroke-dashoffset:0;stroke-opacity:1;color-rendering:auto;image-rendering:auto;shape-rendering:auto;text-rendering:auto;enable-background:accumulate"
       id="path11476"
       d="m 1246.3247,8701.1658 c -2.1015,-0.2431 -4.203,-0.4862 -6.3046,-0.7293 -3.1767,-0.2839 -6.3111,-0.8267 -9.3854,-1.6706 -3.5787,-0.9752 -7.0162,-2.3963 -10.3989,-3.9026 -3.8455,-1.6942 -7.6226,-3.5363 -11.4268,-5.3197 -4.3357,-1.9899 -8.7402,-3.806 -13.2372,-5.3971 -4.7854,-1.768 -9.6506,-3.2973 -14.5618,-4.6725 -4.898,-1.3366 -9.8536,-2.4446 -14.8164,-3.5098 -4.1361,-0.8751 -8.2858,-1.6841 -12.443,-2.4528 -3.5153,-0.5014 -7.0463,-0.9459 -10.5905,-1.1788 -3.1307,-0.1641 -6.2687,-0.012 -9.4013,0.043 -2.8293,0.017 -5.6511,0.2534 -8.4766,0.3794 -2.4796,0.1229 -4.9666,0.297 -7.4286,0.6236 -2.2068,0.2764 -4.3917,0.6739 -6.5781,1.0742 -1.889,0.3134 -3.7414,0.8098 -5.5937,1.2883 -1.5135,0.3755 -3.0563,0.5909 -4.5732,0.9501 -1.3259,0.2777 -2.6203,0.6087 -3.8902,1.0803 -1.2197,0.4276 -2.4793,0.7209 -3.726,1.0573 -1.3967,0.3113 -2.7709,0.6807 -4.143,1.0868 -1.3813,0.3743 -2.7352,0.848 -4.0978,1.2863 -1.0158,0.3568 -2.0487,0.644 -3.0981,0.8812 -0.6595,0.1601 -1.3394,0.211 -1.9429,0.5316 -0.7069,0.3768 -1.4852,0.5563 -2.2369,0.8114 -0.758,0.2723 -1.5068,0.5695 -2.2558,0.8651 -0.5058,0.1952 -1,0.4186 -1.5221,0.5656 -0.5402,0.07 -1.0366,0.236 -1.5394,0.4367 -0.565,0.2696 -1.1541,0.4541 -1.7613,0.5998 -0.6216,0.1474 -1.2618,0.1965 -1.8967,0.2549 -1.1772,0.064 -1.1146,0.5008 -0.3182,-1.2408 1.6871,0.3622 3.3541,0.8143 5.0375,1.1968 2.0573,0.4377 4.1215,0.814 6.1473,1.3836 2.1676,0.5802 4.2279,1.4813 6.3038,2.3187 2.2182,1.0368 4.5039,1.9183 6.7399,2.9122 1.7675,0.8543 3.5479,1.68 5.3366,2.4892 1.1128,0.5022 2.2268,1.0016 3.3409,1.5012 0.7708,0.4687 1.5567,0.1347 0.3433,0.7355 -0.2326,-0.6956 -0.6661,-1.3101 -1.0215,-1.9485 -0.8393,-1.5655 -1.7073,-3.1167 -2.5019,-4.7063 -0.8268,-1.7674 -1.6299,-3.546 -2.4098,-5.335 -0.5655,-1.5785 -1.2862,-3.093 -1.8731,-4.6631 -0.7058,-1.6269 -1.1102,-3.3577 -1.6932,-5.026 -0.4858,-1.2799 -1.0478,-2.5263 -1.4946,-3.8209 -0.3556,-0.977 -0.6206,-1.9775 -0.8398,-2.9923 -0.169,-0.9732 -0.5031,-1.91 -0.7619,-2.8634 -0.2902,-0.9739 -0.4059,-1.9842 -0.5135,-2.9909 -0.1056,-0.8723 -0.1404,-1.7504 -0.174,-2.6277 -0.021,-0.5895 -0.04,-1.1792 -0.059,-1.7687 -0.011,-0.3337 -0.022,-0.6676 -0.032,-1.0015 1.2581,0.7462 0.999,0.3046 0.5241,1.2921 -0.3645,0.9785 -0.8592,1.8985 -1.373,2.8049 -0.8012,1.1579 -1.5785,2.3296 -2.3811,3.4862 -1.0813,1.4711 -2.0287,3.0304 -3.1268,4.4898 -1.046,1.4131 -2.2103,2.7249 -3.4029,4.0145 -0.8899,1.001 -1.9024,1.8848 -2.7924,2.8847 -0.6588,0.8635 -1.3725,1.6569 -2.1867,2.375 -0.5793,0.491 -1.1034,1.0659 -1.5292,1.6957 -0.3718,0.7118 -0.9405,1.2768 -1.4271,1.9066 -0.2431,0.3411 -0.5322,0.6551 -0.7223,1.0284 0,0 -1.4882,-0.2567 -1.4882,-0.2567 l 0,0 c 0.2073,-0.6594 0.5779,-1.1603 1.016,-1.6959 0.4718,-0.609 1.0211,-1.1502 1.3788,-1.8405 0.507,-0.724 1.0949,-1.4025 1.7738,-1.9711 0.7709,-0.678 1.4336,-1.4336 2.0593,-2.2484 0.9003,-1.0022 1.9077,-1.9016 2.8092,-2.9034 1.1583,-1.2525 2.2911,-2.5248 3.3059,-3.8982 1.0892,-1.4413 2.0187,-2.9893 3.0919,-4.4417 0.7767,-1.1189 1.5252,-2.2548 2.308,-3.3698 0.5001,-0.8822 0.9773,-1.7777 1.3332,-2.7299 0.3737,-0.7411 1.8456,-2.3265 2.3391,-0.6705 0.011,0.3337 0.022,0.6675 0.032,1.0012 0.019,0.5865 0.037,1.1731 0.059,1.7596 0.033,0.8429 0.064,1.6866 0.1666,2.5247 0.099,0.9272 0.2007,1.8589 0.4696,2.7557 0.2657,0.9787 0.6057,1.9416 0.7808,2.9406 0.206,0.9564 0.4548,1.8985 0.7912,2.8186 0.4454,1.2935 1.014,2.5361 1.4934,3.8172 0.5743,1.6596 0.9849,3.3758 1.6817,4.994 0.5749,1.5454 1.2897,3.0331 1.8425,4.5874 0.7694,1.7651 1.5615,3.5201 2.3764,5.2638 0.7835,1.5704 1.6427,3.1013 2.471,4.6476 0.505,0.9113 1.1987,1.8002 1.1975,2.8872 -1.0945,1.3085 -1.0488,1.0591 -2.4573,0.4377 -1.1156,-0.5002 -2.2312,-1.0003 -3.3456,-1.5032 -1.7857,-0.808 -3.5637,-1.6317 -5.328,-2.4856 -2.2188,-0.9887 -4.4901,-1.859 -6.6907,-2.8911 -2.025,-0.817 -4.034,-1.6989 -6.1481,-2.2657 -2.0008,-0.5637 -4.0414,-0.9288 -6.0728,-1.3646 -1.6931,-0.3847 -3.3697,-0.8397 -5.0667,-1.2037 -0.6614,-1.9866 -0.7984,-1.5814 0.5412,-1.7287 0.5638,-0.053 1.1335,-0.092 1.6861,-0.2197 0.5375,-0.1279 1.0541,-0.291 1.5532,-0.5335 0.5564,-0.2218 1.1162,-0.413 1.7124,-0.494 0.4696,-0.1078 0.8972,-0.3619 1.3544,-0.5106 0.7736,-0.3052 1.5467,-0.6121 2.3299,-0.892 0.6814,-0.2264 1.3834,-0.3896 2.026,-0.7225 0.7278,-0.3669 1.5063,-0.5036 2.3012,-0.6618 1.0057,-0.2274 1.995,-0.5028 2.9683,-0.8457 1.3739,-0.442 2.7394,-0.9184 4.1317,-1.2968 1.3836,-0.4095 2.7702,-0.7825 4.1784,-1.0968 1.2023,-0.3241 2.4166,-0.6073 3.5939,-1.0152 1.328,-0.492 2.6821,-0.8436 4.068,-1.1341 1.5071,-0.356 3.0382,-0.5752 4.5429,-0.9424 1.8875,-0.4877 3.7753,-0.9918 5.6999,-1.3118 2.211,-0.4044 4.4208,-0.8056 6.6521,-1.0858 2.5059,-0.3287 5.0356,-0.5125 7.559,-0.6351 2.8392,-0.1264 5.6746,-0.3642 8.5175,-0.3807 3.1746,-0.055 6.3549,-0.2091 9.5276,-0.04 3.6026,0.2401 7.1922,0.6872 10.7653,1.2012 4.1712,0.7714 8.335,1.5832 12.4853,2.4612 4.993,1.0719 9.9788,2.187 14.9067,3.5322 4.9435,1.3848 9.841,2.9236 14.6584,4.7031 4.5432,1.6083 8.9939,3.442 13.3744,5.4535 3.7952,1.7793 7.5636,3.6169 11.4001,5.3074 3.313,1.4763 6.6798,2.87 10.1849,3.826 2.9989,0.827 6.0591,1.3484 9.1585,1.6266 2.1015,0.2431 4.203,0.4862 6.3045,0.7294 0,0 -0.1735,1.5001 -0.1735,1.5001 z" />
    <path
       style="color:#000000;clip-rule:nonzero;display:inline;overflow:visible;visibility:visible;opacity:0.78600003;isolation:auto;mix-blend-mode:normal;color-interpolation:sRGB;color-interpolation-filters:linearRGB;solid-color:#000000;solid-opacity:1;fill:#000000;fill-opacity:1;fill-rule:nonzero;stroke:#000000;stroke-width:1.32221782;stroke-linecap:round;stroke-linejoin:miter;stroke-miterlimit:4;stroke-dasharray:none;stroke-dashoffset:0;stroke-opacity:1;color-rendering:auto;image-rendering:auto;shape-rendering:auto;text-rendering:auto;enable-background:accumulate"
       id="path11480"
       d="m 757.98623,8703.712 c 2.39669,-1.4402 4.88799,-2.7058 7.44063,-3.8432 4.50515,-1.8622 9.19943,-3.2023 13.89406,-4.4882 5.33503,-1.5321 10.83175,-2.3113 16.31865,-3.0553 5.99858,-0.6934 12.01732,-1.1736 18.04859,-1.4548 6.42239,-0.3419 12.85081,-0.2765 19.27561,-0.078 6.1667,0.2196 12.31684,0.7017 18.46309,1.2321 5.6972,0.478 11.32212,1.4958 16.88526,2.7867 5.23369,1.2455 10.40976,2.7056 15.56001,4.2562 4.27174,1.2878 8.49117,2.738 12.68221,4.2664 3.78812,1.3695 7.49126,2.9287 11.15364,4.6005 3.33468,1.4235 6.48321,3.1776 9.57079,5.0646 2.37986,1.5926 4.76601,3.1781 7.10417,4.8318 2.20342,1.4559 4.20663,3.1393 6.08257,4.9923 2.07654,2.0736 3.96725,4.3261 5.85738,6.5689 1.59644,1.8535 3.24185,3.6617 4.76985,5.5727 1.1077,1.3341 2.02302,2.8053 3.13258,4.1363 0.88226,0.9919 1.65852,2.0717 2.44135,3.1422 0.47725,0.6548 0.95195,1.3115 1.42664,1.9682 0.26728,0.3698 0.53445,0.7397 0.80172,1.1095 0.15,0.2078 0.30009,0.4155 0.45009,0.6232 0.0845,0.1167 0.16863,0.2332 0.25281,0.3499 0.0474,0.066 0.0947,0.131 0.14202,0.1965 0.0268,0.036 0.0537,0.074 0.0795,0.1103 -1.98076,0.6786 -1.48957,0.4024 -2.24076,-0.7474 -0.49969,-0.8519 -1.18058,-1.5436 -1.88635,-2.2239 -0.88444,-0.8344 -1.807,-1.6282 -2.73755,-2.4106 -1.04177,-0.9193 -2.241,-1.6087 -3.42519,-2.3204 -1.46002,-0.7988 -2.97164,-1.4845 -4.42352,-2.3004 -1.42406,-0.8624 -2.81345,-1.7829 -4.22889,-2.6618 -1.1379,-0.6999 -2.25848,-1.4275 -3.38079,-2.1519 -0.8126,-0.5606 -1.74653,-0.9025 -2.6326,-1.3255 -0.95263,-0.4117 -1.80672,-0.9917 -2.69351,-1.5214 -0.70249,-0.4137 -1.4104,-0.8177 -2.11807,-1.2222 -0.43271,-0.3037 -0.93173,-0.4313 -1.43358,-0.5695 -0.58743,-0.117 -1.13275,-0.345 -1.67362,-0.5956 -0.46194,-0.2184 -0.92037,-0.4444 -1.37875,-0.67 -0.26302,-0.1295 -0.52576,-0.2591 -0.78872,-0.3888 -0.14759,-0.073 -0.29535,-0.1458 -0.44306,-0.2186 0.24367,-2.1216 1.3664,-2.2847 3.00871,-3.2357 1.86706,-1.0535 3.68767,-2.1898 5.48318,-3.3608 2.2039,-1.3757 4.37195,-2.8063 6.50645,-4.2873 1.8656,-1.2843 3.63608,-2.7 5.41286,-4.1028 1.10492,-0.8745 2.20757,-1.7518 3.31022,-2.6291 0.62238,-0.4953 1.24475,-0.9907 1.86702,-1.4861 0.34958,-0.2782 0.69915,-0.5565 1.04873,-0.8347 0.7001,-0.5889 0.51658,-0.4074 1.83237,-0.1586 0.61138,0.7555 0.42249,1.6907 0.41176,2.591 0.0146,1.26 0.12698,2.516 0.23939,3.7702 0.0176,1.6117 -0.0629,3.2225 -0.0788,4.8342 -0.007,1.5977 0.0683,3.1935 0.16092,4.7879 0.0825,1.4886 0.21673,2.9737 0.35389,4.4581 0.12723,1.2837 0.25943,2.5669 0.40256,3.8489 0.13086,1.1478 0.27364,2.2943 0.42028,3.4402 0.12162,0.9338 0.24423,1.8676 0.36784,2.8012 0.083,0.6395 0.16992,1.2785 0.25884,1.9172 0.064,0.5348 0.14226,1.0764 0.27368,1.5887 0.21103,0.4084 0.47367,0.7871 0.73298,1.1657 0.17451,0.2533 0.35085,0.5053 0.52709,0.7572 0.34268,0.4255 -0.0388,0.031 -0.3187,-0.07 0,0 0.25707,1.6258 0.25707,1.6258 l 0,0 c -0.58556,-0.039 -0.9896,-0.085 -1.28561,-0.6127 -0.17935,-0.2565 -0.35878,-0.5129 -0.5363,-0.7706 -0.33392,-0.4877 -0.67291,-0.9768 -0.91612,-1.5179 -0.2091,-0.6307 -0.27572,-1.2824 -0.36349,-1.9402 -0.0875,-0.6425 -0.17695,-1.2848 -0.26046,-1.9278 -0.12295,-0.936 -0.24784,-1.8714 -0.3688,-2.8076 -0.14809,-1.1548 -0.29222,-2.3101 -0.42353,-3.4669 -0.14372,-1.2925 -0.2775,-2.5861 -0.40578,-3.8801 -0.1383,-1.5032 -0.27444,-3.0068 -0.35805,-4.5141 -0.0947,-1.6316 -0.17109,-3.2646 -0.16352,-4.8995 0.0154,-1.5575 0.0859,-3.1137 0.0853,-4.6711 -0.11707,-1.3101 -0.23392,-2.6221 -0.2458,-3.9382 0.004,-0.378 -0.10414,-1.1917 0.1687,-1.3153 1.39876,-0.3922 0.60907,-0.1694 0.25844,0.1919 -0.34948,0.2782 -0.69916,0.5565 -1.04873,0.8347 -0.62237,0.4954 -1.24472,0.9909 -1.8672,1.4862 -1.10438,0.8786 -2.20855,1.7573 -3.31519,2.633 -1.80335,1.4238 -3.60075,2.86 -5.49451,4.1632 -2.14752,1.4899 -4.32841,2.9299 -6.54582,4.3138 -1.82048,1.1865 -3.66554,2.3389 -5.55821,3.407 -0.68608,0.3962 -2.51114,1.4865 -2.54867,1.4619 -0.36313,-0.2385 -0.40512,-0.7687 -0.60775,-1.1531 0.0175,0.01 0.0349,0.017 0.0524,0.025 0.14768,0.073 0.29533,0.1457 0.44304,0.2185 0.26242,0.1295 0.52472,0.2589 0.78711,0.3881 0.44721,0.2201 0.89438,0.4404 1.34483,0.6538 0.46032,0.2138 0.91564,0.4099 1.41866,0.5019 0.63126,0.1745 1.26257,0.358 1.81255,0.7272 0.71697,0.4098 1.43418,0.8191 2.1457,1.2383 0.84361,0.5044 1.65217,1.0597 2.55982,1.4496 0.94798,0.455 1.94681,0.822 2.81466,1.4273 1.11424,0.7193 2.22664,1.4417 3.3563,2.1366 1.39523,0.8664 2.76522,1.773 4.16742,2.6254 1.46537,0.8247 2.99554,1.5094 4.46513,2.3246 1.25769,0.7573 2.52826,1.4962 3.63633,2.4712 0.95893,0.8067 1.90978,1.6249 2.82077,2.4857 0.79814,0.7703 1.56035,1.5659 2.13218,2.5244 0.77793,1.244 0.94442,1.2993 -0.4821,2.5955 -0.0258,-0.037 -0.0537,-0.074 -0.0795,-0.1103 -0.0474,-0.066 -0.0947,-0.1309 -0.14192,-0.1965 -0.0835,-0.1168 -0.16855,-0.2333 -0.25281,-0.3499 -0.15009,-0.2077 -0.30009,-0.4155 -0.45018,-0.6232 -0.26716,-0.3697 -0.53421,-0.7394 -0.80147,-1.1092 -0.4729,-0.6542 -0.94571,-1.3084 -1.42117,-1.9608 -0.76252,-1.0426 -1.51746,-2.0953 -2.37768,-3.0607 -1.11515,-1.3411 -2.04436,-2.8146 -3.15334,-4.1617 -1.51867,-1.9002 -3.15729,-3.6957 -4.7428,-5.5398 -1.85795,-2.2047 -3.71558,-4.4199 -5.75605,-6.4591 -1.81014,-1.792 -3.7465,-3.4135 -5.87579,-4.8189 -2.30795,-1.6326 -4.66415,-3.1968 -7.012,-4.7711 -3.03127,-1.8525 -6.12077,-3.5763 -9.39595,-4.9717 -3.62317,-1.654 -7.28625,-3.1972 -11.03414,-4.5515 -4.16133,-1.5179 -8.35107,-2.9578 -12.59272,-4.2367 -5.1164,-1.5407 -10.25854,-2.9913 -15.45775,-4.2288 -5.48694,-1.2747 -11.03507,-2.2783 -16.65457,-2.7503 -6.11592,-0.5278 -12.23595,-1.0081 -18.37247,-1.2268 -6.38224,-0.1975 -12.76811,-0.2632 -19.14811,0.077 -5.98297,0.2782 -11.9533,0.7555 -17.90393,1.4417 -5.41481,0.7345 -10.84008,1.4993 -16.10505,3.0118 -4.61457,1.2636 -9.22927,2.579 -13.65948,4.4044 -2.48507,1.1048 -4.90817,2.3386 -7.2416,3.7378 0,0 -0.86836,-1.3984 -0.86836,-1.3984 z" />
  </g>
</svg>
