<?xml version="1.0" encoding="UTF-8" standalone="no"?>
<svg
   xmlns:dc="http://purl.org/dc/elements/1.1/"
   xmlns:cc="http://creativecommons.org/ns#"
   xmlns:rdf="http://www.w3.org/1999/02/22-rdf-syntax-ns#"
   xmlns:svg="http://www.w3.org/2000/svg"
   xmlns="http://www.w3.org/2000/svg"
   width="386.64105mm"
   height="65.883446mm"
   viewBox="0 0 1369.988 233.44528"
   id="svg2"
   version="1.1">
  <defs
     id="defs4">
    <marker
       orient="auto"
       refY="0"
       refX="0"
       id="Arrow1Lend"
       style="overflow:visible">
      <path
         id="path5845"
         d="M 0,0 5,-5 -12.5,0 5,5 0,0 Z"
         style="fill:#000000;fill-opacity:1;fill-rule:evenodd;stroke:#000000;stroke-width:1pt;stroke-opacity:1"
         transform="matrix(-0.8,0,0,-0.8,-10,0)" />
    </marker>
    <marker
       orient="auto"
       refY="0"
       refX="0"
       id="TriangleOutM"
       style="overflow:visible">
      <path
         id="path5987"
         d="m 5.77,0 -8.65,5 0,-10 8.65,5 z"
         style="fill:#000000;fill-opacity:1;fill-rule:evenodd;stroke:#000000;stroke-width:1pt;stroke-opacity:1"
         transform="scale(0.4,0.4)" />
    </marker>
    <marker
       orient="auto"
       refY="0"
       refX="0"
       id="TriangleInM"
       style="overflow:visible">
      <path
         id="path5978"
         d="m 5.77,0 -8.65,5 0,-10 8.65,5 z"
         style="fill:#000000;fill-opacity:1;fill-rule:evenodd;stroke:#000000;stroke-width:1pt;stroke-opacity:1"
         transform="scale(-0.4,-0.4)" />
    </marker>
    <marker
       orient="auto"
       refY="0"
       refX="0"
       id="Arrow2Mstart"
       style="overflow:visible">
      <path
         id="path5866"
         style="fill:#000000;fill-opacity:1;fill-rule:evenodd;stroke:#000000;stroke-width:0.625;stroke-linejoin:round;stroke-opacity:1"
         d="M 8.7185878,4.0337352 -2.2072895,0.01601326 8.7185884,-4.0017078 c -1.7454984,2.3720609 -1.7354408,5.6174519 -6e-7,8.035443 z"
         transform="scale(0.6,0.6)" />
    </marker>
    <marker
       orient="auto"
       refY="0"
       refX="0"
       id="Arrow1Lstart"
       style="overflow:visible">
      <path
         id="path5842"
         d="M 0,0 5,-5 -12.5,0 5,5 0,0 Z"
         style="fill:#000000;fill-opacity:1;fill-rule:evenodd;stroke:#000000;stroke-width:1pt;stroke-opacity:1"
         transform="matrix(0.8,0,0,0.8,10,0)" />
    </marker>
    <marker
       orient="auto"
       refY="0"
       refX="0"
       id="TriangleInM-6"
       style="overflow:visible">
      <path
         id="path5978-6"
         d="m 5.77,0 -8.65,5 0,-10 8.65,5 z"
         style="fill:#000000;fill-opacity:1;fill-rule:evenodd;stroke:#000000;stroke-width:1pt;stroke-opacity:1"
         transform="scale(-0.4,-0.4)" />
    </marker>
    <marker
       orient="auto"
       refY="0"
       refX="0"
       id="TriangleOutM-4"
       style="overflow:visible">
      <path
         id="path5987-0"
         d="m 5.77,0 -8.65,5 0,-10 8.65,5 z"
         style="fill:#000000;fill-opacity:1;fill-rule:evenodd;stroke:#000000;stroke-width:1pt;stroke-opacity:1"
         transform="scale(0.4,0.4)" />
    </marker>
    <marker
       orient="auto"
       refY="0"
       refX="0"
       id="TriangleInM-6-4"
       style="overflow:visible">
      <path
         id="path5978-6-6"
         d="m 5.77,0 -8.65,5 0,-10 8.65,5 z"
         style="fill:#000000;fill-opacity:1;fill-rule:evenodd;stroke:#000000;stroke-width:1pt;stroke-opacity:1"
         transform="scale(-0.4,-0.4)" />
    </marker>
    <marker
       orient="auto"
       refY="0"
       refX="0"
       id="TriangleOutM-4-2"
       style="overflow:visible">
      <path
         id="path5987-0-6"
         d="m 5.77,0 -8.65,5 0,-10 8.65,5 z"
         style="fill:#000000;fill-opacity:1;fill-rule:evenodd;stroke:#000000;stroke-width:1pt;stroke-opacity:1"
         transform="scale(0.4,0.4)" />
    </marker>
    <marker
       orient="auto"
       refY="0"
       refX="0"
       id="TriangleInM-6-4-5"
       style="overflow:visible">
      <path
         id="path5978-6-6-6"
         d="m 5.77,0 -8.65,5 0,-10 8.65,5 z"
         style="fill:#000000;fill-opacity:1;fill-rule:evenodd;stroke:#000000;stroke-width:1pt;stroke-opacity:1"
         transform="scale(-0.4,-0.4)" />
    </marker>
    <marker
       orient="auto"
       refY="0"
       refX="0"
       id="TriangleOutM-4-2-9"
       style="overflow:visible">
      <path
         id="path5987-0-6-8"
         d="m 5.77,0 -8.65,5 0,-10 8.65,5 z"
         style="fill:#000000;fill-opacity:1;fill-rule:evenodd;stroke:#000000;stroke-width:1pt;stroke-opacity:1"
         transform="scale(0.4,0.4)" />
    </marker>
  </defs>
  <metadata
     id="metadata7">
    <rdf:RDF>
      <cc:Work
         rdf:about="">
        <dc:format>image/svg+xml</dc:format>
        <dc:type
           rdf:resource="http://purl.org/dc/dcmitype/StillImage" />
        <dc:title></dc:title>
      </cc:Work>
    </rdf:RDF>
  </metadata>
  <rect
     ry="2.5544333"
     rx="39.40633"
     y="0.13876076"
     x="3.0946932"
     height="232.50706"
     width="1366.1177"
     id="rect11025-3"
     style="color:#000000;clip-rule:nonzero;display:inline;overflow:visible;visibility:visible;opacity:1;isolation:auto;mix-blend-mode:normal;color-interpolation:sRGB;color-interpolation-filters:linearRGB;solid-color:#000000;solid-opacity:1;fill:#fdfdfd;fill-opacity:1;fill-rule:nonzero;stroke:none;stroke-width:0.8864553;stroke-linecap:round;stroke-linejoin:miter;stroke-miterlimit:20;stroke-dasharray:none;stroke-dashoffset:0;stroke-opacity:1;color-rendering:auto;image-rendering:auto;shape-rendering:auto;text-rendering:auto;enable-background:accumulate" />
  <path
     style="color:#000000;clip-rule:nonzero;display:inline;overflow:visible;visibility:visible;opacity:0.781;isolation:auto;mix-blend-mode:normal;color-interpolation:sRGB;color-interpolation-filters:linearRGB;solid-color:#000000;solid-opacity:1;fill:#000000;fill-opacity:1;fill-rule:nonzero;stroke:#000000;stroke-width:2.00110102;stroke-linecap:butt;stroke-linejoin:miter;stroke-miterlimit:4;stroke-dasharray:none;stroke-dashoffset:0;stroke-opacity:1;color-rendering:auto;image-rendering:auto;shape-rendering:auto;text-rendering:auto;enable-background:accumulate"
     id="path4174-80-8"
     d="m 117.8513,105.5711 c 1.4953,1.1303 3.1446,1.3729 4.7894,1.4085 3.7059,-0.2505 7.2034,-2.1711 10.6142,-4.2285 5.1735,-3.4372 10.146,-7.5353 15.1116,-11.6083 5.9404,-4.8609 11.8354,-9.8477 17.7599,-14.7532 6.218,-5.2388 12.5273,-10.2015 18.9373,-14.8744 5.9928,-4.3681 12.1276,-8.2607 18.2649,-12.1307 6.2034,-3.9618 12.28529,-8.342 18.44899,-12.4411 5.1349,-3.684 10.528,-6.1554 16.1195,-7.5424 4.735,-1.0592 9.4571,-0.4422 14.1189,0.9767 4.7375,1.4484 8.9093,4.8 12.7411,9.1537 4.602,5.9063 8.3338,13.1705 11.9223,20.4694 4.1381,8.7185 7.9182,17.8102 11.8277,26.7649 3.8106,8.8707 7.7342,17.6175 11.8539,26.1636 4.1617,8.4314 8.4398,16.7274 12.6269,25.1297 3.9095,8.1047 8.2678,15.6186 13.4036,21.9585 5.1034,5.9648 10.4264,8.5454 16.7194,9.8228 7.255,1.0751 14.2079,-1.9177 20.9179,-5.7623 8.8263,-5.4199 16.4598,-14.0922 23.8516,-23.0217 7.4778,-9.3328 14.5492,-19.3825 21.6533,-29.3569 6.2502,-8.8752 12.5748,-17.6281 18.877,-26.4182 5.8377,-8.1408 11.5441,-16.4962 17.3977,-24.6109 4.3288,-5.9296 8.7478,-11.7014 13.4604,-16.9178 3.8139,-4.2594 8.0923,-7.282 12.4898,-9.8459 4.3436,-2.6009 8.8774,-3.8069 13.5237,-3.9621 4.8731,-0.037 9.4757,2.0321 13.9149,4.8944 5.4054,3.7162 9.7915,9.7055 13.9841,15.934 5.2441,8.0311 9.8502,16.9303 14.3289,25.9439 5.3401,10.6792 10.0052,22.068 14.5159,33.5784 4.3703,11.7709 9.2082,23.0756 14.6872,33.7196 4.8576,9.3921 10.76171,17.1978 17.13731,24.101 5.633,6.0597 11.9256,10.0223 18.6159,12.3703 6.5327,2.1102 13.0266,0.902 19.3877,-1.734 7.1404,-3.3568 13.1922,-9.9435 18.9645,-16.9339 6.8639,-8.8099 13.3636,-18.2484 19.8758,-27.6459 7.2992,-10.359 14.3346,-21.1215 21.1266,-32.2441 6.6503,-10.904 12.8487,-22.4078 19.0333,-33.9175 5.1538,-9.8576 10.3167,-19.7029 15.6012,-29.3996 4.1266,-7.6503 8.6018,-14.8239 13.5291,-21.2866 4.2218,-5.5125 9.024,-9.7097 14.0927,-13.1217 5.09,-3.2172 9.4133,-3.8846 14.8182,-2.6108 5.4043,1.6444 10.0652,5.9749 14.4169,10.9137 5.5501,6.7425 9.7563,15.4935 13.7858,24.2786 5.1024,11.4685 9.5648,23.5458 13.872,35.7303 3.9649,11.3765 7.5298,23.0569 11.1234,34.7098 2.7832,9.4756 5.8268,18.7536 9.2925,27.6948 3.0371,7.9417 7.0496,14.7673 11.4175,21.051 3.5605,4.6882 7.5951,8.7402 12.1958,10.6114 0.9545,0.3882 1.9364,0.5996 2.9047,0.8994 6.9233,1.4079 13.7151,-0.9714 20.3019,-3.9953 7.6417,-3.7735 14.6725,-9.7013 21.4733,-16.098 7.7194,-7.389 14.4408,-16.7182 20.7975,-26.582 6.8995,-11.0429 12.9291,-23.2278 18.9903,-35.3242 5.5845,-11.4068 11.3353,-22.6203 17.2304,-33.6598 4.6995,-8.6661 9.5872,-17.0959 14.6417,-25.2874 3.4973,-5.6537 7.1834,-11.0221 11.3244,-15.575 3.1322,-3.3381 6.6215,-5.3169 10.4,-5.9984 3.9994,-0.3285 6.5858,2.0964 9.3739,6.1589 3.776,6.4146 6.0309,14.4385 8.1848,22.2927 2.9651,11.7328 5.1055,23.8944 7.3628,35.971 2.4039,13.2096 5.2531,26.2076 8.2545,39.1266 2.7883,11.9788 5.9756,23.7285 9.4267,35.2987 2.5412,8.6273 5.573,16.8908 9.1209,24.6512 2.0416,4.0379 4.1469,8.7012 7.3613,10.7579 0.526,0.3365 1.0922,0.5052 1.6381,0.7578 4.9238,1.1712 8.947,-3.3558 12.6495,-7.6571 5.5109,-7.0467 10.3144,-15.2456 15.203,-23.2517 5.186,-8.5869 10.1811,-17.43 15.1667,-26.2839 4.6765,-8.2934 9.334,-16.6106 13.9681,-24.959 3.701,-6.6878 7.2661,-13.5441 10.8768,-20.3435 3.1124,-5.7256 6.1607,-11.5315 9.3111,-17.2094 2.2431,-4.1176 4.4919,-8.2287 6.9466,-12.0612 1.9096,-2.9846 4.1027,-5.1614 6.7588,-6.1829 3.4127,-0.6512 5.2127,3.1249 6.809,7.0942 2.6325,7.5385 4.3882,15.697 6.2596,23.7191 2.2499,9.9404 4.4724,19.895 6.7642,29.8133 2.2564,9.9186 4.4757,19.855 6.9114,29.6763 2.1848,9.0801 5.031,17.714 8.4268,25.8767 2.7074,6.3258 6.0914,11.6654 10.2927,15.6702 4.419,3.6516 8.136,3.5767 12.9077,1.8636 6.1513,-2.8022 11.0796,-9.0602 15.7683,-15.4579 5.7832,-8.4504 10.9479,-17.8089 16.0749,-27.1661 5.0366,-9.2427 10.0707,-18.4887 15.1279,-27.7055 3.4996,-6.3844 6.9347,-12.8456 10.7283,-18.836 2.6436,-4.1131 5.5449,-7.6945 9.1665,-9.5028 3.6534,-0.8587 5.775,3.2542 7.725,7.2799 2.43,5.7178 4.8128,11.4755 7.3567,17.08 2.4041,5.3399 5.1591,10.2573 8.1413,14.8642 2.1481,3.3135 4.5191,6.2272 7.2886,8.232 2.4434,1.6812 4.7898,1.0725 7.2233,-0.2195 2.6984,-1.798 5.093,-4.4463 7.4201,-7.1549 1.9913,-2.3108 3.7736,-4.9972 5.491,-7.7592 1.4161,-2.2882 2.7133,-4.7373 4.0173,-7.172 0.5129,-1.0278 1.0993,-1.9545 1.6945,-2.8703 0,0 0.6346,0.9525 0.6346,0.9525 l 0,0 c -0.5758,0.8833 -1.1419,1.7791 -1.637,2.7726 -1.3178,2.4607 -2.6292,4.9353 -4.0608,7.2476 -1.7505,2.8138 -3.5674,5.5503 -5.597,7.9044 -2.4027,2.7949 -4.877,5.5248 -7.6696,7.359 -2.6598,1.3974 -5.2418,2 -7.9017,0.1619 -2.8586,-2.0874 -5.322,-5.0686 -7.5395,-8.5044 -3.0177,-4.6639 -5.8067,-9.6402 -8.2398,-15.0451 -2.5387,-5.5935 -4.9193,-11.3372 -7.3411,-17.0468 -1.6969,-3.5158 -3.5192,-7.4144 -6.7294,-6.7937 -3.4873,1.7068 -6.2543,5.2252 -8.8001,9.1537 -3.7794,5.9664 -7.1989,12.406 -10.6857,18.7643 -5.0571,9.2166 -10.091,18.4623 -15.1278,27.7047 -5.1544,9.4074 -10.3475,18.8156 -16.1642,27.3075 -4.8024,6.5484 -9.8563,12.9274 -16.1608,15.7689 -5.1326,1.8187 -8.8343,1.8375 -13.5867,-2.0359 -4.3082,-4.1267 -7.7955,-9.589 -10.5717,-16.0934 -3.4263,-8.2419 -6.3024,-16.9557 -8.5077,-26.1227 -2.4379,-9.831 -4.6598,-19.7768 -6.918,-29.7052 -2.2917,-9.9171 -4.5141,-19.8702 -6.7636,-29.8095 -1.8509,-7.9347 -3.587,-16.0038 -6.1807,-23.4674 -1.3701,-3.4352 -2.8545,-6.9625 -5.831,-6.4836 -2.4987,0.9292 -4.54,3.0265 -6.3351,5.813 -2.4408,3.8083 -4.6735,7.8981 -6.9039,11.9896 -3.1462,5.6701 -6.1904,11.4689 -9.2987,17.1867 -3.6148,6.8071 -7.184,13.671 -10.8891,20.3663 -4.6355,8.3508 -9.2944,16.6704 -13.9724,24.9662 -4.9933,8.8678 -9.9962,17.7245 -15.1904,26.3247 -4.9229,8.0625 -9.7611,16.3187 -15.3155,23.4071 -3.9488,4.5761 -8.2212,9.2316 -13.4558,7.8744 -0.6011,-0.2882 -1.2243,-0.4862 -1.8037,-0.8646 -3.3329,-2.1773 -5.546,-6.9476 -7.6644,-11.1726 -3.5769,-7.8295 -6.6381,-16.1616 -9.2004,-24.8647 -3.4614,-11.6058 -6.6586,-23.3912 -9.4553,-35.407 -3.0078,-12.9457 -5.8625,-25.9706 -8.2716,-39.2073 -2.2477,-12.0254 -4.3785,-24.1355 -7.3282,-35.8203 -2.1058,-7.6836 -4.3041,-15.5416 -7.98,-21.8375 -2.5762,-3.7841 -4.9343,-6.0731 -8.6509,-5.789 -3.628,0.6381 -6.9731,2.5543 -9.9812,5.7503 -4.0968,4.4978 -7.736,9.8169 -11.1961,15.4039 -5.0403,8.1675 -9.9136,16.5734 -14.5999,25.2142 -5.8893,11.0287 -11.6343,22.2312 -17.2134,33.6269 -6.0834,12.141 -12.1362,24.3698 -19.0625,35.4515 -6.4079,9.9405 -13.1841,19.3407 -20.9655,26.7861 -6.8674,6.4573 -13.968,12.4382 -21.6851,16.2431 -6.7297,3.085 -13.6682,5.4927 -20.7391,4.0257 -1.0037,-0.3144 -2.0215,-0.5373 -3.0105,-0.943 -4.7229,-1.9366 -8.869,-6.0899 -12.5245,-10.9117 -4.4271,-6.3729 -8.4936,-13.2954 -11.5727,-21.3472 -3.479,-8.9785 -6.5375,-18.2928 -9.3316,-27.8076 -3.5865,-11.6303 -7.1443,-23.2885 -11.1013,-34.6433 -4.2909,-12.1388 -8.7358,-24.1708 -13.8182,-35.5969 -3.9741,-8.667 -8.1183,-17.3075 -13.588,-23.968 -4.2323,-4.8109 -8.7638,-9.0427 -14.0203,-10.66 -5.1377,-1.23 -9.4845,-0.5846 -14.319,2.511 -4.9898,3.3538 -9.7153,7.485 -13.8711,12.9084 -4.891,6.4109 -9.3291,13.5344 -13.4246,21.1249 -5.2835,9.6943 -10.4448,19.5373 -15.5974,29.3923 -6.1964,11.5319 -12.4073,23.0574 -19.0702,33.9822 -6.8052,11.1433 -13.8536,21.9265 -21.1662,32.3049 -6.5312,9.4246 -13.0496,18.8903 -19.9344,27.7232 -5.8687,7.1034 -12.0254,13.7828 -19.2861,17.1818 -6.5878,2.7194 -13.0572,3.9006 -19.8235,1.7467 -6.8028,-2.3975 -13.2049,-6.4203 -18.9329,-12.5872 -6.4437,-6.9817 -12.41201,-14.8738 -17.32211,-24.3698 -5.501,-10.6903 -10.3627,-22.0397 -14.7509,-33.861 -4.4938,-11.468 -9.1413,-22.8153 -14.4613,-33.4551 -4.4518,-8.9599 -9.0292,-17.807 -14.2408,-25.7917 -4.1124,-6.1117 -8.4085,-12.001 -13.7093,-15.6554 -4.321,-2.7935 -8.801,-4.8166 -13.5465,-4.7868 -4.5438,0.1445 -8.9757,1.3305 -13.2232,3.8726 -4.3249,2.519 -8.5335,5.4877 -12.2839,9.6759 -4.6868,5.1856 -9.0792,10.9286 -13.3845,16.8234 -5.8529,8.1136 -11.5583,16.4686 -17.3958,24.608 -6.3012,8.7892 -12.6252,17.541 -18.8747,26.4153 -7.1202,9.9971 -14.208,20.0695 -21.7034,29.4224 -7.4651,9.0163 -15.1773,17.7639 -24.0924,23.2292 -6.8505,3.918 -13.9476,6.9504 -21.3513,5.8373 -6.4601,-1.3241 -11.9275,-3.9849 -17.1638,-10.1146 -5.1878,-6.4153 -9.6026,-13.9954 -13.5522,-22.1919 -4.1897,-8.4082 -8.471,-16.7096 -12.6354,-25.1471 -4.1276,-8.5631 -8.0594,-17.3269 -11.8775,-26.2152 -3.9004,-8.9336 -7.6716,-18.004 -11.7989,-26.703 -3.5371,-7.1962 -7.2134,-14.3602 -11.7424,-20.1957 -3.7214,-4.2409 -7.7763,-7.4985 -12.3817,-8.9096 -4.5559,-1.3916 -9.171,-1.9985 -13.7999,-0.9678 -5.5182,1.3644 -10.8381,3.8103 -15.9051,7.4462 -6.1691,4.1025 -12.25589,8.487 -18.46459,12.4513 -6.1226,3.8607 -12.2425,7.7435 -18.2211,12.1009 -6.396,4.6626 -12.6915,9.615 -18.8962,14.8424 -5.9254,4.9064 -11.8216,9.8941 -17.763,14.7559 -4.9963,4.098 -9.9997,8.2214 -15.2063,11.6754 -3.5205,2.121 -7.1323,4.0888 -10.9577,4.324 -1.7603,-0.049 -3.5251,-0.3132 -5.1269,-1.5179 0,0 0.3517,-1.2454 0.3517,-1.2454 z" />
  <path
     style="color:#000000;clip-rule:nonzero;display:inline;overflow:visible;visibility:visible;opacity:0.781;isolation:auto;mix-blend-mode:normal;color-interpolation:sRGB;color-interpolation-filters:linearRGB;solid-color:#000000;solid-opacity:1;fill:#000000;fill-opacity:1;fill-rule:nonzero;stroke:#999999;stroke-width:2.00110102;stroke-linecap:butt;stroke-linejoin:miter;stroke-miterlimit:4;stroke-dasharray:none;stroke-dashoffset:0;stroke-opacity:1;color-rendering:auto;image-rendering:auto;shape-rendering:auto;text-rendering:auto;enable-background:accumulate"
     id="path4174-80-0-1"
     d="m 117.0747,127.8741 c 1.4953,-1.1303 3.1445,-1.3729 4.7893,-1.4085 3.7059,0.2506 7.2034,2.1711 10.6142,4.2285 5.1735,3.4372 10.146,7.5353 15.1116,11.6083 5.9404,4.861 11.8354,9.8477 17.7599,14.7533 6.218,5.2387 12.5273,10.2014 18.9373,14.8743 5.9928,4.3681 12.1276,8.2607 18.2649,12.1307 6.2034,3.9618 12.2853,8.342 18.44899,12.4411 5.1349,3.684 10.528,6.1554 16.1195,7.5424 4.735,1.0593 9.4572,0.4423 14.119,-0.9767 4.7374,-1.4484 8.9092,-4.8 12.741,-9.1537 4.6021,-5.9062 8.3339,-13.1705 11.9223,-20.4693 4.1381,-8.7186 7.9182,-17.8103 11.8277,-26.765 3.8106,-8.8706 7.7342,-17.6175 11.8539,-26.1636 4.1617,-8.4314 8.4398,-16.7274 12.627,-25.1296 3.9095,-8.1047 8.2678,-15.6187 13.4036,-21.9586 5.1034,-5.9647 10.4264,-8.5453 16.7194,-9.8228 7.2549,-1.0751 14.2079,1.9177 20.9179,5.7623 8.8263,5.4199 16.4598,14.0922 23.8515,23.0218 7.4779,9.3327 14.5493,19.3824 21.6533,29.3568 6.2502,8.8753 12.5748,17.6282 18.8771,26.4182 5.8377,8.1408 11.5441,16.4963 17.3977,24.6109 4.3287,5.9296 8.7477,11.7014 13.4604,16.9178 3.8138,4.2594 8.0923,7.282 12.4898,9.8459 4.3436,2.6009 8.8773,3.8069 13.5237,3.9621 4.873,0.037 9.4756,-2.0321 13.9149,-4.8944 5.4054,-3.7162 9.7914,-9.7055 13.9841,-15.934 5.2441,-8.0311 9.8501,-16.9303 14.3288,-25.9439 5.34,-10.6792 10.0053,-22.068 14.516,-33.5784 4.3702,-11.7708 9.2081,-23.0755 14.687,-33.7196 4.8577,-9.3921 10.76191,-17.1977 17.13741,-24.101 5.633,-6.0597 11.9256,-10.0223 18.6159,-12.3702 6.5328,-2.1102 13.0265,-0.9021 19.3878,1.7339 7.1403,3.3568 13.1921,9.9435 18.9645,16.934 6.8639,8.8098 13.3634,18.2483 19.8757,27.6459 7.2993,10.3589 14.3346,21.1214 21.1267,32.2441 6.6501,10.904 12.8486,22.4077 19.0333,33.9174 5.1537,9.8576 10.3167,19.7029 15.6011,29.3996 4.1266,7.6504 8.6019,14.8239 13.5292,21.2866 4.2217,5.5125 9.0239,9.7097 14.0926,13.1217 5.0901,3.2172 9.4133,3.8846 14.8182,2.6109 5.4044,-1.6445 10.0653,-5.975 14.4168,-10.9138 5.5502,-6.7425 9.7565,-15.4934 13.7859,-24.2786 5.1025,-11.4685 9.5648,-23.5458 13.8721,-35.7303 3.9648,-11.3765 7.5298,-23.0569 11.1234,-34.7097 2.7831,-9.4756 5.8268,-18.7536 9.2925,-27.6949 3.037,-7.9417 7.0496,-14.7673 11.4174,-21.0509 3.5606,-4.6883 7.5952,-8.7403 12.1958,-10.6115 0.9546,-0.3882 1.9364,-0.5996 2.9047,-0.8994 6.9233,-1.4079 13.7151,0.9714 20.302,3.9953 7.6416,3.7735 14.6725,9.7013 21.4732,16.098 7.7194,7.389 14.4409,16.7182 20.7975,26.582 6.8996,11.0429 12.9292,23.2278 18.9904,35.3242 5.5844,11.4069 11.3353,22.6203 17.2303,33.6599 4.6996,8.666 9.5873,17.0959 14.6418,25.2873 3.4972,5.6537 7.1834,11.0221 11.3244,15.5751 3.1321,3.338 6.6214,5.3168 10.4,5.9983 3.9993,0.3285 6.5858,-2.0964 9.3738,-6.1589 3.7761,-6.4146 6.031,-14.4384 8.1848,-22.2927 2.9651,-11.7328 5.1055,-23.8944 7.3628,-35.971 2.404,-13.2096 5.2531,-26.2075 8.2546,-39.1265 2.7882,-11.9789 5.9755,-23.7286 9.4267,-35.2988 2.5412,-8.6273 5.5729,-16.8908 9.1207,-24.6512 2.0418,-4.0379 4.147,-8.7012 7.3615,-10.7579 0.5259,-0.3365 1.0922,-0.5051 1.6381,-0.7578 4.9236,-1.1712 8.9469,3.3559 12.6494,7.6572 5.5109,7.0466 10.3145,15.2455 15.2031,23.2516 5.186,8.587 10.1811,17.43 15.1666,26.2839 4.6766,8.2934 9.3341,16.6106 13.9682,24.959 3.701,6.6878 7.266,13.5442 10.8768,20.3435 3.1123,5.7256 6.1606,11.5315 9.3111,17.2094 2.2431,4.1176 4.4918,8.2288 6.9465,12.0613 1.9097,2.9845 4.1027,5.1614 6.7588,6.1828 3.4127,0.6512 5.2127,-3.1248 6.8091,-7.0942 2.6324,-7.5385 4.3882,-15.697 6.2595,-23.7191 2.25,-9.9404 4.4725,-19.895 6.7643,-29.8133 2.2564,-9.9185 4.4756,-19.855 6.9113,-29.6763 2.1849,-9.0801 5.0311,-17.714 8.4269,-25.8766 2.7073,-6.3259 6.0914,-11.6655 10.2927,-15.6703 4.4189,-3.6516 8.1359,-3.5767 12.9076,-1.8636 6.1513,2.8023 11.0797,9.0603 15.7683,15.458 5.7832,8.4503 10.9479,17.8088 16.0749,27.1661 5.0366,9.2426 10.0707,18.4886 15.1279,27.7054 3.4996,6.3844 6.9347,12.8456 10.7283,18.8361 2.6436,4.113 5.5449,7.6945 9.1665,9.5028 3.6534,0.8586 5.7751,-3.2543 7.725,-7.2799 2.4301,-5.7178 4.8128,-11.4755 7.3567,-17.0801 2.4041,-5.3399 5.159,-10.2573 8.1413,-14.8642 2.1481,-3.3134 4.5192,-6.2271 7.2885,-8.232 2.4436,-1.6812 4.79,-1.0725 7.2234,0.2195 2.6983,1.798 5.093,4.4463 7.4201,7.1549 1.9914,2.3108 3.7736,4.9972 5.491,7.7592 1.4162,2.2882 2.7134,4.7374 4.0173,7.172 0.5129,1.0278 1.0993,1.9546 1.6945,2.8703 0,0 0.6346,-0.9525 0.6346,-0.9525 l 0,0 c -0.5758,-0.8833 -1.1419,-1.7791 -1.637,-2.7726 -1.3178,-2.4607 -2.6292,-4.9353 -4.0608,-7.2475 -1.7505,-2.8139 -3.5673,-5.5504 -5.597,-7.9045 -2.4027,-2.7949 -4.877,-5.5248 -7.6696,-7.359 -2.6598,-1.3974 -5.2417,-2 -7.9017,-0.1618 -2.8586,2.0874 -5.322,5.0685 -7.5395,8.5043 -3.0177,4.6639 -5.8066,9.6402 -8.2398,15.0451 -2.5387,5.5935 -4.9192,11.3372 -7.3411,17.0469 -1.6968,3.5157 -3.5192,7.4143 -6.7294,6.7936 -3.4873,-1.7067 -6.2543,-5.2252 -8.8001,-9.1537 -3.7794,-5.9664 -7.1989,-12.406 -10.6856,-18.7642 -5.0572,-9.2167 -10.0911,-18.4624 -15.1278,-27.7047 -5.1545,-9.4075 -10.3475,-18.8157 -16.1644,-27.3076 -4.8023,-6.5484 -9.8561,-12.9274 -16.1607,-15.7689 -5.1325,-1.8187 -8.8343,-1.8375 -13.5866,2.0359 -4.3083,4.1267 -7.7955,9.589 -10.5717,16.0934 -3.4264,8.2419 -6.3025,16.9557 -8.5077,26.1227 -2.438,9.831 -4.6598,19.7768 -6.9181,29.7052 -2.2917,9.9171 -4.5141,19.8702 -6.7636,29.8095 -1.8509,7.9347 -3.587,16.0038 -6.1807,23.4674 -1.3701,3.4353 -2.8544,6.9625 -5.831,6.4836 -2.4987,-0.9292 -4.5399,-3.0265 -6.3351,-5.813 -2.4407,-3.8083 -4.6734,-7.898 -6.9039,-11.9895 -3.1461,-5.6701 -6.1903,-11.4689 -9.2987,-17.1868 -3.6147,-6.807 -7.1839,-13.671 -10.889,-20.3663 -4.6356,-8.3508 -9.2945,-16.6704 -13.9725,-24.9662 -4.9933,-8.8678 -9.9962,-17.7245 -15.1904,-26.3247 -4.9228,-8.0625 -9.7612,-16.3187 -15.3154,-23.407 -3.9488,-4.5762 -8.2212,-9.2317 -13.456,-7.8745 -0.601,0.2883 -1.2241,0.4863 -1.8035,0.8647 -3.333,2.1773 -5.5461,6.9475 -7.6644,11.1725 -3.5769,7.8295 -6.6382,16.1616 -9.2004,24.8647 -3.4615,11.6058 -6.6587,23.3913 -9.4553,35.407 -3.0079,12.9457 -5.8625,25.9706 -8.2716,39.2074 -2.2478,12.0253 -4.3785,24.1355 -7.3282,35.8202 -2.1058,7.6837 -4.3042,15.5416 -7.9801,21.8375 -2.5762,3.7841 -4.9343,6.0731 -8.6509,5.789 -3.628,-0.6381 -6.973,-2.5542 -9.9812,-5.7503 -4.0967,-4.4978 -7.7359,-9.8169 -11.1961,-15.4038 -5.0403,-8.1675 -9.9136,-16.5735 -14.5999,-25.2142 -5.8893,-11.0288 -11.6342,-22.2313 -17.2133,-33.6269 -6.0834,-12.1411 -12.1363,-24.3698 -19.0626,-35.4516 -6.4079,-9.9405 -13.1842,-19.3407 -20.9655,-26.7861 -6.8673,-6.4573 -13.9679,-12.4382 -21.685,-16.2431 -6.7297,-3.085 -13.6683,-5.4927 -20.7391,-4.0256 -1.0037,0.3143 -2.0216,0.5372 -3.0106,0.9429 -4.7228,1.9366 -8.8689,6.09 -12.5244,10.9117 -4.4272,6.3729 -8.4936,13.2954 -11.5728,21.3473 -3.4791,8.9784 -6.5375,18.2927 -9.3315,27.8075 -3.5865,11.6303 -7.1444,23.2885 -11.1014,34.6433 -4.2909,12.1388 -8.7358,24.1708 -13.8182,35.597 -3.974,8.6669 -8.1182,17.3074 -13.588,23.9679 -4.2322,4.811 -8.7638,9.0427 -14.0203,10.66 -5.1377,1.23 -9.4844,0.5847 -14.3189,-2.511 -4.9898,-3.3537 -9.7153,-7.485 -13.8711,-12.9083 -4.891,-6.4109 -9.3292,-13.5345 -13.4246,-21.1249 -5.2836,-9.6943 -10.4449,-19.5374 -15.5974,-29.3924 -6.1964,-11.5319 -12.4073,-23.0574 -19.0703,-33.9822 -6.8051,-11.1433 -13.8536,-21.9265 -21.1662,-32.3049 -6.5312,-9.4246 -13.0496,-18.8903 -19.9343,-27.7232 -5.8688,-7.1034 -12.0254,-13.7827 -19.2863,-17.1818 -6.5876,-2.7193 -13.0571,-3.9006 -19.8233,-1.7467 -6.8028,2.3975 -13.2049,6.4204 -18.933,12.5872 -6.4436,6.9818 -12.41201,14.8738 -17.32211,24.3698 -5.501,10.6904 -10.3627,22.0398 -14.7509,33.861 -4.4938,11.468 -9.1412,22.8153 -14.4612,33.4551 -4.4519,8.96 -9.0293,17.807 -14.2408,25.7917 -4.1124,6.1117 -8.4085,12.0011 -13.7093,15.6555 -4.3211,2.7934 -8.8012,4.8166 -13.5465,4.7867 -4.5438,-0.1445 -8.9757,-1.3305 -13.2232,-3.8725 -4.325,-2.5191 -8.5335,-5.4877 -12.2839,-9.6759 -4.6868,-5.1857 -9.0792,-10.9286 -13.3845,-16.8235 -5.8529,-8.1135 -11.5583,-16.4686 -17.3959,-24.608 -6.3012,-8.7892 -12.6251,-17.541 -18.8746,-26.4152 -7.1203,-9.9972 -14.208,-20.0696 -21.7035,-29.4224 -7.4651,-9.0164 -15.1772,-17.764 -24.0925,-23.2293 -6.8503,-3.918 -13.9475,-6.9503 -21.3512,-5.8373 -6.4601,1.3241 -11.9274,3.9849 -17.1637,10.1147 -5.1878,6.4152 -9.6026,13.9954 -13.5522,22.1919 -4.1897,8.4081 -8.4711,16.7095 -12.6356,25.147 -4.1276,8.5631 -8.0594,17.3269 -11.8774,26.2152 -3.9004,8.9337 -7.6716,18.004 -11.7988,26.7031 -3.5372,7.1961 -7.2134,14.3602 -11.7425,20.1956 -3.7214,4.2409 -7.7762,7.4985 -12.3817,8.9096 -4.5559,1.3917 -9.1709,1.9985 -13.7998,0.9678 -5.5183,-1.3644 -10.8382,-3.8103 -15.9052,-7.4461 -6.16909,-4.1026 -12.25589,-8.4871 -18.46459,-12.4514 -6.1227,-3.8607 -12.2425,-7.7434 -18.2211,-12.1008 -6.3961,-4.6627 -12.6915,-9.6151 -18.8962,-14.8425 -5.9254,-4.9063 -11.8216,-9.894 -17.763,-14.7558 -4.9963,-4.0981 -9.9997,-8.2214 -15.2064,-11.6755 -3.5204,-2.121 -7.1322,-4.0888 -10.9576,-4.3239 -1.7603,0.049 -3.525,0.3132 -5.1268,1.5179 0,0 0.3517,1.2453 0.3517,1.2453 z" />
  <path
     style="color:#000000;clip-rule:nonzero;display:inline;overflow:visible;visibility:visible;opacity:0.781;isolation:auto;mix-blend-mode:normal;color-interpolation:sRGB;color-interpolation-filters:linearRGB;solid-color:#000000;solid-opacity:1;fill:#666666;fill-opacity:1;fill-rule:nonzero;stroke:#666666;stroke-width:2.00110102;stroke-linecap:butt;stroke-linejoin:miter;stroke-miterlimit:4;stroke-dasharray:none;stroke-dashoffset:0;stroke-opacity:1;color-rendering:auto;image-rendering:auto;shape-rendering:auto;text-rendering:auto;enable-background:accumulate"
     id="path4174-80-0-1-9"
     d="m 179.09581,115.4336 c 1.4953,-1.1303 3.1445,-1.3729 4.7893,-1.4085 3.7059,0.2506 7.2034,2.1711 10.6142,4.2285 5.1735,3.4372 10.146,7.5353 15.1116,11.6083 5.9404,4.861 11.8354,9.8477 17.7599,14.7533 6.218,5.2387 12.5273,10.2014 18.9373,14.8743 5.9928,4.3681 12.1276,8.2607 18.2649,12.1307 6.2034,3.9618 12.2853,8.342 18.44899,12.4411 5.1349,3.684 10.528,6.1554 16.1195,7.5424 4.735,1.0593 9.4572,0.4423 14.119,-0.9767 4.7374,-1.4484 8.9092,-4.8 12.741,-9.1537 4.6021,-5.9062 8.3339,-13.1705 11.9223,-20.4693 4.1381,-8.7186 7.9182,-17.8103 11.8277,-26.765 3.8106,-8.8706 7.7342,-17.6175 11.8539,-26.1636 4.1617,-8.4314 8.4398,-16.7274 12.627,-25.1296 3.9095,-8.1047 8.2678,-15.6187 13.4036,-21.9586 5.1034,-5.9647 10.4264,-8.5453 16.7194,-9.8228 7.2549,-1.0751 14.2079,1.9177 20.9179,5.7623 8.8263,5.4199 16.4598,14.0922 23.8515,23.0218 7.4779,9.3327 14.5493,19.3824 21.6533,29.3568 6.2502,8.8753 12.5748,17.6282 18.8771,26.4182 5.8377,8.1408 11.5441,16.4963 17.3977,24.6109 4.3287,5.9296 8.7477,11.7014 13.4604,16.9178 3.8138,4.2594 8.0923,7.282 12.4898,9.8459 4.3436,2.6009 8.8773,3.8069 13.5237,3.9621 4.873,0.037 9.4756,-2.0321 13.9149,-4.8944 5.4054,-3.7162 9.7914,-9.7055 13.9841,-15.934 5.2441,-8.0311 9.8501,-16.9303 14.3288,-25.9439 5.34,-10.6792 10.0053,-22.068 14.516,-33.5784 4.3702,-11.7708 9.2081,-23.0755 14.687,-33.7196 4.8577,-9.3921 10.7619,-17.1977 17.1374,-24.101 5.633,-6.0597 11.9256,-10.0223 18.6159,-12.3702 6.5328,-2.1102 13.0265,-0.9021 19.3878,1.7339 7.1403,3.3568 13.1921,9.9435 18.9645,16.934 6.8639,8.8098 13.3634,18.2483 19.8757,27.6459 7.2993,10.3589 14.3346,21.1214 21.1267,32.2441 6.6501,10.904 12.8486,22.4077 19.0333,33.9174 5.1537,9.8576 10.3167,19.7029 15.6011,29.3996 4.1266,7.6504 8.6019,14.8239 13.5292,21.2866 4.2217,5.5125 9.0239,9.7097 14.0926,13.1217 5.0901,3.2172 9.4133,3.8846 14.8182,2.6109 5.4044,-1.6445 10.0653,-5.975 14.4168,-10.9138 5.5502,-6.7425 9.7565,-15.4934 13.7859,-24.2786 5.1025,-11.4685 9.5648,-23.5458 13.8721,-35.7303 3.9648,-11.3765 7.5298,-23.0569 11.1234,-34.7097 2.7831,-9.4756 5.8268,-18.7536 9.2925,-27.6949 3.037,-7.9417 7.0496,-14.7673 11.4174,-21.0509 3.5606,-4.6883 7.5952,-8.7403 12.1958,-10.6115 0.9546,-0.3882 1.9364,-0.5996 2.9047,-0.8994 6.9233,-1.4079 13.7151,0.9714 20.302,3.9953 7.6416,3.7735 14.6725,9.7013 21.4732,16.098 7.7194,7.389 14.4409,16.7182 20.7975,26.582 6.8996,11.0429 12.9292,23.2278 18.9904,35.3242 5.5844,11.4069 11.3353,22.6203 17.2303,33.6599 4.6996,8.666 9.5873,17.0959 14.6418,25.2873 3.4972,5.6537 7.1834,11.0221 11.3244,15.5751 3.1321,3.338 6.6214,5.3168 10.4,5.9983 3.9993,0.3285 6.5858,-2.0964 9.3738,-6.1589 3.7761,-6.4146 6.031,-14.4384 8.1848,-22.2927 2.9651,-11.7328 5.1055,-23.8944 7.3628,-35.971 2.404,-13.2096 5.2531,-26.2075 8.2546,-39.1265 2.7882,-11.9789 5.9755,-23.7286 9.4267,-35.2988 2.5412,-8.6273 5.5729,-16.8908 9.1207,-24.6512 2.0418,-4.0379 4.147,-8.7012 7.3615,-10.7579 0.5259,-0.3365 1.0922,-0.5051 1.6381,-0.7578 4.9236,-1.1712 8.9469,3.3559 12.6494,7.6572 5.5109,7.0466 10.3145,15.2455 15.2031,23.2516 5.186,8.587 10.1811,17.43 15.1666,26.2839 4.6766,8.2934 9.3341,16.6106 13.9682,24.959 3.701,6.6878 7.266,13.5442 10.8768,20.3435 3.1123,5.7256 6.1606,11.5315 9.3111,17.2094 2.2431,4.1176 4.4918,8.2288 6.9465,12.0613 1.9097,2.9845 4.1027,5.1614 6.7588,6.1828 3.4127,0.6512 5.2127,-3.1248 6.8091,-7.0942 2.6324,-7.5385 4.3882,-15.697 6.2595,-23.7191 2.25,-9.9404 4.4725,-19.895 6.7643,-29.8133 2.2564,-9.9185 4.4756,-19.855 6.9113,-29.6763 2.1849,-9.0801 5.0311,-17.714 8.4269,-25.8766 2.7073,-6.3259 6.0914,-11.6655 10.2927,-15.6703 4.4189,-3.6516 8.1359,-3.5767 12.9076,-1.8636 6.1513,2.8023 11.0797,9.0603 15.7683,15.458 5.7832,8.4503 10.9479,17.8088 16.0749,27.1661 5.0366,9.2426 10.0707,18.4886 15.1279,27.7054 3.4996,6.3844 6.9347,12.8456 10.7283,18.8361 2.6436,4.113 5.5449,7.6945 9.1665,9.5028 3.6534,0.8586 5.7751,-3.2543 7.725,-7.2799 2.4301,-5.7178 4.8128,-11.4755 7.3567,-17.0801 2.4041,-5.3399 5.159,-10.2573 8.1413,-14.8642 2.1481,-3.3134 4.5192,-6.2271 7.2885,-8.232 2.4436,-1.6812 4.79,-1.0725 7.2234,0.2195 2.6983,1.798 5.093,4.4463 7.4201,7.1549 1.9914,2.3108 3.7736,4.9972 5.491,7.7592 1.4162,2.2882 2.7134,4.7374 4.0173,7.172 0.5129,1.0278 1.0993,1.9546 1.6945,2.8703 0,0 0.6346,-0.9525 0.6346,-0.9525 l 0,0 c -0.5758,-0.8833 -1.1419,-1.7791 -1.637,-2.7726 -1.3178,-2.4607 -2.6292,-4.9353 -4.0608,-7.2475 -1.7505,-2.8139 -3.5673,-5.5504 -5.597,-7.9045 -2.4027,-2.7949 -4.877,-5.5248 -7.6696,-7.359 -2.6598,-1.3974 -5.2417,-2 -7.9017,-0.1618 -2.8586,2.0874 -5.322,5.0685 -7.5395,8.5043 -3.0177,4.6639 -5.8066,9.6402 -8.2398,15.0451 -2.5387,5.5935 -4.9192,11.3372 -7.3411,17.0469 -1.6968,3.5157 -3.5192,7.4143 -6.7294,6.7936 -3.4873,-1.7067 -6.2543,-5.2252 -8.8001,-9.1537 -3.7794,-5.9664 -7.1989,-12.406 -10.6856,-18.7642 -5.0572,-9.2167 -10.0911,-18.4624 -15.1278,-27.7047 -5.1545,-9.4075 -10.3475,-18.8157 -16.1644,-27.3076 -4.8023,-6.5484 -9.8561,-12.9274 -16.1607,-15.7689 -5.1325,-1.8187 -8.8343,-1.8375 -13.5866,2.0359 -4.3083,4.1267 -7.7955,9.589 -10.5717,16.0934 -3.4264,8.2419 -6.3025,16.9557 -8.5077,26.1227 -2.438,9.831 -4.6598,19.7768 -6.9181,29.7052 -2.2917,9.9171 -4.5141,19.8702 -6.7636,29.8095 -1.8509,7.9347 -3.587,16.0038 -6.1807,23.4674 -1.3701,3.4353 -2.8544,6.9625 -5.831,6.4836 -2.4987,-0.9292 -4.5399,-3.0265 -6.3351,-5.813 -2.4407,-3.8083 -4.6734,-7.898 -6.9039,-11.9895 -3.1461,-5.6701 -6.1903,-11.4689 -9.2987,-17.1868 -3.6147,-6.807 -7.1839,-13.671 -10.889,-20.3663 -4.6356,-8.3508 -9.2945,-16.6704 -13.9725,-24.9662 -4.9933,-8.8678 -9.9962,-17.7245 -15.1904,-26.3247 -4.9228,-8.0625 -9.7612,-16.3187 -15.3154,-23.407 -3.9488,-4.5762 -8.2212,-9.2317 -13.456,-7.8745 -0.601,0.2883 -1.2241,0.4863 -1.8035,0.8647 -3.333,2.1773 -5.5461,6.9475 -7.6644,11.1725 -3.5769,7.8295 -6.6382,16.1616 -9.2004,24.8647 -3.4615,11.6058 -6.6587,23.3913 -9.4553,35.407 -3.0079,12.9457 -5.8625,25.9706 -8.2716,39.2074 -2.2478,12.0253 -4.3785,24.1355 -7.3282,35.8202 -2.1058,7.6837 -4.3042,15.5416 -7.9801,21.8375 -2.5762,3.7841 -4.9343,6.0731 -8.6509,5.789 -3.628,-0.6381 -6.973,-2.5542 -9.9812,-5.7503 -4.0967,-4.4978 -7.7359,-9.8169 -11.1961,-15.4038 -5.0403,-8.1675 -9.9136,-16.5735 -14.5999,-25.2142 -5.8893,-11.0288 -11.6342,-22.2313 -17.2133,-33.6269 -6.0834,-12.1411 -12.1363,-24.3698 -19.0626,-35.4516 -6.4079,-9.9405 -13.1842,-19.3407 -20.9655,-26.7861 -6.8673,-6.4573 -13.9679,-12.4382 -21.685,-16.2431 -6.7297,-3.085 -13.6683,-5.4927 -20.7391,-4.0256 -1.0037,0.3143 -2.0216,0.5372 -3.0106,0.9429 -4.7228,1.9366 -8.8689,6.09 -12.5244,10.9117 -4.4272,6.3729 -8.4936,13.2954 -11.5728,21.3473 -3.4791,8.9784 -6.5375,18.2927 -9.3315,27.8075 -3.5865,11.6303 -7.1444,23.2885 -11.1014,34.6433 -4.2909,12.1388 -8.7358,24.1708 -13.8182,35.597 -3.974,8.6669 -8.1182,17.3074 -13.588,23.9679 -4.2322,4.811 -8.7638,9.0427 -14.0203,10.66 -5.1377,1.23 -9.4844,0.5847 -14.3189,-2.511 -4.9898,-3.3537 -9.7153,-7.485 -13.8711,-12.9083 -4.891,-6.4109 -9.3292,-13.5345 -13.4246,-21.1249 -5.2836,-9.6943 -10.4449,-19.5374 -15.5974,-29.3924 C 746.5938,140.6055 740.3829,129.08 733.7199,118.1552 726.9148,107.0119 719.8663,96.2287 712.5537,85.8503 706.0225,76.4257 699.5041,66.96 692.6194,58.1271 686.7506,51.0237 680.594,44.3444 673.3331,40.9453 666.7455,38.226 660.276,37.0447 653.5098,39.1986 c -6.8028,2.3975 -13.2049,6.4204 -18.933,12.5872 -6.4436,6.9818 -12.412,14.8738 -17.3221,24.3698 -5.501,10.6904 -10.3627,22.0398 -14.7509,33.861 -4.4938,11.468 -9.1412,22.8153 -14.4612,33.4551 -4.4519,8.96 -9.0293,17.807 -14.2408,25.7917 -4.1124,6.1117 -8.4085,12.0011 -13.7093,15.6555 -4.3211,2.7934 -8.8012,4.8166 -13.5465,4.7867 -4.5438,-0.1445 -8.9757,-1.3305 -13.2232,-3.8725 -4.325,-2.5191 -8.5335,-5.4877 -12.2839,-9.6759 -4.6868,-5.1857 -9.0792,-10.9286 -13.3845,-16.8235 -5.8529,-8.1135 -11.5583,-16.4686 -17.3959,-24.608 -6.3012,-8.7892 -12.6251,-17.541 -18.8746,-26.4152 -7.1203,-9.9972 -14.208,-20.0696 -21.7035,-29.4224 -7.4651,-9.0164 -15.1772,-17.764 -24.0925,-23.2293 -6.8503,-3.918 -13.9475,-6.9503 -21.3512,-5.8373 -6.4601,1.3241 -11.9274,3.9849 -17.1637,10.1147 -5.1878,6.4152 -9.6026,13.9954 -13.5522,22.1919 -4.1897,8.4081 -8.4711,16.7095 -12.6356,25.147 -4.1276,8.5631 -8.0594,17.3269 -11.8774,26.2152 -3.9004,8.9337 -7.6716,18.004 -11.7988,26.7031 -3.5372,7.1961 -7.2134,14.3602 -11.7425,20.1956 -3.7214,4.2409 -7.7762,7.4985 -12.3817,8.9096 -4.5559,1.3917 -9.1709,1.9985 -13.7998,0.9678 -5.5183,-1.3644 -10.8382,-3.8103 -15.9052,-7.4461 -6.16909,-4.1026 -12.25589,-8.4871 -18.46459,-12.4514 -6.1227,-3.8607 -12.2425,-7.7434 -18.2211,-12.1008 -6.3961,-4.6627 -12.6915,-9.6151 -18.8962,-14.8425 -5.9254,-4.9063 -11.8216,-9.894 -17.763,-14.7558 -4.9963,-4.0981 -9.9997,-8.2214 -15.2064,-11.6755 -3.5204,-2.121 -7.1322,-4.0888 -10.9576,-4.3239 -1.7603,0.049 -3.525,0.3132 -5.1268,1.5179 0,0 0.3517,1.2453 0.3517,1.2453 z" />
  <path
     style="color:#000000;clip-rule:nonzero;display:inline;overflow:visible;visibility:visible;opacity:0.781;isolation:auto;mix-blend-mode:normal;color-interpolation:sRGB;color-interpolation-filters:linearRGB;solid-color:#000000;solid-opacity:1;fill:#4d4d4d;fill-opacity:1;fill-rule:nonzero;stroke:#4d4d4d;stroke-width:2.00110102;stroke-linecap:butt;stroke-linejoin:miter;stroke-miterlimit:4;stroke-dasharray:none;stroke-dashoffset:0;stroke-opacity:1;color-rendering:auto;image-rendering:auto;shape-rendering:auto;text-rendering:auto;enable-background:accumulate"
     id="path4174-80-0-1-97"
     d="m 170.29272,126.8147 c 1.4953,1.1303 3.1445,1.3729 4.7893,1.4085 3.7059,-0.2506 7.2034,-2.1711 10.6142,-4.2285 5.1735,-3.4372 10.146,-7.5353 15.1116,-11.6083 5.9404,-4.861 11.8354,-9.8477 17.7599,-14.7533 6.218,-5.2387 12.5273,-10.2014 18.9373,-14.8743 5.9928,-4.3681 12.1276,-8.2607 18.2649,-12.1307 6.2034,-3.9618 12.2853,-8.342 18.44899,-12.4411 5.1349,-3.684 10.528,-6.1554 16.1195,-7.5424 4.735,-1.0593 9.4572,-0.4423 14.119,0.9767 4.7374,1.4484 8.9092,4.8 12.741,9.1537 4.6021,5.9062 8.3339,13.1705 11.9223,20.4693 4.1381,8.7186 7.9182,17.8103 11.8277,26.765 3.8106,8.8706 7.7342,17.6175 11.8539,26.1636 4.1617,8.4314 8.4398,16.7274 12.627,25.1296 3.9095,8.1047 8.2678,15.6187 13.4036,21.9586 5.1034,5.9647 10.4264,8.5453 16.7194,9.8228 7.2549,1.0751 14.2079,-1.9177 20.9179,-5.7623 8.8263,-5.4199 16.4598,-14.0922 23.8515,-23.0218 7.4779,-9.3327 14.5493,-19.3824 21.6533,-29.3568 6.2502,-8.8753 12.5748,-17.6282 18.8771,-26.4182 5.8377,-8.1408 11.5441,-16.4963 17.3977,-24.6109 4.3287,-5.9296 8.7477,-11.7014 13.4604,-16.9178 3.8138,-4.2594 8.0923,-7.282 12.4898,-9.8459 4.3436,-2.6009 8.8773,-3.8069 13.5237,-3.9621 4.873,-0.037 9.4756,2.0321 13.9149,4.8944 5.4054,3.7162 9.7914,9.7055 13.98409,15.934 5.2441,8.0311 9.8501,16.9303 14.3288,25.9439 5.34,10.6792 10.0053,22.068 14.516,33.5784 4.3702,11.7708 9.2081,23.0755 14.687,33.7196 4.8577,9.3921 10.7619,17.1977 17.1374,24.101 5.633,6.0597 11.9256,10.0223 18.6159,12.3702 6.5328,2.1102 13.0265,0.9021 19.3878,-1.7339 7.1403,-3.3568 13.1921,-9.9435 18.9645,-16.934 6.8639,-8.8098 13.3634,-18.2483 19.8757,-27.6459 7.2993,-10.3589 14.3346,-21.1214 21.1267,-32.2441 6.6501,-10.904 12.8486,-22.4077 19.0333,-33.9174 5.1537,-9.8576 10.3167,-19.7029 15.6011,-29.3996 4.1266,-7.6504 8.6019,-14.8239 13.5292,-21.2866 4.2217,-5.5125 9.0239,-9.7097 14.0926,-13.1217 5.0901,-3.2172 9.4133,-3.8846 14.8182,-2.6109 5.4044,1.6445 10.0653,5.975 14.4168,10.9138 5.5502,6.7425 9.7565,15.4934 13.7859,24.2786 5.1025,11.4685 9.5648,23.5458 13.8721,35.7303 3.9648,11.3765 7.5298,23.0569 11.1234,34.7097 2.7831,9.4756 5.8268,18.7536 9.2925,27.6949 3.037,7.9417 7.0496,14.7673 11.4174,21.0509 3.5606,4.6883 7.5952,8.7403 12.1958,10.6115 0.9546,0.3882 1.9364,0.5996 2.9047,0.8994 6.9233,1.4079 13.7151,-0.9714 20.302,-3.9953 7.6416,-3.7735 14.6725,-9.7013 21.4732,-16.098 7.7194,-7.389 14.4409,-16.7182 20.7975,-26.582 6.8996,-11.0429 12.9292,-23.2278 18.9904,-35.3242 5.5844,-11.4069 11.3353,-22.6203 17.2303,-33.6599 4.6996,-8.666 9.5873,-17.0959 14.6418,-25.2873 3.4972,-5.6537 7.1834,-11.0221 11.3244,-15.5751 3.1321,-3.338 6.6214,-5.3168 10.4,-5.9983 3.9993,-0.3285 6.5858,2.0964 9.3738,6.1589 3.7761,6.4146 6.031,14.4384 8.1848,22.2927 2.9651,11.7328 5.1055,23.8944 7.3628,35.971 2.404,13.2096 5.2531,26.2075 8.2546,39.1265 2.7882,11.9789 5.9755,23.7286 9.4267,35.2988 2.5412,8.6273 5.5729,16.8908 9.1207,24.6512 2.0418,4.0379 4.147,8.7012 7.3615,10.7579 0.5259,0.3365 1.0922,0.5051 1.6381,0.7578 4.9236,1.1712 8.9469,-3.3559 12.6494,-7.6572 5.5109,-7.0466 10.3145,-15.2455 15.2031,-23.2516 5.186,-8.587 10.1811,-17.43 15.1666,-26.2839 4.6766,-8.2934 9.3341,-16.6106 13.9682,-24.959 3.701,-6.6878 7.266,-13.5442 10.8768,-20.3435 3.1123,-5.7256 6.1606,-11.5315 9.3111,-17.2094 2.2431,-4.1176 4.4918,-8.2288 6.9465,-12.0613 1.9097,-2.9845 4.1027,-5.1614 6.7588,-6.1828 3.4127,-0.6512 5.2127,3.1248 6.8091,7.0942 2.6324,7.5385 4.3882,15.697 6.2595,23.7191 2.25,9.9404 4.4725,19.895 6.7643,29.8133 2.2564,9.9185 4.4756,19.855 6.9113,29.6763 2.1849,9.0801 5.0311,17.714 8.4269,25.8766 2.7073,6.3259 6.0914,11.6655 10.2927,15.6703 4.4189,3.6516 8.1359,3.5767 12.9076,1.8636 6.1513,-2.8023 11.0797,-9.0603 15.7683,-15.458 5.7832,-8.4503 10.9479,-17.8088 16.0749,-27.1661 5.0366,-9.2426 10.0707,-18.4886 15.1279,-27.7054 3.4996,-6.3844 6.9347,-12.8456 10.7283,-18.8361 2.6436,-4.113 5.5449,-7.6945 9.1665,-9.5028 3.6534,-0.8586 5.7751,3.2543 7.725,7.2799 2.4301,5.7178 4.8128,11.4755 7.3567,17.0801 2.4041,5.3399 5.159,10.2573 8.1413,14.8642 2.1481,3.3134 4.5192,6.2271 7.2885,8.232 2.4436,1.6812 4.79,1.0725 7.2234,-0.2195 2.6983,-1.798 5.093,-4.4463 7.4201,-7.1549 1.9914,-2.3108 3.7736,-4.9972 5.491,-7.7592 1.4162,-2.2882 2.7134,-4.7374 4.0173,-7.172 0.5129,-1.0278 1.0993,-1.9546 1.6945,-2.8703 0,0 0.6346,0.9525 0.6346,0.9525 l 0,0 c -0.5758,0.8833 -1.1419,1.7791 -1.637,2.7726 -1.3178,2.4607 -2.6292,4.9353 -4.0608,7.2475 -1.7505,2.8139 -3.5673,5.5504 -5.597,7.9045 -2.4027,2.7949 -4.877,5.5248 -7.6696,7.359 -2.6598,1.3974 -5.2417,2 -7.9017,0.1618 -2.8586,-2.0874 -5.322,-5.0685 -7.5395,-8.5043 -3.0177,-4.6639 -5.8066,-9.6402 -8.2398,-15.0451 -2.5387,-5.5935 -4.9192,-11.3372 -7.3411,-17.0469 -1.6968,-3.5157 -3.5192,-7.4143 -6.7294,-6.7936 -3.4873,1.7067 -6.2543,5.2252 -8.8001,9.1537 -3.7794,5.9664 -7.1989,12.406 -10.6856,18.7642 -5.0572,9.2167 -10.0911,18.4624 -15.1278,27.7047 -5.1545,9.4075 -10.3475,18.8157 -16.1644,27.3076 -4.8023,6.5484 -9.8561,12.9274 -16.1607,15.7689 -5.1325,1.8187 -8.8343,1.8375 -13.5866,-2.0359 -4.3083,-4.1267 -7.7955,-9.589 -10.5717,-16.0934 -3.4264,-8.2419 -6.3025,-16.9557 -8.5077,-26.1227 -2.438,-9.831 -4.6598,-19.7768 -6.9181,-29.7052 -2.2917,-9.9171 -4.5141,-19.8702 -6.7636,-29.8095 -1.8509,-7.9347 -3.587,-16.0038 -6.1807,-23.4674 -1.3701,-3.4353 -2.8544,-6.9625 -5.831,-6.4836 -2.4987,0.9292 -4.5399,3.0265 -6.3351,5.813 -2.4407,3.8083 -4.6734,7.898 -6.9039,11.9895 -3.1461,5.6701 -6.1903,11.4689 -9.2987,17.1868 -3.6147,6.807 -7.1839,13.671 -10.889,20.3663 -4.6356,8.3508 -9.2945,16.6704 -13.9725,24.9662 -4.9933,8.8678 -9.9962,17.7245 -15.1904,26.3247 -4.9228,8.0625 -9.7612,16.3187 -15.3154,23.407 -3.9488,4.5762 -8.2212,9.2317 -13.456,7.8745 -0.601,-0.2883 -1.2241,-0.4863 -1.8035,-0.8647 -3.333,-2.1773 -5.5461,-6.9475 -7.6644,-11.1725 -3.5769,-7.8295 -6.6382,-16.1616 -9.2004,-24.8647 -3.4615,-11.6058 -6.6587,-23.3913 -9.4553,-35.407 -3.0079,-12.9457 -5.8625,-25.9706 -8.2716,-39.2074 -2.2478,-12.0253 -4.3785,-24.1355 -7.3282,-35.8202 -2.1058,-7.6837 -4.3042,-15.5416 -7.9801,-21.8375 -2.5762,-3.7841 -4.9343,-6.0731 -8.6509,-5.789 -3.628,0.6381 -6.973,2.5542 -9.9812,5.7503 -4.0967,4.4978 -7.7359,9.8169 -11.1961,15.4038 -5.0403,8.1675 -9.9136,16.5735 -14.5999,25.2142 -5.8893,11.0288 -11.6342,22.2313 -17.2133,33.6269 -6.0834,12.1411 -12.1363,24.3698 -19.0626,35.4516 -6.4079,9.9405 -13.1842,19.3407 -20.9655,26.7861 -6.8673,6.4573 -13.9679,12.4382 -21.685,16.2431 -6.7297,3.085 -13.6683,5.4927 -20.7391,4.0256 -1.0037,-0.3143 -2.0216,-0.5372 -3.0106,-0.9429 -4.7228,-1.9366 -8.8689,-6.09 -12.5244,-10.9117 -4.4272,-6.3729 -8.4936,-13.2954 -11.5728,-21.3473 -3.4791,-8.9784 -6.5375,-18.2927 -9.3315,-27.8075 -3.5865,-11.6303 -7.1444,-23.2885 -11.1014,-34.6433 -4.2909,-12.1388 -8.7358,-24.1708 -13.8182,-35.597 -3.974,-8.6669 -8.1182,-17.3074 -13.588,-23.9679 -4.2322,-4.811 -8.7638,-9.0427 -14.0203,-10.66 -5.1377,-1.23 -9.4844,-0.5847 -14.3189,2.511 -4.9898,3.3537 -9.7153,7.485 -13.8711,12.9083 -4.891,6.4109 -9.3292,13.5345 -13.4246,21.1249 -5.2836,9.6943 -10.4449,19.5374 -15.5974,29.3924 -6.1964,11.5319 -12.4073,23.0574 -19.0703,33.9822 -6.8051,11.1433 -13.8536,21.9265 -21.1662,32.3049 -6.5312,9.4246 -13.0496,18.8903 -19.9343,27.7232 -5.8688,7.1034 -12.0254,13.7827 -19.2863,17.1818 -6.5876,2.7193 -13.0571,3.9006 -19.8233,1.7467 -6.8028,-2.3975 -13.2049,-6.4204 -18.933,-12.5872 -6.4436,-6.9818 -12.412,-14.8738 -17.3221,-24.3698 -5.501,-10.6904 -10.3627,-22.0398 -14.7509,-33.861 -4.4938,-11.468 -9.1412,-22.8153 -14.4612,-33.4551 -4.4519,-8.96 -9.0293,-17.807 -14.2408,-25.7917 -4.11239,-6.1117 -8.40849,-12.0011 -13.70929,-15.6555 -4.3211,-2.7934 -8.8012,-4.8166 -13.5465,-4.7867 -4.5438,0.1445 -8.9757,1.3305 -13.2232,3.8725 -4.325,2.5191 -8.5335,5.4877 -12.2839,9.6759 -4.6868,5.1857 -9.0792,10.9286 -13.3845,16.8235 -5.8529,8.1135 -11.5583,16.4686 -17.3959,24.608 -6.3012,8.7892 -12.6251,17.541 -18.8746,26.4152 -7.1203,9.9972 -14.208,20.0696 -21.7035,29.4224 -7.4651,9.0164 -15.1772,17.764 -24.0925,23.2293 -6.8503,3.918 -13.9475,6.9503 -21.3512,5.8373 -6.4601,-1.3241 -11.9274,-3.9849 -17.1637,-10.1147 -5.1878,-6.4152 -9.6026,-13.9954 -13.5522,-22.1919 -4.1897,-8.4081 -8.4711,-16.7095 -12.6356,-25.147 -4.1276,-8.5631 -8.0594,-17.3269 -11.8774,-26.2152 -3.9004,-8.9337 -7.6716,-18.004 -11.7988,-26.7031 -3.5372,-7.1961 -7.2134,-14.3602 -11.7425,-20.1956 -3.7214,-4.2409 -7.7762,-7.4985 -12.3817,-8.9096 -4.5559,-1.3917 -9.1709,-1.9985 -13.7998,-0.9678 -5.5183,1.3644 -10.8382,3.8103 -15.9052,7.4461 -6.16909,4.1026 -12.25589,8.4871 -18.46459,12.4514 -6.1227,3.8607 -12.2425,7.7434 -18.2211,12.1008 -6.3961,4.6627 -12.6915,9.6151 -18.8962,14.8425 -5.9254,4.9063 -11.8216,9.894 -17.763,14.7558 -4.9963,4.0981 -9.9997,8.2214 -15.2064,11.6755 -3.5204,2.121 -7.1322,4.0888 -10.9576,4.3239 -1.7603,-0.049 -3.525,-0.3132 -5.1268,-1.5179 0,0 0.3517,-1.2453 0.3517,-1.2453 z" />
  <rect
     ry="2.1870048"
     rx="4.0661454"
     y="21.592342"
     x="32.514648"
     height="199.06335"
     width="140.96297"
     id="rect11025"
     style="color:#000000;clip-rule:nonzero;display:inline;overflow:visible;visibility:visible;opacity:1;isolation:auto;mix-blend-mode:normal;color-interpolation:sRGB;color-interpolation-filters:linearRGB;solid-color:#000000;solid-opacity:1;fill:#fdfdfd;fill-opacity:1;fill-rule:nonzero;stroke:none;stroke-width:0.8864553;stroke-linecap:round;stroke-linejoin:miter;stroke-miterlimit:20;stroke-dasharray:none;stroke-dashoffset:0;stroke-opacity:1;color-rendering:auto;image-rendering:auto;shape-rendering:auto;text-rendering:auto;enable-background:accumulate" />
  <g
     id="flowRoot4242-2-6-0-2"
     style="font-style:normal;font-weight:normal;font-size:40px;line-height:125%;font-family:sans-serif;letter-spacing:0px;word-spacing:0px;fill:#4d4d4d;fill-opacity:1;stroke:none;stroke-width:1px;stroke-linecap:butt;stroke-linejoin:miter;stroke-opacity:1"
     transform="translate(-1568.7367,-350.437)">
    <path
       id="path4129"
       style="font-style:normal;font-variant:normal;font-weight:bold;font-stretch:normal;font-family:'Comic Neue';-inkscape-font-specification:'Comic Neue Bold';fill:#4d4d4d"
       d="m 1571.8477,403.05359 q -0.059,-0.23437 -0.059,-0.46875 0.02,-0.58593 0.3711,-1.09375 0.5078,-0.72265 1.3281,-0.91796 l 1.9336,-0.41016 q 1.4453,-3.88672 2.5976,-6.95313 0.4883,-1.32812 0.9571,-2.55859 0.4882,-1.25 0.8398,-2.22656 0.3516,-0.97656 0.5859,-1.60156 l 0.254,-0.625 q 0.2343,-0.76172 0.8984,-1.23047 0.6641,-0.48828 1.4648,-0.48828 0.918,0 1.5821,0.5664 0.664,0.56641 0.8593,1.40625 l 7.4024,22.5586 q 0.1172,0.33203 0.1172,0.64453 0,0.46875 -0.2344,0.9375 -0.3906,0.78125 -1.2109,1.05468 -0.3125,0.0781 -0.6055,0.0781 -0.5078,0 -0.9961,-0.23438 -0.7617,-0.39062 -1.0352,-1.21093 l -2.6367,-8.06641 -7.7148,1.58203 -2.4805,6.60156 q -0.3125,0.82032 -1.0937,1.17188 -0.4297,0.19531 -0.8594,0.17578 -0.3711,0 -0.7422,-0.13672 -0.7813,-0.3125 -1.1719,-1.09375 -0.1953,-0.41015 -0.2148,-0.83984 0,-0.3711 0.1562,-0.74219 l 1.5625,-4.19922 q -0.6836,-0.0781 -1.1914,-0.54687 -0.4883,-0.46875 -0.664,-1.13282 z m 8.4179,-3.88671 4.668,-0.95704 -1.9922,-6.09375 -2.6758,7.05079 z" />
    <path
       id="path4131"
       style="font-style:normal;font-variant:normal;font-weight:bold;font-stretch:normal;font-family:'Comic Neue';-inkscape-font-specification:'Comic Neue Bold';fill:#4d4d4d"
       d="m 1595.5781,394.69422 q -0.1562,-0.39063 -0.1562,-0.78125 0,-0.42969 0.1758,-0.85938 0.332,-0.83984 1.1328,-1.17187 0.3711,-0.13672 0.7422,-0.13672 0.4296,-0.0195 0.8789,0.17578 0.8203,0.35156 1.1328,1.17188 l 4.2969,11.30859 4.2773,-11.30859 q 0.3125,-0.78125 1.0937,-1.17188 0.4297,-0.21484 0.879,-0.21484 0.371,0 0.7421,0.13672 0.8008,0.3125 1.1914,1.13281 0.1954,0.42969 0.1954,0.87891 0,0.37109 -0.1563,0.74218 l -6.0351,15.52735 q -0.1954,0.68359 -0.8008,1.15234 -0.6055,0.44922 -1.3867,0.44922 -0.8008,0 -1.4258,-0.46875 -0.625,-0.48828 -0.8594,-1.21094 l -5.918,-15.35156 z" />
    <path
       id="path4133"
       style="font-style:normal;font-variant:normal;font-weight:bold;font-stretch:normal;font-family:'Comic Neue';-inkscape-font-specification:'Comic Neue Bold';fill:#4d4d4d"
       d="m 1614.582,401.76453 q 0,-1.95312 0.7032,-3.71094 0.7031,-1.77734 1.914,-3.10546 1.2305,-1.34766 2.8711,-2.16797 1.6406,-0.82032 3.5156,-0.9375 0.3516,-0.0391 0.7032,-0.0391 1.914,0 3.4961,0.91797 1.875,1.07422 3.0078,2.89063 0.1953,0.3125 0.332,0.64453 0.1367,0.3125 0.3125,0.58594 0.1953,0.37109 0.1953,0.82031 0,0.25391 -0.059,0.56641 -0.1758,0.82031 -1.0156,1.25 -0.7227,0.39062 -2.0313,1.13281 -1.289,0.72265 -2.8125,1.5625 -1.5234,0.83984 -3.0859,1.71875 -1.5625,0.8789 -2.793,1.54297 0.6446,0.80078 1.4649,1.36718 1.289,0.87891 2.9297,0.87891 2.2851,0 3.9648,-1.75781 l 0.8008,-0.83985 q 0.5664,-0.5664 1.3867,-0.5664 0.8399,0 1.4453,0.60547 0.6055,0.60547 0.6055,1.40625 0,0.72265 -0.4883,1.30859 l -0.8008,0.83984 q -1.3672,1.48438 -3.164,2.28516 -1.7578,0.76172 -3.75,0.76172 -1.9922,0 -3.7696,-0.78125 -1.7578,-0.78125 -3.0664,-2.10938 -1.289,-1.34765 -2.0507,-3.16406 -0.7618,-1.8164 -0.7618,-3.90625 z m 4.043,-0.27344 q 0.8398,-0.48828 1.9531,-1.09375 1.1328,-0.625 2.2461,-1.25 1.1328,-0.625 2.1485,-1.1914 1.0156,-0.58594 1.7382,-0.9961 -1.0351,-1.03515 -2.4023,-1.11328 -1.3672,0.0391 -2.3828,0.54688 -1.0156,0.48828 -1.7383,1.28906 -1.4453,1.64063 -1.5625,3.80859 z" />
    <path
       id="path4135"
       style="font-style:normal;font-variant:normal;font-weight:bold;font-stretch:normal;font-family:'Comic Neue';-inkscape-font-specification:'Comic Neue Bold';fill:#4d4d4d"
       d="m 1637.0625,409.65516 0,-16.13282 q 0,-0.91796 0.625,-1.5039 0.625,-0.60547 1.5039,-0.60547 0.918,0 1.5039,0.60547 0.6055,0.58594 0.6055,1.5039 l 0,0.33204 q 0.5664,-0.60547 1.2695,-1.09375 0.7031,-0.50782 1.5039,-0.76172 1.0742,-0.39063 2.1094,-0.39063 1.5625,0 2.6367,0.83985 1.4063,1.07421 1.4063,2.79296 l 0,1.17188 q 0,0.83984 -0.6055,1.46484 -0.6055,0.60547 -1.4844,0.60547 -0.8789,0 -1.4844,-0.60547 -0.5859,-0.625 -0.5859,-1.46484 l 0,-0.60547 -0.078,0 q -0.078,0 -0.2735,0.0195 -0.1757,0.0195 -0.4492,0.0977 -0.6836,0.19531 -1.4843,0.89844 -0.8008,0.70312 -1.4454,1.66015 -0.6445,0.95703 -0.8203,1.6211 -0.1758,0.66406 -0.2148,0.82031 l 0,8.73047 q 0,0.8789 -0.6055,1.5039 -0.5859,0.60547 -1.5039,0.60547 -0.8789,0 -1.5039,-0.60547 -0.625,-0.625 -0.625,-1.5039 z" />
    <path
       id="path4137"
       style="font-style:normal;font-variant:normal;font-weight:bold;font-stretch:normal;font-family:'Comic Neue';-inkscape-font-specification:'Comic Neue Bold';fill:#4d4d4d"
       d="m 1653.8789,404.20594 q -0.078,-0.58594 -0.078,-1.21094 0,-0.72266 0.1172,-1.50391 0.1953,-1.44531 0.6054,-2.8125 0.5664,-1.71875 1.5625,-3.08593 0.9961,-1.38672 2.2852,-2.34375 2.0703,-1.60157 4.9609,-1.60157 1.0743,0 2.0118,0.19532 0.9375,0.19531 1.6601,0.44922 0.7227,0.23437 1.1914,0.48828 0.4883,0.23437 0.6055,0.27343 0.2344,0.15625 0.5859,0.52735 0.3516,0.35156 0.3516,1.07422 l 0,7.91015 q 0,3.20313 0.039,7.12891 l 0,0.42969 q 0,0.8789 -0.625,1.5039 -0.625,0.625 -1.5039,0.625 -0.7226,0 -1.2695,-0.42968 -0.5273,-0.41016 -0.7226,-1.09375 l -0.078,0.0391 q -0.8398,0.35156 -1.914,0.64453 -1.0547,0.27344 -2.0899,0.27344 l -0.1562,0 q -3.086,-0.0781 -5.1367,-2.12891 -2.0313,-2.07031 -2.4024,-5.35156 z m 4.2578,-0.48828 q 0.039,0.3125 0.1758,0.9375 0.1367,0.625 0.4883,1.26953 0.3711,0.64453 0.9961,1.11328 0.6445,0.44922 1.6992,0.48828 l 0.078,0 q 1.1133,0 2.5196,-0.72266 0.4492,-0.19531 0.7812,-0.39062 0.332,-0.21484 0.6055,-0.41016 0,-0.48828 0,-1.34765 0,-0.85938 0.02,-1.9336 0.02,-1.07422 0.039,-2.32422 0.039,-1.26953 0.078,-2.55859 l 0,-1.60156 q -0.2344,-0.0781 -0.5078,-0.13672 -0.2539,-0.0586 -0.5469,-0.13672 -0.6055,-0.11719 -1.1523,-0.11719 l -0.078,0 q -1.4062,0 -2.4023,0.72266 -0.9961,0.76172 -1.5625,1.71875 -0.5664,0.95703 -0.8008,1.75781 -0.3125,0.91797 -0.4297,1.89453 -0.059,0.50782 -0.059,0.97657 0.02,0.41015 0.059,0.80078 z" />
    <path
       id="path4139"
       style="font-style:normal;font-variant:normal;font-weight:bold;font-stretch:normal;font-family:'Comic Neue';-inkscape-font-specification:'Comic Neue Bold';fill:#4d4d4d"
       d="m 1674.3867,403.36609 q -0.039,-0.50781 -0.039,-0.99609 0,-2.63672 1.0546,-4.92187 0.7227,-1.52344 1.875,-2.75391 1.2891,-1.28906 3.0469,-2.08984 1.7188,-0.80079 3.5156,-0.80079 0.8008,0 1.4844,0.15625 0.7031,0.15625 1.3477,0.3711 l 0.332,0.0781 q 0.2734,-0.44922 0.7227,-0.72265 0.4687,-0.27344 1.0742,-0.27344 0.8789,0 1.4648,0.60547 0.6055,0.58594 0.6055,1.46484 l 0,0.76172 q -0.039,1.03516 -0.059,2.59766 -0.02,1.5625 -0.059,3.30078 -0.039,1.73828 -0.078,3.49609 -0.039,1.75781 -0.078,3.1836 -0.039,1.42578 -0.059,2.38281 -0.02,0.95703 -0.02,1.11328 -0.1172,1.60156 -0.625,2.96875 -0.5078,1.36719 -1.4257,2.40234 -0.918,1.03516 -2.129,1.67969 -1.1914,0.64453 -2.6171,0.76172 -0.3907,0.0781 -0.7813,0.0781 -0.3906,0 -0.8203,0 -1.6406,0 -2.9688,-0.2539 l -0.6054,-0.0781 q -0.8789,-0.19531 -1.3867,-0.91797 -0.3516,-0.52734 -0.3516,-1.11328 0,-0.23437 0.059,-0.48828 0.1953,-0.83984 0.918,-1.32812 0.5273,-0.3711 1.0937,-0.3711 0.2344,0 0.4688,0.0586 l 0.3711,0.0391 q 0.5664,0.0781 1.1523,0.13672 0.6055,0.0781 1.25,0.0781 0.3125,0 0.5859,0 0.293,0 0.6055,-0.0391 1.6016,-0.15625 2.3633,-1.60156 0.2344,-0.44922 0.3515,-0.91797 0.1368,-0.48828 0.2149,-0.83984 -0.1172,0.0781 -0.2344,0.11718 -0.098,0.0391 -0.2148,0.11719 -1.5625,0.87891 -3.3203,0.87891 l -0.1563,0 q -3.4766,0 -5.7617,-2.89063 -0.918,-1.15234 -1.4649,-2.53906 -0.5273,-1.40625 -0.7031,-2.89063 z m 3.9453,-1.5625 q 0,0.3711 0,0.66407 0,0.37109 0.02,0.58593 0.078,0.80079 0.3906,1.6211 0.332,0.82031 0.7812,1.44531 1.1133,1.44531 2.6758,1.44531 l 0.039,0 q 0.6055,0 1.3476,-0.23437 0.7618,-0.25391 1.4454,-0.9961 1.4843,-1.71875 1.4843,-5.21484 l 0,-4.47266 q -0.3515,-0.19531 -1.0156,-0.41015 -0.6641,-0.23438 -1.4648,-0.23438 -1.0352,0 -2.168,0.44922 -2.3633,1.07422 -3.1445,3.4375 -0.3516,1.03516 -0.3907,1.91406 z" />
    <path
       id="path4141"
       style="font-style:normal;font-variant:normal;font-weight:bold;font-stretch:normal;font-family:'Comic Neue';-inkscape-font-specification:'Comic Neue Bold';fill:#4d4d4d"
       d="m 1695.4414,401.76453 q 0,-1.95312 0.7031,-3.71094 0.7032,-1.77734 1.9141,-3.10546 1.2305,-1.34766 2.8711,-2.16797 1.6406,-0.82032 3.5156,-0.9375 0.3516,-0.0391 0.7031,-0.0391 1.9141,0 3.4961,0.91797 1.875,1.07422 3.0078,2.89063 0.1954,0.3125 0.3321,0.64453 0.1367,0.3125 0.3125,0.58594 0.1953,0.37109 0.1953,0.82031 0,0.25391 -0.059,0.56641 -0.1758,0.82031 -1.0156,1.25 -0.7227,0.39062 -2.0313,1.13281 -1.289,0.72265 -2.8125,1.5625 -1.5234,0.83984 -3.0859,1.71875 -1.5625,0.8789 -2.793,1.54297 0.6445,0.80078 1.4649,1.36718 1.289,0.87891 2.9296,0.87891 2.2852,0 3.9649,-1.75781 l 0.8008,-0.83985 q 0.5664,-0.5664 1.3867,-0.5664 0.8398,0 1.4453,0.60547 0.6055,0.60547 0.6055,1.40625 0,0.72265 -0.4883,1.30859 l -0.8008,0.83984 q -1.3672,1.48438 -3.1641,2.28516 -1.7578,0.76172 -3.75,0.76172 -1.9921,0 -3.7695,-0.78125 -1.7578,-0.78125 -3.0664,-2.10938 -1.2891,-1.34765 -2.0508,-3.16406 -0.7617,-1.8164 -0.7617,-3.90625 z m 4.043,-0.27344 q 0.8398,-0.48828 1.9531,-1.09375 1.1328,-0.625 2.2461,-1.25 1.1328,-0.625 2.1484,-1.1914 1.0157,-0.58594 1.7383,-0.9961 -1.0351,-1.03515 -2.4023,-1.11328 -1.3672,0.0391 -2.3828,0.54688 -1.0157,0.48828 -1.7383,1.28906 -1.4453,1.64063 -1.5625,3.80859 z" />
  </g>
  <path
     id="path9983-0-9"
     d="m 0,75.6596 1364.4787,0"
     style="fill:none;fill-rule:evenodd;stroke:#b3b3b3;stroke-width:1px;stroke-linecap:butt;stroke-linejoin:miter;stroke-opacity:1" />
  <g
     id="flowRoot4242-6-5-4-6-4-2-2"
     style="font-style:normal;font-weight:normal;font-size:40px;line-height:125%;font-family:sans-serif;letter-spacing:0px;word-spacing:0px;fill:#4d4d4d;fill-opacity:1;stroke:none;stroke-width:1px;stroke-linecap:butt;stroke-linejoin:miter;stroke-opacity:1"
     transform="matrix(0.55200614,0,0,0.55200614,-444.47591,-2646.8098)">
    <path
       id="path4112"
       style="font-style:normal;font-variant:normal;font-weight:bold;font-stretch:normal;font-family:'Comic Neue';-inkscape-font-specification:'Comic Neue Bold';fill:#4d4d4d"
       d="m 1041.6563,5068.702 q -0.059,-0.2343 -0.059,-0.4687 0.019,-0.586 0.3711,-1.0938 0.5078,-0.7226 1.3281,-0.9179 l 1.9336,-0.4102 q 1.4453,-3.8867 2.5976,-6.9531 0.4883,-1.3281 0.9571,-2.5586 0.4882,-1.25 0.8398,-2.2266 0.3516,-0.9765 0.5859,-1.6015 l 0.2539,-0.625 q 0.2344,-0.7618 0.8985,-1.2305 0.664,-0.4883 1.4648,-0.4883 0.918,0 1.5821,0.5664 0.664,0.5664 0.8593,1.4063 l 7.4024,22.5586 q 0.1172,0.332 0.1172,0.6445 0,0.4687 -0.2344,0.9375 -0.3906,0.7812 -1.2109,1.0547 -0.3125,0.078 -0.6055,0.078 -0.5078,0 -0.9961,-0.2344 -0.7617,-0.3906 -1.0352,-1.2109 l -2.6367,-8.0664 -7.7148,1.582 -2.4805,6.6016 q -0.3125,0.8203 -1.0937,1.1719 -0.4297,0.1953 -0.8594,0.1757 -0.3711,0 -0.7422,-0.1367 -0.7813,-0.3125 -1.1719,-1.0937 -0.1953,-0.4102 -0.2148,-0.8399 0,-0.3711 0.1562,-0.7422 l 1.5625,-4.1992 q -0.6836,-0.078 -1.1914,-0.5469 -0.4883,-0.4687 -0.664,-1.1328 z m 8.4179,-3.8867 4.668,-0.957 -1.9922,-6.0938 -2.6758,7.0508 z" />
    <path
       id="path4114"
       style="font-style:normal;font-variant:normal;font-weight:bold;font-stretch:normal;font-family:'Comic Neue';-inkscape-font-specification:'Comic Neue Bold';fill:#4d4d4d"
       d="m 1066.8516,5067.7645 0,-0.078 q 0.039,-0.7617 0.1172,-1.9726 0.098,-1.211 0.5664,-2.5782 1.1523,-3.4765 4.2382,-5.039 1.6797,-0.8399 3.7696,-0.8399 l 0.1953,0 q 1.6797,0 3.4375,0.6055 l 0.1172,-5.4883 0.039,-0.4492 q 0,-0.918 0.6055,-1.5234 0.6055,-0.625 1.5234,-0.625 0.8789,0 1.4649,0.625 0.6055,0.6054 0.6055,1.5234 l 0,0.5273 -0.4688,21.875 0,0.918 q 0,0.918 -0.625,1.543 -0.625,0.625 -1.5039,0.625 -0.8008,0 -1.4258,-0.5274 -0.6055,-0.5468 -0.6836,-1.3476 -2.207,1.4453 -4.8437,1.4453 l -0.1953,0 -0.293,0 -0.078,0 q -1.7578,-0.1172 -3.0664,-1.0547 -1.1524,-0.8398 -2.0508,-2.2266 -0.7031,-1.25 -1.0938,-2.7734 -0.3515,-1.3867 -0.3515,-2.8516 0,-0.1562 0,-0.3125 z m 4.1992,0.1758 q 0,0.1367 0,0.293 -0.019,0.5664 0.098,1.289 0.1563,0.8985 0.4688,1.6993 0.2734,0.6054 0.5664,0.9375 0.3125,0.332 0.5664,0.5078 0.2734,0.1562 0.4883,0.1953 0.2148,0.039 0.3515,0.039 l 0.3907,0 q 1.9922,0 3.5937,-1.1329 0.6836,-0.4882 0.9961,-0.9375 0.332,-0.4492 0.3711,-0.625 l 0.1563,-7.8711 q -0.6055,-0.3125 -1.5625,-0.6054 -0.9571,-0.3125 -1.9922,-0.3125 -1.1524,0 -1.836,0.3906 -1.6015,0.8789 -2.1093,2.4219 -0.4883,1.5429 -0.5469,3.7109 z" />
    <path
       id="path4116"
       style="font-style:normal;font-variant:normal;font-weight:bold;font-stretch:normal;font-family:'Comic Neue';-inkscape-font-specification:'Comic Neue Bold';fill:#4d4d4d"
       d="m 1086.7148,5060.3427 q -0.1562,-0.3907 -0.1562,-0.7813 0,-0.4297 0.1758,-0.8594 0.332,-0.8398 1.1328,-1.1718 0.3711,-0.1368 0.7422,-0.1368 0.4297,-0.02 0.8789,0.1758 0.8203,0.3516 1.1328,1.1719 l 4.2969,11.3086 4.2773,-11.3086 q 0.3125,-0.7813 1.0938,-1.1719 0.4297,-0.2148 0.8789,-0.2148 0.3711,0 0.7422,0.1367 0.8007,0.3125 1.1914,1.1328 0.1953,0.4297 0.1953,0.8789 0,0.3711 -0.1563,0.7422 l -6.0351,15.5273 q -0.1953,0.6836 -0.8008,1.1524 -0.6055,0.4492 -1.3867,0.4492 -0.8008,0 -1.4258,-0.4687 -0.625,-0.4883 -0.8594,-1.211 l -5.918,-15.3515 z" />
    <path
       id="path4118"
       style="font-style:normal;font-variant:normal;font-weight:bold;font-stretch:normal;font-family:'Comic Neue';-inkscape-font-specification:'Comic Neue Bold';fill:#4d4d4d"
       d="m 1106.3242,5075.3036 0,-15.7617 q 0,-0.918 0.6446,-1.543 0.6445,-0.625 1.5625,-0.625 0.9179,0 1.5429,0.625 0.6446,0.6055 0.6446,1.543 l -0.078,15.7617 q 0,0.918 -0.625,1.543 -0.6054,0.6054 -1.5234,0.6054 -0.918,0 -1.543,-0.6054 -0.625,-0.625 -0.625,-1.543 z m 0.1563,-22.1289 0.078,-1.3672 q 0,-0.8789 0.625,-1.4844 0.625,-0.625 1.5039,-0.625 0.8789,0 1.4844,0.625 0.625,0.6055 0.625,1.4844 l -0.078,1.3672 q 0,0.8789 -0.625,1.5039 -0.6055,0.625 -1.4844,0.625 -0.8789,0 -1.5039,-0.625 -0.625,-0.625 -0.625,-1.5039 z" />
    <path
       id="path4120"
       style="font-style:normal;font-variant:normal;font-weight:bold;font-stretch:normal;font-family:'Comic Neue';-inkscape-font-specification:'Comic Neue Bold';fill:#4d4d4d"
       d="m 1115.4063,5071.6513 q 0,-0.6836 0.3906,-1.1915 0.4101,-0.5273 1.0937,-0.7226 0.3125,-0.078 0.5664,-0.078 0.6055,0 1.0547,0.4101 0.4688,0.3906 0.7422,0.9766 0.4492,1.1133 1.3477,1.8359 0.8984,0.7227 2.207,0.7227 0.3906,0 0.9375,-0.1367 0.5469,-0.1368 1.0156,-0.4297 0.4883,-0.3125 0.8008,-0.7422 0.332,-0.4492 0.332,-1.0352 0,-0.6054 -0.3711,-1.0156 -0.3515,-0.4297 -0.8984,-0.7227 -0.5273,-0.3125 -1.1133,-0.4882 -0.5859,-0.1758 -0.9765,-0.293 -3.086,-0.8789 -4.4727,-2.2461 -1.6016,-1.4844 -1.6016,-3.8477 0,-2.871 2.5586,-4.3554 1.1914,-0.6836 2.4414,-0.8399 1.2696,-0.1562 1.9532,-0.1562 3.8476,0 5.4882,2.1484 0.9961,1.3281 0.9961,2.9688 0,0.7617 -0.4882,1.3086 -0.4688,0.5273 -1.1914,0.6445 -0.1563,0.019 -0.3125,0.019 -0.5079,0 -1.0352,-0.2734 -0.7031,-0.3711 -0.9375,-1.5039 -0.1953,-0.957 -0.957,-1.3281 -0.7618,-0.3907 -1.7578,-0.3907 -0.3516,0 -0.8594,0.098 -0.5078,0.098 -0.9766,0.3125 -0.4492,0.1953 -0.7617,0.5859 -0.293,0.3711 -0.293,0.8789 0,0.5664 0.3711,0.9571 0.3906,0.3711 0.8789,0.6445 0.5078,0.2539 1.0352,0.3906 0.5273,0.1367 0.8398,0.2149 3.3985,0.9179 4.9024,2.3828 1.5039,1.4648 1.5039,3.9453 0,2.4414 -2.0117,4.2383 -0.9571,0.9179 -2.2657,1.4062 -1.289,0.4688 -2.7734,0.4688 -2.0313,0 -3.3789,-0.7227 -1.3281,-0.7226 -2.0899,-1.4453 -0.8789,-0.8008 -1.4062,-1.7969 -0.5273,-0.9961 -0.5273,-1.7968 z" />
    <path
       id="path4122"
       style="font-style:normal;font-variant:normal;font-weight:bold;font-stretch:normal;font-family:'Comic Neue';-inkscape-font-specification:'Comic Neue Bold';fill:#4d4d4d"
       d="m 1134.1172,5067.2177 q 0.1172,-1.9532 0.8789,-3.7305 0.7617,-1.7969 2.0898,-3.1836 1.3282,-1.4453 2.9297,-2.207 1.6211,-0.7618 3.3594,-0.7618 1.5234,0 2.9102,0.5665 1.4062,0.5468 2.5195,1.6796 1.5234,1.4844 2.2461,3.5352 0.5859,1.6406 0.5859,3.4766 0,0.4492 -0.039,0.8984 -0.1563,1.9922 -0.918,3.7891 -0.7617,1.7773 -2.0313,3.164 -1.3281,1.4453 -2.9492,2.2071 -1.6211,0.7617 -3.3789,0.7617 -1.5234,0 -2.9297,-0.5664 -1.3867,-0.586 -2.5,-1.7188 -1.4843,-1.4453 -2.207,-3.4961 -0.5859,-1.6797 -0.5859,-3.5742 0,-0.4102 0.019,-0.8398 z m 4.2578,0.2734 q -0.02,0.2344 0,0.4687 0,1.211 0.332,2.3047 0.4102,1.2891 1.211,2.1094 0.9961,1.0352 2.4023,1.0352 0.8399,0 1.6992,-0.4297 0.8594,-0.4492 1.5821,-1.3281 0.7617,-0.879 1.1914,-2.0313 0.4492,-1.1719 0.5273,-2.4023 0.019,-0.1954 0.019,-0.3907 -0.019,-1.1718 -0.4101,-2.3047 -0.4688,-1.3281 -1.3281,-2.2265 -1.0743,-0.9961 -2.4024,-0.9961 -1.7578,0 -3.1445,1.7578 -0.7227,0.8789 -1.1719,2.0508 -0.4297,1.1523 -0.5078,2.3828 z" />
    <path
       id="path4124"
       style="font-style:normal;font-variant:normal;font-weight:bold;font-stretch:normal;font-family:'Comic Neue';-inkscape-font-specification:'Comic Neue Bold';fill:#4d4d4d"
       d="m 1156.2461,5075.3036 0,-16.1328 q 0,-0.918 0.625,-1.5039 0.625,-0.6055 1.5039,-0.6055 0.918,0 1.5039,0.6055 0.6055,0.5859 0.6055,1.5039 l 0,0.332 q 0.5664,-0.6055 1.2695,-1.0937 0.7031,-0.5078 1.5039,-0.7618 1.0742,-0.3906 2.1094,-0.3906 1.5625,0 2.6367,0.8399 1.4063,1.0742 1.4063,2.7929 l 0,1.1719 q 0,0.8399 -0.6055,1.4649 -0.6055,0.6054 -1.4844,0.6054 -0.8789,0 -1.4844,-0.6054 -0.5859,-0.625 -0.5859,-1.4649 l 0,-0.6055 -0.078,0 q -0.078,0 -0.2735,0.02 -0.1757,0.02 -0.4492,0.098 -0.6836,0.1953 -1.4844,0.8985 -0.8007,0.7031 -1.4453,1.6601 -0.6445,0.9571 -0.8203,1.6211 -0.1758,0.6641 -0.2148,0.8203 l 0,8.7305 q 0,0.8789 -0.6055,1.5039 -0.5859,0.6055 -1.5039,0.6055 -0.8789,0 -1.5039,-0.6055 -0.625,-0.625 -0.625,-1.5039 z" />
    <path
       id="path4126"
       style="font-style:normal;font-variant:normal;font-weight:bold;font-stretch:normal;font-family:'Comic Neue';-inkscape-font-specification:'Comic Neue Bold';fill:#4d4d4d"
       d="m 1172.9844,5071.6513 q 0,-0.6836 0.3906,-1.1915 0.4102,-0.5273 1.0938,-0.7226 0.3125,-0.078 0.5664,-0.078 0.6054,0 1.0546,0.4101 0.4688,0.3906 0.7422,0.9766 0.4493,1.1133 1.3477,1.8359 0.8984,0.7227 2.207,0.7227 0.3906,0 0.9375,-0.1367 0.5469,-0.1368 1.0156,-0.4297 0.4883,-0.3125 0.8008,-0.7422 0.3321,-0.4492 0.3321,-1.0352 0,-0.6054 -0.3711,-1.0156 -0.3516,-0.4297 -0.8985,-0.7227 -0.5273,-0.3125 -1.1133,-0.4882 -0.5859,-0.1758 -0.9765,-0.293 -3.086,-0.8789 -4.4727,-2.2461 -1.6015,-1.4844 -1.6015,-3.8477 0,-2.871 2.5586,-4.3554 1.1914,-0.6836 2.4414,-0.8399 1.2695,-0.1562 1.9531,-0.1562 3.8476,0 5.4883,2.1484 0.9961,1.3281 0.9961,2.9688 0,0.7617 -0.4883,1.3086 -0.4688,0.5273 -1.1914,0.6445 -0.1563,0.019 -0.3125,0.019 -0.5078,0 -1.0352,-0.2734 -0.7031,-0.3711 -0.9375,-1.5039 -0.1953,-0.957 -0.957,-1.3281 -0.7617,-0.3907 -1.7578,-0.3907 -0.3516,0 -0.8594,0.098 -0.5078,0.098 -0.9766,0.3125 -0.4492,0.1953 -0.7617,0.5859 -0.2929,0.3711 -0.2929,0.8789 0,0.5664 0.371,0.9571 0.3907,0.3711 0.879,0.6445 0.5078,0.2539 1.0351,0.3906 0.5274,0.1367 0.8399,0.2149 3.3984,0.9179 4.9023,2.3828 1.5039,1.4648 1.5039,3.9453 0,2.4414 -2.0117,4.2383 -0.957,0.9179 -2.2656,1.4062 -1.2891,0.4688 -2.7735,0.4688 -2.0312,0 -3.3789,-0.7227 -1.3281,-0.7226 -2.0898,-1.4453 -0.8789,-0.8008 -1.4063,-1.7969 -0.5273,-0.9961 -0.5273,-1.7968 z" />
  </g>
  <g
     id="flowRoot4242-6-5-4-6-4-2-2-5"
     style="font-style:normal;font-weight:normal;font-size:22.08024597px;line-height:125%;font-family:sans-serif;letter-spacing:0px;word-spacing:0px;fill:#4d4d4d;fill-opacity:1;stroke:none;stroke-width:1px;stroke-linecap:butt;stroke-linejoin:miter;stroke-opacity:1"
     transform="translate(179.0641,24.6932)">
    <path
       id="path4144"
       style="font-style:normal;font-variant:normal;font-weight:bold;font-stretch:normal;font-family:'Comic Neue';-inkscape-font-specification:'Comic Neue Bold';fill:#4d4d4d"
       d="M 0.03149711,13.562659 2.7052769,0.92689342 Q 2.7915279,0.52798273 3.0826248,0.28001122 3.3737218,0.02125834 3.7726325,-3.04405e-4 l 0.043126,0 q 0.377348,0 0.668445,0.226408775 0.3018783,0.2156274 0.409692,0.59297535 L 7.718614,10.155746 10.985369,0.77595424 Q 11.093183,0.42016903 11.38428,0.215323 11.675377,-3.04405e-4 12.052725,-3.04405e-4 l 0.06469,0 q 0.377348,0.043125485 0.657664,0.301878365 0.291097,0.25875288 0.355785,0.62531946 L 15.847767,13.562659 q 0.03234,0.140158 0.03234,0.269534 0,0.31266 -0.172502,0.603757 -0.258753,0.409692 -0.700789,0.517506 -0.08625,0.02156 -0.23719,0.02156 -0.398911,0 -0.71157,-0.247972 -0.334223,-0.31266 -0.398911,-0.657663 L 11.783191,5.3688179 8.7105,14.220323 q -0.1078137,0.355785 -0.3989107,0.571412 -0.2803156,0.204846 -0.6576635,0.204846 l -0.021563,0 Q 7.2550151,14.975019 6.9639181,14.770173 6.6836025,14.554545 6.5757888,14.177197 L 4.0098227,5.7030404 2.241678,14.069384 q -0.086251,0.39891 -0.3989107,0.657663 -0.3018784,0.247972 -0.7007891,0.247972 -0.15093915,0 -0.24797149,-0.02156 Q 0.44118917,14.845642 0.18243629,14.43595 -8.4700435e-4,14.144853 -8.4700435e-4,13.832193 q 0,-0.140157 0.0323441144,-0.269534 z" />
    <path
       id="path4146"
       style="font-style:normal;font-variant:normal;font-weight:bold;font-stretch:normal;font-family:'Comic Neue';-inkscape-font-specification:'Comic Neue Bold';fill:#4d4d4d"
       d="m 18.101073,9.5196454 q 0,-1.078137 0.388129,-2.0484603 0.38813,-0.9811047 1.056575,-1.7142379 0.679226,-0.7439145 1.584861,-1.1967321 0.905635,-0.4528175 1.940647,-0.5175057 0.194064,-0.021563 0.388129,-0.021563 1.056574,0 1.929865,0.5067244 1.035012,0.5929754 1.660331,1.5956428 0.107814,0.1725019 0.183284,0.3557852 0.07547,0.1725019 0.172501,0.3234411 0.107814,0.2048461 0.107814,0.4528176 0,0.1401578 -0.03234,0.3126597 -0.09703,0.4528176 -0.560631,0.6900077 -0.398911,0.2156274 -1.121263,0.6253195 -0.71157,0.3989107 -1.552517,0.8625096 -0.840947,0.463599 -1.703456,0.948761 -0.86251,0.485161 -1.541736,0.851728 0.355785,0.442036 0.808602,0.754696 0.711571,0.485162 1.617206,0.485162 1.26142,0 2.188618,-0.970324 l 0.442036,-0.463599 q 0.31266,-0.312659 0.765477,-0.312659 0.463599,0 0.797822,0.334222 0.334222,0.334223 0.334222,0.776259 0,0.39891 -0.269534,0.722351 l -0.442036,0.463599 q -0.754696,0.819385 -1.746582,1.261421 -0.970323,0.420473 -2.070023,0.420473 -1.0997,0 -2.080805,-0.431255 Q 20.375942,14.155635 19.65359,13.422501 18.94202,12.678587 18.521546,11.675919 18.101073,10.673252 18.101073,9.5196454 Z M 20.332817,9.3687062 Q 20.796416,9.099172 21.410954,8.7649495 22.036273,8.4199456 22.650811,8.0749418 23.276131,7.729938 23.836762,7.4172782 24.397393,7.0938371 24.796304,6.8674284 24.224891,6.2960157 23.470195,6.2528903 22.715499,6.274453 22.154868,6.5547686 21.594237,6.8243029 21.195326,7.266339 20.397505,8.1719741 20.332817,9.3687062 Z" />
  </g>
</svg>
