<?xml version="1.0" encoding="UTF-8" standalone="no"?>
<svg
   xmlns:dc="http://purl.org/dc/elements/1.1/"
   xmlns:cc="http://creativecommons.org/ns#"
   xmlns:rdf="http://www.w3.org/1999/02/22-rdf-syntax-ns#"
   xmlns:svg="http://www.w3.org/2000/svg"
   xmlns="http://www.w3.org/2000/svg"
   xmlns:sodipodi="http://sodipodi.sourceforge.net/DTD/sodipodi-0.dtd"
   xmlns:inkscape="http://www.inkscape.org/namespaces/inkscape"
   version="1.1"
   id="svg2"
   viewBox="0 0 1238.7859 314.5984"
   height="88.786659mm"
   width="349.61292mm"
   inkscape:version="0.91 r13725"
   sodipodi:docname="sine-wave-of-intelligence-over-time-with-magnifying-glass.svg">
  <sodipodi:namedview
     pagecolor="#ffffff"
     bordercolor="#666666"
     borderopacity="1"
     objecttolerance="10"
     gridtolerance="10"
     guidetolerance="10"
     inkscape:pageopacity="0"
     inkscape:pageshadow="2"
     inkscape:window-width="1596"
     inkscape:window-height="880"
     id="namedview350"
     showgrid="false"
     fit-margin-top="0"
     fit-margin-left="0"
     fit-margin-right="0"
     fit-margin-bottom="0"
     inkscape:zoom="0.22425739"
     inkscape:cx="-846.59457"
     inkscape:cy="259.19458"
     inkscape:window-x="0"
     inkscape:window-y="18"
     inkscape:window-maximized="0"
     inkscape:current-layer="g4000" />
  <defs
     id="defs4">
    <marker
       style="overflow:visible"
       id="Arrow1Lend"
       refX="0"
       refY="0"
       orient="auto">
      <path
         transform="matrix(-0.8,0,0,-0.8,-10,0)"
         style="fill:#000000;fill-opacity:1;fill-rule:evenodd;stroke:#000000;stroke-width:1pt;stroke-opacity:1"
         d="M 0,0 5,-5 -12.5,0 5,5 0,0 Z"
         id="path5845"
         inkscape:connector-curvature="0" />
    </marker>
    <marker
       style="overflow:visible"
       id="TriangleOutM"
       refX="0"
       refY="0"
       orient="auto">
      <path
         transform="scale(0.4,0.4)"
         style="fill:#000000;fill-opacity:1;fill-rule:evenodd;stroke:#000000;stroke-width:1pt;stroke-opacity:1"
         d="m 5.77,0 -8.65,5 0,-10 8.65,5 z"
         id="path5987"
         inkscape:connector-curvature="0" />
    </marker>
    <marker
       style="overflow:visible"
       id="TriangleInM"
       refX="0"
       refY="0"
       orient="auto">
      <path
         transform="scale(-0.4,-0.4)"
         style="fill:#000000;fill-opacity:1;fill-rule:evenodd;stroke:#000000;stroke-width:1pt;stroke-opacity:1"
         d="m 5.77,0 -8.65,5 0,-10 8.65,5 z"
         id="path5978"
         inkscape:connector-curvature="0" />
    </marker>
    <marker
       style="overflow:visible"
       id="Arrow2Mstart"
       refX="0"
       refY="0"
       orient="auto">
      <path
         transform="scale(0.6,0.6)"
         d="M 8.7185878,4.0337352 -2.2072895,0.01601326 8.7185884,-4.0017078 c -1.7454984,2.3720609 -1.7354408,5.6174519 -6e-7,8.035443 z"
         style="fill:#000000;fill-opacity:1;fill-rule:evenodd;stroke:#000000;stroke-width:0.625;stroke-linejoin:round;stroke-opacity:1"
         id="path5866"
         inkscape:connector-curvature="0" />
    </marker>
    <marker
       style="overflow:visible"
       id="Arrow1Lstart"
       refX="0"
       refY="0"
       orient="auto">
      <path
         transform="matrix(0.8,0,0,0.8,10,0)"
         style="fill:#000000;fill-opacity:1;fill-rule:evenodd;stroke:#000000;stroke-width:1pt;stroke-opacity:1"
         d="M 0,0 5,-5 -12.5,0 5,5 0,0 Z"
         id="path5842"
         inkscape:connector-curvature="0" />
    </marker>
    <marker
       style="overflow:visible"
       id="TriangleInM-6"
       refX="0"
       refY="0"
       orient="auto">
      <path
         transform="scale(-0.4,-0.4)"
         style="fill:#000000;fill-opacity:1;fill-rule:evenodd;stroke:#000000;stroke-width:1pt;stroke-opacity:1"
         d="m 5.77,0 -8.65,5 0,-10 8.65,5 z"
         id="path5978-6"
         inkscape:connector-curvature="0" />
    </marker>
    <marker
       style="overflow:visible"
       id="TriangleOutM-4"
       refX="0"
       refY="0"
       orient="auto">
      <path
         transform="scale(0.4,0.4)"
         style="fill:#000000;fill-opacity:1;fill-rule:evenodd;stroke:#000000;stroke-width:1pt;stroke-opacity:1"
         d="m 5.77,0 -8.65,5 0,-10 8.65,5 z"
         id="path5987-0"
         inkscape:connector-curvature="0" />
    </marker>
    <marker
       style="overflow:visible"
       id="TriangleInM-6-4"
       refX="0"
       refY="0"
       orient="auto">
      <path
         transform="scale(-0.4,-0.4)"
         style="fill:#000000;fill-opacity:1;fill-rule:evenodd;stroke:#000000;stroke-width:1pt;stroke-opacity:1"
         d="m 5.77,0 -8.65,5 0,-10 8.65,5 z"
         id="path5978-6-6"
         inkscape:connector-curvature="0" />
    </marker>
    <marker
       style="overflow:visible"
       id="TriangleOutM-4-2"
       refX="0"
       refY="0"
       orient="auto">
      <path
         transform="scale(0.4,0.4)"
         style="fill:#000000;fill-opacity:1;fill-rule:evenodd;stroke:#000000;stroke-width:1pt;stroke-opacity:1"
         d="m 5.77,0 -8.65,5 0,-10 8.65,5 z"
         id="path5987-0-6"
         inkscape:connector-curvature="0" />
    </marker>
    <marker
       style="overflow:visible"
       id="TriangleInM-6-4-5"
       refX="0"
       refY="0"
       orient="auto">
      <path
         transform="scale(-0.4,-0.4)"
         style="fill:#000000;fill-opacity:1;fill-rule:evenodd;stroke:#000000;stroke-width:1pt;stroke-opacity:1"
         d="m 5.77,0 -8.65,5 0,-10 8.65,5 z"
         id="path5978-6-6-6"
         inkscape:connector-curvature="0" />
    </marker>
    <marker
       style="overflow:visible"
       id="TriangleOutM-4-2-9"
       refX="0"
       refY="0"
       orient="auto">
      <path
         transform="scale(0.4,0.4)"
         style="fill:#000000;fill-opacity:1;fill-rule:evenodd;stroke:#000000;stroke-width:1pt;stroke-opacity:1"
         d="m 5.77,0 -8.65,5 0,-10 8.65,5 z"
         id="path5987-0-6-8"
         inkscape:connector-curvature="0" />
    </marker>
  </defs>
  <metadata
     id="metadata7">
    <rdf:RDF>
      <cc:Work
         rdf:about="">
        <dc:format>image/svg+xml</dc:format>
        <dc:type
           rdf:resource="http://purl.org/dc/dcmitype/StillImage" />
        <dc:title></dc:title>
      </cc:Work>
    </rdf:RDF>
  </metadata>
  <g
     id="g4000"
     transform="translate(-1140.6065,-470.77729)">
    <path
       d="m 1188.4786,613.75117 c 1.4953,1.13033 3.1446,1.37292 4.7895,1.40852 3.7058,-0.25059 7.2034,-2.17104 10.6141,-4.22853 5.1736,-3.43714 10.146,-7.53527 15.1116,-11.60831 5.9404,-4.86089 11.8354,-11.84768 17.76,-16.75321 6.2179,-5.23875 12.5272,-10.20149 18.9372,-14.87434 5.9929,-4.36818 12.1276,-8.26068 18.2649,-12.13072 6.2034,-3.96178 12.2853,-8.34191 18.449,-12.44114 5.1349,-3.684 10.528,-4.15533 16.1195,-5.54235 4.735,-1.05923 9.4571,-0.44228 14.1189,0.97674 4.7375,1.44835 8.9093,4.79991 12.7411,9.15368 4.602,5.90625 8.3338,13.17049 11.9223,20.46936 4.1381,8.7185 7.9182,17.81029 11.8277,26.76493 3.8106,8.87063 7.7342,17.61755 11.8539,26.16362 4.1617,8.43138 8.4398,16.72737 12.627,25.12966 3.9095,8.1047 8.2677,15.61859 13.4035,21.95857 5.1034,5.96469 10.4264,8.54528 16.7195,9.82276 7.2549,1.0751 14.2078,-1.91778 20.9179,-5.76227 8.8262,-5.41998 16.4597,-14.0922 23.8516,-23.02182 7.4777,-9.3327 14.5492,-19.38246 21.6532,-29.35683 6.2502,-8.87524 12.5749,-17.62814 18.877,-26.41824 5.8378,-8.14071 11.5442,-16.49618 17.3977,-24.61089 4.3288,-5.92954 8.7478,-11.70137 13.4605,-16.91774 3.8138,-4.25937 8.0922,-7.28206 12.4897,-9.84586 4.3436,-2.60094 8.8774,-3.80703 13.5238,-3.96215 4.8731,-0.0376 9.4757,2.03211 13.9148,4.89437 5.4054,3.71624 9.7915,9.7055 13.9841,15.93402 5.2442,8.0311 9.8502,16.93027 14.3289,25.94392 5.3401,10.67917 10.0052,22.06796 14.5159,33.57838 4.3703,11.77081 9.2082,23.07555 14.6872,33.71956 4.8577,9.39208 10.7618,17.19778 17.1373,24.10103 5.633,6.05969 11.9257,10.02233 18.616,12.3703 6.5327,2.1102 13.0265,0.90203 19.3876,-1.73404 7.1404,-3.35669 13.1923,-9.94343 18.9645,-16.93394 6.8639,-8.80981 13.3636,-18.24825 19.8758,-27.64589 7.2992,-10.35897 14.3346,-21.12143 21.1266,-32.24405 6.6503,-10.90403 12.8487,-22.40779 19.0334,-33.91744 5.1537,-9.85768 10.3166,-19.70295 15.6012,-29.39967 4.1265,-7.65034 8.6018,-14.82388 13.5291,-21.28657 4.2217,-5.51251 9.0239,-9.7097 14.0926,-13.12167 5.09,-3.21725 9.4133,-3.88461 14.8182,-2.61085 5.4043,1.64447 10.0652,5.97497 14.4169,10.91373 5.5501,6.74248 9.7563,15.49345 13.7858,24.27865 5.1024,11.46852 9.5648,23.54573 13.8721,35.73029 3.9648,11.37651 7.5298,23.05691 11.1233,34.70971 2.7832,9.4756 5.8268,18.75358 9.2925,27.69485 3.0372,7.94173 7.0497,14.76732 11.4175,21.05093 3.5605,4.68818 7.5951,8.7403 12.1958,10.61148 0.9545,0.3882 1.9364,0.59957 2.9047,0.89936 6.9233,1.4079 13.7152,-0.97135 20.302,-3.99529 7.6416,-3.77348 14.6724,-9.70131 21.4732,-16.09804 7.7194,-7.38897 14.4408,-16.71818 20.7975,-26.58189 6.8995,-11.04293 12.9292,-23.22788 18.9903,-35.32423 5.5845,-11.40691 11.3353,-22.62028 17.2304,-33.65986 4.6995,-8.66605 9.5872,-17.09595 14.6417,-25.28734 3.4973,-5.65372 7.1834,-11.02214 11.3244,-15.57503 3.1322,-3.33806 6.6215,-5.31689 10.4,-5.99832 3.9994,-0.32856 6.5858,2.09637 9.3739,6.1589 3.776,6.41447 6.0309,14.43841 8.1849,22.29256 2.965,11.73288 5.1054,23.89447 7.3627,35.971 2.4039,13.20963 5.2531,26.2076 8.2545,39.12664 2.7883,11.97885 5.9757,23.72851 9.4267,35.29874 2.5413,8.6273 5.573,16.89079 9.1209,24.65116 2.0416,4.0379 4.1469,8.70126 7.3614,10.75792 0.5259,0.33658 1.0922,0.50519 1.638,0.75778 4.9238,1.17123 8.947,-3.35583 12.6495,-7.65708 5.511,-7.04669 10.3145,-15.24564 15.2031,-23.25165 5.186,-8.58701 10.181,-17.42997 15.1666,-26.28397 4.6766,-8.29339 9.334,-16.61066 13.9682,-24.959 3.7009,-6.68782 7.266,-13.54412 10.8767,-20.34351 3.1124,-5.72557 6.1608,-11.53152 9.3112,-17.2093 2.243,-4.11772 4.4918,-8.22883 6.9465,-12.06132 1.9097,-2.98458 4.1027,-5.16143 6.7588,-6.18281 3.4127,-0.65125 5.2128,3.12483 6.8091,7.09418 2.6325,7.53853 4.3881,15.69697 6.2595,23.71904 2.25,9.94048 4.4725,19.89499 6.7642,29.81339 2.2564,9.91855 4.4758,19.855 6.9114,29.67626 2.1849,9.08017 5.0311,17.71403 8.4269,25.87667 2.7074,6.32589 6.0914,11.66547 10.2926,15.67019 4.4191,3.65166 8.136,3.57677 12.9077,1.86364 6.1514,-2.80227 11.0797,-9.06028 15.7684,-15.45794 5.7832,-8.45036 10.9478,-17.80885 16.0748,-27.16612 5.0367,-9.24268 10.0707,-18.48862 15.1279,-27.70545 3.4996,-6.38437 6.9348,-12.84559 10.7283,-18.83609 2.6436,-4.11301 5.545,-7.69448 9.1666,-9.50277 3.6533,-0.85866 5.775,3.25425 7.725,7.27993 2.43,5.71777 4.8128,11.47551 7.3566,17.07997 2.4042,5.34 5.1591,10.25732 8.1414,14.86424 2.1481,3.31347 4.5191,6.22721 7.2885,8.23207 2.4435,1.68109 4.7899,1.07247 7.2233,-0.21958 2.6984,-1.79797 5.0931,-4.44628 7.4201,-7.15482 1.9914,-2.31081 3.7737,-4.99723 5.4911,-7.75931 1.4161,-2.28819 2.7133,-4.73725 4.0173,-7.17201 0.5129,-1.02771 1.0993,-1.95442 1.6944,-2.87019 l 0.6347,0.95249 0,0 c -0.5759,0.88331 -1.1419,1.7791 -1.637,2.7726 -1.3178,2.46074 -2.6292,4.93534 -4.0608,7.2475 -1.7506,2.8139 -3.5674,5.55038 -5.5971,7.90447 -2.4027,2.79491 -4.8769,5.52477 -7.6696,7.35906 -2.6598,1.39729 -5.2417,1.99996 -7.9017,0.16182 -2.8585,-2.08741 -5.3219,-5.06855 -7.5395,-8.50434 -3.0177,-4.66388 -5.8066,-9.64024 -8.2398,-15.04508 -2.5386,-5.59351 -4.9192,-11.33725 -7.3411,-17.04696 -1.6968,-3.51569 -3.5192,-7.41428 -6.7293,-6.79352 -3.4874,1.70666 -6.2544,5.22516 -8.8001,9.15368 -3.7794,5.9663 -7.1989,12.406 -10.6857,18.7642 -5.0571,9.2166 -10.0911,18.46231 -15.1278,27.70474 -5.1544,9.40738 -10.3475,18.81561 -16.1643,27.30745 -4.8023,6.54849 -9.8562,12.92744 -16.1607,15.76901 -5.1326,1.81865 -8.8343,1.83751 -13.5868,-2.03591 -4.3082,-4.12671 -7.7954,-9.58911 -10.5716,-16.09348 -3.4264,-8.24187 -6.3024,-16.95566 -8.5077,-26.12266 -2.4379,-9.83093 -4.6599,-19.77676 -6.9181,-29.70516 -2.2916,-9.91713 -4.514,-19.8703 -6.7635,-29.80958 -1.8509,-7.93463 -3.587,-16.0038 -6.1808,-23.46737 -1.37,-3.43523 -2.8544,-6.96245 -5.831,-6.48355 -2.4987,0.9291 -4.5399,3.02646 -6.3351,5.81297 -2.4407,3.80821 -4.6735,7.89801 -6.9038,11.98952 -3.1462,5.67014 -6.1904,11.46893 -9.2988,17.18675 -3.6148,6.80705 -7.184,13.67104 -10.889,20.36631 -4.6356,8.35075 -9.2945,16.67043 -13.9725,24.96623 -4.9933,8.86784 -9.9962,17.72445 -15.1904,26.32467 -4.9229,8.06245 -9.7611,16.31872 -15.3155,23.40705 -3.9488,4.57622 -8.2212,9.23166 -13.4558,7.87446 -0.601,-0.2882 -1.2243,-0.48627 -1.8036,-0.86461 -3.333,-2.17734 -5.546,-6.94759 -7.6645,-11.17257 -3.5768,-7.82951 -6.6381,-16.1616 -9.2004,-24.8647 -3.4614,-11.60589 -6.6586,-23.39129 -9.4553,-35.40695 -3.0077,-12.94573 -5.8625,-25.97063 -8.2716,-39.20747 -2.2477,-12.02532 -4.3784,-24.13548 -7.3282,-35.82021 -2.1057,-7.68363 -4.3041,-15.54159 -7.98,-21.83746 -2.5762,-3.78409 -4.9343,-6.07316 -8.6509,-5.78907 -3.628,0.63814 -6.9731,2.55428 -9.9812,5.75037 -4.0967,4.49778 -7.7359,9.81683 -11.1961,15.40379 -5.0403,8.16754 -9.9135,16.57349 -14.5998,25.21425 -5.8894,11.02868 -11.6344,22.23121 -17.2134,33.6269 -6.0835,12.141 -12.1363,24.36975 -19.0626,35.45154 -6.4078,9.94051 -13.1841,19.34066 -20.9655,26.78607 -6.8674,6.45729 -13.968,12.43823 -21.6851,16.24314 -6.7296,3.08497 -13.6682,5.49264 -20.7391,4.02557 -1.0036,-0.31429 -2.0214,-0.53722 -3.0105,-0.94285 -4.7229,-1.93667 -8.869,-6.09 -12.5244,-10.9118 -4.4271,-6.37285 -8.4937,-13.29534 -11.5728,-21.34722 -3.479,-8.97849 -6.5375,-18.29272 -9.3315,-27.80745 -3.5866,-11.63041 -7.1444,-23.28855 -11.1013,-34.64343 -4.291,-12.13873 -8.7359,-24.17076 -13.8183,-35.59686 -3.974,-8.667 -8.1183,-17.30749 -13.588,-23.96796 -4.2322,-4.81099 -8.7638,-9.04275 -14.0203,-10.66008 -5.1376,-1.22995 -9.4845,-0.5846 -14.319,2.51102 -4.9897,3.35379 -9.7153,7.48502 -13.871,12.90838 -4.891,6.41096 -9.3291,13.53443 -13.4247,21.12489 -5.2834,9.69426 -10.4447,19.53741 -15.5973,29.39239 -6.1965,11.53183 -12.4073,23.05731 -19.0703,33.98217 -6.8052,11.14327 -13.8536,21.9265 -21.1662,32.30493 -6.5312,9.42462 -13.0496,18.89019 -19.9344,27.72314 -5.8687,7.10344 -12.0254,13.78279 -19.2861,17.18182 -6.5878,2.71939 -13.0572,3.90062 -19.8235,1.74671 -6.8028,-2.39746 -13.2049,-6.42035 -18.9328,-12.58719 -6.4438,-6.98176 -12.4121,-14.8738 -17.3222,-24.3698 -5.501,-10.6904 -10.3627,-22.03976 -14.7509,-33.86101 -4.4938,-11.468 -9.1413,-22.81536 -14.4613,-33.45516 -4.4518,-8.95985 -9.0292,-17.80694 -14.2408,-25.79159 -4.1123,-6.11168 -8.4085,-12.00105 -13.7093,-15.65554 -4.321,-2.79341 -8.801,-4.81653 -13.5465,-4.78668 -4.5438,0.14443 -8.9757,1.33051 -13.2232,3.87254 -4.3249,2.51904 -8.5334,5.48768 -12.2839,9.67586 -4.6867,5.1857 -9.0792,10.92858 -13.3845,16.82341 -5.8529,8.11361 -11.5582,16.46867 -17.3958,24.60809 -6.3012,8.78911 -12.6251,17.54102 -18.8747,26.41524 -7.1202,9.99716 -14.208,20.06957 -21.7034,29.42237 -7.4651,9.01631 -15.1772,17.76393 -24.0924,23.22925 -6.8505,3.91807 -13.9475,6.95039 -21.3513,5.83728 -6.4601,-1.32411 -11.9275,-3.9848 -17.1638,-10.1146 -5.1878,-6.41522 -9.6025,-13.99546 -13.5521,-22.19196 -4.1898,-8.40805 -8.4711,-16.70953 -12.6355,-25.147 -4.1276,-8.56309 -8.0594,-17.32693 -11.8775,-26.21519 -3.9004,-8.93364 -7.6716,-18.00394 -11.7989,-26.70311 -3.537,-7.19606 -7.2134,-14.36017 -11.7424,-20.19558 -3.7214,-4.24088 -7.7762,-7.49852 -12.3817,-8.90959 -4.5559,-1.39173 -9.171,-1.99858 -13.7999,-0.96785 -5.5181,1.3644 -10.8381,5.81029 -15.9051,9.44619 -6.169,4.10248 -12.2558,8.48702 -18.4646,12.45133 -6.1226,3.86066 -12.2425,7.74343 -18.2211,12.10088 -6.396,4.66257 -12.6915,7.61498 -18.8962,12.84245 -5.9254,4.90633 -11.8215,9.89404 -17.763,14.75577 -4.9962,4.09805 -9.9996,8.22149 -15.2063,11.6755 -3.5205,2.121 -7.1323,4.08878 -10.9577,4.32396 -1.7602,-0.0486 -3.5251,-0.31319 -5.1268,-1.51792 l 0.3516,-1.2454 z"
       id="path4174-8"
       style="color:#000000;clip-rule:nonzero;display:inline;overflow:visible;visibility:visible;opacity:0.781;isolation:auto;mix-blend-mode:normal;color-interpolation:sRGB;color-interpolation-filters:linearRGB;solid-color:#000000;solid-opacity:1;fill:#000000;fill-opacity:1;fill-rule:nonzero;stroke:#000000;stroke-width:2;stroke-linecap:butt;stroke-linejoin:miter;stroke-miterlimit:4;stroke-dasharray:none;stroke-dashoffset:0;stroke-opacity:1;color-rendering:auto;image-rendering:auto;shape-rendering:auto;text-rendering:auto;enable-background:accumulate"
       inkscape:connector-curvature="0" />
    <path
       d="m 1174.9388,736.48145 c 4.5777,-0.23681 9.1612,-0.40627 13.7477,-0.54826 7.1909,-0.20873 14.3872,-0.31822 21.5831,-0.41966 7.6995,-0.10534 15.3999,-0.17554 23.1003,-0.23848 7.4056,-0.0597 14.8114,-0.0999 22.2174,-0.13399 7.6874,-0.15433 15.3686,-0.41704 23.0531,-0.62369 7.8361,-0.18722 15.6711,-0.33292 23.501,-0.61398 9.2879,-0.27652 18.5639,-0.66049 27.8391,-1.0774 9.0331,-0.50839 18.096,-0.60245 27.1559,-0.67265 9.2922,-0.0329 18.5803,-0.0597 27.8681,-0.25387 9.5479,-0.25518 19.1078,-0.18009 28.6612,-0.15255 10.4335,0.0353 20.8669,0.061 31.3006,0.0823 12.0183,-0.0619 24.0306,0.19249 36.0427,0.40843 12.7548,0.26089 25.5098,0.41133 38.2703,0.37103 12.3243,-0.13131 24.6446,-0.1451 36.9683,-0.001 9.1391,0.12619 18.2316,0.76102 27.3333,1.26384 9.3632,0.66743 18.7522,1.15545 28.1265,1.74388 10.0397,0.70449 20.0142,1.73702 29.9998,2.7054 11.9797,1.13492 23.9919,2.10738 36.0062,3.06885 13.2832,1.07164 26.5891,2.00525 39.8911,2.96697 14.5165,1.18144 29.1254,1.65928 43.7283,2.08506 15.7721,0.45662 31.5588,0.62478 47.3344,1.00749 14.2015,0.30794 28.363,1.13461 42.5103,1.9738 15.4644,0.96979 30.9671,1.62443 46.475,2.19995 15.5412,0.53147 31.0681,1.22168 46.6079,1.77081 16.0882,0.64222 32.206,0.73815 48.3178,0.83935 17.4325,0.15652 34.8656,-0.0897 52.2808,-0.59011 14.8072,-0.31212 29.5301,-1.39332 44.2197,-2.59531 15.1578,-1.37572 30.2857,-2.88708 45.4511,-4.22787 13.4077,-1.15259 26.8423,-2.1541 40.246,-3.32648 11.6658,-1.09518 23.2401,-2.56524 34.8502,-3.88421 11.3678,-1.17959 22.7094,-2.4641 34.0734,-3.65892 9.4639,-0.94399 18.9008,-2.0029 28.3064,-3.1718 8.3944,-0.99785 16.7429,-2.14737 25.0976,-3.27791 6.5886,-0.94915 13.1277,-2.03743 19.7033,-3.02293 5.888,-0.96387 11.7983,-1.86631 17.7116,-2.76058 3.7312,-0.56304 7.4634,-1.1231 11.1955,-1.68323 2.391,-0.34095 4.7933,-0.64659 7.1948,-0.95376 1.3966,-0.17829 2.7935,-0.35567 4.1905,-0.53305 4.2261,0.14856 -0.303,3.07981 -1.5517,3.81095 -4.0204,2.17756 -8.0573,4.34571 -12.1382,6.47475 -4.0585,1.97417 -8.0186,4.03375 -11.9841,6.08746 -2.3796,1.23374 -4.7567,2.46955 -7.1338,3.70534 -1.684,0.95417 -3.3323,1.60628 -5.3069,0.68745 -1.3027,-1.92086 -0.7098,-4.16515 -0.5198,-6.20557 0.09,-2.67445 -0.033,-5.34973 -0.1273,-8.02347 -0.067,-1.868 -0.1412,-3.7359 -0.2046,-5.60398 -0.1593,-1.18574 -0.5483,-2.35082 -0.9281,-3.51257 -0.2297,-0.69409 -0.4657,-1.38722 -0.7018,-2.08038 -0.2066,-1.44334 1.762,-1.731 3.5039,-1.83634 3.5757,-0.12348 7.1461,0.2502 10.6572,0.65546 4.103,0.50273 8.1292,1.25018 12.0692,2.1497 2.9262,0.63781 5.7274,1.48121 8.5158,2.33828 1.7451,0.54026 3.4845,1.08842 5.2239,1.63643 0.6616,0.16551 1.2534,0.47334 1.9519,0.56656 0,0 -0.608,1.45811 -0.608,1.45811 l 0,0 c -0.8189,-0.16342 -1.5716,-0.40939 -2.3371,-0.66112 -1.733,-0.54593 -3.4658,-1.09201 -5.2041,-1.63026 -2.7172,-0.83519 -5.445,-1.65912 -8.2969,-2.27979 -3.8236,-0.87407 -7.7315,-1.5995 -11.7133,-2.08885 -3.3135,-0.3846 -6.6845,-0.74216 -10.0596,-0.63825 -0.4093,0.0217 -1.273,0.0867 -1.4594,-3.2e-4 0.2375,0.69736 0.475,1.39469 0.7059,2.09299 0.4103,1.25493 0.8288,2.51418 0.979,3.79666 0.064,1.86764 0.137,3.73511 0.2046,5.60269 0.096,2.71619 0.2222,5.43404 0.1236,8.1509 -0.1556,1.66964 -0.3748,3.3816 -0.1575,5.03863 0.1266,0.0524 1.5823,-0.26227 2.2636,-0.79907 2.3783,-1.23636 4.7565,-2.47275 7.1373,-3.70706 3.9633,-2.05262 7.9209,-4.1114 11.9777,-6.08416 4.0484,-2.11169 8.0518,-4.26347 12.0421,-6.42184 0.1127,-0.0651 2.4014,-1.68836 2.5184,-1.68595 0.088,0.002 1.1338,0.77568 0.9939,0.49114 -1.3959,0.17726 -2.7918,0.3545 -4.1875,0.53266 -2.3771,0.30406 -4.7551,0.60661 -7.1221,0.94369 -3.7309,0.55993 -7.4619,1.11981 -11.1917,1.68265 -5.9148,0.89451 -11.8265,1.79738 -17.7161,2.76127 -6.5915,0.98759 -13.1461,2.07926 -19.7507,3.02969 -8.367,1.13217 -16.7275,2.2832 -25.1341,3.28264 -9.4269,1.1713 -18.885,2.23309 -28.3703,3.17913 -11.3546,1.19378 -22.6868,2.47734 -34.045,3.65581 -11.6395,1.32224 -23.2431,2.79621 -34.9386,3.89307 -13.4025,1.17228 -26.836,2.17395 -40.2427,3.32621 -15.1729,1.34137 -30.3081,2.85396 -45.4736,4.22977 -14.7505,1.2068 -29.5345,2.2916 -44.4032,2.60545 -17.456,0.50125 -34.9298,0.74842 -52.4031,0.59147 -16.1456,-0.10142 -32.2972,-0.19802 -48.4192,-0.84146 -15.5418,-0.54922 -31.0708,-1.23943 -46.6139,-1.77102 -15.5338,-0.57651 -31.0621,-1.23235 -46.5521,-2.20367 -14.1069,-0.83691 -28.2278,-1.66156 -42.3886,-1.96871 -15.7813,-0.38304 -31.5737,-0.55081 -47.3514,-1.00795 -14.6527,-0.42732 -29.3116,-0.90762 -43.8777,-2.09263 -13.3109,-0.96241 -26.6256,-1.89665 -39.9177,-2.96899 -12.0334,-0.96303 -24.0648,-1.93713 -36.0638,-3.07395 -9.9468,-0.96465 -19.8824,-1.99336 -29.8829,-2.69608 -9.3656,-0.5881 -18.746,-1.0751 -28.1004,-1.74233 -9.0514,-0.50008 -18.0932,-1.13208 -27.1815,-1.25877 -12.3065,-0.14323 -24.6096,-0.12916 -36.9166,0.002 -12.7852,0.0403 -25.5648,-0.11014 -38.3442,-0.37157 -11.9935,-0.21561 -23.9873,-0.46986 -35.9872,-0.40787 -10.4345,-0.0214 -20.8689,-0.047 -31.3035,-0.0823 -9.5256,-0.0274 -19.0577,-0.10273 -28.5779,0.1518 -9.3032,0.19449 -18.6067,0.22175 -27.9141,0.25452 -9.0166,0.0698 -18.0362,0.16267 -27.0264,0.66924 -9.2856,0.41737 -18.5721,0.80174 -27.8704,1.07867 -7.8404,0.28137 -15.6858,0.42775 -23.5325,0.61497 -7.7103,0.20734 -15.4174,0.47145 -23.1309,0.62491 -7.4017,0.034 -14.8033,0.0743 -22.2048,0.13391 -7.6936,0.0629 -15.3871,0.13301 -23.0796,0.23825 -7.1764,0.10116 -14.3531,0.21027 -21.5243,0.41834 -4.6226,0.14304 -9.2415,0.31874 -13.8558,0.54992 0,0 0,-1.51194 0,-1.51194 z"
       id="path4214-9"
       style="color:#000000;clip-rule:nonzero;display:inline;overflow:visible;visibility:visible;opacity:0.781;isolation:auto;mix-blend-mode:normal;color-interpolation:sRGB;color-interpolation-filters:linearRGB;solid-color:#000000;solid-opacity:1;fill:#b3b3b3;fill-opacity:1;fill-rule:nonzero;stroke:#b3b3b3;stroke-width:1.19968784;stroke-linecap:butt;stroke-linejoin:miter;stroke-miterlimit:4;stroke-dasharray:none;stroke-dashoffset:0;stroke-opacity:1;color-rendering:auto;image-rendering:auto;shape-rendering:auto;text-rendering:auto;enable-background:accumulate"
       inkscape:connector-curvature="0" />
    <path
       d="m 1185.9923,755.33866 c -0.7931,-2.73859 -1.0157,-5.66625 -1.1271,-8.57905 -0.022,-6.45374 0.6985,-4.85787 1.2697,-11.24981 0.9114,-9.66868 1.498,-19.37457 1.7485,-29.11439 0.1726,-11.43461 -0.3682,-22.85918 -0.8535,-34.26848 -0.6745,-12.881 -1.2513,-25.76962 -1.7262,-38.66691 -0.4323,-13.03984 -0.9461,-26.0744 -1.5273,-39.10346 -0.6047,-12.48641 -1.0176,-24.98398 -1.239,-37.49304 -0.2031,-11.87955 -0.1134,-23.76394 -0.052,-35.64513 0.042,-7.61015 0.09,-15.22022 0.1377,-22.83029 0.029,-4.30915 0.055,-8.61831 0.083,-12.92747 0.022,-2.42076 0.031,-4.84153 0.046,-7.2623 0,-1.35939 0.022,-2.71878 0.026,-4.07817 0.1004,-1.08339 -0.4772,-1.65337 0.4869,-0.76909 -1.1818,2.47341 -2.282,5.0166 -3.4444,7.50704 -2.1003,4.56178 -4.1395,9.17436 -6.1516,13.80859 -1.3805,3.18766 -2.754,6.38073 -4.1275,9.57367 -0.6308,1.38273 -1.0925,2.8726 -1.3711,4.45028 -0.042,0.44988 0.022,0.88848 0.097,1.32219 0.046,0.23209 0.096,0.46199 0.1462,0.69201 -0.023,-0.0582 0.055,0.20699 0.035,0.15881 -0.2852,-0.68775 0.5312,-0.26486 0.8923,-0.23251 2.7231,0.13304 5.4455,-0.23964 8.1601,-0.48937 4.0036,-0.47817 8.0073,-0.95481 12.013,-1.39373 2.885,-0.31168 5.7704,-0.61333 8.6559,-0.91526 1.6352,-0.17584 3.2714,-0.33359 4.9061,-0.51718 0.5312,0.0625 1.2433,-0.30292 1.5241,-0.56335 -0.1464,-1.05783 -0.6184,-1.99882 -1.0772,-2.89133 -1.3583,-2.38639 -2.8531,-4.62248 -4.2889,-6.92267 -1.6227,-2.54069 -3.269,-5.05285 -4.8913,-7.5943 -1.1224,-1.80702 -2.3178,-3.52915 -3.4167,-5.3628 -0.8353,-1.44002 -1.6982,-2.85381 -2.6051,-4.21257 -0.8946,-1.3505 -1.7728,-2.71867 -2.6331,-4.1103 -0.5616,-0.91181 -1.1207,-1.82677 -1.6796,-2.74166 -0.1726,-0.336 -0.3958,-0.60854 -0.595,-0.91088 l 0.8284,-0.96174 0,0 c 0.2141,0.29201 0.4187,0.59869 0.6056,0.92746 0.5574,0.91272 1.1151,1.8255 1.6754,2.73515 0.8513,1.37755 1.7208,2.73236 2.6066,4.0687 0.9185,1.37969 1.796,2.8109 2.6428,4.2722 1.0897,1.82315 2.2812,3.52985 3.3943,5.32687 1.625,2.54556 3.2742,5.06172 4.8991,7.60667 1.4586,2.33667 2.979,4.60661 4.3534,7.03665 0.6733,1.32722 1.4188,2.75007 1.1397,4.43984 -0.5594,1.07843 -1.4608,1.25366 -2.3929,1.33328 -1.6366,0.18375 -3.2749,0.34186 -4.9121,0.51784 -2.8838,0.30179 -5.7682,0.6033 -8.6516,0.91484 -4.0107,0.43942 -8.019,0.91698 -12.0272,1.39514 -2.7634,0.25421 -5.535,0.63273 -8.3068,0.48943 -0.6166,-0.0573 -1.6529,0.0461 -1.8982,-0.97666 -0.055,-0.25111 -0.1108,-0.50211 -0.1594,-0.75567 -0.1226,-0.66776 -0.1879,-1.3446 -0.098,-2.03182 0.3061,-1.7171 0.8042,-3.34326 1.4896,-4.8503 1.3744,-3.19465 2.7487,-6.38944 4.1297,-9.57879 2.0183,-4.64792 4.0632,-9.27409 6.1699,-13.84927 1.2015,-2.57307 2.3202,-5.22058 3.5799,-7.74115 1.6461,-0.36569 1.3563,-0.14477 1.3883,1.80863 0,1.35939 -0.022,2.71879 -0.026,4.07818 -0.022,2.42076 -0.03,4.84153 -0.046,7.2623 -0.029,4.30911 -0.055,8.61823 -0.083,12.92736 -0.048,7.60928 -0.096,15.21858 -0.1376,22.82793 -0.061,11.86585 -0.1507,23.73491 0.052,35.59912 0.2211,12.49107 0.6334,24.97065 1.2373,37.43909 0.5817,13.03428 1.0957,26.07404 1.5283,39.1191 0.4744,12.89346 1.0512,25.77823 1.7254,38.65542 0.4872,11.45492 1.0312,22.92525 0.8548,34.40559 -0.2522,9.78208 -0.8404,19.53029 -1.756,29.24097 -0.5635,6.30798 -1.2737,4.62738 -1.263,10.99592 0.1004,2.73864 0.3036,5.49228 1.0403,8.07154 l -1.0021,0.58309 z"
       id="path4220-3"
       style="color:#000000;clip-rule:nonzero;display:inline;overflow:visible;visibility:visible;opacity:0.781;isolation:auto;mix-blend-mode:normal;color-interpolation:sRGB;color-interpolation-filters:linearRGB;solid-color:#000000;solid-opacity:1;fill:#b3b3b3;fill-opacity:1;fill-rule:nonzero;stroke:#b3b3b3;stroke-width:0.81735975;stroke-linecap:butt;stroke-linejoin:miter;stroke-miterlimit:4;stroke-dasharray:none;stroke-dashoffset:0;stroke-opacity:1;color-rendering:auto;image-rendering:auto;shape-rendering:auto;text-rendering:auto;enable-background:accumulate"
       inkscape:connector-curvature="0" />
    <g
       transform="translate(105.49852,373.57209)"
       style="font-style:normal;font-weight:normal;font-size:40px;line-height:125%;font-family:sans-serif;letter-spacing:0px;word-spacing:0px;fill:#4d4d4d;fill-opacity:1;stroke:none;stroke-width:1px;stroke-linecap:butt;stroke-linejoin:miter;stroke-opacity:1"
       id="flowRoot4242-6">
      <path
         d="m 1569.7773,386.60828 q 0,-0.8789 0.586,-1.5039 0.6055,-0.625 1.4453,-0.625 l 16.4062,0 q 0.8399,0 1.4454,0.625 0.6054,0.625 0.6054,1.5039 0,0.91797 -0.6054,1.54297 -0.6055,0.60547 -1.4454,0.60547 l -6.4062,0 0,20.83984 q 0,0.87891 -0.6055,1.50391 -0.5859,0.625 -1.4258,0.625 -0.8398,0 -1.4453,-0.60547 -0.5859,-0.625 -0.5859,-1.52344 l 0,-20.83984 -5.9375,0 q -0.8398,0 -1.4453,-0.60547 -0.586,-0.625 -0.586,-1.54297 z"
         style="font-style:normal;font-variant:normal;font-weight:bold;font-stretch:normal;font-family:'Comic Neue';-inkscape-font-specification:'Comic Neue Bold';fill:#4d4d4d"
         id="path4020" />
      <path
         d="m 1592.8438,409.65516 0,-15.76172 q 0,-0.91797 0.6445,-1.54297 0.6445,-0.625 1.5625,-0.625 0.918,0 1.543,0.625 0.6445,0.60547 0.6445,1.54297 l -0.078,15.76172 q 0,0.91797 -0.625,1.54297 -0.6055,0.60546 -1.5235,0.60546 -0.9179,0 -1.5429,-0.60546 -0.625,-0.625 -0.625,-1.54297 z m 0.1562,-22.12891 0.078,-1.36719 q 0,-0.8789 0.625,-1.48437 0.625,-0.625 1.5039,-0.625 0.8789,0 1.4844,0.625 0.625,0.60547 0.625,1.48437 l -0.078,1.36719 q 0,0.87891 -0.625,1.50391 -0.6055,0.625 -1.4844,0.625 -0.8789,0 -1.5039,-0.625 -0.625,-0.625 -0.625,-1.50391 z"
         style="font-style:normal;font-variant:normal;font-weight:bold;font-stretch:normal;font-family:'Comic Neue';-inkscape-font-specification:'Comic Neue Bold';fill:#4d4d4d"
         id="path4022" />
      <path
         d="m 1602.5313,409.59656 0,-15.83984 q 0,-0.87891 0.625,-1.48438 0.625,-0.625 1.5039,-0.625 0.8789,0 1.4843,0.625 0.625,0.60547 0.625,1.48438 l 0,0.64453 q 0.3125,-0.35156 0.6446,-0.64453 0.3515,-0.3125 0.6836,-0.625 2.207,-1.91406 4.2773,-1.93359 1.9922,0 3.3203,0.97656 0.9961,0.68359 1.6406,1.875 0.8789,-0.95703 1.9532,-1.60156 1.9922,-1.23047 3.7304,-1.25 2.5196,0 4.043,1.60156 1.9141,1.91406 1.9141,6.05469 l 0,10.74218 q 0,0.87891 -0.625,1.50391 -0.625,0.625 -1.5039,0.625 -0.8789,0 -1.5039,-0.60547 -0.6055,-0.625 -0.6055,-1.52344 l 0,-10.99609 q 0,-0.64453 -0.1367,-1.60156 -0.1172,-0.95703 -0.5469,-1.46485 -0.3516,-0.35156 -1.0352,-0.37109 -0.4882,0 -1.3086,0.37109 -0.8203,0.35157 -1.582,1.03516 -0.6445,0.56641 -1.2305,1.50391 -0.5664,0.9375 -0.5664,2.32421 l 0,9.19922 q 0,0.87891 -0.625,1.50391 -0.6054,0.625 -1.4843,0.625 -0.8789,0 -1.5039,-0.60547 -0.625,-0.625 -0.625,-1.52344 l 0,-10.99609 q 0,-0.64453 -0.1172,-1.60156 -0.1172,-0.95703 -0.5664,-1.46485 -0.3516,-0.35156 -1.0352,-0.37109 -0.6836,0 -2.1875,1.13281 -1.4844,1.11328 -3.125,3.82813 -0.1562,0.23437 -0.2344,0.54687 -0.059,0.29297 -0.059,0.41016 l 0,8.51562 q 0,0.87891 -0.625,1.50391 -0.6054,0.625 -1.4843,0.625 -0.8789,0 -1.5039,-0.60547 -0.625,-0.625 -0.625,-1.52344 z"
         style="font-style:normal;font-variant:normal;font-weight:bold;font-stretch:normal;font-family:'Comic Neue';-inkscape-font-specification:'Comic Neue Bold';fill:#4d4d4d"
         id="path4024" />
      <path
         d="m 1633.5664,401.76453 q 0,-1.95312 0.7031,-3.71094 0.7032,-1.77734 1.9141,-3.10546 1.2305,-1.34766 2.8711,-2.16797 1.6406,-0.82032 3.5156,-0.9375 0.3516,-0.0391 0.7031,-0.0391 1.9141,0 3.4961,0.91797 1.875,1.07422 3.0078,2.89063 0.1954,0.3125 0.3321,0.64453 0.1367,0.3125 0.3125,0.58594 0.1953,0.37109 0.1953,0.82031 0,0.25391 -0.059,0.56641 -0.1758,0.82031 -1.0156,1.25 -0.7227,0.39062 -2.0313,1.13281 -1.289,0.72265 -2.8125,1.5625 -1.5234,0.83984 -3.0859,1.71875 -1.5625,0.8789 -2.793,1.54297 0.6445,0.80078 1.4649,1.36718 1.289,0.87891 2.9296,0.87891 2.2852,0 3.9649,-1.75781 l 0.8008,-0.83985 q 0.5664,-0.5664 1.3867,-0.5664 0.8398,0 1.4453,0.60547 0.6055,0.60547 0.6055,1.40625 0,0.72265 -0.4883,1.30859 l -0.8008,0.83984 q -1.3672,1.48438 -3.1641,2.28516 -1.7578,0.76172 -3.75,0.76172 -1.9921,0 -3.7695,-0.78125 -1.7578,-0.78125 -3.0664,-2.10938 -1.2891,-1.34765 -2.0508,-3.16406 -0.7617,-1.8164 -0.7617,-3.90625 z m 4.043,-0.27344 q 0.8398,-0.48828 1.9531,-1.09375 1.1328,-0.625 2.2461,-1.25 1.1328,-0.625 2.1484,-1.1914 1.0157,-0.58594 1.7383,-0.9961 -1.0351,-1.03515 -2.4023,-1.11328 -1.3672,0.0391 -2.3828,0.54688 -1.0157,0.48828 -1.7383,1.28906 -1.4453,1.64063 -1.5625,3.80859 z"
         style="font-style:normal;font-variant:normal;font-weight:bold;font-stretch:normal;font-family:'Comic Neue';-inkscape-font-specification:'Comic Neue Bold';fill:#4d4d4d"
         id="path4026" />
    </g>
    <g
       transform="matrix(0,-1,1,0,756.92789,2208.823)"
       style="font-style:normal;font-weight:normal;font-size:40px;line-height:125%;font-family:sans-serif;letter-spacing:0px;word-spacing:0px;fill:#4d4d4d;fill-opacity:1;stroke:none;stroke-width:1px;stroke-linecap:butt;stroke-linejoin:miter;stroke-opacity:1"
       id="flowRoot4242-3-1">
      <path
         d="m 1572.1797,409.69422 q 0,-0.87891 0.5859,-1.48438 0.6055,-0.60546 1.4453,-0.60546 l 2.4805,0 0,-19.04297 -2.4805,0 q -0.8398,0 -1.4453,-0.58594 -0.5859,-0.60547 -0.5859,-1.44531 0,-0.87891 0.5859,-1.48438 0.6055,-0.60547 1.4453,-0.60547 l 9.043,0 q 0.8399,0 1.4453,0.60547 0.6055,0.60547 0.6055,1.48438 0,0.83984 -0.6055,1.44531 -0.6054,0.58594 -1.4453,0.58594 l -2.4414,0 0,19.04297 2.4414,0 q 0.8399,0 1.4453,0.60546 0.6055,0.58594 0.6055,1.48438 0,0.83984 -0.6055,1.44531 -0.6054,0.58594 -1.4453,0.58594 l -9.043,0 q -0.8398,0 -1.4453,-0.58594 -0.5859,-0.60547 -0.5859,-1.44531 z"
         style="font-style:normal;font-variant:normal;font-weight:bold;font-stretch:normal;font-family:'Comic Neue';-inkscape-font-specification:'Comic Neue Bold';fill:#4d4d4d"
         id="path4029" />
      <path
         d="m 1589.6992,397.95594 q 0.1953,-2.67578 1.2305,-5.11719 1.0547,-2.44141 2.8125,-4.35547 1.7187,-1.83594 3.9258,-2.87109 2.207,-1.07422 4.6484,-1.09375 2.0313,0 3.8672,0.76172 1.8359,0.76172 3.3203,2.20703 2.0313,1.99219 3.0078,4.78515 0.8008,2.34375 0.8008,4.92188 0,0.52734 -0.039,1.05469 -0.2343,2.79297 -1.3281,5.3125 -0.8789,1.83593 -2.0312,3.32031 l 2.5195,1.71875 q 0.6836,0.52734 0.8789,1.36719 0.039,0.21484 0.039,0.41015 0,0.60547 -0.3321,1.19141 -0.6445,0.95703 -1.7187,0.95703 -0.5664,0 -1.1133,-0.35156 l -3.4375,-2.36328 q -2.832,1.875 -6.0742,1.875 -2.0313,0 -3.8867,-0.76172 -1.836,-0.76172 -3.3203,-2.20703 -2.0313,-1.99219 -2.9883,-4.80469 -0.8203,-2.32422 -0.8203,-4.90234 0,-0.52735 0.039,-1.05469 z m 4.2578,0.29297 q -0.039,0.42968 -0.039,0.83984 0,1.77734 0.5468,3.41797 0.6836,2.01172 2.0118,3.30078 1.7968,1.71875 4.1992,1.71875 1.1523,0 2.1875,-0.41016 l -1.2305,-0.83984 q -0.6836,-0.44922 -0.8789,-1.34766 -0.039,-0.21484 -0.039,-0.42968 0,-0.58594 0.3125,-1.17188 0.6446,-0.95703 1.7188,-0.95703 0.6445,0 1.1133,0.35156 l 2.5781,1.75782 q 1.1133,-1.32813 1.7578,-2.98829 0.6641,-1.67968 0.8399,-3.53515 0.019,-0.29297 0.019,-0.58594 0,-1.83594 -0.625,-3.57422 -0.8008,-2.1289 -2.168,-3.39844 -1.8359,-1.71875 -4.2383,-1.71875 -1.4843,0 -2.8515,0.70313 -1.3477,0.70312 -2.5,1.99219 -1.1524,1.36718 -1.8555,3.125 -0.7031,1.73828 -0.8594,3.75 z"
         style="font-style:normal;font-variant:normal;font-weight:bold;font-stretch:normal;font-family:'Comic Neue';-inkscape-font-specification:'Comic Neue Bold';fill:#4d4d4d"
         id="path4031" />
      <path
         d="m 1619.3281,389.81141 q -0.7617,-0.44922 -0.9961,-1.3086 -0.2148,-0.85937 0.2344,-1.62109 0.6445,-1.03516 1.8359,-1.03516 0.5665,0 1.0352,0.23438 l 0.5664,0.29297 0,-0.56641 q 0,-0.87891 0.6055,-1.50391 0.625,-0.625 1.5039,-0.625 0.918,0 1.5234,0.625 0.6055,0.625 0.6055,1.50391 l 0,0.60547 q 0.1953,-0.0781 0.3516,-0.15625 0.1757,-0.0977 0.2539,-0.13672 0.4492,-0.27344 1.0351,-0.27344 1.1914,0 1.836,1.07422 0.4492,0.76172 0.1953,1.60156 -0.2735,0.91797 -0.9961,1.32813 l -0.039,0 q -0.2734,0.15625 -0.6836,0.35156 -0.3906,0.19531 -0.5469,0.29297 0.1954,0.23438 0.586,0.68359 0.4101,0.42969 0.4883,0.50782 0.6054,0.60547 0.6054,1.52343 0,0.83985 -0.6445,1.48438 -0.6445,0.64453 -1.4844,0.625 -0.8789,0 -1.5234,-0.625 l -0.039,0 0,-0.0391 q -0.039,-0.0391 -0.2148,-0.23438 -0.1758,-0.21484 -0.4102,-0.44922 -0.2148,-0.2539 -0.4297,-0.48828 -0.2148,-0.23437 -0.2929,-0.3125 -0.039,-0.0391 -0.059,-0.0781 -0.02,-0.0391 -0.059,-0.0781 -0.039,0.0781 -0.1758,0.19531 -0.078,0.0781 -0.2734,0.3125 -0.1954,0.23438 -0.4297,0.48829 -0.2149,0.23437 -0.3907,0.44921 -0.1757,0.19532 -0.2148,0.23438 l -0.039,0.0391 q -0.6445,0.625 -1.5234,0.625 -0.8398,0 -1.4844,-0.625 -0.6445,-0.5664 -0.6445,-1.48437 0,-0.83985 0.5664,-1.48438 0.039,-0.0391 0.1953,-0.21484 0.1563,-0.17578 0.332,-0.3711 0.1954,-0.21484 0.3711,-0.41015 0.1758,-0.19531 0.2539,-0.27344 -0.039,0 -0.058,-0.0195 -0.02,-0.0391 -0.059,-0.0391 l -1.2305,-0.625 -0.039,0 z"
         style="font-style:normal;font-variant:normal;font-weight:bold;font-stretch:normal;font-family:'Comic Neue';-inkscape-font-specification:'Comic Neue Bold';fill:#4d4d4d"
         id="path4033" />
    </g>
    <g
       id="layer1-1"
       transform="translate(946.01222,232.56445)">
      <g
         transform="matrix(0.77876022,0,0,0.77876022,62.737961,67.579256)"
         id="g5409">
        <circle
           style="color:#000000;clip-rule:nonzero;display:inline;overflow:visible;visibility:visible;opacity:1;isolation:auto;mix-blend-mode:normal;color-interpolation:sRGB;color-interpolation-filters:linearRGB;solid-color:#000000;solid-opacity:1;fill:none;fill-opacity:1;fill-rule:nonzero;stroke:#ffffff;stroke-width:20;stroke-linecap:butt;stroke-linejoin:miter;stroke-miterlimit:4;stroke-dasharray:none;stroke-dashoffset:0;stroke-opacity:1;color-rendering:auto;image-rendering:auto;shape-rendering:auto;text-rendering:auto;enable-background:accumulate"
           id="path5386-0"
           cx="335.87134"
           cy="334.92453"
           r="51.42857" />
        <g
           id="g5405">
          <circle
             r="51.42857"
             cy="334.92453"
             cx="335.87134"
             id="path5386"
             style="color:#000000;clip-rule:nonzero;display:inline;overflow:visible;visibility:visible;opacity:1;isolation:auto;mix-blend-mode:normal;color-interpolation:sRGB;color-interpolation-filters:linearRGB;solid-color:#000000;solid-opacity:1;fill:none;fill-opacity:1;fill-rule:nonzero;stroke:#000000;stroke-width:15;stroke-linecap:butt;stroke-linejoin:miter;stroke-miterlimit:4;stroke-dasharray:none;stroke-dashoffset:0;stroke-opacity:1;color-rendering:auto;image-rendering:auto;shape-rendering:auto;text-rendering:auto;enable-background:accumulate" />
          <rect
             rx="4.4103541"
             transform="matrix(0.55463893,0.83209113,-0.86561518,0.50070986,0,0)"
             ry="3.5905404"
             y="-98.065628"
             x="512.20422"
             height="7.1810808"
             width="128.13286"
             id="rect5388"
             style="color:#000000;clip-rule:nonzero;display:inline;overflow:visible;visibility:visible;opacity:1;isolation:auto;mix-blend-mode:normal;color-interpolation:sRGB;color-interpolation-filters:linearRGB;solid-color:#000000;solid-opacity:1;fill:none;fill-opacity:1;fill-rule:nonzero;stroke:#000000;stroke-width:9.41899109;stroke-linecap:butt;stroke-linejoin:miter;stroke-miterlimit:4;stroke-dasharray:none;stroke-dashoffset:0;stroke-opacity:1;color-rendering:auto;image-rendering:auto;shape-rendering:auto;text-rendering:auto;enable-background:accumulate" />
        </g>
      </g>
    </g>
  </g>
</svg>
