<?xml version="1.0" encoding="UTF-8" standalone="no"?>
<svg
   xmlns:dc="http://purl.org/dc/elements/1.1/"
   xmlns:cc="http://creativecommons.org/ns#"
   xmlns:rdf="http://www.w3.org/1999/02/22-rdf-syntax-ns#"
   xmlns:svg="http://www.w3.org/2000/svg"
   xmlns="http://www.w3.org/2000/svg"
   width="386.505mm"
   height="62.212326mm"
   viewBox="0 0 1369.5059 220.43737"
   id="svg2"
   version="1.1">
  <defs
     id="defs4">
    <marker
       orient="auto"
       refY="0"
       refX="0"
       id="Arrow1Lend"
       style="overflow:visible">
      <path
         id="path5845"
         d="M 0,0 5,-5 -12.5,0 5,5 0,0 Z"
         style="fill:#000000;fill-opacity:1;fill-rule:evenodd;stroke:#000000;stroke-width:1pt;stroke-opacity:1"
         transform="matrix(-0.8,0,0,-0.8,-10,0)" />
    </marker>
    <marker
       orient="auto"
       refY="0"
       refX="0"
       id="TriangleOutM"
       style="overflow:visible">
      <path
         id="path5987"
         d="m 5.77,0 -8.65,5 0,-10 8.65,5 z"
         style="fill:#000000;fill-opacity:1;fill-rule:evenodd;stroke:#000000;stroke-width:1pt;stroke-opacity:1"
         transform="scale(0.4,0.4)" />
    </marker>
    <marker
       orient="auto"
       refY="0"
       refX="0"
       id="TriangleInM"
       style="overflow:visible">
      <path
         id="path5978"
         d="m 5.77,0 -8.65,5 0,-10 8.65,5 z"
         style="fill:#000000;fill-opacity:1;fill-rule:evenodd;stroke:#000000;stroke-width:1pt;stroke-opacity:1"
         transform="scale(-0.4,-0.4)" />
    </marker>
    <marker
       orient="auto"
       refY="0"
       refX="0"
       id="Arrow2Mstart"
       style="overflow:visible">
      <path
         id="path5866"
         style="fill:#000000;fill-opacity:1;fill-rule:evenodd;stroke:#000000;stroke-width:0.625;stroke-linejoin:round;stroke-opacity:1"
         d="M 8.7185878,4.0337352 -2.2072895,0.01601326 8.7185884,-4.0017078 c -1.7454984,2.3720609 -1.7354408,5.6174519 -6e-7,8.035443 z"
         transform="scale(0.6,0.6)" />
    </marker>
    <marker
       orient="auto"
       refY="0"
       refX="0"
       id="Arrow1Lstart"
       style="overflow:visible">
      <path
         id="path5842"
         d="M 0,0 5,-5 -12.5,0 5,5 0,0 Z"
         style="fill:#000000;fill-opacity:1;fill-rule:evenodd;stroke:#000000;stroke-width:1pt;stroke-opacity:1"
         transform="matrix(0.8,0,0,0.8,10,0)" />
    </marker>
    <marker
       orient="auto"
       refY="0"
       refX="0"
       id="TriangleInM-6"
       style="overflow:visible">
      <path
         id="path5978-6"
         d="m 5.77,0 -8.65,5 0,-10 8.65,5 z"
         style="fill:#000000;fill-opacity:1;fill-rule:evenodd;stroke:#000000;stroke-width:1pt;stroke-opacity:1"
         transform="scale(-0.4,-0.4)" />
    </marker>
    <marker
       orient="auto"
       refY="0"
       refX="0"
       id="TriangleOutM-4"
       style="overflow:visible">
      <path
         id="path5987-0"
         d="m 5.77,0 -8.65,5 0,-10 8.65,5 z"
         style="fill:#000000;fill-opacity:1;fill-rule:evenodd;stroke:#000000;stroke-width:1pt;stroke-opacity:1"
         transform="scale(0.4,0.4)" />
    </marker>
    <marker
       orient="auto"
       refY="0"
       refX="0"
       id="TriangleInM-6-4"
       style="overflow:visible">
      <path
         id="path5978-6-6"
         d="m 5.77,0 -8.65,5 0,-10 8.65,5 z"
         style="fill:#000000;fill-opacity:1;fill-rule:evenodd;stroke:#000000;stroke-width:1pt;stroke-opacity:1"
         transform="scale(-0.4,-0.4)" />
    </marker>
    <marker
       orient="auto"
       refY="0"
       refX="0"
       id="TriangleOutM-4-2"
       style="overflow:visible">
      <path
         id="path5987-0-6"
         d="m 5.77,0 -8.65,5 0,-10 8.65,5 z"
         style="fill:#000000;fill-opacity:1;fill-rule:evenodd;stroke:#000000;stroke-width:1pt;stroke-opacity:1"
         transform="scale(0.4,0.4)" />
    </marker>
    <marker
       orient="auto"
       refY="0"
       refX="0"
       id="TriangleInM-6-4-5"
       style="overflow:visible">
      <path
         id="path5978-6-6-6"
         d="m 5.77,0 -8.65,5 0,-10 8.65,5 z"
         style="fill:#000000;fill-opacity:1;fill-rule:evenodd;stroke:#000000;stroke-width:1pt;stroke-opacity:1"
         transform="scale(-0.4,-0.4)" />
    </marker>
    <marker
       orient="auto"
       refY="0"
       refX="0"
       id="TriangleOutM-4-2-9"
       style="overflow:visible">
      <path
         id="path5987-0-6-8"
         d="m 5.77,0 -8.65,5 0,-10 8.65,5 z"
         style="fill:#000000;fill-opacity:1;fill-rule:evenodd;stroke:#000000;stroke-width:1pt;stroke-opacity:1"
         transform="scale(0.4,0.4)" />
    </marker>
  </defs>
  <metadata
     id="metadata7">
    <rdf:RDF>
      <cc:Work
         rdf:about="">
        <dc:format>image/svg+xml</dc:format>
        <dc:type
           rdf:resource="http://purl.org/dc/dcmitype/StillImage" />
        <dc:title></dc:title>
      </cc:Work>
    </rdf:RDF>
  </metadata>
  <g
     transform="translate(-570.1746,-6210.5665)"
     id="g4199">
    <circle
       r="7.7625813"
       cy="6313.3452"
       cx="734.70544"
       id="path5512-4-7-9-1-1-4-7"
       style="color:#000000;clip-rule:nonzero;display:inline;overflow:visible;visibility:visible;opacity:1;isolation:auto;mix-blend-mode:normal;color-interpolation:sRGB;color-interpolation-filters:linearRGB;solid-color:#000000;solid-opacity:1;fill:#000000;fill-opacity:1;fill-rule:nonzero;stroke:none;stroke-width:1;stroke-linecap:butt;stroke-linejoin:miter;stroke-miterlimit:4;stroke-dasharray:none;stroke-dashoffset:0;stroke-opacity:1;color-rendering:auto;image-rendering:auto;shape-rendering:auto;text-rendering:auto;enable-background:accumulate" />
    <path
       style="color:#000000;clip-rule:nonzero;display:inline;overflow:visible;visibility:visible;opacity:0.781;isolation:auto;mix-blend-mode:normal;color-interpolation:sRGB;color-interpolation-filters:linearRGB;solid-color:#000000;solid-opacity:1;fill:#000000;fill-opacity:1;fill-rule:nonzero;stroke:#000000;stroke-width:2.00110102;stroke-linecap:butt;stroke-linejoin:miter;stroke-miterlimit:4;stroke-dasharray:none;stroke-dashoffset:0;stroke-opacity:1;color-rendering:auto;image-rendering:auto;shape-rendering:auto;text-rendering:auto;enable-background:accumulate"
       id="path4174-0-9"
       d="m 740.52725,6316.1376 c 1.4953,1.1304 3.1446,1.3729 4.7895,1.4085 3.7058,-0.2505 7.2034,-2.171 10.6141,-4.2285 5.1736,-3.4371 10.146,-7.5353 15.1116,-11.6083 5.9404,-4.8609 11.8354,-9.8477 17.76,-14.7532 6.2179,-5.2388 12.5272,-10.2015 18.9372,-14.8743 5.9929,-4.3682 12.1276,-8.2607 18.2649,-12.1308 6.2034,-3.9617 12.2853,-8.3419 18.449,-12.4411 5.1349,-3.684 10.528,-6.1553 16.1195,-7.5424 4.735,-1.0592 9.4571,-0.4422 14.1189,0.9768 4.7375,1.4483 8.9093,4.7999 12.7411,9.1537 4.602,5.9062 8.3338,13.1705 11.9223,20.4693 4.1381,8.7185 7.9182,17.8103 11.8277,26.765 3.8106,8.8706 7.7342,17.6175 11.8539,26.1636 4.1617,8.4314 8.4398,16.7273 12.627,25.1296 3.9095,8.1047 8.2677,15.6186 13.4035,21.9586 5.1034,5.9647 10.4264,8.5453 16.7195,9.8228 7.2549,1.0751 14.2078,-1.9178 20.9179,-5.7623 8.8262,-5.42 16.45975,-14.0922 23.85165,-23.0218 7.4777,-9.3327 14.5492,-19.3825 21.6532,-29.3569 6.2502,-8.8752 12.5749,-17.6281 18.877,-26.4182 5.8378,-8.1407 11.5442,-16.4962 17.3977,-24.6109 4.3288,-5.9295 8.7478,-11.7014 13.4605,-16.9177 3.8138,-4.2594 8.0922,-7.2821 12.4897,-9.8459 4.3436,-2.6009 8.8774,-3.807 13.5238,-3.9621 4.8731,-0.038 9.4757,2.0321 13.9148,4.8943 5.4054,3.7163 9.7915,9.7055 13.9841,15.9341 5.2442,8.0311 9.8502,16.9302 14.3289,25.9439 5.3401,10.6791 10.0052,22.0679 14.5159,33.5784 4.3703,11.7708 9.2082,23.0755 14.6872,33.7195 4.8577,9.3921 10.7618,17.1978 17.1373,24.101 5.633,6.0597 11.9257,10.0224 18.616,12.3703 6.5327,2.1102 13.0265,0.9021 19.3876,-1.734 7.1404,-3.3567 13.1923,-9.9434 18.9645,-16.9339 6.8639,-8.8098 13.3636,-18.2483 19.8758,-27.6459 7.2992,-10.359 14.3346,-21.1215 21.1266,-32.2441 6.6503,-10.904 12.8487,-22.4078 19.0334,-33.9174 5.1537,-9.8577 10.3166,-19.703 15.6012,-29.3997 4.1265,-7.6503 8.6018,-14.8239 13.5291,-21.2866 4.2217,-5.5125 9.0239,-9.7097 14.0926,-13.1216 5.09,-3.2173 9.4133,-3.8846 14.8182,-2.6109 5.4043,1.6445 10.0652,5.975 14.4169,10.9138 5.5501,6.7424 9.7563,15.4934 13.7858,24.2786 5.1024,11.4685 9.5648,23.5457 13.8721,35.7303 3.9648,11.3765 7.5298,23.0569 11.1233,34.7097 2.7832,9.4756 5.8268,18.7536 9.2925,27.6949 3.0372,7.9417 7.0497,14.7673 11.4175,21.0509 3.5605,4.6882 7.5951,8.7403 12.1958,10.6115 0.9545,0.3882 1.9364,0.5995 2.9047,0.8993 6.9233,1.4079 13.7152,-0.9713 20.302,-3.9953 7.6416,-3.7734 14.6724,-9.7013 21.4732,-16.098 7.7194,-7.389 14.4408,-16.7182 20.7975,-26.5819 6.8995,-11.0429 12.9292,-23.2279 18.9903,-35.3242 5.5845,-11.4069 11.3353,-22.6203 17.2304,-33.6599 4.6995,-8.666 9.5872,-17.0959 14.6417,-25.2873 3.4973,-5.6537 7.1834,-11.0222 11.3244,-15.5751 3.1322,-3.338 6.6215,-5.3168 10.4,-5.9983 3.9994,-0.3285 6.5858,2.0964 9.3739,6.1589 3.776,6.4145 6.0309,14.4384 8.1849,22.2926 2.965,11.7329 5.1054,23.8945 7.3627,35.971 2.4039,13.2096 5.2531,26.2076 8.2545,39.1266 2.7883,11.9789 5.9757,23.7285 9.4267,35.2988 2.5413,8.6273 5.573,16.8908 9.1209,24.6511 2.0416,4.0379 4.1469,8.7013 7.3614,10.7579 0.5259,0.3366 1.0922,0.5052 1.638,0.7578 4.9238,1.1713 8.947,-3.3558 12.6495,-7.6571 5.511,-7.0466 10.3145,-15.2456 15.2031,-23.2516 5.186,-8.587 10.181,-17.43 15.1666,-26.284 4.6766,-8.2934 9.334,-16.6106 13.9682,-24.959 3.7009,-6.6878 7.266,-13.5441 10.8767,-20.3435 3.1124,-5.7256 6.1608,-11.5315 9.3112,-17.2093 2.243,-4.1177 4.4918,-8.2288 6.9465,-12.0613 1.9097,-2.9846 4.1027,-5.1614 6.7588,-6.1828 3.4127,-0.6513 5.2128,3.1248 6.8091,7.0942 2.6325,7.5385 4.3881,15.6969 6.2595,23.719 2.25,9.9405 4.4725,19.895 6.7642,29.8134 2.2564,9.9185 4.4758,19.855 6.9114,29.6763 2.1849,9.0801 5.0311,17.714 8.4269,25.8766 2.7074,6.3259 6.0914,11.6655 10.2926,15.6702 4.4191,3.6517 8.136,3.5768 12.9077,1.8637 6.1514,-2.8023 11.0797,-9.0603 15.7684,-15.458 5.7832,-8.4503 10.9478,-17.8088 16.0748,-27.1661 5.0367,-9.2427 10.0707,-18.4886 15.1279,-27.7055 3.4996,-6.3843 6.9348,-12.8455 10.7283,-18.836 2.6436,-4.1131 5.545,-7.6945 9.1666,-9.5028 3.6533,-0.8587 5.775,3.2542 7.725,7.2799 2.43,5.7178 4.8128,11.4755 7.3566,17.08 2.4042,5.34 5.1591,10.2573 8.1414,14.8642 2.1481,3.3135 4.5191,6.2272 7.2885,8.2321 2.4435,1.6811 4.7899,1.0725 7.2233,-0.2196 2.6984,-1.798 5.0931,-4.4463 7.4201,-7.1548 1.9914,-2.3108 3.7737,-4.9972 5.4911,-7.7593 1.4161,-2.2882 2.7133,-4.7373 4.0173,-7.172 0.5129,-1.0277 1.0993,-1.9544 1.6944,-2.8702 0,0 0.6347,0.9525 0.6347,0.9525 l 0,0 c -0.5759,0.8833 -1.1419,1.7791 -1.637,2.7726 -1.3178,2.4607 -2.6292,4.9353 -4.0608,7.2475 -1.7506,2.8139 -3.5674,5.5504 -5.5971,7.9044 -2.4027,2.795 -4.8769,5.5248 -7.6696,7.3591 -2.6598,1.3973 -5.2417,2 -7.9017,0.1618 -2.8585,-2.0874 -5.3219,-5.0685 -7.5395,-8.5043 -3.0177,-4.6639 -5.8066,-9.6403 -8.2398,-15.0451 -2.5386,-5.5935 -4.9192,-11.3372 -7.3411,-17.047 -1.6968,-3.5156 -3.5192,-7.4142 -6.7293,-6.7935 -3.4874,1.7067 -6.2544,5.2252 -8.8001,9.1537 -3.7794,5.9663 -7.1989,12.406 -10.6857,18.7642 -5.0571,9.2166 -10.0911,18.4623 -15.1278,27.7047 -5.1544,9.4074 -10.3475,18.8157 -16.1643,27.3075 -4.8023,6.5485 -9.8562,12.9274 -16.1607,15.769 -5.1326,1.8187 -8.8343,1.8375 -13.5868,-2.0359 -4.3082,-4.1267 -7.7954,-9.5891 -10.5716,-16.0935 -3.4264,-8.2419 -6.3024,-16.9556 -8.5077,-26.1226 -2.4379,-9.831 -4.6599,-19.7768 -6.9181,-29.7052 -2.2916,-9.9171 -4.514,-19.8703 -6.7635,-29.8096 -1.8509,-7.9346 -3.587,-16.0038 -6.1808,-23.4674 -1.37,-3.4352 -2.8544,-6.9624 -5.831,-6.4835 -2.4987,0.9291 -4.5399,3.0265 -6.3351,5.813 -2.4407,3.8082 -4.6735,7.898 -6.9038,11.9895 -3.1462,5.6701 -6.1904,11.4689 -9.2988,17.1867 -3.6148,6.8071 -7.184,13.6711 -10.889,20.3663 -4.6356,8.3508 -9.2945,16.6705 -13.9725,24.9663 -4.9933,8.8678 -9.9962,17.7244 -15.1904,26.3246 -4.9229,8.0625 -9.7611,16.3188 -15.3155,23.4071 -3.9488,4.5762 -8.2212,9.2317 -13.4558,7.8745 -0.601,-0.2882 -1.2243,-0.4863 -1.8036,-0.8647 -3.333,-2.1773 -5.546,-6.9475 -7.6645,-11.1725 -3.5768,-7.8295 -6.6381,-16.1616 -9.2004,-24.8647 -3.4614,-11.6059 -6.6586,-23.3913 -9.4553,-35.407 -3.0077,-12.9457 -5.8625,-25.9706 -8.2716,-39.2074 -2.2477,-12.0254 -4.3784,-24.1355 -7.3282,-35.8203 -2.1057,-7.6836 -4.3041,-15.5415 -7.98,-21.8374 -2.5762,-3.7841 -4.9343,-6.0732 -8.6509,-5.7891 -3.628,0.6382 -6.9731,2.5543 -9.9812,5.7504 -4.0967,4.4978 -7.7359,9.8168 -11.1961,15.4038 -5.0403,8.1675 -9.9135,16.5735 -14.5998,25.2142 -5.8894,11.0287 -11.6344,22.2312 -17.2134,33.6269 -6.0835,12.141 -12.1363,24.3698 -19.0626,35.4516 -6.4078,9.9405 -13.1841,19.3406 -20.9655,26.786 -6.8674,6.4573 -13.968,12.4383 -21.6851,16.2432 -6.7296,3.0849 -13.6682,5.4926 -20.7391,4.0255 -1.0036,-0.3142 -2.0214,-0.5372 -3.0105,-0.9428 -4.7229,-1.9367 -8.869,-6.09 -12.5244,-10.9118 -4.4271,-6.3729 -8.4937,-13.2953 -11.5728,-21.3472 -3.479,-8.9785 -6.5375,-18.2927 -9.3315,-27.8075 -3.5866,-11.6304 -7.1444,-23.2885 -11.1013,-34.6434 -4.291,-12.1387 -8.7359,-24.1708 -13.8183,-35.5969 -3.974,-8.667 -8.1183,-17.3075 -13.588,-23.9679 -4.2322,-4.811 -8.7638,-9.0428 -14.0203,-10.6601 -5.1376,-1.2299 -9.4845,-0.5846 -14.319,2.511 -4.9897,3.3538 -9.7153,7.485 -13.871,12.9084 -4.891,6.411 -9.3291,13.5344 -13.4247,21.1249 -5.2834,9.6942 -10.4447,19.5374 -15.5973,29.3924 -6.1965,11.5318 -12.4073,23.0573 -19.0703,33.9821 -6.8052,11.1433 -13.8536,21.9265 -21.1662,32.305 -6.5312,9.4246 -13.0496,18.8902 -19.9344,27.7231 -5.8687,7.1035 -12.0254,13.7828 -19.2861,17.1818 -6.5878,2.7194 -13.0572,3.9007 -19.8235,1.7467 -6.8028,-2.3974 -13.2049,-6.4203 -18.9328,-12.5871 -6.4438,-6.9818 -12.4121,-14.8738 -17.3222,-24.3698 -5.501,-10.6904 -10.3627,-22.0398 -14.7509,-33.8611 -4.4938,-11.468 -9.1413,-22.8153 -14.4613,-33.4551 -4.4518,-8.9599 -9.0292,-17.807 -14.2408,-25.7916 -4.1123,-6.1117 -8.4085,-12.0011 -13.7093,-15.6555 -4.321,-2.7935 -8.801,-4.8166 -13.5465,-4.7867 -4.5438,0.1444 -8.9757,1.3305 -13.2232,3.8725 -4.3249,2.5191 -8.5334,5.4877 -12.2839,9.6759 -4.6867,5.1857 -9.0792,10.9286 -13.3845,16.8234 -5.8529,8.1136 -11.5582,16.4687 -17.3958,24.6081 -6.3012,8.7891 -12.6251,17.541 -18.8747,26.4152 -7.1202,9.9972 -14.208,20.0696 -21.7034,29.4224 -7.4651,9.0163 -15.17725,17.7639 -24.09245,23.2292 -6.8505,3.9181 -13.9475,6.9504 -21.3513,5.8373 -6.4601,-1.3241 -11.9275,-3.9848 -17.1638,-10.1146 -5.1878,-6.4152 -9.6025,-13.9954 -13.5521,-22.1919 -4.1898,-8.4081 -8.4711,-16.7096 -12.6355,-25.147 -4.1276,-8.5631 -8.0594,-17.327 -11.8775,-26.2152 -3.9004,-8.9337 -7.6716,-18.004 -11.7989,-26.7031 -3.537,-7.1961 -7.2134,-14.3602 -11.7424,-20.1956 -3.7214,-4.2409 -7.7762,-7.4985 -12.3817,-8.9096 -4.5559,-1.3917 -9.171,-1.9986 -13.7999,-0.9679 -5.5181,1.3644 -10.8381,3.8103 -15.9051,7.4462 -6.169,4.1025 -12.2558,8.4871 -18.4646,12.4514 -6.1226,3.8606 -12.2425,7.7434 -18.2211,12.1008 -6.396,4.6626 -12.6915,9.615 -18.8962,14.8425 -5.9254,4.9063 -11.8215,9.894 -17.763,14.7558 -4.9962,4.098 -9.9996,8.2214 -15.2063,11.6755 -3.5205,2.121 -7.1323,4.0887 -10.9577,4.3239 -1.7602,-0.049 -3.5251,-0.3132 -5.1268,-1.5179 0,0 0.3516,-1.2454 0.3516,-1.2454 z" />
    <circle
       r="7.7625813"
       cy="6240.2041"
       cx="866.3584"
       id="path5512-4-7-9-1-1-4-9-7"
       style="color:#000000;clip-rule:nonzero;display:inline;overflow:visible;visibility:visible;opacity:1;isolation:auto;mix-blend-mode:normal;color-interpolation:sRGB;color-interpolation-filters:linearRGB;solid-color:#000000;solid-opacity:1;fill:#000000;fill-opacity:1;fill-rule:nonzero;stroke:none;stroke-width:1;stroke-linecap:butt;stroke-linejoin:miter;stroke-miterlimit:4;stroke-dasharray:none;stroke-dashoffset:0;stroke-opacity:1;color-rendering:auto;image-rendering:auto;shape-rendering:auto;text-rendering:auto;enable-background:accumulate" />
    <circle
       r="7.7625813"
       cy="6378.3936"
       cx="982.76074"
       id="path5512-4-7-9-1-1-4-4-3"
       style="color:#000000;clip-rule:nonzero;display:inline;overflow:visible;visibility:visible;opacity:1;isolation:auto;mix-blend-mode:normal;color-interpolation:sRGB;color-interpolation-filters:linearRGB;solid-color:#000000;solid-opacity:1;fill:#000000;fill-opacity:1;fill-rule:nonzero;stroke:none;stroke-width:1;stroke-linecap:butt;stroke-linejoin:miter;stroke-miterlimit:4;stroke-dasharray:none;stroke-dashoffset:0;stroke-opacity:1;color-rendering:auto;image-rendering:auto;shape-rendering:auto;text-rendering:auto;enable-background:accumulate" />
    <circle
       r="7.7625813"
       cy="6292.4922"
       cx="1054.9675"
       id="path5512-4-7-9-1-1-4-2-2"
       style="color:#000000;clip-rule:nonzero;display:inline;overflow:visible;visibility:visible;opacity:1;isolation:auto;mix-blend-mode:normal;color-interpolation:sRGB;color-interpolation-filters:linearRGB;solid-color:#000000;solid-opacity:1;fill:#000000;fill-opacity:1;fill-rule:nonzero;stroke:none;stroke-width:1;stroke-linecap:butt;stroke-linejoin:miter;stroke-miterlimit:4;stroke-dasharray:none;stroke-dashoffset:0;stroke-opacity:1;color-rendering:auto;image-rendering:auto;shape-rendering:auto;text-rendering:auto;enable-background:accumulate" />
    <circle
       r="7.7625813"
       cy="6249.0518"
       cx="1125.0417"
       id="path5512-4-7-9-1-1-4-26-6"
       style="color:#000000;clip-rule:nonzero;display:inline;overflow:visible;visibility:visible;opacity:1;isolation:auto;mix-blend-mode:normal;color-interpolation:sRGB;color-interpolation-filters:linearRGB;solid-color:#000000;solid-opacity:1;fill:#000000;fill-opacity:1;fill-rule:nonzero;stroke:none;stroke-width:1;stroke-linecap:butt;stroke-linejoin:miter;stroke-miterlimit:4;stroke-dasharray:none;stroke-dashoffset:0;stroke-opacity:1;color-rendering:auto;image-rendering:auto;shape-rendering:auto;text-rendering:auto;enable-background:accumulate" />
    <circle
       r="7.7625813"
       cy="6370.3418"
       cx="1255.4957"
       id="path5512-4-7-9-1-1-4-41-5"
       style="color:#000000;clip-rule:nonzero;display:inline;overflow:visible;visibility:visible;opacity:1;isolation:auto;mix-blend-mode:normal;color-interpolation:sRGB;color-interpolation-filters:linearRGB;solid-color:#000000;solid-opacity:1;fill:#000000;fill-opacity:1;fill-rule:nonzero;stroke:none;stroke-width:1;stroke-linecap:butt;stroke-linejoin:miter;stroke-miterlimit:4;stroke-dasharray:none;stroke-dashoffset:0;stroke-opacity:1;color-rendering:auto;image-rendering:auto;shape-rendering:auto;text-rendering:auto;enable-background:accumulate" />
    <circle
       r="7.7625813"
       cy="6228.3774"
       cx="1345.6621"
       id="path5512-4-7-9-1-1-4-28-2"
       style="color:#000000;clip-rule:nonzero;display:inline;overflow:visible;visibility:visible;opacity:1;isolation:auto;mix-blend-mode:normal;color-interpolation:sRGB;color-interpolation-filters:linearRGB;solid-color:#000000;solid-opacity:1;fill:#000000;fill-opacity:1;fill-rule:nonzero;stroke:none;stroke-width:1;stroke-linecap:butt;stroke-linejoin:miter;stroke-miterlimit:4;stroke-dasharray:none;stroke-dashoffset:0;stroke-opacity:1;color-rendering:auto;image-rendering:auto;shape-rendering:auto;text-rendering:auto;enable-background:accumulate" />
    <circle
       r="7.7625813"
       cy="6296.8496"
       cx="1416.624"
       id="path5512-4-7-9-1-1-4-8-6"
       style="color:#000000;clip-rule:nonzero;display:inline;overflow:visible;visibility:visible;opacity:1;isolation:auto;mix-blend-mode:normal;color-interpolation:sRGB;color-interpolation-filters:linearRGB;solid-color:#000000;solid-opacity:1;fill:#000000;fill-opacity:1;fill-rule:nonzero;stroke:none;stroke-width:1;stroke-linecap:butt;stroke-linejoin:miter;stroke-miterlimit:4;stroke-dasharray:none;stroke-dashoffset:0;stroke-opacity:1;color-rendering:auto;image-rendering:auto;shape-rendering:auto;text-rendering:auto;enable-background:accumulate" />
    <circle
       r="7.7625813"
       cy="6306.5439"
       cx="1538.3634"
       id="path5512-4-7-9-1-1-4-92-5"
       style="color:#000000;clip-rule:nonzero;display:inline;overflow:visible;visibility:visible;opacity:1;isolation:auto;mix-blend-mode:normal;color-interpolation:sRGB;color-interpolation-filters:linearRGB;solid-color:#000000;solid-opacity:1;fill:#000000;fill-opacity:1;fill-rule:nonzero;stroke:none;stroke-width:1;stroke-linecap:butt;stroke-linejoin:miter;stroke-miterlimit:4;stroke-dasharray:none;stroke-dashoffset:0;stroke-opacity:1;color-rendering:auto;image-rendering:auto;shape-rendering:auto;text-rendering:auto;enable-background:accumulate" />
    <circle
       r="7.7625813"
       cy="6333.2749"
       cx="1905.5085"
       id="path5512-4-7-9-1-1-4-88-8"
       style="color:#000000;clip-rule:nonzero;display:inline;overflow:visible;visibility:visible;opacity:1;isolation:auto;mix-blend-mode:normal;color-interpolation:sRGB;color-interpolation-filters:linearRGB;solid-color:#000000;solid-opacity:1;fill:#000000;fill-opacity:1;fill-rule:nonzero;stroke:none;stroke-width:1;stroke-linecap:butt;stroke-linejoin:miter;stroke-miterlimit:4;stroke-dasharray:none;stroke-dashoffset:0;stroke-opacity:1;color-rendering:auto;image-rendering:auto;shape-rendering:auto;text-rendering:auto;enable-background:accumulate" />
    <circle
       r="7.7625813"
       cy="6338.5571"
       cx="1842.1265"
       id="path5512-4-7-9-1-1-4-86-7"
       style="color:#000000;clip-rule:nonzero;display:inline;overflow:visible;visibility:visible;opacity:1;isolation:auto;mix-blend-mode:normal;color-interpolation:sRGB;color-interpolation-filters:linearRGB;solid-color:#000000;solid-opacity:1;fill:#000000;fill-opacity:1;fill-rule:nonzero;stroke:none;stroke-width:1;stroke-linecap:butt;stroke-linejoin:miter;stroke-miterlimit:4;stroke-dasharray:none;stroke-dashoffset:0;stroke-opacity:1;color-rendering:auto;image-rendering:auto;shape-rendering:auto;text-rendering:auto;enable-background:accumulate" />
    <circle
       r="7.7625813"
       cy="6387.0107"
       cx="1800.6376"
       id="path5512-4-7-9-1-1-4-83-9"
       style="color:#000000;clip-rule:nonzero;display:inline;overflow:visible;visibility:visible;opacity:1;isolation:auto;mix-blend-mode:normal;color-interpolation:sRGB;color-interpolation-filters:linearRGB;solid-color:#000000;solid-opacity:1;fill:#000000;fill-opacity:1;fill-rule:nonzero;stroke:none;stroke-width:1;stroke-linecap:butt;stroke-linejoin:miter;stroke-miterlimit:4;stroke-dasharray:none;stroke-dashoffset:0;stroke-opacity:1;color-rendering:auto;image-rendering:auto;shape-rendering:auto;text-rendering:auto;enable-background:accumulate" />
    <circle
       r="7.7625813"
       cy="6255.8081"
       cx="1750.5743"
       id="path5512-4-7-9-1-1-4-833-6"
       style="color:#000000;clip-rule:nonzero;display:inline;overflow:visible;visibility:visible;opacity:1;isolation:auto;mix-blend-mode:normal;color-interpolation:sRGB;color-interpolation-filters:linearRGB;solid-color:#000000;solid-opacity:1;fill:#000000;fill-opacity:1;fill-rule:nonzero;stroke:none;stroke-width:1;stroke-linecap:butt;stroke-linejoin:miter;stroke-miterlimit:4;stroke-dasharray:none;stroke-dashoffset:0;stroke-opacity:1;color-rendering:auto;image-rendering:auto;shape-rendering:auto;text-rendering:auto;enable-background:accumulate" />
    <circle
       r="7.7625813"
       cy="6232.9199"
       cx="1607.9642"
       id="path5512-4-7-9-1-1-4-3-0"
       style="color:#000000;clip-rule:nonzero;display:inline;overflow:visible;visibility:visible;opacity:1;isolation:auto;mix-blend-mode:normal;color-interpolation:sRGB;color-interpolation-filters:linearRGB;solid-color:#000000;solid-opacity:1;fill:#000000;fill-opacity:1;fill-rule:nonzero;stroke:none;stroke-width:1;stroke-linecap:butt;stroke-linejoin:miter;stroke-miterlimit:4;stroke-dasharray:none;stroke-dashoffset:0;stroke-opacity:1;color-rendering:auto;image-rendering:auto;shape-rendering:auto;text-rendering:auto;enable-background:accumulate" />
    <circle
       r="7.7625813"
       cy="6341.0356"
       cx="1695.5164"
       id="path5512-4-7-9-1-1-4-80-4"
       style="color:#000000;clip-rule:nonzero;display:inline;overflow:visible;visibility:visible;opacity:1;isolation:auto;mix-blend-mode:normal;color-interpolation:sRGB;color-interpolation-filters:linearRGB;solid-color:#000000;solid-opacity:1;fill:#000000;fill-opacity:1;fill-rule:nonzero;stroke:none;stroke-width:1;stroke-linecap:butt;stroke-linejoin:miter;stroke-miterlimit:4;stroke-dasharray:none;stroke-dashoffset:0;stroke-opacity:1;color-rendering:auto;image-rendering:auto;shape-rendering:auto;text-rendering:auto;enable-background:accumulate" />
    <circle
       r="7.7625813"
       cy="6375.5298"
       cx="1644.9373"
       id="path5512-4-7-9-1-1-4-47-1"
       style="color:#000000;clip-rule:nonzero;display:inline;overflow:visible;visibility:visible;opacity:1;isolation:auto;mix-blend-mode:normal;color-interpolation:sRGB;color-interpolation-filters:linearRGB;solid-color:#000000;solid-opacity:1;fill:#000000;fill-opacity:1;fill-rule:nonzero;stroke:none;stroke-width:1;stroke-linecap:butt;stroke-linejoin:miter;stroke-miterlimit:4;stroke-dasharray:none;stroke-dashoffset:0;stroke-opacity:1;color-rendering:auto;image-rendering:auto;shape-rendering:auto;text-rendering:auto;enable-background:accumulate" />
    <g
       transform="translate(-998.56161,5852.2906)"
       style="font-style:normal;font-weight:normal;font-size:40px;line-height:125%;font-family:sans-serif;letter-spacing:0px;word-spacing:0px;fill:#4d4d4d;fill-opacity:1;stroke:none;stroke-width:1px;stroke-linecap:butt;stroke-linejoin:miter;stroke-opacity:1"
       id="flowRoot4242-2-6-0">
      <path
         d="m 1571.8477,403.05359 q -0.059,-0.23437 -0.059,-0.46875 0.02,-0.58593 0.3711,-1.09375 0.5078,-0.72265 1.3281,-0.91796 l 1.9336,-0.41016 q 1.4453,-3.88672 2.5976,-6.95313 0.4883,-1.32812 0.9571,-2.55859 0.4882,-1.25 0.8398,-2.22656 0.3516,-0.97656 0.5859,-1.60156 l 0.254,-0.625 q 0.2343,-0.76172 0.8984,-1.23047 0.6641,-0.48828 1.4648,-0.48828 0.918,0 1.5821,0.5664 0.664,0.56641 0.8593,1.40625 l 7.4024,22.5586 q 0.1172,0.33203 0.1172,0.64453 0,0.46875 -0.2344,0.9375 -0.3906,0.78125 -1.2109,1.05468 -0.3125,0.0781 -0.6055,0.0781 -0.5078,0 -0.9961,-0.23438 -0.7617,-0.39062 -1.0352,-1.21093 l -2.6367,-8.06641 -7.7148,1.58203 -2.4805,6.60156 q -0.3125,0.82032 -1.0937,1.17188 -0.4297,0.19531 -0.8594,0.17578 -0.3711,0 -0.7422,-0.13672 -0.7813,-0.3125 -1.1719,-1.09375 -0.1953,-0.41015 -0.2148,-0.83984 0,-0.3711 0.1562,-0.74219 l 1.5625,-4.19922 q -0.6836,-0.0781 -1.1914,-0.54687 -0.4883,-0.46875 -0.664,-1.13282 z m 8.4179,-3.88671 4.668,-0.95704 -1.9922,-6.09375 -2.6758,7.05079 z"
         style="font-style:normal;font-variant:normal;font-weight:bold;font-stretch:normal;font-family:'Comic Neue';-inkscape-font-specification:'Comic Neue Bold';fill:#4d4d4d"
         id="path4119" />
      <path
         d="m 1595.5781,394.69422 q -0.1562,-0.39063 -0.1562,-0.78125 0,-0.42969 0.1758,-0.85938 0.332,-0.83984 1.1328,-1.17187 0.3711,-0.13672 0.7422,-0.13672 0.4296,-0.0195 0.8789,0.17578 0.8203,0.35156 1.1328,1.17188 l 4.2969,11.30859 4.2773,-11.30859 q 0.3125,-0.78125 1.0937,-1.17188 0.4297,-0.21484 0.879,-0.21484 0.371,0 0.7421,0.13672 0.8008,0.3125 1.1914,1.13281 0.1954,0.42969 0.1954,0.87891 0,0.37109 -0.1563,0.74218 l -6.0351,15.52735 q -0.1954,0.68359 -0.8008,1.15234 -0.6055,0.44922 -1.3867,0.44922 -0.8008,0 -1.4258,-0.46875 -0.625,-0.48828 -0.8594,-1.21094 l -5.918,-15.35156 z"
         style="font-style:normal;font-variant:normal;font-weight:bold;font-stretch:normal;font-family:'Comic Neue';-inkscape-font-specification:'Comic Neue Bold';fill:#4d4d4d"
         id="path4121" />
      <path
         d="m 1614.582,401.76453 q 0,-1.95312 0.7032,-3.71094 0.7031,-1.77734 1.914,-3.10546 1.2305,-1.34766 2.8711,-2.16797 1.6406,-0.82032 3.5156,-0.9375 0.3516,-0.0391 0.7032,-0.0391 1.914,0 3.4961,0.91797 1.875,1.07422 3.0078,2.89063 0.1953,0.3125 0.332,0.64453 0.1367,0.3125 0.3125,0.58594 0.1953,0.37109 0.1953,0.82031 0,0.25391 -0.059,0.56641 -0.1758,0.82031 -1.0156,1.25 -0.7227,0.39062 -2.0313,1.13281 -1.289,0.72265 -2.8125,1.5625 -1.5234,0.83984 -3.0859,1.71875 -1.5625,0.8789 -2.793,1.54297 0.6446,0.80078 1.4649,1.36718 1.289,0.87891 2.9297,0.87891 2.2851,0 3.9648,-1.75781 l 0.8008,-0.83985 q 0.5664,-0.5664 1.3867,-0.5664 0.8399,0 1.4453,0.60547 0.6055,0.60547 0.6055,1.40625 0,0.72265 -0.4883,1.30859 l -0.8008,0.83984 q -1.3672,1.48438 -3.164,2.28516 -1.7578,0.76172 -3.75,0.76172 -1.9922,0 -3.7696,-0.78125 -1.7578,-0.78125 -3.0664,-2.10938 -1.289,-1.34765 -2.0507,-3.16406 -0.7618,-1.8164 -0.7618,-3.90625 z m 4.043,-0.27344 q 0.8398,-0.48828 1.9531,-1.09375 1.1328,-0.625 2.2461,-1.25 1.1328,-0.625 2.1485,-1.1914 1.0156,-0.58594 1.7382,-0.9961 -1.0351,-1.03515 -2.4023,-1.11328 -1.3672,0.0391 -2.3828,0.54688 -1.0156,0.48828 -1.7383,1.28906 -1.4453,1.64063 -1.5625,3.80859 z"
         style="font-style:normal;font-variant:normal;font-weight:bold;font-stretch:normal;font-family:'Comic Neue';-inkscape-font-specification:'Comic Neue Bold';fill:#4d4d4d"
         id="path4123" />
      <path
         d="m 1637.0625,409.65516 0,-16.13282 q 0,-0.91796 0.625,-1.5039 0.625,-0.60547 1.5039,-0.60547 0.918,0 1.5039,0.60547 0.6055,0.58594 0.6055,1.5039 l 0,0.33204 q 0.5664,-0.60547 1.2695,-1.09375 0.7031,-0.50782 1.5039,-0.76172 1.0742,-0.39063 2.1094,-0.39063 1.5625,0 2.6367,0.83985 1.4063,1.07421 1.4063,2.79296 l 0,1.17188 q 0,0.83984 -0.6055,1.46484 -0.6055,0.60547 -1.4844,0.60547 -0.8789,0 -1.4844,-0.60547 -0.5859,-0.625 -0.5859,-1.46484 l 0,-0.60547 -0.078,0 q -0.078,0 -0.2735,0.0195 -0.1757,0.0195 -0.4492,0.0977 -0.6836,0.19531 -1.4843,0.89844 -0.8008,0.70312 -1.4454,1.66015 -0.6445,0.95703 -0.8203,1.6211 -0.1758,0.66406 -0.2148,0.82031 l 0,8.73047 q 0,0.8789 -0.6055,1.5039 -0.5859,0.60547 -1.5039,0.60547 -0.8789,0 -1.5039,-0.60547 -0.625,-0.625 -0.625,-1.5039 z"
         style="font-style:normal;font-variant:normal;font-weight:bold;font-stretch:normal;font-family:'Comic Neue';-inkscape-font-specification:'Comic Neue Bold';fill:#4d4d4d"
         id="path4125" />
      <path
         d="m 1653.8789,404.20594 q -0.078,-0.58594 -0.078,-1.21094 0,-0.72266 0.1172,-1.50391 0.1953,-1.44531 0.6054,-2.8125 0.5664,-1.71875 1.5625,-3.08593 0.9961,-1.38672 2.2852,-2.34375 2.0703,-1.60157 4.9609,-1.60157 1.0743,0 2.0118,0.19532 0.9375,0.19531 1.6601,0.44922 0.7227,0.23437 1.1914,0.48828 0.4883,0.23437 0.6055,0.27343 0.2344,0.15625 0.5859,0.52735 0.3516,0.35156 0.3516,1.07422 l 0,7.91015 q 0,3.20313 0.039,7.12891 l 0,0.42969 q 0,0.8789 -0.625,1.5039 -0.625,0.625 -1.5039,0.625 -0.7226,0 -1.2695,-0.42968 -0.5273,-0.41016 -0.7226,-1.09375 l -0.078,0.0391 q -0.8398,0.35156 -1.914,0.64453 -1.0547,0.27344 -2.0899,0.27344 l -0.1562,0 q -3.086,-0.0781 -5.1367,-2.12891 -2.0313,-2.07031 -2.4024,-5.35156 z m 4.2578,-0.48828 q 0.039,0.3125 0.1758,0.9375 0.1367,0.625 0.4883,1.26953 0.3711,0.64453 0.9961,1.11328 0.6445,0.44922 1.6992,0.48828 l 0.078,0 q 1.1133,0 2.5196,-0.72266 0.4492,-0.19531 0.7812,-0.39062 0.332,-0.21484 0.6055,-0.41016 0,-0.48828 0,-1.34765 0,-0.85938 0.02,-1.9336 0.02,-1.07422 0.039,-2.32422 0.039,-1.26953 0.078,-2.55859 l 0,-1.60156 q -0.2344,-0.0781 -0.5078,-0.13672 -0.2539,-0.0586 -0.5469,-0.13672 -0.6055,-0.11719 -1.1523,-0.11719 l -0.078,0 q -1.4062,0 -2.4023,0.72266 -0.9961,0.76172 -1.5625,1.71875 -0.5664,0.95703 -0.8008,1.75781 -0.3125,0.91797 -0.4297,1.89453 -0.059,0.50782 -0.059,0.97657 0.02,0.41015 0.059,0.80078 z"
         style="font-style:normal;font-variant:normal;font-weight:bold;font-stretch:normal;font-family:'Comic Neue';-inkscape-font-specification:'Comic Neue Bold';fill:#4d4d4d"
         id="path4127" />
      <path
         d="m 1674.3867,403.36609 q -0.039,-0.50781 -0.039,-0.99609 0,-2.63672 1.0546,-4.92187 0.7227,-1.52344 1.875,-2.75391 1.2891,-1.28906 3.0469,-2.08984 1.7188,-0.80079 3.5156,-0.80079 0.8008,0 1.4844,0.15625 0.7031,0.15625 1.3477,0.3711 l 0.332,0.0781 q 0.2734,-0.44922 0.7227,-0.72265 0.4687,-0.27344 1.0742,-0.27344 0.8789,0 1.4648,0.60547 0.6055,0.58594 0.6055,1.46484 l 0,0.76172 q -0.039,1.03516 -0.059,2.59766 -0.02,1.5625 -0.059,3.30078 -0.039,1.73828 -0.078,3.49609 -0.039,1.75781 -0.078,3.1836 -0.039,1.42578 -0.059,2.38281 -0.02,0.95703 -0.02,1.11328 -0.1172,1.60156 -0.625,2.96875 -0.5078,1.36719 -1.4257,2.40234 -0.918,1.03516 -2.129,1.67969 -1.1914,0.64453 -2.6171,0.76172 -0.3907,0.0781 -0.7813,0.0781 -0.3906,0 -0.8203,0 -1.6406,0 -2.9688,-0.2539 l -0.6054,-0.0781 q -0.8789,-0.19531 -1.3867,-0.91797 -0.3516,-0.52734 -0.3516,-1.11328 0,-0.23437 0.059,-0.48828 0.1953,-0.83984 0.918,-1.32812 0.5273,-0.3711 1.0937,-0.3711 0.2344,0 0.4688,0.0586 l 0.3711,0.0391 q 0.5664,0.0781 1.1523,0.13672 0.6055,0.0781 1.25,0.0781 0.3125,0 0.5859,0 0.293,0 0.6055,-0.0391 1.6016,-0.15625 2.3633,-1.60156 0.2344,-0.44922 0.3515,-0.91797 0.1368,-0.48828 0.2149,-0.83984 -0.1172,0.0781 -0.2344,0.11718 -0.098,0.0391 -0.2148,0.11719 -1.5625,0.87891 -3.3203,0.87891 l -0.1563,0 q -3.4766,0 -5.7617,-2.89063 -0.918,-1.15234 -1.4649,-2.53906 -0.5273,-1.40625 -0.7031,-2.89063 z m 3.9453,-1.5625 q 0,0.3711 0,0.66407 0,0.37109 0.02,0.58593 0.078,0.80079 0.3906,1.6211 0.332,0.82031 0.7812,1.44531 1.1133,1.44531 2.6758,1.44531 l 0.039,0 q 0.6055,0 1.3476,-0.23437 0.7618,-0.25391 1.4454,-0.9961 1.4843,-1.71875 1.4843,-5.21484 l 0,-4.47266 q -0.3515,-0.19531 -1.0156,-0.41015 -0.6641,-0.23438 -1.4648,-0.23438 -1.0352,0 -2.168,0.44922 -2.3633,1.07422 -3.1445,3.4375 -0.3516,1.03516 -0.3907,1.91406 z"
         style="font-style:normal;font-variant:normal;font-weight:bold;font-stretch:normal;font-family:'Comic Neue';-inkscape-font-specification:'Comic Neue Bold';fill:#4d4d4d"
         id="path4129" />
      <path
         d="m 1695.4414,401.76453 q 0,-1.95312 0.7031,-3.71094 0.7032,-1.77734 1.9141,-3.10546 1.2305,-1.34766 2.8711,-2.16797 1.6406,-0.82032 3.5156,-0.9375 0.3516,-0.0391 0.7031,-0.0391 1.9141,0 3.4961,0.91797 1.875,1.07422 3.0078,2.89063 0.1954,0.3125 0.3321,0.64453 0.1367,0.3125 0.3125,0.58594 0.1953,0.37109 0.1953,0.82031 0,0.25391 -0.059,0.56641 -0.1758,0.82031 -1.0156,1.25 -0.7227,0.39062 -2.0313,1.13281 -1.289,0.72265 -2.8125,1.5625 -1.5234,0.83984 -3.0859,1.71875 -1.5625,0.8789 -2.793,1.54297 0.6445,0.80078 1.4649,1.36718 1.289,0.87891 2.9296,0.87891 2.2852,0 3.9649,-1.75781 l 0.8008,-0.83985 q 0.5664,-0.5664 1.3867,-0.5664 0.8398,0 1.4453,0.60547 0.6055,0.60547 0.6055,1.40625 0,0.72265 -0.4883,1.30859 l -0.8008,0.83984 q -1.3672,1.48438 -3.1641,2.28516 -1.7578,0.76172 -3.75,0.76172 -1.9921,0 -3.7695,-0.78125 -1.7578,-0.78125 -3.0664,-2.10938 -1.2891,-1.34765 -2.0508,-3.16406 -0.7617,-1.8164 -0.7617,-3.90625 z m 4.043,-0.27344 q 0.8398,-0.48828 1.9531,-1.09375 1.1328,-0.625 2.2461,-1.25 1.1328,-0.625 2.1484,-1.1914 1.0157,-0.58594 1.7383,-0.9961 -1.0351,-1.03515 -2.4023,-1.11328 -1.3672,0.0391 -2.3828,0.54688 -1.0157,0.48828 -1.7383,1.28906 -1.4453,1.64063 -1.5625,3.80859 z"
         style="font-style:normal;font-variant:normal;font-weight:bold;font-stretch:normal;font-family:'Comic Neue';-inkscape-font-specification:'Comic Neue Bold';fill:#4d4d4d"
         id="path4131" />
    </g>
    <path
       style="fill:none;fill-rule:evenodd;stroke:#b3b3b3;stroke-width:1px;stroke-linecap:butt;stroke-linejoin:miter;stroke-opacity:1"
       d="m 570.17505,6278.3872 1364.47875,0"
       id="path9983-0" />
    <circle
       r="7.7625813"
       cy="6312.1479"
       cx="1931.918"
       id="path5512-4-7-9-1-1-4-88-6-4"
       style="color:#000000;clip-rule:nonzero;display:inline;overflow:visible;visibility:visible;opacity:1;isolation:auto;mix-blend-mode:normal;color-interpolation:sRGB;color-interpolation-filters:linearRGB;solid-color:#000000;solid-opacity:1;fill:#000000;fill-opacity:1;fill-rule:nonzero;stroke:none;stroke-width:1;stroke-linecap:butt;stroke-linejoin:miter;stroke-miterlimit:4;stroke-dasharray:none;stroke-dashoffset:0;stroke-opacity:1;color-rendering:auto;image-rendering:auto;shape-rendering:auto;text-rendering:auto;enable-background:accumulate" />
    <g
       transform="matrix(0.53174298,-0.1424801,0.1424801,0.53174298,73.029932,6433.4181)"
       style="font-style:normal;font-weight:normal;font-size:40px;line-height:125%;font-family:sans-serif;letter-spacing:0px;word-spacing:0px;fill:#4d4d4d;fill-opacity:1;stroke:none;stroke-width:1px;stroke-linecap:butt;stroke-linejoin:miter;stroke-opacity:1"
       id="flowRoot4242-2-6-0-8">
      <path
         d="m 1571.8086,397.95594 q 0.1953,-2.67578 1.2305,-5.11719 1.0547,-2.44141 2.8125,-4.35547 1.7187,-1.83594 3.9257,-2.87109 2.2071,-1.07422 4.6485,-1.09375 2.0312,0 3.8672,0.76172 1.8359,0.76172 3.3203,2.20703 2.0312,1.99219 3.0078,4.78515 0.8008,2.34375 0.8008,4.92188 0,0.52734 -0.039,1.05469 -0.2344,2.79297 -1.3281,5.3125 -0.8789,1.83593 -2.0313,3.32031 l 2.5196,1.71875 q 0.6836,0.52734 0.8789,1.36719 0.039,0.21484 0.039,0.41015 0,0.60547 -0.332,1.19141 -0.6445,0.95703 -1.7187,0.95703 -0.5664,0 -1.1133,-0.35156 l -3.4375,-2.36328 q -2.8321,1.875 -6.0742,1.875 -2.0313,0 -3.8868,-0.76172 -1.8359,-0.76172 -3.3203,-2.20703 -2.0312,-1.99219 -2.9883,-4.80469 -0.8203,-2.32422 -0.8203,-4.90234 0,-0.52735 0.039,-1.05469 z m 4.2578,0.29297 q -0.039,0.42968 -0.039,0.83984 0,1.77734 0.5469,3.41797 0.6836,2.01172 2.0117,3.30078 1.7969,1.71875 4.1993,1.71875 1.1523,0 2.1875,-0.41016 l -1.2305,-0.83984 q -0.6836,-0.44922 -0.8789,-1.34766 -0.039,-0.21484 -0.039,-0.42968 0,-0.58594 0.3125,-1.17188 0.6446,-0.95703 1.7188,-0.95703 0.6445,0 1.1133,0.35156 l 2.5781,1.75782 q 1.1133,-1.32813 1.7578,-2.98829 0.6641,-1.67968 0.8398,-3.53515 0.02,-0.29297 0.02,-0.58594 0,-1.83594 -0.625,-3.57422 -0.8008,-2.1289 -2.168,-3.39844 -1.8359,-1.71875 -4.2383,-1.71875 -1.4844,0 -2.8515,0.70313 -1.3477,0.70312 -2.5,1.99219 -1.1524,1.36718 -1.8555,3.125 -0.7031,1.73828 -0.8594,3.75 z"
         style="font-style:normal;font-variant:normal;font-weight:bold;font-stretch:normal;font-family:'Comic Neue';-inkscape-font-specification:'Comic Neue Bold';fill:#4d4d4d"
         id="path4147" />
      <path
         d="m 1599.543,400.20203 q -0.02,-0.3125 -0.02,-0.625 0.02,-1.79687 0.4102,-3.30078 0.4687,-1.75781 0.8203,-2.67578 0.1172,-0.27344 0.3516,-0.87891 0.2539,-0.60547 0.664,-1.36718 0.4297,-0.78125 0.9961,-1.66016 0.586,-0.89844 1.3867,-1.73828 0.6836,-0.80078 1.4454,-1.36719 0.7617,-0.58594 1.5625,-1.01562 1.7968,-1.03516 3.8671,-1.05469 1.6016,0 3.0469,0.42969 1.4453,0.41015 2.5196,1.09375 1.0742,0.68359 1.7187,1.5625 0.6445,0.8789 0.6445,1.79687 l 0,1.03516 q 0,0.80078 -0.5664,1.40625 -0.5664,0.60547 -1.3672,0.60547 -0.7617,0 -1.3476,-0.48829 -0.5664,-0.50781 -0.5664,-1.30859 0,-0.52734 -1.0352,-1.19141 -1.0351,-0.66406 -3.0078,-0.66406 -0.6836,0 -1.2695,0.23438 -0.5664,0.21484 -1.0742,0.52734 -0.4883,0.29297 -0.8789,0.68359 -0.3711,0.3711 -0.6446,0.64454 -0.8008,0.8789 -1.5039,1.97265 -0.7031,1.07422 -1.1523,2.1875 -0.3516,0.9375 -0.6641,2.26563 -0.2734,1.17187 -0.2734,2.42187 0,0.15625 0.02,0.33203 0.039,1.42578 0.5273,2.8125 0.4883,1.36719 1.7579,2.48047 l 0,0.0391 q 2.1679,2.03125 4.5312,2.08985 l 0.4688,-0.0391 0.1171,0 q 1.6797,-0.0781 3.0469,-0.78125 1.3672,-0.70313 2.2852,-1.85547 l 0.2344,-0.3711 q 0.5273,-0.72265 1.3671,-0.85937 0.1758,-0.0391 0.3516,-0.0391 0.625,0 1.1523,0.39062 0.6641,0.56641 0.8204,1.42578 0.039,0.17578 0.039,0.35156 0,0.64454 -0.4101,1.21094 l -0.2344,0.41016 q -1.3281,1.71875 -3.2031,2.87109 -1.1524,0.6836 -2.5,1.07422 -1.3477,0.37109 -2.793,0.44922 l -0.5469,0 q -4.0429,0 -7.4414,-3.08594 -1.9531,-1.83594 -2.8515,-4.12109 -0.8008,-1.95313 -0.8008,-4.31641 z"
         style="font-style:normal;font-variant:normal;font-weight:bold;font-stretch:normal;font-family:'Comic Neue';-inkscape-font-specification:'Comic Neue Bold';fill:#4d4d4d"
         id="path4149" />
      <path
         d="m 1636.3594,393.63953 q 0,-0.83984 0.5859,-1.42578 0.6055,-0.60547 1.4453,-0.60547 l 1.0938,0 q 0.1562,-2.79297 1.5234,-4.43359 1.9141,-2.28516 6.0742,-2.28516 l 0.4688,0 0.2539,0 q 0.8398,0 1.4258,0.60547 0.6054,0.58594 0.6054,1.42578 0,0.83985 -0.6054,1.44531 -0.586,0.60547 -1.4258,0.60547 l -0.1758,0 q -0.3516,0 -0.8398,0.0195 -0.4688,0.0195 -0.918,0.11719 -0.4297,0.0977 -0.8203,0.25391 -0.3711,0.15625 -0.6055,0.41015 -0.4492,0.56641 -0.5664,1.83594 l 2.8711,0 q 0.8398,0 1.4453,0.60547 0.6055,0.58594 0.6055,1.42578 0,0.83985 -0.6055,1.44531 -0.6055,0.60547 -1.4453,0.60547 l -3.0664,0 0,13.90625 q 0,0.87891 -0.625,1.50391 -0.625,0.625 -1.5039,0.625 -0.8789,0 -1.5039,-0.60547 -0.6055,-0.625 -0.6055,-1.52344 l 0,-13.90625 -1.0547,0 q -0.8398,0 -1.4453,-0.60547 -0.5859,-0.60546 -0.5859,-1.44531 z"
         style="font-style:normal;font-variant:normal;font-weight:bold;font-stretch:normal;font-family:'Comic Neue';-inkscape-font-specification:'Comic Neue Bold';fill:#4d4d4d"
         id="path4151" />
      <path
         d="m 1652.3164,404.20594 q -0.078,-0.58594 -0.078,-1.21094 0,-0.72266 0.1172,-1.50391 0.1953,-1.44531 0.6054,-2.8125 0.5664,-1.71875 1.5625,-3.08593 0.9961,-1.38672 2.2852,-2.34375 2.0703,-1.60157 4.9609,-1.60157 1.0743,0 2.0118,0.19532 0.9375,0.19531 1.6601,0.44922 0.7227,0.23437 1.1914,0.48828 0.4883,0.23437 0.6055,0.27343 0.2344,0.15625 0.5859,0.52735 0.3516,0.35156 0.3516,1.07422 l 0,7.91015 q 0,3.20313 0.039,7.12891 l 0,0.42969 q 0,0.8789 -0.625,1.5039 -0.625,0.625 -1.5039,0.625 -0.7226,0 -1.2695,-0.42968 -0.5273,-0.41016 -0.7226,-1.09375 l -0.078,0.0391 q -0.8398,0.35156 -1.914,0.64453 -1.0547,0.27344 -2.0899,0.27344 l -0.1562,0 q -3.086,-0.0781 -5.1367,-2.12891 -2.0313,-2.07031 -2.4024,-5.35156 z m 4.2578,-0.48828 q 0.039,0.3125 0.1758,0.9375 0.1367,0.625 0.4883,1.26953 0.3711,0.64453 0.9961,1.11328 0.6445,0.44922 1.6992,0.48828 l 0.078,0 q 1.1133,0 2.5196,-0.72266 0.4492,-0.19531 0.7812,-0.39062 0.332,-0.21484 0.6055,-0.41016 0,-0.48828 0,-1.34765 0,-0.85938 0.02,-1.9336 0.02,-1.07422 0.039,-2.32422 0.039,-1.26953 0.078,-2.55859 l 0,-1.60156 q -0.2344,-0.0781 -0.5078,-0.13672 -0.2539,-0.0586 -0.5469,-0.13672 -0.6055,-0.11719 -1.1523,-0.11719 l -0.078,0 q -1.4062,0 -2.4023,0.72266 -0.9961,0.76172 -1.5625,1.71875 -0.5664,0.95703 -0.8008,1.75781 -0.3125,0.91797 -0.4297,1.89453 -0.059,0.50782 -0.059,0.97657 0.02,0.41015 0.059,0.80078 z"
         style="font-style:normal;font-variant:normal;font-weight:bold;font-stretch:normal;font-family:'Comic Neue';-inkscape-font-specification:'Comic Neue Bold';fill:#4d4d4d"
         id="path4153" />
      <path
         d="m 1673.3906,409.65516 0,-15.76172 q 0,-0.91797 0.6446,-1.54297 0.6445,-0.625 1.5625,-0.625 0.9179,0 1.5429,0.625 0.6446,0.60547 0.6446,1.54297 l -0.078,15.76172 q 0,0.91797 -0.625,1.54297 -0.6054,0.60546 -1.5234,0.60546 -0.918,0 -1.543,-0.60546 -0.625,-0.625 -0.625,-1.54297 z m 0.1563,-22.12891 0.078,-1.36719 q 0,-0.8789 0.625,-1.48437 0.625,-0.625 1.5039,-0.625 0.8789,0 1.4844,0.625 0.625,0.60547 0.625,1.48437 l -0.078,1.36719 q 0,0.87891 -0.625,1.50391 -0.6055,0.625 -1.4844,0.625 -0.8789,0 -1.5039,-0.625 -0.625,-0.625 -0.625,-1.50391 z"
         style="font-style:normal;font-variant:normal;font-weight:bold;font-stretch:normal;font-family:'Comic Neue';-inkscape-font-specification:'Comic Neue Bold';fill:#4d4d4d"
         id="path4155" />
      <path
         d="m 1683.0781,409.59656 0,-23.32031 q 0,-0.87891 0.625,-1.48437 0.625,-0.625 1.5039,-0.625 0.918,0 1.5039,0.625 0.6055,0.60546 0.6055,1.48437 l 0,23.32031 q 0,0.91797 -0.6055,1.52344 -0.5859,0.60547 -1.5039,0.60547 -0.8789,0 -1.5039,-0.58594 -0.625,-0.60547 -0.625,-1.54297 z"
         style="font-style:normal;font-variant:normal;font-weight:bold;font-stretch:normal;font-family:'Comic Neue';-inkscape-font-specification:'Comic Neue Bold';fill:#4d4d4d"
         id="path4157" />
    </g>
    <path
       style="color:#000000;clip-rule:nonzero;display:inline;overflow:visible;visibility:visible;opacity:1;isolation:auto;mix-blend-mode:normal;color-interpolation:sRGB;color-interpolation-filters:linearRGB;solid-color:#000000;solid-opacity:1;fill:#ff0000;fill-opacity:1;fill-rule:nonzero;stroke:#ff0000;stroke-width:1;stroke-linecap:round;stroke-linejoin:miter;stroke-miterlimit:20;stroke-dasharray:none;stroke-dashoffset:0;stroke-opacity:1;color-rendering:auto;image-rendering:auto;shape-rendering:auto;text-rendering:auto;enable-background:accumulate"
       id="path10188"
       d="m 968.38536,6372.0799 c 1.43712,0.7625 2.93723,1.3988 4.41917,2.0677 2.90284,1.3123 5.84742,2.5282 8.78665,3.7558 2.52843,1.0379 5.07387,2.033 7.60381,3.0673 1.76378,0.6892 3.42567,1.5912 5.05519,2.5479 0.85922,0.5072 1.72083,1.0077 2.61618,1.4483 0,0 -0.17391,0.3531 -0.17391,0.3531 l 0,0 c -0.90366,-0.4454 -1.7744,-0.9492 -2.64157,-1.4619 -1.61331,-0.9473 -3.25839,-1.8409 -5.00487,-2.523 -2.53084,-1.0348 -5.07722,-2.0301 -7.60653,-3.0685 -2.94267,-1.229 -5.89068,-2.4464 -8.79688,-3.7602 -1.49386,-0.6743 -3.00613,-1.3155 -4.45407,-2.0857 0,0 0.19683,-0.3408 0.19683,-0.3408 z" />
    <path
       style="color:#000000;clip-rule:nonzero;display:inline;overflow:visible;visibility:visible;opacity:1;isolation:auto;mix-blend-mode:normal;color-interpolation:sRGB;color-interpolation-filters:linearRGB;solid-color:#000000;solid-opacity:1;fill:#ff0000;fill-opacity:1;fill-rule:nonzero;stroke:#ff0000;stroke-width:1;stroke-linecap:round;stroke-linejoin:miter;stroke-miterlimit:20;stroke-dasharray:none;stroke-dashoffset:0;stroke-opacity:1;color-rendering:auto;image-rendering:auto;shape-rendering:auto;text-rendering:auto;enable-background:accumulate"
       id="path10190"
       d="m 976.24927,6392.1879 c 0.35463,-1.2539 0.90325,-2.4429 1.45406,-3.6199 1.26653,-2.6139 2.57829,-5.2059 3.8685,-7.8082 0.22133,-0.4458 0.44266,-0.8917 0.664,-1.3376 0.18748,-0.4296 0.35579,-0.8681 0.56244,-1.2888 0.1897,-0.3861 0.42765,-0.7469 0.62533,-1.129 0.49458,-0.9562 0.93193,-1.9496 1.36853,-2.9333 0.56838,-1.2857 1.04143,-2.6103 1.51438,-3.9332 0.26267,-0.7381 0.52259,-1.4771 0.78253,-2.2162 0.11185,-0.2806 0.18146,-0.5745 0.24854,-0.8682 0,0 0.38371,0.088 0.38371,0.088 l 0,0 c -0.0705,0.3081 -0.14434,0.6165 -0.2609,0.9112 -0.26018,0.7396 -0.5203,1.4793 -0.7832,2.218 -0.47624,1.3321 -0.95281,2.6659 -1.52527,3.9605 -0.43985,0.9907 -0.93136,1.9565 -1.37418,2.9453 -0.17654,0.3941 -0.31181,0.8067 -0.50221,1.1944 -0.42596,0.8671 -1.01436,1.6498 -1.35102,2.5641 -1.28887,2.5998 -2.59928,5.189 -3.86469,7.8001 -0.53803,1.1492 -1.07297,2.3097 -1.42492,3.532 0,0 -0.38563,-0.079 -0.38563,-0.079 z" />
    <g
       transform="matrix(0.47674772,-0.27525042,0.27525042,0.47674772,388.91072,6655.5998)"
       style="font-style:normal;font-weight:normal;font-size:40px;line-height:125%;font-family:sans-serif;letter-spacing:0px;word-spacing:0px;fill:#4d4d4d;fill-opacity:1;stroke:none;stroke-width:1px;stroke-linecap:butt;stroke-linejoin:miter;stroke-opacity:1"
       id="flowRoot4242-2-6-0-8-6">
      <path
         d="m 1571.8086,397.95594 q 0.1953,-2.67578 1.2305,-5.11719 1.0547,-2.44141 2.8125,-4.35547 1.7187,-1.83594 3.9257,-2.87109 2.2071,-1.07422 4.6485,-1.09375 2.0312,0 3.8672,0.76172 1.8359,0.76172 3.3203,2.20703 2.0312,1.99219 3.0078,4.78515 0.8008,2.34375 0.8008,4.92188 0,0.52734 -0.039,1.05469 -0.2344,2.79297 -1.3281,5.3125 -0.8789,1.83593 -2.0313,3.32031 l 2.5196,1.71875 q 0.6836,0.52734 0.8789,1.36719 0.039,0.21484 0.039,0.41015 0,0.60547 -0.332,1.19141 -0.6445,0.95703 -1.7187,0.95703 -0.5664,0 -1.1133,-0.35156 l -3.4375,-2.36328 q -2.8321,1.875 -6.0742,1.875 -2.0313,0 -3.8868,-0.76172 -1.8359,-0.76172 -3.3203,-2.20703 -2.0312,-1.99219 -2.9883,-4.80469 -0.8203,-2.32422 -0.8203,-4.90234 0,-0.52735 0.039,-1.05469 z m 4.2578,0.29297 q -0.039,0.42968 -0.039,0.83984 0,1.77734 0.5469,3.41797 0.6836,2.01172 2.0117,3.30078 1.7969,1.71875 4.1993,1.71875 1.1523,0 2.1875,-0.41016 l -1.2305,-0.83984 q -0.6836,-0.44922 -0.8789,-1.34766 -0.039,-0.21484 -0.039,-0.42968 0,-0.58594 0.3125,-1.17188 0.6446,-0.95703 1.7188,-0.95703 0.6445,0 1.1133,0.35156 l 2.5781,1.75782 q 1.1133,-1.32813 1.7578,-2.98829 0.6641,-1.67968 0.8398,-3.53515 0.02,-0.29297 0.02,-0.58594 0,-1.83594 -0.625,-3.57422 -0.8008,-2.1289 -2.168,-3.39844 -1.8359,-1.71875 -4.2383,-1.71875 -1.4844,0 -2.8515,0.70313 -1.3477,0.70312 -2.5,1.99219 -1.1524,1.36718 -1.8555,3.125 -0.7031,1.73828 -0.8594,3.75 z"
         style="font-style:normal;font-variant:normal;font-weight:bold;font-stretch:normal;font-family:'Comic Neue';-inkscape-font-specification:'Comic Neue Bold';fill:#4d4d4d"
         id="path4160" />
      <path
         d="m 1599.543,400.20203 q -0.02,-0.3125 -0.02,-0.625 0.02,-1.79687 0.4102,-3.30078 0.4687,-1.75781 0.8203,-2.67578 0.1172,-0.27344 0.3516,-0.87891 0.2539,-0.60547 0.664,-1.36718 0.4297,-0.78125 0.9961,-1.66016 0.586,-0.89844 1.3867,-1.73828 0.6836,-0.80078 1.4454,-1.36719 0.7617,-0.58594 1.5625,-1.01562 1.7968,-1.03516 3.8671,-1.05469 1.6016,0 3.0469,0.42969 1.4453,0.41015 2.5196,1.09375 1.0742,0.68359 1.7187,1.5625 0.6445,0.8789 0.6445,1.79687 l 0,1.03516 q 0,0.80078 -0.5664,1.40625 -0.5664,0.60547 -1.3672,0.60547 -0.7617,0 -1.3476,-0.48829 -0.5664,-0.50781 -0.5664,-1.30859 0,-0.52734 -1.0352,-1.19141 -1.0351,-0.66406 -3.0078,-0.66406 -0.6836,0 -1.2695,0.23438 -0.5664,0.21484 -1.0742,0.52734 -0.4883,0.29297 -0.8789,0.68359 -0.3711,0.3711 -0.6446,0.64454 -0.8008,0.8789 -1.5039,1.97265 -0.7031,1.07422 -1.1523,2.1875 -0.3516,0.9375 -0.6641,2.26563 -0.2734,1.17187 -0.2734,2.42187 0,0.15625 0.02,0.33203 0.039,1.42578 0.5273,2.8125 0.4883,1.36719 1.7579,2.48047 l 0,0.0391 q 2.1679,2.03125 4.5312,2.08985 l 0.4688,-0.0391 0.1171,0 q 1.6797,-0.0781 3.0469,-0.78125 1.3672,-0.70313 2.2852,-1.85547 l 0.2344,-0.3711 q 0.5273,-0.72265 1.3671,-0.85937 0.1758,-0.0391 0.3516,-0.0391 0.625,0 1.1523,0.39062 0.6641,0.56641 0.8204,1.42578 0.039,0.17578 0.039,0.35156 0,0.64454 -0.4101,1.21094 l -0.2344,0.41016 q -1.3281,1.71875 -3.2031,2.87109 -1.1524,0.6836 -2.5,1.07422 -1.3477,0.37109 -2.793,0.44922 l -0.5469,0 q -4.0429,0 -7.4414,-3.08594 -1.9531,-1.83594 -2.8515,-4.12109 -0.8008,-1.95313 -0.8008,-4.31641 z"
         style="font-style:normal;font-variant:normal;font-weight:bold;font-stretch:normal;font-family:'Comic Neue';-inkscape-font-specification:'Comic Neue Bold';fill:#4d4d4d"
         id="path4162" />
      <path
         d="m 1636.3594,393.63953 q 0,-0.83984 0.5859,-1.42578 0.6055,-0.60547 1.4453,-0.60547 l 1.0938,0 q 0.1562,-2.79297 1.5234,-4.43359 1.9141,-2.28516 6.0742,-2.28516 l 0.4688,0 0.2539,0 q 0.8398,0 1.4258,0.60547 0.6054,0.58594 0.6054,1.42578 0,0.83985 -0.6054,1.44531 -0.586,0.60547 -1.4258,0.60547 l -0.1758,0 q -0.3516,0 -0.8398,0.0195 -0.4688,0.0195 -0.918,0.11719 -0.4297,0.0977 -0.8203,0.25391 -0.3711,0.15625 -0.6055,0.41015 -0.4492,0.56641 -0.5664,1.83594 l 2.8711,0 q 0.8398,0 1.4453,0.60547 0.6055,0.58594 0.6055,1.42578 0,0.83985 -0.6055,1.44531 -0.6055,0.60547 -1.4453,0.60547 l -3.0664,0 0,13.90625 q 0,0.87891 -0.625,1.50391 -0.625,0.625 -1.5039,0.625 -0.8789,0 -1.5039,-0.60547 -0.6055,-0.625 -0.6055,-1.52344 l 0,-13.90625 -1.0547,0 q -0.8398,0 -1.4453,-0.60547 -0.5859,-0.60546 -0.5859,-1.44531 z"
         style="font-style:normal;font-variant:normal;font-weight:bold;font-stretch:normal;font-family:'Comic Neue';-inkscape-font-specification:'Comic Neue Bold';fill:#4d4d4d"
         id="path4164" />
      <path
         d="m 1652.3164,404.20594 q -0.078,-0.58594 -0.078,-1.21094 0,-0.72266 0.1172,-1.50391 0.1953,-1.44531 0.6054,-2.8125 0.5664,-1.71875 1.5625,-3.08593 0.9961,-1.38672 2.2852,-2.34375 2.0703,-1.60157 4.9609,-1.60157 1.0743,0 2.0118,0.19532 0.9375,0.19531 1.6601,0.44922 0.7227,0.23437 1.1914,0.48828 0.4883,0.23437 0.6055,0.27343 0.2344,0.15625 0.5859,0.52735 0.3516,0.35156 0.3516,1.07422 l 0,7.91015 q 0,3.20313 0.039,7.12891 l 0,0.42969 q 0,0.8789 -0.625,1.5039 -0.625,0.625 -1.5039,0.625 -0.7226,0 -1.2695,-0.42968 -0.5273,-0.41016 -0.7226,-1.09375 l -0.078,0.0391 q -0.8398,0.35156 -1.914,0.64453 -1.0547,0.27344 -2.0899,0.27344 l -0.1562,0 q -3.086,-0.0781 -5.1367,-2.12891 -2.0313,-2.07031 -2.4024,-5.35156 z m 4.2578,-0.48828 q 0.039,0.3125 0.1758,0.9375 0.1367,0.625 0.4883,1.26953 0.3711,0.64453 0.9961,1.11328 0.6445,0.44922 1.6992,0.48828 l 0.078,0 q 1.1133,0 2.5196,-0.72266 0.4492,-0.19531 0.7812,-0.39062 0.332,-0.21484 0.6055,-0.41016 0,-0.48828 0,-1.34765 0,-0.85938 0.02,-1.9336 0.02,-1.07422 0.039,-2.32422 0.039,-1.26953 0.078,-2.55859 l 0,-1.60156 q -0.2344,-0.0781 -0.5078,-0.13672 -0.2539,-0.0586 -0.5469,-0.13672 -0.6055,-0.11719 -1.1523,-0.11719 l -0.078,0 q -1.4062,0 -2.4023,0.72266 -0.9961,0.76172 -1.5625,1.71875 -0.5664,0.95703 -0.8008,1.75781 -0.3125,0.91797 -0.4297,1.89453 -0.059,0.50782 -0.059,0.97657 0.02,0.41015 0.059,0.80078 z"
         style="font-style:normal;font-variant:normal;font-weight:bold;font-stretch:normal;font-family:'Comic Neue';-inkscape-font-specification:'Comic Neue Bold';fill:#4d4d4d"
         id="path4166" />
      <path
         d="m 1673.3906,409.65516 0,-15.76172 q 0,-0.91797 0.6446,-1.54297 0.6445,-0.625 1.5625,-0.625 0.9179,0 1.5429,0.625 0.6446,0.60547 0.6446,1.54297 l -0.078,15.76172 q 0,0.91797 -0.625,1.54297 -0.6054,0.60546 -1.5234,0.60546 -0.918,0 -1.543,-0.60546 -0.625,-0.625 -0.625,-1.54297 z m 0.1563,-22.12891 0.078,-1.36719 q 0,-0.8789 0.625,-1.48437 0.625,-0.625 1.5039,-0.625 0.8789,0 1.4844,0.625 0.625,0.60547 0.625,1.48437 l -0.078,1.36719 q 0,0.87891 -0.625,1.50391 -0.6055,0.625 -1.4844,0.625 -0.8789,0 -1.5039,-0.625 -0.625,-0.625 -0.625,-1.50391 z"
         style="font-style:normal;font-variant:normal;font-weight:bold;font-stretch:normal;font-family:'Comic Neue';-inkscape-font-specification:'Comic Neue Bold';fill:#4d4d4d"
         id="path4168" />
      <path
         d="m 1683.0781,409.59656 0,-23.32031 q 0,-0.87891 0.625,-1.48437 0.625,-0.625 1.5039,-0.625 0.918,0 1.5039,0.625 0.6055,0.60546 0.6055,1.48437 l 0,23.32031 q 0,0.91797 -0.6055,1.52344 -0.5859,0.60547 -1.5039,0.60547 -0.8789,0 -1.5039,-0.58594 -0.625,-0.60547 -0.625,-1.54297 z"
         style="font-style:normal;font-variant:normal;font-weight:bold;font-stretch:normal;font-family:'Comic Neue';-inkscape-font-specification:'Comic Neue Bold';fill:#4d4d4d"
         id="path4170" />
    </g>
    <path
       style="color:#000000;clip-rule:nonzero;display:inline;overflow:visible;visibility:visible;opacity:1;isolation:auto;mix-blend-mode:normal;color-interpolation:sRGB;color-interpolation-filters:linearRGB;solid-color:#000000;solid-opacity:1;fill:#ff0000;fill-opacity:1;fill-rule:nonzero;stroke:#ff0000;stroke-width:1;stroke-linecap:round;stroke-linejoin:miter;stroke-miterlimit:20;stroke-dasharray:none;stroke-dashoffset:0;stroke-opacity:1;color-rendering:auto;image-rendering:auto;shape-rendering:auto;text-rendering:auto;enable-background:accumulate"
       id="path10188-3"
       d="m 1239.5036,6371.6817 c 1.6258,-0.058 3.2431,-0.2572 4.861,-0.4189 3.1701,-0.3149 6.3281,-0.7342 9.4873,-1.1407 2.7087,-0.3654 5.4106,-0.7763 8.1188,-1.1456 1.8721,-0.285 3.7623,-0.3348 5.6519,-0.321 0.9977,0.01 1.9941,0.012 2.9898,-0.054 0,0 0.026,0.3927 0.026,0.3927 l 0,0 c -1.0053,0.066 -2.0113,0.065 -3.0186,0.055 -1.8708,-0.014 -3.7423,0.035 -5.5958,0.3174 -2.7092,0.3693 -5.4121,0.7805 -8.1217,1.1459 -3.163,0.407 -6.3247,0.8267 -9.4985,1.142 -1.6308,0.163 -3.2611,0.3638 -4.9001,0.4208 0,0 0,-0.3936 0,-0.3936 z" />
    <path
       style="color:#000000;clip-rule:nonzero;display:inline;overflow:visible;visibility:visible;opacity:1;isolation:auto;mix-blend-mode:normal;color-interpolation:sRGB;color-interpolation-filters:linearRGB;solid-color:#000000;solid-opacity:1;fill:#ff0000;fill-opacity:1;fill-rule:nonzero;stroke:#ff0000;stroke-width:1;stroke-linecap:round;stroke-linejoin:miter;stroke-miterlimit:20;stroke-dasharray:none;stroke-dashoffset:0;stroke-opacity:1;color-rendering:auto;image-rendering:auto;shape-rendering:auto;text-rendering:auto;enable-background:accumulate"
       id="path10190-9"
       d="m 1256.368,6385.1638 c -0.3199,-1.2632 -0.4393,-2.5672 -0.5507,-3.862 -0.2101,-2.8969 -0.3701,-5.7976 -0.5539,-8.6963 -0.031,-0.4968 -0.062,-0.9936 -0.094,-1.4904 -0.052,-0.4658 -0.1259,-0.9297 -0.1573,-1.3974 -0.029,-0.4292 0,-0.8606 -0.023,-1.2904 -0.05,-1.0754 -0.1678,-2.1543 -0.2815,-3.2245 -0.1506,-1.3977 -0.4033,-2.7814 -0.6551,-4.1635 -0.1416,-0.7705 -0.286,-1.5405 -0.4304,-2.3105 -0.043,-0.299 -0.1301,-0.5883 -0.2189,-0.8762 0,0 0.3763,-0.1156 0.3763,-0.1156 l 0,0 c 0.093,0.302 0.1833,0.606 0.2297,0.9195 0.1445,0.7706 0.289,1.5413 0.4307,2.3125 0.2536,1.3917 0.5078,2.7851 0.6593,4.1925 0.1145,1.0779 0.1717,2.1601 0.2826,3.2378 0.044,0.4296 0.1333,0.8545 0.1623,1.2855 0.065,0.9639 -0.054,1.9359 0.112,2.8961 0.1837,2.8959 0.3435,5.7934 0.5531,8.6874 0.1087,1.2643 0.2257,2.5367 0.532,3.7713 0,0 -0.3734,0.1244 -0.3734,0.1244 z" />
    <g
       transform="matrix(0.47674772,0.27525042,-0.27525042,0.47674772,955.06566,5766.8873)"
       style="font-style:normal;font-weight:normal;font-size:40px;line-height:125%;font-family:sans-serif;letter-spacing:0px;word-spacing:0px;fill:#4d4d4d;fill-opacity:1;stroke:none;stroke-width:1px;stroke-linecap:butt;stroke-linejoin:miter;stroke-opacity:1"
       id="flowRoot4242-2-6-0-8-2">
      <path
         d="m 1571.8086,397.95594 q 0.1953,-2.67578 1.2305,-5.11719 1.0547,-2.44141 2.8125,-4.35547 1.7187,-1.83594 3.9257,-2.87109 2.2071,-1.07422 4.6485,-1.09375 2.0312,0 3.8672,0.76172 1.8359,0.76172 3.3203,2.20703 2.0312,1.99219 3.0078,4.78515 0.8008,2.34375 0.8008,4.92188 0,0.52734 -0.039,1.05469 -0.2344,2.79297 -1.3281,5.3125 -0.8789,1.83593 -2.0313,3.32031 l 2.5196,1.71875 q 0.6836,0.52734 0.8789,1.36719 0.039,0.21484 0.039,0.41015 0,0.60547 -0.332,1.19141 -0.6445,0.95703 -1.7187,0.95703 -0.5664,0 -1.1133,-0.35156 l -3.4375,-2.36328 q -2.8321,1.875 -6.0742,1.875 -2.0313,0 -3.8868,-0.76172 -1.8359,-0.76172 -3.3203,-2.20703 -2.0312,-1.99219 -2.9883,-4.80469 -0.8203,-2.32422 -0.8203,-4.90234 0,-0.52735 0.039,-1.05469 z m 4.2578,0.29297 q -0.039,0.42968 -0.039,0.83984 0,1.77734 0.5469,3.41797 0.6836,2.01172 2.0117,3.30078 1.7969,1.71875 4.1993,1.71875 1.1523,0 2.1875,-0.41016 l -1.2305,-0.83984 q -0.6836,-0.44922 -0.8789,-1.34766 -0.039,-0.21484 -0.039,-0.42968 0,-0.58594 0.3125,-1.17188 0.6446,-0.95703 1.7188,-0.95703 0.6445,0 1.1133,0.35156 l 2.5781,1.75782 q 1.1133,-1.32813 1.7578,-2.98829 0.6641,-1.67968 0.8398,-3.53515 0.02,-0.29297 0.02,-0.58594 0,-1.83594 -0.625,-3.57422 -0.8008,-2.1289 -2.168,-3.39844 -1.8359,-1.71875 -4.2383,-1.71875 -1.4844,0 -2.8515,0.70313 -1.3477,0.70312 -2.5,1.99219 -1.1524,1.36718 -1.8555,3.125 -0.7031,1.73828 -0.8594,3.75 z"
         style="font-style:normal;font-variant:normal;font-weight:bold;font-stretch:normal;font-family:'Comic Neue';-inkscape-font-specification:'Comic Neue Bold';fill:#4d4d4d"
         id="path4173" />
      <path
         d="m 1599.543,400.20203 q -0.02,-0.3125 -0.02,-0.625 0.02,-1.79687 0.4102,-3.30078 0.4687,-1.75781 0.8203,-2.67578 0.1172,-0.27344 0.3516,-0.87891 0.2539,-0.60547 0.664,-1.36718 0.4297,-0.78125 0.9961,-1.66016 0.586,-0.89844 1.3867,-1.73828 0.6836,-0.80078 1.4454,-1.36719 0.7617,-0.58594 1.5625,-1.01562 1.7968,-1.03516 3.8671,-1.05469 1.6016,0 3.0469,0.42969 1.4453,0.41015 2.5196,1.09375 1.0742,0.68359 1.7187,1.5625 0.6445,0.8789 0.6445,1.79687 l 0,1.03516 q 0,0.80078 -0.5664,1.40625 -0.5664,0.60547 -1.3672,0.60547 -0.7617,0 -1.3476,-0.48829 -0.5664,-0.50781 -0.5664,-1.30859 0,-0.52734 -1.0352,-1.19141 -1.0351,-0.66406 -3.0078,-0.66406 -0.6836,0 -1.2695,0.23438 -0.5664,0.21484 -1.0742,0.52734 -0.4883,0.29297 -0.8789,0.68359 -0.3711,0.3711 -0.6446,0.64454 -0.8008,0.8789 -1.5039,1.97265 -0.7031,1.07422 -1.1523,2.1875 -0.3516,0.9375 -0.6641,2.26563 -0.2734,1.17187 -0.2734,2.42187 0,0.15625 0.02,0.33203 0.039,1.42578 0.5273,2.8125 0.4883,1.36719 1.7579,2.48047 l 0,0.0391 q 2.1679,2.03125 4.5312,2.08985 l 0.4688,-0.0391 0.1171,0 q 1.6797,-0.0781 3.0469,-0.78125 1.3672,-0.70313 2.2852,-1.85547 l 0.2344,-0.3711 q 0.5273,-0.72265 1.3671,-0.85937 0.1758,-0.0391 0.3516,-0.0391 0.625,0 1.1523,0.39062 0.6641,0.56641 0.8204,1.42578 0.039,0.17578 0.039,0.35156 0,0.64454 -0.4101,1.21094 l -0.2344,0.41016 q -1.3281,1.71875 -3.2031,2.87109 -1.1524,0.6836 -2.5,1.07422 -1.3477,0.37109 -2.793,0.44922 l -0.5469,0 q -4.0429,0 -7.4414,-3.08594 -1.9531,-1.83594 -2.8515,-4.12109 -0.8008,-1.95313 -0.8008,-4.31641 z"
         style="font-style:normal;font-variant:normal;font-weight:bold;font-stretch:normal;font-family:'Comic Neue';-inkscape-font-specification:'Comic Neue Bold';fill:#4d4d4d"
         id="path4175" />
      <path
         d="m 1636.3594,393.63953 q 0,-0.83984 0.5859,-1.42578 0.6055,-0.60547 1.4453,-0.60547 l 1.0938,0 q 0.1562,-2.79297 1.5234,-4.43359 1.9141,-2.28516 6.0742,-2.28516 l 0.4688,0 0.2539,0 q 0.8398,0 1.4258,0.60547 0.6054,0.58594 0.6054,1.42578 0,0.83985 -0.6054,1.44531 -0.586,0.60547 -1.4258,0.60547 l -0.1758,0 q -0.3516,0 -0.8398,0.0195 -0.4688,0.0195 -0.918,0.11719 -0.4297,0.0977 -0.8203,0.25391 -0.3711,0.15625 -0.6055,0.41015 -0.4492,0.56641 -0.5664,1.83594 l 2.8711,0 q 0.8398,0 1.4453,0.60547 0.6055,0.58594 0.6055,1.42578 0,0.83985 -0.6055,1.44531 -0.6055,0.60547 -1.4453,0.60547 l -3.0664,0 0,13.90625 q 0,0.87891 -0.625,1.50391 -0.625,0.625 -1.5039,0.625 -0.8789,0 -1.5039,-0.60547 -0.6055,-0.625 -0.6055,-1.52344 l 0,-13.90625 -1.0547,0 q -0.8398,0 -1.4453,-0.60547 -0.5859,-0.60546 -0.5859,-1.44531 z"
         style="font-style:normal;font-variant:normal;font-weight:bold;font-stretch:normal;font-family:'Comic Neue';-inkscape-font-specification:'Comic Neue Bold';fill:#4d4d4d"
         id="path4177" />
      <path
         d="m 1652.3164,404.20594 q -0.078,-0.58594 -0.078,-1.21094 0,-0.72266 0.1172,-1.50391 0.1953,-1.44531 0.6054,-2.8125 0.5664,-1.71875 1.5625,-3.08593 0.9961,-1.38672 2.2852,-2.34375 2.0703,-1.60157 4.9609,-1.60157 1.0743,0 2.0118,0.19532 0.9375,0.19531 1.6601,0.44922 0.7227,0.23437 1.1914,0.48828 0.4883,0.23437 0.6055,0.27343 0.2344,0.15625 0.5859,0.52735 0.3516,0.35156 0.3516,1.07422 l 0,7.91015 q 0,3.20313 0.039,7.12891 l 0,0.42969 q 0,0.8789 -0.625,1.5039 -0.625,0.625 -1.5039,0.625 -0.7226,0 -1.2695,-0.42968 -0.5273,-0.41016 -0.7226,-1.09375 l -0.078,0.0391 q -0.8398,0.35156 -1.914,0.64453 -1.0547,0.27344 -2.0899,0.27344 l -0.1562,0 q -3.086,-0.0781 -5.1367,-2.12891 -2.0313,-2.07031 -2.4024,-5.35156 z m 4.2578,-0.48828 q 0.039,0.3125 0.1758,0.9375 0.1367,0.625 0.4883,1.26953 0.3711,0.64453 0.9961,1.11328 0.6445,0.44922 1.6992,0.48828 l 0.078,0 q 1.1133,0 2.5196,-0.72266 0.4492,-0.19531 0.7812,-0.39062 0.332,-0.21484 0.6055,-0.41016 0,-0.48828 0,-1.34765 0,-0.85938 0.02,-1.9336 0.02,-1.07422 0.039,-2.32422 0.039,-1.26953 0.078,-2.55859 l 0,-1.60156 q -0.2344,-0.0781 -0.5078,-0.13672 -0.2539,-0.0586 -0.5469,-0.13672 -0.6055,-0.11719 -1.1523,-0.11719 l -0.078,0 q -1.4062,0 -2.4023,0.72266 -0.9961,0.76172 -1.5625,1.71875 -0.5664,0.95703 -0.8008,1.75781 -0.3125,0.91797 -0.4297,1.89453 -0.059,0.50782 -0.059,0.97657 0.02,0.41015 0.059,0.80078 z"
         style="font-style:normal;font-variant:normal;font-weight:bold;font-stretch:normal;font-family:'Comic Neue';-inkscape-font-specification:'Comic Neue Bold';fill:#4d4d4d"
         id="path4179" />
      <path
         d="m 1673.3906,409.65516 0,-15.76172 q 0,-0.91797 0.6446,-1.54297 0.6445,-0.625 1.5625,-0.625 0.9179,0 1.5429,0.625 0.6446,0.60547 0.6446,1.54297 l -0.078,15.76172 q 0,0.91797 -0.625,1.54297 -0.6054,0.60546 -1.5234,0.60546 -0.918,0 -1.543,-0.60546 -0.625,-0.625 -0.625,-1.54297 z m 0.1563,-22.12891 0.078,-1.36719 q 0,-0.8789 0.625,-1.48437 0.625,-0.625 1.5039,-0.625 0.8789,0 1.4844,0.625 0.625,0.60547 0.625,1.48437 l -0.078,1.36719 q 0,0.87891 -0.625,1.50391 -0.6055,0.625 -1.4844,0.625 -0.8789,0 -1.5039,-0.625 -0.625,-0.625 -0.625,-1.50391 z"
         style="font-style:normal;font-variant:normal;font-weight:bold;font-stretch:normal;font-family:'Comic Neue';-inkscape-font-specification:'Comic Neue Bold';fill:#4d4d4d"
         id="path4181" />
      <path
         d="m 1683.0781,409.59656 0,-23.32031 q 0,-0.87891 0.625,-1.48437 0.625,-0.625 1.5039,-0.625 0.918,0 1.5039,0.625 0.6055,0.60546 0.6055,1.48437 l 0,23.32031 q 0,0.91797 -0.6055,1.52344 -0.5859,0.60547 -1.5039,0.60547 -0.8789,0 -1.5039,-0.58594 -0.625,-0.60547 -0.625,-1.54297 z"
         style="font-style:normal;font-variant:normal;font-weight:bold;font-stretch:normal;font-family:'Comic Neue';-inkscape-font-specification:'Comic Neue Bold';fill:#4d4d4d"
         id="path4183" />
    </g>
    <path
       style="color:#000000;clip-rule:nonzero;display:inline;overflow:visible;visibility:visible;opacity:1;isolation:auto;mix-blend-mode:normal;color-interpolation:sRGB;color-interpolation-filters:linearRGB;solid-color:#000000;solid-opacity:1;fill:#ff0000;fill-opacity:1;fill-rule:nonzero;stroke:#ff0000;stroke-width:1;stroke-linecap:round;stroke-linejoin:miter;stroke-miterlimit:20;stroke-dasharray:none;stroke-dashoffset:0;stroke-opacity:1;color-rendering:auto;image-rendering:auto;shape-rendering:auto;text-rendering:auto;enable-background:accumulate"
       id="path10188-7"
       d="m 1643.818,6360.0604 c 0.058,1.6258 0.2572,3.2431 0.4189,4.861 0.3149,3.1701 0.7342,6.3281 1.1407,9.4873 0.3654,2.7087 0.7763,5.4106 1.1456,8.1188 0.285,1.8721 0.3348,3.7623 0.321,5.6519 -0.01,0.9977 -0.012,1.9941 0.054,2.9898 0,0 -0.3927,0.026 -0.3927,0.026 l 0,0 c -0.066,-1.0053 -0.065,-2.0113 -0.055,-3.0186 0.014,-1.8708 -0.035,-3.7423 -0.3174,-5.5958 -0.3693,-2.7092 -0.7805,-5.4121 -1.1459,-8.1217 -0.407,-3.163 -0.8267,-6.3247 -1.142,-9.4985 -0.163,-1.6308 -0.3638,-3.2611 -0.4208,-4.9001 0,0 0.3936,0 0.3936,0 z" />
    <path
       style="color:#000000;clip-rule:nonzero;display:inline;overflow:visible;visibility:visible;opacity:1;isolation:auto;mix-blend-mode:normal;color-interpolation:sRGB;color-interpolation-filters:linearRGB;solid-color:#000000;solid-opacity:1;fill:#ff0000;fill-opacity:1;fill-rule:nonzero;stroke:#ff0000;stroke-width:1;stroke-linecap:round;stroke-linejoin:miter;stroke-miterlimit:20;stroke-dasharray:none;stroke-dashoffset:0;stroke-opacity:1;color-rendering:auto;image-rendering:auto;shape-rendering:auto;text-rendering:auto;enable-background:accumulate"
       id="path10190-8"
       d="m 1630.3359,6376.9248 c 1.2632,-0.3199 2.5672,-0.4393 3.862,-0.5507 2.8969,-0.2101 5.7976,-0.3701 8.6963,-0.5539 0.4968,-0.031 0.9936,-0.062 1.4904,-0.094 0.4658,-0.052 0.9297,-0.1259 1.3974,-0.1573 0.4292,-0.029 0.8606,0 1.2904,-0.023 1.0754,-0.05 2.1543,-0.1678 3.2245,-0.2815 1.3977,-0.1506 2.7814,-0.4033 4.1635,-0.6551 0.7705,-0.1416 1.5405,-0.286 2.3105,-0.4304 0.299,-0.043 0.5883,-0.1301 0.8762,-0.2189 0,0 0.1156,0.3763 0.1156,0.3763 l 0,0 c -0.302,0.093 -0.606,0.1833 -0.9195,0.2297 -0.7706,0.1445 -1.5413,0.289 -2.3125,0.4307 -1.3917,0.2536 -2.7851,0.5078 -4.1925,0.6593 -1.0779,0.1145 -2.1601,0.1717 -3.2378,0.2826 -0.4296,0.044 -0.8545,0.1333 -1.2855,0.1623 -0.9639,0.065 -1.9359,-0.054 -2.8961,0.112 -2.8959,0.1837 -5.7934,0.3435 -8.6874,0.5531 -1.2643,0.1087 -2.5367,0.2257 -3.7713,0.532 0,0 -0.1244,-0.3734 -0.1244,-0.3734 z" />
    <g
       style="font-style:normal;font-weight:normal;font-size:22.02003288px;line-height:125%;font-family:sans-serif;letter-spacing:0px;word-spacing:0px;fill:#4d4d4d;fill-opacity:1;stroke:none;stroke-width:1px;stroke-linecap:butt;stroke-linejoin:miter;stroke-opacity:1"
       id="flowRoot4242-2-6-0-8-2-9">
      <path
         d="m 1762.9014,6422.983 q 0.1075,-1.4731 0.6774,-2.8171 0.5806,-1.344 1.5483,-2.3977 0.9461,-1.0106 2.1611,-1.5805 1.215,-0.5914 2.559,-0.6021 1.1182,0 2.1289,0.4193 1.0107,0.4194 1.8278,1.215 1.1182,1.0967 1.6558,2.6342 0.4408,1.2903 0.4408,2.7095 0,0.2903 -0.022,0.5806 -0.129,1.5376 -0.7311,2.9246 -0.4838,1.0107 -1.1182,1.8278 l 1.387,0.9462 q 0.3763,0.2903 0.4838,0.7526 0.022,0.1183 0.022,0.2258 0,0.3333 -0.1827,0.6559 -0.3549,0.5268 -0.9462,0.5268 -0.3118,0 -0.6129,-0.1935 l -1.8923,-1.301 q -1.5591,1.0322 -3.3439,1.0322 -1.1182,0 -2.1396,-0.4193 -1.0107,-0.4194 -1.8279,-1.215 -1.1182,-1.0967 -1.645,-2.645 -0.4516,-1.2795 -0.4516,-2.6987 0,-0.2903 0.022,-0.5806 z m 2.3439,0.1612 q -0.022,0.2366 -0.022,0.4624 0,0.9784 0.3011,1.8816 0.3763,1.1074 1.1074,1.817 0.9892,0.9462 2.3117,0.9462 0.6344,0 1.2042,-0.2258 l -0.6773,-0.4623 q -0.3764,-0.2473 -0.4839,-0.7419 -0.022,-0.1183 -0.022,-0.2365 0,-0.3226 0.1721,-0.6452 0.3548,-0.5268 0.9461,-0.5268 0.3548,0 0.6129,0.1935 l 1.4192,0.9677 q 0.6129,-0.7311 0.9677,-1.645 0.3656,-0.9247 0.4624,-1.9461 0.011,-0.1613 0.011,-0.3226 0,-1.0107 -0.3441,-1.9676 -0.4408,-1.172 -1.1934,-1.8709 -1.0107,-0.9461 -2.3332,-0.9461 -0.8171,0 -1.5698,0.387 -0.7419,0.3871 -1.3762,1.0967 -0.6344,0.7527 -1.0215,1.7204 -0.387,0.9569 -0.4731,2.0643 z"
         style="font-style:normal;font-variant:normal;font-weight:bold;font-stretch:normal;font-family:'Comic Neue';-inkscape-font-specification:'Comic Neue Bold';fill:#4d4d4d"
         id="path4187" />
      <path
         d="m 1778.1692,6424.2194 q -0.011,-0.172 -0.011,-0.344 0.011,-0.9892 0.2257,-1.8171 0.2581,-0.9677 0.4516,-1.473 0.064,-0.1506 0.1936,-0.4839 0.1397,-0.3333 0.3655,-0.7526 0.2366,-0.4301 0.5484,-0.9139 0.3225,-0.4946 0.7634,-0.957 0.3763,-0.4408 0.7956,-0.7526 0.4193,-0.3226 0.8602,-0.5591 0.9892,-0.5699 2.1289,-0.5806 0.8816,0 1.6773,0.2365 0.7956,0.2258 1.387,0.6022 0.5913,0.3763 0.9461,0.8601 0.3549,0.4838 0.3549,0.9892 l 0,0.5698 q 0,0.4409 -0.3118,0.7742 -0.3119,0.3333 -0.7527,0.3333 -0.4193,0 -0.7419,-0.2688 -0.3118,-0.2796 -0.3118,-0.7204 0,-0.2903 -0.5698,-0.6559 -0.5699,-0.3655 -1.6558,-0.3655 -0.3764,0 -0.6989,0.129 -0.3118,0.1183 -0.5914,0.2903 -0.2688,0.1613 -0.4838,0.3763 -0.2043,0.2043 -0.3548,0.3548 -0.4409,0.4839 -0.8279,1.086 -0.3871,0.5913 -0.6344,1.2042 -0.1935,0.5161 -0.3656,1.2472 -0.1505,0.6452 -0.1505,1.3333 0,0.086 0.011,0.1828 0.021,0.7849 0.2903,1.5482 0.2688,0.7527 0.9676,1.3655 l 0,0.022 q 1.1935,1.1182 2.4945,1.1504 l 0.2581,-0.021 0.065,0 q 0.9246,-0.043 1.6773,-0.4301 0.7526,-0.387 1.2579,-1.0214 l 0.1291,-0.2043 q 0.2903,-0.3978 0.7526,-0.4731 0.097,-0.021 0.1935,-0.021 0.3441,0 0.6344,0.2151 0.3656,0.3118 0.4516,0.7848 0.022,0.097 0.022,0.1936 0,0.3548 -0.2258,0.6666 l -0.129,0.2258 q -0.7311,0.9462 -1.7633,1.5805 -0.6344,0.3764 -1.3763,0.5914 -0.7419,0.2043 -1.5375,0.2473 l -0.3011,0 q -2.2256,0 -4.0965,-1.6988 -1.0752,-1.0107 -1.5698,-2.2687 -0.4408,-1.0752 -0.4408,-2.3762 z"
         style="font-style:normal;font-variant:normal;font-weight:bold;font-stretch:normal;font-family:'Comic Neue';-inkscape-font-specification:'Comic Neue Bold';fill:#4d4d4d"
         id="path4189" />
      <path
         d="m 1798.4367,6420.6068 q 0,-0.4624 0.3225,-0.7849 0.3333,-0.3333 0.7957,-0.3333 l 0.6021,0 q 0.086,-1.5376 0.8386,-2.4407 1.0537,-1.258 3.3439,-1.258 l 0.258,0 0.1398,0 q 0.4624,0 0.7849,0.3333 0.3333,0.3226 0.3333,0.7849 0,0.4623 -0.3333,0.7956 -0.3225,0.3333 -0.7849,0.3333 l -0.097,0 q -0.1936,0 -0.4624,0.011 -0.258,0.011 -0.5053,0.064 -0.2366,0.054 -0.4516,0.1398 -0.2043,0.086 -0.3333,0.2258 -0.2473,0.3118 -0.3118,1.0107 l 1.5805,0 q 0.4623,0 0.7957,0.3333 0.3333,0.3225 0.3333,0.7849 0,0.4623 -0.3333,0.7956 -0.3334,0.3333 -0.7957,0.3333 l -1.688,0 0,7.6554 q 0,0.4839 -0.3441,0.8279 -0.3441,0.3441 -0.8279,0.3441 -0.4838,0 -0.8279,-0.3333 -0.3333,-0.3441 -0.3333,-0.8387 l 0,-7.6554 -0.5806,0 q -0.4624,0 -0.7957,-0.3333 -0.3225,-0.3333 -0.3225,-0.7956 z"
         style="font-style:normal;font-variant:normal;font-weight:bold;font-stretch:normal;font-family:'Comic Neue';-inkscape-font-specification:'Comic Neue Bold';fill:#4d4d4d"
         id="path4191" />
      <path
         d="m 1807.221,6426.4236 q -0.043,-0.3226 -0.043,-0.6666 0,-0.3979 0.064,-0.8279 0.1076,-0.7957 0.3333,-1.5483 0.3118,-0.9462 0.8602,-1.6988 0.5483,-0.7634 1.258,-1.2903 1.1397,-0.8816 2.731,-0.8816 0.5913,0 1.1074,0.1075 0.5161,0.1075 0.9139,0.2473 0.3979,0.129 0.6559,0.2688 0.2688,0.129 0.3333,0.1505 0.1291,0.086 0.3226,0.2903 0.1935,0.1935 0.1935,0.5914 l 0,4.3545 q 0,1.7633 0.021,3.9245 l 0,0.2365 q 0,0.4839 -0.344,0.8279 -0.3441,0.3441 -0.8279,0.3441 -0.3979,0 -0.6989,-0.2366 -0.2903,-0.2257 -0.3978,-0.6021 l -0.043,0.021 q -0.4624,0.1936 -1.0537,0.3549 -0.5806,0.1505 -1.1505,0.1505 l -0.086,0 q -1.6988,-0.043 -2.8278,-1.172 -1.1182,-1.1397 -1.3225,-2.946 z m 2.344,-0.2688 q 0.021,0.172 0.097,0.5161 0.075,0.344 0.2688,0.6989 0.2043,0.3548 0.5484,0.6128 0.3548,0.2473 0.9354,0.2688 l 0.043,0 q 0.6129,0 1.387,-0.3978 0.2473,-0.1075 0.4301,-0.215 0.1828,-0.1183 0.3333,-0.2258 0,-0.2688 0,-0.7419 0,-0.4731 0.011,-1.0645 0.011,-0.5913 0.022,-1.2795 0.021,-0.6988 0.043,-1.4085 l 0,-0.8816 q -0.1291,-0.043 -0.2796,-0.075 -0.1398,-0.032 -0.301,-0.075 -0.3334,-0.065 -0.6344,-0.065 l -0.043,0 q -0.7742,0 -1.3225,0.3979 -0.5484,0.4193 -0.8602,0.9461 -0.3118,0.5269 -0.4408,0.9677 -0.172,0.5054 -0.2365,1.043 -0.032,0.2795 -0.032,0.5376 0.011,0.2257 0.032,0.4408 z"
         style="font-style:normal;font-variant:normal;font-weight:bold;font-stretch:normal;font-family:'Comic Neue';-inkscape-font-specification:'Comic Neue Bold';fill:#4d4d4d"
         id="path4193" />
      <path
         d="m 1818.8224,6429.4234 0,-8.6769 q 0,-0.5053 0.3548,-0.8494 0.3548,-0.344 0.8602,-0.344 0.5053,0 0.8494,0.344 0.3548,0.3333 0.3548,0.8494 l -0.043,8.6769 q 0,0.5053 -0.3441,0.8494 -0.3333,0.3333 -0.8386,0.3333 -0.5054,0 -0.8494,-0.3333 -0.3441,-0.3441 -0.3441,-0.8494 z m 0.086,-12.182 0.043,-0.7526 q 0,-0.4839 0.3441,-0.8172 0.344,-0.3441 0.8279,-0.3441 0.4838,0 0.8171,0.3441 0.3441,0.3333 0.3441,0.8172 l -0.043,0.7526 q 0,0.4838 -0.3441,0.8279 -0.3333,0.3441 -0.8171,0.3441 -0.4839,0 -0.8279,-0.3441 -0.3441,-0.3441 -0.3441,-0.8279 z"
         style="font-style:normal;font-variant:normal;font-weight:bold;font-stretch:normal;font-family:'Comic Neue';-inkscape-font-specification:'Comic Neue Bold';fill:#4d4d4d"
         id="path4195" />
      <path
         d="m 1824.1554,6429.3911 0,-12.8378 q 0,-0.4839 0.344,-0.8172 0.3441,-0.344 0.8279,-0.344 0.5054,0 0.8279,0.344 0.3334,0.3333 0.3334,0.8172 l 0,12.8378 q 0,0.5054 -0.3334,0.8387 -0.3225,0.3333 -0.8279,0.3333 -0.4838,0 -0.8279,-0.3226 -0.344,-0.3333 -0.344,-0.8494 z"
         style="font-style:normal;font-variant:normal;font-weight:bold;font-stretch:normal;font-family:'Comic Neue';-inkscape-font-specification:'Comic Neue Bold';fill:#4d4d4d"
         id="path4197" />
    </g>
    <g
       id="g10804-1-9"
       transform="matrix(0.8660254,0.49999999,-0.49999999,0.8660254,4138.9546,367.21303)">
      <path
         d="m 969.88814,6375.8147 c 1.43712,0.7625 2.93723,1.3988 4.41917,2.0677 2.90284,1.3123 5.84742,2.5282 8.78665,3.7558 2.52843,1.0379 5.07387,2.033 7.60381,3.0673 1.76378,0.6892 3.42567,1.5912 5.05519,2.5479 0.85922,0.5072 1.72083,1.0077 2.61618,1.4483 0,0 -0.17391,0.3531 -0.17391,0.3531 l 0,0 c -0.90366,-0.4454 -1.7744,-0.9492 -2.64157,-1.4619 -1.61331,-0.9473 -3.25839,-1.8409 -5.00487,-2.523 -2.53084,-1.0348 -5.07722,-2.0301 -7.60653,-3.0685 -2.94267,-1.229 -5.89068,-2.4464 -8.79688,-3.7602 -1.49386,-0.6743 -3.00613,-1.3155 -4.45407,-2.0857 0,0 0.19683,-0.3408 0.19683,-0.3408 z"
         id="path10188-7-2"
         style="color:#000000;clip-rule:nonzero;display:inline;overflow:visible;visibility:visible;opacity:1;isolation:auto;mix-blend-mode:normal;color-interpolation:sRGB;color-interpolation-filters:linearRGB;solid-color:#000000;solid-opacity:1;fill:#ff0000;fill-opacity:1;fill-rule:nonzero;stroke:#ff0000;stroke-width:1;stroke-linecap:round;stroke-linejoin:miter;stroke-miterlimit:20;stroke-dasharray:none;stroke-dashoffset:0;stroke-opacity:1;color-rendering:auto;image-rendering:auto;shape-rendering:auto;text-rendering:auto;enable-background:accumulate" />
      <path
         d="m 977.75205,6395.9227 c 0.35463,-1.2539 0.90325,-2.4429 1.45406,-3.6199 1.26653,-2.6139 2.57829,-5.2059 3.8685,-7.8082 0.22133,-0.4458 0.44266,-0.8917 0.664,-1.3376 0.18748,-0.4296 0.35579,-0.8681 0.56244,-1.2888 0.1897,-0.3861 0.42765,-0.7469 0.62533,-1.129 0.49458,-0.9562 0.93193,-1.9496 1.36853,-2.9333 0.56838,-1.2857 1.04143,-2.6103 1.51438,-3.9332 0.26267,-0.7381 0.52259,-1.4771 0.78253,-2.2162 0.11185,-0.2806 0.18146,-0.5745 0.24854,-0.8682 0,0 0.38371,0.088 0.38371,0.088 l 0,0 c -0.0705,0.3081 -0.14434,0.6165 -0.2609,0.9112 -0.26018,0.7396 -0.5203,1.4793 -0.7832,2.218 -0.47624,1.3321 -0.95281,2.6659 -1.52527,3.9605 -0.43985,0.9907 -0.93136,1.9565 -1.37418,2.9453 -0.17654,0.3941 -0.31181,0.8067 -0.50221,1.1944 -0.42596,0.8671 -1.01436,1.6498 -1.35102,2.5641 -1.28887,2.5998 -2.59928,5.189 -3.86469,7.8001 -0.53803,1.1492 -1.07297,2.3097 -1.42492,3.532 0,0 -0.38563,-0.079 -0.38563,-0.079 z"
         id="path10190-8-5"
         style="color:#000000;clip-rule:nonzero;display:inline;overflow:visible;visibility:visible;opacity:1;isolation:auto;mix-blend-mode:normal;color-interpolation:sRGB;color-interpolation-filters:linearRGB;solid-color:#000000;solid-opacity:1;fill:#ff0000;fill-opacity:1;fill-rule:nonzero;stroke:#ff0000;stroke-width:1;stroke-linecap:round;stroke-linejoin:miter;stroke-miterlimit:20;stroke-dasharray:none;stroke-dashoffset:0;stroke-opacity:1;color-rendering:auto;image-rendering:auto;shape-rendering:auto;text-rendering:auto;enable-background:accumulate" />
    </g>
    <g
       transform="translate(-1001.614,5985.4125)"
       style="font-style:normal;font-weight:normal;font-size:40px;line-height:125%;font-family:sans-serif;letter-spacing:0px;word-spacing:0px;fill:#4d4d4d;fill-opacity:1;stroke:none;stroke-width:1px;stroke-linecap:butt;stroke-linejoin:miter;stroke-opacity:1"
       id="flowRoot4242-2-6-0-9">
      <path
         d="m 1571.8086,400.20203 q -0.02,-0.3125 -0.02,-0.625 0.02,-1.79687 0.4101,-3.30078 0.4688,-1.75781 0.8203,-2.67578 0.1172,-0.27344 0.3516,-0.87891 0.2539,-0.60547 0.6641,-1.36718 0.4296,-0.78125 0.9961,-1.66016 0.5859,-0.89844 1.3867,-1.73828 0.6836,-0.80078 1.4453,-1.36719 0.7617,-0.58594 1.5625,-1.01562 1.7969,-1.03516 3.8672,-1.05469 1.6015,0 3.0468,0.42969 1.4454,0.41015 2.5196,1.09375 1.0742,0.68359 1.7187,1.5625 0.6446,0.8789 0.6446,1.79687 l 0,1.03516 q 0,0.80078 -0.5664,1.40625 -0.5665,0.60547 -1.3672,0.60547 -0.7618,0 -1.3477,-0.48829 -0.5664,-0.50781 -0.5664,-1.30859 0,-0.52734 -1.0352,-1.19141 -1.0351,-0.66406 -3.0078,-0.66406 -0.6836,0 -1.2695,0.23438 -0.5664,0.21484 -1.0742,0.52734 -0.4883,0.29297 -0.8789,0.68359 -0.3711,0.3711 -0.6446,0.64454 -0.8007,0.8789 -1.5039,1.97265 -0.7031,1.07422 -1.1523,2.1875 -0.3516,0.9375 -0.6641,2.26563 -0.2734,1.17187 -0.2734,2.42187 0,0.15625 0.019,0.33203 0.039,1.42578 0.5274,2.8125 0.4883,1.36719 1.7578,2.48047 l 0,0.0391 q 2.168,2.03125 4.5312,2.08985 l 0.4688,-0.0391 0.1172,0 q 1.6797,-0.0781 3.0468,-0.78125 1.3672,-0.70313 2.2852,-1.85547 l 0.2344,-0.3711 q 0.5273,-0.72265 1.3672,-0.85937 0.1757,-0.0391 0.3515,-0.0391 0.625,0 1.1524,0.39062 0.664,0.56641 0.8203,1.42578 0.039,0.17578 0.039,0.35156 0,0.64454 -0.4101,1.21094 l -0.2344,0.41016 q -1.3281,1.71875 -3.2031,2.87109 -1.1524,0.6836 -2.5,1.07422 -1.3477,0.37109 -2.793,0.44922 l -0.5469,0 q -4.0429,0 -7.4414,-3.08594 -1.9531,-1.83594 -2.8515,-4.12109 -0.8008,-1.95313 -0.8008,-4.31641 z"
         style="font-style:normal;font-variant:normal;font-weight:bold;font-stretch:normal;font-family:'Comic Neue';-inkscape-font-specification:'Comic Neue Bold';fill:#4d4d4d"
         id="path4134" />
      <path
         d="m 1597.2578,400.43641 0,-0.0781 q 0,-0.83984 0.078,-1.99219 0.078,-1.15234 0.1758,-2.22656 0.1172,-1.09375 0.1953,-1.85547 0.078,-0.76172 0.078,-0.80078 0.078,-0.76172 0.6445,-1.26953 0.5859,-0.52734 1.3867,-0.52734 0.8789,0 1.4844,0.60547 0.6055,0.58593 0.6055,1.42578 l -0.078,0.60547 q -0.078,0.52734 -0.1562,1.25 -0.059,0.70312 -0.1172,1.5039 -0.059,0.80078 -0.098,1.64063 -0.039,0.83984 -0.039,1.60156 l 0,0.0391 0,0.0781 q 0,1.11328 0.039,2.28515 0.039,1.17188 0.1563,2.16797 0.1953,1.23047 0.4297,1.83594 0.2539,0.60547 0.5078,0.80078 0.078,0.0781 0.3711,0.19531 0.2929,0.11719 0.8203,0.11719 0.7617,0 1.543,-0.23437 0.7812,-0.23438 1.4257,-0.58594 0.6641,-0.3711 1.1719,-0.72266 0.5078,-0.37109 0.7031,-0.60547 0.078,-0.0781 0.1172,-0.3125 0.039,-0.2539 0.039,-0.44922 l 0.1953,-11.21093 q 0,-0.80078 0.6055,-1.38672 0.6054,-0.60547 1.4453,-0.60547 0.8789,0 1.4648,0.60547 0.6055,0.58594 0.6055,1.38672 l 0,15.83984 q 0,0.91797 -0.6445,1.54297 -0.625,0.625 -1.5625,0.625 -0.7618,0 -1.3282,-0.39063 -0.5468,-0.41015 -0.7812,-1.05468 l -0.1172,0.0781 q -0.9961,0.60547 -2.2656,1.01563 -1.25,0.39062 -2.6563,0.39062 -1.0742,0 -2.1679,-0.3125 -1.1524,-0.3125 -1.9532,-1.01562 -0.8398,-0.83985 -1.3086,-1.95313 -0.4492,-1.11328 -0.6836,-2.42187 -0.2148,-1.32813 -0.2734,-2.75391 -0.059,-1.42578 -0.059,-2.87109 z"
         style="font-style:normal;font-variant:normal;font-weight:bold;font-stretch:normal;font-family:'Comic Neue';-inkscape-font-specification:'Comic Neue Bold';fill:#4d4d4d"
         id="path4136" />
      <path
         d="m 1616.4375,393.67859 q 0,-0.8789 0.6055,-1.48437 0.625,-0.625 1.5234,-0.625 l 2.7539,0 0,-4.08203 q 0,-0.87891 0.586,-1.48438 0.6054,-0.60547 1.5234,-0.60547 0.8789,0 1.4844,0.60547 0.6054,0.60547 0.6054,1.48438 l 0,4.08203 2.7539,0 q 0.918,0 1.5235,0.625 0.6054,0.60547 0.6054,1.48437 0,0.91797 -0.6054,1.52344 -0.6055,0.60547 -1.5235,0.60547 l -2.7539,0 0,13.84766 q 0,0.8789 -0.6054,1.48437 -0.6055,0.58594 -1.4844,0.58594 -0.918,0 -1.5234,-0.58594 -0.586,-0.60547 -0.586,-1.48437 l 0,-13.84766 -2.7539,0 q -0.8789,0 -1.5039,-0.60547 -0.625,-0.60547 -0.625,-1.52344 z"
         style="font-style:normal;font-variant:normal;font-weight:bold;font-stretch:normal;font-family:'Comic Neue';-inkscape-font-specification:'Comic Neue Bold';fill:#4d4d4d"
         id="path4138" />
      <path
         d="m 1633.2148,401.56922 q 0.1172,-1.95313 0.879,-3.73047 0.7617,-1.79687 2.0898,-3.18359 1.3281,-1.44532 2.9297,-2.20703 1.6211,-0.76172 3.3594,-0.76172 1.5234,0 2.9101,0.5664 1.4063,0.54688 2.5195,1.67969 1.5235,1.48438 2.2461,3.53516 0.586,1.64062 0.586,3.47656 0,0.44922 -0.039,0.89844 -0.1562,1.99218 -0.918,3.78906 -0.7617,1.77734 -2.0312,3.16406 -1.3281,1.44531 -2.9492,2.20703 -1.6211,0.76172 -3.3789,0.76172 -1.5235,0 -2.9297,-0.5664 -1.3867,-0.58594 -2.5,-1.71875 -1.4844,-1.44532 -2.207,-3.4961 -0.586,-1.67969 -0.586,-3.57422 0,-0.41015 0.019,-0.83984 z m 4.2579,0.27344 q -0.02,0.23437 0,0.46875 0,1.21093 0.332,2.30468 0.4101,1.28907 1.2109,2.10938 0.9961,1.03516 2.4024,1.03516 0.8398,0 1.6992,-0.42969 0.8594,-0.44922 1.582,-1.32813 0.7617,-0.8789 1.1914,-2.03125 0.4492,-1.17187 0.5274,-2.40234 0.02,-0.19531 0.02,-0.39063 -0.02,-1.17187 -0.4102,-2.30468 -0.4687,-1.32813 -1.3281,-2.22657 -1.0742,-0.99609 -2.4023,-0.99609 -1.7578,0 -3.1446,1.75781 -0.7226,0.87891 -1.1718,2.05078 -0.4297,1.15235 -0.5078,2.38282 z"
         style="font-style:normal;font-variant:normal;font-weight:bold;font-stretch:normal;font-family:'Comic Neue';-inkscape-font-specification:'Comic Neue Bold';fill:#4d4d4d"
         id="path4140" />
      <path
         d="m 1653.5469,393.63953 q 0,-0.83984 0.5859,-1.42578 0.6055,-0.60547 1.4453,-0.60547 l 1.0938,0 q 0.1562,-2.79297 1.5234,-4.43359 1.9141,-2.28516 6.0742,-2.28516 l 0.4688,0 0.2539,0 q 0.8398,0 1.4258,0.60547 0.6054,0.58594 0.6054,1.42578 0,0.83985 -0.6054,1.44531 -0.586,0.60547 -1.4258,0.60547 l -0.1758,0 q -0.3516,0 -0.8398,0.0195 -0.4688,0.0195 -0.918,0.11719 -0.4297,0.0977 -0.8203,0.25391 -0.3711,0.15625 -0.6055,0.41015 -0.4492,0.56641 -0.5664,1.83594 l 2.8711,0 q 0.8398,0 1.4453,0.60547 0.6055,0.58594 0.6055,1.42578 0,0.83985 -0.6055,1.44531 -0.6055,0.60547 -1.4453,0.60547 l -3.0664,0 0,13.90625 q 0,0.87891 -0.625,1.50391 -0.625,0.625 -1.5039,0.625 -0.8789,0 -1.5039,-0.60547 -0.6055,-0.625 -0.6055,-1.52344 l 0,-13.90625 -1.0547,0 q -0.8398,0 -1.4453,-0.60547 -0.5859,-0.60546 -0.5859,-1.44531 z"
         style="font-style:normal;font-variant:normal;font-weight:bold;font-stretch:normal;font-family:'Comic Neue';-inkscape-font-specification:'Comic Neue Bold';fill:#4d4d4d"
         id="path4142" />
      <path
         d="m 1668.2344,393.63953 q 0,-0.83984 0.5859,-1.42578 0.6055,-0.60547 1.4453,-0.60547 l 1.0938,0 q 0.1562,-2.79297 1.5234,-4.43359 1.9141,-2.28516 6.0742,-2.28516 l 0.4688,0 0.2539,0 q 0.8398,0 1.4258,0.60547 0.6054,0.58594 0.6054,1.42578 0,0.83985 -0.6054,1.44531 -0.586,0.60547 -1.4258,0.60547 l -0.1758,0 q -0.3516,0 -0.8398,0.0195 -0.4688,0.0195 -0.918,0.11719 -0.4297,0.0977 -0.8203,0.25391 -0.3711,0.15625 -0.6055,0.41015 -0.4492,0.56641 -0.5664,1.83594 l 2.8711,0 q 0.8398,0 1.4453,0.60547 0.6055,0.58594 0.6055,1.42578 0,0.83985 -0.6055,1.44531 -0.6055,0.60547 -1.4453,0.60547 l -3.0664,0 0,13.90625 q 0,0.87891 -0.625,1.50391 -0.625,0.625 -1.5039,0.625 -0.8789,0 -1.5039,-0.60547 -0.6055,-0.625 -0.6055,-1.52344 l 0,-13.90625 -1.0547,0 q -0.8398,0 -1.4453,-0.60547 -0.5859,-0.60546 -0.5859,-1.44531 z"
         style="font-style:normal;font-variant:normal;font-weight:bold;font-stretch:normal;font-family:'Comic Neue';-inkscape-font-specification:'Comic Neue Bold';fill:#4d4d4d"
         id="path4144" />
    </g>
    <path
       style="fill:none;fill-rule:evenodd;stroke:#b3b3b3;stroke-width:1px;stroke-linecap:butt;stroke-linejoin:miter;stroke-opacity:1"
       d="m 570.17505,6359.9764 1364.47865,0"
       id="path9983-0-0" />
  </g>
</svg>
