<?xml version="1.0" encoding="UTF-8" standalone="no"?>
<svg
   xmlns:dc="http://purl.org/dc/elements/1.1/"
   xmlns:cc="http://creativecommons.org/ns#"
   xmlns:rdf="http://www.w3.org/1999/02/22-rdf-syntax-ns#"
   xmlns:svg="http://www.w3.org/2000/svg"
   xmlns="http://www.w3.org/2000/svg"
   xmlns:sodipodi="http://sodipodi.sourceforge.net/DTD/sodipodi-0.dtd"
   xmlns:inkscape="http://www.inkscape.org/namespaces/inkscape"
   version="1.1"
   id="svg2"
   viewBox="0 0 1110.7408 287.52924"
   height="81.147141mm"
   width="313.47574mm"
   inkscape:version="0.91 r13725"
   sodipodi:docname="sine-wave-of-intelligence-over-time-single-day.svg">
  <sodipodi:namedview
     pagecolor="#ffffff"
     bordercolor="#666666"
     borderopacity="1"
     objecttolerance="10"
     gridtolerance="10"
     guidetolerance="10"
     inkscape:pageopacity="0"
     inkscape:pageshadow="2"
     inkscape:window-width="1596"
     inkscape:window-height="880"
     id="namedview350"
     showgrid="false"
     fit-margin-top="0"
     fit-margin-left="0"
     fit-margin-right="0"
     fit-margin-bottom="0"
     inkscape:zoom="0.22425739"
     inkscape:cx="-894.9256"
     inkscape:cy="-619.00957"
     inkscape:window-x="0"
     inkscape:window-y="18"
     inkscape:window-maximized="0"
     inkscape:current-layer="svg2" />
  <defs
     id="defs4">
    <marker
       style="overflow:visible"
       id="Arrow1Lend"
       refX="0"
       refY="0"
       orient="auto">
      <path
         transform="matrix(-0.8,0,0,-0.8,-10,0)"
         style="fill:#000000;fill-opacity:1;fill-rule:evenodd;stroke:#000000;stroke-width:1pt;stroke-opacity:1"
         d="M 0,0 5,-5 -12.5,0 5,5 0,0 Z"
         id="path5845"
         inkscape:connector-curvature="0" />
    </marker>
    <marker
       style="overflow:visible"
       id="TriangleOutM"
       refX="0"
       refY="0"
       orient="auto">
      <path
         transform="scale(0.4,0.4)"
         style="fill:#000000;fill-opacity:1;fill-rule:evenodd;stroke:#000000;stroke-width:1pt;stroke-opacity:1"
         d="m 5.77,0 -8.65,5 0,-10 8.65,5 z"
         id="path5987"
         inkscape:connector-curvature="0" />
    </marker>
    <marker
       style="overflow:visible"
       id="TriangleInM"
       refX="0"
       refY="0"
       orient="auto">
      <path
         transform="scale(-0.4,-0.4)"
         style="fill:#000000;fill-opacity:1;fill-rule:evenodd;stroke:#000000;stroke-width:1pt;stroke-opacity:1"
         d="m 5.77,0 -8.65,5 0,-10 8.65,5 z"
         id="path5978"
         inkscape:connector-curvature="0" />
    </marker>
    <marker
       style="overflow:visible"
       id="Arrow2Mstart"
       refX="0"
       refY="0"
       orient="auto">
      <path
         transform="scale(0.6,0.6)"
         d="M 8.7185878,4.0337352 -2.2072895,0.01601326 8.7185884,-4.0017078 c -1.7454984,2.3720609 -1.7354408,5.6174519 -6e-7,8.035443 z"
         style="fill:#000000;fill-opacity:1;fill-rule:evenodd;stroke:#000000;stroke-width:0.625;stroke-linejoin:round;stroke-opacity:1"
         id="path5866"
         inkscape:connector-curvature="0" />
    </marker>
    <marker
       style="overflow:visible"
       id="Arrow1Lstart"
       refX="0"
       refY="0"
       orient="auto">
      <path
         transform="matrix(0.8,0,0,0.8,10,0)"
         style="fill:#000000;fill-opacity:1;fill-rule:evenodd;stroke:#000000;stroke-width:1pt;stroke-opacity:1"
         d="M 0,0 5,-5 -12.5,0 5,5 0,0 Z"
         id="path5842"
         inkscape:connector-curvature="0" />
    </marker>
    <marker
       style="overflow:visible"
       id="TriangleInM-6"
       refX="0"
       refY="0"
       orient="auto">
      <path
         transform="scale(-0.4,-0.4)"
         style="fill:#000000;fill-opacity:1;fill-rule:evenodd;stroke:#000000;stroke-width:1pt;stroke-opacity:1"
         d="m 5.77,0 -8.65,5 0,-10 8.65,5 z"
         id="path5978-6"
         inkscape:connector-curvature="0" />
    </marker>
    <marker
       style="overflow:visible"
       id="TriangleOutM-4"
       refX="0"
       refY="0"
       orient="auto">
      <path
         transform="scale(0.4,0.4)"
         style="fill:#000000;fill-opacity:1;fill-rule:evenodd;stroke:#000000;stroke-width:1pt;stroke-opacity:1"
         d="m 5.77,0 -8.65,5 0,-10 8.65,5 z"
         id="path5987-0"
         inkscape:connector-curvature="0" />
    </marker>
    <marker
       style="overflow:visible"
       id="TriangleInM-6-4"
       refX="0"
       refY="0"
       orient="auto">
      <path
         transform="scale(-0.4,-0.4)"
         style="fill:#000000;fill-opacity:1;fill-rule:evenodd;stroke:#000000;stroke-width:1pt;stroke-opacity:1"
         d="m 5.77,0 -8.65,5 0,-10 8.65,5 z"
         id="path5978-6-6"
         inkscape:connector-curvature="0" />
    </marker>
    <marker
       style="overflow:visible"
       id="TriangleOutM-4-2"
       refX="0"
       refY="0"
       orient="auto">
      <path
         transform="scale(0.4,0.4)"
         style="fill:#000000;fill-opacity:1;fill-rule:evenodd;stroke:#000000;stroke-width:1pt;stroke-opacity:1"
         d="m 5.77,0 -8.65,5 0,-10 8.65,5 z"
         id="path5987-0-6"
         inkscape:connector-curvature="0" />
    </marker>
    <marker
       style="overflow:visible"
       id="TriangleInM-6-4-5"
       refX="0"
       refY="0"
       orient="auto">
      <path
         transform="scale(-0.4,-0.4)"
         style="fill:#000000;fill-opacity:1;fill-rule:evenodd;stroke:#000000;stroke-width:1pt;stroke-opacity:1"
         d="m 5.77,0 -8.65,5 0,-10 8.65,5 z"
         id="path5978-6-6-6"
         inkscape:connector-curvature="0" />
    </marker>
    <marker
       style="overflow:visible"
       id="TriangleOutM-4-2-9"
       refX="0"
       refY="0"
       orient="auto">
      <path
         transform="scale(0.4,0.4)"
         style="fill:#000000;fill-opacity:1;fill-rule:evenodd;stroke:#000000;stroke-width:1pt;stroke-opacity:1"
         d="m 5.77,0 -8.65,5 0,-10 8.65,5 z"
         id="path5987-0-6-8"
         inkscape:connector-curvature="0" />
    </marker>
  </defs>
  <metadata
     id="metadata7">
    <rdf:RDF>
      <cc:Work
         rdf:about="">
        <dc:format>image/svg+xml</dc:format>
        <dc:type
           rdf:resource="http://purl.org/dc/dcmitype/StillImage" />
        <dc:title></dc:title>
      </cc:Work>
    </rdf:RDF>
  </metadata>
  <path
     inkscape:connector-curvature="0"
     style="color:#000000;clip-rule:nonzero;display:inline;overflow:visible;visibility:visible;opacity:0.77999998;isolation:auto;mix-blend-mode:normal;color-interpolation:sRGB;color-interpolation-filters:linearRGB;solid-color:#000000;solid-opacity:1;fill:#000000;fill-opacity:1;fill-rule:nonzero;stroke:#000000;stroke-width:1;stroke-linecap:butt;stroke-linejoin:miter;stroke-miterlimit:4;stroke-dasharray:none;stroke-dashoffset:0;stroke-opacity:1;color-rendering:auto;image-rendering:auto;shape-rendering:auto;text-rendering:auto;enable-background:accumulate"
     id="path5434"
     d="m 16.037991,190.29768 c 2.2869,2.357 5.3328,3.2582 8.4707,3.8092 5.1347,0.4197 9.9795,-1.2496 14.6372,-3.2056 6.9567,-3.1888 12.9823,-7.9741 18.9575,-12.6755 8.3861,-6.6785 15.8198,-14.4194 23.0854,-22.2713 7.8602,-8.6752 16.1502,-16.9323 24.752299,-24.8669 6.1489,-5.5616 12.7898,-10.53913 20.5635,-13.52134 6.4431,-2.01602 10.5242,-0.67816 15.5339,3.54917 5.3329,5.36097 8.6583,12.24957 12.048,18.91067 4.29,8.4203 8.4968,16.8819 12.9062,25.2408 4.6224,9.0904 9.5147,18.0313 15.0497,26.599 5.3759,8.1216 12.0823,15.2185 19.0933,21.9312 5.3042,4.6632 11.0829,9.7709 18.2836,11.0949 1.3086,0.2408 2.6527,0.2119 3.9791,0.318 11.5857,-0.9227 20.7191,-8.6543 29.3916,-15.6733 13.9109,-11.8371 25.9702,-25.6067 37.7897,-39.4732 13.6639,-16.2997 26.8797,-32.9666 40.323,-49.44725 11.7336,-14.638 24.014,-28.800601 36.9732,-42.362541 8.367,-8.71809 17.4914,-16.69114 28.4302,-21.9455 7.9261,-3.27889 14.4249,-3.12947 22.1539,0.3412 8.9274,5.47299 15.085,14.15305 21.1412,22.47631 8.0977,11.49798 15.6461,23.365101 23.0152,35.338561 6.4997,10.91082 13.0351,21.78892 20.5856,32.01052 5.9355,8.0782 13.1694,14.6226 22.2002,18.9553 9.1634,3.6624 18.0972,1.9689 27.0083,-1.3916 13.8912,-6.5634 25.0769,-17.2996 35.9791,-27.8736 14.4863,-14.60806 28.6746,-29.50443 43.2481,-44.027341 13.646,-13.70226 28.1008,-26.54566 42.8625,-39.0238 11.2686,-9.35606 22.8371,-18.38859 36.1492,-24.61667 11.1481,-4.53488 19.14,-3.94293 29.9248,0.82106 9.5552,5.15496 16.1747,13.77157 22.4658,22.35448 7.1964,10.52241 13.8442,21.40693 20.7604,32.11409 6.0461,9.50269 12.9011,18.405531 21.1967,26.035581 7.4795,6.40602 14.4004,9.55865 24.2117,10.14723 12.1246,-0.67366 22.1235,-7.61022 31.5604,-14.6032 14.4257,-11.445171 27.8486,-24.075171 41.6575,-36.241121 14.4318,-12.90793 29.626,-24.89077 45.4921,-35.97531 12.4038,-8.54612 25.5422,-15.91769 38.9183,-22.80896 9.3017,-4.90201 19.0479,-8.45841 29.489,-9.72222002 8.45231,-0.56154 16.81641,0.97003002 25.07921,2.54772002 8.3461,1.44364 16.5343,3.52654 24.5849,6.1375 7.9871,2.65367 15.9401,5.39043 24.1041,7.45489 7.725,2.05711 15.4509,1.68736 23.2085,0.19882 4.3102,-0.89297 8.4915,-2.27755 12.6794,-3.60767 0,0 0.6439,2.02757 0.6439,2.02757 l 0,0 c -4.2682,1.35504 -8.5304,2.76333 -12.924,3.66959 -8.0641,1.53531 -16.1029,1.90977 -24.1297,-0.22594 -8.2085,-2.07883 -16.2085,-4.82153 -24.2388,-7.49364 -7.9656,-2.58526 -16.0687,-4.64347 -24.3274,-6.07152 -8.0478,-1.53772 -16.1935,-3.04339 -24.42651,-2.5251 -10.1919,1.21276 -19.6898,4.72953 -28.7683,9.50112 -13.2919,6.84713 -26.3483,14.17072 -38.6743,22.66184 -15.8017,11.03753 -30.9316,22.97305 -45.3042,35.82754 -13.8541,12.20552 -27.3198,24.87832 -41.7976,36.354671 -9.8544,7.2912 -20.2954,14.42711 -32.96,15.01659 -10.5462,-0.6924 -17.4491,-3.86504 -25.5195,-10.70553 -8.4179,-7.76217 -15.4065,-16.784871 -21.5424,-26.446171 -6.8934,-10.6722 -13.5211,-21.52004 -20.6894,-32.01091 -6.067,-8.28289 -12.4264,-16.6402 -21.6128,-21.66746 -10.1775,-4.54072 -17.6075,-5.11422 -28.1616,-0.83797 -13.15,6.12871 -24.5426,15.09681 -35.6761,24.31381 -14.7175,12.44038 -29.1291,25.24485 -42.7342,38.90602 -14.5803,14.529571 -28.7743,29.434111 -43.2687,44.047811 -11.1134,10.7753 -22.5276,21.6985 -36.7124,28.3378 -9.8009,3.6633 -18.6179,5.2439 -28.6795,1.3165 -9.329,-4.5147 -16.8532,-11.2339 -22.9881,-19.608 -7.583,-10.272 -14.1595,-21.1946 -20.6859,-32.15925 -7.3403,-11.92704 -14.859,-23.748111 -22.9239,-35.202111 -5.8385,-8.02767 -11.7572,-16.42069 -20.2994,-21.7904 -7.1012,-3.25492 -13.0426,-3.36108 -20.3565,-0.35985 -10.7191,5.11448 -19.6114,12.98732 -27.8109,21.49651 -12.9215,13.52112 -25.1639,27.642981 -36.8628,42.237501 -13.453,16.4925 -26.6782,33.1716 -40.3526,49.4826 -11.9048,13.9657 -24.0545,27.8309 -38.0706,39.7471 -9.1154,7.3712 -18.7077,15.3597 -30.9106,16.139 -1.467,-0.1325 -2.9544,-0.1199 -4.4011,-0.3976 -7.5268,-1.4441 -13.6008,-6.6861 -19.1519,-11.5985 -7.129,-6.8292 -13.9454,-14.0506 -19.4091,-22.3136 -5.5665,-8.6215 -10.4954,-17.6135 -15.1443,-26.7607 -4.4139,-8.3681 -8.6262,-16.8386 -12.9205,-25.2683 -3.2623,-6.4119 -6.4465,-13.0549 -11.5318,-18.2564 -4.0722,-3.50929 -8.0753,-4.99206 -13.3958,-3.18071 -7.5297,2.85671 -13.9224,7.74161 -19.8795,13.09741 -8.561499,7.8961 -16.810699,16.1144 -24.633199,24.748 -7.342,7.9334 -14.8562,15.7522 -23.3314,22.4986 -6.126,4.8194 -12.3109,9.7125 -19.4509,12.9655 -5.0414,2.1069 -10.2837,3.8618 -15.8338,3.3375 -3.6305,-0.6598 -7.1277,-1.7727 -9.7303,-4.5412 0,0 1.6342,-1.362 1.6342,-1.362 z" />
  <path
     inkscape:connector-curvature="0"
     style="color:#000000;clip-rule:nonzero;display:inline;overflow:visible;visibility:visible;opacity:0.77999998;isolation:auto;mix-blend-mode:normal;color-interpolation:sRGB;color-interpolation-filters:linearRGB;solid-color:#000000;solid-opacity:1;fill:#b3b3b3;fill-opacity:1;fill-rule:nonzero;stroke:#b3b3b3;stroke-width:1;stroke-linecap:butt;stroke-linejoin:miter;stroke-miterlimit:4;stroke-dasharray:none;stroke-dashoffset:0;stroke-opacity:1;color-rendering:auto;image-rendering:auto;shape-rendering:auto;text-rendering:auto;enable-background:accumulate"
     id="path5454"
     d="m 0.50259092,286.43258 c 0.50529998,-1.7746 1.13219998,-3.5074 1.82969998,-5.2146 0.991,-2.3997 1.6937,-4.9058 2.4793,-7.3774 1.1322,-3.4969 2.0362,-7.0512 2.7747,-10.6501 0.7867,-3.7267 1.2617,-7.4981 1.5834,-11.2895 0.2222,-2.8104 0.3313,-5.625 0.6834,-8.4232 0.2441001,-1.7966 0.5311001,-3.5871 0.8172001,-5.3774 0.4585,-1.9677 -0.4536,-2.4284 1.5037,-1.3342 -0.5066,1.9894 -0.6213,4.0534 -0.768,6.0932 -0.1603,3.5819 -0.1459,7.1677 -0.2724,10.7524 -0.1281,3.3324 -0.2381,6.6654 -0.3319,9.999 -0.076,2.7342 -0.1394,5.4687 -0.1985,8.2034 -0.04,1.964 -0.076,3.9281 -0.1118,5.8923 -0.04,0.9658 0,1.9358 -0.064,2.9008 -0.4340001,-0.2249 -0.9865001,-0.3014 -1.3019001,-0.6748 -0.1483,-0.1755 0.1165,-0.4446 0.1668,-0.6688 0.3473,-1.5472 0.6666,-3.101 0.9584001,-4.6596 0.6195,-3.4426 1.2151,-6.8781 1.5542,-10.3607 0.3064,-3.6429 0.483,-7.2952 0.6394,-10.9471 0.127,-3.0869 0.23,-6.1747 0.3346,-9.2624 0.063,-1.8613 0.1251,-3.7226 0.1873,-5.5838 0.03,-0.7895 0.1205,-1.6116 -0.1571,-2.358 0.3073,0.1408 0.6601,0.2087 0.9219,0.4226 0.2219,0.1812 -0.1656,0.5491 -0.2244,0.8295 -0.2239,1.0677 -0.2376,2.1383 -0.2751,3.2249 -0.038,3.9871 0.2226,7.973 0.3859,11.9562 0.1568,4.0512 0.2976,8.1029 0.4393,12.1546 0.068,2.4255 0.2519,4.8468 0.1072,7.2716 -0.041,1.8162 -1.5102,3.1027 -2.6019,1.06 -0.8505,-2.483 -1.0459,-5.1128 -1.2746,-7.7086 -0.2414,-3.5231 0.028,-7.0484 0.2527,-10.5642 0.1758,-2.7434 0.353,-5.4867 0.53,-8.2301 0.1034,-1.6017 0.2069,-3.2035 0.3103,-4.8052 0.089,-0.9137 -0.1633,-2.1563 1.5642,-0.558 0.02,0.019 0.052,1.7001 0.057,1.9509 0.2402,4.5211 0.461,9.0421 0.7546,13.5602 0.2753,4.9571 0.6563,9.9026 1.2127,14.8359 0.186,1.4082 0.3143,2.8286 0.6037,4.2215 0.057,0.274 0.5341,0.8652 0.2626,0.7974 -0.3505,-0.088 -0.6763,-0.2544 -1.0145,-0.3816 0.3741,-1.9373 0.4315,-3.9194 0.5274,-5.885 0.1633,-3.8454 0.237,-7.694 0.3144,-11.5419 0.1498,-3.2855 0.022,-6.5676 -0.1611,-9.848 -0.1111,-1.826 -0.2163,-3.6526 -0.3686,-5.4758 0.5542,0.4698 -0.2631,-0.675 -0.077,-0.5978 0.4683,0.1948 1.0346,0.3131 1.3427,0.7161 0.1983,0.2594 -0.035,0.652 -0.047,0.9782 -0.057,1.5445 -0.037,1.2366 -0.01,2.9208 0.1627,4.8157 0.3087,9.6318 0.4386,14.4484 0.1104,3.6268 0.1581,7.2557 0.3081,10.8811 0.012,0.1753 0.033,0.3502 0.036,0.5259 8e-4,0.061 0.023,-0.1528 -0.031,-0.1802 -0.4394,-0.2212 -1.0391,-0.1721 -1.3776,-0.529 -0.3209,-0.3382 -0.1634,-2.7546 -0.1936,-3.2297 -0.1366,-2.0896 -0.2568,-4.1803 -0.3784,-6.2708 -0.088,-1.4211 -0.164,-2.8427 -0.2243,-4.2652 -0.052,-1.1866 -0.089,-2.3737 -0.1263,-3.5608 -0.018,-0.659 -0.041,-1.3178 -0.07,-1.9764 -0.013,-0.2817 -0.026,-0.5633 -0.04,-0.8449 -0.048,-1.0583 1.0547,-1.2286 1.8095,-1.1871 1.2602,0.1555 2.5265,0.2399 3.7938,0.3102 2.5261,0.1228 5.055,0.1695 7.5834,0.2149 4.3966,0.078 8.7912,-0.181 13.1774,-0.4522 5.9932,-0.5236 11.9882,-1.0145 17.9912,-1.4121 7.2438,-0.4753 14.5015,-0.6591 21.7519,-0.9943 8.1686,-0.3935 16.3363,-0.8276 24.512799,-1.0118 7.6527,-0.1398 15.3072,-0.048 22.9597,-0.1762 7.2974,-0.1489 14.5839,-0.6143 21.8726,-0.9814 6.7002,-0.3141 13.4011,-0.648 20.1086,-0.7394 6.7115,-0.026 13.4229,0.04 20.1341,0.087 5.938,0.1424 11.8717,0.4174 17.8077,0.6253 5.8419,0.2918 11.6861,0.044 17.5232,-0.2144 6.6884,-0.3088 13.3803,-0.4876 20.0647,-0.8784 10.4763,-0.6871 20.9017,-1.9526 31.3453,-2.9991 12.834,-1.3847 25.7036,-2.3984 38.5734,-3.3817 15.4526,-1.2851 30.9308,-2.2078 46.4149,-3.0093 15.8672,-0.8832 31.7556,-1.2086 47.6424,-1.4927 16.1529,-0.2738 32.3056,-0.6117 48.4549,-1.0524 16.2213,-0.4936 32.4444,-0.9157 48.6691,-1.2799 15.0355,-0.2851 30.075,-0.1589 45.1092,0.1339 14.4608,0.3094 28.9139,0.9032 43.3633,1.5416 14.4318,0.5894 28.8621,1.2092 43.2932,1.8149 15.0234,0.6187 30.0536,1.0483 45.0847,1.4255 14.589,0.3924 29.1705,0.9887 43.7524,1.5791 13.9378,0.5459 27.8783,1.0522 41.8249,1.3 13.1426,0.1695 26.2865,0.2013 39.43,0.2422 12.3116,0.036 24.6232,0.058 36.9348,0.079 11.2013,0.045 22.4013,-0.2036 33.6006,-0.388 9.9065,-0.1651 19.8136,-0.2956 29.7209,-0.4081 9.3575,-0.1039 18.7154,-0.173 28.0733,-0.2344 8.6638,-0.054 17.3277,-0.094 25.9916,-0.1317 6.2453,0.034 12.4855,-0.061 18.7253,-0.3141 4.7535,-0.2402 9.5131,-0.3439 14.2654,-0.6029 5.72381,-0.3601 11.44081,-0.8539 17.14001,-1.4957 6.5869,-0.7647 13.156,-1.6721 19.7381,-2.4773 5.1136,-0.6248 10.2345,-1.1854 15.3623,-1.6796 4.0389,-0.3785 8.086,-0.6351 12.117,-1.0936 3.0183,-0.4135 6.0672,-0.5224 9.1084,-0.6371 2.6257,-0.1156 5.2529,0.091 7.8738,0.2344 2.3524,0.1306 4.7061,0.2346 7.0604,0.3251 2.0129,0.071 4.026,0.1357 6.0395,0.1879 1.8691,0.049 3.7386,0.079 5.6082,0.1057 1.5307,0.021 3.0614,0.04 4.5922,0.06 0.9387,0.074 1.8416,0 2.7587,-0.1925 0.6619,-0.1464 1.3193,-0.3122 1.9767,-0.4775 0.381,-0.096 0.7618,-0.1924 1.1426,-0.2889 0.2586,-0.05 0.6974,-0.2176 0.1797,0.01 0.1347,-1.3553 0.3395,-2.7014 0.5332,-4.0496 0.2816,-1.85 0.8888,-3.6352 1.1666,-5.4833 0.1459,-1.2392 0.2017,-2.4865 0.2608,-3.7322 0.169,-1.3011 -0.5466,-1.7343 0.9893,-0.7817 -0.7395,2.3162 -1.2008,4.7148 -1.6531,7.1007 -0.6445,3.6513 -1.0514,7.3386 -1.469,11.021 -0.281,1.9808 -0.415,3.9708 -0.5095,5.9669 -0.4781,-0.2839 -1.075,-0.4273 -1.4344,-0.8517 -0.1853,-0.2188 -0.4944,-5.3274 -0.5735,-5.9578 -0.4104,-3.127 -0.6931,-6.2684 -0.9611,-9.4101 -0.2207,-2.6436 -0.3988,-5.2905 -0.5758,-7.9373 -0.1136,-1.4794 -0.1652,-2.9642 -0.3214,-4.4401 -0.01,-0.038 -0.018,-0.075 -0.027,-0.113 0.4483,0.2023 1.0083,0.2483 1.3448,0.6069 0.017,0.018 -0.1671,3.9191 -0.1846,4.1949 -0.3157,3.0782 -0.2952,6.1719 -0.2852,9.2618 0.014,2.3998 0.033,4.7996 0.063,7.1993 -0.5072,-0.4893 0.2557,0.8874 0.017,0.7825 -0.5265,-0.2313 -1.1178,-0.4466 -1.4721,-0.8996 -0.1316,-0.1683 -0.2329,-3.3645 -0.2548,-3.6954 -0.1871,-2.8317 -0.4859,-5.6645 -0.9306,-8.4679 -0.4244,-2.3808 -0.8537,-4.7603 -1.2352,-7.1485 -0.2798,-1.5784 -0.5155,-3.1531 -0.5251,-4.7578 0,-0.077 -0.067,-0.2509 0.01,-0.2315 0.5445,0.1415 1.1458,0.2609 1.5619,0.6395 0.2773,0.2523 0.9599,4.7461 1.053,5.2614 0.853,4.1596 1.3702,8.3743 1.9976,12.5705 0.5571,3.5833 1.1584,7.1595 1.7579,10.7359 0.3058,1.2211 0.2729,2.5598 0.7418,3.7424 0.142,0.3579 -0.6699,-0.3835 -1.0246,-0.5332 0.5644,-3.2568 0.9296,-6.5487 1.3545,-9.8272 0.4319,-3.3905 0.8204,-6.7862 1.1934,-10.1835 0.2472,-2.2049 0.4763,-4.4115 0.6891,-6.6199 0.1353,-1.3539 0.2464,-2.7102 0.3887,-4.0634 0.2681,0.2147 -0.1217,-0.7599 0.094,-0.6823 0.4707,0.1691 0.9699,0.3779 1.2951,0.7579 0.1737,0.203 -0.1907,2.3949 -0.2237,3.0353 -0.1798,4.6922 -0.2318,9.3883 -0.2961,14.0833 -0.06,4.7131 -0.1126,9.4263 -0.1652,14.1395 0,0.1307 -0.049,4.3705 -0.068,4.3699 -1.7739,-0.061 -1.4831,-0.3324 -1.6033,-1.532 -0.3535,-3.1513 -0.9341,-6.2695 -1.4323,-9.3997 -0.7716,-3.4587 -1.215,-6.9553 -1.5045,-10.4827 -0.2605,-3.6054 -0.4231,-7.2169 -0.5929,-10.8274 -0.098,-2.0947 -0.185,-4.19 -0.3172,-6.2828 -0.5522,-0.9152 0.553,-0.578 0.8642,-0.1307 0.1342,0.1928 -0.1454,0.447 -0.2021,0.675 -0.08,0.3218 -0.1383,0.6486 -0.2074,0.9729 -0.7263,3.421 -1.1747,6.8954 -1.4505,10.3795 -0.227,3.6451 -0.3217,7.2968 -0.4235,10.947 -0.3362,1.7814 0.4863,4.1019 -0.5617,5.6856 -0.4686,-0.3801 -1.0598,-0.6461 -1.4057,-1.1405 -0.6156,-0.88 -0.8967,-6.657 -0.9743,-7.9049 -0.099,-3.1678 -0.2465,-6.341 -0.1452,-9.5102 0.085,-2.1777 0.455,-4.3394 1.0904,-6.4223 0.5835,-1.6572 1.6665,-3.1183 3.2799,-1.515 1.2268,2.4268 1.4672,5.2363 1.8268,7.8981 0.4703,3.6872 0.4694,7.4157 0.5309,11.1269 -0.019,2.7369 0.1746,5.4797 0.046,8.2148 -0.013,0.678 -0.1171,1.2471 -0.4032,1.8503 0,0 -1.234,-0.7199 -1.234,-0.7199 l 0,0 c 0.074,-0.2535 0.2683,-0.8897 0.2103,-1.1996 0.1349,-2.7034 -0.074,-5.4164 -0.047,-8.1219 -0.061,-3.6552 -0.058,-7.3277 -0.5182,-10.9595 -0.325,-2.4085 -0.575,-4.8981 -1.5002,-7.1647 -0.2039,-0.4793 -0.089,-0.01 0.075,-0.3793 0.071,-0.1592 -1.0982,1.4366 -0.8995,1.3883 -0.6035,1.9605 -0.9446,3.9997 -1.0284,6.0502 -0.1033,3.1241 0.05,6.2527 0.1431,9.3755 0.1055,1.7164 0.2572,3.4186 0.4914,5.1229 0.063,0.4582 0.1332,0.9154 0.2122,1.3711 0.064,0.3673 0.3687,0.7573 0.2158,1.0973 -0.1433,0.3187 -0.6189,0.3249 -0.9284,0.4873 -0.037,0.1 -0.057,0.3917 -0.1117,0.2999 -0.2243,-0.38 0.4911,-4.3838 0.2085,-4.9702 0.1026,-3.6747 0.198,-7.3509 0.4275,-11.0204 0.2828,-3.5473 0.7372,-7.085 1.4782,-10.5681 0.014,-0.064 0.3596,-1.8065 0.5137,-1.9552 1.4932,-1.441 1.7407,-0.5619 1.8537,0.6497 0.1326,2.1006 0.2206,4.2035 0.3185,6.3058 0.169,3.594 0.3308,7.1889 0.5897,10.7777 0.2862,3.4917 0.7275,6.9514 1.4916,10.375 0.5025,3.1576 1.088,6.3033 1.4429,9.4824 0.1134,1.1423 0.4446,1.3452 -1.246,1.6259 -0.139,0.023 0.011,-0.2816 0.014,-0.4225 0.03,-1.3049 0.034,-2.6104 0.053,-3.9155 0.053,-4.7144 0.1049,-9.4288 0.1652,-14.1431 0.065,-4.7129 0.1167,-9.4271 0.298,-14.1373 0.014,-0.2716 -0.074,-3.0664 0.2553,-3.2697 0.4307,-0.2657 0.9996,-0.191 1.5057,-0.1956 0.1942,0 -0.571,0.7945 -0.079,0.5775 -0.1421,1.349 -0.2522,2.7012 -0.3874,4.0509 -0.2134,2.2147 -0.4432,4.4276 -0.6911,6.6388 -0.374,3.4066 -0.7636,6.8115 -1.1967,10.2112 -0.4332,3.3433 -0.7987,6.7022 -1.3932,10.0202 -0.4723,0.3372 -0.8668,0.8266 -1.4168,1.0114 -0.4652,0.1563 -1.0204,-4.1003 -1.0873,-4.361 -0.6009,-3.5847 -1.2036,-7.1693 -1.7619,-10.7609 -0.6249,-4.182 -1.1404,-8.3824 -1.9906,-12.5279 -0.067,-0.3721 -1.0817,-5.1843 -1.0489,-5.24 1.3754,-2.339 1.2823,-1.21 1.2603,-0.6908 0.01,1.5319 0.2432,3.033 0.5072,4.5401 0.3816,2.3889 0.8117,4.769 1.2355,7.1507 0.4489,2.8465 0.7567,5.7215 0.945,8.5966 0.021,0.3133 0.3467,3.5765 0.2565,3.7231 -0.2993,0.4861 -0.878,0.7438 -1.3829,1.0102 -0.2384,0.1258 0.426,-1.3006 -0.017,-0.8085 -0.03,-2.4041 -0.049,-4.8083 -0.063,-7.2126 -0.01,-3.1217 -0.03,-6.2473 0.2881,-9.3573 0.024,-0.3807 0.093,-4.1411 0.1882,-4.2404 1.4197,-1.4875 1.3916,-1.1974 1.525,-0.5072 0.1568,1.4941 0.213,2.9968 0.3261,4.4945 0.1764,2.6381 0.3539,5.2762 0.5738,7.9112 0.2663,3.1229 0.5471,6.2455 0.9552,9.3538 0.075,0.599 0.7876,5.8564 0.5846,6.1241 -0.3281,0.4325 -0.9475,0.5303 -1.4212,0.7955 0.096,-2.0273 0.2328,-4.0485 0.517,-6.0603 0.4216,-3.7177 0.833,-7.4402 1.485,-11.1262 0.4784,-2.5211 0.9508,-5.0679 1.7911,-7.4973 2.3927,-0.7787 1.705,-0.417 1.7031,1.5122 -0.061,1.2956 -0.1198,2.5932 -0.2757,3.8817 -0.2891,1.8424 -0.8629,3.6273 -1.1645,5.4692 -0.2149,1.4958 -0.3605,3.0121 -0.6701,4.4866 -0.2852,0.4399 -0.5993,0.6594 -1.106,0.739 -0.3817,0.097 -0.7634,0.1934 -1.1452,0.2896 -0.6768,0.1701 -1.3536,0.3408 -2.0351,0.4909 -1.0172,0.2099 -2.0271,0.2982 -3.0666,0.222 -1.5316,-0.019 -3.0632,-0.038 -4.5948,-0.059 -1.875,-0.027 -3.7501,-0.057 -5.6247,-0.1061 -2.0194,-0.052 -4.0385,-0.1173 -6.0573,-0.1885 -2.362,-0.091 -4.7235,-0.1951 -7.0837,-0.3262 -2.577,-0.1414 -5.1602,-0.346 -7.7418,-0.2332 -3.0052,0.1132 -6.0182,0.2195 -9.0008,0.629 -4.0392,0.4591 -8.0942,0.7178 -12.1414,1.0961 -5.1156,0.4929 -10.2243,1.0523 -15.3258,1.6756 -6.5867,0.8058 -13.1603,1.7139 -19.7517,2.4789 -5.7266,0.6445 -11.4709,1.1412 -17.22231,1.5026 -4.7589,0.2588 -9.525,0.3638 -14.285,0.6038 -6.2571,0.2539 -12.5146,0.349 -18.7771,0.3152 -8.6628,0.038 -17.3257,0.077 -25.9884,0.1318 -9.3556,0.061 -18.7112,0.1305 -28.0665,0.2343 -9.9048,0.1124 -19.8095,0.2429 -29.7136,0.4079 -11.2079,0.1847 -22.4166,0.433 -33.6265,0.3883 -12.3123,-0.021 -24.6246,-0.043 -36.9369,-0.079 -13.1504,-0.041 -26.3013,-0.073 -39.4509,-0.2425 -13.9574,-0.2482 -27.9087,-0.7545 -41.8573,-1.3009 -14.5746,-0.5901 -29.1488,-1.1862 -43.7305,-1.5784 -15.0391,-0.3774 -30.0773,-0.8072 -45.1087,-1.4262 -14.4322,-0.6058 -28.8636,-1.2257 -43.2964,-1.8151 -14.4377,-0.6379 -28.879,-1.2313 -43.328,-1.5405 -15.0142,-0.2926 -30.0338,-0.4185 -45.0494,-0.134 -16.2223,0.3641 -32.4431,0.7862 -48.6621,1.2797 -16.1538,0.4408 -32.311,0.7789 -48.4684,1.0527 -15.8706,0.2838 -31.7429,0.6087 -47.5941,1.4911 -15.4724,0.8008 -30.9389,1.7228 -46.3799,3.0071 -12.8586,0.9823 -25.7169,1.9951 -38.5398,3.3786 -10.4633,1.0484 -20.9083,2.3164 -31.4044,3.0039 -6.6911,0.3908 -13.3896,0.5706 -20.0847,0.8794 -5.8748,0.2606 -11.7568,0.508 -17.6366,0.2149 -5.9225,-0.2075 -11.8429,-0.4815 -17.7676,-0.6245 -6.7014,-0.047 -13.403,-0.1122 -20.1047,-0.087 -6.69,0.091 -13.3734,0.4252 -20.0561,0.7378 -7.3047,0.3679 -14.6072,0.8342 -21.9205,0.983 -7.6499,0.1282 -15.3016,0.037 -22.9515,0.1761 -8.165299,0.1834 -16.321699,0.618 -24.478999,1.0106 -7.241,0.3346 -14.4892,0.5184 -21.7235,0.9927 -6.0051,0.3976 -12.0021,0.8895 -17.9975,1.4125 -4.4241,0.2734 -8.8566,0.5336 -13.2911,0.4546 -2.5462,-0.046 -5.093,-0.093 -7.6369,-0.2169 -1.2751,-0.071 -2.5496,-0.1541 -3.8176,-0.3116 -0.6468,-0.068 -0.2595,-0.7024 -0.2796,-0.3059 0.013,0.2832 0.027,0.5663 0.04,0.8495 0.029,0.6649 0.053,1.33 0.071,1.9953 0.037,1.1818 0.074,2.3636 0.1257,3.5449 0.06,1.415 0.1359,2.8291 0.2231,4.2427 0.1215,2.0879 0.2415,4.176 0.3779,6.2629 0.1253,1.9655 0.8845,3.2793 -1.151,4.4494 -0.2591,0.1489 0.089,-1.2995 -0.1352,-0.8865 -0.15,-3.6323 -0.1985,-7.268 -0.3088,-10.9016 -0.1299,-4.8208 -0.2763,-9.641 -0.4389,-14.4608 0,-0.2858 -0.12,-3.8363 0.059,-4.0553 0.3602,-0.4406 0.9507,-0.6467 1.4853,-0.8421 0.2321,-0.085 -0.2114,1.0111 0.096,0.7352 0.1532,1.8361 0.2597,3.6757 0.3713,5.5148 0.1855,3.3165 0.3133,6.6349 0.1631,9.9565 -0.078,3.8616 -0.1517,7.7238 -0.3158,11.5829 -0.1078,2.2068 -0.081,4.5107 -0.7776,6.6254 -0.4775,0.075 -0.9539,0.2936 -1.4323,0.2253 -0.3584,-0.051 -0.9812,-5.0386 -1.0158,-5.5126 -0.5587,-4.9557 -0.9422,-9.9238 -1.2187,-14.9034 -0.2949,-4.5385 -0.5171,-9.0799 -0.7572,-13.6216 -0.01,-0.3719 -0.014,-0.7439 -0.024,-1.1157 -0.01,-0.2509 -0.2177,-0.5871 -0.029,-0.7523 1.782,-1.5585 1.3226,-0.1873 1.2854,0.5359 -0.1034,1.6018 -0.2069,3.2035 -0.3103,4.8053 -0.177,2.743 -0.3541,5.486 -0.53,8.2291 -0.22,3.4438 -0.487,6.8967 -0.2552,10.3478 0.2135,2.4279 0.3953,4.882 1.1404,7.2179 0.038,0.1067 0.1625,0.2177 0.114,0.3201 -0.041,0.087 -0.2013,-0.01 -0.2854,0.042 -0.7213,0.3993 0.1017,0.041 0.058,-0.8916 0.1448,-2.3793 -0.047,-4.7557 -0.1089,-7.1357 -0.1416,-4.0489 -0.2823,-8.0978 -0.439,-12.1461 -0.1647,-4.0194 -0.4277,-8.0414 -0.3862,-12.0648 0.022,-0.6325 0.1565,-4.6684 0.8841,-4.9804 0.4292,-0.184 0.9322,-0.058 1.3984,-0.087 0.428,0.9588 0.3577,2.02 0.3077,3.0459 -0.062,1.8615 -0.1245,3.723 -0.1873,5.5844 -0.1048,3.092 -0.2079,6.1841 -0.3351,9.2752 -0.1576,3.6778 -0.3355,7.356 -0.6448,11.0247 -0.3441,3.5242 -0.944,7.0014 -1.572,10.485 -0.071,0.38 -1.1047,5.3671 -1.1368,5.3843 -0.4515,0.2429 -1.0107001,0.1735 -1.5160001,0.2602 0.039,-0.9431 0.038,-1.8876 0.061,-2.8313 0.036,-1.9657 0.072,-3.9314 0.1119,-5.897 0.059,-2.7377 0.123,-5.4754 0.1987,-8.2127 0.094,-3.337 0.204,-6.6734 0.3322,-10.0092 0.1272,-3.6021 0.1112,-7.2053 0.2752,-10.8046 0.1547001,-2.1463 0.2795001,-4.3178 0.8267001,-6.408 0.5199,-0.1304 1.0247,-0.3569 1.5596,-0.3913 0.057,0 -0.2173,2.2467 -0.2865,2.3683 -0.2836,1.7748 -0.5681,3.5496 -0.8104,5.3306 -0.3506,2.7788 -0.4539,5.5746 -0.6773,8.3655 -0.3269,3.8472 -0.8096001,7.6743 -1.6075001,11.4559 -0.7494,3.6478 -1.6651,7.2509 -2.8127,10.7956 -0.7972,2.5081 -1.5113,5.0507 -2.5184,7.4854 -0.6869,1.6775 -1.2996,3.3815 -1.7967,5.1255 0,0 -1.35529998,-0.4517 -1.35529998,-0.4517 z" />
  <g
     transform="translate(-1073.8209,-135.20062)"
     style="font-style:normal;font-weight:normal;font-size:40px;line-height:125%;font-family:sans-serif;letter-spacing:0px;word-spacing:0px;fill:#4d4d4d;fill-opacity:1;stroke:none;stroke-width:1px;stroke-linecap:butt;stroke-linejoin:miter;stroke-opacity:1"
     id="flowRoot4242-6-5">
    <path
       d="m 1572.9414,393.63953 q -0.6836,-0.60547 -0.7226,-1.5039 -0.039,-0.89844 0.6054,-1.5625 l 4.8828,-5.29297 q 0.6446,-0.72266 1.5821,-0.72266 0.1953,0 0.3906,0.0586 0.2148,0.0391 0.4101,0.11719 0.6446,0.27344 1.0157,0.83985 0.3906,0.54687 0.3906,1.23046 l -0.3516,20.52735 1.6407,0 q 0.9179,0 1.5429,0.64453 0.6446,0.625 0.6446,1.54297 0,0.91797 -0.6446,1.5625 -0.625,0.64453 -1.5429,0.64453 l -8.2422,0 q -0.918,0 -1.5625,-0.64453 -0.6446,-0.64453 -0.6446,-1.5625 0,-0.91797 0.6446,-1.54297 0.6445,-0.64453 1.5625,-0.64453 l 2.2265,0 0.2539,-14.84375 -1.0156,1.03515 q -0.6055,0.72266 -1.582,0.72266 -0.8789,0 -1.4844,-0.60547 z"
       style="font-style:normal;font-variant:normal;font-weight:bold;font-stretch:normal;font-family:'Comic Neue';-inkscape-font-specification:'Comic Neue Bold';fill:#4d4d4d"
       id="path4052" />
    <path
       d="m 1603.3906,409.5575 0,-23.28125 q 0,-0.91797 0.625,-1.52344 0.625,-0.625 1.5039,-0.625 0.8789,0 1.4844,0.625 0.625,0.60547 0.625,1.52344 l 0,8.04688 q 0.2344,-0.27344 0.4688,-0.50782 0.2539,-0.2539 0.4882,-0.48828 2.4024,-2.32422 4.8829,-2.32422 0.4882,0 1.0546,0.11719 0.586,0.11719 1.1914,0.46875 0.6055,0.33203 1.1524,0.9375 0.5664,0.60547 0.9961,1.5625 1.289,2.63672 1.4062,7.71484 0.039,0.83985 0.039,2.16797 0,1.3086 0,2.5586 0,1.42578 -0.039,2.98828 0,0.8789 -0.6054,1.5039 -0.586,0.625 -1.4649,0.625 -0.8789,0 -1.4844,-0.625 -0.6054,-0.625 -0.6054,-1.5039 0.039,-1.44531 0.039,-2.79297 0,-1.15234 0,-2.48047 0,-1.32812 -0.039,-2.36328 -0.039,-1.79688 -0.2149,-3.02734 -0.1757,-1.25 -0.4297,-2.03125 -0.2343,-0.78125 -0.4882,-1.13282 -0.2539,-0.37109 -0.5078,-0.37109 -1.5235,0 -3.3204,2.12891 -0.8398,0.95703 -1.3867,1.875 -0.5273,0.91796 -0.6836,1.25 -0.4492,0.91796 -0.4492,2.7539 l 0,6.23047 q 0,0.91797 -0.625,1.54297 -0.6055,0.625 -1.4844,0.625 -0.8789,0 -1.5039,-0.60547 -0.625,-0.625 -0.625,-1.5625 z"
       style="font-style:normal;font-variant:normal;font-weight:bold;font-stretch:normal;font-family:'Comic Neue';-inkscape-font-specification:'Comic Neue Bold';fill:#4d4d4d"
       id="path4054" />
    <path
       d="m 1623.3711,401.56922 q 0.1172,-1.95313 0.8789,-3.73047 0.7617,-1.79687 2.0898,-3.18359 1.3282,-1.44532 2.9297,-2.20703 1.6211,-0.76172 3.3594,-0.76172 1.5234,0 2.9102,0.5664 1.4062,0.54688 2.5195,1.67969 1.5234,1.48438 2.2461,3.53516 0.5859,1.64062 0.5859,3.47656 0,0.44922 -0.039,0.89844 -0.1563,1.99218 -0.918,3.78906 -0.7617,1.77734 -2.0313,3.16406 -1.3281,1.44531 -2.9492,2.20703 -1.6211,0.76172 -3.3789,0.76172 -1.5234,0 -2.9297,-0.5664 -1.3867,-0.58594 -2.5,-1.71875 -1.4843,-1.44532 -2.207,-3.4961 -0.5859,-1.67969 -0.5859,-3.57422 0,-0.41015 0.02,-0.83984 z m 4.2578,0.27344 q -0.019,0.23437 0,0.46875 0,1.21093 0.332,2.30468 0.4102,1.28907 1.211,2.10938 0.9961,1.03516 2.4023,1.03516 0.8399,0 1.6992,-0.42969 0.8594,-0.44922 1.5821,-1.32813 0.7617,-0.8789 1.1914,-2.03125 0.4492,-1.17187 0.5273,-2.40234 0.02,-0.19531 0.02,-0.39063 -0.02,-1.17187 -0.4102,-2.30468 -0.4688,-1.32813 -1.3281,-2.22657 -1.0742,-0.99609 -2.4024,-0.99609 -1.7578,0 -3.1445,1.75781 -0.7227,0.87891 -1.1719,2.05078 -0.4297,1.15235 -0.5078,2.38282 z"
       style="font-style:normal;font-variant:normal;font-weight:bold;font-stretch:normal;font-family:'Comic Neue';-inkscape-font-specification:'Comic Neue Bold';fill:#4d4d4d"
       id="path4056" />
    <path
       d="m 1645.5391,400.43641 0,-0.0781 q 0,-0.83984 0.078,-1.99219 0.078,-1.15234 0.1758,-2.22656 0.1172,-1.09375 0.1953,-1.85547 0.078,-0.76172 0.078,-0.80078 0.078,-0.76172 0.6445,-1.26953 0.586,-0.52734 1.3868,-0.52734 0.8789,0 1.4843,0.60547 0.6055,0.58593 0.6055,1.42578 l -0.078,0.60547 q -0.078,0.52734 -0.1563,1.25 -0.059,0.70312 -0.1172,1.5039 -0.059,0.80078 -0.098,1.64063 -0.039,0.83984 -0.039,1.60156 l 0,0.0391 0,0.0781 q 0,1.11328 0.039,2.28515 0.039,1.17188 0.1562,2.16797 0.1953,1.23047 0.4297,1.83594 0.2539,0.60547 0.5078,0.80078 0.078,0.0781 0.3711,0.19531 0.293,0.11719 0.8203,0.11719 0.7618,0 1.543,-0.23437 0.7813,-0.23438 1.4258,-0.58594 0.6641,-0.3711 1.1719,-0.72266 0.5078,-0.37109 0.7031,-0.60547 0.078,-0.0781 0.1172,-0.3125 0.039,-0.2539 0.039,-0.44922 l 0.1954,-11.21093 q 0,-0.80078 0.6054,-1.38672 0.6055,-0.60547 1.4453,-0.60547 0.8789,0 1.4649,0.60547 0.6054,0.58594 0.6054,1.38672 l 0,15.83984 q 0,0.91797 -0.6445,1.54297 -0.625,0.625 -1.5625,0.625 -0.7617,0 -1.3281,-0.39063 -0.5469,-0.41015 -0.7813,-1.05468 l -0.1171,0.0781 q -0.9961,0.60547 -2.2657,1.01563 -1.25,0.39062 -2.6562,0.39062 -1.0742,0 -2.168,-0.3125 -1.1523,-0.3125 -1.9531,-1.01562 -0.8399,-0.83985 -1.3086,-1.95313 -0.4492,-1.11328 -0.6836,-2.42187 -0.2148,-1.32813 -0.2734,-2.75391 -0.059,-1.42578 -0.059,-2.87109 z"
       style="font-style:normal;font-variant:normal;font-weight:bold;font-stretch:normal;font-family:'Comic Neue';-inkscape-font-specification:'Comic Neue Bold';fill:#4d4d4d"
       id="path4058" />
    <path
       d="m 1666.5156,409.65516 0,-16.13282 q 0,-0.91796 0.625,-1.5039 0.625,-0.60547 1.5039,-0.60547 0.918,0 1.5039,0.60547 0.6055,0.58594 0.6055,1.5039 l 0,0.33204 q 0.5664,-0.60547 1.2695,-1.09375 0.7032,-0.50782 1.5039,-0.76172 1.0743,-0.39063 2.1094,-0.39063 1.5625,0 2.6367,0.83985 1.4063,1.07421 1.4063,2.79296 l 0,1.17188 q 0,0.83984 -0.6055,1.46484 -0.6054,0.60547 -1.4844,0.60547 -0.8789,0 -1.4843,-0.60547 -0.586,-0.625 -0.586,-1.46484 l 0,-0.60547 -0.078,0 q -0.078,0 -0.2734,0.0195 -0.1758,0.0195 -0.4492,0.0977 -0.6836,0.19531 -1.4844,0.89844 -0.8008,0.70312 -1.4453,1.66015 -0.6446,0.95703 -0.8203,1.6211 -0.1758,0.66406 -0.2149,0.82031 l 0,8.73047 q 0,0.8789 -0.6055,1.5039 -0.5859,0.60547 -1.5039,0.60547 -0.8789,0 -1.5039,-0.60547 -0.625,-0.625 -0.625,-1.5039 z"
       style="font-style:normal;font-variant:normal;font-weight:bold;font-stretch:normal;font-family:'Comic Neue';-inkscape-font-specification:'Comic Neue Bold';fill:#4d4d4d"
       id="path4060" />
  </g>
</svg>
