<?xml version="1.0" encoding="UTF-8" standalone="no"?>
<svg
   xmlns:dc="http://purl.org/dc/elements/1.1/"
   xmlns:cc="http://creativecommons.org/ns#"
   xmlns:rdf="http://www.w3.org/1999/02/22-rdf-syntax-ns#"
   xmlns:svg="http://www.w3.org/2000/svg"
   xmlns="http://www.w3.org/2000/svg"
   width="309.06274mm"
   height="63.601337mm"
   viewBox="0 0 1095.1042 225.35907"
   id="svg2"
   version="1.1">
  <defs
     id="defs4">
    <marker
       orient="auto"
       refY="0"
       refX="0"
       id="Arrow1Lend"
       style="overflow:visible">
      <path
         id="path5845"
         d="M 0,0 5,-5 -12.5,0 5,5 0,0 Z"
         style="fill:#000000;fill-opacity:1;fill-rule:evenodd;stroke:#000000;stroke-width:1pt;stroke-opacity:1"
         transform="matrix(-0.8,0,0,-0.8,-10,0)" />
    </marker>
    <marker
       orient="auto"
       refY="0"
       refX="0"
       id="TriangleOutM"
       style="overflow:visible">
      <path
         id="path5987"
         d="m 5.77,0 -8.65,5 0,-10 8.65,5 z"
         style="fill:#000000;fill-opacity:1;fill-rule:evenodd;stroke:#000000;stroke-width:1pt;stroke-opacity:1"
         transform="scale(0.4,0.4)" />
    </marker>
    <marker
       orient="auto"
       refY="0"
       refX="0"
       id="TriangleInM"
       style="overflow:visible">
      <path
         id="path5978"
         d="m 5.77,0 -8.65,5 0,-10 8.65,5 z"
         style="fill:#000000;fill-opacity:1;fill-rule:evenodd;stroke:#000000;stroke-width:1pt;stroke-opacity:1"
         transform="scale(-0.4,-0.4)" />
    </marker>
    <marker
       orient="auto"
       refY="0"
       refX="0"
       id="Arrow2Mstart"
       style="overflow:visible">
      <path
         id="path5866"
         style="fill:#000000;fill-opacity:1;fill-rule:evenodd;stroke:#000000;stroke-width:0.625;stroke-linejoin:round;stroke-opacity:1"
         d="M 8.7185878,4.0337352 -2.2072895,0.01601326 8.7185884,-4.0017078 c -1.7454984,2.3720609 -1.7354408,5.6174519 -6e-7,8.035443 z"
         transform="scale(0.6,0.6)" />
    </marker>
    <marker
       orient="auto"
       refY="0"
       refX="0"
       id="Arrow1Lstart"
       style="overflow:visible">
      <path
         id="path5842"
         d="M 0,0 5,-5 -12.5,0 5,5 0,0 Z"
         style="fill:#000000;fill-opacity:1;fill-rule:evenodd;stroke:#000000;stroke-width:1pt;stroke-opacity:1"
         transform="matrix(0.8,0,0,0.8,10,0)" />
    </marker>
    <marker
       orient="auto"
       refY="0"
       refX="0"
       id="TriangleInM-6"
       style="overflow:visible">
      <path
         id="path5978-6"
         d="m 5.77,0 -8.65,5 0,-10 8.65,5 z"
         style="fill:#000000;fill-opacity:1;fill-rule:evenodd;stroke:#000000;stroke-width:1pt;stroke-opacity:1"
         transform="scale(-0.4,-0.4)" />
    </marker>
    <marker
       orient="auto"
       refY="0"
       refX="0"
       id="TriangleOutM-4"
       style="overflow:visible">
      <path
         id="path5987-0"
         d="m 5.77,0 -8.65,5 0,-10 8.65,5 z"
         style="fill:#000000;fill-opacity:1;fill-rule:evenodd;stroke:#000000;stroke-width:1pt;stroke-opacity:1"
         transform="scale(0.4,0.4)" />
    </marker>
    <marker
       orient="auto"
       refY="0"
       refX="0"
       id="TriangleInM-6-4"
       style="overflow:visible">
      <path
         id="path5978-6-6"
         d="m 5.77,0 -8.65,5 0,-10 8.65,5 z"
         style="fill:#000000;fill-opacity:1;fill-rule:evenodd;stroke:#000000;stroke-width:1pt;stroke-opacity:1"
         transform="scale(-0.4,-0.4)" />
    </marker>
    <marker
       orient="auto"
       refY="0"
       refX="0"
       id="TriangleOutM-4-2"
       style="overflow:visible">
      <path
         id="path5987-0-6"
         d="m 5.77,0 -8.65,5 0,-10 8.65,5 z"
         style="fill:#000000;fill-opacity:1;fill-rule:evenodd;stroke:#000000;stroke-width:1pt;stroke-opacity:1"
         transform="scale(0.4,0.4)" />
    </marker>
    <marker
       orient="auto"
       refY="0"
       refX="0"
       id="TriangleInM-6-4-5"
       style="overflow:visible">
      <path
         id="path5978-6-6-6"
         d="m 5.77,0 -8.65,5 0,-10 8.65,5 z"
         style="fill:#000000;fill-opacity:1;fill-rule:evenodd;stroke:#000000;stroke-width:1pt;stroke-opacity:1"
         transform="scale(-0.4,-0.4)" />
    </marker>
    <marker
       orient="auto"
       refY="0"
       refX="0"
       id="TriangleOutM-4-2-9"
       style="overflow:visible">
      <path
         id="path5987-0-6-8"
         d="m 5.77,0 -8.65,5 0,-10 8.65,5 z"
         style="fill:#000000;fill-opacity:1;fill-rule:evenodd;stroke:#000000;stroke-width:1pt;stroke-opacity:1"
         transform="scale(0.4,0.4)" />
    </marker>
  </defs>
  <metadata
     id="metadata7">
    <rdf:RDF>
      <cc:Work
         rdf:about="">
        <dc:format>image/svg+xml</dc:format>
        <dc:type
           rdf:resource="http://purl.org/dc/dcmitype/StillImage" />
        <dc:title></dc:title>
      </cc:Work>
    </rdf:RDF>
  </metadata>
  <g
     transform="translate(-386.47461,-9349.8936)"
     id="g4166">
    <g
       id="g4186">
      <path
         id="path4115"
         style="font-style:normal;font-variant:normal;font-weight:bold;font-stretch:normal;font-size:68.89295197px;line-height:125%;font-family:'Comic Neue';-inkscape-font-specification:'Comic Neue Bold';letter-spacing:0px;word-spacing:0px;opacity:0.77999998;fill:#000000;fill-opacity:1;stroke:none;stroke-width:1px;stroke-linecap:butt;stroke-linejoin:miter;stroke-opacity:1"
         d="m 637.41174,9437.5623 q 0,-1.5137 1.00918,-2.5902 1.04281,-1.0764 2.48929,-1.0764 l 28.25688,0 q 1.44648,0 2.48929,1.0764 1.04282,1.0765 1.04282,2.5902 0,1.5811 -1.04282,2.6575 -1.04281,1.0428 -2.48929,1.0428 l -11.03364,0 0,35.893 q 0,1.5138 -1.04281,2.5902 -1.00918,1.0765 -2.45566,1.0765 -1.44648,0 -2.48929,-1.0428 -1.00918,-1.0765 -1.00918,-2.6239 l 0,-35.893 -10.2263,0 q -1.44648,0 -2.48929,-1.0428 -1.00918,-1.0764 -1.00918,-2.6575 z" />
      <path
         id="path4117"
         style="font-style:normal;font-variant:normal;font-weight:bold;font-stretch:normal;font-size:68.89295197px;line-height:125%;font-family:'Comic Neue';-inkscape-font-specification:'Comic Neue Bold';letter-spacing:0px;word-spacing:0px;opacity:0.77999998;fill:#000000;fill-opacity:1;stroke:none;stroke-width:1px;stroke-linecap:butt;stroke-linejoin:miter;stroke-opacity:1"
         d="m 677.13956,9477.0883 0,-40.0978 q 0,-1.5811 1.07646,-2.6239 1.07645,-1.0764 2.59021,-1.0764 1.51376,0 2.55657,1.0764 1.07646,1.0428 1.07646,2.6239 l 0,13.8593 q 0.40367,-0.471 0.80733,-0.8746 0.43731,-0.4373 0.84098,-0.841 4.13762,-4.0031 8.40979,-4.0031 0.84098,0 1.81651,0.2019 1.00918,0.2018 2.05199,0.8073 1.04281,0.5719 1.98471,1.6147 0.97553,1.0428 1.71559,2.6911 2.22019,4.5413 2.42202,13.2875 0.0673,1.4465 0.0673,3.7339 0,2.2539 0,4.4068 0,2.4556 -0.0673,5.1467 0,1.5138 -1.04281,2.5903 -1.00918,1.0764 -2.52294,1.0764 -1.51376,0 -2.55657,-1.0764 -1.04281,-1.0765 -1.04281,-2.5903 0.0673,-2.4893 0.0673,-4.8104 0,-1.9847 0,-4.2721 0,-2.2875 -0.0673,-4.0704 -0.0673,-3.0948 -0.37004,-5.214 -0.30275,-2.1529 -0.74006,-3.4985 -0.40367,-1.3456 -0.84097,-1.9511 -0.43731,-0.6391 -0.87462,-0.6391 -2.62386,0 -5.71866,3.6667 -1.44648,1.6483 -2.38837,3.2293 -0.90826,1.5811 -1.17737,2.1529 -0.7737,1.5811 -0.7737,4.7431 l 0,10.7309 q 0,1.5811 -1.07646,2.6575 -1.04281,1.0765 -2.55657,1.0765 -1.51376,0 -2.59021,-1.0428 -1.07646,-1.0765 -1.07646,-2.6912 z" />
      <path
         id="path4119"
         style="font-style:normal;font-variant:normal;font-weight:bold;font-stretch:normal;font-size:68.89295197px;line-height:125%;font-family:'Comic Neue';-inkscape-font-specification:'Comic Neue Bold';letter-spacing:0px;word-spacing:0px;opacity:0.77999998;fill:#000000;fill-opacity:1;stroke:none;stroke-width:1px;stroke-linecap:butt;stroke-linejoin:miter;stroke-opacity:1"
         d="m 711.61967,9467.8712 q -0.13455,-1.0092 -0.13455,-2.0856 0,-1.2447 0.20183,-2.5902 0.33639,-2.4893 1.04281,-4.8441 0.97554,-2.9602 2.69114,-5.315 1.71559,-2.3883 3.93577,-4.0367 3.56575,-2.7584 8.54435,-2.7584 1.85015,0 3.46483,0.3364 1.61467,0.3364 2.85932,0.7737 1.24465,0.4037 2.05199,0.841 0.84098,0.4037 1.04281,0.471 0.40367,0.2691 1.00918,0.9082 0.6055,0.6055 0.6055,1.8502 l 0,13.6238 q 0,5.5168 0.0673,12.2783 l 0,0.7401 q 0,1.5137 -1.07645,2.5902 -1.07645,1.0764 -2.59022,1.0764 -1.24464,0 -2.18654,-0.74 -0.90826,-0.7065 -1.24465,-1.8838 l -0.13455,0.067 q -1.44649,0.6056 -3.29664,1.1101 -1.81651,0.471 -3.59939,0.471 l -0.26911,0 q -5.31498,-0.1346 -8.84709,-3.6667 -3.49847,-3.5657 -4.13762,-9.2171 z m 7.33333,-0.841 q 0.0673,0.5382 0.30276,1.6147 0.23547,1.0765 0.84098,2.1865 0.63914,1.1101 1.71559,1.9175 1.11009,0.7737 2.92661,0.841 l 0.13455,0 q 1.91743,0 4.33945,-1.2447 0.7737,-0.3364 1.34557,-0.6728 0.57186,-0.37 1.04281,-0.7064 0,-0.841 0,-2.3211 0,-1.4801 0.0336,-3.3303 0.0336,-1.8501 0.0673,-4.003 0.0673,-2.1866 0.13455,-4.4068 l 0,-2.7584 q -0.40367,-0.1345 -0.87461,-0.2354 -0.43731,-0.101 -0.9419,-0.2355 -1.04281,-0.2019 -1.98471,-0.2019 l -0.13455,0 q -2.42202,0 -4.13762,1.2447 -1.71559,1.3119 -2.69113,2.9602 -0.97553,1.6484 -1.3792,3.0276 -0.53823,1.581 -0.74007,3.263 -0.10091,0.8746 -0.10091,1.6819 0.0336,0.7064 0.10091,1.3792 z" />
      <path
         id="path4121"
         style="font-style:normal;font-variant:normal;font-weight:bold;font-stretch:normal;font-size:68.89295197px;line-height:125%;font-family:'Comic Neue';-inkscape-font-specification:'Comic Neue Bold';letter-spacing:0px;word-spacing:0px;opacity:0.77999998;fill:#000000;fill-opacity:1;stroke:none;stroke-width:1px;stroke-linecap:butt;stroke-linejoin:miter;stroke-opacity:1"
         d="m 747.9163,9477.1556 0,-25.8349 0,-2.0519 q 0,-1.5138 1.07646,-2.5903 1.07645,-1.0764 2.59021,-1.0764 1.51376,0 2.55657,1.0764 1.07646,1.0765 1.07646,2.5903 l 0,2.1529 q 0.26911,-0.3364 0.50458,-0.6055 0.26912,-0.3028 0.60551,-0.6392 1.91743,-1.9174 4.27217,-2.9602 2.35474,-1.0428 5.11315,-1.0428 3.80122,0 6.25688,2.0519 2.35474,1.9175 3.36391,5.9205 0.7737,2.893 0.90826,6.997 0.13455,4.1039 0.13455,10.2935 l 0,3.8013 q 0,0.9755 0.0673,1.9174 0,1.5138 -1.07645,2.5902 -1.04281,1.0765 -2.52294,1.0765 -1.51376,0 -2.59021,-1.0428 -1.04281,-1.0765 -1.04281,-2.6239 -0.0673,-1.0428 -0.0673,-2.052 l 0,-3.5657 q 0,-5.0459 -0.10092,-9.1499 -0.10092,-4.104 -0.67278,-6.4923 -0.47095,-1.7829 -1.04281,-2.1529 -0.53823,-0.4037 -1.61468,-0.4037 -0.67279,0 -1.51376,0.1682 -0.84098,0.1682 -1.78288,0.841 -0.90825,0.6391 -1.98471,1.8838 -1.07645,1.2446 -2.18654,3.2966 -1.37921,2.6238 -2.22018,5.8868 -0.80734,3.2294 -0.80734,6.2569 l -0.0673,5.4832 q 0,1.5138 -1.07645,2.5902 -1.04282,1.0765 -2.55658,1.0765 -1.51376,0 -2.55657,-1.0428 -1.04282,-1.0765 -1.04282,-2.6239 z" />
      <path
         id="path4123"
         style="font-style:normal;font-variant:normal;font-weight:bold;font-stretch:normal;font-size:68.89295197px;line-height:125%;font-family:'Comic Neue';-inkscape-font-specification:'Comic Neue Bold';letter-spacing:0px;word-spacing:0px;opacity:0.77999998;fill:#000000;fill-opacity:1;stroke:none;stroke-width:1px;stroke-linecap:butt;stroke-linejoin:miter;stroke-opacity:1"
         d="m 785.45759,9436.9905 q 0,-1.5811 1.04281,-2.6239 1.04281,-1.0764 2.62385,-1.0764 1.51376,0 2.55658,1.0764 1.07645,1.0428 1.07645,2.6239 l 0.0673,21.6636 q 1.04281,-0.9756 2.25382,-2.0857 1.21101,-1.11 2.52294,-2.422 1.04281,-1.0428 2.38837,-2.4893 1.37921,-1.4801 2.62386,-2.8593 1.44648,-1.581 2.89296,-3.3303 0.97554,-1.1773 2.42202,-1.3792 0.23547,-0.034 0.50459,-0.034 1.14373,0 2.11926,0.8073 1.17737,0.9756 1.34557,2.4557 0.0336,0.2018 0.0336,0.4373 0,1.211 -0.84098,2.1865 -1.91743,2.2202 -3.73395,4.2049 -1.51376,1.7156 -3.06116,3.4312 -1.5474,1.682 -2.52293,2.6575 0.47095,0.5382 1.07645,1.3456 0.6055,0.7737 1.27829,1.6819 1.11009,1.3792 2.62385,3.2967 1.51376,1.9174 2.89297,3.7339 1.64831,2.052 3.36391,4.2049 0.84098,1.1101 0.84098,2.422 0,0.2355 -0.0336,0.4373 -0.1682,1.5474 -1.41284,2.5566 -1.00918,0.841 -2.28747,0.841 -0.23547,0 -0.4373,-0.034 -1.54741,-0.1681 -2.52294,-1.4801 -1.91743,-2.6911 -3.70031,-5.1131 -1.51376,-2.052 -3.12843,-4.1713 -1.58104,-2.1529 -2.59022,-3.3975 -0.40367,-0.471 -0.80734,-0.9419 -0.37003,-0.5046 -0.70642,-0.841 -0.97553,0.6728 -1.81651,1.3119 -0.80734,0.6055 -1.58104,1.0092 l 0.0673,9.9908 q 0,1.5811 -1.07646,2.6575 -1.04281,1.0765 -2.55657,1.0765 -1.58104,0 -2.62385,-1.0428 -1.04282,-1.0765 -1.04282,-2.6912 l -0.13455,-40.0978 z" />
      <path
         id="path4125"
         style="font-style:normal;font-variant:normal;font-weight:bold;font-stretch:normal;font-size:68.89295197px;line-height:125%;font-family:'Comic Neue';-inkscape-font-specification:'Comic Neue Bold';letter-spacing:0px;word-spacing:0px;opacity:0.77999998;fill:#000000;fill-opacity:1;stroke:none;stroke-width:1px;stroke-linecap:butt;stroke-linejoin:miter;stroke-opacity:1"
         d="m 820.74503,9470.966 q 0,-1.1774 0.67279,-2.052 0.70642,-0.9082 1.88379,-1.2446 0.53823,-0.1346 0.97553,-0.1346 1.04282,0 1.81652,0.7064 0.80734,0.6728 1.27828,1.682 0.7737,1.9174 2.32111,3.1621 1.5474,1.2446 3.80122,1.2446 0.67278,0 1.61468,-0.2355 0.94189,-0.2354 1.74923,-0.74 0.84098,-0.5382 1.37921,-1.2783 0.57186,-0.7737 0.57186,-1.7829 0,-1.0428 -0.63914,-1.7492 -0.60551,-0.7401 -1.5474,-1.2447 -0.90826,-0.5382 -1.91743,-0.8409 -1.00918,-0.3028 -1.68196,-0.5046 -5.31498,-1.5138 -7.70336,-3.8685 -2.75841,-2.5566 -2.75841,-6.6269 0,-4.945 4.40673,-7.5016 2.05198,-1.1773 4.20489,-1.4465 2.18654,-0.2691 3.36391,-0.2691 6.62691,0 9.4526,3.7003 1.71559,2.2875 1.71559,5.1132 0,1.3119 -0.84097,2.2538 -0.80734,0.9083 -2.05199,1.1101 -0.26911,0.034 -0.53823,0.034 -0.87462,0 -1.78287,-0.4709 -1.21101,-0.6392 -1.61468,-2.5902 -0.33639,-1.6483 -1.64832,-2.2875 -1.31192,-0.6728 -3.02752,-0.6728 -0.60551,0 -1.48012,0.1682 -0.87462,0.1682 -1.68196,0.5383 -0.7737,0.3363 -1.31193,1.0091 -0.50458,0.6392 -0.50458,1.5138 0,0.9755 0.63914,1.6483 0.67278,0.6392 1.51376,1.1101 0.87462,0.4373 1.78288,0.6728 0.90825,0.2355 1.44648,0.37 5.85321,1.5811 8.44342,4.104 2.59022,2.5229 2.59022,6.7951 0,4.2049 -3.46484,7.2997 -1.64831,1.581 -3.90214,2.422 -2.22018,0.8073 -4.77675,0.8073 -3.49847,0 -5.81957,-1.2446 -2.28746,-1.2447 -3.59939,-2.4893 -1.51376,-1.3792 -2.42202,-3.0948 -0.90826,-1.7156 -0.90826,-3.0948 z" />
      <path
         id="path4127"
         style="font-style:normal;font-variant:normal;font-weight:bold;font-stretch:normal;font-size:68.89295197px;line-height:125%;font-family:'Comic Neue';-inkscape-font-specification:'Comic Neue Bold';letter-spacing:0px;word-spacing:0px;opacity:0.77999998;fill:#000000;fill-opacity:1;stroke:none;stroke-width:1px;stroke-linecap:butt;stroke-linejoin:miter;stroke-opacity:1"
         d="m 873.59213,9449.6724 q 0,-1.4465 1.00917,-2.4556 1.04281,-1.0428 2.4893,-1.0428 l 1.88379,0 q 0.26911,-4.8104 2.62385,-7.6361 3.29664,-3.9358 10.46177,-3.9358 l 0.80734,0 0.43731,0 q 1.44648,0 2.45566,1.0428 1.04281,1.0092 1.04281,2.4557 0,1.4464 -1.04281,2.4893 -1.00918,1.0428 -2.45566,1.0428 l -0.30275,0 q -0.60551,0 -1.44649,0.034 -0.80733,0.034 -1.58103,0.2018 -0.74007,0.1682 -1.41285,0.4374 -0.63914,0.2691 -1.04281,0.7064 -0.7737,0.9755 -0.97554,3.1621 l 4.94496,0 q 1.44648,0 2.48929,1.0428 1.04282,1.0091 1.04282,2.4556 0,1.4465 -1.04282,2.4893 -1.04281,1.0428 -2.48929,1.0428 l -5.28135,0 0,23.9511 q 0,1.5138 -1.07645,2.5902 -1.07645,1.0765 -2.59021,1.0765 -1.51377,0 -2.59022,-1.0428 -1.04281,-1.0765 -1.04281,-2.6239 l 0,-23.9511 -1.81651,0 q -1.44649,0 -2.4893,-1.0428 -1.00917,-1.0428 -1.00917,-2.4893 z" />
      <path
         id="path4129"
         style="font-style:normal;font-variant:normal;font-weight:bold;font-stretch:normal;font-size:68.89295197px;line-height:125%;font-family:'Comic Neue';-inkscape-font-specification:'Comic Neue Bold';letter-spacing:0px;word-spacing:0px;opacity:0.77999998;fill:#000000;fill-opacity:1;stroke:none;stroke-width:1px;stroke-linecap:butt;stroke-linejoin:miter;stroke-opacity:1"
         d="m 901.00802,9463.3299 q 0.20184,-3.3639 1.51376,-6.4251 1.31193,-3.0948 3.59939,-5.4831 2.28746,-2.4893 5.04587,-3.8013 2.79205,-1.3119 5.78593,-1.3119 2.62386,0 5.01223,0.9755 2.42202,0.9419 4.33945,2.893 2.62386,2.5566 3.8685,6.0887 1.00918,2.8257 1.00918,5.9878 0,0.7737 -0.0673,1.5474 -0.26911,3.4312 -1.58104,6.526 -1.31193,3.0611 -3.49847,5.4495 -2.28746,2.4893 -5.07951,3.8012 -2.79205,1.3119 -5.81957,1.3119 -2.62385,0 -5.04587,-0.9755 -2.38838,-1.0092 -4.30581,-2.9602 -2.55657,-2.4893 -3.80122,-6.0214 -1.00918,-2.893 -1.00918,-6.156 0,-0.7064 0.0336,-1.4465 z m 7.33333,0.471 q -0.0336,0.4036 0,0.8073 0,2.0856 0.57187,3.9694 0.70642,2.2202 2.08563,3.633 1.71559,1.7829 4.13761,1.7829 1.44648,0 2.9266,-0.74 1.48013,-0.7737 2.72477,-2.2875 1.31193,-1.5138 2.05199,-3.4985 0.7737,-2.0183 0.90826,-4.1376 0.0336,-0.3364 0.0336,-0.6728 -0.0336,-2.0183 -0.70642,-3.9694 -0.80734,-2.2874 -2.28747,-3.8348 -1.85015,-1.7156 -4.13761,-1.7156 -3.02752,0 -5.4159,3.0275 -1.24465,1.5137 -2.01835,3.5321 -0.74006,1.9847 -0.87462,4.104 z" />
      <path
         id="path4131"
         style="font-style:normal;font-variant:normal;font-weight:bold;font-stretch:normal;font-size:68.89295197px;line-height:125%;font-family:'Comic Neue';-inkscape-font-specification:'Comic Neue Bold';letter-spacing:0px;word-spacing:0px;opacity:0.77999998;fill:#000000;fill-opacity:1;stroke:none;stroke-width:1px;stroke-linecap:butt;stroke-linejoin:miter;stroke-opacity:1"
         d="m 939.12116,9477.2565 0,-27.7859 q 0,-1.581 1.07645,-2.5902 1.07646,-1.0428 2.59022,-1.0428 1.58104,0 2.59021,1.0428 1.04281,1.0092 1.04281,2.5902 l 0,0.5719 q 0.97554,-1.0429 2.18655,-1.8838 1.21101,-0.8747 2.59021,-1.312 1.85015,-0.6727 3.63303,-0.6727 2.69113,0 4.54128,1.4464 2.42202,1.8502 2.42202,4.8104 l 0,2.0184 q 0,1.4465 -1.04281,2.5229 -1.04282,1.0428 -2.55658,1.0428 -1.51376,0 -2.55657,-1.0428 -1.00918,-1.0764 -1.00918,-2.5229 l 0,-1.0428 -0.13455,0 q -0.13456,0 -0.47095,0.034 -0.30275,0.034 -0.7737,0.1682 -1.17737,0.3364 -2.55658,1.5474 -1.3792,1.211 -2.48929,2.8593 -1.11009,1.6483 -1.41285,2.7921 -0.30275,1.1437 -0.37003,1.4128 l 0,15.0367 q 0,1.5138 -1.04281,2.5902 -1.00917,1.0428 -2.59021,1.0428 -1.51376,0 -2.59022,-1.0428 -1.07645,-1.0764 -1.07645,-2.5902 z" />
      <path
         id="path4133"
         style="font-style:normal;font-variant:normal;font-weight:bold;font-stretch:normal;font-size:68.89295197px;line-height:125%;font-family:'Comic Neue';-inkscape-font-specification:'Comic Neue Bold';letter-spacing:0px;word-spacing:0px;opacity:0.77999998;fill:#000000;fill-opacity:1;stroke:none;stroke-width:1px;stroke-linecap:butt;stroke-linejoin:miter;stroke-opacity:1"
         d="m 991.73276,9477.2565 0,-27.7859 q 0,-1.581 1.07646,-2.5902 1.07645,-1.0428 2.59021,-1.0428 1.58104,0 2.59021,1.0428 1.04282,1.0092 1.04282,2.5902 l 0,0.5719 q 0.97554,-1.0429 2.18654,-1.8838 1.211,-0.8747 2.5902,-1.312 1.8502,-0.6727 3.633,-0.6727 2.6912,0 4.5413,1.4464 2.422,1.8502 2.422,4.8104 l 0,2.0184 q 0,1.4465 -1.0428,2.5229 -1.0428,1.0428 -2.5565,1.0428 -1.5138,0 -2.5566,-1.0428 -1.0092,-1.0764 -1.0092,-2.5229 l 0,-1.0428 -0.1346,0 q -0.1345,0 -0.4709,0.034 -0.3028,0.034 -0.7737,0.1682 -1.1774,0.3364 -2.5566,1.5474 -1.3792,1.211 -2.4893,2.8593 -1.11006,1.6483 -1.41281,2.7921 -0.30276,1.1437 -0.37003,1.4128 l 0,15.0367 q 0,1.5138 -1.04282,2.5902 -1.00917,1.0428 -2.59021,1.0428 -1.51376,0 -2.59021,-1.0428 -1.07646,-1.0764 -1.07646,-2.5902 z" />
      <path
         id="path4135"
         style="font-style:normal;font-variant:normal;font-weight:bold;font-stretch:normal;font-size:68.89295197px;line-height:125%;font-family:'Comic Neue';-inkscape-font-specification:'Comic Neue Bold';letter-spacing:0px;word-spacing:0px;opacity:0.77999998;fill:#000000;fill-opacity:1;stroke:none;stroke-width:1px;stroke-linecap:butt;stroke-linejoin:miter;stroke-opacity:1"
         d="m 1020.5615,9463.6663 q 0,-3.3639 1.211,-6.3914 1.211,-3.0612 3.2966,-5.3487 2.1193,-2.3211 4.945,-3.7339 2.8257,-1.4128 6.055,-1.6147 0.6055,-0.067 1.2111,-0.067 3.2966,0 6.0214,1.5811 3.2293,1.8501 5.1804,4.9786 0.3364,0.5382 0.5719,1.1101 0.2354,0.5382 0.5382,1.0091 0.3364,0.6392 0.3364,1.4129 0,0.4373 -0.1009,0.9755 -0.3028,1.4129 -1.7493,2.1529 -1.2446,0.6728 -3.4985,1.9511 -2.2201,1.2446 -4.844,2.6911 -2.6238,1.4465 -5.315,2.9603 -2.6911,1.5137 -4.8104,2.6575 1.1101,1.3792 2.523,2.3547 2.2201,1.5138 5.0458,1.5138 3.9358,0 6.8288,-3.0276 l 1.3792,-1.4464 q 0.9755,-0.9756 2.3884,-0.9756 1.4464,0 2.4893,1.0428 1.0428,1.0429 1.0428,2.4221 0,1.2446 -0.841,2.2538 l -1.3792,1.4465 q -2.3547,2.5565 -5.4496,3.9357 -3.0275,1.312 -6.4587,1.312 -3.4312,0 -6.4923,-1.3456 -3.0275,-1.3456 -5.2814,-3.633 -2.2201,-2.3211 -3.5321,-5.4496 -1.3119,-3.1284 -1.3119,-6.7278 z m 6.9633,-0.4709 q 1.4465,-0.841 3.3639,-1.8838 1.9511,-1.0765 3.8685,-2.1529 1.9511,-1.0765 3.7003,-2.052 1.7493,-1.0092 2.9939,-1.7156 -1.7829,-1.7829 -4.1376,-1.9175 -2.3547,0.067 -4.104,0.9419 -1.7492,0.841 -2.9939,2.2202 -2.4893,2.8257 -2.6911,6.5597 z" />
      <path
         id="path4137"
         style="font-style:normal;font-variant:normal;font-weight:bold;font-stretch:normal;font-size:68.89295197px;line-height:125%;font-family:'Comic Neue';-inkscape-font-specification:'Comic Neue Bold';letter-spacing:0px;word-spacing:0px;opacity:0.77999998;fill:#000000;fill-opacity:1;stroke:none;stroke-width:1px;stroke-linecap:butt;stroke-linejoin:miter;stroke-opacity:1"
         d="m 1058.3719,9467.8712 q -0.1346,-1.0092 -0.1346,-2.0856 0,-1.2447 0.2019,-2.5902 0.3364,-2.4893 1.0428,-4.8441 0.9755,-2.9602 2.6911,-5.315 1.7156,-2.3883 3.9358,-4.0367 3.5658,-2.7584 8.5443,-2.7584 1.8502,0 3.4649,0.3364 1.6147,0.3364 2.8593,0.7737 1.2446,0.4037 2.052,0.841 0.841,0.4037 1.0428,0.471 0.4037,0.2691 1.0092,0.9082 0.6055,0.6055 0.6055,1.8502 l 0,13.6238 q 0,5.5168 0.067,12.2783 l 0,0.7401 q 0,1.5137 -1.0765,2.5902 -1.0764,1.0764 -2.5902,1.0764 -1.2447,0 -2.1866,-0.74 -0.9082,-0.7065 -1.2446,-1.8838 l -0.1346,0.067 q -1.4464,0.6056 -3.2966,1.1101 -1.8165,0.471 -3.5994,0.471 l -0.2691,0 q -5.315,-0.1346 -8.8471,-3.6667 -3.4985,-3.5657 -4.1376,-9.2171 z m 7.3333,-0.841 q 0.067,0.5382 0.3028,1.6147 0.2355,1.0765 0.841,2.1865 0.6391,1.1101 1.7156,1.9175 1.1101,0.7737 2.9266,0.841 l 0.1345,0 q 1.9175,0 4.3395,-1.2447 0.7737,-0.3364 1.3455,-0.6728 0.5719,-0.37 1.0428,-0.7064 0,-0.841 0,-2.3211 0,-1.4801 0.034,-3.3303 0.034,-1.8501 0.067,-4.003 0.067,-2.1866 0.1345,-4.4068 l 0,-2.7584 q -0.4036,-0.1345 -0.8746,-0.2354 -0.4373,-0.101 -0.9419,-0.2355 -1.0428,-0.2019 -1.9847,-0.2019 l -0.1346,0 q -2.422,0 -4.1376,1.2447 -1.7156,1.3119 -2.6911,2.9602 -0.9755,1.6484 -1.3792,3.0276 -0.5382,1.581 -0.7401,3.263 -0.1009,0.8746 -0.1009,1.6819 0.034,0.7064 0.1009,1.3792 z" />
      <path
         id="path4139"
         style="font-style:normal;font-variant:normal;font-weight:bold;font-stretch:normal;font-size:68.89295197px;line-height:125%;font-family:'Comic Neue';-inkscape-font-specification:'Comic Neue Bold';letter-spacing:0px;word-spacing:0px;opacity:0.77999998;fill:#000000;fill-opacity:1;stroke:none;stroke-width:1px;stroke-linecap:butt;stroke-linejoin:miter;stroke-opacity:1"
         d="m 1093.693,9464.2718 0,-0.1345 q 0.067,-1.312 0.2018,-3.3976 0.1682,-2.0856 0.9756,-4.4404 1.9847,-5.9877 7.2997,-8.6789 2.8929,-1.4464 6.4923,-1.4464 l 0.3364,0 q 2.893,0 5.9205,1.0428 l 0.2018,-9.4526 0.067,-0.7737 q 0,-1.5811 1.0428,-2.6239 1.0428,-1.0764 2.6239,-1.0764 1.5137,0 2.5229,1.0764 1.0428,1.0428 1.0428,2.6239 l 0,0.9082 -0.8073,37.6759 0,1.581 q 0,1.581 -1.0765,2.6575 -1.0764,1.0764 -2.5902,1.0764 -1.3792,0 -2.4557,-0.9082 -1.0428,-0.9419 -1.1773,-2.3211 -3.8012,2.4893 -8.3425,2.4893 l -0.3364,0 -0.5046,0 -0.1346,0 q -3.0275,-0.2019 -5.2813,-1.8165 -1.9847,-1.4465 -3.5321,-3.8349 -1.211,-2.1529 -1.8838,-4.7767 -0.6055,-2.3884 -0.6055,-4.9114 0,-0.2691 0,-0.5382 z m 7.2324,0.3028 q 0,0.2354 0,0.5045 -0.034,0.9756 0.1682,2.2202 0.2691,1.5474 0.8073,2.9266 0.471,1.0429 0.9756,1.6147 0.5382,0.5719 0.9755,0.8746 0.471,0.2691 0.841,0.3364 0.37,0.067 0.6055,0.067 l 0.6728,0 q 3.4312,0 6.1896,-1.9511 1.1773,-0.8409 1.7156,-1.6146 0.5718,-0.7737 0.6391,-1.0765 l 0.2691,-13.5566 q -1.0428,-0.5382 -2.6911,-1.0428 -1.6483,-0.5382 -3.4312,-0.5382 -1.9847,0 -3.1621,0.6728 -2.7584,1.5137 -3.633,4.1712 -0.841,2.6575 -0.9419,6.3915 z" />
      <path
         id="path4141"
         style="font-style:normal;font-variant:normal;font-weight:bold;font-stretch:normal;font-size:68.89295197px;line-height:125%;font-family:'Comic Neue';-inkscape-font-specification:'Comic Neue Bold';letter-spacing:0px;word-spacing:0px;opacity:0.77999998;fill:#000000;fill-opacity:1;stroke:none;stroke-width:1px;stroke-linecap:butt;stroke-linejoin:miter;stroke-opacity:1"
         d="m 1131.4025,9477.2565 0,-27.1468 q 0,-1.581 1.1101,-2.6575 1.1101,-1.0764 2.6911,-1.0764 1.581,0 2.6575,1.0764 1.1101,1.0429 1.1101,2.6575 l -0.1346,27.1468 q 0,1.5811 -1.0764,2.6575 -1.0428,1.0428 -2.6239,1.0428 -1.581,0 -2.6575,-1.0428 -1.0764,-1.0764 -1.0764,-2.6575 z m 0.2691,-38.1131 0.1345,-2.3548 q 0,-1.5137 1.0765,-2.5565 1.0764,-1.0765 2.5902,-1.0765 1.5138,0 2.5566,1.0765 1.0764,1.0428 1.0764,2.5565 l -0.1345,2.3548 q 0,1.5137 -1.0765,2.5902 -1.0428,1.0764 -2.5565,1.0764 -1.5138,0 -2.5903,-1.0764 -1.0764,-1.0765 -1.0764,-2.5902 z" />
      <path
         id="path4143"
         style="font-style:normal;font-variant:normal;font-weight:bold;font-stretch:normal;font-size:68.89295197px;line-height:125%;font-family:'Comic Neue';-inkscape-font-specification:'Comic Neue Bold';letter-spacing:0px;word-spacing:0px;opacity:0.77999998;fill:#000000;fill-opacity:1;stroke:none;stroke-width:1px;stroke-linecap:butt;stroke-linejoin:miter;stroke-opacity:1"
         d="m 1148.0875,9477.1556 0,-25.8349 0,-2.0519 q 0,-1.5138 1.0764,-2.5903 1.0765,-1.0764 2.5902,-1.0764 1.5138,0 2.5566,1.0764 1.0765,1.0765 1.0765,2.5903 l 0,2.1529 q 0.2691,-0.3364 0.5045,-0.6055 0.2692,-0.3028 0.6056,-0.6392 1.9174,-1.9174 4.2721,-2.9602 2.3548,-1.0428 5.1132,-1.0428 3.8012,0 6.2569,2.0519 2.3547,1.9175 3.3639,5.9205 0.7737,2.893 0.9082,6.997 0.1346,4.1039 0.1346,10.2935 l 0,3.8013 q 0,0.9755 0.067,1.9174 0,1.5138 -1.0765,2.5902 -1.0428,1.0765 -2.5229,1.0765 -1.5138,0 -2.5902,-1.0428 -1.0429,-1.0765 -1.0429,-2.6239 -0.067,-1.0428 -0.067,-2.052 l 0,-3.5657 q 0,-5.0459 -0.101,-9.1499 -0.1009,-4.104 -0.6727,-6.4923 -0.471,-1.7829 -1.0428,-2.1529 -0.5383,-0.4037 -1.6147,-0.4037 -0.6728,0 -1.5138,0.1682 -0.841,0.1682 -1.7829,0.841 -0.9082,0.6391 -1.9847,1.8838 -1.0764,1.2446 -2.1865,3.2966 -1.3792,2.6238 -2.2202,5.8868 -0.8073,3.2294 -0.8073,6.2569 l -0.067,5.4832 q 0,1.5138 -1.0765,2.5902 -1.0428,1.0765 -2.5565,1.0765 -1.5138,0 -2.5566,-1.0428 -1.0428,-1.0765 -1.0428,-2.6239 z" />
      <path
         id="path4145"
         style="font-style:normal;font-variant:normal;font-weight:bold;font-stretch:normal;font-size:68.89295197px;line-height:125%;font-family:'Comic Neue';-inkscape-font-specification:'Comic Neue Bold';letter-spacing:0px;word-spacing:0px;opacity:0.77999998;fill:#000000;fill-opacity:1;stroke:none;stroke-width:1px;stroke-linecap:butt;stroke-linejoin:miter;stroke-opacity:1"
         d="m 1184.6532,9466.4247 q -0.067,-0.8746 -0.067,-1.7156 0,-4.5413 1.8165,-8.477 1.2447,-2.6239 3.2294,-4.7432 2.2202,-2.2201 5.2477,-3.5993 2.9602,-1.3793 6.055,-1.3793 1.3792,0 2.5566,0.2692 1.211,0.2691 2.3211,0.6391 l 0.5719,0.1346 q 0.4709,-0.7737 1.2446,-1.2447 0.8074,-0.4709 1.8502,-0.4709 1.5137,0 2.5229,1.0428 1.0428,1.0092 1.0428,2.5229 l 0,1.3119 q -0.067,1.7829 -0.1009,4.474 -0.034,2.6912 -0.1009,5.6851 -0.067,2.9938 -0.1346,6.0214 -0.067,3.0275 -0.1345,5.4831 -0.067,2.4557 -0.1009,4.104 -0.034,1.6483 -0.034,1.9174 -0.2018,2.7585 -1.0764,5.1132 -0.8746,2.3547 -2.4557,4.1376 -1.581,1.7829 -3.6667,2.893 -2.0519,1.1101 -4.5076,1.3119 -0.6728,0.1346 -1.3456,0.1346 -0.6727,0 -1.4128,0 -2.8257,0 -5.1132,-0.4373 l -1.0428,-0.1346 q -1.5137,-0.3364 -2.3883,-1.581 -0.6056,-0.9083 -0.6056,-1.9175 0,-0.4036 0.101,-0.841 0.3364,-1.4464 1.581,-2.2874 0.9083,-0.6392 1.8838,-0.6392 0.4037,0 0.8073,0.101 l 0.6392,0.067 q 0.9755,0.1346 1.9847,0.2355 1.0428,0.1346 2.1529,0.1346 0.5382,0 1.0092,0 0.5046,0 1.0428,-0.067 2.7584,-0.2691 4.0703,-2.7584 0.4037,-0.7737 0.6055,-1.5811 0.2355,-0.8409 0.3701,-1.4464 -0.2019,0.1345 -0.4037,0.2018 -0.1682,0.067 -0.37,0.2018 -2.6912,1.5138 -5.7187,1.5138 l -0.2691,0 q -5.9878,0 -9.9236,-4.9786 -1.581,-1.9847 -2.5229,-4.3731 -0.9083,-2.422 -1.211,-4.9786 z m 6.7951,-2.6911 q 0,0.6391 0,1.1437 0,0.6392 0.034,1.0092 0.1346,1.3792 0.6728,2.792 0.5719,1.4129 1.3456,2.4893 1.9174,2.4893 4.6085,2.4893 l 0.067,0 q 1.0428,0 2.3211,-0.4036 1.312,-0.4373 2.4893,-1.7156 2.5566,-2.9603 2.5566,-8.9817 l 0,-7.7033 q -0.6055,-0.3364 -1.7492,-0.7065 -1.1438,-0.4036 -2.523,-0.4036 -1.7828,0 -3.7339,0.7737 -4.0704,1.8501 -5.4159,5.9204 -0.6055,1.7829 -0.6728,3.2967 z" />
      <path
         id="path4147"
         style="font-style:normal;font-variant:normal;font-weight:bold;font-stretch:normal;font-size:68.89295197px;line-height:125%;font-family:'Comic Neue';-inkscape-font-specification:'Comic Neue Bold';letter-spacing:0px;word-spacing:0px;opacity:0.77999998;fill:#000000;fill-opacity:1;stroke:none;stroke-width:1px;stroke-linecap:butt;stroke-linejoin:miter;stroke-opacity:1"
         d="m 1222.2954,9476.6847 0.3027,-2.5566 q 0.1346,-1.6483 1.3456,-2.7248 1.2446,-1.1101 2.9266,-0.9755 1.6483,0.1345 2.7248,1.3455 1.1101,1.211 1.0428,2.8594 l -0.3364,2.5229 q -0.1346,1.581 -1.3456,2.7248 -1.211,1.1437 -2.8593,1.0091 -1.6483,-0.1345 -2.7584,-1.3455 -1.1101,-1.211 -1.0428,-2.8593 z" />
      <rect
         ry="2.7853885"
         rx="4.4103498"
         y="9349.8936"
         x="386.47461"
         height="225.35907"
         width="1095.1042"
         id="rect5510-19"
         style="color:#000000;clip-rule:nonzero;display:inline;overflow:visible;visibility:visible;opacity:0.77999998;isolation:auto;mix-blend-mode:normal;color-interpolation:sRGB;color-interpolation-filters:linearRGB;solid-color:#000000;solid-opacity:1;fill:none;fill-opacity:1;fill-rule:nonzero;stroke:none;stroke-width:1;stroke-linecap:butt;stroke-linejoin:miter;stroke-miterlimit:4;stroke-dasharray:none;stroke-dashoffset:0;stroke-opacity:1;color-rendering:auto;image-rendering:auto;shape-rendering:auto;text-rendering:auto;enable-background:accumulate" />
    </g>
  </g>
</svg>
