<?xml version="1.0" encoding="UTF-8" standalone="no"?>
<svg
   xmlns:dc="http://purl.org/dc/elements/1.1/"
   xmlns:cc="http://creativecommons.org/ns#"
   xmlns:rdf="http://www.w3.org/1999/02/22-rdf-syntax-ns#"
   xmlns:svg="http://www.w3.org/2000/svg"
   xmlns="http://www.w3.org/2000/svg"
   width="388.35114mm"
   height="65.883446mm"
   viewBox="0 0 1376.0473 233.44528"
   id="svg2"
   version="1.1">
  <defs
     id="defs4">
    <marker
       orient="auto"
       refY="0"
       refX="0"
       id="Arrow1Lend"
       style="overflow:visible">
      <path
         id="path5845"
         d="M 0,0 5,-5 -12.5,0 5,5 0,0 Z"
         style="fill:#000000;fill-opacity:1;fill-rule:evenodd;stroke:#000000;stroke-width:1pt;stroke-opacity:1"
         transform="matrix(-0.8,0,0,-0.8,-10,0)" />
    </marker>
    <marker
       orient="auto"
       refY="0"
       refX="0"
       id="TriangleOutM"
       style="overflow:visible">
      <path
         id="path5987"
         d="m 5.77,0 -8.65,5 0,-10 8.65,5 z"
         style="fill:#000000;fill-opacity:1;fill-rule:evenodd;stroke:#000000;stroke-width:1pt;stroke-opacity:1"
         transform="scale(0.4,0.4)" />
    </marker>
    <marker
       orient="auto"
       refY="0"
       refX="0"
       id="TriangleInM"
       style="overflow:visible">
      <path
         id="path5978"
         d="m 5.77,0 -8.65,5 0,-10 8.65,5 z"
         style="fill:#000000;fill-opacity:1;fill-rule:evenodd;stroke:#000000;stroke-width:1pt;stroke-opacity:1"
         transform="scale(-0.4,-0.4)" />
    </marker>
    <marker
       orient="auto"
       refY="0"
       refX="0"
       id="Arrow2Mstart"
       style="overflow:visible">
      <path
         id="path5866"
         style="fill:#000000;fill-opacity:1;fill-rule:evenodd;stroke:#000000;stroke-width:0.625;stroke-linejoin:round;stroke-opacity:1"
         d="M 8.7185878,4.0337352 -2.2072895,0.01601326 8.7185884,-4.0017078 c -1.7454984,2.3720609 -1.7354408,5.6174519 -6e-7,8.035443 z"
         transform="scale(0.6,0.6)" />
    </marker>
    <marker
       orient="auto"
       refY="0"
       refX="0"
       id="Arrow1Lstart"
       style="overflow:visible">
      <path
         id="path5842"
         d="M 0,0 5,-5 -12.5,0 5,5 0,0 Z"
         style="fill:#000000;fill-opacity:1;fill-rule:evenodd;stroke:#000000;stroke-width:1pt;stroke-opacity:1"
         transform="matrix(0.8,0,0,0.8,10,0)" />
    </marker>
    <marker
       orient="auto"
       refY="0"
       refX="0"
       id="TriangleInM-6"
       style="overflow:visible">
      <path
         id="path5978-6"
         d="m 5.77,0 -8.65,5 0,-10 8.65,5 z"
         style="fill:#000000;fill-opacity:1;fill-rule:evenodd;stroke:#000000;stroke-width:1pt;stroke-opacity:1"
         transform="scale(-0.4,-0.4)" />
    </marker>
    <marker
       orient="auto"
       refY="0"
       refX="0"
       id="TriangleOutM-4"
       style="overflow:visible">
      <path
         id="path5987-0"
         d="m 5.77,0 -8.65,5 0,-10 8.65,5 z"
         style="fill:#000000;fill-opacity:1;fill-rule:evenodd;stroke:#000000;stroke-width:1pt;stroke-opacity:1"
         transform="scale(0.4,0.4)" />
    </marker>
    <marker
       orient="auto"
       refY="0"
       refX="0"
       id="TriangleInM-6-4"
       style="overflow:visible">
      <path
         id="path5978-6-6"
         d="m 5.77,0 -8.65,5 0,-10 8.65,5 z"
         style="fill:#000000;fill-opacity:1;fill-rule:evenodd;stroke:#000000;stroke-width:1pt;stroke-opacity:1"
         transform="scale(-0.4,-0.4)" />
    </marker>
    <marker
       orient="auto"
       refY="0"
       refX="0"
       id="TriangleOutM-4-2"
       style="overflow:visible">
      <path
         id="path5987-0-6"
         d="m 5.77,0 -8.65,5 0,-10 8.65,5 z"
         style="fill:#000000;fill-opacity:1;fill-rule:evenodd;stroke:#000000;stroke-width:1pt;stroke-opacity:1"
         transform="scale(0.4,0.4)" />
    </marker>
    <marker
       orient="auto"
       refY="0"
       refX="0"
       id="TriangleInM-6-4-5"
       style="overflow:visible">
      <path
         id="path5978-6-6-6"
         d="m 5.77,0 -8.65,5 0,-10 8.65,5 z"
         style="fill:#000000;fill-opacity:1;fill-rule:evenodd;stroke:#000000;stroke-width:1pt;stroke-opacity:1"
         transform="scale(-0.4,-0.4)" />
    </marker>
    <marker
       orient="auto"
       refY="0"
       refX="0"
       id="TriangleOutM-4-2-9"
       style="overflow:visible">
      <path
         id="path5987-0-6-8"
         d="m 5.77,0 -8.65,5 0,-10 8.65,5 z"
         style="fill:#000000;fill-opacity:1;fill-rule:evenodd;stroke:#000000;stroke-width:1pt;stroke-opacity:1"
         transform="scale(0.4,0.4)" />
    </marker>
  </defs>
  <metadata
     id="metadata7">
    <rdf:RDF>
      <cc:Work
         rdf:about="">
        <dc:format>image/svg+xml</dc:format>
        <dc:type
           rdf:resource="http://purl.org/dc/dcmitype/StillImage" />
        <dc:title></dc:title>
      </cc:Work>
    </rdf:RDF>
  </metadata>
  <g
     transform="translate(-384.57898,-7197.7117)"
     id="g4187">
    <path
       style="color:#000000;clip-rule:nonzero;display:inline;overflow:visible;visibility:visible;opacity:0.781;isolation:auto;mix-blend-mode:normal;color-interpolation:sRGB;color-interpolation-filters:linearRGB;solid-color:#000000;solid-opacity:1;fill:#000080;fill-opacity:1;fill-rule:nonzero;stroke:#000080;stroke-width:2.00110102;stroke-linecap:butt;stroke-linejoin:miter;stroke-miterlimit:4;stroke-dasharray:none;stroke-dashoffset:0;stroke-opacity:1;color-rendering:auto;image-rendering:auto;shape-rendering:auto;text-rendering:auto;enable-background:accumulate"
       id="path4174-80-8-9"
       d="m 508.48956,7303.2828 c 1.4953,1.1303 3.1446,1.3729 4.7894,1.4085 3.7059,-0.2505 7.2034,-2.1711 10.6142,-4.2285 5.1735,-3.4372 10.146,-7.5353 15.1116,-11.6083 5.9404,-4.8609 11.8354,-9.8477 17.7599,-14.7532 6.218,-5.2388 12.5273,-10.2015 18.9373,-14.8744 5.9928,-4.3681 12.1276,-8.2607 18.2649,-12.1307 6.2034,-3.9618 12.28529,-8.342 18.44899,-12.4411 5.1349,-3.684 10.528,-6.1554 16.1195,-7.5424 4.735,-1.0592 9.4571,-0.4422 14.1189,0.9767 4.7375,1.4484 8.9093,4.8 12.7411,9.1537 4.602,5.9063 8.3338,13.1705 11.9223,20.4694 4.1381,8.7185 7.9182,17.8102 11.8277,26.7649 3.8106,8.8707 7.7342,17.6175 11.8539,26.1636 4.1617,8.4314 8.4398,16.7274 12.6269,25.1297 3.9095,8.1047 8.2678,15.6186 13.4036,21.9585 5.1034,5.9648 10.4264,8.5454 16.7194,9.8228 7.255,1.0751 14.2079,-1.9177 20.9179,-5.7623 8.8263,-5.4199 16.4598,-14.0922 23.8516,-23.0217 7.4778,-9.3328 14.5492,-19.3825 21.6533,-29.3569 6.2502,-8.8752 12.5748,-17.6281 18.877,-26.4182 5.8377,-8.1408 11.5441,-16.4962 17.3977,-24.6109 4.3288,-5.9296 8.7478,-11.7014 13.4604,-16.9178 3.8139,-4.2594 8.0923,-7.282 12.4898,-9.8459 4.3436,-2.6009 8.8774,-3.8069 13.5237,-3.9621 4.8731,-0.037 9.4757,2.0321 13.9149,4.8944 5.4054,3.7162 9.7915,9.7055 13.9841,15.934 5.2441,8.0311 9.8502,16.9303 14.3289,25.9439 5.3401,10.6792 10.0052,22.068 14.5159,33.5784 4.3703,11.7709 9.2082,23.0756 14.6872,33.7196 4.8576,9.3921 10.76171,17.1978 17.13731,24.101 5.633,6.0597 11.9256,10.0223 18.6159,12.3703 6.5327,2.1102 13.0266,0.902 19.38774,-1.734 7.1404,-3.3568 13.1922,-9.9435 18.9645,-16.9339 6.8639,-8.8099 13.3636,-18.2484 19.8758,-27.6459 7.2992,-10.359 14.3346,-21.1215 21.1266,-32.2441 6.6503,-10.904 12.8487,-22.4078 19.0333,-33.9175 5.1538,-9.8576 10.3167,-19.7029 15.6012,-29.3996 4.1266,-7.6503 8.6018,-14.8239 13.5291,-21.2866 4.2218,-5.5125 9.024,-9.7097 14.0927,-13.1217 5.09,-3.2172 9.4133,-3.8846 14.8182,-2.6108 5.4043,1.6444 10.0652,5.9749 14.4169,10.9137 5.5501,6.7425 9.7563,15.4935 13.7858,24.2786 5.1024,11.4685 9.5648,23.5458 13.872,35.7303 3.9649,11.3765 7.5298,23.0569 11.1234,34.7098 2.7832,9.4756 5.8268,18.7536 9.2925,27.6948 3.0371,7.9417 7.0496,14.7673 11.4175,21.051 3.5605,4.6882 7.5951,8.7402 12.1958,10.6114 0.9545,0.3882 1.9364,0.5996 2.9047,0.8994 6.9233,1.4079 13.7151,-0.9714 20.3019,-3.9953 7.6417,-3.7735 14.6725,-9.7013 21.4733,-16.098 7.7194,-7.389 14.4408,-16.7182 20.7975,-26.582 6.8995,-11.0429 12.9291,-23.2278 18.9903,-35.3242 5.5845,-11.4068 11.3353,-22.6203 17.2304,-33.6598 4.6995,-8.6661 9.5872,-17.0959 14.6417,-25.2874 3.4973,-5.6537 7.1834,-11.0221 11.3244,-15.575 3.1322,-3.3381 6.6215,-5.3169 10.4,-5.9984 3.9994,-0.3285 6.5858,2.0964 9.3739,6.1589 3.776,6.4146 6.0309,14.4385 8.1848,22.2927 2.9651,11.7328 5.1055,23.8944 7.3628,35.971 2.4039,13.2096 5.2531,26.2076 8.2545,39.1266 2.7883,11.9788 5.9756,23.7285 9.4267,35.2987 2.5412,8.6273 5.573,16.8908 9.1209,24.6512 2.0416,4.0379 4.1469,8.7012 7.3613,10.7579 0.526,0.3365 1.0922,0.5052 1.6381,0.7578 4.9238,1.1712 8.947,-3.3558 12.6495,-7.6571 5.5109,-7.0467 10.3144,-15.2456 15.203,-23.2517 5.186,-8.5869 10.1811,-17.43 15.1667,-26.2839 4.6765,-8.2934 9.334,-16.6106 13.9681,-24.959 3.701,-6.6878 7.2661,-13.5441 10.8768,-20.3435 3.1124,-5.7256 6.1607,-11.5315 9.3111,-17.2094 2.2431,-4.1176 4.4919,-8.2287 6.9466,-12.0612 1.9096,-2.9846 4.1027,-5.1614 6.7588,-6.1829 3.4127,-0.6512 5.2127,3.1249 6.809,7.0942 2.6325,7.5385 4.3882,15.697 6.2596,23.7191 2.2499,9.9404 4.4724,19.895 6.7642,29.8133 2.2564,9.9186 4.4757,19.855 6.9114,29.6763 2.1848,9.0801 5.031,17.714 8.4268,25.8767 2.7074,6.3258 6.0914,11.6654 10.2927,15.6702 4.419,3.6516 8.136,3.5767 12.9077,1.8636 6.1513,-2.8022 11.0796,-9.0602 15.7683,-15.4579 5.7832,-8.4504 10.9479,-17.8089 16.0749,-27.1661 5.0366,-9.2427 10.0707,-18.4887 15.1279,-27.7055 3.4996,-6.3844 6.9347,-12.8456 10.7283,-18.836 2.6436,-4.1131 5.5449,-7.6945 9.1665,-9.5028 3.6534,-0.8587 5.775,3.2542 7.725,7.2799 2.43,5.7178 4.8128,11.4755 7.3567,17.08 2.4041,5.3399 5.1591,10.2573 8.1413,14.8642 2.1481,3.3135 4.5191,6.2272 7.2886,8.232 2.4434,1.6812 4.7898,1.0725 7.2233,-0.2195 2.6984,-1.798 5.093,-4.4463 7.4201,-7.1549 1.9913,-2.3108 3.7736,-4.9972 5.491,-7.7592 1.4161,-2.2882 2.7133,-4.7373 4.0173,-7.172 0.5129,-1.0278 1.0993,-1.9545 1.6945,-2.8703 0,0 0.6346,0.9525 0.6346,0.9525 l 0,0 c -0.5758,0.8833 -1.1419,1.7791 -1.637,2.7726 -1.3178,2.4607 -2.6292,4.9353 -4.0608,7.2476 -1.7505,2.8138 -3.5674,5.5503 -5.597,7.9044 -2.4027,2.7949 -4.877,5.5248 -7.6696,7.359 -2.6598,1.3974 -5.2418,2 -7.9017,0.1619 -2.8586,-2.0874 -5.322,-5.0686 -7.5395,-8.5044 -3.0177,-4.6639 -5.8067,-9.6402 -8.2398,-15.0451 -2.5387,-5.5935 -4.9193,-11.3372 -7.3411,-17.0468 -1.6969,-3.5158 -3.5192,-7.4144 -6.7294,-6.7937 -3.4873,1.7068 -6.2543,5.2252 -8.8001,9.1537 -3.7794,5.9664 -7.1989,12.406 -10.6857,18.7643 -5.0571,9.2166 -10.091,18.4623 -15.1278,27.7047 -5.1544,9.4074 -10.3475,18.8156 -16.1642,27.3075 -4.8024,6.5484 -9.8563,12.9274 -16.1608,15.7689 -5.1326,1.8187 -8.8343,1.8375 -13.5867,-2.0359 -4.3082,-4.1267 -7.7955,-9.589 -10.5717,-16.0934 -3.4263,-8.2419 -6.3024,-16.9557 -8.5077,-26.1227 -2.4379,-9.831 -4.6598,-19.7768 -6.918,-29.7052 -2.2917,-9.9171 -4.5141,-19.8702 -6.7636,-29.8095 -1.8509,-7.9347 -3.587,-16.0038 -6.1807,-23.4674 -1.3701,-3.4352 -2.8545,-6.9625 -5.831,-6.4836 -2.4987,0.9292 -4.54,3.0265 -6.3351,5.813 -2.4408,3.8083 -4.6735,7.8981 -6.9039,11.9896 -3.1462,5.6701 -6.1904,11.4689 -9.2987,17.1867 -3.6148,6.8071 -7.184,13.671 -10.8891,20.3663 -4.6355,8.3508 -9.2944,16.6704 -13.9724,24.9662 -4.9933,8.8678 -9.9962,17.7245 -15.1904,26.3247 -4.9229,8.0625 -9.7611,16.3187 -15.3155,23.4071 -3.9488,4.5761 -8.2212,9.2316 -13.4558,7.8744 -0.6011,-0.2882 -1.2243,-0.4862 -1.8037,-0.8646 -3.3329,-2.1773 -5.546,-6.9476 -7.6644,-11.1726 -3.5769,-7.8295 -6.6381,-16.1616 -9.2004,-24.8647 -3.4614,-11.6058 -6.6586,-23.3912 -9.4553,-35.407 -3.0078,-12.9457 -5.8625,-25.9706 -8.2716,-39.2073 -2.2477,-12.0254 -4.3785,-24.1355 -7.3282,-35.8203 -2.1058,-7.6836 -4.3041,-15.5416 -7.98,-21.8375 -2.5762,-3.7841 -4.9343,-6.0731 -8.6509,-5.789 -3.628,0.6381 -6.9731,2.5543 -9.9812,5.7503 -4.0968,4.4978 -7.736,9.8169 -11.1961,15.4039 -5.0403,8.1675 -9.9136,16.5734 -14.5999,25.2142 -5.8893,11.0287 -11.6343,22.2312 -17.2134,33.6269 -6.0834,12.141 -12.1362,24.3698 -19.0625,35.4515 -6.4079,9.9405 -13.1841,19.3407 -20.9655,26.7861 -6.8674,6.4573 -13.968,12.4382 -21.6851,16.2431 -6.7297,3.085 -13.6682,5.4927 -20.7391,4.0257 -1.0037,-0.3144 -2.0215,-0.5373 -3.0105,-0.943 -4.7229,-1.9366 -8.869,-6.0899 -12.5245,-10.9117 -4.4271,-6.3729 -8.4936,-13.2954 -11.5727,-21.3472 -3.479,-8.9785 -6.5375,-18.2928 -9.3316,-27.8076 -3.5865,-11.6303 -7.1443,-23.2885 -11.1013,-34.6433 -4.2909,-12.1388 -8.7358,-24.1708 -13.8182,-35.5969 -3.9741,-8.667 -8.1183,-17.3075 -13.588,-23.968 -4.2323,-4.8109 -8.7638,-9.0427 -14.0203,-10.66 -5.1377,-1.23 -9.4845,-0.5846 -14.319,2.511 -4.9898,3.3538 -9.7153,7.485 -13.8711,12.9084 -4.891,6.4109 -9.3291,13.5344 -13.4246,21.1249 -5.2835,9.6943 -10.4448,19.5373 -15.5974,29.3923 -6.1964,11.5319 -12.4073,23.0574 -19.0702,33.9822 -6.8052,11.1433 -13.8536,21.9265 -21.1662,32.3049 -6.5312,9.4246 -13.0496,18.8903 -19.9344,27.7232 -5.8687,7.1034 -12.0254,13.7828 -19.2861,17.1818 -6.58784,2.7194 -13.05724,3.9006 -19.82354,1.7467 -6.8028,-2.3975 -13.2049,-6.4203 -18.9329,-12.5872 -6.4437,-6.9817 -12.41201,-14.8738 -17.32211,-24.3698 -5.501,-10.6903 -10.3627,-22.0397 -14.7509,-33.861 -4.4938,-11.468 -9.1413,-22.8153 -14.4613,-33.4551 -4.4518,-8.9599 -9.0292,-17.807 -14.2408,-25.7917 -4.1124,-6.1117 -8.4085,-12.001 -13.7093,-15.6554 -4.321,-2.7935 -8.801,-4.8166 -13.5465,-4.7868 -4.5438,0.1445 -8.9757,1.3305 -13.2232,3.8726 -4.3249,2.519 -8.5335,5.4877 -12.2839,9.6759 -4.6868,5.1856 -9.0792,10.9286 -13.3845,16.8234 -5.8529,8.1136 -11.5583,16.4686 -17.3958,24.608 -6.3012,8.7892 -12.6252,17.541 -18.8747,26.4153 -7.1202,9.9971 -14.208,20.0695 -21.7034,29.4224 -7.4651,9.0163 -15.1773,17.7639 -24.0924,23.2292 -6.8505,3.918 -13.9476,6.9504 -21.3513,5.8373 -6.4601,-1.3241 -11.9275,-3.9849 -17.1638,-10.1146 -5.1878,-6.4153 -9.6026,-13.9954 -13.5522,-22.1919 -4.1897,-8.4082 -8.471,-16.7096 -12.6354,-25.1471 -4.1276,-8.5631 -8.0594,-17.3269 -11.8775,-26.2152 -3.9004,-8.9336 -7.6716,-18.004 -11.7989,-26.703 -3.5371,-7.1962 -7.2134,-14.3602 -11.7424,-20.1957 -3.7214,-4.2409 -7.7763,-7.4985 -12.3817,-8.9096 -4.5559,-1.3916 -9.171,-1.9985 -13.7999,-0.9678 -5.5182,1.3644 -10.8381,3.8103 -15.9051,7.4462 -6.1691,4.1025 -12.25589,8.487 -18.46459,12.4513 -6.1226,3.8607 -12.2425,7.7435 -18.2211,12.1009 -6.396,4.6626 -12.6915,9.615 -18.8962,14.8424 -5.9254,4.9064 -11.8216,9.8941 -17.763,14.7559 -4.9963,4.098 -9.9997,8.2214 -15.2063,11.6754 -3.5205,2.121 -7.1323,4.0888 -10.9577,4.324 -1.7603,-0.049 -3.5251,-0.3132 -5.1269,-1.5179 0,0 0.3517,-1.2454 0.3517,-1.2454 z" />
    <path
       style="color:#000000;clip-rule:nonzero;display:inline;overflow:visible;visibility:visible;opacity:0.781;isolation:auto;mix-blend-mode:normal;color-interpolation:sRGB;color-interpolation-filters:linearRGB;solid-color:#000000;solid-opacity:1;fill:#ffff00;fill-opacity:1;fill-rule:nonzero;stroke:#ffff00;stroke-width:2.00110102;stroke-linecap:butt;stroke-linejoin:miter;stroke-miterlimit:4;stroke-dasharray:none;stroke-dashoffset:0;stroke-opacity:1;color-rendering:auto;image-rendering:auto;shape-rendering:auto;text-rendering:auto;enable-background:accumulate"
       id="path4174-80-0-1-8"
       d="m 507.71296,7325.5858 c 1.4953,-1.1303 3.1445,-1.3729 4.7893,-1.4085 3.7059,0.2506 7.2034,2.1711 10.6142,4.2285 5.1735,3.4372 10.146,7.5353 15.1116,11.6083 5.9404,4.861 11.8354,9.8477 17.7599,14.7533 6.218,5.2387 12.5273,10.2014 18.9373,14.8743 5.9928,4.3681 12.1276,8.2607 18.2649,12.1307 6.2034,3.9618 12.2853,8.342 18.44899,12.4411 5.1349,3.684 10.528,6.1554 16.1195,7.5424 4.735,1.0593 9.4572,0.4423 14.119,-0.9767 4.7374,-1.4484 8.9092,-4.8 12.741,-9.1537 4.6021,-5.9062 8.3339,-13.1705 11.9223,-20.4693 4.1381,-8.7186 7.9182,-17.8103 11.8277,-26.765 3.8106,-8.8706 7.7342,-17.6175 11.8539,-26.1636 4.1617,-8.4314 8.4398,-16.7274 12.627,-25.1296 3.9095,-8.1047 8.2678,-15.6187 13.4036,-21.9586 5.1034,-5.9647 10.4264,-8.5453 16.7194,-9.8228 7.2549,-1.0751 14.2079,1.9177 20.9179,5.7623 8.8263,5.4199 16.4598,14.0922 23.8515,23.0218 7.4779,9.3327 14.5493,19.3824 21.6533,29.3568 6.2502,8.8753 12.5748,17.6282 18.8771,26.4182 5.8377,8.1408 11.5441,16.4963 17.3977,24.6109 4.3287,5.9296 8.7477,11.7014 13.4604,16.9178 3.8138,4.2594 8.0923,7.282 12.4898,9.8459 4.3436,2.6009 8.8773,3.8069 13.5237,3.9621 4.873,0.037 9.4756,-2.0321 13.9149,-4.8944 5.4054,-3.7162 9.7914,-9.7055 13.9841,-15.934 5.2441,-8.0311 9.8501,-16.9303 14.3288,-25.9439 5.34,-10.6792 10.0053,-22.068 14.516,-33.5784 4.3702,-11.7708 9.2081,-23.0755 14.687,-33.7196 4.8577,-9.3921 10.76191,-17.1977 17.13741,-24.101 5.633,-6.0597 11.9256,-10.0223 18.6159,-12.3702 6.5328,-2.1102 13.0265,-0.9021 19.38784,1.7339 7.1403,3.3568 13.1921,9.9435 18.9645,16.934 6.8639,8.8098 13.3634,18.2483 19.8757,27.6459 7.2993,10.3589 14.3346,21.1214 21.1267,32.2441 6.6501,10.904 12.8486,22.4077 19.0333,33.9174 5.1537,9.8576 10.3167,19.7029 15.6011,29.3996 4.1266,7.6504 8.6019,14.8239 13.5292,21.2866 4.2217,5.5125 9.0239,9.7097 14.0926,13.1217 5.0901,3.2172 9.4133,3.8846 14.8182,2.6109 5.4044,-1.6445 10.0653,-5.975 14.4168,-10.9138 5.5502,-6.7425 9.7565,-15.4934 13.7859,-24.2786 5.1025,-11.4685 9.5648,-23.5458 13.8721,-35.7303 3.9648,-11.3765 7.5298,-23.0569 11.1234,-34.7097 2.7831,-9.4756 5.8268,-18.7536 9.2925,-27.6949 3.037,-7.9417 7.0496,-14.7673 11.4174,-21.0509 3.5606,-4.6883 7.5952,-8.7403 12.1958,-10.6115 0.9546,-0.3882 1.9364,-0.5996 2.9047,-0.8994 6.9233,-1.4079 13.7151,0.9714 20.302,3.9953 7.6416,3.7735 14.6725,9.7013 21.4732,16.098 7.7194,7.389 14.4409,16.7182 20.7975,26.582 6.8996,11.0429 12.9292,23.2278 18.9904,35.3242 5.5844,11.4069 11.3353,22.6203 17.2303,33.6599 4.6996,8.666 9.5873,17.0959 14.6418,25.2873 3.4972,5.6537 7.1834,11.0221 11.3244,15.5751 3.1321,3.338 6.6214,5.3168 10.4,5.9983 3.9993,0.3285 6.5858,-2.0964 9.3738,-6.1589 3.7761,-6.4146 6.031,-14.4384 8.1848,-22.2927 2.9651,-11.7328 5.1055,-23.8944 7.3628,-35.971 2.404,-13.2096 5.2531,-26.2075 8.2546,-39.1265 2.7882,-11.9789 5.9755,-23.7286 9.4267,-35.2988 2.5412,-8.6273 5.5729,-16.8908 9.1207,-24.6512 2.0418,-4.0379 4.147,-8.7012 7.3615,-10.7579 0.5259,-0.3365 1.0922,-0.5051 1.6381,-0.7578 4.9236,-1.1712 8.9469,3.3559 12.6494,7.6572 5.5109,7.0466 10.3145,15.2455 15.2031,23.2516 5.186,8.587 10.1811,17.43 15.1666,26.2839 4.6766,8.2934 9.3341,16.6106 13.9682,24.959 3.701,6.6878 7.266,13.5442 10.8768,20.3435 3.1123,5.7256 6.1606,11.5315 9.3111,17.2094 2.2431,4.1176 4.4918,8.2288 6.9465,12.0613 1.9097,2.9845 4.1027,5.1614 6.7588,6.1828 3.4127,0.6512 5.2127,-3.1248 6.8091,-7.0942 2.6324,-7.5385 4.3882,-15.697 6.2595,-23.7191 2.25,-9.9404 4.4725,-19.895 6.7643,-29.8133 2.2564,-9.9185 4.4756,-19.855 6.9113,-29.6763 2.1849,-9.0801 5.0311,-17.714 8.4269,-25.8766 2.7073,-6.3259 6.0914,-11.6655 10.2927,-15.6703 4.4189,-3.6516 8.1359,-3.5767 12.9076,-1.8636 6.1513,2.8023 11.0797,9.0603 15.7683,15.458 5.7832,8.4503 10.9479,17.8088 16.0749,27.1661 5.0366,9.2426 10.0707,18.4886 15.1279,27.7054 3.4996,6.3844 6.9347,12.8456 10.7283,18.8361 2.6436,4.113 5.5449,7.6945 9.1665,9.5028 3.6534,0.8586 5.7751,-3.2543 7.725,-7.2799 2.4301,-5.7178 4.8128,-11.4755 7.3567,-17.0801 2.4041,-5.3399 5.159,-10.2573 8.1413,-14.8642 2.1481,-3.3134 4.5192,-6.2271 7.2885,-8.232 2.4436,-1.6812 4.79,-1.0725 7.2234,0.2195 2.6983,1.798 5.093,4.4463 7.4201,7.1549 1.9914,2.3108 3.7736,4.9972 5.491,7.7592 1.4162,2.2882 2.7134,4.7374 4.0173,7.172 0.5129,1.0278 1.0993,1.9546 1.6945,2.8703 0,0 0.6346,-0.9525 0.6346,-0.9525 l 0,0 c -0.5758,-0.8833 -1.1419,-1.7791 -1.637,-2.7726 -1.3178,-2.4607 -2.6292,-4.9353 -4.0608,-7.2475 -1.7505,-2.8139 -3.5673,-5.5504 -5.597,-7.9045 -2.4027,-2.7949 -4.877,-5.5248 -7.6696,-7.359 -2.6598,-1.3974 -5.2417,-2 -7.9017,-0.1618 -2.8586,2.0874 -5.322,5.0685 -7.5395,8.5043 -3.0177,4.6639 -5.8066,9.6402 -8.2398,15.0451 -2.5387,5.5935 -4.9192,11.3372 -7.3411,17.0469 -1.6968,3.5157 -3.5192,7.4143 -6.7294,6.7936 -3.4873,-1.7067 -6.2543,-5.2252 -8.8001,-9.1537 -3.7794,-5.9664 -7.1989,-12.406 -10.6856,-18.7642 -5.0572,-9.2167 -10.0911,-18.4624 -15.1278,-27.7047 -5.1545,-9.4075 -10.3475,-18.8157 -16.1644,-27.3076 -4.8023,-6.5484 -9.8561,-12.9274 -16.1607,-15.7689 -5.1325,-1.8187 -8.8343,-1.8375 -13.5866,2.0359 -4.3083,4.1267 -7.7955,9.589 -10.5717,16.0934 -3.4264,8.2419 -6.3025,16.9557 -8.5077,26.1227 -2.438,9.831 -4.6598,19.7768 -6.9181,29.7052 -2.2917,9.9171 -4.5141,19.8702 -6.7636,29.8095 -1.8509,7.9347 -3.587,16.0038 -6.1807,23.4674 -1.3701,3.4353 -2.8544,6.9625 -5.831,6.4836 -2.4987,-0.9292 -4.5399,-3.0265 -6.3351,-5.813 -2.4407,-3.8083 -4.6734,-7.898 -6.9039,-11.9895 -3.1461,-5.6701 -6.1903,-11.4689 -9.2987,-17.1868 -3.6147,-6.807 -7.1839,-13.671 -10.889,-20.3663 -4.6356,-8.3508 -9.2945,-16.6704 -13.9725,-24.9662 -4.9933,-8.8678 -9.9962,-17.7245 -15.1904,-26.3247 -4.9228,-8.0625 -9.7612,-16.3187 -15.3154,-23.407 -3.9488,-4.5762 -8.2212,-9.2317 -13.456,-7.8745 -0.601,0.2883 -1.2241,0.4863 -1.8035,0.8647 -3.333,2.1773 -5.5461,6.9475 -7.6644,11.1725 -3.5769,7.8295 -6.6382,16.1616 -9.2004,24.8647 -3.4615,11.6058 -6.6587,23.3913 -9.4553,35.407 -3.0079,12.9457 -5.8625,25.9706 -8.2716,39.2074 -2.2478,12.0253 -4.3785,24.1355 -7.3282,35.8202 -2.1058,7.6837 -4.3042,15.5416 -7.9801,21.8375 -2.5762,3.7841 -4.9343,6.0731 -8.6509,5.789 -3.628,-0.6381 -6.973,-2.5542 -9.9812,-5.7503 -4.0967,-4.4978 -7.7359,-9.8169 -11.1961,-15.4038 -5.0403,-8.1675 -9.9136,-16.5735 -14.5999,-25.2142 -5.8893,-11.0288 -11.6342,-22.2313 -17.2133,-33.6269 -6.0834,-12.1411 -12.1363,-24.3698 -19.0626,-35.4516 -6.4079,-9.9405 -13.1842,-19.3407 -20.9655,-26.7861 -6.8673,-6.4573 -13.9679,-12.4382 -21.685,-16.2431 -6.7297,-3.085 -13.6683,-5.4927 -20.7391,-4.0256 -1.0037,0.3143 -2.0216,0.5372 -3.0106,0.9429 -4.7228,1.9366 -8.8689,6.09 -12.5244,10.9117 -4.4272,6.3729 -8.4936,13.2954 -11.5728,21.3473 -3.4791,8.9784 -6.5375,18.2927 -9.3315,27.8075 -3.5865,11.6303 -7.1444,23.2885 -11.1014,34.6433 -4.2909,12.1388 -8.7358,24.1708 -13.8182,35.597 -3.974,8.6669 -8.1182,17.3074 -13.588,23.9679 -4.2322,4.811 -8.7638,9.0427 -14.0203,10.66 -5.1377,1.23 -9.4844,0.5847 -14.3189,-2.511 -4.9898,-3.3537 -9.7153,-7.485 -13.8711,-12.9083 -4.891,-6.4109 -9.3292,-13.5345 -13.4246,-21.1249 -5.2836,-9.6943 -10.4449,-19.5374 -15.5974,-29.3924 -6.1964,-11.5319 -12.4073,-23.0574 -19.0703,-33.9822 -6.8051,-11.1433 -13.8536,-21.9265 -21.1662,-32.3049 -6.5312,-9.4246 -13.0496,-18.8903 -19.9343,-27.7232 -5.8688,-7.1034 -12.0254,-13.7827 -19.2863,-17.1818 -6.58764,-2.7193 -13.05714,-3.9006 -19.82334,-1.7467 -6.8028,2.3975 -13.2049,6.4204 -18.933,12.5872 -6.4436,6.9818 -12.41201,14.8738 -17.32211,24.3698 -5.501,10.6904 -10.3627,22.0398 -14.7509,33.861 -4.4938,11.468 -9.1412,22.8153 -14.4612,33.4551 -4.4519,8.96 -9.0293,17.807 -14.2408,25.7917 -4.1124,6.1117 -8.4085,12.0011 -13.7093,15.6555 -4.3211,2.7934 -8.8012,4.8166 -13.5465,4.7867 -4.5438,-0.1445 -8.9757,-1.3305 -13.2232,-3.8725 -4.325,-2.5191 -8.5335,-5.4877 -12.2839,-9.6759 -4.6868,-5.1857 -9.0792,-10.9286 -13.3845,-16.8235 -5.8529,-8.1135 -11.5583,-16.4686 -17.3959,-24.608 -6.3012,-8.7892 -12.6251,-17.541 -18.8746,-26.4152 -7.1203,-9.9972 -14.208,-20.0696 -21.7035,-29.4224 -7.4651,-9.0164 -15.1772,-17.764 -24.0925,-23.2293 -6.8503,-3.918 -13.9475,-6.9503 -21.3512,-5.8373 -6.4601,1.3241 -11.9274,3.9849 -17.1637,10.1147 -5.1878,6.4152 -9.6026,13.9954 -13.5522,22.1919 -4.1897,8.4081 -8.4711,16.7095 -12.6356,25.147 -4.1276,8.5631 -8.0594,17.3269 -11.8774,26.2152 -3.9004,8.9337 -7.6716,18.004 -11.7988,26.7031 -3.5372,7.1961 -7.2134,14.3602 -11.7425,20.1956 -3.7214,4.2409 -7.7762,7.4985 -12.3817,8.9096 -4.5559,1.3917 -9.1709,1.9985 -13.7998,0.9678 -5.5183,-1.3644 -10.8382,-3.8103 -15.9052,-7.4461 -6.16909,-4.1026 -12.25589,-8.4871 -18.46459,-12.4514 -6.1227,-3.8607 -12.2425,-7.7434 -18.2211,-12.1008 -6.3961,-4.6627 -12.6915,-9.6151 -18.8962,-14.8425 -5.9254,-4.9063 -11.8216,-9.894 -17.763,-14.7558 -4.9963,-4.0981 -9.9997,-8.2214 -15.2064,-11.6755 -3.5204,-2.121 -7.1322,-4.0888 -10.9576,-4.3239 -1.7603,0.049 -3.525,0.3132 -5.1268,1.5179 0,0 0.3517,1.2453 0.3517,1.2453 z" />
    <path
       style="color:#000000;clip-rule:nonzero;display:inline;overflow:visible;visibility:visible;opacity:0.781;isolation:auto;mix-blend-mode:normal;color-interpolation:sRGB;color-interpolation-filters:linearRGB;solid-color:#000000;solid-opacity:1;fill:#008000;fill-opacity:1;fill-rule:nonzero;stroke:#008000;stroke-width:2.00110102;stroke-linecap:butt;stroke-linejoin:miter;stroke-miterlimit:4;stroke-dasharray:none;stroke-dashoffset:0;stroke-opacity:1;color-rendering:auto;image-rendering:auto;shape-rendering:auto;text-rendering:auto;enable-background:accumulate"
       id="path4174-80-0-1-9-8"
       d="m 569.73407,7313.1453 c 1.4953,-1.1303 3.1445,-1.3729 4.7893,-1.4085 3.7059,0.2506 7.2034,2.1711 10.6142,4.2285 5.1735,3.4372 10.146,7.5353 15.1116,11.6083 5.9404,4.861 11.8354,9.8477 17.7599,14.7533 6.218,5.2387 12.5273,10.2014 18.9373,14.8743 5.9928,4.3681 12.1276,8.2607 18.2649,12.1307 6.2034,3.9618 12.2853,8.342 18.44899,12.4411 5.1349,3.684 10.528,6.1554 16.1195,7.5424 4.735,1.0593 9.4572,0.4423 14.119,-0.9767 4.7374,-1.4484 8.9092,-4.8 12.741,-9.1537 4.6021,-5.9062 8.3339,-13.1705 11.9223,-20.4693 4.1381,-8.7186 7.9182,-17.8103 11.8277,-26.765 3.8106,-8.8706 7.7342,-17.6175 11.8539,-26.1636 4.1617,-8.4314 8.4398,-16.7274 12.627,-25.1296 3.9095,-8.1047 8.2678,-15.6187 13.4036,-21.9586 5.1034,-5.9647 10.4264,-8.5453 16.7194,-9.8228 7.2549,-1.0751 14.2079,1.9177 20.9179,5.7623 8.8263,5.4199 16.4598,14.0922 23.8515,23.0218 7.4779,9.3327 14.5493,19.3824 21.6533,29.3568 6.2502,8.8753 12.5748,17.6282 18.8771,26.4182 5.8377,8.1408 11.5441,16.4963 17.3977,24.6109 4.3287,5.9296 8.7477,11.7014 13.4604,16.9178 3.8138,4.2594 8.0923,7.282 12.4898,9.8459 4.3436,2.6009 8.8773,3.8069 13.5237,3.9621 4.873,0.037 9.4756,-2.0321 13.9149,-4.8944 5.4054,-3.7162 9.7914,-9.7055 13.9841,-15.934 5.2441,-8.0311 9.8501,-16.9303 14.3288,-25.9439 5.34,-10.6792 10.0053,-22.068 14.516,-33.5784 4.3702,-11.7708 9.20814,-23.0755 14.68704,-33.7196 4.8577,-9.3921 10.7619,-17.1977 17.1374,-24.101 5.633,-6.0597 11.9256,-10.0223 18.6159,-12.3702 6.5328,-2.1102 13.0265,-0.9021 19.3878,1.7339 7.1403,3.3568 13.1921,9.9435 18.9645,16.934 6.8639,8.8098 13.3634,18.2483 19.8757,27.6459 7.2993,10.3589 14.3346,21.1214 21.1267,32.2441 6.6501,10.904 12.8486,22.4077 19.0333,33.9174 5.1537,9.8576 10.3167,19.7029 15.6011,29.3996 4.1266,7.6504 8.6019,14.8239 13.5292,21.2866 4.2217,5.5125 9.0239,9.7097 14.0926,13.1217 5.0901,3.2172 9.4133,3.8846 14.8182,2.6109 5.4044,-1.6445 10.0653,-5.975 14.4168,-10.9138 5.5502,-6.7425 9.7565,-15.4934 13.7859,-24.2786 5.1025,-11.4685 9.5648,-23.5458 13.8721,-35.7303 3.9648,-11.3765 7.5298,-23.0569 11.1234,-34.7097 2.7831,-9.4756 5.8268,-18.7536 9.2925,-27.6949 3.037,-7.9417 7.0496,-14.7673 11.4174,-21.0509 3.5606,-4.6883 7.5952,-8.7403 12.1958,-10.6115 0.9546,-0.3882 1.9364,-0.5996 2.9047,-0.8994 6.9233,-1.4079 13.7151,0.9714 20.302,3.9953 7.6416,3.7735 14.6725,9.7013 21.4732,16.098 7.7194,7.389 14.4409,16.7182 20.7975,26.582 6.8996,11.0429 12.9292,23.2278 18.9904,35.3242 5.5844,11.4069 11.3353,22.6203 17.2303,33.6599 4.6996,8.666 9.5873,17.0959 14.6418,25.2873 3.4972,5.6537 7.1834,11.0221 11.3244,15.5751 3.1321,3.338 6.6214,5.3168 10.4,5.9983 3.9993,0.3285 6.5858,-2.0964 9.3738,-6.1589 3.7761,-6.4146 6.031,-14.4384 8.1848,-22.2927 2.9651,-11.7328 5.1055,-23.8944 7.3628,-35.971 2.404,-13.2096 5.2531,-26.2075 8.2546,-39.1265 2.7882,-11.9789 5.9755,-23.7286 9.4267,-35.2988 2.5412,-8.6273 5.5729,-16.8908 9.1207,-24.6512 2.0418,-4.0379 4.147,-8.7012 7.3615,-10.7579 0.5259,-0.3365 1.0922,-0.5051 1.6381,-0.7578 4.9236,-1.1712 8.9469,3.3559 12.6494,7.6572 5.5109,7.0466 10.3145,15.2455 15.2031,23.2516 5.186,8.587 10.1811,17.43 15.1666,26.2839 4.6766,8.2934 9.3341,16.6106 13.9682,24.959 3.701,6.6878 7.266,13.5442 10.8768,20.3435 3.1123,5.7256 6.1606,11.5315 9.3111,17.2094 2.2431,4.1176 4.4918,8.2288 6.9465,12.0613 1.9097,2.9845 4.1027,5.1614 6.7588,6.1828 3.4127,0.6512 5.2127,-3.1248 6.8091,-7.0942 2.6324,-7.5385 4.3882,-15.697 6.2595,-23.7191 2.25,-9.9404 4.4725,-19.895 6.7643,-29.8133 2.2564,-9.9185 4.4756,-19.855 6.9113,-29.6763 2.1849,-9.0801 5.0311,-17.714 8.4269,-25.8766 2.7073,-6.3259 6.0914,-11.6655 10.2927,-15.6703 4.4189,-3.6516 8.1359,-3.5767 12.9076,-1.8636 6.1513,2.8023 11.0797,9.0603 15.7683,15.458 5.7832,8.4503 10.9479,17.8088 16.0749,27.1661 5.0366,9.2426 10.0707,18.4886 15.1279,27.7054 3.4996,6.3844 6.9347,12.8456 10.7283,18.8361 2.6436,4.113 5.5449,7.6945 9.1665,9.5028 3.6534,0.8586 5.7751,-3.2543 7.725,-7.2799 2.4301,-5.7178 4.8128,-11.4755 7.3567,-17.0801 2.4041,-5.3399 5.159,-10.2573 8.1413,-14.8642 2.1481,-3.3134 4.5192,-6.2271 7.2885,-8.232 2.4436,-1.6812 4.79,-1.0725 7.2234,0.2195 2.6983,1.798 5.093,4.4463 7.4201,7.1549 1.9914,2.3108 3.7736,4.9972 5.491,7.7592 1.4162,2.2882 2.7134,4.7374 4.0173,7.172 0.5129,1.0278 1.0993,1.9546 1.6945,2.8703 0,0 0.6346,-0.9525 0.6346,-0.9525 l 0,0 c -0.5758,-0.8833 -1.1419,-1.7791 -1.637,-2.7726 -1.3178,-2.4607 -2.6292,-4.9353 -4.0608,-7.2475 -1.7505,-2.8139 -3.5673,-5.5504 -5.597,-7.9045 -2.4027,-2.7949 -4.877,-5.5248 -7.6696,-7.359 -2.6598,-1.3974 -5.2417,-2 -7.9017,-0.1618 -2.8586,2.0874 -5.322,5.0685 -7.5395,8.5043 -3.0177,4.6639 -5.8066,9.6402 -8.2398,15.0451 -2.5387,5.5935 -4.9192,11.3372 -7.3411,17.0469 -1.6968,3.5157 -3.5192,7.4143 -6.7294,6.7936 -3.4873,-1.7067 -6.2543,-5.2252 -8.8001,-9.1537 -3.7794,-5.9664 -7.1989,-12.406 -10.6856,-18.7642 -5.0572,-9.2167 -10.0911,-18.4624 -15.1278,-27.7047 -5.1545,-9.4075 -10.3475,-18.8157 -16.1644,-27.3076 -4.8023,-6.5484 -9.8561,-12.9274 -16.1607,-15.7689 -5.1325,-1.8187 -8.8343,-1.8375 -13.5866,2.0359 -4.3083,4.1267 -7.7955,9.589 -10.5717,16.0934 -3.4264,8.2419 -6.3025,16.9557 -8.5077,26.1227 -2.438,9.831 -4.6598,19.7768 -6.9181,29.7052 -2.2917,9.9171 -4.5141,19.8702 -6.7636,29.8095 -1.8509,7.9347 -3.587,16.0038 -6.1807,23.4674 -1.3701,3.4353 -2.8544,6.9625 -5.831,6.4836 -2.4987,-0.9292 -4.5399,-3.0265 -6.3351,-5.813 -2.4407,-3.8083 -4.6734,-7.898 -6.9039,-11.9895 -3.1461,-5.6701 -6.1903,-11.4689 -9.2987,-17.1868 -3.6147,-6.807 -7.1839,-13.671 -10.889,-20.3663 -4.6356,-8.3508 -9.2945,-16.6704 -13.9725,-24.9662 -4.9933,-8.8678 -9.9962,-17.7245 -15.1904,-26.3247 -4.9228,-8.0625 -9.7612,-16.3187 -15.3154,-23.407 -3.9488,-4.5762 -8.2212,-9.2317 -13.456,-7.8745 -0.601,0.2883 -1.2241,0.4863 -1.8035,0.8647 -3.333,2.1773 -5.5461,6.9475 -7.6644,11.1725 -3.5769,7.8295 -6.6382,16.1616 -9.2004,24.8647 -3.4615,11.6058 -6.6587,23.3913 -9.4553,35.407 -3.0079,12.9457 -5.8625,25.9706 -8.2716,39.2074 -2.2478,12.0253 -4.3785,24.1355 -7.3282,35.8202 -2.1058,7.6837 -4.3042,15.5416 -7.9801,21.8375 -2.5762,3.7841 -4.9343,6.0731 -8.6509,5.789 -3.628,-0.6381 -6.973,-2.5542 -9.9812,-5.7503 -4.0967,-4.4978 -7.7359,-9.8169 -11.1961,-15.4038 -5.0403,-8.1675 -9.9136,-16.5735 -14.5999,-25.2142 -5.8893,-11.0288 -11.6342,-22.2313 -17.2133,-33.6269 -6.0834,-12.1411 -12.1363,-24.3698 -19.0626,-35.4516 -6.4079,-9.9405 -13.1842,-19.3407 -20.9655,-26.7861 -6.8673,-6.4573 -13.9679,-12.4382 -21.685,-16.2431 -6.7297,-3.085 -13.6683,-5.4927 -20.7391,-4.0256 -1.0037,0.3143 -2.0216,0.5372 -3.0106,0.9429 -4.7228,1.9366 -8.8689,6.09 -12.5244,10.9117 -4.4272,6.3729 -8.4936,13.2954 -11.5728,21.3473 -3.4791,8.9784 -6.5375,18.2927 -9.3315,27.8075 -3.5865,11.6303 -7.1444,23.2885 -11.1014,34.6433 -4.2909,12.1388 -8.7358,24.1708 -13.8182,35.597 -3.974,8.6669 -8.1182,17.3074 -13.588,23.9679 -4.2322,4.811 -8.7638,9.0427 -14.0203,10.66 -5.1377,1.23 -9.4844,0.5847 -14.3189,-2.511 -4.9898,-3.3537 -9.7153,-7.485 -13.8711,-12.9083 -4.891,-6.4109 -9.3292,-13.5345 -13.4246,-21.1249 -5.2836,-9.6943 -10.4449,-19.5374 -15.5974,-29.3924 -6.1964,-11.5319 -12.4073,-23.0574 -19.0703,-33.9822 -6.8051,-11.1433 -13.8536,-21.9265 -21.1662,-32.3049 -6.5312,-9.4246 -13.0496,-18.8903 -19.9343,-27.7232 -5.8688,-7.1034 -12.0254,-13.7827 -19.2863,-17.1818 -6.5876,-2.7193 -13.0571,-3.9006 -19.8233,-1.7467 -6.8028,2.3975 -13.2049,6.4204 -18.933,12.5872 -6.4436,6.9818 -12.412,14.8738 -17.3221,24.3698 -5.501,10.6904 -10.36274,22.0398 -14.75094,33.861 -4.4938,11.468 -9.1412,22.8153 -14.4612,33.4551 -4.4519,8.96 -9.0293,17.807 -14.2408,25.7917 -4.1124,6.1117 -8.4085,12.0011 -13.7093,15.6555 -4.3211,2.7934 -8.8012,4.8166 -13.5465,4.7867 -4.5438,-0.1445 -8.9757,-1.3305 -13.2232,-3.8725 -4.325,-2.5191 -8.5335,-5.4877 -12.2839,-9.6759 -4.6868,-5.1857 -9.0792,-10.9286 -13.3845,-16.8235 -5.8529,-8.1135 -11.5583,-16.4686 -17.3959,-24.608 -6.3012,-8.7892 -12.6251,-17.541 -18.8746,-26.4152 -7.1203,-9.9972 -14.208,-20.0696 -21.7035,-29.4224 -7.4651,-9.0164 -15.1772,-17.764 -24.0925,-23.2293 -6.8503,-3.918 -13.9475,-6.9503 -21.3512,-5.8373 -6.4601,1.3241 -11.9274,3.9849 -17.1637,10.1147 -5.1878,6.4152 -9.6026,13.9954 -13.5522,22.1919 -4.1897,8.4081 -8.4711,16.7095 -12.6356,25.147 -4.1276,8.5631 -8.0594,17.3269 -11.8774,26.2152 -3.9004,8.9337 -7.6716,18.004 -11.7988,26.7031 -3.5372,7.1961 -7.2134,14.3602 -11.7425,20.1956 -3.7214,4.2409 -7.7762,7.4985 -12.3817,8.9096 -4.5559,1.3917 -9.1709,1.9985 -13.7998,0.9678 -5.5183,-1.3644 -10.8382,-3.8103 -15.9052,-7.4461 -6.16909,-4.1026 -12.25589,-8.4871 -18.46459,-12.4514 -6.1227,-3.8607 -12.2425,-7.7434 -18.2211,-12.1008 -6.3961,-4.6627 -12.6915,-9.6151 -18.8962,-14.8425 -5.9254,-4.9063 -11.8216,-9.894 -17.763,-14.7558 -4.9963,-4.0981 -9.9997,-8.2214 -15.2064,-11.6755 -3.5204,-2.121 -7.1322,-4.0888 -10.9576,-4.3239 -1.7603,0.049 -3.525,0.3132 -5.1268,1.5179 0,0 0.3517,1.2453 0.3517,1.2453 z" />
    <path
       style="color:#000000;clip-rule:nonzero;display:inline;overflow:visible;visibility:visible;opacity:0.781;isolation:auto;mix-blend-mode:normal;color-interpolation:sRGB;color-interpolation-filters:linearRGB;solid-color:#000000;solid-opacity:1;fill:#ff0000;fill-opacity:1;fill-rule:nonzero;stroke:#ff0000;stroke-width:2.00110102;stroke-linecap:butt;stroke-linejoin:miter;stroke-miterlimit:4;stroke-dasharray:none;stroke-dashoffset:0;stroke-opacity:1;color-rendering:auto;image-rendering:auto;shape-rendering:auto;text-rendering:auto;enable-background:accumulate"
       id="path4174-80-0-1-97-5"
       d="m 560.93098,7324.5264 c 1.4953,1.1303 3.1445,1.3729 4.7893,1.4085 3.7059,-0.2506 7.2034,-2.1711 10.6142,-4.2285 5.1735,-3.4372 10.146,-7.5353 15.1116,-11.6083 5.9404,-4.861 11.8354,-9.8477 17.7599,-14.7533 6.218,-5.2387 12.5273,-10.2014 18.9373,-14.8743 5.9928,-4.3681 12.1276,-8.2607 18.2649,-12.1307 6.2034,-3.9618 12.2853,-8.342 18.44899,-12.4411 5.1349,-3.684 10.528,-6.1554 16.1195,-7.5424 4.735,-1.0593 9.4572,-0.4423 14.119,0.9767 4.7374,1.4484 8.9092,4.8 12.741,9.1537 4.6021,5.9062 8.3339,13.1705 11.9223,20.4693 4.1381,8.7186 7.9182,17.8103 11.8277,26.765 3.8106,8.8706 7.7342,17.6175 11.8539,26.1636 4.1617,8.4314 8.4398,16.7274 12.627,25.1296 3.9095,8.1047 8.2678,15.6187 13.4036,21.9586 5.1034,5.9647 10.4264,8.5453 16.7194,9.8228 7.2549,1.0751 14.2079,-1.9177 20.9179,-5.7623 8.8263,-5.4199 16.4598,-14.0922 23.8515,-23.0218 7.4779,-9.3327 14.5493,-19.3824 21.6533,-29.3568 6.2502,-8.8753 12.5748,-17.6282 18.8771,-26.4182 5.8377,-8.1408 11.5441,-16.4963 17.3977,-24.6109 4.3287,-5.9296 8.7477,-11.7014 13.4604,-16.9178 3.8138,-4.2594 8.0923,-7.282 12.4898,-9.8459 4.3436,-2.6009 8.8773,-3.8069 13.5237,-3.9621 4.873,-0.037 9.4756,2.0321 13.9149,4.8944 5.4054,3.7162 9.7914,9.7055 13.98409,15.934 5.2441,8.0311 9.8501,16.9303 14.3288,25.9439 5.34,10.6792 10.0053,22.068 14.516,33.5784 4.3702,11.7708 9.2081,23.0755 14.687,33.7196 4.85774,9.3921 10.76194,17.1977 17.13744,24.101 5.633,6.0597 11.9256,10.0223 18.6159,12.3702 6.5328,2.1102 13.0265,0.9021 19.3878,-1.7339 7.1403,-3.3568 13.1921,-9.9435 18.9645,-16.934 6.8639,-8.8098 13.3634,-18.2483 19.8757,-27.6459 7.2993,-10.3589 14.3346,-21.1214 21.1267,-32.2441 6.6501,-10.904 12.8486,-22.4077 19.0333,-33.9174 5.1537,-9.8576 10.3167,-19.7029 15.6011,-29.3996 4.1266,-7.6504 8.6019,-14.8239 13.5292,-21.2866 4.2217,-5.5125 9.0239,-9.7097 14.0926,-13.1217 5.0901,-3.2172 9.4133,-3.8846 14.8182,-2.6109 5.4044,1.6445 10.0653,5.975 14.4168,10.9138 5.5502,6.7425 9.7565,15.4934 13.7859,24.2786 5.1025,11.4685 9.5648,23.5458 13.8721,35.7303 3.9648,11.3765 7.5298,23.0569 11.1234,34.7097 2.7831,9.4756 5.8268,18.7536 9.2925,27.6949 3.037,7.9417 7.0496,14.7673 11.4174,21.0509 3.5606,4.6883 7.5952,8.7403 12.1958,10.6115 0.9546,0.3882 1.9364,0.5996 2.9047,0.8994 6.9233,1.4079 13.7151,-0.9714 20.302,-3.9953 7.6416,-3.7735 14.6725,-9.7013 21.4732,-16.098 7.7194,-7.389 14.4409,-16.7182 20.7975,-26.582 6.8996,-11.0429 12.9292,-23.2278 18.9904,-35.3242 5.5844,-11.4069 11.3353,-22.6203 17.2303,-33.6599 4.6996,-8.666 9.5873,-17.0959 14.6418,-25.2873 3.4972,-5.6537 7.1834,-11.0221 11.3244,-15.5751 3.1321,-3.338 6.6214,-5.3168 10.4,-5.9983 3.9993,-0.3285 6.5858,2.0964 9.3738,6.1589 3.7761,6.4146 6.031,14.4384 8.1848,22.2927 2.9651,11.7328 5.1055,23.8944 7.3628,35.971 2.404,13.2096 5.2531,26.2075 8.2546,39.1265 2.7882,11.9789 5.9755,23.7286 9.4267,35.2988 2.5412,8.6273 5.5729,16.8908 9.1207,24.6512 2.0418,4.0379 4.147,8.7012 7.3615,10.7579 0.5259,0.3365 1.0922,0.5051 1.6381,0.7578 4.9236,1.1712 8.9469,-3.3559 12.6494,-7.6572 5.5109,-7.0466 10.3145,-15.2455 15.2031,-23.2516 5.186,-8.587 10.1811,-17.43 15.1666,-26.2839 4.6766,-8.2934 9.3341,-16.6106 13.9682,-24.959 3.701,-6.6878 7.266,-13.5442 10.8768,-20.3435 3.1123,-5.7256 6.1606,-11.5315 9.3111,-17.2094 2.2431,-4.1176 4.4918,-8.2288 6.9465,-12.0613 1.9097,-2.9845 4.1027,-5.1614 6.7588,-6.1828 3.4127,-0.6512 5.2127,3.1248 6.8091,7.0942 2.6324,7.5385 4.3882,15.697 6.2595,23.7191 2.25,9.9404 4.4725,19.895 6.7643,29.8133 2.2564,9.9185 4.4756,19.855 6.9113,29.6763 2.1849,9.0801 5.0311,17.714 8.4269,25.8766 2.7073,6.3259 6.0914,11.6655 10.2927,15.6703 4.4189,3.6516 8.1359,3.5767 12.9076,1.8636 6.1513,-2.8023 11.0797,-9.0603 15.7683,-15.458 5.7832,-8.4503 10.9479,-17.8088 16.0749,-27.1661 5.0366,-9.2426 10.0707,-18.4886 15.1279,-27.7054 3.4996,-6.3844 6.9347,-12.8456 10.7283,-18.8361 2.6436,-4.113 5.5449,-7.6945 9.1665,-9.5028 3.6534,-0.8586 5.7751,3.2543 7.725,7.2799 2.4301,5.7178 4.8128,11.4755 7.3567,17.0801 2.4041,5.3399 5.159,10.2573 8.1413,14.8642 2.1481,3.3134 4.5192,6.2271 7.2885,8.232 2.4436,1.6812 4.79,1.0725 7.2234,-0.2195 2.6983,-1.798 5.093,-4.4463 7.4201,-7.1549 1.9914,-2.3108 3.7736,-4.9972 5.491,-7.7592 1.4162,-2.2882 2.7134,-4.7374 4.0173,-7.172 0.5129,-1.0278 1.0993,-1.9546 1.6945,-2.8703 0,0 0.6346,0.9525 0.6346,0.9525 l 0,0 c -0.5758,0.8833 -1.1419,1.7791 -1.637,2.7726 -1.3178,2.4607 -2.6292,4.9353 -4.0608,7.2475 -1.7505,2.8139 -3.5673,5.5504 -5.597,7.9045 -2.4027,2.7949 -4.877,5.5248 -7.6696,7.359 -2.6598,1.3974 -5.2417,2 -7.9017,0.1618 -2.8586,-2.0874 -5.322,-5.0685 -7.5395,-8.5043 -3.0177,-4.6639 -5.8066,-9.6402 -8.2398,-15.0451 -2.5387,-5.5935 -4.9192,-11.3372 -7.3411,-17.0469 -1.6968,-3.5157 -3.5192,-7.4143 -6.7294,-6.7936 -3.4873,1.7067 -6.2543,5.2252 -8.8001,9.1537 -3.7794,5.9664 -7.1989,12.406 -10.6856,18.7642 -5.0572,9.2167 -10.0911,18.4624 -15.1278,27.7047 -5.1545,9.4075 -10.3475,18.8157 -16.1644,27.3076 -4.8023,6.5484 -9.8561,12.9274 -16.1607,15.7689 -5.1325,1.8187 -8.8343,1.8375 -13.5866,-2.0359 -4.3083,-4.1267 -7.7955,-9.589 -10.5717,-16.0934 -3.4264,-8.2419 -6.3025,-16.9557 -8.5077,-26.1227 -2.438,-9.831 -4.6598,-19.7768 -6.9181,-29.7052 -2.2917,-9.9171 -4.5141,-19.8702 -6.7636,-29.8095 -1.8509,-7.9347 -3.587,-16.0038 -6.1807,-23.4674 -1.3701,-3.4353 -2.8544,-6.9625 -5.831,-6.4836 -2.4987,0.9292 -4.5399,3.0265 -6.3351,5.813 -2.4407,3.8083 -4.6734,7.898 -6.9039,11.9895 -3.1461,5.6701 -6.1903,11.4689 -9.2987,17.1868 -3.6147,6.807 -7.1839,13.671 -10.889,20.3663 -4.6356,8.3508 -9.2945,16.6704 -13.9725,24.9662 -4.9933,8.8678 -9.9962,17.7245 -15.1904,26.3247 -4.9228,8.0625 -9.7612,16.3187 -15.3154,23.407 -3.9488,4.5762 -8.2212,9.2317 -13.456,7.8745 -0.601,-0.2883 -1.2241,-0.4863 -1.8035,-0.8647 -3.333,-2.1773 -5.5461,-6.9475 -7.6644,-11.1725 -3.5769,-7.8295 -6.6382,-16.1616 -9.2004,-24.8647 -3.4615,-11.6058 -6.6587,-23.3913 -9.4553,-35.407 -3.0079,-12.9457 -5.8625,-25.9706 -8.2716,-39.2074 -2.2478,-12.0253 -4.3785,-24.1355 -7.3282,-35.8202 -2.1058,-7.6837 -4.3042,-15.5416 -7.9801,-21.8375 -2.5762,-3.7841 -4.9343,-6.0731 -8.6509,-5.789 -3.628,0.6381 -6.973,2.5542 -9.9812,5.7503 -4.0967,4.4978 -7.7359,9.8169 -11.1961,15.4038 -5.0403,8.1675 -9.9136,16.5735 -14.5999,25.2142 -5.8893,11.0288 -11.6342,22.2313 -17.2133,33.6269 -6.0834,12.1411 -12.1363,24.3698 -19.0626,35.4516 -6.4079,9.9405 -13.1842,19.3407 -20.9655,26.7861 -6.8673,6.4573 -13.9679,12.4382 -21.685,16.2431 -6.7297,3.085 -13.6683,5.4927 -20.7391,4.0256 -1.0037,-0.3143 -2.0216,-0.5372 -3.0106,-0.9429 -4.7228,-1.9366 -8.8689,-6.09 -12.5244,-10.9117 -4.4272,-6.3729 -8.4936,-13.2954 -11.5728,-21.3473 -3.4791,-8.9784 -6.5375,-18.2927 -9.3315,-27.8075 -3.5865,-11.6303 -7.1444,-23.2885 -11.1014,-34.6433 -4.2909,-12.1388 -8.7358,-24.1708 -13.8182,-35.597 -3.974,-8.6669 -8.1182,-17.3074 -13.588,-23.9679 -4.2322,-4.811 -8.7638,-9.0427 -14.0203,-10.66 -5.1377,-1.23 -9.4844,-0.5847 -14.3189,2.511 -4.9898,3.3537 -9.7153,7.485 -13.8711,12.9083 -4.891,6.4109 -9.3292,13.5345 -13.4246,21.1249 -5.2836,9.6943 -10.4449,19.5374 -15.5974,29.3924 -6.1964,11.5319 -12.4073,23.0574 -19.0703,33.9822 -6.8051,11.1433 -13.8536,21.9265 -21.1662,32.3049 -6.5312,9.4246 -13.0496,18.8903 -19.9343,27.7232 -5.8688,7.1034 -12.0254,13.7827 -19.2863,17.1818 -6.5876,2.7193 -13.0571,3.9006 -19.8233,1.7467 -6.8028,-2.3975 -13.2049,-6.4204 -18.933,-12.5872 -6.4436,-6.9818 -12.412,-14.8738 -17.32214,-24.3698 -5.501,-10.6904 -10.3627,-22.0398 -14.7509,-33.861 -4.4938,-11.468 -9.1412,-22.8153 -14.4612,-33.4551 -4.4519,-8.96 -9.0293,-17.807 -14.2408,-25.7917 -4.11239,-6.1117 -8.40849,-12.0011 -13.70929,-15.6555 -4.3211,-2.7934 -8.8012,-4.8166 -13.5465,-4.7867 -4.5438,0.1445 -8.9757,1.3305 -13.2232,3.8725 -4.325,2.5191 -8.5335,5.4877 -12.2839,9.6759 -4.6868,5.1857 -9.0792,10.9286 -13.3845,16.8235 -5.8529,8.1135 -11.5583,16.4686 -17.3959,24.608 -6.3012,8.7892 -12.6251,17.541 -18.8746,26.4152 -7.1203,9.9972 -14.208,20.0696 -21.7035,29.4224 -7.4651,9.0164 -15.1772,17.764 -24.0925,23.2293 -6.8503,3.918 -13.9475,6.9503 -21.3512,5.8373 -6.4601,-1.3241 -11.9274,-3.9849 -17.1637,-10.1147 -5.1878,-6.4152 -9.6026,-13.9954 -13.5522,-22.1919 -4.1897,-8.4081 -8.4711,-16.7095 -12.6356,-25.147 -4.1276,-8.5631 -8.0594,-17.3269 -11.8774,-26.2152 -3.9004,-8.9337 -7.6716,-18.004 -11.7988,-26.7031 -3.5372,-7.1961 -7.2134,-14.3602 -11.7425,-20.1956 -3.7214,-4.2409 -7.7762,-7.4985 -12.3817,-8.9096 -4.5559,-1.3917 -9.1709,-1.9985 -13.7998,-0.9678 -5.5183,1.3644 -10.8382,3.8103 -15.9052,7.4461 -6.16909,4.1026 -12.25589,8.4871 -18.46459,12.4514 -6.1227,3.8607 -12.2425,7.7434 -18.2211,12.1008 -6.3961,4.6627 -12.6915,9.6151 -18.8962,14.8425 -5.9254,4.9063 -11.8216,9.894 -17.763,14.7558 -4.9963,4.0981 -9.9997,8.2214 -15.2064,11.6755 -3.5204,2.121 -7.1322,4.0888 -10.9576,4.3239 -1.7603,-0.049 -3.525,-0.3132 -5.1268,-1.5179 0,0 0.3517,-1.2453 0.3517,-1.2453 z" />
    <rect
       ry="2.1870048"
       rx="4.0661454"
       y="7212.457"
       x="466.10349"
       height="199.06335"
       width="140.96297"
       id="rect11025-8"
       style="color:#000000;clip-rule:nonzero;display:inline;overflow:visible;visibility:visible;opacity:1;isolation:auto;mix-blend-mode:normal;color-interpolation:sRGB;color-interpolation-filters:linearRGB;solid-color:#000000;solid-opacity:1;fill:#ffffff;fill-opacity:1;fill-rule:nonzero;stroke:none;stroke-width:0.8864553;stroke-linecap:round;stroke-linejoin:miter;stroke-miterlimit:20;stroke-dasharray:none;stroke-dashoffset:0;stroke-opacity:1;color-rendering:auto;image-rendering:auto;shape-rendering:auto;text-rendering:auto;enable-background:accumulate" />
    <g
       transform="translate(244.97973,7147.9138)"
       style="font-style:normal;font-weight:normal;font-size:22.08024597px;line-height:125%;font-family:sans-serif;text-align:center;letter-spacing:0px;word-spacing:0px;text-anchor:middle;fill:#4d4d4d;fill-opacity:1;stroke:none;stroke-width:1px;stroke-linecap:butt;stroke-linejoin:miter;stroke-opacity:1"
       id="flowRoot4242-6-5-4-6-4-2-2-8">
      <path
         d="m 139.59925,154.73547 0,-12.64654 q 0,-0.48516 0.33422,-0.83017 0.33422,-0.345 0.79782,-0.345 l 8.34478,0 q 0.4636,0 0.78704,0.345 0.33423,0.34501 0.33423,0.83017 0,0.50672 -0.33423,0.85173 -0.32344,0.33422 -0.78704,0.33422 l -7.20195,0 0,3.74113 6.25319,0 q 0.4636,0 0.78704,0.34501 0.33423,0.33422 0.33423,0.84094 0,0.48517 -0.33423,0.83017 -0.32344,0.345 -0.78704,0.345 l -6.25319,0 0,4.19396 7.15883,0 q 0.4636,0 0.79782,0.345 0.345,0.33422 0.345,0.81938 0,0.50673 -0.345,0.85173 -0.33422,0.34501 -0.79782,0.34501 l -8.30166,0 q -0.4636,0 -0.79782,-0.33423 -0.33422,-0.345 -0.33422,-0.86251 z"
         style="font-style:normal;font-variant:normal;font-weight:bold;font-stretch:normal;font-family:'Comic Neue';-inkscape-font-specification:'Comic Neue Bold';text-align:center;text-anchor:middle;fill:#4d4d4d"
         id="path4145" />
      <path
         d="m 152.96815,154.75704 0,-8.74369 q 0,-0.48517 0.345,-0.81939 0.34501,-0.345 0.83017,-0.345 0.48516,0 0.81938,0.345 0.34501,0.33422 0.34501,0.81939 l 0,0.35578 q 0.1725,-0.19406 0.35578,-0.35578 0.19407,-0.17251 0.37735,-0.34501 1.21829,-1.05657 2.36112,-1.06735 1.0997,0 1.83283,0.53907 0.54985,0.37734 0.90564,1.03501 0.48516,-0.52829 1.07813,-0.88408 1.0997,-0.67922 2.05925,-0.69 1.39079,0 2.23174,0.88407 1.05657,1.05657 1.05657,3.34222 l 0,5.92976 q 0,0.48516 -0.345,0.83016 -0.345,0.34501 -0.83017,0.34501 -0.48516,0 -0.83016,-0.33423 -0.33422,-0.345 -0.33422,-0.84094 l 0,-6.06991 q 0,-0.35579 -0.0755,-0.88408 -0.0647,-0.52828 -0.30188,-0.8086 -0.19407,-0.19406 -0.57141,-0.20485 -0.26954,0 -0.72236,0.20485 -0.45281,0.19407 -0.87329,0.57141 -0.35578,0.31266 -0.67922,0.83017 -0.31266,0.5175 -0.31266,1.28298 l 0,5.07803 q 0,0.48516 -0.34501,0.83016 -0.33422,0.34501 -0.81938,0.34501 -0.48516,0 -0.83017,-0.33423 -0.345,-0.345 -0.345,-0.84094 l 0,-6.06991 q 0,-0.35579 -0.0647,-0.88408 -0.0647,-0.52828 -0.31266,-0.8086 -0.19406,-0.19406 -0.57141,-0.20485 -0.37735,0 -1.20751,0.62532 -0.81939,0.61454 -1.72502,2.11315 -0.0862,0.12938 -0.12938,0.30188 -0.0323,0.16172 -0.0323,0.22641 l 0,4.70068 q 0,0.48516 -0.34501,0.83016 -0.33422,0.34501 -0.81938,0.34501 -0.48516,0 -0.83017,-0.33423 -0.345,-0.345 -0.345,-0.84094 z"
         style="font-style:normal;font-variant:normal;font-weight:bold;font-stretch:normal;font-family:'Comic Neue';-inkscape-font-specification:'Comic Neue Bold';text-align:center;text-anchor:middle;fill:#4d4d4d"
         id="path4147" />
      <path
         d="m 170.12131,150.32589 q 0.0647,-1.07813 0.48516,-2.05924 0.42048,-0.99188 1.15361,-1.75736 0.73313,-0.79782 1.6172,-1.2183 0.89486,-0.42047 1.8544,-0.42047 0.84095,0 1.60642,0.31266 0.77626,0.30188 1.3908,0.9272 0.84095,0.81938 1.23986,1.95143 0.32344,0.90563 0.32344,1.91908 0,0.24797 -0.0216,0.49594 -0.0862,1.0997 -0.50673,2.09159 -0.42047,0.9811 -1.12126,1.74658 -0.73313,0.79782 -1.62799,1.2183 -0.89485,0.42047 -1.86517,0.42047 -0.84095,0 -1.61721,-0.31266 -0.76548,-0.32344 -1.38002,-0.94876 -0.81938,-0.79782 -1.21829,-1.92987 -0.32344,-0.92719 -0.32344,-1.97299 0,-0.22641 0.0108,-0.4636 z m 2.35034,0.15094 q -0.0108,0.12938 0,0.25876 0,0.66844 0.18328,1.2722 0.22641,0.71157 0.66845,1.16439 0.54985,0.57141 1.32611,0.57141 0.46359,0 0.93797,-0.23719 0.47439,-0.24797 0.8733,-0.73313 0.42047,-0.48517 0.65766,-1.12127 0.24797,-0.64688 0.2911,-1.32611 0.0108,-0.10781 0.0108,-0.21562 -0.0108,-0.64689 -0.22641,-1.2722 -0.25875,-0.73314 -0.73313,-1.22908 -0.59298,-0.54985 -1.32611,-0.54985 -0.97033,0 -1.7358,0.97032 -0.39891,0.48516 -0.64689,1.13205 -0.23719,0.6361 -0.28031,1.31532 z"
         style="font-style:normal;font-variant:normal;font-weight:bold;font-stretch:normal;font-family:'Comic Neue';-inkscape-font-specification:'Comic Neue Bold';text-align:center;text-anchor:middle;fill:#4d4d4d"
         id="path4149" />
      <path
         d="m 181.34471,145.97022 q 0,-0.48516 0.33423,-0.81938 0.345,-0.34501 0.84094,-0.34501 l 1.52018,0 0,-2.2533 q 0,-0.48517 0.32344,-0.81939 0.33422,-0.33422 0.84094,-0.33422 0.48517,0 0.81939,0.33422 0.33422,0.33422 0.33422,0.81939 l 0,2.2533 1.52017,0 q 0.50673,0 0.84095,0.34501 0.33422,0.33422 0.33422,0.81938 0,0.50673 -0.33422,0.84095 -0.33422,0.33422 -0.84095,0.33422 l -1.52017,0 0,7.64399 q 0,0.48516 -0.33422,0.81939 -0.33422,0.32344 -0.81939,0.32344 -0.50672,0 -0.84094,-0.32344 -0.32344,-0.33423 -0.32344,-0.81939 l 0,-7.64399 -1.52018,0 q -0.48516,0 -0.83016,-0.33422 -0.34501,-0.33422 -0.34501,-0.84095 z"
         style="font-style:normal;font-variant:normal;font-weight:bold;font-stretch:normal;font-family:'Comic Neue';-inkscape-font-specification:'Comic Neue Bold';text-align:center;text-anchor:middle;fill:#4d4d4d"
         id="path4151" />
      <path
         d="m 190.91857,154.78938 0,-8.70056 q 0,-0.50673 0.35579,-0.85173 0.35578,-0.34501 0.8625,-0.34501 0.50673,0 0.85173,0.34501 0.35579,0.33422 0.35579,0.85173 l -0.0431,8.70056 q 0,0.50673 -0.345,0.85173 -0.33422,0.33422 -0.84095,0.33422 -0.50672,0 -0.85173,-0.33422 -0.345,-0.345 -0.345,-0.85173 z m 0.0863,-12.21529 0.0431,-0.7547 q 0,-0.48516 0.345,-0.81938 0.345,-0.345 0.83017,-0.345 0.48516,0 0.81938,0.345 0.345,0.33422 0.345,0.81938 l -0.0431,0.7547 q 0,0.48516 -0.34501,0.83016 -0.33422,0.34501 -0.81938,0.34501 -0.48516,0 -0.83017,-0.34501 -0.345,-0.345 -0.345,-0.83016 z"
         style="font-style:normal;font-variant:normal;font-weight:bold;font-stretch:normal;font-family:'Comic Neue';-inkscape-font-specification:'Comic Neue Bold';text-align:center;text-anchor:middle;fill:#4d4d4d"
         id="path4153" />
      <path
         d="m 195.95347,150.32589 q 0.0647,-1.07813 0.48516,-2.05924 0.42048,-0.99188 1.15361,-1.75736 0.73313,-0.79782 1.6172,-1.2183 0.89486,-0.42047 1.8544,-0.42047 0.84095,0 1.60642,0.31266 0.77626,0.30188 1.3908,0.9272 0.84095,0.81938 1.23986,1.95143 0.32344,0.90563 0.32344,1.91908 0,0.24797 -0.0216,0.49594 -0.0863,1.0997 -0.50673,2.09159 -0.42047,0.9811 -1.12126,1.74658 -0.73313,0.79782 -1.62799,1.2183 -0.89485,0.42047 -1.86517,0.42047 -0.84095,0 -1.61721,-0.31266 -0.76548,-0.32344 -1.38001,-0.94876 -0.81939,-0.79782 -1.2183,-1.92987 -0.32344,-0.92719 -0.32344,-1.97299 0,-0.22641 0.0108,-0.4636 z m 2.35034,0.15094 q -0.0108,0.12938 0,0.25876 0,0.66844 0.18328,1.2722 0.22641,0.71157 0.66845,1.16439 0.54985,0.57141 1.32611,0.57141 0.4636,0 0.93798,-0.23719 0.47438,-0.24797 0.87329,-0.73313 0.42047,-0.48517 0.65766,-1.12127 0.24797,-0.64688 0.2911,-1.32611 0.0108,-0.10781 0.0108,-0.21562 -0.0108,-0.64689 -0.22641,-1.2722 -0.25875,-0.73314 -0.73313,-1.22908 -0.59298,-0.54985 -1.32611,-0.54985 -0.97033,0 -1.7358,0.97032 -0.39891,0.48516 -0.64688,1.13205 -0.23719,0.6361 -0.28032,1.31532 z"
         style="font-style:normal;font-variant:normal;font-weight:bold;font-stretch:normal;font-family:'Comic Neue';-inkscape-font-specification:'Comic Neue Bold';text-align:center;text-anchor:middle;fill:#4d4d4d"
         id="path4155" />
      <path
         d="m 208.16876,154.75704 0,-8.28009 0,-0.65767 q 0,-0.48516 0.345,-0.83016 0.34501,-0.34501 0.83017,-0.34501 0.48516,0 0.81938,0.34501 0.34501,0.345 0.34501,0.83016 l 0,0.69001 q 0.0863,-0.10781 0.16172,-0.19407 0.0863,-0.097 0.19406,-0.20484 0.61454,-0.61454 1.36924,-0.94876 0.75469,-0.33422 1.63877,-0.33422 1.21829,0 2.00533,0.65766 0.7547,0.61454 1.07814,1.89752 0.24797,0.9272 0.29109,2.24253 0.0431,1.31532 0.0431,3.29909 l 0,1.2183 q 0,0.31266 0.0216,0.61454 0,0.48516 -0.345,0.83016 -0.33422,0.34501 -0.8086,0.34501 -0.48517,0 -0.83017,-0.33423 -0.33422,-0.345 -0.33422,-0.84094 -0.0216,-0.33423 -0.0216,-0.65767 l 0,-1.14282 q 0,-1.61721 -0.0324,-2.93253 -0.0323,-1.31533 -0.21563,-2.08081 -0.15094,-0.57141 -0.33422,-0.69001 -0.1725,-0.12937 -0.5175,-0.12937 -0.21563,0 -0.48517,0.0539 -0.26953,0.0539 -0.57141,0.26954 -0.2911,0.20484 -0.6361,0.60376 -0.345,0.39891 -0.70079,1.05657 -0.44203,0.84095 -0.71157,1.88674 -0.25875,1.03501 -0.25875,2.00533 l -0.0216,1.75737 q 0,0.48516 -0.34501,0.83016 -0.33422,0.34501 -0.81938,0.34501 -0.48516,0 -0.81939,-0.33423 -0.33422,-0.345 -0.33422,-0.84094 z"
         style="font-style:normal;font-variant:normal;font-weight:bold;font-stretch:normal;font-family:'Comic Neue';-inkscape-font-specification:'Comic Neue Bold';text-align:center;text-anchor:middle;fill:#4d4d4d"
         id="path4157" />
      <path
         d="m 219.90968,151.78138 q -0.0431,-0.32344 -0.0431,-0.66845 0,-0.39891 0.0647,-0.83016 0.10781,-0.79782 0.33422,-1.55252 0.31266,-0.94876 0.86251,-1.70346 0.54985,-0.76547 1.26142,-1.29376 1.14283,-0.88407 2.73847,-0.88407 0.59298,0 1.11048,0.10781 0.51751,0.10782 0.91642,0.24797 0.39891,0.12938 0.65766,0.26954 0.26954,0.12937 0.33422,0.15094 0.12938,0.0862 0.32344,0.29109 0.19407,0.19407 0.19407,0.59298 l 0,4.36645 q 0,1.76815 0.0216,3.9352 l 0,0.23719 q 0,0.48517 -0.345,0.83017 -0.34501,0.345 -0.83017,0.345 -0.39891,0 -0.70079,-0.23719 -0.29109,-0.22641 -0.39891,-0.60375 l -0.0431,0.0216 q -0.4636,0.19406 -1.05658,0.35578 -0.58219,0.15094 -1.1536,0.15094 l -0.0863,0 q -1.70346,-0.0431 -2.8355,-1.17517 -1.12127,-1.14282 -1.32611,-2.95409 z m 2.35034,-0.26954 q 0.0216,0.17251 0.097,0.51751 0.0755,0.345 0.26953,0.70079 0.20485,0.35578 0.54985,0.61454 0.35579,0.24797 0.93798,0.26953 l 0.0431,0 q 0.61453,0 1.39079,-0.39891 0.24797,-0.10781 0.43126,-0.21563 0.18328,-0.11859 0.33422,-0.2264 0,-0.26954 0,-0.74392 0,-0.47438 0.0108,-1.06735 0.0108,-0.59298 0.0216,-1.28299 0.0216,-0.70079 0.0431,-1.41236 l 0,-0.88407 q -0.12938,-0.0431 -0.28032,-0.0755 -0.14015,-0.0323 -0.30187,-0.0755 -0.33423,-0.0647 -0.6361,-0.0647 l -0.0431,0 q -0.77626,0 -1.32611,0.39891 -0.54985,0.42048 -0.86251,0.94876 -0.31266,0.52829 -0.44203,0.97033 -0.17251,0.50672 -0.23719,1.04579 -0.0324,0.28032 -0.0324,0.53907 0.0108,0.22641 0.0324,0.44203 z"
         style="font-style:normal;font-variant:normal;font-weight:bold;font-stretch:normal;font-family:'Comic Neue';-inkscape-font-specification:'Comic Neue Bold';text-align:center;text-anchor:middle;fill:#4d4d4d"
         id="path4159" />
      <path
         d="m 231.54278,154.75704 0,-12.87296 q 0,-0.48516 0.345,-0.81938 0.345,-0.34501 0.83017,-0.34501 0.50672,0 0.83016,0.34501 0.33422,0.33422 0.33422,0.81938 l 0,12.87296 q 0,0.50672 -0.33422,0.84094 -0.32344,0.33423 -0.83016,0.33423 -0.48517,0 -0.83017,-0.32344 -0.345,-0.33423 -0.345,-0.85173 z"
         style="font-style:normal;font-variant:normal;font-weight:bold;font-stretch:normal;font-family:'Comic Neue';-inkscape-font-specification:'Comic Neue Bold';text-align:center;text-anchor:middle;fill:#4d4d4d"
         id="path4161" />
      <path
         d="m 243.94135,154.81094 q 0,-0.48516 0.32344,-0.81938 0.33422,-0.33422 0.79782,-0.33422 l 1.36924,0 0,-10.51184 -1.36924,0 q -0.4636,0 -0.79782,-0.32344 -0.32344,-0.33422 -0.32344,-0.79782 0,-0.48516 0.32344,-0.81938 0.33422,-0.33423 0.79782,-0.33423 l 4.99178,0 q 0.46359,0 0.79782,0.33423 0.33422,0.33422 0.33422,0.81938 0,0.4636 -0.33422,0.79782 -0.33423,0.32344 -0.79782,0.32344 l -1.34768,0 0,10.51184 1.34768,0 q 0.46359,0 0.79782,0.33422 0.33422,0.32344 0.33422,0.81938 0,0.4636 -0.33422,0.79783 -0.33423,0.32344 -0.79782,0.32344 l -4.99178,0 q -0.4636,0 -0.79782,-0.32344 -0.32344,-0.33423 -0.32344,-0.79783 z"
         style="font-style:normal;font-variant:normal;font-weight:bold;font-stretch:normal;font-family:'Comic Neue';-inkscape-font-specification:'Comic Neue Bold';text-align:center;text-anchor:middle;fill:#4d4d4d"
         id="path4163" />
      <path
         d="m 253.9249,154.75704 0,-8.28009 0,-0.65767 q 0,-0.48516 0.34501,-0.83016 0.345,-0.34501 0.83016,-0.34501 0.48516,0 0.81939,0.34501 0.345,0.345 0.345,0.83016 l 0,0.69001 q 0.0863,-0.10781 0.16172,-0.19407 0.0863,-0.097 0.19406,-0.20484 0.61454,-0.61454 1.36924,-0.94876 0.75469,-0.33422 1.63877,-0.33422 1.21829,0 2.00533,0.65766 0.7547,0.61454 1.07814,1.89752 0.24797,0.9272 0.2911,2.24253 0.0431,1.31532 0.0431,3.29909 l 0,1.2183 q 0,0.31266 0.0216,0.61454 0,0.48516 -0.345,0.83016 -0.33422,0.34501 -0.8086,0.34501 -0.48516,0 -0.83017,-0.33423 -0.33422,-0.345 -0.33422,-0.84094 -0.0216,-0.33423 -0.0216,-0.65767 l 0,-1.14282 q 0,-1.61721 -0.0324,-2.93253 -0.0323,-1.31533 -0.21562,-2.08081 -0.15094,-0.57141 -0.33423,-0.69001 -0.1725,-0.12937 -0.5175,-0.12937 -0.21563,0 -0.48516,0.0539 -0.26954,0.0539 -0.57142,0.26954 -0.29109,0.20484 -0.6361,0.60376 -0.345,0.39891 -0.70079,1.05657 -0.44203,0.84095 -0.71157,1.88674 -0.25875,1.03501 -0.25875,2.00533 l -0.0216,1.75737 q 0,0.48516 -0.34501,0.83016 -0.33422,0.34501 -0.81938,0.34501 -0.48516,0 -0.81939,-0.33423 -0.33422,-0.345 -0.33422,-0.84094 z"
         style="font-style:normal;font-variant:normal;font-weight:bold;font-stretch:normal;font-family:'Comic Neue';-inkscape-font-specification:'Comic Neue Bold';text-align:center;text-anchor:middle;fill:#4d4d4d"
         id="path4165" />
      <path
         d="m 264.96502,145.97022 q 0,-0.48516 0.33422,-0.81938 0.34501,-0.34501 0.84095,-0.34501 l 1.52017,0 0,-2.2533 q 0,-0.48517 0.32345,-0.81939 0.33422,-0.33422 0.84094,-0.33422 0.48516,0 0.81939,0.33422 0.33422,0.33422 0.33422,0.81939 l 0,2.2533 1.52017,0 q 0.50673,0 0.84095,0.34501 0.33422,0.33422 0.33422,0.81938 0,0.50673 -0.33422,0.84095 -0.33422,0.33422 -0.84095,0.33422 l -1.52017,0 0,7.64399 q 0,0.48516 -0.33422,0.81939 -0.33423,0.32344 -0.81939,0.32344 -0.50672,0 -0.84094,-0.32344 -0.32345,-0.33423 -0.32345,-0.81939 l 0,-7.64399 -1.52017,0 q -0.48516,0 -0.83016,-0.33422 -0.34501,-0.33422 -0.34501,-0.84095 z"
         style="font-style:normal;font-variant:normal;font-weight:bold;font-stretch:normal;font-family:'Comic Neue';-inkscape-font-specification:'Comic Neue Bold';text-align:center;text-anchor:middle;fill:#4d4d4d"
         id="path4167" />
      <path
         d="m 274.20466,150.43371 q 0,-1.07814 0.38813,-2.04846 0.38813,-0.98111 1.05658,-1.71424 0.67922,-0.74391 1.58486,-1.19673 0.90563,-0.45282 1.94064,-0.51751 0.19407,-0.0216 0.38813,-0.0216 1.05658,0 1.92987,0.50672 1.03501,0.59298 1.66033,1.59565 0.10781,0.1725 0.18328,0.35578 0.0755,0.1725 0.17251,0.32344 0.10781,0.20485 0.10781,0.45282 0,0.14016 -0.0323,0.31266 -0.097,0.45282 -0.56064,0.69001 -0.39891,0.21562 -1.12126,0.62532 -0.71157,0.39891 -1.55252,0.86251 -0.84094,0.4636 -1.70345,0.94876 -0.86251,0.48516 -1.54174,0.85173 0.35579,0.44203 0.8086,0.75469 0.71157,0.48516 1.61721,0.48516 1.26142,0 2.18862,-0.97032 l 0.44203,-0.4636 q 0.31266,-0.31266 0.76548,-0.31266 0.4636,0 0.79782,0.33422 0.33423,0.33423 0.33423,0.77626 0,0.39891 -0.26954,0.72235 l -0.44204,0.4636 q -0.75469,0.81939 -1.74658,1.26142 -0.97032,0.42048 -2.07002,0.42048 -1.0997,0 -2.0808,-0.43126 -0.97033,-0.43125 -1.69268,-1.16439 -0.71157,-0.74391 -1.13204,-1.74658 -0.42048,-1.00267 -0.42048,-2.15627 z m 2.23175,-0.15094 q 0.4636,-0.26954 1.07813,-0.60376 0.62532,-0.345 1.23986,-0.69001 0.62532,-0.345 1.18595,-0.65766 0.56063,-0.32344 0.95954,-0.54985 -0.57141,-0.57141 -1.3261,-0.61454 -0.7547,0.0216 -1.31533,0.30188 -0.56063,0.26954 -0.95954,0.71157 -0.79783,0.90564 -0.86251,2.10237 z"
         style="font-style:normal;font-variant:normal;font-weight:bold;font-stretch:normal;font-family:'Comic Neue';-inkscape-font-specification:'Comic Neue Bold';text-align:center;text-anchor:middle;fill:#4d4d4d"
         id="path4169" />
      <path
         d="m 286.61402,154.75704 0,-12.87296 q 0,-0.48516 0.345,-0.81938 0.34501,-0.34501 0.83017,-0.34501 0.50672,0 0.83016,0.34501 0.33423,0.33422 0.33423,0.81938 l 0,12.87296 q 0,0.50672 -0.33423,0.84094 -0.32344,0.33423 -0.83016,0.33423 -0.48516,0 -0.83017,-0.32344 -0.345,-0.33423 -0.345,-0.85173 z"
         style="font-style:normal;font-variant:normal;font-weight:bold;font-stretch:normal;font-family:'Comic Neue';-inkscape-font-specification:'Comic Neue Bold';text-align:center;text-anchor:middle;fill:#4d4d4d"
         id="path4171" />
      <path
         d="m 291.83219,154.75704 0,-12.87296 q 0,-0.48516 0.345,-0.81938 0.34501,-0.34501 0.83017,-0.34501 0.50672,0 0.83016,0.34501 0.33423,0.33422 0.33423,0.81938 l 0,12.87296 q 0,0.50672 -0.33423,0.84094 -0.32344,0.33423 -0.83016,0.33423 -0.48516,0 -0.83017,-0.32344 -0.345,-0.33423 -0.345,-0.85173 z"
         style="font-style:normal;font-variant:normal;font-weight:bold;font-stretch:normal;font-family:'Comic Neue';-inkscape-font-specification:'Comic Neue Bold';text-align:center;text-anchor:middle;fill:#4d4d4d"
         id="path4173" />
      <path
         d="m 297.05038,154.78938 0,-8.70056 q 0,-0.50673 0.35578,-0.85173 0.35579,-0.34501 0.86251,-0.34501 0.50672,0 0.85173,0.34501 0.35578,0.33422 0.35578,0.85173 l -0.0431,8.70056 q 0,0.50673 -0.34501,0.85173 -0.33422,0.33422 -0.84094,0.33422 -0.50673,0 -0.85173,-0.33422 -0.345,-0.345 -0.345,-0.85173 z m 0.0863,-12.21529 0.0431,-0.7547 q 0,-0.48516 0.34501,-0.81938 0.345,-0.345 0.83016,-0.345 0.48516,0 0.81939,0.345 0.345,0.33422 0.345,0.81938 l -0.0431,0.7547 q 0,0.48516 -0.345,0.83016 -0.33422,0.34501 -0.81938,0.34501 -0.48517,0 -0.83017,-0.34501 -0.345,-0.345 -0.345,-0.83016 z"
         style="font-style:normal;font-variant:normal;font-weight:bold;font-stretch:normal;font-family:'Comic Neue';-inkscape-font-specification:'Comic Neue Bold';text-align:center;text-anchor:middle;fill:#4d4d4d"
         id="path4175" />
      <path
         d="m 302.08528,151.31778 q -0.0216,-0.28032 -0.0216,-0.54985 0,-1.45548 0.58219,-2.7169 0.39891,-0.84095 1.03501,-1.52018 0.71157,-0.71157 1.6819,-1.1536 0.94876,-0.44204 1.94064,-0.44204 0.44204,0 0.81939,0.0862 0.38813,0.0863 0.74391,0.20485 l 0.18329,0.0431 q 0.15093,-0.24797 0.39891,-0.39891 0.25875,-0.15094 0.59297,-0.15094 0.48516,0 0.8086,0.33422 0.33423,0.32345 0.33423,0.80861 l 0,0.42047 q -0.0216,0.57141 -0.0324,1.43392 -0.0108,0.86251 -0.0323,1.82205 -0.0216,0.95955 -0.0431,1.92987 -0.0216,0.97032 -0.0431,1.75736 -0.0216,0.78704 -0.0324,1.31533 -0.0108,0.52829 -0.0108,0.61454 -0.0647,0.88407 -0.345,1.63877 -0.28032,0.75469 -0.78704,1.3261 -0.50673,0.57142 -1.17517,0.9272 -0.65766,0.35579 -1.4447,0.42048 -0.21563,0.0431 -0.43126,0.0431 -0.21563,0 -0.45282,0 -0.90563,0 -1.63877,-0.14016 l -0.33422,-0.0431 q -0.48516,-0.10782 -0.76548,-0.50673 -0.19406,-0.29109 -0.19406,-0.61453 0,-0.12938 0.0323,-0.26954 0.10782,-0.4636 0.50673,-0.73313 0.2911,-0.20485 0.60376,-0.20485 0.12937,0 0.25875,0.0324 l 0.20484,0.0216 q 0.31266,0.0431 0.63611,0.0755 0.33422,0.0431 0.69,0.0431 0.1725,0 0.32344,0 0.16172,0 0.33423,-0.0216 0.88407,-0.0863 1.30454,-0.88407 0.12938,-0.24797 0.19407,-0.50673 0.0755,-0.26953 0.11859,-0.46359 -0.0647,0.0431 -0.12937,0.0647 -0.0539,0.0216 -0.1186,0.0647 -0.86251,0.48516 -1.83283,0.48516 l -0.0863,0 q -1.91909,0 -3.18051,-1.59564 -0.50672,-0.6361 -0.8086,-1.40158 -0.2911,-0.77626 -0.38813,-1.59564 z m 2.17784,-0.86251 q 0,0.20485 0,0.36657 0,0.20484 0.0108,0.32344 0.0431,0.44203 0.21563,0.89485 0.18328,0.45282 0.43125,0.79782 0.61454,0.79782 1.47705,0.79782 l 0.0216,0 q 0.33422,0 0.74392,-0.12937 0.42047,-0.14016 0.79782,-0.54985 0.81938,-0.94876 0.81938,-2.87863 l 0,-2.46893 q -0.19406,-0.10781 -0.56063,-0.22641 -0.36657,-0.12938 -0.8086,-0.12938 -0.57142,0 -1.19673,0.24798 -1.30455,0.59297 -1.73581,1.89752 -0.19406,0.57141 -0.21562,1.05657 z"
         style="font-style:normal;font-variant:normal;font-weight:bold;font-stretch:normal;font-family:'Comic Neue';-inkscape-font-specification:'Comic Neue Bold';text-align:center;text-anchor:middle;fill:#4d4d4d"
         id="path4177" />
      <path
         d="m 313.70759,150.43371 q 0,-1.07814 0.38813,-2.04846 0.38813,-0.98111 1.05658,-1.71424 0.67922,-0.74391 1.58486,-1.19673 0.90563,-0.45282 1.94064,-0.51751 0.19407,-0.0216 0.38813,-0.0216 1.05658,0 1.92987,0.50672 1.03501,0.59298 1.66033,1.59565 0.10781,0.1725 0.18328,0.35578 0.0755,0.1725 0.17251,0.32344 0.10781,0.20485 0.10781,0.45282 0,0.14016 -0.0324,0.31266 -0.097,0.45282 -0.56063,0.69001 -0.39891,0.21562 -1.12126,0.62532 -0.71157,0.39891 -1.55252,0.86251 -0.84094,0.4636 -1.70345,0.94876 -0.86251,0.48516 -1.54174,0.85173 0.35579,0.44203 0.8086,0.75469 0.71157,0.48516 1.61721,0.48516 1.26142,0 2.18862,-0.97032 l 0.44203,-0.4636 q 0.31266,-0.31266 0.76548,-0.31266 0.4636,0 0.79782,0.33422 0.33423,0.33423 0.33423,0.77626 0,0.39891 -0.26954,0.72235 l -0.44204,0.4636 q -0.75469,0.81939 -1.74658,1.26142 -0.97032,0.42048 -2.07002,0.42048 -1.0997,0 -2.0808,-0.43126 -0.97033,-0.43125 -1.69268,-1.16439 -0.71157,-0.74391 -1.13204,-1.74658 -0.42048,-1.00267 -0.42048,-2.15627 z m 2.23175,-0.15094 q 0.4636,-0.26954 1.07813,-0.60376 0.62532,-0.345 1.23986,-0.69001 0.62532,-0.345 1.18595,-0.65766 0.56063,-0.32344 0.95954,-0.54985 -0.57141,-0.57141 -1.3261,-0.61454 -0.7547,0.0216 -1.31533,0.30188 -0.56063,0.26954 -0.95954,0.71157 -0.79783,0.90564 -0.86251,2.10237 z"
         style="font-style:normal;font-variant:normal;font-weight:bold;font-stretch:normal;font-family:'Comic Neue';-inkscape-font-specification:'Comic Neue Bold';text-align:center;text-anchor:middle;fill:#4d4d4d"
         id="path4179" />
      <path
         d="m 326.11695,154.75704 0,-8.28009 0,-0.65767 q 0,-0.48516 0.345,-0.83016 0.34501,-0.34501 0.83017,-0.34501 0.48516,0 0.81938,0.34501 0.34501,0.345 0.34501,0.83016 l 0,0.69001 q 0.0863,-0.10781 0.16172,-0.19407 0.0863,-0.097 0.19406,-0.20484 0.61454,-0.61454 1.36924,-0.94876 0.75469,-0.33422 1.63876,-0.33422 1.2183,0 2.00534,0.65766 0.7547,0.61454 1.07814,1.89752 0.24797,0.9272 0.29109,2.24253 0.0431,1.31532 0.0431,3.29909 l 0,1.2183 q 0,0.31266 0.0216,0.61454 0,0.48516 -0.345,0.83016 -0.33422,0.34501 -0.80861,0.34501 -0.48516,0 -0.83016,-0.33423 -0.33422,-0.345 -0.33422,-0.84094 -0.0216,-0.33423 -0.0216,-0.65767 l 0,-1.14282 q 0,-1.61721 -0.0323,-2.93253 -0.0323,-1.31533 -0.21563,-2.08081 -0.15094,-0.57141 -0.33422,-0.69001 -0.1725,-0.12937 -0.51751,-0.12937 -0.21562,0 -0.48516,0.0539 -0.26953,0.0539 -0.57141,0.26954 -0.2911,0.20484 -0.6361,0.60376 -0.345,0.39891 -0.70079,1.05657 -0.44204,0.84095 -0.71157,1.88674 -0.25875,1.03501 -0.25875,2.00533 l -0.0216,1.75737 q 0,0.48516 -0.345,0.83016 -0.33422,0.34501 -0.81938,0.34501 -0.48517,0 -0.81939,-0.33423 -0.33422,-0.345 -0.33422,-0.84094 z"
         style="font-style:normal;font-variant:normal;font-weight:bold;font-stretch:normal;font-family:'Comic Neue';-inkscape-font-specification:'Comic Neue Bold';text-align:center;text-anchor:middle;fill:#4d4d4d"
         id="path4181" />
      <path
         d="m 337.8363,151.23153 q 0,-0.0862 0,-0.1725 0,-0.71157 0.15094,-1.33689 0.1725,-0.69001 0.36657,-1.16439 0.24797,-0.6361 0.6361,-1.22908 0.39891,-0.60375 0.90563,-1.08892 1.34768,-1.30454 2.88941,-1.30454 l 0.10782,0 q 0.97032,0 1.81127,0.39891 0.84094,0.39891 1.43392,1.12126 l 0.0323,0.0216 q 0.21563,0.33422 0.21563,0.69 0,0.48516 -0.33422,0.83017 -0.32344,0.33422 -0.80861,0.33422 -0.26953,0 -0.50672,-0.11859 -0.22641,-0.1186 -0.37735,-0.2911 l -0.0216,-0.0216 q -0.26954,-0.33423 -0.65766,-0.51751 -0.38813,-0.19406 -0.83017,-0.19406 l -0.0647,0 q -0.42047,0 -0.77626,0.25875 -0.345,0.24797 -0.54985,0.45282 -0.31266,0.31266 -0.56063,0.71157 -0.24797,0.38813 -0.40969,0.76547 -0.36657,0.9272 -0.36657,1.6819 0,0.40969 0.10782,0.76547 0.10781,0.44204 0.31266,0.71158 0.21562,0.25875 0.40969,0.44203 0.37735,0.35579 0.79782,0.51751 0.42047,0.16172 0.86251,0.18328 l 0.21563,0 q 0.75469,-0.0431 1.30454,-0.39891 0.31266,-0.19407 0.48516,-0.39891 l 0.12938,-0.12938 q 0.1725,-0.1725 0.39891,-0.29109 0.22641,-0.12938 0.48516,-0.12938 0.48516,0 0.81939,0.345 0.33422,0.34501 0.33422,0.80861 0,0.44203 -0.2911,0.76547 l -0.15094,0.16172 q -0.24797,0.26954 -0.53906,0.48517 -0.28032,0.21562 -0.61454,0.39891 -0.50673,0.31266 -1.07814,0.45281 -0.57141,0.14016 -1.19673,0.18329 l -0.0216,0 -0.21563,0 q -1.78971,0 -3.24519,-1.26142 -0.84095,-0.71157 -1.23986,-1.67112 -0.35579,-0.84094 -0.35579,-1.76814 z"
         style="font-style:normal;font-variant:normal;font-weight:bold;font-stretch:normal;font-family:'Comic Neue';-inkscape-font-specification:'Comic Neue Bold';text-align:center;text-anchor:middle;fill:#4d4d4d"
         id="path4183" />
      <path
         d="m 348.98423,150.43371 q 0,-1.07814 0.38813,-2.04846 0.38813,-0.98111 1.05658,-1.71424 0.67922,-0.74391 1.58486,-1.19673 0.90563,-0.45282 1.94065,-0.51751 0.19406,-0.0216 0.38813,-0.0216 1.05657,0 1.92986,0.50672 1.03501,0.59298 1.66033,1.59565 0.10782,0.1725 0.18329,0.35578 0.0755,0.1725 0.1725,0.32344 0.10781,0.20485 0.10781,0.45282 0,0.14016 -0.0323,0.31266 -0.097,0.45282 -0.56063,0.69001 -0.39892,0.21562 -1.12127,0.62532 -0.71157,0.39891 -1.55251,0.86251 -0.84095,0.4636 -1.70346,0.94876 -0.86251,0.48516 -1.54174,0.85173 0.35579,0.44203 0.80861,0.75469 0.71157,0.48516 1.6172,0.48516 1.26142,0 2.18862,-0.97032 l 0.44204,-0.4636 q 0.31266,-0.31266 0.76547,-0.31266 0.4636,0 0.79782,0.33422 0.33423,0.33423 0.33423,0.77626 0,0.39891 -0.26954,0.72235 l -0.44203,0.4636 q -0.7547,0.81939 -1.74659,1.26142 -0.97032,0.42048 -2.07002,0.42048 -1.0997,0 -2.0808,-0.43126 -0.97033,-0.43125 -1.69268,-1.16439 -0.71157,-0.74391 -1.13204,-1.74658 -0.42048,-1.00267 -0.42048,-2.15627 z m 2.23175,-0.15094 q 0.4636,-0.26954 1.07814,-0.60376 0.62531,-0.345 1.23985,-0.69001 0.62532,-0.345 1.18595,-0.65766 0.56063,-0.32344 0.95955,-0.54985 -0.57142,-0.57141 -1.32611,-0.61454 -0.7547,0.0216 -1.31533,0.30188 -0.56063,0.26954 -0.95954,0.71157 -0.79782,0.90564 -0.86251,2.10237 z"
         style="font-style:normal;font-variant:normal;font-weight:bold;font-stretch:normal;font-family:'Comic Neue';-inkscape-font-specification:'Comic Neue Bold';text-align:center;text-anchor:middle;fill:#4d4d4d"
         id="path4185" />
    </g>
    <g
       transform="translate(573.81257,7230.5306)"
       style="font-style:normal;font-weight:normal;font-size:22.08024597px;line-height:125%;font-family:sans-serif;letter-spacing:0px;word-spacing:0px;fill:#4d4d4d;fill-opacity:1;stroke:none;stroke-width:1px;stroke-linecap:butt;stroke-linejoin:miter;stroke-opacity:1"
       id="flowRoot4242-6-5-4-6-4-2-2-5-9">
      <path
         d="m 0.2147804,13.896882 q 0,-0.485162 0.3234411,-0.819384 0.33422247,-0.334223 0.7978214,-0.334223 l 1.369234,0 0,-10.5118358 -1.369234,0 q -0.46359893,0 -0.7978214,-0.3234411 -0.3234411,-0.3342225 -0.3234411,-0.7978214 0,-0.48516164 0.3234411,-0.81938411 0.33422247,-0.33422248 0.7978214,-0.33422248 l 4.9917743,0 q 0.463599,0 0.7978214,0.33422248 0.3342225,0.33422247 0.3342225,0.81938411 0,0.4635989 -0.3342225,0.7978214 -0.3342224,0.3234411 -0.7978214,0.3234411 l -1.3476712,0 0,10.5118358 1.3476712,0 q 0.463599,0 0.7978214,0.334223 0.3342225,0.323441 0.3342225,0.819384 0,0.463599 -0.3342225,0.797821 -0.3342224,0.323441 -0.7978214,0.323441 l -4.9917743,0 q -0.46359893,0 -0.7978214,-0.323441 -0.3234411,-0.334222 -0.3234411,-0.797821 z"
         style="font-style:normal;font-variant:normal;font-weight:bold;font-stretch:normal;font-family:'Comic Neue';-inkscape-font-specification:'Comic Neue Bold';fill:#4d4d4d"
         id="path4140" />
      <path
         d="M 9.8856696,7.4172782 Q 9.9934833,5.9402305 10.564896,4.5925593 11.14709,3.244888 12.117413,2.1883137 q 0.948761,-1.0134488 2.167056,-1.58486138 1.218294,-0.59297535 2.565966,-0.603756725 1.121262,0 2.134711,0.420473435 1.013449,0.42047343 1.832833,1.21829487 1.121262,1.0996997 1.660331,2.6414356 0.442036,1.2937644 0.442036,2.7169053 0,0.291097 -0.02156,0.582194 -0.129376,1.5417359 -0.733133,2.9325322 -0.485161,1.013449 -1.121262,1.832833 l 1.390796,0.948761 q 0.377348,0.291097 0.485162,0.754696 0.02156,0.118595 0.02156,0.226409 0,0.334222 -0.183283,0.657663 -0.355786,0.528287 -0.948761,0.528287 -0.31266,0 -0.614538,-0.194064 L 19.297806,13.96157 q -1.563299,1.035011 -3.353006,1.035011 -1.121263,0 -2.145493,-0.420473 -1.013449,-0.420473 -1.832833,-1.218295 -1.121262,-1.0997 -1.64955,-2.652217 -0.4528171,-1.2829829 -0.4528171,-2.7061238 0,-0.291097 0.021563,-0.582194 z m 2.3503384,0.1617206 q -0.02156,0.2371901 -0.02156,0.4635989 0,0.9811047 0.301878,1.8867398 0.377348,1.1104815 1.110481,1.8220515 0.991886,0.948761 2.317995,0.948761 0.6361,0 1.207513,-0.226409 l -0.679226,-0.463599 q -0.377348,-0.247972 -0.485162,-0.743915 -0.02156,-0.118595 -0.02156,-0.23719 0,-0.323441 0.172502,-0.646882 0.355786,-0.5282871 0.948761,-0.5282871 0.355785,0 0.614538,0.1940651 l 1.423141,0.970323 q 0.614538,-0.733133 0.970323,-1.6495498 0.366567,-0.9271978 0.463599,-1.951428 0.01078,-0.1617205 0.01078,-0.3234411 0,-1.0134488 -0.345003,-1.9729907 Q 19.782967,3.9456771 19.028271,3.244888 18.014823,2.2961274 16.688714,2.2961274 q -0.819384,0 -1.57408,0.3881294 -0.743914,0.3881293 -1.380015,1.0996997 -0.636101,0.7546959 -1.02423,1.7250192 -0.38813,0.959542 -0.474381,2.0700231 z"
         style="font-style:normal;font-variant:normal;font-weight:bold;font-stretch:normal;font-family:'Comic Neue';-inkscape-font-specification:'Comic Neue Bold';fill:#4d4d4d"
         id="path4142" />
    </g>
    <g
       transform="translate(505.6962,7321.0428)"
       style="font-style:normal;font-weight:normal;font-size:22.08024597px;line-height:125%;font-family:sans-serif;letter-spacing:0px;word-spacing:0px;fill:#4d4d4d;fill-opacity:1;stroke:none;stroke-width:1px;stroke-linecap:butt;stroke-linejoin:miter;stroke-opacity:1"
       id="flowRoot4242-6-5-4-6-4-2-2-5-9-7">
      <path
         d="M 0.00993437,8.6571358 Q -8.4700435e-4,8.4846339 -8.4700435e-4,8.3121319 0.00993437,7.3202459 0.22556177,6.4900804 0.48431465,5.5197571 0.67837931,5.0130327 0.74306753,4.8620935 0.87244397,4.527871 1.0126018,4.1936486 1.2390106,3.7731751 1.4762007,3.3419203 1.7888604,2.8567587 2.1123015,2.3608156 2.5543377,1.8972167 2.9316857,1.4551806 3.3521591,1.1425208 3.7726325,0.81907972 4.2146687,0.58188958 5.2065548,0.01047697 6.34938,-3.04405e-4 q 0.8840723,0 1.6818937,0.237190145 0.7978214,0.22640877 1.3907968,0.60375672 0.5929755,0.37734794 0.9487605,0.86250964 0.355785,0.4851616 0.355785,0.991886 l 0,0.5714126 q 0,0.4420362 -0.312659,0.7762587 -0.31266,0.3342225 -0.7546964,0.3342225 -0.4204734,0 -0.7439145,-0.2695343 Q 8.6026863,3.827082 8.6026863,3.3850458 q 0,-0.291097 -0.5714126,-0.6576636 -0.5714126,-0.3665666 -1.660331,-0.3665666 -0.3773479,0 -0.700789,0.1293765 Q 5.3574939,2.6087872 5.0771783,2.7812891 4.8076441,2.9430096 4.5920167,3.158637 4.3871706,3.3634831 4.2362314,3.5144222 3.7941953,3.9995839 3.4060659,4.6033406 3.0179366,5.196316 2.7699651,5.8108541 2.5759005,6.3283598 2.4033985,7.061493 2.2524593,7.7083752 2.2524593,8.3983829 q 0,0.086251 0.010781,0.1832833 0.021563,0.78704 0.291097,1.5525168 0.2695343,0.754696 0.9703233,1.369234 l 0,0.02156 q 1.1967321,1.121263 2.5012779,1.153607 l 0.2587529,-0.02156 0.064688,0 q 0.9271978,-0.04312 1.6818937,-0.431255 0.7546959,-0.388129 1.2614203,-1.02423 l 0.1293765,-0.204846 q 0.291097,-0.398911 0.7546951,-0.47438 0.09703,-0.02156 0.194065,-0.02156 0.345004,0 0.636101,0.215627 0.366566,0.31266 0.452817,0.78704 0.02156,0.09703 0.02156,0.194065 0,0.355785 -0.226409,0.668445 l -0.129376,0.226409 q -0.733133,0.94876 -1.7681444,1.584861 -0.6361008,0.377348 -1.3800153,0.592976 -0.7439146,0.204846 -1.541736,0.247971 l -0.3018783,0 q -2.2317436,0 -4.107702,-1.703456 Q 0.94791356,12.301239 0.45197054,11.039819 0.00993437,9.9616816 0.00993437,8.6571358 Z"
         style="font-style:normal;font-variant:normal;font-weight:bold;font-stretch:normal;font-family:'Comic Neue';-inkscape-font-specification:'Comic Neue Bold';fill:#4d4d4d"
         id="path4119" />
      <path
         d="m 14.036497,13.875319 0,-8.9054118 q 0,-0.5067244 0.345003,-0.8301655 0.345004,-0.3342225 0.830166,-0.3342225 0.506724,0 0.830165,0.3342225 0.334223,0.3234411 0.334223,0.8301655 l 0,0.1832833 q 0.31266,-0.3342225 0.700789,-0.6037567 0.388129,-0.2803156 0.830165,-0.4204735 0.592976,-0.2156274 1.164388,-0.2156274 0.86251,0 1.455485,0.463599 0.776259,0.5929753 0.776259,1.5417359 l 0,0.6468822 q 0,0.4635989 -0.334222,0.8086027 -0.334223,0.3342225 -0.819385,0.3342225 -0.485161,0 -0.819384,-0.3342225 Q 19.006708,7.0291489 19.006708,6.56555 l 0,-0.3342225 -0.04312,0 q -0.04313,0 -0.150939,0.010781 -0.09703,0.010781 -0.247972,0.053907 -0.377348,0.1078137 -0.819384,0.4959431 -0.442036,0.3881293 -0.797821,0.9164164 -0.355786,0.5282872 -0.452818,0.8948537 -0.09703,0.3665666 -0.118595,0.4528176 l 0,4.8192727 q 0,0.485162 -0.334223,0.830165 -0.323441,0.334223 -0.830165,0.334223 -0.485162,0 -0.830166,-0.334223 -0.345003,-0.345003 -0.345003,-0.830165 z"
         style="font-style:normal;font-variant:normal;font-weight:bold;font-stretch:normal;font-family:'Comic Neue';-inkscape-font-specification:'Comic Neue Bold';fill:#4d4d4d"
         id="path4121" />
      <path
         d="m 23.276129,9.5196454 q 0,-1.078137 0.38813,-2.0484603 0.388129,-0.9811047 1.056574,-1.7142379 0.679226,-0.7439145 1.584861,-1.1967321 0.905636,-0.4528175 1.940647,-0.5175057 0.194065,-0.021563 0.388129,-0.021563 1.056575,0 1.929866,0.5067244 1.035011,0.5929754 1.660331,1.5956428 0.107813,0.1725019 0.183283,0.3557852 0.07547,0.1725019 0.172502,0.3234411 0.107814,0.2048461 0.107814,0.4528176 0,0.1401578 -0.03234,0.3126597 -0.09703,0.4528176 -0.560631,0.6900077 -0.39891,0.2156274 -1.121262,0.6253195 -0.711571,0.3989107 -1.552518,0.8625096 -0.840946,0.463599 -1.703456,0.948761 -0.86251,0.485161 -1.541736,0.851728 0.355785,0.442036 0.808603,0.754696 0.71157,0.485162 1.617205,0.485162 1.261421,0 2.188618,-0.970324 l 0.442037,-0.463599 q 0.312659,-0.312659 0.765477,-0.312659 0.463599,0 0.797821,0.334222 0.334223,0.334223 0.334223,0.776259 0,0.39891 -0.269534,0.722351 l -0.442037,0.463599 q -0.754696,0.819385 -1.746582,1.261421 -0.970323,0.420473 -2.070023,0.420473 -1.099699,0 -2.080804,-0.431255 -0.970323,-0.431254 -1.692675,-1.164388 -0.711571,-0.743914 -1.132044,-1.746582 -0.420474,-1.002667 -0.420474,-2.1562738 z M 25.507873,9.3687062 Q 25.971472,9.099172 26.58601,8.7649495 27.21133,8.4199456 27.825868,8.0749418 28.451187,7.729938 29.011818,7.4172782 29.57245,7.0938371 29.97136,6.8674284 29.399948,6.2960157 28.645252,6.2528903 27.890556,6.274453 27.329925,6.5547686 26.769293,6.8243029 26.370383,7.266339 25.572561,8.1719741 25.507873,9.3687062 Z"
         style="font-style:normal;font-variant:normal;font-weight:bold;font-stretch:normal;font-family:'Comic Neue';-inkscape-font-specification:'Comic Neue Bold';fill:#4d4d4d"
         id="path4123" />
      <path
         d="m 35.394389,10.867317 q -0.04312,-0.323441 -0.04312,-0.668445 0,-0.398911 0.06469,-0.8301658 0.107814,-0.7978214 0.334222,-1.5525173 0.31266,-0.9487605 0.86251,-1.7034565 0.54985,-0.7654772 1.26142,-1.2937644 1.142826,-0.8840723 2.738468,-0.8840723 0.592976,0 1.110482,0.1078137 0.517505,0.1078137 0.916416,0.2479715 0.398911,0.1293764 0.657664,0.2695342 0.269534,0.1293765 0.334222,0.1509392 0.129376,0.086251 0.323441,0.291097 0.194065,0.1940647 0.194065,0.5929754 l 0,4.3664549 q 0,1.7681444 0.02156,3.9352004 l 0,0.23719 q 0,0.485161 -0.345004,0.830165 -0.345004,0.345004 -0.830166,0.345004 -0.398911,0 -0.700789,-0.23719 -0.291097,-0.226409 -0.398911,-0.603757 l -0.04313,0.02156 q -0.463599,0.194065 -1.056574,0.355785 -0.582194,0.150939 -1.153607,0.150939 l -0.08625,0 q -1.703456,-0.04313 -2.8355,-1.175169 -1.121263,-1.142825 -1.326109,-2.954095 z m 2.350339,-0.269535 q 0.02156,0.172502 0.09703,0.517506 0.07547,0.345004 0.269535,0.700789 0.204846,0.355785 0.549849,0.614538 0.355786,0.247972 0.93798,0.269535 l 0.04312,0 q 0.614538,0 1.390797,-0.398911 0.247971,-0.107814 0.431255,-0.215628 0.183283,-0.118595 0.334222,-0.226408 0,-0.269535 0,-0.743915 0,-0.47438 0.01078,-1.067355 0.01078,-0.5929758 0.02156,-1.2829835 0.02156,-0.7007891 0.04313,-1.4123595 l 0,-0.8840723 q -0.129377,-0.043125 -0.280316,-0.07547 -0.140158,-0.032344 -0.301878,-0.07547 -0.334223,-0.064688 -0.636101,-0.064688 l -0.04313,0 q -0.776258,0 -1.326108,0.3989106 -0.54985,0.4204735 -0.86251,0.9487606 -0.312659,0.5282872 -0.442036,0.9703233 -0.172502,0.5067244 -0.23719,1.0457929 -0.03234,0.2803156 -0.03234,0.5390679 0.01078,0.226409 0.03234,0.442036 z"
         style="font-style:normal;font-variant:normal;font-weight:bold;font-stretch:normal;font-family:'Comic Neue';-inkscape-font-specification:'Comic Neue Bold';fill:#4d4d4d"
         id="path4125" />
      <path
         d="m 46.035603,5.0561582 q 0,-0.4851617 0.334223,-0.8193842 0.345003,-0.3450038 0.840946,-0.3450038 l 1.520174,0 0,-2.2533063 q 0,-0.4851617 0.323441,-0.81938418 0.334222,-0.33422247 0.840947,-0.33422247 0.485161,0 0.819384,0.33422247 0.334222,0.33422248 0.334222,0.81938418 l 0,2.2533063 1.520173,0 q 0.506725,0 0.840947,0.3450038 0.334223,0.3342225 0.334223,0.8193842 0,0.5067244 -0.334223,0.8409468 -0.334222,0.3342225 -0.840947,0.3342225 l -1.520173,0 0,7.6439915 q 0,0.485162 -0.334222,0.819384 -0.334223,0.323441 -0.819384,0.323441 -0.506725,0 -0.840947,-0.323441 -0.323441,-0.334222 -0.323441,-0.819384 l 0,-7.6439915 -1.520174,0 q -0.485161,0 -0.830165,-0.3342225 -0.345004,-0.3342224 -0.345004,-0.8409468 z"
         style="font-style:normal;font-variant:normal;font-weight:bold;font-stretch:normal;font-family:'Comic Neue';-inkscape-font-specification:'Comic Neue Bold';fill:#4d4d4d"
         id="path4127" />
      <path
         d="m 55.609459,13.875319 0,-8.7005658 q 0,-0.5067244 0.355786,-0.8517282 0.355785,-0.3450038 0.862509,-0.3450038 0.506725,0 0.851728,0.3450038 0.355786,0.3342225 0.355786,0.8517282 l -0.04313,8.7005658 q 0,0.506724 -0.345004,0.851728 -0.334222,0.334223 -0.840947,0.334223 -0.506724,0 -0.851728,-0.334223 -0.345004,-0.345004 -0.345004,-0.851728 z m 0.08625,-12.2152924 0.04313,-0.75469592 q 0,-0.48516165 0.345004,-0.81938412 0.345003,-0.34500385 0.830165,-0.34500385 0.485162,0 0.819384,0.34500385 0.345004,0.33422247 0.345004,0.81938412 l -0.04312,0.75469592 q 0,0.4851616 -0.345004,0.8301655 -0.334223,0.3450038 -0.819384,0.3450038 -0.485162,0 -0.830166,-0.3450038 Q 55.69571,2.1451882 55.69571,1.6600266 Z"
         style="font-style:normal;font-variant:normal;font-weight:bold;font-stretch:normal;font-family:'Comic Neue';-inkscape-font-specification:'Comic Neue Bold';fill:#4d4d4d"
         id="path4129" />
      <path
         d="m 59.835754,5.6167894 q -0.08625,-0.2156274 -0.08625,-0.4312548 0,-0.2371901 0.09703,-0.4743803 0.183284,-0.4635989 0.62532,-0.6468822 0.204846,-0.07547 0.409692,-0.07547 0.23719,-0.010781 0.485161,0.097032 0.452818,0.1940646 0.62532,0.6468822 l 2.371901,6.2424127 2.36112,-6.2424127 q 0.172502,-0.4312548 0.603757,-0.6468822 0.23719,-0.1185951 0.485162,-0.1185951 0.204846,0 0.409692,0.07547 0.442036,0.1725019 0.657663,0.6253194 0.107814,0.2371902 0.107814,0.4851617 0,0.204846 -0.08625,0.4096921 l -3.331443,8.5711898 q -0.107814,0.377348 -0.442036,0.636101 -0.334223,0.247971 -0.765478,0.247971 -0.442036,0 -0.78704,-0.258753 -0.345004,-0.269534 -0.47438,-0.668445 L 59.835754,5.6167894 Z"
         style="font-style:normal;font-variant:normal;font-weight:bold;font-stretch:normal;font-family:'Comic Neue';-inkscape-font-specification:'Comic Neue Bold';fill:#4d4d4d"
         id="path4131" />
      <path
         d="m 70.660248,13.875319 0,-8.7005658 q 0,-0.5067244 0.355785,-0.8517282 0.355786,-0.3450038 0.86251,-0.3450038 0.506724,0 0.851728,0.3450038 0.355785,0.3342225 0.355785,0.8517282 l -0.04313,8.7005658 q 0,0.506724 -0.345004,0.851728 -0.334222,0.334223 -0.840947,0.334223 -0.506724,0 -0.851728,-0.334223 -0.345004,-0.345004 -0.345004,-0.851728 z m 0.08625,-12.2152924 0.04313,-0.75469592 q 0,-0.48516165 0.345003,-0.81938412 0.345004,-0.34500385 0.830166,-0.34500385 0.485162,0 0.819384,0.34500385 0.345004,0.33422247 0.345004,0.81938412 l -0.04313,0.75469592 q 0,0.4851616 -0.345003,0.8301655 -0.334223,0.3450038 -0.819384,0.3450038 -0.485162,0 -0.830166,-0.3450038 -0.345004,-0.3450039 -0.345004,-0.8301655 z"
         style="font-style:normal;font-variant:normal;font-weight:bold;font-stretch:normal;font-family:'Comic Neue';-inkscape-font-specification:'Comic Neue Bold';fill:#4d4d4d"
         id="path4133" />
      <path
         d="m 75.015927,5.0561582 q 0,-0.4851617 0.334222,-0.8193842 0.345004,-0.3450038 0.840947,-0.3450038 l 1.520173,0 0,-2.2533063 q 0,-0.4851617 0.323441,-0.81938418 0.334223,-0.33422247 0.840947,-0.33422247 0.485162,0 0.819384,0.33422247 0.334223,0.33422248 0.334223,0.81938418 l 0,2.2533063 1.520173,0 q 0.506725,0 0.840947,0.3450038 0.334222,0.3342225 0.334222,0.8193842 0,0.5067244 -0.334222,0.8409468 -0.334222,0.3342225 -0.840947,0.3342225 l -1.520173,0 0,7.6439915 q 0,0.485162 -0.334223,0.819384 -0.334222,0.323441 -0.819384,0.323441 -0.506724,0 -0.840947,-0.323441 -0.323441,-0.334222 -0.323441,-0.819384 l 0,-7.6439915 -1.520173,0 q -0.485161,0 -0.830165,-0.3342225 -0.345004,-0.3342224 -0.345004,-0.8409468 z"
         style="font-style:normal;font-variant:normal;font-weight:bold;font-stretch:normal;font-family:'Comic Neue';-inkscape-font-specification:'Comic Neue Bold';fill:#4d4d4d"
         id="path4135" />
      <path
         d="m 83.662585,4.7650612 q 0.150939,-0.4528176 0.592976,-0.6792263 0.247971,-0.1078137 0.495943,-0.1078137 0.204846,0 0.39891,0.064688 0.452818,0.1509392 0.679227,0.5929753 l 2.889407,5.8111585 2.67378,-5.7572516 q 0.172502,-0.4420362 0.625319,-0.6253195 0.226409,-0.086251 0.452818,-0.086251 0.226408,0 0.442036,0.086251 0.442036,0.1940647 0.614538,0.6468822 0.09703,0.2371902 0.09703,0.4635989 0,0.2264088 -0.08625,0.4420362 L 87.834976,17.929114 q -0.194065,0.442036 -0.646883,0.603757 -0.204846,0.08625 -0.420473,0.08625 -0.23719,0 -0.47438,-0.107814 -0.442037,-0.194065 -0.614538,-0.646882 -0.08625,-0.215628 -0.08625,-0.431255 0,-0.23719 0.107813,-0.47438 L 87.457628,13.163748 83.727274,5.6599149 Q 83.597897,5.401162 83.597897,5.1316278 q 0,-0.1832833 0.06469,-0.3665666 z"
         style="font-style:normal;font-variant:normal;font-weight:bold;font-stretch:normal;font-family:'Comic Neue';-inkscape-font-specification:'Comic Neue Bold';fill:#4d4d4d"
         id="path4137" />
    </g>
    <g
       transform="translate(409.21297,7380.1777)"
       style="font-style:normal;font-weight:normal;font-size:22.08024597px;line-height:125%;font-family:sans-serif;letter-spacing:0px;word-spacing:0px;fill:#4d4d4d;fill-opacity:1;stroke:none;stroke-width:1px;stroke-linecap:butt;stroke-linejoin:miter;stroke-opacity:1"
       id="flowRoot4242-6-5-4-6-4-2-2-5-9-8">
      <path
         d="m 155.7031,2.6303499 q -0.10782,-0.291097 -0.0431,-0.5714126 0.0647,-0.291097 0.23719,-0.5067244 l 0.0323,-0.021563 q 0.61454,-0.75469586 1.45548,-1.26142025 1.14283,-0.71157043 2.42581,-0.71157043 2.16706,0 3.51473,1.28298304 0.71157,0.61453814 1.01345,1.45548494 0.35578,0.8409469 0.35578,1.8543957 0,1.5632986 -1.00267,2.9001885 -0.42047,0.5714127 -0.88407,0.9811047 -0.4636,0.4096921 -0.85173,0.7331332 l -0.0755,0.07547 q -0.24797,0.1940646 -0.8086,0.6900077 -0.56063,0.495943 -1.3908,1.272201 l -0.0216,0 -0.0216,0.04313 q -0.35579,0.31266 -0.77626,0.31266 -0.4636,0 -0.78704,-0.334223 -0.32344,-0.334222 -0.32344,-0.776258 0,-0.5282874 0.39891,-0.8625099 l 0.0216,0 0.0216,-0.021563 0.0216,-0.021563 q 0.52828,-0.4635989 1.16439,-1.0350115 0.64688,-0.5714126 1.08891,-0.9703233 0.0863,-0.086251 0.16172,-0.1509392 0.0863,-0.07547 0.17251,-0.1617205 0.31266,-0.2695343 0.61453,-0.5498499 0.31266,-0.291097 0.53907,-0.6145381 0.23719,-0.3342225 0.37735,-0.7007891 0.15094,-0.3665665 0.15094,-0.8086027 0,-0.9918861 -0.57141,-1.6064242 -0.67923,-0.7546959 -2.10237,-0.7546959 -0.42047,0 -0.77626,0.1401578 -0.345,0.1293765 -0.62532,0.3234411 -0.28031,0.1832833 -0.50672,0.3989107 -0.21563,0.2048461 -0.34501,0.377348 l -0.0216,0.043125 -0.0647,0.043125 q -0.1725,0.1293764 -0.37734,0.204846 -0.17251,0.064688 -0.33423,0.064688 -0.37735,0 -0.66844,-0.204846 -0.28032,-0.2156274 -0.38813,-0.5498499 z m 0.94876,10.9754351 q 0.0431,-0.54985 0.42047,-0.927198 0.39891,-0.420474 0.9272,-0.420474 0.57141,0 0.90564,0.398911 0.37734,0.442036 0.31266,1.056574 l 0,0.02156 q -0.0647,0.506725 -0.42048,0.86251 -0.39891,0.420473 -0.94876,0.420473 -0.48516,0 -0.86251,-0.377348 -0.39891,-0.442036 -0.33422,-1.035011 z"
         style="font-style:normal;font-variant:normal;font-weight:bold;font-stretch:normal;font-family:'Comic Neue';-inkscape-font-specification:'Comic Neue Bold';text-align:center;text-anchor:middle;fill:#4d4d4d"
         id="path4112" />
      <path
         d="m 167.56261,2.6303499 q -0.10782,-0.291097 -0.0431,-0.5714126 0.0647,-0.291097 0.23719,-0.5067244 l 0.0323,-0.021563 q 0.61454,-0.75469586 1.45549,-1.26142025 1.14283,-0.71157043 2.42581,-0.71157043 2.16705,0 3.51472,1.28298304 0.71158,0.61453814 1.01345,1.45548494 0.35579,0.8409469 0.35579,1.8543957 0,1.5632986 -1.00267,2.9001885 -0.42047,0.5714127 -0.88407,0.9811047 -0.4636,0.4096921 -0.85173,0.7331332 l -0.0755,0.07547 q -0.24797,0.1940646 -0.8086,0.6900077 -0.56063,0.495943 -1.3908,1.272201 l -0.0216,0 -0.0216,0.04313 q -0.35579,0.31266 -0.77626,0.31266 -0.4636,0 -0.78704,-0.334223 -0.32344,-0.334222 -0.32344,-0.776258 0,-0.5282874 0.39891,-0.8625099 l 0.0216,0 0.0216,-0.021563 0.0216,-0.021563 q 0.52828,-0.4635989 1.16438,-1.0350115 0.64689,-0.5714126 1.08892,-0.9703233 0.0863,-0.086251 0.16172,-0.1509392 0.0863,-0.07547 0.1725,-0.1617205 0.31266,-0.2695343 0.61454,-0.5498499 0.31266,-0.291097 0.53907,-0.6145381 0.23719,-0.3342225 0.37735,-0.7007891 0.15094,-0.3665665 0.15094,-0.8086027 0,-0.9918861 -0.57141,-1.6064242 -0.67923,-0.7546959 -2.10237,-0.7546959 -0.42048,0 -0.77626,0.1401578 -0.345,0.1293765 -0.62532,0.3234411 -0.28032,0.1832833 -0.50672,0.3989107 -0.21563,0.2048461 -0.34501,0.377348 l -0.0216,0.043125 -0.0647,0.043125 q -0.1725,0.1293764 -0.37735,0.204846 -0.1725,0.064688 -0.33422,0.064688 -0.37735,0 -0.66844,-0.204846 -0.28032,-0.2156274 -0.38813,-0.5498499 z m 0.94876,10.9754351 q 0.0431,-0.54985 0.42047,-0.927198 0.39891,-0.420474 0.9272,-0.420474 0.57141,0 0.90563,0.398911 0.37735,0.442036 0.31266,1.056574 l 0,0.02156 q -0.0647,0.506725 -0.42047,0.86251 -0.39891,0.420473 -0.94876,0.420473 -0.48516,0 -0.86251,-0.377348 -0.39891,-0.442036 -0.33422,-1.035011 z"
         style="font-style:normal;font-variant:normal;font-weight:bold;font-stretch:normal;font-family:'Comic Neue';-inkscape-font-specification:'Comic Neue Bold';text-align:center;text-anchor:middle;fill:#4d4d4d"
         id="path4114" />
      <path
         d="m 179.42211,2.6303499 q -0.10781,-0.291097 -0.0431,-0.5714126 0.0647,-0.291097 0.23719,-0.5067244 l 0.0323,-0.021563 q 0.61454,-0.75469586 1.45549,-1.26142025 1.14282,-0.71157043 2.42581,-0.71157043 2.16705,0 3.51472,1.28298304 0.71157,0.61453814 1.01345,1.45548494 0.35579,0.8409469 0.35579,1.8543957 0,1.5632986 -1.00267,2.9001885 -0.42047,0.5714127 -0.88407,0.9811047 -0.4636,0.4096921 -0.85173,0.7331332 l -0.0755,0.07547 q -0.24797,0.1940646 -0.8086,0.6900077 -0.56064,0.495943 -1.3908,1.272201 l -0.0216,0 -0.0216,0.04313 q -0.35578,0.31266 -0.77625,0.31266 -0.4636,0 -0.78704,-0.334223 -0.32345,-0.334222 -0.32345,-0.776258 0,-0.5282874 0.39891,-0.8625099 l 0.0216,0 0.0216,-0.021563 0.0216,-0.021563 q 0.52829,-0.4635989 1.16439,-1.0350115 0.64688,-0.5714126 1.08892,-0.9703233 0.0863,-0.086251 0.16172,-0.1509392 0.0863,-0.07547 0.1725,-0.1617205 0.31266,-0.2695343 0.61454,-0.5498499 0.31266,-0.291097 0.53907,-0.6145381 0.23719,-0.3342225 0.37735,-0.7007891 0.15094,-0.3665665 0.15094,-0.8086027 0,-0.9918861 -0.57142,-1.6064242 -0.67922,-0.7546959 -2.10236,-0.7546959 -0.42048,0 -0.77626,0.1401578 -0.34501,0.1293765 -0.62532,0.3234411 -0.28032,0.1832833 -0.50673,0.3989107 -0.21562,0.2048461 -0.345,0.377348 l -0.0216,0.043125 -0.0647,0.043125 q -0.1725,0.1293764 -0.37735,0.204846 -0.1725,0.064688 -0.33422,0.064688 -0.37735,0 -0.66845,-0.204846 -0.28031,-0.2156274 -0.38813,-0.5498499 z m 0.94876,10.9754351 q 0.0431,-0.54985 0.42048,-0.927198 0.39891,-0.420474 0.9272,-0.420474 0.57141,0 0.90563,0.398911 0.37735,0.442036 0.31266,1.056574 l 0,0.02156 q -0.0647,0.506725 -0.42047,0.86251 -0.39891,0.420473 -0.94876,0.420473 -0.48517,0 -0.86251,-0.377348 -0.39891,-0.442036 -0.33423,-1.035011 z"
         style="font-style:normal;font-variant:normal;font-weight:bold;font-stretch:normal;font-family:'Comic Neue';-inkscape-font-specification:'Comic Neue Bold';text-align:center;text-anchor:middle;fill:#4d4d4d"
         id="path4116" />
    </g>
  </g>
</svg>
